<svg xmlns="http://www.w3.org/2000/svg" width="269.235" height="211.961" viewBox="0 0 269.235 211.961">
  <g id="Group_982" data-name="Group 982" transform="translate(-288 -1933.489)">
    <rect id="Rectangle_344" data-name="Rectangle 344" width="244.316" height="156.471" transform="translate(312.815 1933.627)" fill="#e6e6e6"/>
    <rect id="Rectangle_345" data-name="Rectangle 345" width="230.344" height="127.589" transform="translate(319.801 1953.252)" fill="#fff"/>
    <rect id="Rectangle_346" data-name="Rectangle 346" width="244.316" height="10.379" transform="translate(312.919 1933.489)" fill="#6c63ff"/>
    <circle id="Ellipse_27" data-name="Ellipse 27" cx="1.924" cy="1.924" r="1.924" transform="translate(547.598 1936.872)" fill="#fff"/>
    <circle id="Ellipse_28" data-name="Ellipse 28" cx="1.924" cy="1.924" r="1.924" transform="translate(540.296 1936.872)" fill="#fff"/>
    <circle id="Ellipse_29" data-name="Ellipse 29" cx="1.924" cy="1.924" r="1.924" transform="translate(532.994 1936.872)" fill="#fff"/>
    <rect id="Rectangle_347" data-name="Rectangle 347" width="59.187" height="101.112" transform="translate(470.027 1966.491)" fill="#e6e6e6"/>
    <rect id="Rectangle_349" data-name="Rectangle 349" width="49.323" height="29.946" transform="translate(410.487 2002.074)" fill="#e6e6e6"/>
    <rect id="Rectangle_350" data-name="Rectangle 350" width="49.323" height="27.832" transform="translate(410.487 2039.771)" fill="#e6e6e6"/>
    <rect id="Rectangle_351" data-name="Rectangle 351" width="59.187" height="44.064" transform="translate(340.731 1966.491)" fill="#e6e6e6"/>
    <rect id="Rectangle_352" data-name="Rectangle 352" width="59.187" height="44.064" transform="translate(340.731 2023.539)" fill="#e6e6e6"/>
    <path id="Path_321" data-name="Path 321" d="M781.136,345.841v-9.486a12.712,12.712,0,1,0-25.423,0v9.486a1.709,1.709,0,0,0,1.708,1.708h22.008a1.709,1.709,0,0,0,1.707-1.708Z" transform="translate(-417.604 1667.879)" fill="#2f2e41"/>
    <path id="Path_322" data-name="Path 322" d="M563.462,508.505l4.484,1.241,6.92-16.7-6.617-1.831Z" transform="translate(-231.438 1628.669)" fill="#ffb8b8"/>
    <path id="Path_323" data-name="Path 323" d="M5.649,5.649h8.972V0H0A5.649,5.649,0,0,0,5.649,5.649Z" transform="translate(344.001 2144.97) rotate(-164.53)" fill="#2f2e41"/>
    <path id="Path_324" data-name="Path 324" d="M452.236,516.531h4.652l2.213-17.944h-6.866Z" transform="translate(-73.469 1624.093)" fill="#ffb8b8"/>
    <path id="Path_325" data-name="Path 325" d="M443.4,542.372h-8.972v5.649h14.621a5.649,5.649,0,0,0-5.649-5.649Z" transform="translate(-56.653 1596.922)" fill="#2f2e41"/>
    <path id="Path_326" data-name="Path 326" d="M716.96,442.26a3.816,3.816,0,0,1-5.841.348l-12.367,5.562,1.125-6.956L711.449,437a3.836,3.836,0,0,1,5.511,5.261Z" transform="translate(-332.583 1598.082)" fill="#ffb8b8"/>
    <path id="Path_327" data-name="Path 327" d="M733.661,481.683a25.083,25.083,0,0,0,11.288-2.3,14.577,14.577,0,0,0,7.479-8.942c1.762-5.578-.46-11.057-2.607-16.356-1.331-3.284-2.588-6.385-2.914-9.442l-.114-1.085c-.508-4.875-.947-9.085-3.376-10.665-1.259-.819-2.952-.865-5.176-.143l-20.887,6.785.768,39.649.127.042A55.474,55.474,0,0,0,733.661,481.683Z" transform="translate(-374.979 1600.489)" fill="#2f2e41"/>
    <path id="Path_328" data-name="Path 328" d="M757.154,397.531s-10.245-3.036-18.214-1.9c0,0,4.553,25.044,3.036,33.392s26.372,3.225,20.68-4.743l-1.9-9.486a6.33,6.33,0,0,0,.379-8.348Z" transform="translate(-393.527 1623.365)" fill="#6c63ff"/>
    <path id="Path_329" data-name="Path 329" d="M718.256,459.324l12.627-2.368-4.408-33.926c-.3-.947-7.125-22.442-10.227-23.605a52.944,52.944,0,0,0-6.893-1.915l-.449-.09,2.532,3.8,10.08,24.154Z" transform="translate(-349.59 1622.097)" fill="#2f2e41"/>
    <path id="Path_330" data-name="Path 330" d="M731.653,556.426l16.315-2.719-9.156-37.385-13.624-51.127-.134.908c-.011.068-1.283,6.747-20.168,3.783l-.166-.026-.046.162L681.848,550.67l18.59,3.1,16.955-58.841Z" transform="translate(-356.407 1580.04)" fill="#2f2e41"/>
    <path id="Path_331" data-name="Path 331" d="M804.261,463.7l-.01-.287c-.011-.319-1.134-32.016-.759-44.763a70.314,70.314,0,0,0-3.807-23.978l-.034-.089-.091-.026c-5.358-1.531-10.006,3.038-10.052,3.084l-.065.065,1.526,12.589-6.533,45.778Z" transform="translate(-451.628 1624.068)" fill="#2f2e41"/>
    <circle id="Ellipse_30" data-name="Ellipse 30" cx="9.32" cy="9.32" r="9.32" transform="translate(344.112 1996.568)" fill="#ffb8b8"/>
    <path id="Path_332" data-name="Path 332" d="M769.8,342.7a10.067,10.067,0,0,0-10.056-10.056h-1.9A10.067,10.067,0,0,0,747.787,342.7v.19h4.01l1.368-3.829.273,3.829h2.072l.69-1.932.138,1.932H769.8Z" transform="translate(-403.256 1662.294)" fill="#2f2e41"/>
    <path id="Path_333" data-name="Path 333" d="M790.579,361.085a1.682,1.682,0,0,0,.134-1.786c-2.011-3.824-4.826-10.89-1.089-15.248l.269-.313H779.044v16.286l9.854,1.739a1.751,1.751,0,0,0,.3.027,1.7,1.7,0,0,0,1.378-.7Z" transform="translate(-436.229 1655.41)" fill="#2f2e41"/>
    <path id="Path_334" data-name="Path 334" d="M516.238,192.5a51.234,51.234,0,1,1-2.9,75.664l-62.844,53.028a4.721,4.721,0,1,1-6.1-7.211l.007-.006,62.844-53.028a51.237,51.237,0,0,1,8.994-68.448Zm4.051,63.341a38.385,38.385,0,1,0,4.583-54.09h0A38.385,38.385,0,0,0,520.289,255.839Z" transform="translate(-118.214 1756.756)" fill="#3f3d56"/>
    <path id="Path_335" data-name="Path 335" d="M516.928,306.866a38.387,38.387,0,0,0,6.514-51.6q1.1,1.109,2.129,2.322A38.385,38.385,0,0,1,466.9,307.095q-1.025-1.215-1.931-2.489A38.387,38.387,0,0,0,516.928,306.866Z" transform="translate(-60.763 1710.311)" opacity="0.3" style="isolation: isolate"/>
    <path id="Path_336" data-name="Path 336" d="M800.22,476.068a3.816,3.816,0,0,1-4.714-3.465l-13.066-3.627,5.311-4.631,11.593,4.154a3.836,3.836,0,0,1,.876,7.569Z" transform="translate(-449.78 1580.567)" fill="#ffb8b8"/>
    <path id="Path_337" data-name="Path 337" d="M822.9,436.043l.8-7.554-10.914-6.022,7.116-8.614-1.161-9.676-2.891-1.239-.09.116c-1.363,1.753-13.321,17.182-13.321,19.089,0,1.959,2.288,7.712,5.417,9.277,3.019,1.509,14.355,4.443,14.836,4.568Z" transform="translate(-477.887 1618.672)" fill="#2f2e41"/>
    <path id="Path_338" data-name="Path 338" d="M572.146,728.056H716.718a.379.379,0,0,0,0-.759H572.146a.379.379,0,0,0,0,.759Z" transform="translate(-283.766 1417.394)" fill="#ccc"/>
    <path id="Path_341" data-name="Path 341" d="M9.029-15.867v-2.421a10.735,10.735,0,0,1,1.341-5.463,17.574,17.574,0,0,1,4.907-4.94,20.533,20.533,0,0,0,4.531-3.991,5.78,5.78,0,0,0,1.1-3.435,3.72,3.72,0,0,0-1.57-3.239,7.489,7.489,0,0,0-4.384-1.112q-4.907,0-11.188,3.206L.2-44.427A31.169,31.169,0,0,1,15.67-48.516q6.739,0,10.714,3.239a10.576,10.576,0,0,1,3.975,8.637,11.488,11.488,0,0,1-1.636,6.216,23.313,23.313,0,0,1-6.216,5.889A19.191,19.191,0,0,0,18.533-21,5.486,5.486,0,0,0,17.7-17.83v1.963ZM7.982-4.678A5.485,5.485,0,0,1,9.455-8.833,5.97,5.97,0,0,1,13.74-10.24a5.8,5.8,0,0,1,4.2,1.439,5.47,5.47,0,0,1,1.489,4.122,5.47,5.47,0,0,1-1.5,4.073A5.7,5.7,0,0,1,13.74.883,5.866,5.866,0,0,1,9.487-.573,5.447,5.447,0,0,1,7.982-4.678Z" transform="translate(417 2012)" fill="#6c63ff"/>
  </g>
</svg>
