<svg width="216" height="138" viewBox="0 0 216 138" fill="none" xmlns="http://www.w3.org/2000/svg">
<path d="M215.431 134.581C215.431 134.622 170.789 134.657 115.73 134.657C60.6705 134.657 16.0156 134.622 16.0156 134.581C16.0156 134.541 60.6491 134.506 115.745 134.506C170.841 134.506 215.431 134.541 215.431 134.581Z" fill="#263238"/>
<path d="M151.411 15.3633H70.0156V66.0116H151.411V15.3633Z" fill="#FAFAFA"/>
<path d="M151.41 66.008C151.41 65.5205 151.385 46.2502 151.346 15.3598L151.41 15.4207L70.0174 15.4497L70.0969 15.3743C70.0969 33.385 70.0969 50.528 70.0969 66.0226L70.0235 65.9529L151.422 66.0226L70.0235 66.0922H69.9531V66.0226C69.9531 50.528 69.9531 33.385 69.9531 15.3743V15.2988H70.0388H151.431H151.493V15.3598C151.434 46.2502 151.41 65.5205 151.41 66.008Z" fill="#263238"/>
<path d="M94.8896 43.3262L102.896 43.4335C102.834 47.4791 99.2398 50.7789 94.8896 50.7789H94.8438L94.8896 43.3262Z" fill="#455A64"/>
<path d="M108.123 53.6142C108.066 53.6211 108.009 53.6211 107.952 53.6142L107.462 53.6287L105.673 53.6461H105.651L105.636 53.6287C104.923 52.7725 104.002 51.6726 102.996 50.4711L100.854 47.894L100.894 47.9144L98.5387 47.894L97.8809 47.8795C97.8036 47.8858 97.7258 47.8858 97.6484 47.8795C97.7251 47.8662 97.803 47.8604 97.8809 47.8621H98.5387L100.894 47.8418H100.922V47.8592L103.063 50.4247L105.685 53.5968L105.645 53.5822L107.435 53.5997H107.924C107.991 53.596 108.058 53.6009 108.123 53.6142Z" fill="#263238"/>
<path d="M110.995 54.4877C110.995 54.5197 109.835 54.5458 108.404 54.5458C106.972 54.5458 105.812 54.5197 105.812 54.4877C105.812 54.4558 106.972 54.4297 108.404 54.4297C109.835 54.4297 110.995 54.4558 110.995 54.4877Z" fill="#263238"/>
<path d="M110.995 55.3959C110.995 55.4279 109.835 55.454 108.404 55.454C106.972 55.454 105.812 55.4279 105.812 55.3959C105.812 55.364 106.972 55.3379 108.404 55.3379C109.835 55.3379 110.995 55.364 110.995 55.3959Z" fill="#263238"/>
<path d="M93.6231 42.2476L93.5099 49.6945C89.1597 49.6394 85.6172 46.2932 85.6172 42.2447C85.6172 38.1962 89.2301 34.7949 93.6231 34.7949C98.0161 34.7949 101.629 38.1585 101.629 42.2447L93.6231 42.2476Z" fill="#F4A047"/>
<path d="M90.4945 39.8114C90.4509 39.8296 90.4043 39.8404 90.3568 39.8433L89.9561 39.9042L88.5182 40.0958H88.4968L88.4785 40.0783L86.5604 38.308C85.6426 37.4374 84.8075 36.6712 84.214 36.0995L83.5104 35.4233C83.4212 35.3429 83.3393 35.2556 83.2656 35.1621C83.3654 35.2306 83.4586 35.3073 83.544 35.3914L84.2721 36.0415C84.8839 36.5958 85.7252 37.3677 86.646 38.2268L88.5488 40.0116H88.506L89.9499 39.8607L90.3507 39.8259C90.398 39.8165 90.4462 39.8116 90.4945 39.8114Z" fill="#263238"/>
<path d="M81.2339 34.8354C81.2339 34.8673 80.0745 34.8934 78.6428 34.8934C77.2111 34.8934 76.0547 34.8673 76.0547 34.8354C76.0547 34.8035 77.2141 34.7773 78.6428 34.7773C80.0714 34.7773 81.2339 34.8035 81.2339 34.8354Z" fill="#263238"/>
<path d="M81.2339 35.7475C81.2339 35.7794 80.0745 35.8055 78.6428 35.8055C77.2111 35.8055 76.0547 35.7794 76.0547 35.7475C76.0547 35.7156 77.2141 35.6895 78.6428 35.6895C80.0714 35.6895 81.2339 35.7156 81.2339 35.7475Z" fill="#263238"/>
<path d="M121.632 27.5282L121.598 22.8848C120.105 22.9099 118.672 23.4435 117.56 24.3881C116.849 24.9763 116.3 25.7207 115.962 26.5565C115.624 27.3922 115.506 28.2938 115.62 29.1824C115.645 29.4086 115.683 29.6334 115.734 29.8557C115.735 29.8614 115.735 29.8674 115.734 29.8731L121.613 28.6194L121.632 27.5282Z" fill="#F4A047"/>
<g opacity="0.3">
<path opacity="0.3" d="M121.632 27.5262L121.598 22.8828C120.105 22.9079 118.672 23.4415 117.56 24.3861C116.849 24.9743 116.3 25.7188 115.962 26.5545C115.624 27.3903 115.506 28.2918 115.62 29.1805C115.645 29.4067 115.683 29.6314 115.734 29.8538C115.735 29.8595 115.735 29.8655 115.734 29.8712L121.613 28.6175L121.632 27.5262Z" fill="white"/>
</g>
<path d="M127.694 26.1027C127.265 25.2283 126.6 24.4766 125.767 23.9233C124.934 23.37 123.962 23.0347 122.949 22.951L122.763 22.9336H122.643C122.527 22.9336 122.408 22.9336 122.288 22.9336H122.258L122.288 27.577V28.6653L128.168 29.8842C128.257 29.4903 128.301 29.0885 128.3 28.6856C128.303 27.7927 128.096 26.9103 127.694 26.1027Z" fill="#F4A047"/>
<g opacity="0.3">
<path opacity="0.3" d="M127.694 26.1027C127.265 25.2283 126.6 24.4766 125.767 23.9233C124.934 23.37 123.962 23.0347 122.949 22.951L122.763 22.9336H122.643C122.527 22.9336 122.408 22.9336 122.288 22.9336H122.258L122.288 27.577V28.6653L128.168 29.8842C128.257 29.4903 128.301 29.0885 128.3 28.6856C128.303 27.7927 128.096 26.9103 127.694 26.1027Z" fill="black"/>
</g>
<path d="M121.95 29.1934L116.07 30.45C116.371 31.7201 117.12 32.8548 118.193 33.6664C119.266 34.478 120.598 34.918 121.971 34.9136C123.343 34.9092 124.672 34.4607 125.739 33.6422C126.806 32.8237 127.547 31.6843 127.839 30.4123L121.956 29.1934" fill="#F4A047"/>
<path d="M144.841 28.3606C144.841 28.4012 141.8 28.4361 138.049 28.4361C134.299 28.4361 131.258 28.4012 131.258 28.3606C131.258 28.32 134.299 28.2852 138.049 28.2852C141.8 28.2852 144.841 28.32 144.841 28.3606Z" fill="#263238"/>
<path d="M144.841 26.8919C144.841 26.9325 141.8 26.9673 138.049 26.9673C134.299 26.9673 131.258 26.9325 131.258 26.8919C131.258 26.8512 134.299 26.8164 138.049 26.8164C141.8 26.8164 144.841 26.8512 144.841 26.8919Z" fill="#263238"/>
<path d="M144.841 25.4231C144.841 25.4637 141.8 25.4986 138.049 25.4986C134.299 25.4986 131.258 25.4637 131.258 25.4231C131.258 25.3825 134.299 25.3477 138.049 25.3477C141.8 25.3477 144.841 25.3825 144.841 25.4231Z" fill="#263238"/>
<path d="M144.841 29.7278C144.841 29.7684 141.8 29.8033 138.049 29.8033C134.299 29.8033 131.258 29.7684 131.258 29.7278C131.258 29.6872 134.299 29.6523 138.049 29.6523C141.8 29.6523 144.841 29.6843 144.841 29.7278Z" fill="#263238"/>
<path d="M140.632 31.2141C140.632 31.2548 138.543 31.2896 135.967 31.2896C133.391 31.2896 131.305 31.2548 131.305 31.2141C131.305 31.1735 133.391 31.1387 135.967 31.1387C138.543 31.1387 140.632 31.1735 140.632 31.2141Z" fill="#263238"/>
<path d="M118.406 41.8438H117.008V56.665H118.406V41.8438Z" fill="#F4A047"/>
<path d="M121.117 46.877H119.719V56.663H121.117V46.877Z" fill="#F4A047"/>
<path d="M123.812 43.6875H122.414V56.7414H123.812V43.6875Z" fill="#F4A047"/>
<path d="M126.515 42.418H125.117V56.6675H126.515V42.418Z" fill="#F4A047"/>
<path d="M129.218 47.1797H127.82V56.6639H129.218V47.1797Z" fill="#F4A047"/>
<path d="M131.914 49.0391H130.516V56.663H131.914V49.0391Z" fill="#F4A047"/>
<path d="M134.617 43.3633H133.219V56.6638H134.617V43.3633Z" fill="#F4A047"/>
<path d="M137.312 45.7617H135.914V56.6622H137.312V45.7617Z" fill="#F4A047"/>
<path d="M140.023 43.8477H138.625V56.6664H140.023V43.8477Z" fill="#F4A047"/>
<path d="M142.718 47.9336H141.32V56.6662H142.718V47.9336Z" fill="#F4A047"/>
<path d="M145.414 46.2715H144.016V56.667H145.414V46.2715Z" fill="#F4A047"/>
<path d="M145.981 57.6948C145.981 57.7267 139.346 57.75 131.162 57.75C122.979 57.75 116.344 57.7267 116.344 57.6948C116.344 57.6629 122.976 57.6426 131.162 57.6426C139.349 57.6426 145.981 57.6658 145.981 57.6948Z" fill="#263238"/>
<path d="M119.007 58.8628C118.317 58.9363 117.62 58.9363 116.93 58.8628C117.62 58.7931 118.316 58.7931 119.007 58.8628Z" fill="#263238"/>
<path d="M122.45 58.9243C121.625 58.9978 120.794 58.9978 119.969 58.9243C120.794 58.8508 121.625 58.8508 122.45 58.9243Z" fill="#263238"/>
<path d="M125.387 58.9243C124.562 58.9978 123.731 58.9978 122.906 58.9243C123.731 58.8508 124.562 58.8508 125.387 58.9243Z" fill="#263238"/>
<path d="M128.325 58.9243C127.5 58.9978 126.669 58.9978 125.844 58.9243C126.669 58.8508 127.5 58.8508 128.325 58.9243Z" fill="#263238"/>
<path d="M131.265 58.9243C130.439 58.9978 129.607 58.9978 128.781 58.9243C129.607 58.8508 130.439 58.8508 131.265 58.9243Z" fill="#263238"/>
<path d="M134.2 58.9243C133.375 58.9978 132.544 58.9978 131.719 58.9243C132.544 58.8508 133.375 58.8508 134.2 58.9243Z" fill="#263238"/>
<path d="M137.145 58.9243C136.32 58.9978 135.489 58.9978 134.664 58.9243C135.489 58.8508 136.32 58.8508 137.145 58.9243Z" fill="#263238"/>
<path d="M140.075 58.9243C139.25 58.9978 138.419 58.9978 137.594 58.9243C138.419 58.8508 139.25 58.8508 140.075 58.9243Z" fill="#263238"/>
<path d="M143.012 58.9243C142.187 58.9978 141.356 58.9978 140.531 58.9243C141.356 58.8508 142.187 58.8508 143.012 58.9243Z" fill="#263238"/>
<path d="M145.942 58.9243C145.117 58.9978 144.286 58.9978 143.461 58.9243C144.286 58.8508 145.117 58.8508 145.942 58.9243Z" fill="#263238"/>
<g opacity="0.3">
<path opacity="0.3" d="M121.117 46.877H119.719V56.663H121.117V46.877Z" fill="white"/>
</g>
<g opacity="0.3">
<path opacity="0.3" d="M126.515 42.418H125.117V56.6675H126.515V42.418Z" fill="white"/>
</g>
<g opacity="0.3">
<path opacity="0.3" d="M131.914 49.0371H130.516V56.661H131.914V49.0371Z" fill="white"/>
</g>
<g opacity="0.3">
<path opacity="0.3" d="M137.32 45.7617H135.922V56.6622H137.32V45.7617Z" fill="white"/>
</g>
<g opacity="0.3">
<path opacity="0.3" d="M142.718 47.9355H141.32V56.6681H142.718V47.9355Z" fill="white"/>
</g>
<path d="M78.557 26.1535C79.3004 26.1535 79.903 25.5818 79.903 24.8766C79.903 24.1713 79.3004 23.5996 78.557 23.5996C77.8136 23.5996 77.2109 24.1713 77.2109 24.8766C77.2109 25.5818 77.8136 26.1535 78.557 26.1535Z" fill="#F4A047"/>
<path d="M103.045 23.8645C103.045 23.9051 98.5051 23.94 92.9068 23.94C87.3085 23.94 82.7656 23.9051 82.7656 23.8645C82.7656 23.8239 87.3054 23.7891 92.9068 23.7891C98.5082 23.7891 103.045 23.8297 103.045 23.8645Z" fill="#F4A047"/>
<path d="M90.9158 25.4153C90.8158 25.4383 90.7128 25.4481 90.6099 25.4443L89.7534 25.4704C89.0283 25.4704 88.031 25.4908 86.9267 25.4908C85.8223 25.4908 84.825 25.4908 84.1 25.4704L83.2434 25.4443C83.1405 25.4481 83.0376 25.4383 82.9375 25.4153C83.0379 25.394 83.1406 25.3843 83.2434 25.3863C83.4453 25.3863 83.739 25.3689 84.1 25.3631C84.825 25.3631 85.8223 25.3398 86.9267 25.3398C88.031 25.3398 89.0283 25.3398 89.7534 25.3631C90.1143 25.3631 90.408 25.3631 90.6099 25.3863C90.7128 25.3843 90.8155 25.394 90.9158 25.4153Z" fill="#F4A047"/>
<path d="M142.811 75.1365C142.711 74.6547 142.734 74.157 142.879 73.6854C142.975 73.1907 143.2 72.7267 143.533 72.3359C143.576 72.3592 143.228 72.9164 143.035 73.6999C142.842 74.4835 142.86 75.1336 142.811 75.1365Z" fill="#EB996E"/>
<path d="M143.564 72.2821L135.059 63.2013C134.753 62.9662 134.408 62.6412 134.374 62.3074C134.344 62.0159 134.365 61.7215 134.438 61.4368C134.517 61.0899 134.644 60.7542 134.815 60.4385C134.861 60.3845 134.888 60.318 134.891 60.2485C134.895 60.1791 134.875 60.1104 134.834 60.0526C134.793 59.9948 134.734 59.9509 134.665 59.9274C134.596 59.9039 134.521 59.9019 134.451 59.9219C134.145 60.0351 133.432 60.7693 133.264 61.8257C133.244 61.8854 133.211 61.9405 133.167 61.9871C133.124 62.0337 133.07 62.0708 133.009 62.0959C132.949 62.1209 132.883 62.1333 132.818 62.1323C132.752 62.1312 132.687 62.1167 132.627 62.0898C131.896 61.846 129.415 60.8854 128.972 60.778C128.577 60.6851 128.103 60.6997 128.36 60.9783C128.915 61.3962 129.501 61.7763 130.113 62.1159C129.455 61.7386 128.032 60.955 127.876 61.2191C127.788 61.37 127.962 61.6545 128.546 62.0492C128.256 61.871 127.935 61.7415 127.598 61.6661C126.839 61.7386 129.177 63.1578 129.177 63.1578C127.528 62.1768 127.607 62.1159 127.424 62.2871C127.286 62.4235 127.574 62.7428 128.381 63.3928C129.039 63.9181 132.272 66.6229 132.272 66.6229L138.792 76.7804C139.316 77.487 140 78.0736 140.794 78.4974C141.588 78.9212 142.472 79.1714 143.38 79.2299L156.703 78.96L158.193 71.8671L143.564 72.2821Z" fill="#FFBE9D"/>
<path d="M130.155 63.7563C129.742 63.5967 129.354 63.3859 128.999 63.1294C128.611 62.9192 128.255 62.6616 127.938 62.3633C128.351 62.5239 128.741 62.7346 129.097 62.9901C129.483 63.2007 129.839 63.4583 130.155 63.7563Z" fill="#EB996E"/>
<path d="M130.624 63.1972C130.175 63.048 129.747 62.8462 129.351 62.5964C128.925 62.3936 128.526 62.1422 128.164 61.8477C128.613 61.9975 129.04 62.1992 129.437 62.4484C129.863 62.6512 130.262 62.9026 130.624 63.1972Z" fill="#EB996E"/>
<path d="M131.095 62.6151C130.663 62.4837 130.251 62.2982 129.871 62.0637C129.464 61.8793 129.085 61.6451 128.742 61.3672C129.173 61.499 129.585 61.6833 129.966 61.9157C130.373 62.1005 130.753 62.3357 131.095 62.6151Z" fill="#EB996E"/>
<path d="M122.812 125.473L121.102 130.453C121.102 130.453 115.191 130.476 114.781 131.367L124.84 134.849L127.841 127.194L122.812 125.473Z" fill="#6660AB"/>
<path d="M124.375 131.118C124.461 131.18 124.52 131.269 124.541 131.369C124.562 131.469 124.543 131.573 124.488 131.661C124.426 131.745 124.332 131.804 124.226 131.824C124.12 131.845 124.01 131.826 123.918 131.772C123.827 131.706 123.764 131.61 123.743 131.502C123.721 131.395 123.742 131.284 123.802 131.191C123.877 131.108 123.983 131.056 124.097 131.047C124.211 131.037 124.325 131.07 124.415 131.138" fill="#E0E0E0"/>
<path d="M124.846 134.861L125.152 134.098L115.381 131.021C115.381 131.021 114.861 131.051 114.797 131.367L124.846 134.861Z" fill="#E0E0E0"/>
<path d="M120.962 130.349C120.944 130.396 121.182 130.503 121.366 130.735C121.55 130.968 121.605 131.212 121.657 131.209C121.709 131.206 121.74 130.918 121.51 130.628C121.28 130.337 120.968 130.303 120.962 130.349Z" fill="#263238"/>
<path d="M119.746 130.391C119.715 130.432 119.899 130.586 119.991 130.842C120.082 131.097 120.049 131.321 120.098 131.336C120.147 131.35 120.281 131.1 120.162 130.784C120.043 130.467 119.764 130.348 119.746 130.391Z" fill="#263238"/>
<path d="M118.684 131.383C118.724 131.41 118.883 131.2 118.856 130.901C118.828 130.602 118.635 130.419 118.602 130.451C118.568 130.483 118.654 130.669 118.672 130.916C118.69 131.163 118.635 131.363 118.684 131.383Z" fill="#263238"/>
<path d="M121.485 129.253C121.485 129.302 121.739 129.317 122.008 129.43C122.278 129.543 122.465 129.703 122.505 129.671C122.544 129.639 122.403 129.401 122.082 129.27C121.76 129.139 121.473 129.218 121.485 129.253Z" fill="#263238"/>
<path d="M121.844 128.254C121.993 128.352 122.167 128.411 122.349 128.425C122.541 128.458 122.738 128.468 122.933 128.454C123.049 128.448 123.165 128.434 123.279 128.411C123.346 128.399 123.412 128.379 123.474 128.35C123.519 128.328 123.556 128.292 123.577 128.249C123.599 128.205 123.605 128.156 123.594 128.109C123.582 128.068 123.559 128.03 123.529 127.999C123.499 127.968 123.461 127.944 123.419 127.929C123.356 127.906 123.289 127.892 123.22 127.888C123.103 127.878 122.986 127.878 122.869 127.888C122.671 127.903 122.477 127.947 122.293 128.019C121.988 128.141 121.832 128.289 121.847 128.309C121.862 128.33 122.033 128.225 122.336 128.138C122.512 128.089 122.694 128.06 122.878 128.054C122.985 128.051 123.093 128.057 123.199 128.071C123.315 128.071 123.407 128.112 123.416 128.167C123.425 128.222 123.416 128.193 123.386 128.216C123.339 128.235 123.291 128.25 123.242 128.26C123.136 128.282 123.029 128.3 122.921 128.312C122.735 128.328 122.549 128.328 122.364 128.312C122.192 128.28 122.018 128.261 121.844 128.254Z" fill="#263238"/>
<path d="M121.877 128.345C121.892 128.345 122.054 128.226 122.183 127.93C122.306 127.656 122.347 127.354 122.299 127.06C122.296 126.988 122.274 126.918 122.234 126.856C122.195 126.795 122.139 126.744 122.073 126.708C122.027 126.694 121.979 126.691 121.932 126.702C121.886 126.712 121.843 126.734 121.81 126.767C121.762 126.814 121.722 126.868 121.69 126.926C121.612 127.061 121.563 127.208 121.546 127.361C121.529 127.513 121.543 127.667 121.589 127.814C121.69 128.131 121.874 128.258 121.895 128.244C121.828 128.095 121.77 127.941 121.724 127.785C121.691 127.619 121.696 127.448 121.739 127.283C121.764 127.187 121.803 127.095 121.855 127.01C121.91 126.912 121.981 126.845 122.018 126.868C122.054 126.891 122.122 126.993 122.134 127.086C122.15 127.182 122.158 127.279 122.158 127.376C122.156 127.549 122.126 127.722 122.07 127.887C121.975 128.168 121.84 128.325 121.877 128.345Z" fill="#263238"/>
<path d="M150.398 92.039C148.299 91.3889 139.996 88.9656 133.933 87.5494C132.758 87.3024 131.543 87.2865 130.362 87.5027C129.181 87.7188 128.059 88.1624 127.065 88.806C125.809 89.6111 124.832 90.7502 124.257 92.0802C123.681 93.4102 123.532 94.8719 123.829 96.2819L126.31 110.83L134.875 110.166L133.548 96.16L148.146 100.394L161.172 96.8159L161.135 96.2181L150.388 92.039" fill="#263238"/>
<path d="M153.602 94.5996L135.198 98.3724C133.858 98.6479 132.611 99.237 131.572 100.086C130.533 100.935 129.734 102.017 129.248 103.233L120.211 126.898L127.703 129.089L137.884 107.427L152.702 105.686C156.564 105.236 160.124 103.477 162.727 100.735L165.319 98.0067L153.602 94.5996Z" fill="#263238"/>
<path d="M150.253 95.2278L150.176 95.251L149.947 95.3033L149.063 95.4977L145.805 96.1855L140.971 97.1868L138.117 97.7672C137.129 97.9733 136.095 98.1619 135.058 98.4173C134.046 98.6442 133.08 99.0286 132.201 99.5549C131.405 100.076 130.724 100.738 130.194 101.505C129.163 102.971 128.664 104.506 128.208 105.768C127.753 107.031 127.413 108.067 127.098 108.755C126.945 109.1 126.81 109.361 126.719 109.535L126.605 109.736C126.595 109.759 126.58 109.781 126.562 109.8C126.562 109.8 126.563 109.773 126.593 109.727L126.688 109.524C126.774 109.344 126.896 109.08 127.04 108.732C127.346 108.041 127.685 107.013 128.101 105.737C128.517 104.46 129.019 102.921 130.074 101.43C130.61 100.643 131.303 99.9633 132.115 99.4301C133.007 98.8933 133.987 98.501 135.015 98.2693C136.061 98.011 137.092 97.8253 138.074 97.6192L140.931 97.0388L145.774 96.0695L149.041 95.431L149.932 95.2627L150.164 95.2249C150.194 95.2211 150.224 95.2221 150.253 95.2278Z" fill="#455A64"/>
<path d="M165.357 89.2988C164.909 89.5363 164.438 89.7308 163.95 89.8793C163.479 90.0719 162.988 90.2168 162.484 90.3117C162.932 90.0735 163.403 89.879 163.892 89.7312C164.364 89.5411 164.855 89.3962 165.357 89.2988Z" fill="#EB996E"/>
<path d="M158.788 70.8844L154.581 86.8462L150.008 91.9104L165.857 98.1297L171.557 86.2658L176.109 73.0929C174.845 70.8786 172.416 70.3475 171.606 70.2546L165.068 69.8164L158.788 70.8844Z" fill="#6660AB"/>
<path d="M158.781 70.875L147.578 71.9024L148.349 80.2402L156.86 79.5698L158.334 72.8223L158.781 70.875Z" fill="#6660AB"/>
<path d="M157.864 74.2031C157.844 74.3735 157.811 74.5423 157.766 74.7081C157.68 75.0535 157.57 75.512 157.438 76.0692C157.154 77.2156 156.75 78.8001 156.297 80.5472C155.845 82.2943 155.426 83.8731 155.113 85.0136L154.737 86.3631C154.697 86.5282 154.644 86.6902 154.578 86.8478C154.596 86.6771 154.629 86.5082 154.676 86.3428C154.762 85.9975 154.872 85.5389 155.003 84.9817C155.288 83.8354 155.689 82.2508 156.144 80.5037C156.6 78.7566 157.025 77.1836 157.331 76.0431L157.708 74.6936C157.745 74.5262 157.797 74.3621 157.864 74.2031Z" fill="#263238"/>
<path d="M159.779 87.8781C159.76 87.8984 159.528 87.7069 159.097 87.4921C158.53 87.2215 157.92 87.0411 157.292 86.9581C156.659 86.8762 156.021 86.8451 155.383 86.8653C155.114 86.883 154.845 86.8762 154.578 86.845C154.839 86.787 155.106 86.7558 155.374 86.7521C156.018 86.6997 156.667 86.7173 157.307 86.8043C157.952 86.884 158.576 87.0811 159.142 87.3848C159.389 87.5047 159.606 87.6729 159.779 87.8781Z" fill="#263238"/>
<path d="M161.74 71.62C161.74 71.62 161.765 71.7274 161.835 71.9102C161.936 72.1627 162.089 72.3935 162.285 72.5893C162.447 72.7113 162.636 72.7966 162.838 72.8388C163.04 72.8811 163.249 72.8791 163.45 72.8331C163.691 72.7693 163.925 72.6837 164.148 72.5777C164.387 72.4732 164.637 72.3629 164.888 72.2469L167.479 71.0483L168.269 70.6913C168.364 70.6395 168.467 70.6014 168.575 70.5781C168.491 70.643 168.399 70.6985 168.302 70.7435C168.125 70.8422 167.862 70.9786 167.538 71.144C166.886 71.4749 165.98 71.9218 164.965 72.3833C164.711 72.4993 164.46 72.6096 164.215 72.7112C163.982 72.8219 163.737 72.9085 163.484 72.9695C163.263 73.0189 163.033 73.0184 162.813 72.968C162.592 72.9176 162.387 72.8187 162.215 72.6793C162.011 72.4694 161.864 72.2167 161.783 71.9421C161.74 71.8401 161.725 71.7291 161.74 71.62Z" fill="#263238"/>
<g opacity="0.3">
<path opacity="0.3" d="M154.578 86.8463C156.228 86.4809 157.934 86.4022 159.614 86.6142C160.001 86.634 160.374 86.7622 160.684 86.9827C160.834 87.0983 160.931 87.2642 160.955 87.4458C160.979 87.6275 160.928 87.8109 160.813 87.9578C160.71 88.0431 160.584 88.1009 160.45 88.1254C160.316 88.1499 160.177 88.1401 160.048 88.0972C159.785 88.0246 159.464 87.6415 159.231 87.5167C157.937 86.7419 156.31 86.7012 154.682 86.8579" fill="black"/>
</g>
<g opacity="0.3">
<path opacity="0.3" d="M168.237 74.0763C166.903 77.6633 169.589 81.6828 172.11 84.6401L172.755 82.8118C172.755 82.8118 169.577 70.4834 168.237 74.0763Z" fill="black"/>
</g>
<path d="M171.776 84.8309C171.649 84.6354 171.499 84.4543 171.329 84.2911C170.843 83.8666 170.224 83.6029 169.567 83.5395C168.591 83.485 167.615 83.6531 166.722 84.0299C165.694 84.3956 164.58 84.9499 163.283 85.095C162.064 85.2286 160.831 85.0208 159.735 84.4972C158.842 84.0713 158.074 83.4433 157.498 82.6688C157.11 82.1519 156.815 81.5771 156.626 80.9682C156.574 80.8042 156.531 80.6375 156.498 80.469C156.484 80.41 156.477 80.3496 156.477 80.2891C156.492 80.2891 156.538 80.5299 156.685 80.9508C156.899 81.5438 157.208 82.1018 157.602 82.605C158.178 83.3545 158.935 83.9609 159.811 84.3724C160.883 84.8792 162.087 85.0808 163.277 84.9528C164.541 84.8135 165.642 84.2708 166.682 83.908C167.722 83.5453 168.741 83.3276 169.591 83.4437C170.266 83.5198 170.894 83.8068 171.378 84.2592C171.503 84.3846 171.612 84.524 171.702 84.6742C171.732 84.724 171.757 84.7765 171.776 84.8309Z" fill="#FAFAFA"/>
<path d="M157.344 76.2476C157.347 76.2035 157.358 76.1603 157.377 76.1199C157.424 76.001 157.492 75.891 157.579 75.7949C157.748 75.623 157.955 75.4886 158.185 75.4013C158.415 75.314 158.663 75.276 158.91 75.2899C159.543 75.3073 160.226 75.6411 160.886 76.0677C161.547 76.4943 162.26 77.008 163.028 77.4898C163.734 77.9634 164.519 78.3223 165.35 78.5519C166.031 78.7239 166.744 78.7467 167.436 78.6187C167.902 78.5317 168.341 78.3462 168.721 78.076L168.895 77.9425L169.015 77.8322C169.045 77.8 169.08 77.7717 169.119 77.748C169.119 77.748 169.094 77.7887 169.039 77.8554L168.929 77.9744L168.761 78.1195C168.385 78.4173 167.939 78.6244 167.46 78.7232C166.753 78.8696 166.02 78.8577 165.319 78.6884C164.47 78.4611 163.667 78.099 162.945 77.6175C162.168 77.127 161.474 76.6104 160.804 76.1838C160.134 75.7572 159.5 75.4263 158.901 75.3973C158.667 75.3793 158.432 75.4092 158.211 75.4848C157.991 75.5604 157.79 75.68 157.622 75.8355C157.509 75.9594 157.415 76.0982 157.344 76.2476Z" fill="#FAFAFA"/>
<path d="M152.194 79.8123C152.09 79.7446 152 79.6601 151.928 79.5627C151.716 79.3032 151.558 79.0077 151.463 78.6921C151.315 78.2192 151.309 77.7165 151.447 77.241C151.597 76.7041 151.971 76.2107 152.243 75.6622C152.493 75.1432 152.593 74.57 152.53 74.0022C152.484 73.5366 152.339 73.0847 152.105 72.673C151.877 72.2975 151.592 71.9561 151.258 71.6602C151.258 71.6602 151.291 71.6602 151.343 71.7066C151.421 71.7547 151.493 71.809 151.561 71.8691C151.817 72.0849 152.035 72.3387 152.206 72.6208C152.46 73.0413 152.62 73.5064 152.677 73.9877C152.75 74.5824 152.65 75.1847 152.387 75.729C152.105 76.2949 151.735 76.7766 151.588 77.2816C151.453 77.7296 151.448 78.2038 151.573 78.6543C151.694 79.0766 151.905 79.4708 152.194 79.8123Z" fill="#FAFAFA"/>
<path d="M158.127 71.0491C158.003 71.3554 157.842 71.6475 157.649 71.9198C157.192 72.5732 156.801 73.266 156.481 73.989C156.319 74.3874 156.235 74.8102 156.233 75.2369C156.234 75.5836 156.307 75.9267 156.447 76.2469C156.592 76.5386 156.789 76.8046 157.028 77.0334C156.941 76.998 156.863 76.9456 156.799 76.8795C156.611 76.7147 156.457 76.5178 156.346 76.2991C156.183 75.9702 156.094 75.6122 156.086 75.2485C156.081 74.8034 156.164 74.3614 156.331 73.9455C156.653 73.2122 157.064 72.5168 157.555 71.8733C157.909 71.3626 158.105 71.0375 158.127 71.0491Z" fill="#FAFAFA"/>
<path d="M159.491 92.1885C159.463 92.2059 159.224 91.8432 158.72 91.3614C158.422 91.0806 158.099 90.826 157.753 90.601C157.329 90.3276 156.877 90.0961 156.404 89.9103C155.927 89.7301 155.432 89.5959 154.926 89.5098C154.513 89.4438 154.094 89.4127 153.675 89.417C152.959 89.417 152.522 89.5302 152.516 89.4982C152.614 89.4593 152.716 89.432 152.822 89.417C152.941 89.3887 153.063 89.3683 153.186 89.356C153.348 89.3312 153.511 89.3167 153.675 89.3125C154.102 89.2918 154.531 89.3122 154.954 89.3734C155.472 89.4531 155.98 89.5854 156.468 89.7681C156.951 89.9608 157.412 90.201 157.842 90.485C158.19 90.7215 158.511 90.9909 158.802 91.2888C158.912 91.4009 159.014 91.5192 159.108 91.6429C159.187 91.7352 159.26 91.8321 159.325 91.9331C159.392 92.0107 159.448 92.0966 159.491 92.1885Z" fill="#FAFAFA"/>
<path d="M154.087 108.775L153.782 131.165L144.062 134.686L166.352 134.584L156.516 131.032L156.425 108.775H154.087Z" fill="#455A64"/>
<path d="M147.016 107C149.806 108.033 152.691 108.971 155.686 109.066C158.681 109.162 161.829 108.315 163.869 106.234C165.5 104.571 166.265 102.322 166.981 100.139L168.532 95.4438C168.96 94.1465 169.605 92.6258 168.838 91.9293C167.739 90.9484 164.803 90.5711 163.698 91.5433C162.049 92.9944 161.976 93.6009 161.229 94.8459C159.51 97.7075 158.017 100.319 154.784 101.521C153.227 102.101 151.492 102.148 149.926 102.708C148.359 103.268 146.766 105.418 147.029 106.989" fill="#455A64"/>
<path d="M168.565 70.5739L163.71 72.8434C163.497 72.9347 163.262 72.9716 163.029 72.9503C162.797 72.9291 162.574 72.8505 162.383 72.7224C162.192 72.5942 162.039 72.421 161.94 72.2198C161.842 72.0185 161.8 71.7964 161.82 71.5752L162.156 67.8401C162.156 67.8401 159.525 67.4715 159.473 64.9786C159.421 62.4857 159.831 56.7597 159.831 56.7597C161.319 56.1409 162.954 55.9101 164.568 56.0912C166.181 56.2724 167.714 56.8588 169.009 57.79L169.4 58.0802L168.565 70.5739Z" fill="#FFBE9D"/>
<path d="M162.151 67.8064C163.365 67.8185 164.554 67.4881 165.569 66.8574C165.569 66.8574 164.773 68.6568 162.148 68.4507L162.151 67.8064Z" fill="#EB996E"/>
<path d="M169.108 60.6543C169.154 60.6369 170.91 60.1348 170.867 61.8413C170.824 63.5477 169.031 63.1501 169.031 63.1008C169.031 63.0515 169.108 60.6543 169.108 60.6543Z" fill="#FFBE9D"/>
<path d="M169.596 62.4692C169.596 62.4692 169.626 62.4924 169.678 62.5156C169.753 62.5432 169.836 62.5432 169.911 62.5156C170.029 62.4482 170.126 62.3522 170.192 62.2375C170.258 62.1227 170.291 61.9934 170.287 61.8627C170.296 61.7168 170.27 61.571 170.211 61.436C170.195 61.3826 170.166 61.3336 170.126 61.2931C170.086 61.2527 170.036 61.2221 169.981 61.2039C169.946 61.1939 169.908 61.1959 169.874 61.2097C169.84 61.2235 169.812 61.2481 169.795 61.2793C169.77 61.3258 169.779 61.3606 169.77 61.3635C169.761 61.3664 169.733 61.3345 169.749 61.2648C169.76 61.2231 169.786 61.1863 169.822 61.1603C169.872 61.1255 169.935 61.1109 169.997 61.1197C170.068 61.1369 170.133 61.171 170.187 61.2187C170.24 61.2664 170.28 61.3262 170.302 61.3925C170.377 61.5408 170.41 61.7045 170.4 61.8685C170.406 62.0203 170.363 62.1702 170.279 62.2994C170.195 62.4285 170.072 62.531 169.926 62.594C169.877 62.6068 169.826 62.6088 169.776 62.5997C169.726 62.5907 169.679 62.5708 169.639 62.5418C169.596 62.5127 169.59 62.4692 169.596 62.4692Z" fill="#EB996E"/>
<path d="M160.445 60.5567C160.446 60.6497 160.485 60.7389 160.553 60.8055C160.622 60.8721 160.715 60.911 160.813 60.914C160.861 60.9171 160.909 60.9112 160.954 60.8964C160.999 60.8816 161.041 60.8584 161.077 60.8281C161.112 60.7977 161.141 60.7609 161.162 60.7198C161.182 60.6786 161.194 60.6341 161.196 60.5886C161.196 60.4958 161.158 60.4067 161.09 60.34C161.022 60.2733 160.929 60.2343 160.831 60.2313C160.783 60.2281 160.735 60.2341 160.69 60.2488C160.644 60.2636 160.602 60.2868 160.566 60.3171C160.53 60.3474 160.501 60.3842 160.48 60.4253C160.46 60.4664 160.448 60.5111 160.445 60.5567Z" fill="#263238"/>
<path d="M160.357 60.2616C160.403 60.3081 160.685 60.1076 161.089 60.1047C161.493 60.1018 161.794 60.2936 161.836 60.2442C161.879 60.1948 161.809 60.1396 161.68 60.0524C161.499 59.9371 161.286 59.8772 161.068 59.881C160.857 59.8821 160.652 59.9472 160.483 60.067C160.388 60.1454 160.333 60.2413 160.357 60.2616Z" fill="#263238"/>
<path d="M164.398 60.6016C164.398 60.6941 164.437 60.7829 164.505 60.8492C164.573 60.9154 164.665 60.9537 164.763 60.956C164.811 60.9596 164.859 60.954 164.904 60.9396C164.95 60.9252 164.992 60.9023 165.028 60.8722C165.064 60.8421 165.093 60.8055 165.114 60.7645C165.135 60.7235 165.146 60.679 165.149 60.6335C165.149 60.5407 165.111 60.4516 165.043 60.3849C164.975 60.3182 164.882 60.2792 164.784 60.2762C164.736 60.2731 164.688 60.279 164.643 60.2938C164.597 60.3085 164.555 60.3317 164.519 60.362C164.483 60.3923 164.454 60.4291 164.433 60.4702C164.413 60.5114 164.401 60.556 164.398 60.6016Z" fill="#263238"/>
<path d="M164.326 60.3067C164.375 60.3532 164.657 60.1527 165.061 60.1498C165.465 60.1469 165.762 60.3386 165.805 60.2893C165.848 60.2399 165.781 60.1847 165.649 60.0975C165.469 59.9808 165.254 59.9208 165.036 59.9261C164.827 59.9269 164.623 59.991 164.455 60.1091C164.344 60.2021 164.304 60.2863 164.326 60.3067Z" fill="#263238"/>
<path d="M162.88 63.1582C162.668 63.0931 162.446 63.0559 162.223 63.0479C162.119 63.0479 162.021 63.0218 162.002 62.955C161.993 62.854 162.017 62.7529 162.07 62.6648L162.376 61.916C162.652 61.2823 162.876 60.6293 163.046 59.9629C162.715 60.5735 162.435 61.2082 162.21 61.8609C162.11 62.125 162.015 62.3746 161.926 62.6126C161.862 62.7304 161.843 62.8661 161.874 62.9956C161.888 63.0307 161.911 63.062 161.941 63.0868C161.971 63.1116 162.007 63.1291 162.045 63.1378C162.102 63.1531 162.161 63.1609 162.22 63.1611C162.439 63.185 162.661 63.184 162.88 63.1582Z" fill="#263238"/>
<path d="M164.077 63.4141C164.01 63.4141 164.013 63.8267 163.639 64.1259C163.265 64.4251 162.8 64.3815 162.797 64.4396C162.794 64.4978 162.901 64.5181 163.103 64.5239C163.36 64.524 163.609 64.4399 163.808 64.2857C163.998 64.1354 164.12 63.9209 164.147 63.6872C164.157 63.5129 164.105 63.4112 164.077 63.4141Z" fill="#263238"/>
<path d="M164.213 58.8081C164.253 58.9126 164.657 58.8604 165.131 58.9097C165.605 58.959 165.991 59.0809 166.049 58.9881C166.076 58.9416 166.009 58.8459 165.853 58.7443C165.646 58.6227 165.413 58.5473 165.171 58.5236C164.928 58.5 164.684 58.5288 164.455 58.6079C164.284 58.6775 164.195 58.7588 164.213 58.8081Z" fill="#263238"/>
<path d="M160.495 59.1558C160.568 59.2429 160.844 59.1558 161.181 59.1558C161.517 59.1558 161.793 59.2081 161.864 59.118C161.891 59.0715 161.845 58.9844 161.723 58.903C161.555 58.8066 161.361 58.7591 161.165 58.7663C160.969 58.7736 160.78 58.8352 160.62 58.9437C160.501 59.0221 160.464 59.1122 160.495 59.1558Z" fill="#263238"/>
<path d="M158.554 55.196C158.534 55.0416 158.556 54.885 158.618 54.7409C158.679 54.5968 158.778 54.4698 158.906 54.3718C159.038 54.2794 159.2 54.2345 159.363 54.2451C159.527 54.2557 159.681 54.3212 159.799 54.4298C159.773 54.3259 159.771 54.2179 159.792 54.1131C159.813 54.0082 159.857 53.9087 159.922 53.8211C159.986 53.7335 160.069 53.6597 160.165 53.6046C160.262 53.5494 160.369 53.5142 160.481 53.5012C160.909 53.4721 161.276 53.7914 161.705 53.8813C162.118 53.9589 162.548 53.908 162.928 53.7362C163.314 53.5853 163.678 53.3793 164.07 53.24C164.899 52.9467 165.817 52.9754 166.624 53.3199C167.432 53.6643 168.064 54.2966 168.383 55.0799C168.676 55.01 168.984 55.0258 169.266 55.1253C169.549 55.2248 169.794 55.4032 169.968 55.6371C170.307 56.1169 170.445 56.6995 170.356 57.271C170.297 57.6538 170.195 58.0294 170.05 58.3913C170.05 58.4232 170.05 58.4551 170.05 58.487C170.026 59.8569 169.873 61.4675 169.261 61.4821C168.187 61.5053 168.426 59.5811 168.426 59.5811C167.104 59.1081 167.581 57.2304 167.248 56.9489C166.915 56.6674 166.223 56.0115 163.473 57.3697C162.449 57.8126 161.304 57.9385 160.2 57.7296H160.132H160.114C160.114 57.7296 160.114 57.7296 160.093 57.7296C159.841 57.6691 159.602 57.5712 159.383 57.4394C159.123 57.2993 158.916 57.085 158.792 56.827C158.734 56.6974 158.717 56.5546 158.743 56.416C158.77 56.2773 158.838 56.1489 158.939 56.0463C158.725 55.8055 158.59 55.5095 158.554 55.196Z" fill="#263238"/>
<path d="M169.768 77.3731L174.171 86.2246L167.177 89.0774L165.791 88.674C165.236 88.5117 164.645 88.4875 164.077 88.6039C163.509 88.7203 162.981 88.9733 162.546 89.3386L160.383 91.1612H180.573C181.497 88.6655 181.51 85.9479 180.61 83.4444L177.144 75.1297C176.162 72.8719 173.608 71.0319 171.258 72.0302C168.97 73.0025 168.771 75.1965 169.768 77.3731Z" fill="#FFBE9D"/>
<path d="M169.41 77.8517C170.717 79.9499 172.751 83.2003 172.751 83.2003L180.28 80.2401C180.28 80.2401 177.034 74.401 175.997 72.918C175.572 72.3144 174.635 71.0781 171.87 70.7617C171.579 70.8107 171.293 70.8806 171.013 70.9707C170.376 71.1524 169.803 71.4949 169.356 71.9616C168.908 72.4283 168.602 73.0016 168.471 73.6203L168.407 73.9338C168.245 75.2136 168.719 76.7314 169.41 77.8517Z" fill="#6660AB"/>
<path d="M172.741 83.196C172.628 83.0623 172.526 82.9206 172.435 82.7723L171.64 81.594C171.303 81.0861 170.909 80.4883 170.471 79.8324C170.034 79.1765 169.553 78.4481 169.095 77.6413C168.875 77.2491 168.694 76.838 168.556 76.4137C168.434 76.0154 168.358 75.6057 168.33 75.1919C168.256 74.4934 168.306 73.7882 168.477 73.1052C168.588 72.6409 168.823 72.2113 169.159 71.8573L169.327 71.7006L169.468 71.6077C169.504 71.5787 169.544 71.5543 169.587 71.5352C169.587 71.5352 169.557 71.5729 169.486 71.6309L169.361 71.7354L169.205 71.895C168.899 72.2547 168.689 72.6787 168.593 73.1313C168.439 73.8031 168.402 74.4942 168.483 75.1774C168.514 75.5816 168.591 75.9814 168.712 76.3701C168.849 76.7852 169.027 77.1874 169.241 77.5716C169.682 78.3668 170.181 79.0894 170.603 79.7598L171.741 81.536C172.047 82.0293 172.304 82.4385 172.496 82.7432C172.59 82.8882 172.672 83.0395 172.741 83.196Z" fill="#263238"/>
<path d="M177.625 75.5703C177.625 75.5703 177.515 75.4891 177.304 75.3701C177.003 75.2065 176.667 75.1075 176.322 75.0799C175.804 75.0414 175.283 75.1047 174.792 75.2656C174.198 75.4772 173.624 75.7334 173.073 76.0318C172.512 76.3371 171.912 76.5703 171.286 76.7254C170.765 76.8383 170.222 76.8283 169.705 76.6964C169.357 76.608 169.04 76.4338 168.787 76.1914C168.72 76.125 168.66 76.052 168.61 75.9737C168.576 75.9215 168.558 75.8925 168.564 75.8896C168.57 75.8867 168.652 75.9941 168.833 76.1508C169.095 76.3688 169.411 76.5214 169.751 76.5948C170.253 76.7086 170.777 76.7086 171.28 76.5948C171.89 76.4353 172.476 76.2032 173.024 75.9041C173.583 75.6015 174.168 75.3451 174.774 75.1379C175.28 74.9803 175.816 74.9259 176.346 74.9783C176.705 75.0135 177.049 75.1299 177.35 75.3178C177.43 75.3688 177.504 75.4282 177.57 75.4949C177.607 75.5297 177.628 75.5674 177.625 75.5703Z" fill="#FAFAFA"/>
<path d="M176.271 81.7857C176.246 81.8031 176.057 81.5826 175.681 81.3127C175.461 81.154 175.225 81.016 174.977 80.9006C174.366 80.6198 173.695 80.4768 173.016 80.4827C172.739 80.485 172.464 80.5132 172.193 80.5668C171.731 80.6597 171.459 80.7787 171.447 80.7526C171.434 80.7264 171.508 80.709 171.627 80.651C171.8 80.5706 171.982 80.5074 172.169 80.4624C172.444 80.3924 172.728 80.3525 173.013 80.3434C173.363 80.3342 173.714 80.3654 174.056 80.4362C174.397 80.513 174.728 80.6269 175.041 80.7758C175.295 80.9009 175.533 81.0528 175.751 81.2285C175.899 81.3451 176.034 81.4753 176.155 81.6174C176.237 81.719 176.28 81.777 176.271 81.7857Z" fill="#FAFAFA"/>
<path d="M178.984 88.2725C178.96 88.2725 178.822 87.9997 178.492 87.6109C178.065 87.1049 177.513 86.7074 176.885 86.4541C176.256 86.2008 175.571 86.0997 174.891 86.1598C174.368 86.2033 174.056 86.3078 174.047 86.2817C174.111 86.2389 174.184 86.2083 174.261 86.1917C174.459 86.1264 174.665 86.0807 174.873 86.0553C175.574 85.9654 176.289 86.0556 176.941 86.3165C177.591 86.5833 178.155 87.0089 178.574 87.5499C178.699 87.712 178.808 87.885 178.899 88.0665C178.941 88.1293 178.97 88.1993 178.984 88.2725Z" fill="#EB996E"/>
<path d="M24.662 124.396L22.8602 131.176L19.801 136.15C19.7483 136.234 19.7144 136.328 19.7014 136.424C19.6883 136.521 19.6964 136.62 19.7251 136.714C19.7537 136.808 19.8024 136.895 19.8681 136.97C19.9338 137.045 20.0151 137.107 20.1069 137.151C20.2136 137.204 20.3322 137.232 20.4526 137.232C20.573 137.232 20.6916 137.204 20.7983 137.151C22.1718 136.449 27.2011 133.843 27.3051 133.341C27.4245 132.76 29.7035 126.309 29.7035 126.309L24.662 124.396Z" fill="#6660AB"/>
<path opacity="0.6" d="M20.1172 137.154L27.4592 132.879L27.3766 133.169C27.3044 133.416 27.143 133.63 26.9208 133.776C26.309 134.159 24.6478 135.189 20.8422 137.157C20.7326 137.212 20.6102 137.241 20.4858 137.241C20.3615 137.241 20.2391 137.212 20.1294 137.157L20.1172 137.154Z" fill="white"/>
<g opacity="0.6">
<path opacity="0.6" d="M26.6245 130.319C26.5188 130.357 26.4316 130.43 26.3796 130.525C26.3275 130.62 26.3144 130.73 26.3428 130.833C26.3793 130.934 26.4551 131.018 26.5547 131.068C26.6544 131.118 26.7703 131.129 26.8787 131.101C26.9927 131.063 27.0876 130.985 27.1443 130.884C27.2011 130.783 27.2156 130.665 27.1849 130.554C27.1354 130.452 27.0461 130.373 26.9358 130.332C26.8256 130.291 26.703 130.293 26.5939 130.336" fill="white"/>
</g>
<path d="M22.6058 134.637C22.4964 134.381 22.3363 134.147 22.1342 133.949C21.9023 133.782 21.6395 133.659 21.3594 133.586C21.3594 133.565 21.4635 133.536 21.635 133.559C21.863 133.591 22.076 133.686 22.2475 133.832C22.4189 133.976 22.5432 134.164 22.6058 134.373C22.6425 134.533 22.6241 134.634 22.6058 134.637Z" fill="#263238"/>
<path d="M21.8377 135.407C21.7948 135.427 21.6325 135.148 21.2926 134.951C20.9527 134.753 20.622 134.73 20.625 134.684C20.7529 134.647 20.8882 134.641 21.0193 134.664C21.1505 134.688 21.2736 134.742 21.3784 134.82C21.7642 135.047 21.8806 135.398 21.8377 135.407Z" fill="#263238"/>
<path d="M23.8823 133.724C23.6382 133.455 23.3734 133.202 23.09 132.97C22.7789 132.778 22.4538 132.607 22.1172 132.459C22.5098 132.487 22.8857 132.621 23.2006 132.845C23.5155 133.07 23.7563 133.375 23.8946 133.724H23.8823Z" fill="#263238"/>
<path d="M24.6106 131.708C24.58 131.743 24.2313 131.484 23.7265 131.333C23.2218 131.182 22.7843 131.191 22.7812 131.148C23.1071 131.048 23.4599 131.062 23.7755 131.188C24.1098 131.262 24.4057 131.446 24.6106 131.708Z" fill="#263238"/>
<path d="M25.1898 129.733C24.9061 129.555 24.5971 129.415 24.2721 129.318C23.939 129.27 23.6008 129.262 23.2656 129.295C23.2656 129.295 23.3605 129.214 23.5501 129.167C23.8002 129.112 24.0603 129.114 24.3098 129.17C24.5593 129.227 24.7915 129.339 24.9879 129.495C25.144 129.62 25.2051 129.719 25.1898 129.733Z" fill="#263238"/>
<path d="M24.4105 128.946C24.4106 128.856 24.4326 128.768 24.4748 128.687C24.5646 128.46 24.7008 128.252 24.8755 128.075C24.9917 127.933 25.154 127.831 25.3375 127.785C25.3982 127.778 25.4598 127.788 25.5144 127.814C25.5689 127.841 25.6139 127.882 25.6434 127.933C25.6939 128.038 25.7025 128.156 25.6679 128.267C25.5864 128.49 25.4252 128.678 25.2123 128.8C24.9994 128.922 24.7482 128.97 24.5023 128.934C24.2607 128.894 24.0369 128.788 23.8589 128.628C23.681 128.468 23.5568 128.261 23.502 128.034C23.4889 127.977 23.4889 127.918 23.5021 127.861C23.5153 127.804 23.5414 127.75 23.5784 127.704C23.6215 127.661 23.6774 127.631 23.7387 127.619C23.8 127.607 23.8636 127.613 23.9211 127.637C24.0857 127.719 24.2241 127.841 24.3218 127.991C24.4718 128.188 24.5846 128.408 24.6553 128.641C24.6875 128.725 24.701 128.813 24.695 128.902C24.589 128.601 24.4376 128.315 24.2453 128.055C24.1533 127.931 24.0303 127.832 23.8874 127.765C23.8565 127.751 23.8216 127.746 23.788 127.753C23.7544 127.759 23.7238 127.775 23.7008 127.799C23.6792 127.832 23.665 127.868 23.6592 127.906C23.6534 127.944 23.6561 127.983 23.6672 128.02C23.7199 128.215 23.8304 128.391 23.9855 128.527C24.1405 128.664 24.3337 128.756 24.5421 128.792C24.7501 128.822 24.9627 128.783 25.1443 128.682C25.3258 128.582 25.4653 128.424 25.5394 128.238C25.5687 128.163 25.5687 128.08 25.5394 128.005C25.5241 127.976 25.4992 127.952 25.4684 127.937C25.4375 127.921 25.4024 127.916 25.3681 127.921C25.2131 127.957 25.0739 128.038 24.9704 128.153C24.7358 128.384 24.5463 128.652 24.4105 128.946Z" fill="#263238"/>
<path d="M47.1143 126.22L46.7319 131.444C46.7319 131.444 52.2047 133.568 52.2384 134.54L41.5312 134.201L41.776 126.037L47.1143 126.22Z" fill="#6660AB"/>
<path d="M43.4291 130.901C43.3275 130.929 43.2403 130.992 43.1839 131.077C43.1276 131.162 43.1058 131.264 43.1228 131.363C43.1471 131.463 43.2108 131.55 43.3007 131.607C43.3907 131.664 43.5002 131.685 43.6067 131.668C43.7168 131.639 43.8118 131.573 43.8734 131.482C43.935 131.391 43.9589 131.281 43.9405 131.174C43.904 131.073 43.8275 130.988 43.7271 130.939C43.6266 130.89 43.5099 130.879 43.4015 130.91" fill="#E0E0E0"/>
<path d="M41.5234 134.2L41.5816 133.379L51.8268 134.009C51.8268 134.009 52.2948 134.221 52.2306 134.54L41.5234 134.2Z" fill="#E0E0E0"/>
<path d="M46.9047 131.399C46.9047 131.448 46.6383 131.463 46.3749 131.614C46.1115 131.765 45.9676 131.971 45.9186 131.951C45.8696 131.931 45.9615 131.643 46.283 131.466C46.6046 131.289 46.9261 131.355 46.9047 131.399Z" fill="#263238"/>
<path d="M48.0148 131.873C48.0148 131.923 47.7943 132.001 47.6106 132.205C47.4268 132.408 47.3656 132.629 47.3044 132.626C47.2431 132.623 47.2278 132.335 47.4636 132.091C47.6994 131.847 48.0148 131.827 48.0148 131.873Z" fill="#263238"/>
<path d="M48.6044 133.172C48.5554 133.172 48.4911 132.931 48.6351 132.661C48.779 132.39 49.0271 132.294 49.0485 132.335C49.0699 132.376 48.9137 132.518 48.7974 132.739C48.681 132.96 48.6565 133.166 48.6044 133.172Z" fill="#263238"/>
<path d="M46.8587 130.199C46.8342 130.242 46.5953 130.167 46.3013 130.175C46.0074 130.184 45.7685 130.268 45.744 130.225C45.7195 130.181 45.9461 130.01 46.2952 130.004C46.6443 129.998 46.9016 130.161 46.8587 130.199Z" fill="#263238"/>
<path d="M46.8943 129.145C46.7173 129.186 46.5319 129.179 46.3589 129.125C46.1663 129.087 45.9793 129.026 45.8022 128.945C45.6963 128.897 45.5941 128.841 45.4963 128.779C45.4366 128.746 45.383 128.704 45.3372 128.655C45.3039 128.619 45.2844 128.573 45.2816 128.525C45.2788 128.477 45.293 128.43 45.3219 128.391C45.35 128.358 45.3854 128.331 45.4256 128.312C45.4658 128.294 45.5097 128.284 45.5544 128.283C45.6232 128.284 45.6914 128.296 45.7563 128.318C45.8702 128.348 45.9808 128.387 46.0867 128.437C46.2639 128.521 46.4269 128.629 46.57 128.759C46.8086 128.986 46.8759 129.174 46.8759 129.183C46.8759 129.192 46.7352 129.041 46.4905 128.852C46.3467 128.742 46.1883 128.65 46.0194 128.579C45.9201 128.539 45.8178 128.506 45.7135 128.481C45.6003 128.449 45.5024 128.446 45.4718 128.481C45.4412 128.515 45.4718 128.507 45.4718 128.539C45.5055 128.574 45.5447 128.604 45.588 128.629C45.6763 128.688 45.7682 128.742 45.8634 128.791C46.0278 128.874 46.1998 128.943 46.3773 128.997C46.5532 129.034 46.726 129.084 46.8943 129.145Z" fill="#263238"/>
<path d="M46.8367 129.215C46.7409 129.067 46.698 128.893 46.7143 128.719C46.7092 128.53 46.7403 128.343 46.8061 128.165C46.8448 128.059 46.894 127.957 46.953 127.86C46.9844 127.794 47.0332 127.736 47.0948 127.693C47.1565 127.65 47.2287 127.622 47.3048 127.613C47.3523 127.616 47.398 127.632 47.4365 127.659C47.475 127.685 47.5046 127.722 47.522 127.764C47.5483 127.823 47.5648 127.886 47.5709 127.95C47.5896 128.063 47.5896 128.179 47.5709 128.292C47.5363 128.483 47.451 128.662 47.3231 128.812C47.1059 129.067 46.8857 129.122 46.8826 129.102C46.8795 129.082 47.0509 128.986 47.2191 128.736C47.3167 128.594 47.3804 128.434 47.4057 128.266C47.4204 128.17 47.4204 128.072 47.4057 127.976C47.4057 127.869 47.3537 127.779 47.3109 127.79C47.2681 127.802 47.164 127.866 47.1182 127.95C47.063 128.037 47.0149 128.128 46.9744 128.223C46.9092 128.384 46.869 128.553 46.8551 128.725C46.8153 129.018 46.8642 129.215 46.8367 129.215Z" fill="#263238"/>
<path d="M35.9266 31.8428C35.6245 31.2382 35.3748 30.6112 35.1802 29.968C35.067 29.4776 34.8926 28.7375 35.0884 28.2732C35.1781 28.0127 35.3598 27.7897 35.6028 27.6416C35.8458 27.4936 36.1353 27.4296 36.4222 27.4606C36.4747 26.974 36.6574 26.5083 36.953 26.1075C37.2485 25.7068 37.6471 25.3843 38.1109 25.1708C39.0071 24.7334 39.9852 24.4671 40.9896 24.3872C41.3562 24.3436 41.7286 24.3793 42.0786 24.4917C42.377 24.6259 42.6155 24.8563 42.7517 25.1417C43.0498 24.9269 43.3968 24.7811 43.7649 24.7161C44.133 24.6511 44.512 24.6687 44.8717 24.7674C45.6732 24.956 46.594 25.3478 46.9611 26.0443C47.2286 26.567 47.2681 27.1687 47.0712 27.7188C46.9274 28.1832 46.4318 28.9203 45.9485 28.7636" fill="#263238"/>
<path d="M36.7203 44.7328L43.9093 44.4194C43.9522 43.6967 43.5606 39.2187 43.5606 39.2187C43.5606 39.2187 46.2802 38.8182 46.3139 36.2411C46.3475 33.664 45.8764 27.7465 45.8764 27.7465C44.3326 27.1177 42.64 26.8908 40.9731 27.0893C39.3061 27.2877 37.7251 27.9043 36.3929 28.8755L35.9922 29.1657L36.7203 44.7328Z" fill="#B78876"/>
<path d="M43.566 39.1833C42.3113 39.2062 41.078 38.8738 40.0234 38.2285C40.0234 38.2285 40.8617 40.083 43.5721 39.8508L43.566 39.1833Z" fill="#AA6550"/>
<path d="M36.325 31.842C36.2791 31.8217 34.4589 31.3167 34.517 33.0783C34.5751 34.8399 36.429 34.422 36.432 34.3698C36.4351 34.3175 36.325 31.842 36.325 31.842Z" fill="#B78876"/>
<path d="M35.8369 33.7358C35.8369 33.7358 35.8063 33.7591 35.7512 33.7852C35.6736 33.8141 35.5872 33.8141 35.5096 33.7852C35.3874 33.7162 35.2866 33.618 35.2173 33.5003C35.148 33.3826 35.1127 33.2496 35.1149 33.1148C35.1063 32.9633 35.1324 32.8118 35.1914 32.6707C35.2065 32.6152 35.2359 32.5641 35.2771 32.522C35.3182 32.48 35.3697 32.4483 35.427 32.4299C35.4637 32.4192 35.5032 32.4212 35.5385 32.4355C35.5738 32.4499 35.6026 32.4756 35.6197 32.5082C35.6472 32.5547 35.6381 32.5924 35.6472 32.5953C35.6564 32.5982 35.687 32.5634 35.6686 32.4908C35.6562 32.4481 35.6293 32.4103 35.5922 32.3834C35.5664 32.3657 35.5372 32.353 35.5062 32.346C35.4752 32.3391 35.4431 32.338 35.4117 32.3428C35.3348 32.3599 35.264 32.3956 35.2061 32.4465C35.1482 32.4974 35.1052 32.5616 35.0813 32.633C35.008 32.7878 34.9755 32.9571 34.9865 33.1264C34.9823 33.284 35.0275 33.4392 35.1162 33.5724C35.205 33.7057 35.3333 33.811 35.4851 33.8751C35.5374 33.8884 35.5922 33.8901 35.6452 33.88C35.6983 33.87 35.7482 33.8484 35.791 33.8171C35.8338 33.7649 35.843 33.7358 35.8369 33.7358Z" fill="#AA6550"/>
<path d="M45.2748 31.7856C45.2757 31.8814 45.2372 31.9739 45.1675 32.0433C45.0977 32.1127 45.0022 32.1537 44.9012 32.1574C44.8518 32.1614 44.8021 32.1559 44.7549 32.1413C44.7078 32.1267 44.6642 32.1032 44.6268 32.0723C44.5894 32.0414 44.5589 32.0037 44.5371 31.9615C44.5154 31.9192 44.5027 31.8732 44.5001 31.8262C44.4984 31.7301 44.5366 31.6373 44.6065 31.5677C44.6765 31.4981 44.7724 31.4574 44.8737 31.4544C44.9231 31.4504 44.9728 31.4559 45.02 31.4705C45.0671 31.4851 45.1107 31.5086 45.1481 31.5395C45.1855 31.5704 45.216 31.6081 45.2378 31.6503C45.2595 31.6926 45.2721 31.7386 45.2748 31.7856Z" fill="#263238"/>
<path d="M45.3714 31.3733C45.3225 31.4197 45.0288 31.2137 44.6097 31.2166C44.1906 31.2195 43.8877 31.4139 43.8418 31.3675C43.7959 31.321 43.8694 31.2572 44.0009 31.1643C44.1811 31.0474 44.3944 30.9846 44.6127 30.9844C44.8323 30.9833 45.0465 31.0483 45.2246 31.1701C45.3439 31.263 45.3867 31.3501 45.3714 31.3733Z" fill="#263238"/>
<path d="M41.1888 31.8793C41.1905 31.9754 41.1522 32.0683 41.0823 32.1379C41.0124 32.2074 40.9165 32.2481 40.8152 32.2512C40.7658 32.2551 40.7161 32.2496 40.6689 32.235C40.6218 32.2204 40.5782 32.197 40.5408 32.1661C40.5034 32.1352 40.4729 32.0975 40.4511 32.0552C40.4294 32.0129 40.4168 31.967 40.4141 31.92C40.414 31.8243 40.4527 31.7323 40.5223 31.663C40.5919 31.5938 40.6869 31.5526 40.7877 31.5481C40.8371 31.5442 40.8868 31.5497 40.934 31.5643C40.9811 31.5789 41.0247 31.6023 41.0621 31.6332C41.0995 31.6641 41.13 31.7018 41.1518 31.7441C41.1735 31.7863 41.1861 31.8323 41.1888 31.8793Z" fill="#263238"/>
<path d="M41.2542 31.4466C41.2053 31.4959 40.9116 31.2899 40.4955 31.2899C40.0795 31.2899 39.7705 31.4901 39.7246 31.4408C39.6787 31.3914 39.7522 31.3334 39.8868 31.2405C40.0663 31.1222 40.28 31.0594 40.4986 31.0606C40.7182 31.0587 40.9327 31.1238 41.1104 31.2463C41.2328 31.3392 41.2787 31.4146 41.2542 31.4466Z" fill="#263238"/>
<path d="M42.7742 34.3828C42.9953 34.32 43.2231 34.281 43.4534 34.2667C43.5605 34.2667 43.6614 34.2377 43.6798 34.1681C43.6859 34.0666 43.6604 33.9656 43.6063 33.8779C43.5084 33.6312 43.4014 33.3758 43.3004 33.1059C43.008 32.4537 42.7717 31.7801 42.5938 31.0918C42.9407 31.7207 43.2342 32.3748 43.4717 33.0478L43.7777 33.8227C43.8463 33.9445 43.8669 34.0854 43.8358 34.2203C43.8198 34.256 43.7956 34.2879 43.7649 34.3135C43.7341 34.3392 43.6977 34.3579 43.6583 34.3683C43.5995 34.3836 43.5388 34.3915 43.4779 34.3915C43.244 34.4193 43.0072 34.4164 42.7742 34.3828Z" fill="#263238"/>
<path d="M41.5489 34.6583C41.6163 34.6583 41.6163 35.0853 42.0052 35.3904C42.3941 35.6954 42.8749 35.6489 42.8811 35.707C42.8872 35.7651 42.7708 35.7913 42.5748 35.7971C42.3087 35.8001 42.0498 35.7148 41.8429 35.556C41.647 35.402 41.521 35.1826 41.4907 34.943C41.4662 34.7628 41.5183 34.6554 41.5489 34.6583Z" fill="#263238"/>
<path d="M41.3646 29.8916C41.3249 30.0019 40.9088 29.9497 40.4163 30.0048C39.9238 30.06 39.5322 30.1877 39.4679 30.0919C39.4373 30.0455 39.5077 29.9439 39.6668 29.8394C39.8805 29.7127 40.1216 29.6333 40.3721 29.6072C40.6226 29.5811 40.8761 29.6088 41.1138 29.6885C41.2912 29.7581 41.3922 29.8423 41.3646 29.8916Z" fill="#263238"/>
<path d="M45.2116 30.2276C45.1381 30.3177 44.8502 30.2276 44.5042 30.2276C44.1581 30.2276 43.8672 30.2886 43.7968 30.1957C43.7692 30.1492 43.8151 30.0591 43.9437 29.972C44.1163 29.871 44.3163 29.8205 44.5189 29.8267C44.7215 29.8329 44.9177 29.8955 45.0829 30.0068C45.2054 30.0911 45.2453 30.1841 45.2116 30.2276Z" fill="#263238"/>
<path d="M35.8364 29.0529C35.8731 29.8046 35.6957 30.6404 35.8364 31.3746C35.8547 31.4878 36.1607 31.7838 36.1882 31.8941C36.3473 32.5471 36.6318 32.8286 37.0417 32.1553C37.193 31.7437 37.2956 31.3173 37.3476 30.8842C37.5098 30.089 37.675 29.2967 37.8402 28.5015C38.4771 28.8169 39.1866 28.9774 39.9051 28.9688C40.2676 28.9636 40.6225 28.8702 40.9359 28.6974C41.2493 28.5246 41.5106 28.2783 41.6947 27.982C41.8649 28.2499 42.0964 28.478 42.3723 28.6493C42.6481 28.8206 42.9611 28.9307 43.288 28.9714C43.6149 29.0121 43.9473 28.9824 44.2604 28.8845C44.5735 28.7865 44.8593 28.6229 45.0965 28.4057C45.2298 28.5818 45.4275 28.7043 45.651 28.7494C45.8745 28.7945 46.1076 28.7589 46.3049 28.6495C46.496 28.5287 46.6417 28.3534 46.7208 28.1489C46.8 27.9444 46.8086 27.7213 46.7454 27.5119C46.5588 26.885 45.8491 26.5426 45.1883 26.351C42.6125 25.6371 39.7399 26.203 37.4119 27.4945C37.0733 27.6746 36.7642 27.9004 36.4941 28.1649C36.228 28.4551 35.8609 28.7656 35.8486 29.1371" fill="#263238"/>
<path d="M37.79 29.1275C37.6469 29.1291 37.5053 29.1536 37.3709 29.2C37.23 29.2618 37.1008 29.3451 36.9885 29.4467C36.86 29.5599 36.7315 29.705 36.5785 29.8501C36.4343 29.9962 36.2563 30.1085 36.0585 30.1781C35.892 30.2281 35.7143 30.2341 35.5445 30.1955C35.2386 30.1258 35.1346 29.9778 35.1499 29.9691C35.2842 30.0193 35.4222 30.06 35.5629 30.091C35.7135 30.1116 35.8672 30.0956 36.0095 30.0446C36.1805 29.9779 36.3355 29.8792 36.4653 29.7544C36.6122 29.618 36.7437 29.4641 36.8906 29.3539C37.0195 29.2472 37.1691 29.1653 37.3311 29.113C37.6186 29.0114 37.8022 29.113 37.79 29.1275Z" fill="#455A64"/>
<path d="M37.4966 29.9035C37.3858 29.9255 37.2815 29.9701 37.1906 30.0341C37.1026 30.1114 37.0255 30.1992 36.9612 30.2953C36.868 30.4212 36.7508 30.5295 36.6155 30.6145C36.3671 30.769 36.0693 30.8358 35.7742 30.8031C35.5509 30.777 35.4316 30.7016 35.4377 30.6871C35.4438 30.6725 35.5754 30.6871 35.7804 30.6871C36.0452 30.6845 36.304 30.6111 36.5268 30.4752C36.7899 30.3272 36.9153 30.0573 37.1233 29.9354C37.3314 29.8135 37.5088 29.8832 37.4966 29.9035Z" fill="#455A64"/>
<path d="M44.5256 24.7388C44.5256 24.7388 44.6112 24.7156 44.7642 24.7388C44.9776 24.8018 45.1641 24.9279 45.2965 25.0987C45.6422 25.534 45.737 26.3176 45.5015 27.0838C45.2924 27.7444 44.8324 28.308 44.2105 28.6654C44.0268 28.7736 43.8294 28.8595 43.6231 28.9208C43.5494 28.9496 43.4704 28.9644 43.3906 28.9644C43.6492 28.8486 43.9004 28.7187 44.1432 28.5755C44.7153 28.2073 45.1373 27.6645 45.3393 27.0373C45.5657 26.3147 45.4862 25.5659 45.1955 25.1625C45.0877 25.0032 44.9351 24.8756 44.755 24.794C44.6082 24.7388 44.5225 24.7388 44.5256 24.7388Z" fill="#455A64"/>
<path d="M46.8019 25.7383C46.8417 25.9015 46.8417 26.0713 46.8019 26.2346C46.7284 26.6317 46.5713 27.0107 46.3399 27.349C46.1132 27.6913 45.8168 27.9873 45.4681 28.2196C45.3328 28.3281 45.1724 28.4047 45 28.4431C45.4665 28.1219 45.8738 27.7296 46.2053 27.2822C46.4921 26.8021 46.6936 26.2805 46.8019 25.7383Z" fill="#455A64"/>
<path d="M49.9011 68.8262L48.1788 129.632L39.7354 129.391L40.384 77.2047L29.6218 130.842L21.9922 128.953L31.8427 68.9423L49.9011 68.8262Z" fill="#263238"/>
<path d="M75.9063 42.7739L76.3101 42.6346C76.3101 42.6346 79.7762 43.1309 79.5927 42.5389C79.351 41.7553 76.2276 41.4941 75.9461 41.526C75.4658 41.5812 72.6758 42.2748 72.3057 42.5389C71.9355 42.803 69.8828 45.3772 69.8828 45.3772L73.3764 47.9398C73.3764 47.9398 74.2054 47.9049 75.1477 46.8747C75.628 46.3523 76.3163 45.4497 76.3163 45.4497C76.3163 45.4497 76.2428 45.2321 76.3163 45.1363C76.4937 44.8461 76.3163 44.7155 76.3163 44.7155C76.4144 44.6768 76.4989 44.6122 76.5596 44.5294C76.6203 44.4466 76.6548 44.349 76.6589 44.2482C76.6608 44.1945 76.6509 44.1409 76.6298 44.0909C76.6087 44.041 76.577 43.9957 76.5365 43.958C76.3193 43.8187 76.2306 43.8564 76.2306 43.8564C76.3499 43.8016 76.4534 43.7202 76.5323 43.6191C76.6112 43.518 76.663 43.4003 76.6834 43.276C76.7078 42.9045 76.1297 42.8146 76.1297 42.8146" fill="#B78876"/>
<path d="M79.5492 42.6884C79.3254 42.7948 79.0804 42.8551 78.8303 42.8655C78.5604 42.8965 78.2879 42.9033 78.0166 42.8858C77.7107 42.848 77.4048 42.7987 77.0438 42.7465L76.3096 42.6333H76.3555C75.8019 42.8388 75.2308 42.999 74.6484 43.1121C75.1781 42.8564 75.7298 42.6438 76.2973 42.4766H76.3187H76.3432L77.0713 42.5839L78.0319 42.732C78.2931 42.7574 78.556 42.7632 78.8181 42.7494C79.2678 42.732 79.5431 42.6623 79.5492 42.6884Z" fill="#AA6550"/>
<path d="M75.7089 42.9688L74.7728 43.9323C74.6566 44.0363 74.564 44.1617 74.5005 44.3008C74.4697 44.3705 74.461 44.4473 74.4757 44.5216C74.4904 44.5958 74.5278 44.6644 74.5831 44.7187C74.6334 44.7563 74.6926 44.7815 74.7556 44.7922C74.8186 44.8028 74.8833 44.7985 74.9441 44.7797C75.0658 44.742 75.1789 44.683 75.2776 44.6056C75.6825 44.3331 76.0687 44.0365 76.4339 43.7175" fill="#B78876"/>
<path d="M76.4984 43.6594C76.3542 43.8426 76.1879 44.0092 76.0028 44.1557C75.8133 44.3294 75.6086 44.4877 75.391 44.6287C75.2578 44.7122 75.1152 44.7814 74.9658 44.8348C74.8786 44.8644 74.7858 44.8762 74.6935 44.8696C74.6407 44.866 74.5894 44.8517 74.543 44.8277C74.4965 44.8036 74.4561 44.7704 74.4243 44.7303C74.3717 44.6523 74.3438 44.5617 74.3438 44.4691C74.3438 44.3765 74.3717 44.2859 74.4243 44.2079C74.5076 44.0796 74.605 43.9599 74.7149 43.851C74.9107 43.642 75.0942 43.4592 75.2503 43.3083C75.4091 43.135 75.5936 42.9845 75.7979 42.8613C75.6556 43.0453 75.5003 43.2199 75.3329 43.3837L74.8281 43.9409C74.7288 44.0453 74.6397 44.1579 74.5619 44.2776C74.5261 44.332 74.5072 44.3948 74.5072 44.459C74.5072 44.5231 74.5261 44.5859 74.5619 44.6403C74.6081 44.6858 74.6685 44.7158 74.7342 44.7258C74.7999 44.7357 74.8672 44.7251 74.926 44.6955C75.0644 44.6477 75.1968 44.5854 75.3206 44.5097C75.5358 44.3794 75.7403 44.2339 75.9325 44.0744C76.1049 43.9172 76.2946 43.7781 76.4984 43.6594Z" fill="#AA6550"/>
<path d="M76.1562 43.9941C76.1562 43.9941 76.4349 43.6397 76.5789 43.6397C76.6736 43.6231 76.7714 43.6366 76.8572 43.6781C76.943 43.7196 77.012 43.7868 77.0535 43.8692C77.1576 44.0755 77.078 44.1597 76.7473 44.6391" fill="#B78876"/>
<path d="M76.1623 43.9941L75.3975 44.8212C75.3016 44.9116 75.2257 45.0191 75.1742 45.1376C75.1492 45.1976 75.1422 45.263 75.1541 45.3266C75.166 45.3901 75.1962 45.4493 75.2415 45.4975C75.2829 45.5313 75.3331 45.554 75.3869 45.5632C75.4407 45.5724 75.4962 45.5677 75.5474 45.5497C75.6469 45.5164 75.7391 45.4662 75.8197 45.4017C76.1496 45.1654 76.4643 44.9106 76.7619 44.6384" fill="#B78876"/>
<path d="M77.0873 44.0967C77.0335 44.3127 76.923 44.5124 76.7661 44.6771C76.6102 44.8654 76.4338 45.0376 76.2399 45.1908C76.1249 45.2816 76.0044 45.3659 75.8789 45.4433C75.7413 45.5392 75.5821 45.6038 75.4139 45.6319C75.3626 45.6378 75.3106 45.6324 75.2619 45.6163C75.2131 45.6002 75.1688 45.5738 75.1325 45.539C75.0987 45.5049 75.0723 45.4648 75.055 45.4209C75.0377 45.3771 75.0297 45.3304 75.0315 45.2837C75.0451 45.1277 75.1154 44.981 75.2303 44.8686C75.4078 44.6597 75.576 44.4827 75.7229 44.3347C75.8677 44.1623 76.0401 44.0124 76.2338 43.8906C76.1059 44.0709 75.9637 44.2416 75.8085 44.4014C75.6739 44.5581 75.5026 44.7439 75.3466 44.9499C75.2576 45.0412 75.2018 45.1572 75.1875 45.2808C75.1838 45.308 75.1869 45.3357 75.1965 45.3616C75.206 45.3876 75.2218 45.4111 75.2426 45.4302C75.2634 45.4494 75.2886 45.4636 75.3162 45.472C75.3438 45.4803 75.373 45.4824 75.4017 45.4781C75.5438 45.4508 75.6782 45.3954 75.7963 45.3156C75.9217 45.2401 76.038 45.1589 76.1481 45.0805C76.3394 44.9365 76.5175 44.7772 76.6804 44.6046C76.9588 44.3172 77.0628 44.088 77.0873 44.0967Z" fill="#AA6550"/>
<path d="M71.1016 45.8124C71.2354 45.9032 71.3959 45.952 71.5604 45.952C71.725 45.952 71.8854 45.9032 72.0193 45.8124C72.3038 45.6557 72.5241 45.4119 72.7933 45.232C73.604 44.7096 74.7573 44.8547 75.5466 44.2975C75.6536 44.2191 75.7638 44.0885 75.7056 43.9724C75.6475 43.8564 75.4976 43.8477 75.3722 43.8477L72.1264 43.8709" fill="#B78876"/>
<path d="M72.122 43.8946C72.2372 43.8687 72.3554 43.857 72.4738 43.8598C72.7001 43.8598 73.0275 43.8366 73.4313 43.825L74.8508 43.796H75.2607C75.3429 43.7824 75.4271 43.7844 75.5084 43.8019C75.5898 43.8193 75.6668 43.8518 75.7349 43.8975C75.7726 43.9358 75.7973 43.984 75.8055 44.0359C75.8137 44.0877 75.805 44.1407 75.7807 44.1877C75.7432 44.2651 75.6865 44.3328 75.6155 44.3851C75.4884 44.4758 75.3509 44.5528 75.2056 44.6144C74.6152 44.8639 74.0156 44.9046 73.5169 45.0439C73.2787 45.1085 73.0519 45.2063 72.8439 45.3341C72.6543 45.4531 72.4952 45.5982 72.333 45.7172C72.2117 45.8262 72.0666 45.9087 71.9081 45.9588C71.7495 46.009 71.5813 46.0255 71.4153 46.0074C71.1767 45.961 71.1094 45.8362 71.1094 45.8362C71.204 45.888 71.3076 45.9234 71.4153 45.9406C71.5683 45.9446 71.7205 45.9183 71.8622 45.8633C72.0039 45.8083 72.132 45.726 72.2382 45.6214C72.3912 45.4995 72.5441 45.3486 72.7491 45.2122C72.9675 45.0748 73.2069 44.9701 73.4588 44.9017C73.9758 44.745 74.5754 44.6985 75.1169 44.4664C75.249 44.4112 75.3742 44.342 75.4901 44.2603C75.5972 44.1819 75.6523 44.0746 75.5941 44.031C75.536 43.9875 75.3892 43.9759 75.2515 43.9788H74.8416H73.4221C73.0183 43.9788 72.691 43.9643 72.4646 43.9556C72.3478 43.9516 72.2323 43.931 72.122 43.8946Z" fill="#AA6550"/>
<path d="M76.5469 44.898C76.5469 44.898 76.7551 44.6365 76.8531 44.6365C76.9232 44.6235 76.9959 44.633 77.0596 44.6635C77.1234 44.694 77.1746 44.7438 77.2053 44.805C77.2818 44.9561 77.2237 45.0229 76.9756 45.3861" fill="#B78876"/>
<path d="M76.5468 44.8984L75.9803 45.5114C75.9101 45.5793 75.854 45.6592 75.8149 45.7467C75.7969 45.7915 75.7923 45.8402 75.8015 45.8873C75.8106 45.9344 75.8333 45.9783 75.867 46.014C75.8969 46.0372 75.9326 46.0528 75.9706 46.0594C76.0086 46.066 76.0477 46.0634 76.0844 46.0518C76.1586 46.0276 76.2272 45.9901 76.2865 45.9414C76.5318 45.7669 76.765 45.5777 76.9847 45.3749" fill="#B78876"/>
<path d="M77.2373 44.9792C77.2095 45.1443 77.1307 45.2978 77.0109 45.4204C76.8972 45.5625 76.7668 45.692 76.6224 45.8063C76.5369 45.8745 76.447 45.9375 76.3532 45.995C76.2487 46.0694 76.127 46.1191 75.9983 46.1401C75.9575 46.1441 75.9163 46.1394 75.8776 46.1263C75.839 46.1133 75.8039 46.0922 75.775 46.0646C75.7218 46.0092 75.6933 45.9364 75.6954 45.8615C75.7062 45.7421 75.759 45.6297 75.8453 45.5422C75.986 45.3942 76.1176 45.252 76.2277 45.1563C76.448 44.9415 76.5887 44.8167 76.604 44.8312C76.525 44.9784 76.4217 45.1126 76.2981 45.2288L75.9646 45.6351C75.9021 45.699 75.8634 45.7805 75.8545 45.8673C75.8545 45.9514 75.9004 46.0008 75.9891 45.995C76.0917 45.9747 76.1886 45.9342 76.2736 45.876C76.3654 45.8209 76.451 45.7628 76.5306 45.7048C76.674 45.6004 76.8071 45.4838 76.9283 45.3565C77.1332 45.1359 77.2128 44.9676 77.2373 44.9792Z" fill="#AA6550"/>
<path d="M74.2301 46.3738C74.1829 46.1429 74.1142 45.9164 74.025 45.6969C73.8473 45.3483 73.5472 45.1769 73.5717 45.1391C73.5962 45.1014 73.9606 45.2292 74.1842 45.6272C74.2557 45.7386 74.2973 45.8649 74.3054 45.9951C74.3134 46.1253 74.2875 46.2553 74.2301 46.3738Z" fill="#AA6550"/>
<path d="M50.142 71.1154C50.142 71.1154 49.5485 54.6776 49.3772 52.2515C53.6601 54.5122 60.274 57.4028 61.0021 57.5479C62.2869 57.8033 73.6916 48.1826 73.6916 48.1826L69.6045 45.1441L60.173 50.1851L47.8109 43.1851C46.9247 42.5672 45.8861 42.1755 44.7945 42.0475H44.7089C44.2684 41.9982 44.0542 41.9401 43.7911 41.9082C41.8363 43.3012 38.4957 43.3912 36.5776 41.9546C36.5776 41.9546 35.1214 42.2652 34.2526 42.4248C31.4994 42.9211 29.5476 44.8132 29 46.5574L32.411 54.0508L33.0687 61.1698L31.3372 70.3231L50.142 71.1212" fill="#AAA7CC"/>
<g opacity="0.3">
<path opacity="0.3" d="M32.3982 64.3195C32.7676 64.645 33.2129 64.8832 33.6976 65.0149C34.1824 65.1465 34.6931 65.1677 35.1881 65.077C35.8887 64.9435 36.5556 64.5807 37.2714 64.6242C38.0546 64.6736 38.7031 65.2047 39.4129 65.4949C40.7467 66.0753 42.3038 65.8838 43.7171 65.5268C44.3687 65.3614 45.0479 65.1379 45.47 64.6387C45.7677 64.2289 45.9527 63.7551 46.0085 63.2602C46.1704 62.3574 46.2411 61.442 46.2195 60.5264C46.2042 59.946 46.1369 59.3394 45.7545 58.8954C45.4211 58.5432 44.9603 58.3226 44.4636 58.2772C43.9707 58.2351 43.4739 58.2615 42.989 58.3556C39.1122 58.9685 35.4491 60.462 32.3125 62.7088" fill="black"/>
</g>
<path d="M39.2838 61.3052C39.2838 61.3052 30.3051 65.1157 29.3935 65.3044C26.3618 65.937 22.8958 63.2206 23.8594 60.124C24.2174 58.9632 29.06 46.2344 29.06 46.2344L33.6488 52.2621L31.7032 58.4292L36.8059 58.1129L39.2838 61.3052Z" fill="#AAA7CC"/>
<path d="M36.3783 58.1491C36.2621 58.1766 36.1431 58.1921 36.0234 58.1955L35.0414 58.2739C34.2063 58.3377 33.0377 58.4132 31.7069 58.4944H31.5938L31.6274 58.3928C31.7222 58.0852 31.8232 57.766 31.9333 57.438C32.3891 55.987 32.8082 54.6955 33.1203 53.7581L33.4966 52.6466C33.535 52.5083 33.5883 52.3741 33.6556 52.2461C33.6356 52.3881 33.6019 52.528 33.5547 52.664L33.2274 53.7871C32.9428 54.7361 32.5421 56.0421 32.0863 57.4816C31.9853 57.8066 31.8813 58.1258 31.7804 58.4335L31.6978 58.3406C33.0316 58.2651 34.2002 58.2071 35.0384 58.1723L36.0234 58.1375C36.1418 58.1295 36.2608 58.1334 36.3783 58.1491Z" fill="#263238"/>
<path d="M29.8049 60.435C29.8015 60.2902 29.8351 60.1468 29.9028 60.0171C30.036 59.6942 30.2333 59.3986 30.4841 59.1464C30.7323 58.8919 31.0306 58.6859 31.362 58.5399C31.4929 58.4659 31.6412 58.424 31.7934 58.418C31.3588 58.6434 30.9576 58.9225 30.6003 59.248C30.2814 59.6088 30.014 60.0079 29.8049 60.435Z" fill="#263238"/>
<path d="M38.2797 61.7885C38.2797 61.8291 36.3248 62.6359 33.8775 63.5936C31.4302 64.5513 29.4294 65.2943 29.4142 65.2565C29.3989 65.2188 31.3659 64.4091 33.8163 63.4514C36.2667 62.4937 38.2613 61.7508 38.2797 61.7885Z" fill="#263238"/>
<path d="M49.8492 63.0472C49.8392 63.0023 49.8331 62.9566 49.8308 62.9108C49.8308 62.8063 49.8308 62.6786 49.8094 62.5248C49.7941 62.1649 49.7758 61.6832 49.7513 61.1027C49.7023 59.9013 49.632 58.2412 49.5188 56.41C49.4056 54.5787 49.2679 52.9274 49.1303 51.7317C49.063 51.1339 48.9926 50.655 48.9437 50.3213C48.9065 50.1508 48.8809 49.9783 48.8672 49.8047C48.8672 49.8047 48.8886 49.8482 48.91 49.9324C48.9314 50.0165 48.9681 50.1617 49.0048 50.3097C49.0722 50.6405 49.1609 51.1223 49.2435 51.7201C49.4087 52.9129 49.5494 54.57 49.6779 56.4013C49.8064 58.2325 49.8431 59.8838 49.8645 61.0998C49.8645 61.7006 49.8645 62.1881 49.8645 62.5248C49.8645 62.6757 49.8645 62.815 49.8645 62.9108C49.8679 62.9568 49.8628 63.0029 49.8492 63.0472Z" fill="#263238"/>
<path d="M34.2175 46.5039C34.2175 46.5271 33.9666 46.6374 33.624 46.916C33.1754 47.2794 32.8471 47.7582 32.6787 48.2945L32.6359 48.4367L32.538 48.3148L32.4768 48.2394C32.2869 48.015 32.0521 47.8285 31.7859 47.6905C31.5197 47.5525 31.2274 47.4659 30.9258 47.4355C30.6722 47.4184 30.4177 47.4184 30.1641 47.4355C30.1641 47.4355 30.2283 47.3978 30.3598 47.3629C30.5481 47.3209 30.7419 47.3052 30.935 47.3165C31.2581 47.3333 31.5737 47.415 31.8611 47.556C32.1485 47.6971 32.4011 47.8944 32.6022 48.1349L32.6695 48.2191L32.5135 48.2452C32.6907 47.6824 33.0504 47.1868 33.5414 46.8289C33.737 46.6722 33.9685 46.5609 34.2175 46.5039Z" fill="#FAFAFA"/>
<path d="M40.0456 50.0176C40.0456 50.0408 39.7947 50.1482 39.4521 50.4268C39.0042 50.7908 38.676 51.2693 38.5068 51.8053L38.464 51.9504L38.3661 51.8285L38.3019 51.7502C37.9177 51.2991 37.3614 51.0102 36.7539 50.9463C36.5003 50.9298 36.2458 50.9298 35.9922 50.9463C35.9922 50.9463 36.0564 50.9085 36.188 50.8737C36.3763 50.8317 36.57 50.816 36.7631 50.8273C37.0854 50.8441 37.4004 50.9255 37.6872 51.0661C37.974 51.2066 38.2262 51.4032 38.4273 51.6428L38.4946 51.7269L38.3539 51.7502C38.5309 51.1864 38.8905 50.6899 39.3818 50.331C39.5744 50.179 39.8017 50.0717 40.0456 50.0176Z" fill="#FAFAFA"/>
<path d="M32.1904 53.0205C32.1904 53.0466 31.9089 53.0669 31.4868 53.2179C30.9366 53.4188 30.4589 53.7653 30.1101 54.2162L30.0153 54.3352L29.9663 54.1901L29.9358 54.0972C29.7344 53.55 29.3133 53.1004 28.7641 52.8464C28.5296 52.751 28.287 52.6743 28.0391 52.6171C28.0391 52.6171 28.1155 52.5997 28.2501 52.6171C28.4431 52.6364 28.6319 52.6834 28.81 52.7564C29.107 52.8749 29.3743 53.0514 29.5947 53.2744C29.815 53.4974 29.9833 53.7619 30.0887 54.0508C30.0976 54.0843 30.1089 54.1173 30.1224 54.1494L29.9786 54.1262C30.3452 53.652 30.8601 53.2996 31.45 53.1192C31.6857 53.0335 31.9389 52.9997 32.1904 53.0205Z" fill="#FAFAFA"/>
<path d="M30.2685 57.4049C30.2685 57.431 29.9871 57.4484 29.5649 57.6022C29.014 57.8018 28.5351 58.1473 28.1852 58.5977L28.0934 58.7196L28.0445 58.5745L28.0139 58.4816C27.8105 57.9374 27.3881 57.4918 26.8392 57.2424C26.6052 57.1473 26.3638 57.0697 26.1172 57.0102C26.1868 56.9966 26.2586 56.9966 26.3283 57.0102C26.5212 57.0299 26.7099 57.0768 26.8881 57.1495C27.1852 57.2688 27.4525 57.4463 27.6723 57.6703C27.8922 57.8944 28.0596 58.16 28.1638 58.4497C28.1638 58.4845 28.1883 58.5193 28.1974 58.5512L28.0567 58.528C28.4227 58.0533 28.9378 57.7007 29.5282 57.521C29.7619 57.4275 30.0155 57.3877 30.2685 57.4049Z" fill="#FAFAFA"/>
<path d="M29.9013 61.8874C29.9013 61.9135 29.6199 61.9309 29.1977 62.0847C28.6468 62.2843 28.1679 62.6298 27.818 63.0802L27.7262 63.2021L27.6773 63.0541L27.6467 62.9641C27.4453 62.4152 27.0229 61.9644 26.472 61.7104C26.2375 61.6174 25.9962 61.5408 25.75 61.4811C25.8196 61.4672 25.8915 61.4672 25.9611 61.4811C26.153 61.5008 26.3407 61.5478 26.5179 61.6204C26.8157 61.7392 27.0836 61.9165 27.304 62.1406C27.5244 62.3647 27.6923 62.6305 27.7966 62.9206L27.8302 63.0221L27.6895 62.996C28.0523 62.5226 28.5628 62.1693 29.1487 61.9861C29.3877 61.8966 29.6457 61.8627 29.9013 61.8874Z" fill="#FAFAFA"/>
<path d="M42.9206 45.6328C42.9206 45.656 42.6728 45.7634 42.3302 46.042C41.8816 46.4054 41.5533 46.8842 41.3849 47.4205L41.339 47.5656L41.2411 47.4438L41.1799 47.3654C40.7962 46.9139 40.2397 46.6248 39.632 46.5615C39.377 46.5481 39.1214 46.5529 38.8672 46.576C38.8672 46.576 38.9345 46.5383 39.066 46.5035C39.2541 46.4602 39.4479 46.4436 39.6412 46.4541C39.9634 46.4726 40.2781 46.555 40.5647 46.696C40.8514 46.8369 41.1037 47.0333 41.3054 47.2725L41.3727 47.3567L41.2319 47.3799C41.407 46.8153 41.7671 46.3183 42.2598 45.9608C42.45 45.804 42.6764 45.6916 42.9206 45.6328Z" fill="#FAFAFA"/>
<path d="M47.4848 44.1307C47.4848 44.1568 47.2003 44.1568 46.769 44.2845C46.2061 44.4517 45.7051 44.7679 45.3251 45.1958L45.2241 45.3119L45.1874 45.1639C45.1775 45.1334 45.1693 45.1024 45.1629 45.071C44.9979 44.5117 44.6064 44.037 44.0739 43.7505C43.8458 43.643 43.6096 43.5518 43.3672 43.4777C43.4367 43.4632 43.5087 43.4632 43.5783 43.4777C43.769 43.5093 43.9536 43.568 44.1259 43.6518C44.415 43.7882 44.6704 43.981 44.8755 44.2176C45.0806 44.4541 45.2307 44.7291 45.3159 45.0246L45.3434 45.129L45.2027 45.0942C45.5983 44.6442 46.1336 44.3242 46.7323 44.18C46.9755 44.1071 47.2334 44.0902 47.4848 44.1307Z" fill="#FAFAFA"/>
<path d="M38.0222 43.1895C38.0222 43.2127 37.7744 43.3201 37.4317 43.5987C36.9838 43.9626 36.6556 44.4412 36.4865 44.9772L36.4406 45.1223L36.3427 45.0004L36.2815 44.922C35.8969 44.4715 35.3408 44.1827 34.7335 44.1181C34.4786 44.1047 34.2229 44.1095 33.9688 44.1327C33.9688 44.1327 34.0361 44.0949 34.1676 44.0601C34.3559 44.018 34.5497 44.0024 34.7427 44.0137C35.065 44.0309 35.3798 44.1124 35.6665 44.253C35.9533 44.3935 36.2056 44.5898 36.4069 44.8292L36.4742 44.9133L36.3335 44.9365C36.5094 44.3723 36.8692 43.8755 37.3614 43.5174C37.5516 43.3606 37.7779 43.2483 38.0222 43.1895Z" fill="#FAFAFA"/>
<path d="M47.6159 50.9023C47.6159 50.9256 47.3651 51.0329 47.0224 51.3115C46.5749 51.6759 46.2468 52.1543 46.0771 52.6901L46.0343 52.8323L45.9364 52.7104L45.8722 52.6349C45.4889 52.1829 44.9321 51.8938 44.3242 51.831C44.0703 51.8157 43.8155 51.8206 43.5625 51.8455C43.5625 51.8455 43.6267 51.8049 43.7583 51.773C43.9464 51.7297 44.1402 51.7131 44.3334 51.7237C44.6562 51.7417 44.9714 51.8239 45.2586 51.9649C45.5458 52.1059 45.7986 52.3025 46.0007 52.5421L46.0649 52.6262L45.9242 52.6465C46.1014 52.0837 46.4611 51.5882 46.9521 51.2303C47.1432 51.0731 47.3706 50.9607 47.6159 50.9023Z" fill="#FAFAFA"/>
<path d="M39.0534 62.7402C39.0534 62.7635 38.8026 62.8708 38.4599 63.1494C38.0124 63.5137 37.6843 63.9922 37.5146 64.528L37.4718 64.6702L37.3739 64.5483L37.3127 64.4728C36.9283 64.0206 36.3705 63.7315 35.7617 63.6689C35.5078 63.6537 35.253 63.6586 35 63.6834C35 63.6834 35.0642 63.6428 35.1958 63.6109C35.3839 63.5676 35.5777 63.551 35.7709 63.5615C36.0937 63.5796 36.4089 63.6618 36.6961 63.8028C36.9833 63.9438 37.2361 64.1404 37.4382 64.3799L37.5055 64.4641L37.3617 64.4844C37.5389 63.9216 37.8986 63.4261 38.3896 63.0682C38.5807 62.911 38.8081 62.7986 39.0534 62.7402Z" fill="#FAFAFA"/>
<path d="M35.7144 59.9102C35.7144 59.9334 35.4666 60.0408 35.124 60.3194C34.6754 60.6828 34.3471 61.1615 34.1787 61.6979L34.1328 61.843L34.0349 61.7211L33.9737 61.6427C33.59 61.1912 33.0335 60.9022 32.4258 60.8388C32.1719 60.8253 31.9172 60.8302 31.6641 60.8534C31.6641 60.8534 31.7283 60.8156 31.8598 60.7808C32.0479 60.7373 32.2419 60.7216 32.435 60.7344C32.7573 60.7512 33.0722 60.8326 33.3591 60.9732C33.6459 61.1137 33.8981 61.3103 34.0992 61.5499L34.1665 61.634L34.0258 61.6572C34.202 61.0932 34.5618 60.5965 35.0536 60.2381C35.2442 60.0818 35.4704 59.9696 35.7144 59.9102Z" fill="#FAFAFA"/>
<path d="M49.3639 61.1578C49.3639 61.184 49.0794 61.1578 48.6419 61.2768C48.0704 61.4144 47.5523 61.7045 47.149 62.1126L47.042 62.2229L47.0114 62.0749L46.993 61.9791C46.8596 61.4128 46.4956 60.9194 45.9804 60.6064C45.7584 60.4868 45.5273 60.383 45.2891 60.2959C45.3601 60.2884 45.4321 60.2953 45.5001 60.3162C45.6891 60.3559 45.8706 60.4225 46.0386 60.5136C46.3189 60.6657 46.5626 60.8719 46.7539 61.1188C46.9451 61.3657 47.0797 61.6479 47.149 61.9472L47.1674 62.0517L47.0297 62.0111C47.4531 61.581 48.0087 61.2885 48.6174 61.1752C48.8616 61.1154 49.1169 61.1094 49.3639 61.1578Z" fill="#FAFAFA"/>
<path d="M42.993 66.9316C42.993 66.9578 42.7177 67.0071 42.317 67.2219C41.7951 67.4821 41.363 67.879 41.0719 68.3653L40.9954 68.4959L40.9281 68.3566L40.8883 68.2666C40.619 67.7463 40.144 67.3479 39.5668 67.158C39.3224 67.0903 39.0728 67.0408 38.8203 67.01C38.8203 67.01 38.8937 66.9839 39.0283 66.981C39.222 66.9776 39.4151 67.003 39.6004 67.0564C39.912 67.143 40.2006 67.2912 40.4474 67.4913C40.6942 67.6914 40.8935 67.9388 41.0321 68.2173L41.078 68.3131H40.9342C41.2392 67.8017 41.7072 67.3953 42.2711 67.1522C42.4902 67.0262 42.7375 66.9506 42.993 66.9316Z" fill="#FAFAFA"/>
<path d="M47.0796 64.6656C47.0796 64.6917 46.7951 64.6656 46.3576 64.7846C45.786 64.9222 45.268 65.2122 44.8647 65.6204L44.7577 65.7307L44.7271 65.5827L44.7087 65.4869C44.6433 65.2062 44.5201 64.9405 44.3464 64.705C44.1727 64.4694 43.9517 64.2687 43.6961 64.1142C43.4746 63.9956 43.2446 63.8918 43.0078 63.8037C43.0789 63.7963 43.1508 63.8032 43.2189 63.824C43.4067 63.8643 43.5871 63.9308 43.7543 64.0213C44.0355 64.1725 44.2798 64.3783 44.4712 64.6254C44.6626 64.8725 44.7967 65.1552 44.8647 65.455C44.8647 65.4927 44.88 65.5275 44.8861 65.5595L44.7485 65.5188C45.1703 65.0883 45.7251 64.7957 46.3331 64.683C46.5773 64.623 46.8326 64.6171 47.0796 64.6656Z" fill="#FAFAFA"/>
<path d="M36.7749 68.2715C36.7749 68.2976 36.4904 68.2715 36.0529 68.3905C35.4814 68.5281 34.9633 68.8181 34.56 69.2263L34.453 69.3366L34.4224 69.1857L34.404 69.0928C34.2706 68.5264 33.9066 68.033 33.3914 67.7201C33.1699 67.6015 32.9399 67.4977 32.7031 67.4096C32.773 67.4018 32.8438 67.4077 32.9111 67.427C33.0997 67.4693 33.281 67.5367 33.4496 67.6272C33.7303 67.7789 33.9742 67.985 34.1656 68.232C34.3569 68.479 34.4913 68.7614 34.56 69.0609C34.56 69.0957 34.56 69.1334 34.5815 69.1654L34.4438 69.1247C34.8656 68.6942 35.4204 68.4016 36.0285 68.2889C36.2723 68.2271 36.5281 68.2212 36.7749 68.2715Z" fill="#FAFAFA"/>
<path d="M49.1384 67.7773C49.1384 67.8006 48.8814 67.8963 48.5265 68.1575C48.0591 68.4982 47.7053 68.9598 47.5078 69.4867L47.4558 69.6289L47.364 69.5041L47.3059 69.4229C46.9455 68.9564 46.4058 68.6436 45.8039 68.5522C45.5498 68.5278 45.2943 68.52 45.0391 68.529C45.1014 68.4961 45.17 68.4753 45.241 68.4681C45.4316 68.4342 45.6264 68.4274 45.8192 68.4477C46.1403 68.4806 46.4505 68.5774 46.7294 68.732C47.0083 68.8865 47.2496 69.0953 47.4375 69.3445L47.4986 69.4316L47.3579 69.4461C47.564 68.8925 47.9495 68.415 48.4592 68.0821C48.6574 67.9315 48.89 67.8272 49.1384 67.7773Z" fill="#FAFAFA"/>
<path d="M47.8177 55.752C47.833 55.7752 47.5699 55.8855 47.2273 56.1641C46.7828 56.5251 46.4569 56.9995 46.2881 57.531L46.2453 57.6761L46.1474 57.5542L46.0831 57.4758C45.6993 57.0249 45.1426 56.7368 44.5352 56.6748C44.2816 56.6576 44.027 56.6576 43.7734 56.6748C43.7734 56.6748 43.8377 56.6371 43.9692 56.6023C44.1575 56.5602 44.3513 56.5446 44.5444 56.5558C44.867 56.5727 45.1822 56.6544 45.4691 56.7955C45.756 56.9366 46.008 57.1338 46.2085 57.3743L46.2758 57.4555L46.1351 57.4787C46.3114 56.9155 46.6712 56.4197 47.163 56.0625C47.3534 55.9129 47.5773 55.8067 47.8177 55.752Z" fill="#FAFAFA"/>
<path d="M51.6081 46.2344C51.6081 46.2576 51.3573 46.365 51.0146 46.6436C50.5671 47.0079 50.239 47.4863 50.0693 48.0221L50.0265 48.1672L49.9286 48.0453L49.8644 47.967C49.6748 47.7429 49.4405 47.5565 49.1749 47.4186C48.9092 47.2806 48.6175 47.1938 48.3164 47.1631C48.0629 47.1447 47.8082 47.1447 47.5547 47.1631C47.5547 47.1631 47.6189 47.1253 47.7505 47.0905C47.9386 47.0472 48.1324 47.0306 48.3256 47.0412C48.6484 47.0593 48.9636 47.1415 49.2508 47.2824C49.538 47.4234 49.7908 47.62 49.9929 47.8596L50.0571 47.9437L49.9164 47.967C50.0938 47.4034 50.4533 46.907 50.9443 46.5478C51.1369 46.3958 51.3642 46.2885 51.6081 46.2344Z" fill="#FAFAFA"/>
<path d="M60.7253 51.0137C60.7253 51.0369 60.4744 51.1443 60.1318 51.4229C59.6849 51.7877 59.357 52.2659 59.1865 52.8014L59.1437 52.9465L59.0458 52.8246L58.9846 52.7463C58.6002 52.2941 58.0424 52.005 57.4336 51.9424C57.1801 51.9241 56.9254 51.9241 56.6719 51.9424C56.6719 51.9424 56.7361 51.9046 56.8677 51.8698C57.0557 51.8263 57.2497 51.8106 57.4428 51.8234C57.7656 51.8402 58.081 51.9216 58.3683 52.0621C58.6556 52.2026 58.9084 52.3992 59.11 52.6389L59.1773 52.723L59.0336 52.7463C59.211 52.1827 59.5705 51.6863 60.0614 51.3271C60.2541 51.1751 60.4813 51.0678 60.7253 51.0137Z" fill="#FAFAFA"/>
<path d="M67.6315 50.1602C67.6315 50.1834 67.3807 50.2908 67.0381 50.5694C66.5914 50.9344 66.2635 51.4126 66.0928 51.9479L66.0499 52.093L65.952 51.9711L65.8909 51.8927C65.5072 51.4412 64.9506 51.1522 64.3429 51.0888C64.088 51.0754 63.8323 51.0803 63.5781 51.1034C63.5781 51.1034 63.6454 51.0627 63.777 51.0308C63.965 50.9873 64.1589 50.9707 64.3521 50.9815C64.6744 51 64.989 51.0823 65.2756 51.2233C65.5623 51.3643 65.8146 51.5607 66.0163 51.7999L66.0836 51.884L65.9398 51.9072C66.1171 51.3429 66.4779 50.8462 66.9708 50.4881C67.161 50.3313 67.3873 50.219 67.6315 50.1602Z" fill="#FAFAFA"/>
<path d="M70.7878 46.5039C70.7878 46.5271 70.54 46.6374 70.1974 46.916C69.7488 47.2794 69.4205 47.7582 69.2521 48.2945L69.2062 48.4367L69.1083 48.3148L69.0471 48.2394C68.8576 48.0153 68.6233 47.829 68.3576 47.691C68.092 47.5531 67.8003 47.4662 67.4992 47.4355C67.2446 47.4183 66.989 47.4183 66.7344 47.4355C66.7344 47.4355 66.8017 47.3978 66.9332 47.3629C67.1215 47.3209 67.3153 47.3052 67.5083 47.3165C67.8309 47.3337 68.146 47.4156 68.4328 47.5566C68.7197 47.6977 68.9718 47.8948 69.1725 48.1349L69.2398 48.2191L69.0991 48.2394C69.2742 47.6756 69.6343 47.1795 70.127 46.8231C70.3189 46.6705 70.5448 46.5613 70.7878 46.5039Z" fill="#FAFAFA"/>
<path d="M54.7919 50.9805C54.7919 51.0037 54.5258 51.0762 54.1434 51.3084C53.6465 51.608 53.2514 52.0373 53.0054 52.5447L52.9381 52.6811L52.8616 52.5476L52.8096 52.4635C52.6549 52.2167 52.4504 52.0012 52.2079 51.8294C51.9654 51.6576 51.6896 51.5329 51.3962 51.4622C51.1472 51.4137 50.8946 51.3836 50.6406 51.3723C50.6406 51.3723 50.711 51.3432 50.8456 51.3287C51.0377 51.31 51.2318 51.3198 51.4207 51.3577C51.7379 51.4174 52.0381 51.54 52.3017 51.7176C52.5654 51.8951 52.7864 52.1236 52.9503 52.388L53.0023 52.4809H52.8585C53.1156 51.9473 53.5439 51.5044 54.0822 51.2155C54.2953 51.084 54.5388 51.0034 54.7919 50.9805Z" fill="#FAFAFA"/>
<path d="M63.0888 54.707C63.0888 54.7332 62.8227 54.8028 62.4433 55.035C61.9454 55.3342 61.5491 55.7635 61.3022 56.2713L61.238 56.4077L61.1585 56.2742L61.1095 56.19C60.7951 55.6921 60.286 55.3322 59.6931 55.1888C59.4438 55.1419 59.1913 55.1118 58.9375 55.0988C58.9375 55.0988 59.0079 55.0698 59.1425 55.0553C59.3357 55.0381 59.5305 55.0479 59.7206 55.0843C60.0377 55.1441 60.3379 55.2668 60.6015 55.4444C60.8651 55.6219 61.0862 55.8503 61.2502 56.1146L61.3022 56.2074H61.1585C61.4165 55.6744 61.8445 55.2318 62.3821 54.9421C62.5952 54.8126 62.8372 54.7321 63.0888 54.707Z" fill="#FAFAFA"/>
<path d="M60.333 53.0591C59.8555 52.1489 59.7753 51.0968 60.1097 50.1309C60.1586 50.1309 60.0087 50.7925 60.076 51.6052C60.1433 52.4178 60.3789 53.0446 60.333 53.0591Z" fill="#263238"/>
<g opacity="0.3">
<path opacity="0.3" d="M32.9605 58.4284C33.6411 57.6791 34.0562 56.7459 34.1473 55.7606C34.2385 54.7753 34.0009 53.7878 33.4683 52.9375C33.4867 53.0449 32.5781 55.8948 32.5781 55.8948L32.8106 58.3326" fill="black"/>
</g>
<path d="M37.1986 57.8655L36.5012 54.5948C36.4879 54.5335 36.4893 54.4701 36.5052 54.4093C36.5212 54.3485 36.5512 54.2919 36.5931 54.2435C36.635 54.1951 36.6878 54.1562 36.7475 54.1296C36.8073 54.103 36.8726 54.0895 36.9386 54.0899L45.8622 54.1276C45.9246 54.128 45.9862 54.1409 46.043 54.1654C46.0998 54.1899 46.1505 54.2255 46.1917 54.2699C46.233 54.3143 46.264 54.3664 46.2826 54.4229C46.3012 54.4794 46.307 54.539 46.2997 54.5977L45.382 62.0911C45.3653 62.2337 45.2936 62.3654 45.1806 62.4608C45.0676 62.5562 44.9214 62.6085 44.7701 62.6077L38.9577 62.5641C38.8216 62.5634 38.6896 62.5196 38.5827 62.4397C38.4757 62.3598 38.3999 62.2484 38.3673 62.123L37.1986 57.8655Z" fill="#455A64"/>
<path d="M36.4062 56.1426C36.5971 56.1432 36.7831 56.1991 36.9395 56.3029C37.0959 56.4066 37.2151 56.5532 37.2812 56.723C37.428 57.0829 37.6422 57.5066 37.893 57.6285C38.3305 57.8548 39.0861 58.0377 39.4838 57.8519C39.8815 57.6662 41.4784 56.3051 41.7568 56.456C42.0351 56.6069 42.2738 56.9494 41.9954 57.2512C41.717 57.553 40.2425 58.4614 40.5208 58.7632C40.7992 59.065 43.9074 57.733 44.3846 57.8519C44.8618 57.9709 45.1433 58.2466 44.8618 58.4324C44.5804 58.6181 42.4726 59.3698 42.3533 59.6339C42.3533 59.6339 45.541 58.8416 45.6603 59.0302C45.7796 59.2189 45.9662 59.5207 45.6603 59.6339C45.3544 59.747 42.6011 60.429 42.3533 60.5422C41.9599 60.698 41.5495 60.8119 41.1296 60.8818C40.6956 60.9894 40.2678 61.1183 39.8478 61.2678C39.2026 61.4798 38.4981 61.4622 37.8655 61.2184L37.5596 61.0936C37.314 60.9996 37.1059 60.8347 36.9648 60.6221C36.8237 60.4096 36.7567 60.1603 36.7734 59.9096L36.8376 58.8793L36.4888 58.029L36.4062 56.1426Z" fill="#B78876"/>
<path d="M41.7586 55.349C41.7586 55.4099 41.7396 55.4694 41.7039 55.5201C41.6682 55.5707 41.6175 55.6102 41.5582 55.6335C41.4989 55.6568 41.4336 55.6629 41.3707 55.651C41.3077 55.6391 41.2498 55.6098 41.2045 55.5667C41.1591 55.5237 41.1281 55.4688 41.1156 55.409C41.1031 55.3493 41.1095 55.2874 41.1341 55.2311C41.1587 55.1748 41.2003 55.1268 41.2536 55.0929C41.307 55.0591 41.3698 55.041 41.434 55.041C41.5201 55.041 41.6026 55.0735 41.6635 55.1312C41.7244 55.189 41.7586 55.2673 41.7586 55.349Z" fill="#FAFAFA"/>
<path d="M94.2656 112.54C96.8262 113.387 100.167 112.63 102.357 111.112C104.548 109.594 106.126 107.421 107.524 105.212C108.121 104.272 108.702 103.291 108.892 102.205C109.081 101.12 108.803 99.904 107.916 99.1958C106.539 98.0988 104.428 98.656 102.865 99.5006C100.424 100.85 98.3664 102.741 96.8683 105.013C95.3702 107.285 94.477 109.868 94.2656 112.54Z" fill="#74A669"/>
<path d="M97.0156 118.355C98.5452 120.28 101.194 121.139 103.746 121.258C106.297 121.377 108.803 120.703 111.18 119.836C112.042 119.522 112.988 119.093 113.281 118.263C113.376 117.942 113.384 117.604 113.306 117.28C113.227 116.955 113.064 116.655 112.832 116.405C112.361 115.91 111.773 115.529 111.115 115.294C108.775 114.351 106.095 114.304 103.633 114.911C101.17 115.517 99.0194 116.87 97.0217 118.364" fill="#74A669"/>
<path d="M94.2329 102.13C96.353 102.171 97.959 100.409 98.9196 98.6158C100.251 96.1066 100.694 93.2569 100.183 90.4898C99.9873 89.4624 99.5712 88.3538 98.6076 87.8576C97.6439 87.3613 96.3407 87.6863 95.5147 88.4032C94.6888 89.12 94.236 90.1445 93.9056 91.1544C92.7676 94.637 93.0123 98.6623 94.2329 102.13Z" fill="#74A669"/>
<path d="M87.2829 113.254C90.8958 107.415 91.4984 100.275 89.3631 93.8093C89.0174 92.7617 88.3658 91.5602 87.2217 91.4876C85.943 91.4093 85.1415 92.7617 84.7744 93.9312C83.5354 98.0349 83.7985 102.391 84.0738 106.648C84.2421 109.26 85.1904 111.515 87.2829 113.242" fill="#74A669"/>
<path d="M83.5088 115.658C82.8364 113.658 81.6993 111.827 80.1813 110.299C78.6633 108.772 76.8032 107.587 74.7381 106.833C73.7775 106.49 72.56 106.293 71.8411 106.99C71.1222 107.686 71.3577 108.818 71.8074 109.671C72.5355 111.05 73.7164 112.155 74.8941 113.221C75.9649 114.187 77.0784 115.156 78.4306 115.719C79.7827 116.282 82.2729 116.424 83.5119 115.658" fill="#74A669"/>
<path d="M105.918 100.662C105.918 100.662 105.9 100.682 105.857 100.714L105.661 100.857L104.903 101.396L104.355 101.779C104.156 101.925 103.951 102.093 103.725 102.267C103.275 102.621 102.749 103.004 102.217 103.483L101.351 104.22C101.045 104.476 100.773 104.766 100.467 105.053C99.8549 105.633 99.2431 106.284 98.5915 106.968C95.8386 109.996 93.6083 113.419 91.9837 117.109C91.6288 117.979 91.2739 118.772 91.017 119.555C90.8824 119.944 90.7355 120.313 90.6254 120.678C90.5153 121.044 90.4143 121.395 90.3195 121.729C90.1053 122.396 89.983 123.017 89.8483 123.554C89.7841 123.824 89.7199 124.074 89.6709 124.306C89.622 124.538 89.5883 124.753 89.5547 124.944C89.4813 125.319 89.4262 125.615 89.3864 125.83C89.365 125.922 89.3497 125.998 89.3375 126.059C89.3333 126.085 89.3261 126.11 89.3161 126.134C89.3113 126.108 89.3113 126.082 89.3161 126.056C89.3161 125.995 89.3375 125.917 89.3497 125.824C89.3803 125.609 89.4262 125.31 89.4843 124.936C89.5149 124.741 89.5516 124.526 89.5883 124.291C89.625 124.056 89.6923 123.807 89.7505 123.537C89.8789 122.994 89.9921 122.376 90.2002 121.7C90.298 121.363 90.399 121.009 90.5061 120.643C90.6131 120.278 90.7569 119.903 90.8885 119.512C91.1424 118.725 91.5003 117.912 91.846 117.051C93.459 113.336 95.7025 109.897 98.4875 106.87C99.1391 106.185 99.7479 105.523 100.378 104.957C100.684 104.667 100.975 104.377 101.274 104.127L102.134 103.399C102.675 102.923 103.211 102.546 103.664 102.197C103.893 102.026 104.104 101.861 104.306 101.718L104.866 101.344L105.643 100.83L105.848 100.7L105.918 100.662Z" fill="#263238"/>
<path d="M110.71 116.842C110.627 116.835 110.544 116.822 110.463 116.801C110.3 116.775 110.068 116.714 109.759 116.667C108.895 116.511 108.021 116.409 107.143 116.363C104.237 116.194 101.329 116.658 98.6409 117.718C95.9527 118.779 93.5558 120.409 91.6333 122.483C91.0503 123.108 90.5107 123.768 90.018 124.46C89.8375 124.701 89.7121 124.901 89.6234 125.04C89.5811 125.109 89.532 125.174 89.4766 125.235C89.5088 125.161 89.5477 125.09 89.5928 125.023C89.6785 124.889 89.7886 124.683 89.963 124.442C90.4355 123.733 90.9643 123.059 91.5446 122.425C93.4577 120.314 95.8654 118.658 98.5747 117.589C101.284 116.519 104.22 116.067 107.146 116.267C108.028 116.323 108.905 116.441 109.768 116.621C110.074 116.679 110.31 116.749 110.469 116.786C110.551 116.798 110.632 116.816 110.71 116.842Z" fill="#263238"/>
<path d="M97.359 90.1875C97.3575 90.2189 97.3524 90.25 97.3437 90.2804C97.3437 90.3471 97.31 90.4342 97.2886 90.5416C97.2305 90.7824 97.1509 91.122 97.05 91.5457C96.842 92.4164 96.5238 93.6759 96.1322 95.2285C95.3338 98.3367 94.1774 102.614 92.9721 107.357C92.3603 109.728 91.831 112 91.363 114.061C90.8949 116.121 90.5125 117.996 90.2219 119.575C90.0659 120.361 89.9496 121.075 89.8364 121.702C89.7232 122.329 89.6345 122.863 89.5672 123.31L89.402 124.325C89.3806 124.436 89.3653 124.523 89.3531 124.59C89.3493 124.62 89.3422 124.65 89.3317 124.68C89.3269 124.649 89.3269 124.617 89.3317 124.587C89.3317 124.52 89.35 124.43 89.3623 124.323C89.3959 124.076 89.4418 123.742 89.4999 123.301C89.558 122.86 89.6345 122.314 89.7385 121.687C89.8426 121.061 89.9527 120.344 90.0995 119.554C90.3748 117.978 90.7542 116.107 91.2069 114.04C91.6597 111.974 92.2042 109.702 92.8038 107.328C94.0092 102.585 95.1839 98.3106 96.0099 95.2111C96.4228 93.6701 96.7532 92.4193 96.9888 91.5399C97.102 91.1162 97.1938 90.7824 97.258 90.5416C97.2886 90.4371 97.3131 90.35 97.3314 90.2833C97.337 90.2505 97.3462 90.2184 97.359 90.1875Z" fill="#263238"/>
<path d="M89.0525 124.205C89.0441 124.182 89.0369 124.159 89.0311 124.135L88.979 123.923C88.9362 123.726 88.8781 123.453 88.8016 123.111C88.6487 122.406 88.4467 121.37 88.2142 120.11C87.7523 117.571 87.2017 114.045 86.8621 110.124C86.7 108.162 86.6082 106.287 86.5562 104.584C86.5042 102.88 86.5409 101.342 86.599 100.053C86.6143 99.409 86.6602 98.8285 86.6877 98.312C86.7153 97.7954 86.755 97.363 86.7887 97.0031C86.8223 96.6432 86.8499 96.3791 86.8713 96.176C86.8713 96.0918 86.8896 96.0193 86.8957 95.9612C86.8917 95.9372 86.8917 95.9127 86.8957 95.8887C86.8989 95.9137 86.8989 95.9391 86.8957 95.9641C86.8957 96.0222 86.8957 96.0918 86.8957 96.1789C86.8957 96.382 86.8682 96.6577 86.8468 97.0089C86.8254 97.3601 86.7948 97.807 86.7764 98.3178C86.7581 98.8285 86.7183 99.4119 86.7091 100.059C86.6694 101.348 86.6663 102.88 86.7091 104.584C86.752 106.287 86.856 108.153 87.0151 110.112C87.3516 114.027 87.8839 117.553 88.3152 120.095C88.5324 121.367 88.716 122.394 88.8506 123.102C88.9117 123.447 88.9607 123.72 88.9943 123.921C89.0096 124.008 89.0219 124.077 89.0311 124.135C89.0426 124.157 89.0499 124.181 89.0525 124.205Z" fill="#263238"/>
<path d="M89.3297 124.947C89.291 124.882 89.2592 124.814 89.2349 124.743L88.9963 124.163L88.828 123.739L88.5955 123.246C88.5129 123.066 88.4242 122.877 88.3294 122.665C88.2345 122.454 88.1152 122.262 88.002 122.044L87.6319 121.38L87.1914 120.66C86.9007 120.158 86.5275 119.659 86.1635 119.113C85.3235 117.964 84.4145 116.861 83.4408 115.811C82.4532 114.772 81.4107 113.783 80.3174 112.845C79.7973 112.43 79.3201 112.015 78.8398 111.663L78.1576 111.147L77.4968 110.685C77.0869 110.395 76.7014 110.143 76.3619 109.928C76.0223 109.713 75.7317 109.522 75.4869 109.382L74.924 109.046C74.8582 109.007 74.7949 108.964 74.7344 108.918C74.8075 108.943 74.8773 108.976 74.9424 109.017L75.5206 109.327C75.7714 109.461 76.0712 109.638 76.4139 109.852C76.7565 110.067 77.1511 110.302 77.5672 110.593L78.2249 111.039L78.9193 111.55C79.4057 111.896 79.886 112.311 80.4122 112.726C81.5175 113.66 82.5683 114.651 83.5601 115.694C84.5368 116.751 85.447 117.862 86.2858 119.02C86.6468 119.572 87.017 120.077 87.3045 120.585L87.739 121.31C87.8644 121.551 87.9837 121.78 88.0999 121.998C88.2162 122.216 88.3294 122.425 88.4059 122.628C88.4823 122.831 88.5802 123.022 88.6628 123.208C88.7454 123.394 88.8127 123.553 88.88 123.71L89.0391 124.14C89.1248 124.389 89.1921 124.587 89.2471 124.74C89.2825 124.806 89.3102 124.875 89.3297 124.947Z" fill="#263238"/>
<path d="M104.586 107.428C104.586 107.454 104.149 107.454 103.445 107.492C102.529 107.541 101.618 107.646 100.716 107.806C99.815 107.97 98.9259 108.19 98.0548 108.464C97.3848 108.673 96.9779 108.824 96.9688 108.801C97.0525 108.743 97.1441 108.696 97.241 108.662C97.4185 108.58 97.6846 108.476 98.015 108.357C98.8813 108.049 99.7738 107.811 100.683 107.646C101.591 107.482 102.512 107.393 103.436 107.379C103.791 107.379 104.078 107.379 104.277 107.393C104.381 107.392 104.485 107.404 104.586 107.428Z" fill="#263238"/>
<path d="M107.311 120.069C107.259 120.093 106.849 118.975 105.821 117.939C105.184 117.329 104.464 116.803 103.68 116.375C103.942 116.439 104.191 116.542 104.417 116.683C105.55 117.303 106.461 118.232 107.029 119.35C107.163 119.574 107.258 119.817 107.311 120.069Z" fill="#263238"/>
<path d="M98.0025 94.9277C98.0362 94.9626 97.3693 95.5894 96.6442 96.4368C95.9192 97.2843 95.4022 98.0272 95.3594 98.0011C96.0074 96.8146 96.9073 95.7682 98.0025 94.9277Z" fill="#263238"/>
<path d="M95.8207 91.3477C96.0937 92.2381 96.2579 93.1554 96.3101 94.0815C96.1462 93.644 96.0354 93.1903 95.9797 92.7291C95.8689 92.2763 95.8155 91.8125 95.8207 91.3477Z" fill="#263238"/>
<path d="M89.0637 102.576C88.7634 103.303 88.4097 104.009 88.0052 104.689C87.6514 105.391 87.2477 106.07 86.7969 106.72C87.4528 105.29 88.2102 103.904 89.0637 102.57V102.576Z" fill="#263238"/>
<path d="M85.0312 98.7656C85.3791 99.2471 85.6791 99.7582 85.9276 100.292C86.2273 100.803 86.4772 101.34 86.674 101.894C86.0248 100.902 85.4748 99.8548 85.0312 98.7656Z" fill="#263238"/>
<path d="M79.1191 111.801C79.1191 111.847 78.391 111.717 77.4977 111.656C76.6045 111.595 75.8702 111.63 75.8672 111.583C76.4038 111.461 76.9593 111.432 77.5069 111.496C78.0592 111.506 78.6052 111.609 79.1191 111.801Z" fill="#263238"/>
<path d="M83.1562 123.33L85.1692 133.372C85.2334 133.693 85.414 133.984 85.6799 134.192C85.9458 134.401 86.2802 134.515 86.6254 134.515H92.5724C92.9235 134.515 93.2632 134.397 93.5311 134.182C93.7989 133.967 93.9774 133.668 94.0347 133.34L95.7845 123.33H83.1562Z" fill="#263238"/>
<path d="M83.8109 126.592H95.1819L95.7845 123.33H83.1562L83.8109 126.592Z" fill="#455A64"/>
<path d="M83.8125 126.594L84.0511 127.784H95.0091L95.1835 126.594H83.8125Z" fill="#FAFAFA"/>
<path d="M213.218 91.1582H190.094V134.58H213.218V91.1582Z" fill="#263238"/>
<path d="M213.219 91.1582H160.133V94.8526H213.219V91.1582Z" fill="#455A64"/>
<path d="M182.859 91.1582H159.734V134.58H182.859V91.1582Z" fill="#263238"/>
</svg>
