<svg xmlns="http://www.w3.org/2000/svg" width="15.273" height="21.5" viewBox="0 0 15.273 21.5">
  <g id="_1814106_location_map_marker_icon" data-name="1814106_location_map_marker_icon" transform="translate(-15.2 -8.4)">
    <g id="Icon-Location" transform="translate(15.2 8.4)">
      <path id="Fill-55" d="M-209.164-346.1l-.409-.5c-.273-.364-7.227-8.5-7.227-13.364a7.653,7.653,0,0,1,7.636-7.636,7.682,7.682,0,0,1,7.636,7.636c0,4.864-6.955,13.045-7.227,13.364l-.409.5Zm0-20.455a6.547,6.547,0,0,0-6.545,6.545c0,3.818,5.045,10.318,6.545,12.182,1.5-1.864,6.545-8.318,6.545-12.182a6.547,6.547,0,0,0-6.545-6.545Z" transform="translate(216.8 367.6)" fill="#fff"/>
      <path id="Fill-56" d="M-203.491-351.382a2.929,2.929,0,0,1-2.909-2.909,2.929,2.929,0,0,1,2.909-2.909,2.929,2.929,0,0,1,2.909,2.909,2.929,2.929,0,0,1-2.909,2.909Zm0-4.727a1.824,1.824,0,0,0-1.818,1.818,1.824,1.824,0,0,0,1.818,1.818,1.824,1.824,0,0,0,1.818-1.818,1.824,1.824,0,0,0-1.818-1.818Z" transform="translate(211.127 361.927)" fill="#fff"/>
    </g>
  </g>
</svg>
