<svg width="673" height="752" viewBox="0 0 673 752" fill="none" xmlns="http://www.w3.org/2000/svg">
<path d="M0 596.792L84.1291 596.367L168.258 596.207L336.5 595.906L504.742 596.207L588.871 596.367L673 596.792L588.871 597.235L504.742 597.395L336.5 597.679L168.258 597.395L84.1291 597.235L0 596.792Z" fill="#263238"/>
<path d="M336.498 751.031C470.564 751.031 579.245 734.295 579.245 713.65C579.245 693.006 470.564 676.27 336.498 676.27C202.433 676.27 93.752 693.006 93.752 713.65C93.752 734.295 202.433 751.031 336.498 751.031Z" fill="#EBEBEB"/>
<path d="M370.047 473.923H312.219V479.083H370.047V473.923Z" fill="#37474F"/>
<path d="M370.047 480.626H312.219V485.786H370.047V480.626Z" fill="#37474F"/>
<path d="M370.047 487.347H312.219V492.507H370.047V487.347Z" fill="#37474F"/>
<path d="M370.047 494.067H312.219V499.227H370.047V494.067Z" fill="#37474F"/>
<path d="M370.047 500.788H312.219V505.948H370.047V500.788Z" fill="#37474F"/>
<path d="M395.092 634.828H285.135V639.989H395.092V634.828Z" fill="#37474F"/>
<path d="M395.092 641.549H285.135V646.709H395.092V641.549Z" fill="#37474F"/>
<path d="M395.092 648.27H285.135V653.43H395.092V648.27Z" fill="#37474F"/>
<path d="M395.092 654.991H285.135V660.151H395.092V654.991Z" fill="#37474F"/>
<path d="M395.092 661.711H285.135V666.872H395.092V661.711Z" fill="#37474F"/>
<path d="M236.881 431.276C236.881 430.584 212.828 421.771 212.828 421.771L214.245 331.547L246.229 324.064L236.881 431.276Z" fill="#F4A047"/>
<path opacity="0.2" d="M236.881 431.276C236.881 430.584 212.828 421.771 212.828 421.771L214.245 331.547L246.229 324.064L236.881 431.276Z" fill="black"/>
<path d="M457.805 466.688C457.968 466.014 483.405 466.794 483.405 466.794L510.585 381.535L482.9 362.544L457.805 466.688Z" fill="#F4A047"/>
<path opacity="0.2" d="M457.805 466.688C457.968 466.014 483.405 466.794 483.405 466.794L510.585 381.535L482.9 362.544L457.805 466.688Z" fill="black"/>
<path d="M232.277 464.507C232.277 464.507 241.218 318.567 249.067 270.547C249.067 270.547 410.974 283.882 498.377 320.198C498.377 320.198 453.316 490.645 450.987 499.103C450.954 499.174 336.942 474.721 232.277 464.507Z" fill="#F4A047"/>
<path opacity="0.1" d="M376.757 290.035C374.13 307.602 371.448 325.17 368.712 342.737L360.358 395.349L359.918 394.622L414.164 408.578L441.263 415.671L468.312 422.959L441.116 416.327L413.936 409.571L359.642 395.757L359.088 395.615L359.186 395.013L367.833 342.435C370.732 325.057 373.707 307.591 376.757 290.035Z" fill="black"/>
<path opacity="0.1" d="M370.812 300.054C370.795 300.905 370.497 301.72 369.974 302.351C369.451 302.983 368.737 303.388 367.962 303.494C367.534 303.53 367.103 303.474 366.695 303.327C366.287 303.181 365.91 302.949 365.585 302.643C365.251 302.316 364.984 301.917 364.799 301.471C364.614 301.026 364.515 300.543 364.51 300.054C364.515 299.565 364.614 299.083 364.799 298.638C364.984 298.192 365.251 297.793 365.585 297.465C366.042 297.034 366.603 296.755 367.201 296.661C367.8 296.567 368.41 296.662 368.961 296.934C369.511 297.207 369.978 297.646 370.306 298.199C370.635 298.752 370.81 299.396 370.812 300.054V300.054ZM370.812 300.054C370.808 299.654 370.726 299.258 370.572 298.895C370.417 298.531 370.194 298.207 369.916 297.944C369.545 297.599 369.09 297.377 368.606 297.305C368.123 297.233 367.63 297.313 367.186 297.536C366.743 297.758 366.368 298.115 366.104 298.563C365.841 299.011 365.701 299.531 365.701 300.063C365.701 300.595 365.841 301.116 366.104 301.563C366.368 302.011 366.743 302.368 367.186 302.591C367.63 302.814 368.123 302.894 368.606 302.821C369.09 302.749 369.545 302.527 369.916 302.182C370.193 301.914 370.415 301.587 370.57 301.221C370.724 300.854 370.806 300.457 370.812 300.054V300.054Z" fill="black"/>
<path opacity="0.1" d="M367.964 321.776C367.968 322.629 367.679 323.452 367.155 324.085C366.631 324.718 365.909 325.115 365.13 325.199C364.692 325.249 364.249 325.197 363.83 325.048C363.411 324.898 363.026 324.654 362.7 324.33C362.374 324.007 362.114 323.613 361.938 323.172C361.762 322.732 361.673 322.257 361.678 321.776C361.675 321.288 361.768 320.804 361.951 320.358C362.134 319.911 362.401 319.512 362.736 319.187C363.064 318.88 363.444 318.646 363.855 318.5C364.266 318.354 364.699 318.298 365.13 318.336C365.902 318.446 366.613 318.854 367.132 319.485C367.652 320.116 367.947 320.929 367.964 321.776V321.776ZM367.964 321.776C367.962 321.373 367.882 320.974 367.727 320.607C367.573 320.24 367.348 319.913 367.068 319.649C366.802 319.404 366.493 319.221 366.16 319.112C365.827 319.002 365.476 318.967 365.13 319.01C364.506 319.087 363.93 319.412 363.511 319.922C363.093 320.432 362.862 321.092 362.862 321.776C362.862 322.46 363.093 323.121 363.511 323.631C363.93 324.141 364.506 324.466 365.13 324.543C365.488 324.588 365.85 324.55 366.193 324.431C366.536 324.313 366.852 324.116 367.119 323.855C367.387 323.593 367.601 323.273 367.747 322.914C367.892 322.556 367.966 322.168 367.964 321.776V321.776Z" fill="black"/>
<path opacity="0.1" d="M364.46 344.741C364.464 345.593 364.176 346.416 363.651 347.049C363.127 347.682 362.405 348.079 361.626 348.163C360.979 348.178 360.343 347.982 359.798 347.601C359.253 347.221 358.825 346.672 358.568 346.025C358.311 345.378 358.237 344.662 358.356 343.969C358.474 343.276 358.779 342.637 359.233 342.134C359.561 341.829 359.942 341.599 360.353 341.456C360.764 341.312 361.197 341.26 361.626 341.3C362.407 341.388 363.129 341.789 363.653 342.425C364.176 343.061 364.464 343.886 364.46 344.741V344.741ZM364.46 344.741C364.458 344.337 364.378 343.938 364.223 343.571C364.069 343.204 363.844 342.878 363.564 342.613C363.298 342.368 362.989 342.185 362.656 342.076C362.323 341.966 361.972 341.931 361.626 341.974C361.002 342.051 360.426 342.376 360.008 342.886C359.589 343.396 359.358 344.057 359.358 344.741C359.358 345.425 359.589 346.085 360.008 346.595C360.426 347.105 361.002 347.43 361.626 347.507C361.973 347.542 362.323 347.502 362.656 347.39C362.988 347.277 363.297 347.094 363.564 346.851C363.845 346.591 364.071 346.267 364.226 345.903C364.38 345.539 364.46 345.142 364.46 344.741V344.741Z" fill="black"/>
<path opacity="0.1" d="M360.927 367.668C360.927 368.52 360.637 369.34 360.114 369.973C359.59 370.605 358.87 371.003 358.093 371.091C357.66 371.125 357.225 371.061 356.816 370.904C356.407 370.747 356.032 370.5 355.714 370.178C355.396 369.856 355.143 369.466 354.97 369.033C354.796 368.6 354.707 368.132 354.707 367.66C354.707 367.187 354.796 366.72 354.97 366.286C355.143 365.853 355.396 365.463 355.714 365.141C356.032 364.819 356.407 364.572 356.816 364.415C357.225 364.258 357.66 364.194 358.093 364.228C358.873 364.316 359.596 364.717 360.119 365.353C360.643 365.989 360.931 366.814 360.927 367.668V367.668ZM360.927 367.668C360.925 367.265 360.844 366.866 360.69 366.499C360.535 366.132 360.311 365.805 360.031 365.541C359.765 365.296 359.456 365.113 359.122 365.004C358.789 364.894 358.439 364.859 358.093 364.902C357.469 364.979 356.892 365.304 356.474 365.814C356.056 366.324 355.824 366.984 355.824 367.668C355.824 368.353 356.056 369.013 356.474 369.523C356.892 370.033 357.469 370.358 358.093 370.435C358.44 370.47 358.79 370.43 359.122 370.318C359.455 370.205 359.764 370.022 360.031 369.779C360.309 369.516 360.532 369.192 360.686 368.828C360.841 368.464 360.923 368.069 360.927 367.668V367.668Z" fill="black"/>
<path opacity="0.1" d="M372.893 404.251C372.893 404.946 372.7 405.625 372.339 406.198C371.978 406.771 371.467 407.212 370.871 407.462C370.276 407.712 369.625 407.76 369.004 407.6C368.383 407.439 367.822 407.078 367.393 406.563C366.964 406.049 366.689 405.405 366.603 404.716C366.517 404.028 366.625 403.327 366.911 402.706C367.198 402.086 367.651 401.574 368.21 401.239C368.769 400.904 369.408 400.761 370.043 400.829C370.823 400.913 371.547 401.309 372.074 401.942C372.601 402.574 372.893 403.397 372.893 404.251V404.251ZM372.893 404.251C372.887 403.848 372.805 403.451 372.65 403.085C372.496 402.719 372.274 402.391 371.997 402.123C371.727 401.881 371.415 401.7 371.079 401.59C370.743 401.481 370.391 401.445 370.043 401.485C369.648 401.537 369.269 401.689 368.938 401.929C368.606 402.169 368.33 402.489 368.132 402.866C367.935 403.242 367.82 403.663 367.798 404.096C367.777 404.529 367.848 404.961 368.007 405.359C368.165 405.756 368.407 406.108 368.713 406.386C369.018 406.664 369.379 406.86 369.767 406.959C370.154 407.058 370.558 407.057 370.945 406.957C371.332 406.856 371.692 406.658 371.997 406.379C372.274 406.111 372.496 405.784 372.65 405.418C372.805 405.051 372.887 404.654 372.893 404.251V404.251Z" fill="black"/>
<path opacity="0.1" d="M392.781 409.535C392.779 410.194 392.604 410.838 392.275 411.391C391.947 411.944 391.48 412.383 390.93 412.655C390.379 412.928 389.769 413.023 389.17 412.929C388.572 412.835 388.011 412.555 387.554 412.124C387.215 411.802 386.943 411.403 386.757 410.957C386.571 410.51 386.475 410.026 386.475 409.535C386.475 409.045 386.571 408.56 386.757 408.114C386.943 407.667 387.215 407.269 387.554 406.946C387.88 406.644 388.258 406.415 388.666 406.272C389.074 406.129 389.504 406.075 389.931 406.113C390.713 406.193 391.439 406.588 391.966 407.222C392.494 407.855 392.784 408.68 392.781 409.535ZM392.781 409.535C392.779 409.132 392.699 408.733 392.544 408.366C392.39 407.999 392.165 407.672 391.885 407.408C391.615 407.165 391.303 406.984 390.967 406.874C390.632 406.765 390.279 406.729 389.931 406.769C389.536 406.821 389.157 406.973 388.826 407.213C388.494 407.453 388.218 407.774 388.021 408.15C387.823 408.526 387.708 408.947 387.687 409.38C387.665 409.813 387.736 410.245 387.895 410.643C388.054 411.04 388.295 411.392 388.601 411.67C388.906 411.948 389.267 412.144 389.655 412.243C390.043 412.342 390.446 412.341 390.833 412.241C391.22 412.14 391.581 411.942 391.885 411.663C392.165 411.398 392.39 411.072 392.544 410.705C392.699 410.338 392.779 409.939 392.781 409.535Z" fill="black"/>
<path opacity="0.1" d="M412.663 414.82C412.665 415.478 412.493 416.123 412.167 416.678C411.841 417.232 411.375 417.672 410.825 417.946C410.275 418.219 409.664 418.314 409.066 418.219C408.467 418.123 407.907 417.842 407.452 417.409C407.118 417.082 406.851 416.682 406.666 416.237C406.481 415.791 406.383 415.309 406.377 414.82C406.374 414.331 406.468 413.848 406.65 413.401C406.833 412.955 407.1 412.556 407.436 412.231C407.764 411.926 408.145 411.696 408.556 411.553C408.967 411.41 409.4 411.357 409.829 411.398C410.608 411.482 411.33 411.879 411.854 412.512C412.379 413.145 412.667 413.968 412.663 414.82V414.82ZM412.663 414.82C412.664 414.418 412.587 414.019 412.435 413.652C412.283 413.285 412.061 412.958 411.784 412.692C411.501 412.457 411.179 412.286 410.835 412.189C410.491 412.091 410.132 412.069 409.781 412.125C409.156 412.202 408.58 412.526 408.162 413.037C407.743 413.547 407.512 414.207 407.512 414.891C407.512 415.575 407.743 416.235 408.162 416.745C408.58 417.256 409.156 417.58 409.781 417.657C410.129 417.697 410.481 417.66 410.816 417.551C411.152 417.441 411.464 417.26 411.735 417.019C412.03 416.75 412.266 416.414 412.427 416.033C412.587 415.653 412.668 415.239 412.663 414.82Z" fill="black"/>
<path opacity="0.1" d="M432.58 420.105C432.578 420.763 432.402 421.407 432.074 421.96C431.746 422.513 431.279 422.952 430.728 423.225C430.178 423.497 429.567 423.592 428.969 423.498C428.37 423.404 427.809 423.125 427.352 422.694C427.019 422.366 426.751 421.967 426.566 421.521C426.381 421.076 426.283 420.594 426.277 420.105C426.283 419.616 426.381 419.133 426.566 418.688C426.751 418.242 427.019 417.843 427.352 417.516C427.677 417.21 428.055 416.978 428.463 416.831C428.871 416.685 429.302 416.629 429.73 416.664C430.505 416.771 431.219 417.176 431.742 417.808C432.265 418.439 432.562 419.254 432.58 420.105ZM432.58 420.105C432.574 419.702 432.491 419.305 432.337 418.938C432.183 418.572 431.961 418.244 431.684 417.977C431.379 417.698 431.019 417.5 430.632 417.399C430.245 417.299 429.841 417.298 429.454 417.397C429.066 417.496 428.705 417.692 428.4 417.97C428.094 418.248 427.852 418.6 427.693 418.997C427.535 419.395 427.463 419.827 427.485 420.26C427.507 420.693 427.621 421.114 427.819 421.49C428.017 421.866 428.293 422.187 428.624 422.427C428.956 422.667 429.335 422.819 429.73 422.871C430.078 422.911 430.43 422.875 430.766 422.766C431.101 422.656 431.414 422.475 431.684 422.233C431.961 421.965 432.183 421.637 432.337 421.271C432.491 420.905 432.574 420.508 432.58 420.105V420.105Z" fill="black"/>
<path opacity="0.1" d="M452.448 425.619C452.367 426.461 452.013 427.244 451.448 427.826C450.884 428.408 450.147 428.751 449.37 428.793C448.939 428.798 448.511 428.71 448.111 428.533C447.711 428.357 447.348 428.096 447.041 427.765C446.73 427.412 446.49 426.992 446.338 426.532C446.187 426.071 446.127 425.581 446.162 425.093C446.198 424.605 446.328 424.131 446.544 423.702C446.76 423.273 447.057 422.899 447.416 422.605C447.758 422.322 448.151 422.12 448.568 422.01C448.985 421.9 449.419 421.885 449.842 421.966C450.606 422.135 451.289 422.596 451.767 423.267C452.245 423.937 452.487 424.771 452.448 425.619ZM452.448 425.619C452.472 425.219 452.417 424.817 452.288 424.441C452.159 424.065 451.958 423.723 451.699 423.438C451.352 423.063 450.914 422.803 450.437 422.691C449.959 422.578 449.462 422.617 449.004 422.803C448.546 422.988 448.146 423.313 447.853 423.738C447.559 424.163 447.383 424.671 447.346 425.202C447.309 425.732 447.413 426.263 447.645 426.732C447.876 427.2 448.227 427.587 448.654 427.845C449.081 428.104 449.567 428.224 450.055 428.19C450.543 428.157 451.011 427.973 451.406 427.658C451.702 427.418 451.949 427.112 452.128 426.761C452.308 426.409 452.417 426.02 452.448 425.619V425.619Z" fill="black"/>
<path opacity="0.1" d="M357.458 390.597C357.462 391.451 357.174 392.276 356.65 392.912C356.127 393.548 355.404 393.949 354.624 394.037C353.757 394.109 352.898 393.81 352.23 393.203C351.719 392.725 351.362 392.082 351.211 391.367C351.06 390.652 351.123 389.903 351.39 389.23C351.658 388.557 352.116 387.994 352.697 387.624C353.279 387.254 353.954 387.097 354.624 387.174C355.402 387.262 356.121 387.66 356.645 388.293C357.168 388.925 357.458 389.746 357.458 390.597V390.597ZM357.458 390.597C357.454 390.196 357.372 389.801 357.217 389.437C357.063 389.073 356.84 388.749 356.562 388.487C356.19 388.142 355.736 387.92 355.252 387.847C354.768 387.775 354.275 387.855 353.832 388.078C353.389 388.301 353.013 388.657 352.75 389.105C352.487 389.553 352.347 390.074 352.347 390.606C352.347 391.137 352.487 391.658 352.75 392.106C353.013 392.554 353.389 392.91 353.832 393.133C354.275 393.356 354.768 393.436 355.252 393.364C355.736 393.291 356.19 393.07 356.562 392.725C356.842 392.46 357.066 392.133 357.221 391.766C357.375 391.399 357.456 391 357.458 390.597Z" fill="black"/>
<path opacity="0.2" d="M323.971 428.633C342.851 410.147 344.395 378.496 327.419 357.938C310.443 337.379 281.375 335.698 262.495 354.183C243.614 372.668 242.07 404.319 259.047 424.878C276.023 445.437 305.09 447.118 323.971 428.633Z" fill="black"/>
<path d="M327.717 405.576C334.925 384.84 325.329 361.667 306.285 353.818C287.241 345.97 265.959 356.418 258.752 377.155C251.544 397.892 261.14 421.065 280.184 428.914C299.228 436.762 320.509 426.313 327.717 405.576Z" fill="#37474F"/>
<path d="M291.021 376.65L282.404 375.13L281.009 384.513L289.625 386.032L291.021 376.65Z" fill="#F4A047"/>
<path d="M283.788 365.743L275.172 364.224L273.776 373.606L282.393 375.126L283.788 365.743Z" fill="#F4A047"/>
<path d="M318.269 371.827L309.652 370.308L308.257 379.69L316.873 381.21L318.269 371.827Z" fill="#F4A047"/>
<path d="M278.232 403.078L269.615 401.558L268.22 410.941L276.836 412.46L278.232 403.078Z" fill="#F4A047"/>
<path d="M312.726 409.161L304.109 407.642L302.714 417.024L311.33 418.544L312.726 409.161Z" fill="#F4A047"/>
<path d="M288.253 395.206L279.637 393.686L278.241 403.068L286.858 404.588L288.253 395.206Z" fill="#F4A047"/>
<path d="M298.247 387.452L289.631 385.933L288.235 395.315L296.852 396.835L298.247 387.452Z" fill="#F4A047"/>
<path d="M308.249 379.682L299.633 378.163L298.237 387.545L306.854 389.065L308.249 379.682Z" fill="#F4A047"/>
<path d="M305.513 398.239L296.896 396.72L295.501 406.102L304.117 407.622L305.513 398.239Z" fill="#F4A047"/>
<path d="M452.164 444.062C468.256 422.677 465.38 391.136 445.741 373.614C426.101 356.092 397.135 359.223 381.043 380.609C364.951 401.994 367.827 433.534 387.467 451.057C407.106 468.579 436.072 465.447 452.164 444.062Z" fill="#F4A047"/>
<path opacity="0.2" d="M452.164 444.062C468.256 422.677 465.38 391.136 445.741 373.614C426.101 356.092 397.135 359.223 381.043 380.609C364.951 401.994 367.827 433.534 387.467 451.057C407.106 468.579 436.072 465.447 452.164 444.062Z" fill="black"/>
<path opacity="0.2" d="M461.342 423.952C461.13 424.945 460.886 425.885 460.625 426.842L371.057 406.024C371.268 404.251 371.545 402.478 371.92 400.793C373.226 394.295 375.708 388.146 379.22 382.704C382.733 377.262 387.206 372.637 392.379 369.098C397.551 365.559 403.319 363.178 409.346 362.093C415.373 361.009 421.538 361.242 427.481 362.781C433.425 364.319 439.027 367.131 443.961 371.053C448.895 374.975 453.062 379.928 456.218 385.622C459.375 391.317 461.458 397.64 462.346 404.221C463.234 410.802 462.909 417.509 461.39 423.952H461.342Z" fill="black"/>
<path d="M430.836 449.365C449.624 440.816 458.49 417.301 450.638 396.843C442.787 376.385 421.191 366.731 402.403 375.28C383.615 383.83 374.75 407.345 382.601 427.803C390.453 448.26 412.048 457.914 430.836 449.365Z" fill="#37474F"/>
<path d="M425.867 390.473L417.375 388.275L407.324 434.321L415.816 436.519L425.867 390.473Z" fill="#F4A047"/>
<path d="M464.011 423.012L369.883 398.648C373.034 385.27 380.884 373.775 391.742 366.637C402.601 359.499 415.599 357.289 427.938 360.483C440.278 363.677 450.972 372.02 457.719 383.715C464.466 395.409 466.725 409.521 464.011 423.012V423.012Z" fill="#F4A047"/>
<path opacity="0.2" d="M464.011 423.012L369.883 398.648C373.034 385.27 380.884 373.775 391.742 366.637C402.601 359.499 415.599 357.289 427.938 360.483C440.278 363.677 450.972 372.02 457.719 383.715C464.466 395.409 466.725 409.521 464.011 423.012V423.012Z" fill="black"/>
<path opacity="0.1" d="M336.615 442.128C336.835 437.962 338.331 433.997 340.866 430.867C342.232 429.218 343.948 427.957 345.865 427.197C347.802 426.482 349.858 426.234 351.891 426.47C353.964 426.671 355.944 427.496 357.612 428.852C359.28 430.208 360.569 432.041 361.336 434.148C362.787 437.995 363.123 442.234 362.297 446.295C361.823 442.481 360.719 438.793 359.04 435.407C358.293 433.901 357.218 432.619 355.909 431.672C354.6 430.726 353.097 430.145 351.532 429.981C349.942 429.751 348.324 429.886 346.785 430.378C345.245 430.87 343.817 431.707 342.592 432.836C340.001 435.421 337.961 438.592 336.615 442.128V442.128Z" fill="black"/>
<path d="M244.844 340.023C245.218 334.704 245.772 329.384 246.244 324.064C246.717 318.744 247.303 313.425 247.873 308.105C248.443 302.785 249.078 297.465 249.697 292.145C250.316 286.826 251.016 281.506 251.684 276.186L251.846 274.767L253.165 274.856C263.783 275.577 274.374 276.529 284.938 277.711C290.214 278.296 295.491 278.97 300.767 279.697C306.043 280.424 311.303 281.293 316.531 282.321L284.742 280.194L253.003 277.941L254.485 276.629C253.768 281.949 253.1 287.269 252.335 292.589C251.57 297.908 250.837 303.228 250.022 308.459C249.208 313.69 248.394 319.01 247.547 324.295C246.7 329.579 245.837 334.775 244.844 340.023Z" fill="white"/>
<path d="M252.484 380.489C253.657 373.993 256.174 367.874 259.845 362.597C260.741 361.249 261.767 360.008 262.744 358.731C263.721 357.454 264.91 356.373 266.001 355.185C267.092 353.997 268.395 353.092 269.616 352.081C270.838 351.071 272.189 350.308 273.509 349.386C274.828 348.464 276.293 347.914 277.694 347.223L282.058 345.574L286.585 344.563C288.1 344.315 289.631 344.261 291.162 344.137C297.217 344.056 303.225 345.323 308.815 347.861C303.047 346.541 297.137 346.111 291.259 346.584C285.495 347.155 279.906 349.047 274.86 352.135C269.785 355.204 265.27 359.261 261.539 364.104C257.721 368.992 254.663 374.527 252.484 380.489V380.489Z" fill="white"/>
<path d="M379.312 394.002C381.304 387.752 384.566 382.072 388.856 377.386C389.914 376.198 391.087 375.117 392.227 373.999C393.367 372.882 394.669 371.996 395.907 371.003C397.145 370.01 398.529 369.229 399.881 368.467C401.232 367.704 402.665 367.048 404.082 366.392C405.499 365.736 407.014 365.346 408.479 364.867L413.023 363.892L417.631 363.573C419.162 363.573 420.693 363.75 422.224 363.856C428.245 364.667 434.048 366.815 439.274 370.169C433.726 368.002 427.927 366.689 422.045 366.268C416.266 365.97 410.495 367.004 405.108 369.3C399.717 371.591 394.752 374.925 390.452 379.142C386.025 383.407 382.263 388.425 379.312 394.002Z" fill="white"/>
<path d="M237.386 554.43C225.612 554.43 199.832 551.557 183.238 528.327C162.067 498.607 169.689 441.579 170.014 439.167L179.232 440.692C179.232 441.242 171.838 495.823 190.631 522.085C208.968 547.762 242.239 544.091 242.565 544.038L243.623 554.128C243.216 554.164 240.936 554.43 237.386 554.43Z" fill="#F4A047"/>
<path opacity="0.4" d="M237.386 554.43C225.612 554.43 199.832 551.557 183.238 528.327C162.067 498.607 169.689 441.579 170.014 439.167L179.232 440.692C179.232 441.242 171.838 495.823 190.631 522.085C208.968 547.762 242.239 544.091 242.565 544.038L243.623 554.128C243.216 554.164 240.936 554.43 237.386 554.43Z" fill="white"/>
<path d="M181.956 447.589C180.232 447.598 178.511 447.45 176.81 447.146C161.257 444.398 154.385 434.272 151.34 426.257C148.294 418.242 147.594 408.578 149.223 397.371L168.928 400.917C167.902 407.815 168.211 413.897 169.774 418.029C170.898 420.973 173.031 424.519 179.969 425.743C183.128 426.293 186.483 426.009 190.115 420.139C192.627 415.671 194.319 410.715 195.098 405.545L214.819 409.092C213.531 417.287 210.763 425.122 206.677 432.144C200.618 442.27 191.922 447.589 181.956 447.589Z" fill="#F4A047"/>
<path d="M256.869 583.475C256.869 583.014 240.16 580.123 240.16 580.123L232.018 520.878L252.195 512.189L256.869 583.475Z" fill="#F4A047"/>
<path opacity="0.2" d="M256.869 583.475C256.869 583.014 240.16 580.123 240.16 580.123L232.018 520.878L252.195 512.189L256.869 583.475Z" fill="black"/>
<path d="M421.674 583.581C421.674 583.12 438.431 580.638 438.431 580.638L447.73 521.606L427.699 512.438L421.674 583.581Z" fill="#F4A047"/>
<path opacity="0.2" d="M421.674 583.581C421.674 583.12 438.431 580.638 438.431 580.638L447.73 521.606L427.699 512.438L421.674 583.581Z" fill="black"/>
<path d="M249.926 499.014C249.926 499.014 384.75 492.755 430.284 501.018C430.284 501.018 416.913 643.057 416.197 645.823C416.197 645.823 282.072 645.415 261.113 645.823C261.113 645.734 249.763 551.273 249.926 499.014Z" fill="#F4A047"/>
<path opacity="0.2" d="M290.9 537.866C290.9 537.866 364.493 534.692 389.36 538.859C389.36 538.859 382.048 610.481 381.658 611.882C381.658 611.882 308.374 611.687 296.975 611.882C296.991 611.882 291.959 562.852 290.9 537.866Z" fill="black"/>
<path opacity="0.2" d="M300.932 611.847H296.975C296.975 611.847 291.959 562.852 290.9 537.849L295.509 537.671L300.932 611.847Z" fill="black"/>
<path d="M322.639 555.528C321.159 555.017 319.574 554.995 318.083 555.466C316.592 555.937 315.264 556.88 314.266 558.174C313.268 559.469 312.646 561.057 312.479 562.738C312.311 564.418 312.606 566.115 313.326 567.612C314.046 569.11 315.158 570.341 316.521 571.149C317.884 571.957 319.438 572.306 320.983 572.151C322.529 571.996 323.998 571.345 325.203 570.28C326.408 569.214 327.295 567.783 327.752 566.168C328.36 564.019 328.164 561.695 327.206 559.702C326.249 557.71 324.607 556.21 322.639 555.528V555.528ZM326.84 565.92C326.429 567.33 325.643 568.576 324.582 569.5C323.521 570.425 322.232 570.986 320.878 571.112C319.524 571.239 318.166 570.925 316.976 570.212C315.785 569.498 314.816 568.416 314.19 567.103C313.564 565.789 313.31 564.303 313.459 562.833C313.609 561.362 314.156 559.973 315.03 558.84C315.905 557.708 317.068 556.883 318.373 556.47C319.678 556.058 321.066 556.075 322.362 556.521C323.223 556.818 324.022 557.296 324.713 557.929C325.404 558.562 325.974 559.337 326.39 560.21C326.806 561.083 327.06 562.036 327.137 563.016C327.214 563.996 327.113 564.983 326.84 565.92V565.92ZM322.639 555.528C321.159 555.017 319.574 554.995 318.083 555.466C316.592 555.937 315.264 556.88 314.266 558.174C313.268 559.469 312.646 561.057 312.479 562.738C312.311 564.418 312.606 566.115 313.326 567.612C314.046 569.11 315.158 570.341 316.521 571.149C317.884 571.957 319.438 572.306 320.983 572.151C322.529 571.996 323.998 571.345 325.203 570.28C326.408 569.214 327.295 567.783 327.752 566.168C328.36 564.019 328.164 561.695 327.206 559.702C326.249 557.71 324.607 556.21 322.639 555.528V555.528ZM326.84 565.92C326.429 567.33 325.643 568.576 324.582 569.5C323.521 570.425 322.232 570.986 320.878 571.112C319.524 571.239 318.166 570.925 316.976 570.212C315.785 569.498 314.816 568.416 314.19 567.103C313.564 565.789 313.31 564.303 313.459 562.833C313.609 561.362 314.156 559.973 315.03 558.84C315.905 557.708 317.068 556.883 318.373 556.47C319.678 556.058 321.066 556.075 322.362 556.521C323.223 556.818 324.022 557.296 324.713 557.929C325.404 558.562 325.974 559.337 326.39 560.21C326.806 561.083 327.06 562.036 327.137 563.016C327.214 563.996 327.113 564.983 326.84 565.92V565.92ZM322.639 555.528C321.159 555.017 319.574 554.995 318.083 555.466C316.592 555.937 315.264 556.88 314.266 558.174C313.268 559.469 312.646 561.057 312.479 562.738C312.311 564.418 312.606 566.115 313.326 567.612C314.046 569.11 315.158 570.341 316.521 571.149C317.884 571.957 319.438 572.306 320.983 572.151C322.529 571.996 323.998 571.345 325.203 570.28C326.408 569.214 327.295 567.783 327.752 566.168C328.36 564.019 328.164 561.695 327.206 559.702C326.249 557.71 324.607 556.21 322.639 555.528V555.528ZM326.84 565.92C326.429 567.33 325.643 568.576 324.582 569.5C323.521 570.425 322.232 570.986 320.878 571.112C319.524 571.239 318.166 570.925 316.976 570.212C315.785 569.498 314.816 568.416 314.19 567.103C313.564 565.789 313.31 564.303 313.459 562.833C313.609 561.362 314.156 559.973 315.03 558.84C315.905 557.708 317.068 556.883 318.373 556.47C319.678 556.058 321.066 556.075 322.362 556.521C323.223 556.818 324.022 557.296 324.713 557.929C325.404 558.562 325.974 559.337 326.39 560.21C326.806 561.083 327.06 562.036 327.137 563.016C327.214 563.996 327.113 564.983 326.84 565.92V565.92ZM325.212 546.52C322.1 545.451 318.768 545.41 315.635 546.402C312.502 547.395 309.71 549.377 307.612 552.098C305.514 554.819 304.203 558.156 303.847 561.687C303.49 565.219 304.104 568.786 305.609 571.938C307.114 575.09 309.444 577.685 312.304 579.395C315.164 581.105 318.426 581.854 321.676 581.545C324.927 581.237 328.02 579.886 330.566 577.664C333.111 575.441 334.994 572.446 335.976 569.058C337.291 564.522 336.902 559.604 334.893 555.379C332.885 551.155 329.421 547.97 325.261 546.52H325.212ZM328.876 566.629C328.331 568.484 327.293 570.121 325.894 571.335C324.495 572.548 322.797 573.283 321.015 573.447C319.232 573.611 317.445 573.197 315.879 572.256C314.313 571.315 313.038 569.891 312.214 568.162C311.391 566.433 311.056 564.477 311.253 562.541C311.449 560.605 312.167 558.776 313.317 557.284C314.467 555.793 315.997 554.705 317.714 554.159C319.431 553.613 321.258 553.633 322.964 554.216C324.106 554.602 325.167 555.23 326.085 556.063C327.003 556.897 327.761 557.92 328.315 559.073C328.869 560.227 329.208 561.488 329.312 562.785C329.417 564.082 329.285 565.388 328.925 566.629H328.876ZM327.703 566.221C328.174 564.61 328.194 562.884 327.761 561.261C327.328 559.637 326.463 558.191 325.274 557.104C324.085 556.018 322.626 555.34 321.083 555.158C319.54 554.976 317.981 555.297 316.606 556.081C315.231 556.864 314.1 558.075 313.358 559.56C312.616 561.044 312.296 562.736 312.438 564.419C312.58 566.102 313.178 567.701 314.156 569.013C315.135 570.326 316.449 571.292 317.932 571.789C318.913 572.128 319.945 572.252 320.97 572.155C321.994 572.058 322.991 571.742 323.904 571.225C324.816 570.707 325.625 569.999 326.286 569.141C326.946 568.282 327.445 567.29 327.752 566.221H327.703ZM326.791 565.92C326.38 567.33 325.595 568.576 324.533 569.5C323.472 570.425 322.183 570.986 320.829 571.112C319.475 571.239 318.117 570.925 316.927 570.212C315.736 569.498 314.767 568.416 314.141 567.103C313.515 565.789 313.261 564.303 313.41 562.833C313.56 561.362 314.107 559.973 314.981 558.84C315.856 557.708 317.019 556.883 318.324 556.47C319.629 556.058 321.017 556.075 322.313 556.521C323.178 556.812 323.983 557.287 324.679 557.917C325.375 558.548 325.951 559.322 326.371 560.196C326.792 561.069 327.05 562.024 327.131 563.007C327.211 563.989 327.112 564.979 326.84 565.92H326.791ZM322.59 555.528C321.111 555.017 319.525 554.995 318.034 555.466C316.543 555.937 315.215 556.88 314.217 558.174C313.219 559.469 312.597 561.057 312.43 562.738C312.262 564.418 312.557 566.115 313.277 567.612C313.997 569.11 315.109 570.341 316.472 571.149C317.836 571.957 319.389 572.306 320.934 572.151C322.48 571.996 323.949 571.345 325.154 570.28C326.359 569.214 327.246 567.783 327.703 566.168C328.314 564.026 328.124 561.708 327.176 559.717C326.228 557.725 324.598 556.221 322.639 555.528H322.59ZM326.791 565.92C326.38 567.33 325.595 568.576 324.533 569.5C323.472 570.425 322.183 570.986 320.829 571.112C319.475 571.239 318.117 570.925 316.927 570.212C315.736 569.498 314.767 568.416 314.141 567.103C313.515 565.789 313.261 564.303 313.41 562.833C313.56 561.362 314.107 559.973 314.981 558.84C315.856 557.708 317.019 556.883 318.324 556.47C319.629 556.058 321.017 556.075 322.313 556.521C323.178 556.812 323.983 557.287 324.679 557.917C325.375 558.548 325.951 559.322 326.371 560.196C326.792 561.069 327.05 562.024 327.131 563.007C327.211 563.989 327.112 564.979 326.84 565.92H326.791ZM322.59 555.528C321.111 555.017 319.525 554.995 318.034 555.466C316.543 555.937 315.215 556.88 314.217 558.174C313.219 559.469 312.597 561.057 312.43 562.738C312.262 564.418 312.557 566.115 313.277 567.612C313.997 569.11 315.109 570.341 316.472 571.149C317.836 571.957 319.389 572.306 320.934 572.151C322.48 571.996 323.949 571.345 325.154 570.28C326.359 569.214 327.246 567.783 327.703 566.168C328.314 564.026 328.124 561.708 327.176 559.717C326.228 557.725 324.598 556.221 322.639 555.528H322.59ZM326.791 565.92C326.38 567.33 325.595 568.576 324.533 569.5C323.472 570.425 322.183 570.986 320.829 571.112C319.475 571.239 318.117 570.925 316.927 570.212C315.736 569.498 314.767 568.416 314.141 567.103C313.515 565.789 313.261 564.303 313.41 562.833C313.56 561.362 314.107 559.973 314.981 558.84C315.856 557.708 317.019 556.883 318.324 556.47C319.629 556.058 321.017 556.075 322.313 556.521C323.178 556.812 323.983 557.287 324.679 557.917C325.375 558.548 325.951 559.322 326.371 560.196C326.792 561.069 327.05 562.024 327.131 563.007C327.211 563.989 327.112 564.979 326.84 565.92H326.791Z" fill="#F4A047"/>
<path d="M318.568 581.134L312.51 579.042L311.5 583.83L316.874 585.674L318.568 581.134Z" fill="#F4A047"/>
<path d="M307.692 574.946L304.761 568.828L300.934 571.417L303.539 576.879L307.692 574.946Z" fill="#F4A047"/>
<path d="M304.008 562.214L305.913 555.635L301.532 554.518L299.822 560.387L304.008 562.214Z" fill="#F4A047"/>
<path d="M309.679 550.368L315.313 547.194L312.919 543.027L307.92 545.864L309.679 550.368Z" fill="#F4A047"/>
<path d="M321.369 546.361L327.427 548.453L328.437 543.665L323.063 541.821L321.369 546.361Z" fill="#F4A047"/>
<path d="M332.246 552.532L335.177 558.667L339.004 556.078L336.399 550.617L332.246 552.532Z" fill="#F4A047"/>
<path d="M335.929 565.281L334.023 571.86L338.42 572.977L340.114 567.108L335.929 565.281Z" fill="#F4A047"/>
<path d="M330.263 577.109L324.645 580.301L327.022 584.468L332.022 581.631L330.263 577.109Z" fill="#F4A047"/>
<path d="M349.269 580.585C348.395 579.962 347.372 579.636 346.328 579.647C345.284 579.658 344.266 580.006 343.404 580.647C342.542 581.288 341.874 582.193 341.484 583.248C341.094 584.302 341.001 585.459 341.215 586.572C341.43 587.684 341.942 588.702 342.688 589.498C343.434 590.293 344.38 590.829 345.407 591.039C346.433 591.248 347.493 591.122 348.453 590.675C349.413 590.228 350.229 589.481 350.8 588.529C351.563 587.254 351.83 585.701 351.543 584.212C351.256 582.723 350.438 581.418 349.269 580.585V580.585ZM350.262 588.139C349.763 588.973 349.048 589.628 348.207 590.02C347.366 590.412 346.437 590.523 345.538 590.341C344.639 590.158 343.809 589.689 343.155 588.993C342.501 588.297 342.051 587.405 341.862 586.431C341.673 585.456 341.753 584.443 342.093 583.518C342.433 582.593 343.017 581.799 343.772 581.236C344.526 580.673 345.417 580.366 346.332 580.354C347.247 580.343 348.144 580.626 348.91 581.17C349.422 581.531 349.862 581.998 350.207 582.545C350.552 583.092 350.794 583.708 350.92 584.357C351.045 585.006 351.052 585.676 350.939 586.328C350.826 586.98 350.596 587.602 350.262 588.156V588.139ZM349.269 580.585C348.395 579.962 347.372 579.636 346.328 579.647C345.284 579.658 344.266 580.006 343.404 580.647C342.542 581.288 341.874 582.193 341.484 583.248C341.094 584.302 341.001 585.459 341.215 586.572C341.43 587.684 341.942 588.702 342.688 589.498C343.434 590.293 344.38 590.829 345.407 591.039C346.433 591.248 347.493 591.122 348.453 590.675C349.413 590.228 350.229 589.481 350.8 588.529C351.563 587.254 351.83 585.701 351.543 584.212C351.256 582.723 350.438 581.418 349.269 580.585V580.585ZM350.262 588.139C349.763 588.973 349.048 589.628 348.207 590.02C347.366 590.412 346.437 590.523 345.538 590.341C344.639 590.158 343.809 589.689 343.155 588.993C342.501 588.297 342.051 587.405 341.862 586.431C341.673 585.456 341.753 584.443 342.093 583.518C342.433 582.593 343.017 581.799 343.772 581.236C344.526 580.673 345.417 580.366 346.332 580.354C347.247 580.343 348.144 580.626 348.91 581.17C349.422 581.531 349.862 581.998 350.207 582.545C350.552 583.092 350.794 583.708 350.92 584.357C351.045 585.006 351.052 585.676 350.939 586.328C350.826 586.98 350.596 587.602 350.262 588.156V588.139ZM349.269 580.585C348.395 579.962 347.372 579.636 346.328 579.647C345.284 579.658 344.266 580.006 343.404 580.647C342.542 581.288 341.874 582.193 341.484 583.248C341.094 584.302 341.001 585.459 341.215 586.572C341.43 587.684 341.942 588.702 342.688 589.498C343.434 590.293 344.38 590.829 345.407 591.039C346.433 591.248 347.493 591.122 348.453 590.675C349.413 590.228 350.229 589.481 350.8 588.529C351.563 587.254 351.83 585.701 351.543 584.212C351.256 582.723 350.438 581.418 349.269 580.585V580.585ZM350.262 588.139C349.763 588.973 349.048 589.628 348.207 590.02C347.366 590.412 346.437 590.523 345.538 590.341C344.639 590.158 343.809 589.689 343.155 588.993C342.501 588.297 342.051 587.405 341.862 586.431C341.673 585.456 341.753 584.443 342.093 583.518C342.433 582.593 343.017 581.799 343.772 581.236C344.526 580.673 345.417 580.366 346.332 580.354C347.247 580.343 348.144 580.626 348.91 581.17C349.422 581.531 349.862 581.998 350.207 582.545C350.552 583.092 350.794 583.708 350.92 584.357C351.045 585.006 351.052 585.676 350.939 586.328C350.826 586.98 350.596 587.602 350.262 588.156V588.139ZM352.444 575.265C350.603 573.962 348.448 573.283 346.252 573.313C344.056 573.344 341.917 574.083 340.107 575.437C338.296 576.79 336.895 578.698 336.08 580.919C335.265 583.139 335.073 585.573 335.528 587.913C335.983 590.252 337.065 592.392 338.637 594.062C340.209 595.732 342.201 596.857 344.36 597.295C346.519 597.733 348.749 597.464 350.767 596.523C352.786 595.581 354.503 594.009 355.701 592.004C356.498 590.673 357.045 589.183 357.312 587.621C357.579 586.059 357.561 584.454 357.259 582.9C356.956 581.345 356.376 579.871 355.549 578.56C354.723 577.25 353.668 576.131 352.444 575.265V575.265ZM351.484 589.008C350.827 590.108 349.885 590.971 348.777 591.488C347.669 592.005 346.445 592.152 345.261 591.912C344.076 591.671 342.984 591.053 342.121 590.136C341.259 589.219 340.666 588.044 340.418 586.76C340.169 585.476 340.276 584.141 340.725 582.923C341.173 581.705 341.944 580.659 342.939 579.918C343.933 579.177 345.107 578.774 346.313 578.761C347.518 578.747 348.699 579.122 349.708 579.84C350.379 580.316 350.958 580.931 351.41 581.65C351.862 582.369 352.18 583.179 352.345 584.032C352.51 584.885 352.519 585.765 352.371 586.622C352.223 587.479 351.922 588.296 351.484 589.025V589.008ZM350.8 588.529C351.364 587.579 351.657 586.468 351.642 585.336C351.627 584.205 351.304 583.103 350.715 582.171C350.125 581.239 349.296 580.518 348.33 580.099C347.365 579.68 346.308 579.582 345.291 579.816C344.274 580.051 343.344 580.608 342.618 581.418C341.892 582.228 341.403 583.253 341.212 584.366C341.021 585.478 341.136 586.627 341.544 587.668C341.952 588.708 342.634 589.594 343.504 590.213C344.676 591.04 346.1 591.328 347.467 591.016C348.833 590.704 350.031 589.816 350.8 588.547V588.529ZM350.262 588.139C349.763 588.973 349.048 589.628 348.207 590.02C347.366 590.412 346.437 590.523 345.538 590.341C344.639 590.158 343.809 589.689 343.155 588.993C342.501 588.297 342.051 587.405 341.862 586.431C341.673 585.456 341.753 584.443 342.093 583.518C342.433 582.593 343.017 581.799 343.772 581.236C344.526 580.673 345.417 580.366 346.332 580.354C347.247 580.343 348.144 580.626 348.91 581.17C349.422 581.531 349.862 581.998 350.207 582.545C350.552 583.092 350.794 583.708 350.92 584.357C351.045 585.006 351.052 585.676 350.939 586.328C350.826 586.98 350.596 587.602 350.262 588.156V588.139ZM349.269 580.585C348.395 579.962 347.372 579.636 346.328 579.647C345.284 579.658 344.266 580.006 343.404 580.647C342.542 581.288 341.874 582.193 341.484 583.248C341.094 584.302 341.001 585.459 341.215 586.572C341.43 587.684 341.942 588.702 342.688 589.498C343.434 590.293 344.38 590.829 345.407 591.039C346.433 591.248 347.493 591.122 348.453 590.675C349.413 590.228 350.229 589.481 350.8 588.529C351.563 587.254 351.83 585.701 351.543 584.212C351.256 582.723 350.438 581.418 349.269 580.585V580.585ZM350.262 588.139C349.763 588.973 349.048 589.628 348.207 590.02C347.366 590.412 346.437 590.523 345.538 590.341C344.639 590.158 343.809 589.689 343.155 588.993C342.501 588.297 342.051 587.405 341.862 586.431C341.673 585.456 341.753 584.443 342.093 583.518C342.433 582.593 343.017 581.799 343.772 581.236C344.526 580.673 345.417 580.366 346.332 580.354C347.247 580.343 348.144 580.626 348.91 581.17C349.422 581.531 349.862 581.998 350.207 582.545C350.552 583.092 350.794 583.708 350.92 584.357C351.045 585.006 351.052 585.676 350.939 586.328C350.826 586.98 350.596 587.602 350.262 588.156V588.139ZM349.269 580.585C348.395 579.962 347.372 579.636 346.328 579.647C345.284 579.658 344.266 580.006 343.404 580.647C342.542 581.288 341.874 582.193 341.484 583.248C341.094 584.302 341.001 585.459 341.215 586.572C341.43 587.684 341.942 588.702 342.688 589.498C343.434 590.293 344.38 590.829 345.407 591.039C346.433 591.248 347.493 591.122 348.453 590.675C349.413 590.228 350.229 589.481 350.8 588.529C351.563 587.254 351.83 585.701 351.543 584.212C351.256 582.723 350.438 581.418 349.269 580.585V580.585ZM350.262 588.139C349.763 588.973 349.048 589.628 348.207 590.02C347.366 590.412 346.437 590.523 345.538 590.341C344.639 590.158 343.809 589.689 343.155 588.993C342.501 588.297 342.051 587.405 341.862 586.431C341.673 585.456 341.753 584.443 342.093 583.518C342.433 582.593 343.017 581.799 343.772 581.236C344.526 580.673 345.417 580.366 346.332 580.354C347.247 580.343 348.144 580.626 348.91 581.17C349.422 581.531 349.862 581.998 350.207 582.545C350.552 583.092 350.794 583.708 350.92 584.357C351.045 585.006 351.052 585.676 350.939 586.328C350.826 586.98 350.596 587.602 350.262 588.156V588.139Z" fill="#DBDBDB"/>
<path d="M342.364 596.402L338.781 593.866L337.332 596.757L340.524 599.009L342.364 596.402Z" fill="#DBDBDB"/>
<path d="M336.339 590.249L335.46 585.709L332.545 586.631L333.327 590.692L336.339 590.249Z" fill="#DBDBDB"/>
<path d="M336.061 581.276L338.389 577.374L335.735 575.796L333.65 579.254L336.061 581.276Z" fill="#DBDBDB"/>
<path d="M341.708 574.715L345.877 573.74L345.03 570.584L341.301 571.435L341.708 574.715Z" fill="#DBDBDB"/>
<path d="M349.949 574.413L353.532 576.949L354.981 574.041L351.806 571.789L349.949 574.413Z" fill="#DBDBDB"/>
<path d="M355.977 580.549L356.872 585.107L359.771 584.167L358.989 580.124L355.977 580.549Z" fill="#DBDBDB"/>
<path d="M356.255 589.539L353.926 593.441L356.58 595.019L358.665 591.543L356.255 589.539Z" fill="#DBDBDB"/>
<path d="M350.617 596.101L346.432 597.058L347.295 600.233L351.008 599.381L350.617 596.101Z" fill="#DBDBDB"/>
<path d="M427.027 629.19L432.222 630.254L447.042 520.968L441.13 519.779L427.027 629.19Z" fill="#F4A047"/>
<path d="M381.643 611.883L389.345 538.86L441.132 519.779C441.132 519.779 427.029 630.378 427.029 629.19L381.643 611.883Z" fill="#F4A047"/>
<path opacity="0.4" d="M381.643 611.883L389.345 538.86L441.132 519.779C441.132 519.779 427.029 630.378 427.029 629.19L381.643 611.883Z" fill="white"/>
<path d="M256.118 541.821C255.271 535.774 254.815 529.674 254.49 523.574C254.327 520.524 254.262 517.456 254.196 514.406C254.131 511.356 254.099 508.289 254.196 505.221V504.423H254.913C265.205 503.82 275.481 503.075 285.855 502.65C296.228 502.224 306.439 501.586 316.797 501.231C306.521 502.242 296.261 503.111 285.985 503.926C275.709 504.742 265.417 505.416 255.141 506.178L255.89 505.345V514.477L255.988 523.61C255.988 526.66 255.988 529.71 256.134 532.742L256.118 541.821Z" fill="white"/>
<path d="M396.559 539.941C399.816 538.274 403.073 536.732 406.33 535.313C409.587 533.894 412.909 532.523 416.296 531.199C419.651 529.958 423.022 528.734 426.458 527.652C429.878 526.557 433.352 525.675 436.864 525.01L437.727 524.851L437.581 525.755C436.767 530.49 435.952 535.207 434.91 539.941C435.285 535.136 435.822 530.348 436.376 525.578L437.092 526.34C433.672 527.227 430.285 528.255 426.898 529.355C423.511 530.454 420.139 531.607 416.785 532.795L396.559 539.941Z" fill="white"/>
<path opacity="0.1" d="M278.525 499.227L279.405 517.491L280.154 535.756L281.44 572.303L282.45 608.85L282.857 627.132L283.134 645.432L282.255 627.168L281.522 608.885L280.219 572.356L279.209 535.791L278.802 517.509L278.525 499.227Z" fill="black"/>
<path opacity="0.1" d="M273.722 510.239C273.846 510.885 273.797 511.557 273.578 512.173C273.36 512.789 272.983 513.323 272.493 513.711C272.002 514.099 271.419 514.324 270.814 514.36C270.208 514.395 269.606 514.239 269.081 513.91C268.691 513.66 268.354 513.324 268.091 512.924C267.827 512.524 267.643 512.069 267.55 511.587C267.467 511.107 267.477 510.613 267.578 510.137C267.678 509.661 267.869 509.213 268.136 508.821C268.401 508.453 268.731 508.147 269.105 507.919C269.48 507.69 269.892 507.545 270.318 507.491C271.097 507.408 271.877 507.644 272.506 508.152C273.135 508.659 273.568 509.403 273.722 510.239V510.239ZM273.722 510.239C273.604 509.622 273.297 509.068 272.85 508.667C272.404 508.266 271.845 508.044 271.267 508.036C270.688 508.028 270.125 508.235 269.669 508.623C269.213 509.011 268.893 509.557 268.761 510.171C268.629 510.784 268.693 511.428 268.943 511.996C269.193 512.564 269.613 513.023 270.135 513.295C270.656 513.568 271.248 513.639 271.811 513.496C272.374 513.353 272.876 513.005 273.233 512.509C273.461 512.192 273.623 511.825 273.708 511.433C273.792 511.041 273.797 510.634 273.722 510.239V510.239Z" fill="black"/>
<path opacity="0.1" d="M274.878 532.139C275.012 532.974 274.868 533.833 274.47 534.562C274.073 535.29 273.449 535.84 272.712 536.111C272.29 536.252 271.846 536.294 271.409 536.235C270.971 536.177 270.55 536.019 270.172 535.771C269.794 535.524 269.468 535.192 269.216 534.799C268.963 534.405 268.789 533.958 268.706 533.487C268.623 533.006 268.633 532.513 268.734 532.037C268.835 531.561 269.025 531.113 269.292 530.72C269.558 530.353 269.887 530.047 270.261 529.818C270.636 529.59 271.048 529.445 271.474 529.39C272.254 529.308 273.033 529.543 273.662 530.051C274.291 530.559 274.724 531.303 274.878 532.139V532.139ZM274.878 532.139C274.813 531.755 274.672 531.391 274.467 531.072C274.261 530.752 273.995 530.484 273.687 530.286C273.378 530.088 273.034 529.964 272.678 529.922C272.321 529.881 271.961 529.923 271.621 530.047C271.148 530.206 270.727 530.511 270.41 530.926C270.093 531.34 269.893 531.846 269.836 532.382C269.778 532.918 269.864 533.461 270.085 533.944C270.305 534.427 270.649 534.83 271.076 535.105C271.502 535.379 271.993 535.512 272.488 535.488C272.983 535.464 273.461 535.284 273.864 534.97C274.267 534.656 274.577 534.221 274.757 533.718C274.937 533.216 274.979 532.667 274.878 532.139V532.139Z" fill="black"/>
<path opacity="0.1" d="M275.608 555.386C275.743 556.221 275.598 557.081 275.201 557.809C274.804 558.538 274.18 559.087 273.443 559.359C272.613 559.619 271.723 559.511 270.967 559.057C270.578 558.807 270.241 558.471 269.977 558.071C269.714 557.671 269.53 557.216 269.436 556.734C269.354 556.254 269.363 555.76 269.464 555.284C269.565 554.808 269.755 554.36 270.023 553.968C270.39 553.443 270.889 553.044 271.459 552.821C272.029 552.597 272.647 552.558 273.237 552.708C273.828 552.858 274.366 553.19 274.786 553.666C275.207 554.141 275.493 554.739 275.608 555.386ZM275.608 555.386C275.543 555.003 275.403 554.639 275.197 554.319C274.992 554 274.726 553.732 274.417 553.533C274.109 553.335 273.764 553.211 273.408 553.17C273.052 553.129 272.692 553.171 272.351 553.294C271.878 553.453 271.457 553.759 271.14 554.173C270.823 554.588 270.624 555.094 270.566 555.63C270.508 556.165 270.595 556.708 270.815 557.191C271.035 557.675 271.38 558.078 271.806 558.352C272.233 558.626 272.724 558.759 273.219 558.735C273.714 558.712 274.192 558.532 274.594 558.218C274.997 557.903 275.307 557.469 275.487 556.966C275.667 556.463 275.71 555.915 275.608 555.386V555.386Z" fill="black"/>
<path opacity="0.1" d="M276.339 578.634C276.473 579.469 276.329 580.328 275.931 581.057C275.534 581.785 274.91 582.335 274.173 582.606C273.752 582.728 273.312 582.756 272.88 582.689C272.449 582.622 272.034 582.461 271.66 582.217C271.286 581.972 270.962 581.648 270.705 581.264C270.449 580.88 270.266 580.444 270.167 579.982C270.084 579.501 270.094 579.008 270.195 578.532C270.296 578.056 270.486 577.608 270.753 577.215C271.12 576.69 271.619 576.292 272.19 576.068C272.76 575.845 273.378 575.805 273.968 575.955C274.558 576.105 275.096 576.438 275.517 576.913C275.938 577.388 276.223 577.986 276.339 578.634V578.634ZM276.339 578.634C276.266 578.239 276.116 577.865 275.9 577.538C275.684 577.211 275.406 576.938 275.085 576.736C274.458 576.378 273.727 576.302 273.049 576.524C272.448 576.731 271.938 577.173 271.618 577.765C271.297 578.357 271.19 579.057 271.315 579.731C271.44 580.404 271.79 581.003 272.296 581.413C272.803 581.823 273.431 582.014 274.059 581.95C274.407 581.914 274.744 581.803 275.052 581.623C275.359 581.444 275.631 581.199 275.85 580.904C276.077 580.586 276.237 580.218 276.322 579.827C276.406 579.435 276.412 579.028 276.339 578.634V578.634Z" fill="black"/>
<path opacity="0.1" d="M277.078 601.864C277.202 602.51 277.153 603.181 276.934 603.797C276.716 604.413 276.339 604.948 275.849 605.335C275.358 605.723 274.775 605.949 274.17 605.984C273.564 606.019 272.962 605.863 272.436 605.534C272.049 605.286 271.713 604.953 271.45 604.556C271.186 604.159 271.001 603.707 270.906 603.229C270.821 602.746 270.829 602.249 270.93 601.77C271.031 601.291 271.222 600.839 271.492 600.445C271.757 600.078 272.087 599.771 272.461 599.543C272.836 599.315 273.248 599.169 273.674 599.115C274.449 599.056 275.218 599.3 275.843 599.804C276.467 600.308 276.905 601.039 277.078 601.864ZM277.078 601.864C277.007 601.483 276.864 601.122 276.658 600.806C276.451 600.489 276.185 600.223 275.878 600.026C275.571 599.829 275.229 599.704 274.874 599.66C274.52 599.616 274.161 599.654 273.821 599.771C273.219 599.978 272.709 600.421 272.389 601.013C272.069 601.605 271.961 602.305 272.086 602.978C272.212 603.652 272.561 604.251 273.068 604.661C273.574 605.07 274.202 605.261 274.83 605.197C275.191 605.166 275.54 605.051 275.856 604.86C276.172 604.67 276.447 604.408 276.663 604.092C276.879 603.777 277.03 603.415 277.108 603.03C277.185 602.646 277.186 602.248 277.11 601.864H277.078Z" fill="black"/>
<path opacity="0.1" d="M277.871 625.112C277.954 625.553 277.955 626.007 277.876 626.449C277.797 626.891 277.639 627.312 277.411 627.688C277.183 628.063 276.889 628.386 276.546 628.638C276.203 628.889 275.818 629.065 275.412 629.155C275.007 629.244 274.59 629.246 274.184 629.16C273.778 629.074 273.391 628.902 273.047 628.653C272.702 628.404 272.405 628.084 272.174 627.711C271.943 627.338 271.782 626.918 271.699 626.477C271.611 626.006 271.613 625.521 271.707 625.051C271.802 624.582 271.985 624.139 272.246 623.751C272.507 623.364 272.839 623.04 273.222 622.801C273.604 622.562 274.029 622.413 274.468 622.363C275.243 622.304 276.012 622.548 276.636 623.052C277.26 623.556 277.699 624.287 277.871 625.112V625.112ZM277.871 625.112C277.798 624.719 277.648 624.348 277.432 624.024C277.216 623.699 276.938 623.429 276.617 623.232C276.308 623.051 275.969 622.939 275.619 622.902C275.27 622.865 274.917 622.905 274.582 623.019C273.98 623.226 273.47 623.669 273.15 624.261C272.83 624.853 272.722 625.553 272.847 626.226C272.973 626.9 273.322 627.499 273.829 627.908C274.335 628.318 274.963 628.509 275.592 628.445C275.952 628.414 276.301 628.299 276.617 628.108C276.933 627.917 277.209 627.656 277.424 627.34C277.64 627.025 277.792 626.663 277.869 626.278C277.946 625.894 277.947 625.496 277.871 625.112V625.112Z" fill="black"/>
<path d="M284.42 660.651L208.084 685.841L210.786 695.549L287.122 670.358L284.42 660.651Z" fill="#F4A047"/>
<path opacity="0.4" d="M284.42 660.651L208.084 685.841L210.786 695.549L287.122 670.358L284.42 660.651Z" fill="white"/>
<path d="M247.828 669.431L238.951 672.504L243.146 686.868L252.023 683.795L247.828 669.431Z" fill="#F4A047"/>
<path d="M210.176 709.784L190.471 616.901L131.014 632.257L160.294 722.782L210.176 709.784Z" fill="#F4A047"/>
<path d="M223.365 705.067L210.174 709.784L190.469 616.901L209.441 621.83L223.365 705.067Z" fill="#F4A047"/>
<path opacity="0.2" d="M223.365 705.067L210.174 709.784L190.469 616.901L209.441 621.83L223.365 705.067Z" fill="black"/>
<path d="M285.787 676.518C291.372 676.518 295.9 671.588 295.9 665.506C295.9 659.424 291.372 654.494 285.787 654.494C280.202 654.494 275.674 659.424 275.674 665.506C275.674 671.588 280.202 676.518 285.787 676.518Z" fill="#F4A047"/>
<path d="M389.939 660.419L387.219 670.12L463.506 695.485L466.227 685.784L389.939 660.419Z" fill="#F4A047"/>
<path opacity="0.4" d="M389.939 660.419L387.219 670.12L463.506 695.485L466.227 685.784L389.939 660.419Z" fill="white"/>
<path d="M426.477 669.197L422.252 683.551L431.123 686.646L435.347 672.293L426.477 669.197Z" fill="#F4A047"/>
<path d="M464.111 709.713L483.979 616.865L543.42 632.363L513.96 722.818L464.111 709.713Z" fill="#F4A047"/>
<path d="M450.922 704.961L464.113 709.713L483.981 616.865L465.009 621.741L450.922 704.961Z" fill="#F4A047"/>
<path opacity="0.2" d="M450.922 704.961L464.113 709.713L483.981 616.865L465.009 621.741L450.922 704.961Z" fill="black"/>
<path d="M378.449 665.24C378.443 667.422 379.031 669.557 380.139 671.375C381.248 673.194 382.827 674.613 384.676 675.454C386.525 676.294 388.562 676.519 390.529 676.099C392.495 675.679 394.303 674.633 395.724 673.093C397.144 671.554 398.114 669.59 398.509 667.451C398.904 665.312 398.708 663.093 397.945 661.075C397.181 659.057 395.886 657.331 394.221 656.116C392.557 654.9 390.599 654.249 388.595 654.246C387.265 654.241 385.948 654.522 384.719 655.072C383.489 655.622 382.371 656.431 381.429 657.452C380.486 658.473 379.738 659.687 379.227 661.023C378.716 662.359 378.451 663.792 378.449 665.24Z" fill="#F4A047"/>
<path d="M454.831 550.669C455.075 550.421 479.601 525.666 508.442 534.143C537.934 542.796 562.281 591.171 562.525 591.667L570.667 586.844C569.593 584.698 544.188 534.125 510.803 524.336C476.832 514.371 449.49 542.069 448.35 543.31L454.831 550.669Z" fill="#F4A047"/>
<path opacity="0.4" d="M454.831 550.669C455.075 550.421 479.601 525.666 508.442 534.143C537.934 542.796 562.281 591.171 562.525 591.667L570.667 586.844C569.593 584.698 544.188 534.125 510.803 524.336C476.832 514.371 449.49 542.069 448.35 543.31L454.831 550.669Z" fill="white"/>
<path d="M551.658 640.361L569.377 630.236C567.146 625.591 565.758 620.522 565.289 615.305C564.898 608.212 567.471 605.8 570.289 604.169C576.477 600.622 580.174 602.023 582.698 603.637C586.232 605.924 589.831 610.57 592.827 616.759L610.497 606.598C605.611 596.632 599.716 589.327 592.843 584.911C585.971 580.496 574.93 576.931 560.973 584.911C550.111 591.153 544.574 602.396 545.356 616.582C545.991 624.884 548.133 632.967 551.658 640.361V640.361Z" fill="#F4A047"/>
<path d="M458.637 516.747C462.464 513.875 466.388 511.161 470.313 508.466C474.238 505.771 478.228 503.146 482.218 500.593C486.207 498.039 490.23 495.504 494.301 493.074L500.424 489.439C502.493 488.286 504.528 487.081 506.629 485.892C504.724 487.347 502.753 488.712 500.832 490.113L494.936 494.174C491.012 496.887 487.038 499.493 483.048 502.047C479.058 504.6 475.02 507.136 470.948 509.566C466.877 511.995 462.724 514.531 458.637 516.747Z" fill="#263238"/>
<path d="M448.414 558.277C453.902 561.682 459.097 565.53 464.227 569.466C469.357 573.403 474.34 577.552 479.079 582.092C473.639 578.653 468.362 574.919 463.266 570.902C458.185 566.913 453.153 562.852 448.414 558.277Z" fill="#263238"/>
<path d="M457.418 553.17C461.652 554.571 465.821 556.167 469.974 557.763C474.127 559.358 478.182 561.079 482.367 562.852C486.552 564.625 490.509 566.398 494.613 568.172L500.704 571.009C502.707 572.02 504.726 572.977 506.713 574.023C504.596 573.35 502.512 572.552 500.411 571.825L494.174 569.448C490.005 567.852 485.884 566.132 481.781 564.412C477.677 562.692 473.638 560.866 469.518 559.092C465.398 557.319 461.408 555.262 457.418 553.17Z" fill="#263238"/>
<path d="M469.432 520.684C473.487 519.531 477.574 518.573 481.662 517.651C485.749 516.729 489.804 515.878 493.973 515.08C498.142 514.282 502.197 513.555 506.334 512.917L512.538 511.977C514.623 511.729 516.691 511.427 518.792 511.232C516.756 511.817 514.721 512.296 512.685 512.846L506.562 514.264C502.474 515.204 498.419 516.038 494.25 516.836C490.081 517.634 486.01 518.361 481.873 518.981C477.737 519.602 473.601 520.294 469.432 520.684Z" fill="#263238"/>
<path d="M371.703 548.293C372.411 544.691 373.504 541.191 374.96 537.866C376.372 534.501 378.184 531.353 380.351 528.503C382.518 525.588 385.316 523.303 388.493 521.853C391.814 520.513 395.472 520.551 398.769 521.96C402.075 523.454 404.712 526.3 406.114 529.886C406.845 531.63 407.307 533.493 407.482 535.401C407.707 537.359 407.5 539.347 406.879 541.2C406.535 542.216 405.909 543.089 405.088 543.7C404.643 544.022 404.136 544.228 403.606 544.303C403.059 544.401 402.499 544.347 401.977 544.143C401.058 543.647 400.318 542.829 399.876 541.82C399.462 540.953 399.14 540.037 398.916 539.09C398.092 535.432 397.807 531.655 398.069 527.9C398.412 520.385 400.448 513.077 403.997 506.621C405.816 503.4 408.221 500.618 411.064 498.446C413.912 496.27 417.205 494.882 420.656 494.403C422.343 494.067 424.055 493.906 425.77 493.925C426.631 493.903 427.491 493.963 428.343 494.102C429.197 494.155 430.047 494.279 430.883 494.474C434.24 495.202 437.464 496.526 440.426 498.393C443.341 500.293 446.022 502.587 448.406 505.22C450.807 507.805 452.918 510.692 454.692 513.821C450.9 507.777 445.886 502.76 440.036 499.156C437.123 497.43 433.971 496.232 430.704 495.609C429.087 495.346 427.454 495.21 425.819 495.201C424.177 495.228 422.541 495.424 420.933 495.786C417.69 496.327 414.607 497.681 411.927 499.741C409.257 501.808 407.006 504.452 405.316 507.508C401.951 513.732 400.033 520.756 399.73 527.971C399.462 531.538 399.709 535.128 400.463 538.611C400.854 540.242 401.554 542.157 402.58 542.583C402.702 542.625 402.827 542.654 402.954 542.672C403.116 542.698 403.281 542.698 403.443 542.672C403.75 542.632 404.046 542.517 404.306 542.335C404.877 541.897 405.309 541.277 405.544 540.561C406.09 538.96 406.275 537.239 406.081 535.543C405.921 533.799 405.509 532.093 404.86 530.489C403.614 527.249 401.286 524.645 398.346 523.201C395.339 521.838 391.978 521.725 388.9 522.882C385.83 524.204 383.102 526.322 380.953 529.053C376.557 534.61 373.392 541.193 371.703 548.293V548.293Z" fill="#6660AB"/>
<path d="M221.234 594.238C222.823 591.012 225.048 588.208 227.748 586.028C230.449 583.762 233.556 582.137 236.868 581.258C240.22 580.358 243.731 580.438 247.046 581.488C250.359 582.61 253.353 584.637 255.743 587.375C258.119 590.097 259.969 593.311 261.182 596.827C262.456 600.337 263.011 604.107 262.81 607.874C262.75 609.893 262.086 611.835 260.921 613.407C260.202 614.233 259.214 614.717 258.169 614.755C257.198 614.773 256.237 614.536 255.368 614.063C254.478 613.545 253.768 612.722 253.349 611.722C252.963 610.784 252.753 609.771 252.73 608.743C252.708 606.817 253 604.901 253.593 603.086C254.731 599.544 256.416 596.24 258.576 593.316C260.684 590.374 263.168 587.776 265.953 585.602C271.517 581.063 278.452 578.985 285.365 579.786C288.772 580.227 292.065 581.396 295.055 583.226C298.023 585.072 300.638 587.522 302.758 590.443C304.829 593.354 306.517 596.565 307.774 599.983C309.056 603.368 309.953 606.912 310.444 610.534C309.178 603.385 306.315 596.686 302.106 591.028C300.017 588.255 297.45 585.954 294.55 584.254C291.655 582.576 288.484 581.539 285.219 581.204C278.651 580.55 272.095 582.586 266.833 586.914C261.503 591.112 257.43 596.929 255.124 603.636C254.571 605.253 254.29 606.965 254.293 608.69C254.244 609.455 254.385 610.221 254.7 610.907C255.015 611.593 255.493 612.175 256.085 612.591C256.711 612.95 257.412 613.127 258.12 613.105C258.445 613.099 258.764 613.022 259.061 612.879C259.357 612.736 259.624 612.529 259.846 612.272C260.778 610.971 261.303 609.381 261.345 607.732C261.502 604.192 260.946 600.658 259.716 597.377C258.572 594.045 256.846 590.986 254.635 588.368C252.413 585.739 249.61 583.774 246.493 582.658C243.372 581.585 240.047 581.426 236.852 582.197C230.388 583.804 224.773 588.133 221.234 594.238V594.238Z" fill="#6660AB"/>
<path d="M145.962 166.012C145.896 158.694 144.279 151.491 141.239 144.964C139.761 141.748 137.58 138.978 134.888 136.895C132.148 134.977 128.859 134.214 125.638 134.75C122.47 135.36 119.634 137.262 117.707 140.069C116.717 141.447 115.941 142.993 115.411 144.644C114.848 146.241 114.647 147.963 114.825 149.663C114.902 150.411 115.186 151.115 115.639 151.684C115.85 151.936 116.112 152.13 116.405 152.252C116.557 152.315 116.716 152.363 116.877 152.393C117.007 152.402 117.137 152.402 117.268 152.393C118.375 152.163 119.466 150.62 120.199 149.095C121.651 145.927 122.65 142.537 123.163 139.041C124.443 131.971 124.124 124.668 122.235 117.762C121.258 114.352 119.651 111.196 117.512 108.487C115.361 105.791 112.663 103.678 109.63 102.317C108.144 101.567 106.595 100.973 105.005 100.543C103.401 100.107 101.767 99.8108 100.119 99.6566C96.8308 99.4231 93.5293 99.7826 90.3483 100.721C83.8683 102.683 77.8933 106.252 72.8906 111.147C75.2981 108.56 77.9827 106.298 80.8866 104.409C83.777 102.479 86.8794 100.954 90.1203 99.8694C93.4069 98.8243 96.8291 98.3749 100.25 98.5395C101.958 98.6777 103.656 98.9443 105.331 99.3374C107.006 99.7633 108.641 100.357 110.216 101.111C113.464 102.475 116.359 104.678 118.652 107.53C120.938 110.374 122.662 113.7 123.717 117.301C125.746 124.473 126.132 132.077 124.84 139.449C124.271 143.159 123.172 146.749 121.583 150.088C121.154 150.944 120.641 151.747 120.052 152.482C119.41 153.372 118.508 153.998 117.496 154.255C116.941 154.312 116.382 154.221 115.867 153.989C115.377 153.78 114.938 153.453 114.581 153.032C113.919 152.216 113.5 151.203 113.376 150.124C113.179 148.165 113.413 146.183 114.059 144.343C114.657 142.536 115.521 140.847 116.616 139.342C118.757 136.219 121.938 134.137 125.475 133.544C128.985 133.039 132.543 133.954 135.474 136.115C138.268 138.341 140.507 141.291 141.989 144.698C143.496 148.024 144.591 151.554 145.246 155.195C145.871 158.758 146.112 162.388 145.962 166.012Z" fill="#6660AB"/>
<path d="M505.488 258.506C498.941 256.85 492.133 256.85 485.587 258.506C482.373 259.329 479.392 260.997 476.907 263.365C474.545 265.803 473.094 269.106 472.836 272.639C472.654 276.151 473.708 279.607 475.784 282.303C476.788 283.688 477.992 284.886 479.35 285.85C480.646 286.803 482.13 287.41 483.682 287.623C484.372 287.706 485.069 287.564 485.685 287.215C485.959 287.054 486.194 286.823 486.369 286.541C486.467 286.417 486.515 286.222 486.613 286.08C486.711 285.939 486.613 285.797 486.695 285.673C486.695 284.449 485.587 282.924 484.431 281.789C481.928 279.482 479.116 277.604 476.093 276.221C470.071 273.205 463.463 271.835 456.844 272.231C453.572 272.47 450.38 273.436 447.464 275.068C444.554 276.711 442.039 279.074 440.119 281.966C439.081 283.36 438.165 284.856 437.383 286.435C436.977 287.219 436.628 288.038 436.341 288.882C435.986 289.688 435.692 290.524 435.461 291.382C434.478 294.824 434.021 298.419 434.11 302.022C434.357 309.338 436.151 316.492 439.354 322.929C437.606 319.782 436.212 316.419 435.201 312.91C434.156 309.393 433.522 305.747 433.312 302.057C433.143 298.337 433.533 294.611 434.468 291.028C434.7 290.127 434.988 289.244 435.331 288.386C435.622 287.508 435.97 286.655 436.373 285.832C437.144 284.162 438.06 282.576 439.109 281.098C441.09 277.981 443.732 275.432 446.812 273.668C449.888 271.923 453.256 270.874 456.714 270.582C463.59 270.108 470.468 271.478 476.744 274.572C479.927 276.042 482.877 278.047 485.489 280.512C486.153 281.171 486.753 281.902 487.281 282.693C487.898 283.587 488.225 284.679 488.209 285.797C488.14 286.393 487.933 286.961 487.607 287.446C487.302 287.923 486.901 288.317 486.434 288.598C485.556 289.107 484.556 289.311 483.568 289.184C481.772 288.94 480.057 288.228 478.568 287.109C477.094 286.055 475.785 284.75 474.692 283.243C472.429 280.269 471.314 276.455 471.582 272.604C471.946 268.765 473.592 265.206 476.207 262.602C478.859 260.191 482.012 258.523 485.392 257.744C488.711 256.958 492.112 256.654 495.505 256.839C498.88 256.976 502.23 257.535 505.488 258.506Z" fill="#6660AB"/>
<path d="M404.67 143.776C403.587 139.534 403.37 135.085 404.035 130.742C404.614 126.331 406.04 122.101 408.22 118.329C410.385 114.513 413.442 111.391 417.08 109.286C420.766 107.248 424.869 106.271 429 106.449C433.109 106.615 437.146 107.677 440.872 109.57C444.656 111.383 448.03 114.076 450.757 117.461C452.245 119.213 453.161 121.45 453.363 123.827C453.384 125.145 452.927 126.418 452.093 127.373C451.29 128.258 450.3 128.915 449.21 129.288C448.085 129.645 446.883 129.589 445.79 129.129C444.758 128.676 443.817 128.007 443.022 127.16C441.534 125.543 440.321 123.652 439.439 121.575C437.69 117.522 436.589 113.174 436.182 108.718C435.728 104.294 435.854 99.8222 436.557 95.4367C437.83 86.5186 442.145 78.4514 448.64 72.8453C451.888 70.1236 455.595 68.1233 459.551 66.958C463.496 65.8272 467.605 65.5382 471.651 66.1069C475.662 66.6817 479.577 67.8758 483.279 69.6534C486.983 71.3637 490.478 73.5675 493.685 76.2145C487.147 71.2453 479.584 68.1085 471.667 67.0822C467.727 66.607 463.74 66.9684 459.926 68.1461C452.326 70.6205 445.905 76.208 442.012 83.7331C440.122 87.4894 438.828 91.566 438.185 95.7913C436.827 104.275 437.808 113.006 441.002 120.883C441.804 122.786 442.906 124.521 444.259 126.008C444.824 126.733 445.557 127.28 446.382 127.591C447.207 127.903 448.094 127.969 448.95 127.781C449.787 127.493 450.547 126.988 451.164 126.309C451.448 125.993 451.671 125.619 451.819 125.208C451.967 124.796 452.038 124.357 452.027 123.915C451.823 121.925 451.035 120.059 449.78 118.595C447.207 115.386 444.023 112.826 440.449 111.095C436.869 109.27 432.997 108.222 429.049 108.009C425.116 107.783 421.195 108.643 417.649 110.509C414.131 112.447 411.148 115.366 409.002 118.968C406.802 122.582 405.285 126.637 404.541 130.897C403.798 135.156 403.841 139.535 404.67 143.776Z" fill="#6660AB"/>
<path d="M215.78 594.628C214.474 594.183 213.077 594.168 211.764 594.587C210.451 595.006 209.282 595.838 208.404 596.98C207.525 598.122 206.977 599.522 206.829 601.002C206.681 602.483 206.939 603.979 207.57 605.3C208.202 606.621 209.179 607.709 210.378 608.426C211.577 609.142 212.944 609.456 214.307 609.328C215.67 609.199 216.967 608.634 218.035 607.703C219.103 606.772 219.893 605.517 220.307 604.098C220.858 602.188 220.691 600.118 219.842 598.343C218.994 596.568 217.532 595.231 215.78 594.628ZM219.509 603.814C219.148 605.061 218.455 606.164 217.519 606.983C216.582 607.802 215.444 608.3 214.247 608.414C213.051 608.529 211.85 608.254 210.796 607.626C209.743 606.997 208.885 606.043 208.329 604.883C207.774 603.723 207.547 602.411 207.677 601.11C207.807 599.81 208.287 598.581 209.059 597.578C209.83 596.576 210.857 595.845 212.01 595.477C213.162 595.11 214.389 595.123 215.535 595.515C217.071 596.045 218.351 597.216 219.096 598.771C219.84 600.326 219.989 602.139 219.509 603.814V603.814ZM215.78 594.628C214.474 594.183 213.077 594.168 211.764 594.587C210.451 595.006 209.282 595.838 208.404 596.98C207.525 598.122 206.977 599.522 206.829 601.002C206.681 602.483 206.939 603.979 207.57 605.3C208.202 606.621 209.179 607.709 210.378 608.426C211.577 609.142 212.944 609.456 214.307 609.328C215.67 609.199 216.967 608.634 218.035 607.703C219.103 606.772 219.893 605.517 220.307 604.098C220.858 602.188 220.691 600.118 219.842 598.343C218.994 596.568 217.532 595.231 215.78 594.628ZM219.509 603.814C219.148 605.061 218.455 606.164 217.519 606.983C216.582 607.802 215.444 608.3 214.247 608.414C213.051 608.529 211.85 608.254 210.796 607.626C209.743 606.997 208.885 606.043 208.329 604.883C207.774 603.723 207.547 602.411 207.677 601.11C207.807 599.81 208.287 598.581 209.059 597.578C209.83 596.576 210.857 595.845 212.01 595.477C213.162 595.11 214.389 595.123 215.535 595.515C217.071 596.045 218.351 597.216 219.096 598.771C219.84 600.326 219.989 602.139 219.509 603.814V603.814ZM215.78 594.628C214.474 594.183 213.077 594.168 211.764 594.587C210.451 595.006 209.282 595.838 208.404 596.98C207.525 598.122 206.977 599.522 206.829 601.002C206.681 602.483 206.939 603.979 207.57 605.3C208.202 606.621 209.179 607.709 210.378 608.426C211.577 609.142 212.944 609.456 214.307 609.328C215.67 609.199 216.967 608.634 218.035 607.703C219.103 606.772 219.893 605.517 220.307 604.098C220.858 602.188 220.691 600.118 219.842 598.343C218.994 596.568 217.532 595.231 215.78 594.628ZM219.509 603.814C219.148 605.061 218.455 606.164 217.519 606.983C216.582 607.802 215.444 608.3 214.247 608.414C213.051 608.529 211.85 608.254 210.796 607.626C209.743 606.997 208.885 606.043 208.329 604.883C207.774 603.723 207.547 602.411 207.677 601.11C207.807 599.81 208.287 598.581 209.059 597.578C209.83 596.576 210.857 595.845 212.01 595.477C213.162 595.11 214.389 595.123 215.535 595.515C217.071 596.045 218.351 597.216 219.096 598.771C219.84 600.326 219.989 602.139 219.509 603.814V603.814ZM218.092 586.666C215.326 585.702 212.359 585.654 209.568 586.528C206.777 587.403 204.288 589.161 202.416 591.579C200.544 593.996 199.374 596.965 199.054 600.109C198.734 603.252 199.279 606.428 200.62 609.233C201.961 612.038 204.037 614.347 206.585 615.865C209.133 617.383 212.037 618.043 214.93 617.761C217.823 617.478 220.573 616.267 222.833 614.279C225.092 612.292 226.758 609.618 227.619 606.598C228.765 602.579 228.407 598.23 226.623 594.497C224.838 590.764 221.772 587.95 218.092 586.666ZM221.349 604.399C220.874 606.041 219.962 607.493 218.729 608.571C217.496 609.649 215.997 610.304 214.422 610.455C212.847 610.605 211.266 610.244 209.879 609.416C208.493 608.589 207.363 607.332 206.632 605.805C205.901 604.278 205.603 602.55 205.774 600.838C205.945 599.126 206.579 597.508 207.595 596.189C208.61 594.869 209.962 593.907 211.48 593.424C212.998 592.941 214.613 592.959 216.122 593.476C217.126 593.82 218.058 594.378 218.864 595.116C219.67 595.854 220.334 596.758 220.818 597.776C221.302 598.794 221.597 599.907 221.685 601.049C221.774 602.192 221.654 603.342 221.333 604.434L221.349 604.399ZM220.323 604.062C220.737 602.641 220.753 601.118 220.372 599.686C219.99 598.254 219.227 596.978 218.179 596.018C217.131 595.059 215.845 594.459 214.484 594.296C213.123 594.132 211.748 594.412 210.533 595.099C209.318 595.787 208.318 596.851 207.659 598.158C206.999 599.465 206.711 600.955 206.83 602.441C206.949 603.926 207.469 605.339 208.326 606.502C209.183 607.665 210.337 608.526 211.643 608.974C213.386 609.566 215.273 609.386 216.895 608.473C218.517 607.56 219.743 605.988 220.307 604.098L220.323 604.062ZM219.525 603.778C219.164 605.026 218.471 606.128 217.535 606.947C216.598 607.766 215.46 608.264 214.263 608.379C213.067 608.493 211.866 608.219 210.813 607.59C209.759 606.962 208.901 606.007 208.346 604.848C207.79 603.688 207.563 602.375 207.693 601.075C207.823 599.775 208.304 598.546 209.075 597.543C209.846 596.54 210.873 595.809 212.026 595.442C213.179 595.075 214.406 595.088 215.552 595.479C216.314 595.743 217.021 596.169 217.633 596.73C218.245 597.292 218.749 597.98 219.116 598.754C219.484 599.528 219.708 600.373 219.775 601.241C219.842 602.109 219.752 602.984 219.509 603.814L219.525 603.778ZM215.796 594.593C214.491 594.147 213.093 594.133 211.781 594.551C210.468 594.97 209.298 595.803 208.42 596.945C207.542 598.087 206.994 599.486 206.845 600.967C206.697 602.448 206.955 603.943 207.587 605.264C208.218 606.585 209.195 607.673 210.394 608.39C211.593 609.107 212.961 609.421 214.323 609.292C215.686 609.164 216.983 608.598 218.051 607.667C219.119 606.736 219.91 605.482 220.323 604.062C220.864 602.155 220.69 600.092 219.838 598.325C218.987 596.557 217.528 595.228 215.78 594.628L215.796 594.593ZM219.525 603.778C219.164 605.026 218.471 606.128 217.535 606.947C216.598 607.766 215.46 608.264 214.263 608.379C213.067 608.493 211.866 608.219 210.813 607.59C209.759 606.962 208.901 606.007 208.346 604.848C207.79 603.688 207.563 602.375 207.693 601.075C207.823 599.775 208.304 598.546 209.075 597.543C209.846 596.54 210.873 595.809 212.026 595.442C213.179 595.075 214.406 595.088 215.552 595.479C216.314 595.743 217.021 596.169 217.633 596.73C218.245 597.292 218.749 597.98 219.116 598.754C219.484 599.528 219.708 600.373 219.775 601.241C219.842 602.109 219.752 602.984 219.509 603.814L219.525 603.778ZM215.796 594.593C214.491 594.147 213.093 594.133 211.781 594.551C210.468 594.97 209.298 595.803 208.42 596.945C207.542 598.087 206.994 599.486 206.845 600.967C206.697 602.448 206.955 603.943 207.587 605.264C208.218 606.585 209.195 607.673 210.394 608.39C211.593 609.107 212.961 609.421 214.323 609.292C215.686 609.164 216.983 608.598 218.051 607.667C219.119 606.736 219.91 605.482 220.323 604.062C220.864 602.155 220.69 600.092 219.838 598.325C218.987 596.557 217.528 595.228 215.78 594.628L215.796 594.593ZM219.525 603.778C219.164 605.026 218.471 606.128 217.535 606.947C216.598 607.766 215.46 608.264 214.263 608.379C213.067 608.493 211.866 608.219 210.813 607.59C209.759 606.962 208.901 606.007 208.346 604.848C207.79 603.688 207.563 602.375 207.693 601.075C207.823 599.775 208.304 598.546 209.075 597.543C209.846 596.54 210.873 595.809 212.026 595.442C213.179 595.075 214.406 595.088 215.552 595.479C216.314 595.743 217.021 596.169 217.633 596.73C218.245 597.292 218.749 597.98 219.116 598.754C219.484 599.528 219.708 600.373 219.775 601.241C219.842 602.109 219.752 602.984 219.509 603.814L219.525 603.778Z" fill="#6660AB"/>
<path d="M212.177 617.273L206.819 615.429L205.924 619.667L210.679 621.298L212.177 617.273Z" fill="#6660AB"/>
<path d="M202.553 611.811L199.963 606.385L196.576 608.69L198.889 613.513L202.553 611.811Z" fill="#6660AB"/>
<path d="M199.302 600.551L200.996 594.716L197.104 593.741L195.605 598.919L199.302 600.551Z" fill="#6660AB"/>
<path d="M204.311 590.071L209.278 587.251L207.178 583.563L202.748 586.081L204.311 590.071Z" fill="#6660AB"/>
<path d="M214.654 586.525L220.012 588.351L220.908 584.131L216.153 582.499L214.654 586.525Z" fill="#6660AB"/>
<path d="M224.281 591.986L226.871 597.394L230.258 595.107L227.945 590.284L224.281 591.986Z" fill="#6660AB"/>
<path d="M227.537 603.246L225.844 609.08L229.736 610.055L231.234 604.878L227.537 603.246Z" fill="#6660AB"/>
<path d="M222.52 613.726L217.537 616.546L219.654 620.234L224.084 617.716L222.52 613.726Z" fill="#6660AB"/>
<path d="M485.786 543.966C488.416 540.107 489.937 535.486 490.155 530.686C490.373 525.886 489.278 521.124 487.011 517.002C484.743 512.88 481.403 509.582 477.414 507.527C473.425 505.471 468.965 504.75 464.6 505.455C460.234 506.16 456.159 508.258 452.889 511.485C449.619 514.712 447.301 518.923 446.229 523.584C445.157 528.246 445.378 533.149 446.865 537.673C448.353 542.197 451.039 546.14 454.584 549.002C459.335 552.838 465.291 554.462 471.142 553.517C476.994 552.573 482.261 549.137 485.786 543.966V543.966ZM476.243 536.252C475.014 538.055 473.322 539.42 471.38 540.175C469.439 540.931 467.335 541.042 465.335 540.495C463.336 539.948 461.53 538.768 460.146 537.103C458.763 535.439 457.864 533.365 457.563 531.144C457.262 528.923 457.573 526.655 458.456 524.626C459.34 522.597 460.756 520.9 462.525 519.747C464.295 518.595 466.338 518.041 468.398 518.153C470.457 518.266 472.439 519.041 474.093 520.381C475.193 521.268 476.121 522.383 476.824 523.662C477.527 524.94 477.992 526.357 478.192 527.831C478.391 529.305 478.322 530.808 477.988 532.253C477.653 533.698 477.06 535.057 476.243 536.252V536.252Z" fill="#6660AB"/>
<path d="M458.576 550.97L451.687 545.402L448.463 551.024L454.586 555.971L458.576 550.97Z" fill="#6660AB"/>
<path d="M447.19 537.848L445.936 528.609L439.992 530.081L441.116 538.309L447.19 537.848Z" fill="#6660AB"/>
<path d="M447.665 519.796L452.778 512.296L447.616 508.767L443.072 515.434L447.665 519.796Z" fill="#6660AB"/>
<path d="M459.714 507.402L468.199 506.036L466.847 499.564L459.291 500.788L459.714 507.402Z" fill="#6660AB"/>
<path d="M476.289 507.898L483.178 513.466L486.402 507.863L480.279 502.898L476.289 507.898Z" fill="#6660AB"/>
<path d="M487.674 521.037L488.928 530.276L494.872 528.786L493.748 520.576L487.674 521.037Z" fill="#6660AB"/>
<path d="M487.207 539.072L482.094 546.573L487.256 550.102L491.8 543.434L487.207 539.072Z" fill="#6660AB"/>
<path d="M475.153 551.485L466.668 552.85L468.02 559.305L475.576 558.099L475.153 551.485Z" fill="#6660AB"/>
<path d="M459.893 530.649L464.632 537.156L472.172 535.933L474.973 528.219L470.234 521.711L462.694 522.935L459.893 530.649ZM468.866 527.333C469.12 527.539 469.335 527.797 469.498 528.094C469.66 528.39 469.768 528.719 469.814 529.06C469.86 529.402 469.844 529.75 469.766 530.085C469.689 530.42 469.552 530.735 469.362 531.012C469.173 531.289 468.936 531.523 468.663 531.7C468.391 531.877 468.089 531.994 467.776 532.045C467.462 532.095 467.142 532.077 466.835 531.993C466.527 531.909 466.238 531.759 465.983 531.553C465.471 531.133 465.132 530.51 465.04 529.818C464.949 529.127 465.112 528.425 465.495 527.865C465.686 527.591 465.926 527.361 466.199 527.189C466.473 527.017 466.775 526.905 467.089 526.86C467.402 526.816 467.72 526.839 468.025 526.93C468.33 527.02 468.616 527.175 468.866 527.386V527.333Z" fill="#6660AB"/>
<path d="M502.514 70.948C501.372 70.5564 500.148 70.5424 498.998 70.9078C497.848 71.2732 496.824 72.0015 496.054 73.0008C495.284 74.0001 494.804 75.2254 494.673 76.522C494.543 77.8185 494.768 79.1281 495.321 80.2851C495.874 81.4422 496.73 82.3947 497.78 83.0225C498.83 83.6502 500.027 83.9249 501.22 83.8119C502.414 83.6989 503.549 83.2032 504.484 82.3875C505.419 81.5718 506.11 80.4727 506.471 79.2291C506.714 78.4025 506.803 77.5319 506.735 76.6674C506.668 75.8029 506.443 74.9616 506.075 74.1919C505.708 73.4222 505.204 72.7393 504.592 72.1826C503.981 71.6258 503.275 71.2063 502.514 70.948V70.948ZM505.771 78.9809C505.454 80.0751 504.847 81.0424 504.025 81.7604C503.203 82.4784 502.204 82.9148 501.154 83.0144C500.105 83.1139 499.052 82.8722 498.128 82.3197C497.205 81.7673 496.452 80.929 495.967 79.9109C495.481 78.8928 495.283 77.7406 495.399 76.6003C495.515 75.4599 495.939 74.3826 496.617 73.5047C497.296 72.6268 498.198 71.9877 499.21 71.6683C500.222 71.3489 501.298 71.3636 502.302 71.7105C503.647 72.1749 504.768 73.2014 505.418 74.5644C506.068 75.9275 506.195 77.5159 505.771 78.9809V78.9809ZM502.514 70.948C501.372 70.5564 500.148 70.5424 498.998 70.9078C497.848 71.2732 496.824 72.0015 496.054 73.0008C495.284 74.0001 494.804 75.2254 494.673 76.522C494.543 77.8185 494.768 79.1281 495.321 80.2851C495.874 81.4422 496.73 82.3947 497.78 83.0225C498.83 83.6502 500.027 83.9249 501.22 83.8119C502.414 83.6989 503.549 83.2032 504.484 82.3875C505.419 81.5718 506.11 80.4727 506.471 79.2291C506.714 78.4025 506.803 77.5319 506.735 76.6674C506.668 75.8029 506.443 74.9616 506.075 74.1919C505.708 73.4222 505.204 72.7393 504.592 72.1826C503.981 71.6258 503.275 71.2063 502.514 70.948V70.948ZM505.771 78.9809C505.454 80.0751 504.847 81.0424 504.025 81.7604C503.203 82.4784 502.204 82.9148 501.154 83.0144C500.105 83.1139 499.052 82.8722 498.128 82.3197C497.205 81.7673 496.452 80.929 495.967 79.9109C495.481 78.8928 495.283 77.7406 495.399 76.6003C495.515 75.4599 495.939 74.3826 496.617 73.5047C497.296 72.6268 498.198 71.9877 499.21 71.6683C500.222 71.3489 501.298 71.3636 502.302 71.7105C503.647 72.1749 504.768 73.2014 505.418 74.5644C506.068 75.9275 506.195 77.5159 505.771 78.9809V78.9809ZM502.514 70.948C501.372 70.5564 500.148 70.5424 498.998 70.9078C497.848 71.2732 496.824 72.0015 496.054 73.0008C495.284 74.0001 494.804 75.2254 494.673 76.522C494.543 77.8185 494.768 79.1281 495.321 80.2851C495.874 81.4422 496.73 82.3947 497.78 83.0225C498.83 83.6502 500.027 83.9249 501.22 83.8119C502.414 83.6989 503.549 83.2032 504.484 82.3875C505.419 81.5718 506.11 80.4727 506.471 79.2291C506.714 78.4025 506.803 77.5319 506.735 76.6674C506.668 75.8029 506.443 74.9616 506.075 74.1919C505.708 73.4222 505.204 72.7393 504.592 72.1826C503.981 71.6258 503.275 71.2063 502.514 70.948V70.948ZM505.771 78.9809C505.454 80.0751 504.847 81.0424 504.025 81.7604C503.203 82.4784 502.204 82.9148 501.154 83.0144C500.105 83.1139 499.052 82.8722 498.128 82.3197C497.205 81.7673 496.452 80.929 495.967 79.9109C495.481 78.8928 495.283 77.7406 495.399 76.6003C495.515 75.4599 495.939 74.3826 496.617 73.5047C497.296 72.6268 498.198 71.9877 499.21 71.6683C500.222 71.3489 501.298 71.3636 502.302 71.7105C503.647 72.1749 504.768 73.2014 505.418 74.5644C506.068 75.9275 506.195 77.5159 505.771 78.9809V78.9809ZM504.533 63.9791C502.125 63.153 499.547 63.123 497.123 63.8926C494.699 64.6623 492.539 66.1971 490.917 68.3031C489.294 70.4091 488.281 72.9917 488.006 75.7244C487.731 78.4572 488.206 81.2174 489.371 83.6561C490.537 86.0949 492.34 88.1026 494.553 89.4257C496.766 90.7487 499.29 91.3275 501.805 91.0891C504.32 90.8506 506.714 89.8055 508.684 88.0859C510.653 86.3663 512.111 84.0493 512.871 81.428C513.888 77.9101 513.581 74.0969 512.017 70.8254C510.454 67.5539 507.762 65.0916 504.533 63.9791V63.9791ZM507.367 79.5306C506.951 80.9698 506.152 82.2421 505.071 83.1866C503.991 84.1311 502.677 84.7052 501.296 84.8363C499.916 84.9674 498.531 84.6496 497.316 83.9231C496.102 83.1967 495.113 82.0942 494.474 80.7552C493.835 79.4162 493.575 77.901 493.728 76.4013C493.88 74.9016 494.438 73.4848 495.33 72.3304C496.222 71.1759 497.409 70.3357 498.74 69.916C500.071 69.4963 501.487 69.516 502.807 69.9727C504.575 70.5838 506.047 71.9333 506.902 73.7251C507.757 75.5169 507.924 77.6047 507.367 79.5306V79.5306ZM506.471 79.2291C506.832 77.9844 506.846 76.6511 506.51 75.398C506.175 74.1449 505.506 73.0283 504.587 72.1895C503.669 71.3507 502.543 70.8274 501.351 70.6859C500.16 70.5444 498.956 70.791 497.893 71.3945C496.83 71.998 495.956 72.9313 495.38 74.0762C494.805 75.2211 494.554 76.5263 494.66 77.8264C494.766 79.1266 495.224 80.3633 495.975 81.38C496.727 82.3967 497.739 83.1478 498.883 83.5382C500.414 84.0607 502.073 83.9005 503.495 83.0926C504.918 82.2848 505.988 80.8953 506.471 79.2291V79.2291ZM505.771 78.9809C505.454 80.0751 504.847 81.0424 504.025 81.7604C503.203 82.4784 502.204 82.9148 501.154 83.0144C500.105 83.1139 499.052 82.8722 498.128 82.3197C497.205 81.7673 496.452 80.929 495.967 79.9109C495.481 78.8928 495.283 77.7406 495.399 76.6003C495.515 75.4599 495.939 74.3826 496.617 73.5047C497.296 72.6268 498.198 71.9877 499.21 71.6683C500.222 71.3489 501.298 71.3636 502.302 71.7105C503.647 72.1749 504.768 73.2014 505.418 74.5644C506.068 75.9275 506.195 77.5159 505.771 78.9809V78.9809ZM502.514 70.948C501.372 70.5564 500.148 70.5424 498.998 70.9078C497.848 71.2732 496.824 72.0015 496.054 73.0008C495.284 74.0001 494.804 75.2254 494.673 76.522C494.543 77.8185 494.768 79.1281 495.321 80.2851C495.874 81.4422 496.73 82.3947 497.78 83.0225C498.83 83.6502 500.027 83.9249 501.22 83.8119C502.414 83.6989 503.549 83.2032 504.484 82.3875C505.419 81.5718 506.11 80.4727 506.471 79.2291C506.714 78.4025 506.803 77.5319 506.735 76.6674C506.668 75.8029 506.443 74.9616 506.075 74.1919C505.708 73.4222 505.204 72.7393 504.592 72.1826C503.981 71.6258 503.275 71.2063 502.514 70.948V70.948ZM505.771 78.9809C505.454 80.0751 504.847 81.0424 504.025 81.7604C503.203 82.4784 502.204 82.9148 501.154 83.0144C500.105 83.1139 499.052 82.8722 498.128 82.3197C497.205 81.7673 496.452 80.929 495.967 79.9109C495.481 78.8928 495.283 77.7406 495.399 76.6003C495.515 75.4599 495.939 74.3826 496.617 73.5047C497.296 72.6268 498.198 71.9877 499.21 71.6683C500.222 71.3489 501.298 71.3636 502.302 71.7105C503.647 72.1749 504.768 73.2014 505.418 74.5644C506.068 75.9275 506.195 77.5159 505.771 78.9809V78.9809ZM502.514 70.948C501.372 70.5564 500.148 70.5424 498.998 70.9078C497.848 71.2732 496.824 72.0015 496.054 73.0008C495.284 74.0001 494.804 75.2254 494.673 76.522C494.543 77.8185 494.768 79.1281 495.321 80.2851C495.874 81.4422 496.73 82.3947 497.78 83.0225C498.83 83.6502 500.027 83.9249 501.22 83.8119C502.414 83.6989 503.549 83.2032 504.484 82.3875C505.419 81.5718 506.11 80.4727 506.471 79.2291C506.714 78.4025 506.803 77.5319 506.735 76.6674C506.668 75.8029 506.443 74.9616 506.075 74.1919C505.708 73.4222 505.204 72.7393 504.592 72.1826C503.981 71.6258 503.275 71.2063 502.514 70.948V70.948ZM505.771 78.9809C505.454 80.0751 504.847 81.0424 504.025 81.7604C503.203 82.4784 502.204 82.9148 501.154 83.0144C500.105 83.1139 499.052 82.8722 498.128 82.3197C497.205 81.7673 496.452 80.929 495.967 79.9109C495.481 78.8928 495.283 77.7406 495.399 76.6003C495.515 75.4599 495.939 74.3826 496.617 73.5047C497.296 72.6268 498.198 71.9877 499.21 71.6683C500.222 71.3489 501.298 71.3636 502.302 71.7105C503.647 72.1749 504.768 73.2014 505.418 74.5644C506.068 75.9275 506.195 77.5159 505.771 78.9809V78.9809Z" fill="#6660AB"/>
<path d="M499.351 90.7549L494.677 89.1589L493.879 92.8473L498.048 94.2837L499.351 90.7549Z" fill="#6660AB"/>
<path d="M490.93 85.985L488.666 81.2327L485.719 83.2542L487.722 87.4746L490.93 85.985Z" fill="#6660AB"/>
<path d="M488.086 76.1259L489.568 71.0189L486.164 70.1677L484.861 74.7073L488.086 76.1259Z" fill="#6660AB"/>
<path d="M492.477 66.9578L496.825 64.493L494.985 61.2656L491.109 63.4645L492.477 66.9578Z" fill="#6660AB"/>
<path d="M501.537 63.8547L506.211 65.4507L507.009 61.7623L502.84 60.3259L501.537 63.8547Z" fill="#6660AB"/>
<path d="M509.957 68.625L512.221 73.3774L515.185 71.3559L513.165 67.1355L509.957 68.625Z" fill="#6660AB"/>
<path d="M512.804 78.4839L511.322 83.5909L514.726 84.4421L516.029 79.9025L512.804 78.4839Z" fill="#6660AB"/>
<path d="M508.407 87.6516L504.059 90.1342L505.899 93.3438L509.775 91.1449L508.407 87.6516Z" fill="#6660AB"/>
<path d="M440.285 324.294C439.142 323.901 437.917 323.886 436.767 324.251C435.616 324.617 434.59 325.345 433.82 326.345C433.05 327.345 432.569 328.572 432.439 329.869C432.309 331.167 432.536 332.477 433.09 333.634C433.644 334.792 434.501 335.744 435.553 336.371C436.604 336.998 437.803 337.271 438.997 337.155C440.191 337.04 441.326 336.541 442.26 335.723C443.194 334.904 443.884 333.803 444.242 332.557C444.722 330.89 444.575 329.084 443.833 327.534C443.091 325.985 441.815 324.82 440.285 324.294V324.294ZM443.542 332.327C443.225 333.421 442.617 334.388 441.796 335.106C440.974 335.824 439.975 336.261 438.925 336.36C437.876 336.46 436.822 336.218 435.899 335.666C434.975 335.113 434.223 334.275 433.737 333.257C433.252 332.239 433.054 331.086 433.17 329.946C433.286 328.806 433.71 327.728 434.388 326.851C435.066 325.973 435.969 325.334 436.981 325.014C437.993 324.695 439.069 324.709 440.073 325.056C440.739 325.286 441.356 325.657 441.89 326.147C442.424 326.637 442.864 327.236 443.185 327.912C443.505 328.587 443.7 329.325 443.759 330.082C443.817 330.84 443.738 331.603 443.526 332.327H443.542ZM440.285 324.294C439.142 323.901 437.917 323.886 436.767 324.251C435.616 324.617 434.59 325.345 433.82 326.345C433.05 327.345 432.569 328.572 432.439 329.869C432.309 331.167 432.536 332.477 433.09 333.634C433.644 334.792 434.501 335.744 435.553 336.371C436.604 336.998 437.803 337.271 438.997 337.155C440.191 337.04 441.326 336.541 442.26 335.723C443.194 334.904 443.884 333.803 444.242 332.557C444.722 330.89 444.575 329.084 443.833 327.534C443.091 325.985 441.815 324.82 440.285 324.294V324.294ZM443.542 332.327C443.225 333.421 442.617 334.388 441.796 335.106C440.974 335.824 439.975 336.261 438.925 336.36C437.876 336.46 436.822 336.218 435.899 335.666C434.975 335.113 434.223 334.275 433.737 333.257C433.252 332.239 433.054 331.086 433.17 329.946C433.286 328.806 433.71 327.728 434.388 326.851C435.066 325.973 435.969 325.334 436.981 325.014C437.993 324.695 439.069 324.709 440.073 325.056C440.739 325.286 441.356 325.657 441.89 326.147C442.424 326.637 442.864 327.236 443.185 327.912C443.505 328.587 443.7 329.325 443.759 330.082C443.817 330.84 443.738 331.603 443.526 332.327H443.542ZM440.285 324.294C439.142 323.901 437.917 323.886 436.767 324.251C435.616 324.617 434.59 325.345 433.82 326.345C433.05 327.345 432.569 328.572 432.439 329.869C432.309 331.167 432.536 332.477 433.09 333.634C433.644 334.792 434.501 335.744 435.553 336.371C436.604 336.998 437.803 337.271 438.997 337.155C440.191 337.04 441.326 336.541 442.26 335.723C443.194 334.904 443.884 333.803 444.242 332.557C444.722 330.89 444.575 329.084 443.833 327.534C443.091 325.985 441.815 324.82 440.285 324.294V324.294ZM443.542 332.327C443.225 333.421 442.617 334.388 441.796 335.106C440.974 335.824 439.975 336.261 438.925 336.36C437.876 336.46 436.822 336.218 435.899 335.666C434.975 335.113 434.223 334.275 433.737 333.257C433.252 332.239 433.054 331.086 433.17 329.946C433.286 328.806 433.71 327.728 434.388 326.851C435.066 325.973 435.969 325.334 436.981 325.014C437.993 324.695 439.069 324.709 440.073 325.056C440.739 325.286 441.356 325.657 441.89 326.147C442.424 326.637 442.864 327.236 443.185 327.912C443.505 328.587 443.7 329.325 443.759 330.082C443.817 330.84 443.738 331.603 443.526 332.327H443.542ZM442.321 317.307C439.913 316.481 437.334 316.451 434.91 317.221C432.486 317.99 430.326 319.525 428.704 321.631C427.081 323.737 426.068 326.32 425.793 329.053C425.518 331.785 425.993 334.546 427.158 336.984C428.324 339.423 430.127 341.431 432.34 342.754C434.553 344.077 437.077 344.656 439.592 344.417C442.107 344.179 444.501 343.134 446.471 341.414C448.44 339.694 449.898 337.377 450.659 334.756C451.676 331.243 451.374 327.434 449.817 324.163C448.26 320.892 445.576 318.427 442.353 317.307H442.321ZM445.154 332.876C444.739 334.315 443.941 335.588 442.862 336.533C441.782 337.478 440.469 338.054 439.09 338.187C437.71 338.319 436.325 338.003 435.11 337.279C433.895 336.554 432.904 335.454 432.264 334.116C431.624 332.778 431.362 331.264 431.512 329.765C431.662 328.265 432.217 326.848 433.107 325.692C433.997 324.536 435.182 323.694 436.512 323.271C437.842 322.849 439.257 322.865 440.578 323.319C442.345 323.93 443.818 325.279 444.673 327.071C445.528 328.863 445.695 330.951 445.138 332.876H445.154ZM444.259 332.557C444.618 331.313 444.631 329.981 444.295 328.729C443.96 327.477 443.291 326.361 442.373 325.523C441.455 324.685 440.33 324.161 439.139 324.019C437.949 323.877 436.746 324.123 435.684 324.725C434.621 325.327 433.746 326.259 433.17 327.402C432.593 328.545 432.341 329.849 432.445 331.148C432.548 332.448 433.004 333.684 433.753 334.702C434.502 335.72 435.511 336.473 436.653 336.866C438.184 337.389 439.843 337.229 441.266 336.421C442.689 335.613 443.759 334.223 444.242 332.557H444.259ZM443.542 332.327C443.225 333.421 442.617 334.388 441.796 335.106C440.974 335.824 439.975 336.261 438.925 336.36C437.876 336.46 436.822 336.218 435.899 335.666C434.975 335.113 434.223 334.275 433.737 333.257C433.252 332.239 433.054 331.086 433.17 329.946C433.286 328.806 433.71 327.728 434.388 326.851C435.066 325.973 435.969 325.334 436.981 325.014C437.993 324.695 439.069 324.709 440.073 325.056C440.739 325.286 441.356 325.657 441.89 326.147C442.424 326.637 442.864 327.236 443.185 327.912C443.505 328.587 443.7 329.325 443.759 330.082C443.817 330.84 443.738 331.603 443.526 332.327H443.542ZM440.285 324.294C439.142 323.901 437.917 323.886 436.767 324.251C435.616 324.617 434.59 325.345 433.82 326.345C433.05 327.345 432.569 328.572 432.439 329.869C432.309 331.167 432.536 332.477 433.09 333.634C433.644 334.792 434.501 335.744 435.553 336.371C436.604 336.998 437.803 337.271 438.997 337.155C440.191 337.04 441.326 336.541 442.26 335.723C443.194 334.904 443.884 333.803 444.242 332.557C444.722 330.89 444.575 329.084 443.833 327.534C443.091 325.985 441.815 324.82 440.285 324.294V324.294ZM443.542 332.327C443.225 333.421 442.617 334.388 441.796 335.106C440.974 335.824 439.975 336.261 438.925 336.36C437.876 336.46 436.822 336.218 435.899 335.666C434.975 335.113 434.223 334.275 433.737 333.257C433.252 332.239 433.054 331.086 433.17 329.946C433.286 328.806 433.71 327.728 434.388 326.851C435.066 325.973 435.969 325.334 436.981 325.014C437.993 324.695 439.069 324.709 440.073 325.056C440.739 325.286 441.356 325.657 441.89 326.147C442.424 326.637 442.864 327.236 443.185 327.912C443.505 328.587 443.7 329.325 443.759 330.082C443.817 330.84 443.738 331.603 443.526 332.327H443.542ZM440.285 324.294C439.142 323.901 437.917 323.886 436.767 324.251C435.616 324.617 434.59 325.345 433.82 326.345C433.05 327.345 432.569 328.572 432.439 329.869C432.309 331.167 432.536 332.477 433.09 333.634C433.644 334.792 434.501 335.744 435.553 336.371C436.604 336.998 437.803 337.271 438.997 337.155C440.191 337.04 441.326 336.541 442.26 335.723C443.194 334.904 443.884 333.803 444.242 332.557C444.722 330.89 444.575 329.084 443.833 327.534C443.091 325.985 441.815 324.82 440.285 324.294V324.294ZM443.542 332.327C443.225 333.421 442.617 334.388 441.796 335.106C440.974 335.824 439.975 336.261 438.925 336.36C437.876 336.46 436.822 336.218 435.899 335.666C434.975 335.113 434.223 334.275 433.737 333.257C433.252 332.239 433.054 331.086 433.17 329.946C433.286 328.806 433.71 327.728 434.388 326.851C435.066 325.973 435.969 325.334 436.981 325.014C437.993 324.695 439.069 324.709 440.073 325.056C440.739 325.286 441.356 325.657 441.89 326.147C442.424 326.637 442.864 327.236 443.185 327.912C443.505 328.587 443.7 329.325 443.759 330.082C443.817 330.84 443.738 331.603 443.526 332.327H443.542Z" fill="#6660AB"/>
<path d="M437.126 344.102L432.436 342.488L431.654 346.194L435.823 347.613L437.126 344.102Z" fill="#6660AB"/>
<path d="M428.71 339.314L426.446 334.579L423.482 336.583L425.502 340.803L428.71 339.314Z" fill="#6660AB"/>
<path d="M425.86 329.455L427.326 324.365L423.938 323.514L422.619 328.036L425.86 329.455Z" fill="#6660AB"/>
<path d="M430.235 320.287L434.6 317.822L432.743 314.595L428.867 316.794L430.235 320.287Z" fill="#6660AB"/>
<path d="M439.293 317.183L443.983 318.797L444.765 315.091L440.596 313.672L439.293 317.183Z" fill="#6660AB"/>
<path d="M447.715 321.971L449.978 326.705L452.942 324.702L450.923 320.481L447.715 321.971Z" fill="#6660AB"/>
<path d="M450.562 331.83L449.08 336.92L452.484 337.788L453.803 333.249L450.562 331.83Z" fill="#6660AB"/>
<path d="M446.179 340.998L441.814 343.463L443.671 346.69L447.547 344.492L446.179 340.998Z" fill="#6660AB"/>
<path d="M84.078 124.855C84.9747 120.838 84.7573 116.621 83.4535 112.739C82.1497 108.856 79.8179 105.481 76.7529 103.041C73.6879 100.601 70.0274 99.2051 66.234 99.03C62.4406 98.8549 58.6847 99.9084 55.4411 102.057C52.1975 104.206 49.6118 107.354 48.0109 111.103C46.41 114.852 45.8658 119.033 46.447 123.119C47.0283 127.204 48.7088 131.01 51.2764 134.056C53.8439 137.102 57.183 139.25 60.8717 140.229C65.8212 141.539 71.0457 140.655 75.3972 137.772C79.7486 134.89 82.8709 130.244 84.078 124.855V124.855ZM74.1278 122.213C73.7056 124.094 72.7799 125.795 71.4681 127.102C70.1564 128.409 68.5177 129.261 66.7601 129.552C65.0024 129.843 63.205 129.559 61.5959 128.736C59.9868 127.913 58.6385 126.588 57.7221 124.929C56.8057 123.27 56.3626 121.352 56.4488 119.419C56.5351 117.485 57.147 115.623 58.2067 114.069C59.2665 112.514 60.7264 111.338 62.4012 110.688C64.076 110.039 65.8903 109.946 67.6137 110.421C69.9132 111.042 71.8931 112.629 73.12 114.836C74.347 117.043 74.7211 119.689 74.1604 122.195L74.1278 122.213Z" fill="#6660AB"/>
<path d="M64.6842 140.318L57.5024 138.421L56.6719 144.06L63.0394 145.744L64.6842 140.318Z" fill="#6660AB"/>
<path d="M51.6093 134.058L47.766 127.196L43.5156 130.53L46.9355 136.647L51.6093 134.058Z" fill="#6660AB"/>
<path d="M46.4286 119.571L48.1711 111.769L43.0087 110.847L41.4453 117.798L46.4286 119.571Z" fill="#6660AB"/>
<path d="M52.1758 105.349L58.4782 101.164L55.4165 96.5361L49.8145 100.26L52.1758 105.349Z" fill="#6660AB"/>
<path d="M65.4805 99.7106L72.6622 101.608L73.4928 95.969L67.109 94.2844L65.4805 99.7106Z" fill="#6660AB"/>
<path d="M78.5605 105.97L82.3876 112.832L86.6543 109.498L83.2344 103.381L78.5605 105.97Z" fill="#6660AB"/>
<path d="M83.7373 120.458L81.9785 128.26L87.1572 129.182L88.7206 122.231L83.7373 120.458Z" fill="#6660AB"/>
<path d="M77.9905 134.678L71.6719 138.863L74.7498 143.492L80.3519 139.785L77.9905 134.678Z" fill="#6660AB"/>
<path d="M59.4727 123.738L65.2377 127.16L70.8398 123.437L70.6932 116.343L64.9283 112.903L59.3262 116.609L59.4727 123.738ZM65.5797 117.762C65.9797 117.869 66.3416 118.103 66.6195 118.435C66.8975 118.766 67.0791 119.179 67.1413 119.623C67.2036 120.066 67.1438 120.52 66.9695 120.926C66.7951 121.333 66.514 121.674 66.1617 121.907C65.8094 122.139 65.4017 122.253 64.9901 122.234C64.5784 122.214 64.1813 122.062 63.849 121.797C63.5166 121.532 63.2638 121.165 63.1226 120.744C62.9813 120.322 62.958 119.865 63.0555 119.429C63.1903 118.845 63.5309 118.343 64.0034 118.031C64.4758 117.719 65.0422 117.623 65.5797 117.762Z" fill="#6660AB"/>
</svg>
