<svg width="227" height="205" viewBox="0 0 227 205" fill="none" xmlns="http://www.w3.org/2000/svg">
<g clip-path="url(#clip0_2966_1750)">
<path d="M7.35545 0.0865446C6.29556 0.0728395 5.24552 0.291335 4.27907 0.726685C3.31262 1.16203 2.4532 1.80368 1.76117 2.60657C1.06914 3.40945 0.561269 4.3541 0.273236 5.37418C-0.0147972 6.39426 -0.0760119 7.46502 0.0938908 8.51128L30.9206 195.645C31.3045 197.935 32.4832 200.016 34.2495 201.524C36.0158 203.031 38.2567 203.868 40.5787 203.887H188.466C190.206 203.909 191.897 203.305 193.23 202.186C194.562 201.066 195.448 199.505 195.727 197.787L226.554 8.54757C226.724 7.50138 226.662 6.43073 226.374 5.41081C226.086 4.39089 225.578 3.44642 224.886 2.64373C224.194 1.84103 223.334 1.19957 222.368 0.764378C221.402 0.329188 220.352 0.110822 219.292 0.124613L7.35545 0.0865446ZM137.161 135.336H89.9586L77.1778 68.5645H148.598L137.161 135.336Z" fill="#6660AB"/>
<path d="M216.567 68.4727H148.47L137.041 135.191H89.8772L34.1875 201.291C35.9526 202.818 38.203 203.666 40.5363 203.685H188.342C190.081 203.708 191.771 203.105 193.102 201.986C194.434 200.867 195.32 199.308 195.598 197.591L216.568 68.4727H216.567Z" fill="url(#paint0_linear_2966_1750)"/>
</g>
<defs>
<linearGradient id="paint0_linear_2966_1750" x1="232.313" y1="87.1564" x2="153.653" y2="198.848" gradientUnits="userSpaceOnUse">
<stop offset="0.18" stop-color="#352D8B"/>
<stop offset="1" stop-color="#6660AB"/>
</linearGradient>
<clipPath id="clip0_2966_1750">
<rect width="226.647" height="204.51" fill="white" transform="translate(0 0.0878906)"/>
</clipPath>
</defs>
</svg>
