<svg width="215" height="189" viewBox="0 0 215 189" fill="none" xmlns="http://www.w3.org/2000/svg">
<g clip-path="url(#clip0_1124_2059)">
<g style="mix-blend-mode:multiply">
<ellipse cx="91" cy="86.09" rx="28" ry="29.0236" fill="#AAA7CC"/>
</g>
<g style="mix-blend-mode:multiply">
<ellipse cx="124" cy="79.3166" rx="28" ry="29.0236" fill="#F9C48C"/>
</g>
<g style="mix-blend-mode:multiply">
<ellipse cx="108" cy="118.981" rx="28" ry="29.0236" fill="#C0E0B9"/>
</g>
<path d="M205.433 63.7148H140.835L129.994 124.944H85.2536L32.4258 185.608C34.1002 187.008 36.2349 187.787 38.4483 187.805H178.659C180.308 187.825 181.911 187.272 183.174 186.245C184.438 185.219 185.278 183.787 185.542 182.211L205.434 63.7148H205.433Z" fill="url(#paint0_linear_1124_2059)"/>
<path d="M6.97746 0.953682C5.97204 0.941105 4.97596 1.14163 4.05917 1.54116C3.14239 1.9407 2.32714 2.52956 1.67066 3.2664C1.01419 4.00324 0.532426 4.87018 0.259194 5.80634C-0.0140368 6.74251 -0.0721057 7.72519 0.0890658 8.68537L29.3316 180.425C29.6958 182.526 30.8139 184.437 32.4894 185.82C34.165 187.203 36.2908 187.971 38.4934 187.989H178.781C180.432 188.009 182.036 187.455 183.3 186.428C184.564 185.4 185.405 183.968 185.668 182.391L214.912 8.71869C215.073 7.75855 215.014 6.77598 214.741 5.83996C214.468 4.90394 213.986 4.03717 213.329 3.3005C212.673 2.56384 211.857 1.97514 210.941 1.57576C210.024 1.17637 209.028 0.975963 208.023 0.988619L6.97746 0.953682ZM130.112 125.077H85.3357L73.2117 63.7985H140.962L130.112 125.077Z" fill="#6660AB"/>
<path d="M205.007 63.8359H140.41L129.568 125.065H84.8278L32 185.729C33.6744 187.129 35.8091 187.908 38.0225 187.926H178.233C179.883 187.946 181.485 187.393 182.749 186.366C184.012 185.34 184.852 183.908 185.116 182.332L205.009 63.8359H205.007Z" fill="url(#paint1_linear_1124_2059)"/>
</g>
<defs>
<linearGradient id="paint0_linear_1124_2059" x1="220.37" y1="80.8616" x2="149.015" y2="185.589" gradientUnits="userSpaceOnUse">
<stop offset="0.18" stop-color="#352D8B"/>
<stop offset="1" stop-color="#6660AB"/>
</linearGradient>
<linearGradient id="paint1_linear_1124_2059" x1="219.944" y1="80.9827" x2="148.589" y2="185.71" gradientUnits="userSpaceOnUse">
<stop offset="0.18" stop-color="#352D8B"/>
<stop offset="1" stop-color="#6660AB"/>
</linearGradient>
<clipPath id="clip0_1124_2059">
<rect width="215" height="187.686" fill="white" transform="translate(0 0.953125)"/>
</clipPath>
</defs>
</svg>
