<svg width="180" height="162" viewBox="0 0 180 162" fill="none" xmlns="http://www.w3.org/2000/svg">
<path d="M5.82702 0.000480927C4.98737 -0.0103763 4.15552 0.162716 3.38989 0.507602C2.62427 0.852488 1.94344 1.3608 1.3952 1.99685C0.846973 2.6329 0.444639 3.38126 0.216458 4.18936C-0.0117224 4.99747 -0.0602169 5.84574 0.0743806 6.67458L24.4954 154.922C24.7996 156.736 25.7333 158.385 27.1326 159.58C28.5318 160.774 30.3071 161.437 32.1466 161.452H149.303C150.682 161.469 152.021 160.991 153.077 160.104C154.133 159.217 154.835 157.981 155.055 156.62L179.477 6.70334C179.611 5.87454 179.563 5.02637 179.334 4.21838C179.106 3.4104 178.704 2.66219 178.155 2.02629C177.607 1.39039 176.926 0.882222 176.161 0.537463C175.395 0.192704 174.563 0.0197138 173.724 0.0306392L5.82702 0.000480927ZM108.659 107.145H71.2655L61.1405 54.249H117.72L108.659 107.145Z" fill="#FAFAFA"/>
</svg>
