<svg width="29" height="29" viewBox="0 0 29 29" fill="none" xmlns="http://www.w3.org/2000/svg">
<path d="M1.22483 12.5754L20.593 6.98468C20.7886 6.92829 20.9961 6.92836 21.1916 6.98488C21.3871 7.04141 21.5626 7.15209 21.6979 7.30413C21.8332 7.45617 21.9227 7.64338 21.9562 7.84414C21.9896 8.0449 21.9656 8.25102 21.8868 8.43869L14.0833 27.026C14.0033 27.2167 13.8703 27.3805 13.6999 27.4978C13.5296 27.6151 13.3291 27.6809 13.1224 27.6875C12.9157 27.6941 12.7114 27.6411 12.534 27.5348C12.3565 27.4286 12.2133 27.2736 12.1215 27.0883L9.04673 20.8958C9.00903 20.8199 8.99449 20.7346 9.00494 20.6506C9.01539 20.5665 9.05035 20.4873 9.10547 20.423L14.8931 13.6706C14.9171 13.6423 14.9334 13.6084 14.9404 13.5719C14.9475 13.5355 14.945 13.4979 14.9333 13.4627L14.9088 13.4117C14.8818 13.3712 14.842 13.341 14.7957 13.326C14.7494 13.3109 14.6994 13.312 14.6538 13.329L14.6097 13.3509L7.23754 18.3095C7.16724 18.3565 7.08466 18.3819 7.00006 18.3824C6.91547 18.3829 6.8326 18.3585 6.76174 18.3123L0.934976 14.5167C0.761595 14.4039 0.624278 14.2437 0.539383 14.0551C0.454487 13.8665 0.42559 13.6575 0.456133 13.4529C0.486676 13.2484 0.575372 13.0569 0.711657 12.9013C0.847942 12.7457 1.02607 12.6326 1.22483 12.5754V12.5754Z" fill="white"/>
</svg>
