<svg xmlns="http://www.w3.org/2000/svg" width="18" height="18" viewBox="0 0 18 18">
  <g id="_211633_calendar_icon" data-name="211633_calendar_icon" transform="translate(-32 -32)">
    <path id="Path_10" data-name="Path 10" d="M48.75,64H47.429v1.635a1.791,1.791,0,0,1-1.9,1.579,1.856,1.856,0,0,1-1.961-1.579V64H38.429v1.635a1.967,1.967,0,0,1-3.857,0V64H33.25A1.22,1.22,0,0,0,32,65.181V79.545a1.21,1.21,0,0,0,1.25,1.169h15.5A1.211,1.211,0,0,0,50,79.541V65.181A1.22,1.22,0,0,0,48.75,64Zm-.679,14.3a.5.5,0,0,1-.514.482l-13.118,0a.513.513,0,0,1-.51-.49v-9.3a.511.511,0,0,1,.534-.494H47.541a.506.506,0,0,1,.53.486Z" transform="translate(0 -30.714)" fill="#939393"/>
    <path id="Path_11" data-name="Path 11" d="M114.571,34.571a1.284,1.284,0,0,1-1.286,1.286h0A1.284,1.284,0,0,1,112,34.571V33.286A1.284,1.284,0,0,1,113.286,32h0a1.284,1.284,0,0,1,1.286,1.286Z" transform="translate(-76.786)" fill="#939393"/>
    <path id="Path_12" data-name="Path 12" d="M338.571,34.571a1.284,1.284,0,0,1-1.286,1.286h0A1.284,1.284,0,0,1,336,34.571V33.286A1.284,1.284,0,0,1,337.286,32h0a1.284,1.284,0,0,1,1.286,1.286Z" transform="translate(-291.786)" fill="#939393"/>
  </g>
</svg>
