<svg xmlns="http://www.w3.org/2000/svg" width="304" height="130" viewBox="0 0 304 130">
  <g id="Group_950" data-name="Group 950" transform="translate(-120 -225)">
    <g id="Rectangle_522" data-name="Rectangle 522" transform="translate(120 225)" fill="#fff" stroke="#6660ab" stroke-width="1">
      <rect width="288" height="130" stroke="none"/>
      <rect x="0.5" y="0.5" width="287" height="129" fill="none"/>
    </g>
    <rect id="Rectangle_523" data-name="Rectangle 523" width="87" height="128" transform="translate(320 226)" fill="#dbdbdb"/>
    <text id="Step_01" data-name="Step 01" transform="translate(191 257)" fill="#6660ab" font-size="18" font-family="OpenSans, Open Sans" letter-spacing="-0.03em"><tspan x="0" y="0">Step 01</tspan></text>
    <text id="Connect_to_Your_Accounts" data-name="Connect to
Your Accounts" transform="translate(221 305)" fill="#6660ab" font-size="20" font-family="OpenSans-Semibold, Open Sans" font-weight="600" letter-spacing="-0.03em"><tspan x="-49.722" y="0">Connect to</tspan><tspan x="-65.301" y="23">Your Accounts</tspan></text>
    <line id="Line_2" data-name="Line 2" x2="175" transform="translate(133.5 271.5)" fill="none" stroke="#707070" stroke-width="1"/>
    <g id="Group_940" data-name="Group 940" transform="translate(-3.456 15)">
      <g id="account" transform="translate(343 254)">
        <path id="Path_644" data-name="Path 644" d="M37.634,18.8A18.817,18.817,0,1,0,6.661,33.124c.038.038.075.038.075.075.339.263.677.527,1.054.79a5.03,5.03,0,0,1,.527.412,18.785,18.785,0,0,0,21.078,0c.185-.111.336-.259.524-.374.339-.261.715-.525,1.054-.788.038-.038.075-.038.075-.075A19.136,19.136,0,0,0,37.634,18.8ZM18.817,35.266a16.332,16.332,0,0,1-9.446-3.009,7.675,7.675,0,0,1,.188-.9,9.809,9.809,0,0,1,.978-2.331,8.276,8.276,0,0,1,1.505-1.919,10.567,10.567,0,0,1,1.919-1.5,9.5,9.5,0,0,1,2.3-.941A10,10,0,0,1,25.7,27.069a9.421,9.421,0,0,1,2.032,3.046,10,10,0,0,1,.565,2.143,16.536,16.536,0,0,1-9.484,3.008ZM13.059,17.86a6.168,6.168,0,0,1,0-4.815A6.418,6.418,0,0,1,16.409,9.7a5.869,5.869,0,0,1,2.409-.489,5.747,5.747,0,0,1,2.409.489,6.418,6.418,0,0,1,3.349,3.345,5.866,5.866,0,0,1,.489,2.407,5.731,5.731,0,0,1-.489,2.407A6.412,6.412,0,0,1,21.226,21.2a6.386,6.386,0,0,1-4.855,0,6.68,6.68,0,0,1-1.995-1.353,5.941,5.941,0,0,1-1.317-1.995ZM30.522,30.34c0-.075-.038-.113-.038-.188a12.278,12.278,0,0,0-1.618-3.307,11.486,11.486,0,0,0-2.559-2.67,12.248,12.248,0,0,0-2.446-1.43,6.633,6.633,0,0,0,1.091-.9A9.879,9.879,0,0,0,26.419,20a8.524,8.524,0,0,0,1.242-4.549,8.727,8.727,0,0,0-.677-3.458,8.936,8.936,0,0,0-1.919-2.82,9.044,9.044,0,0,0-2.823-1.882,9.2,9.2,0,0,0-6.925,0A8.541,8.541,0,0,0,12.495,9.21a9.032,9.032,0,0,0-1.882,2.82,8.727,8.727,0,0,0-.677,3.458,8.183,8.183,0,0,0,.339,2.369,8.652,8.652,0,0,0,.941,2.181,8.552,8.552,0,0,0,1.468,1.844,6.6,6.6,0,0,0,1.129.9,12.043,12.043,0,0,0-2.446,1.468,13.039,13.039,0,0,0-2.559,2.632A11.759,11.759,0,0,0,7.188,30.19a.409.409,0,0,0-.038.188A16.46,16.46,0,1,1,35.3,18.8a16.371,16.371,0,0,1-4.78,11.542Z" fill="#6660ab"/>
      </g>
      <g id="plus-circle-fill" transform="translate(369.407 279.006)">
        <path id="Path_645" data-name="Path 645" d="M18.654,9.327A9.327,9.327,0,1,1,9.327,0a9.327,9.327,0,0,1,9.327,9.327ZM9.91,4.664a.583.583,0,0,0-1.166,0V8.744H4.664a.583.583,0,0,0,0,1.166H8.744v4.081a.583.583,0,0,0,1.166,0V9.91h4.081a.583.583,0,1,0,0-1.166H9.91Z" fill="#6660ab" fill-rule="evenodd"/>
      </g>
    </g>
    <path id="Polygon_1" data-name="Polygon 1" d="M14,0,28,16H0Z" transform="translate(424 278) rotate(90)" fill="#6660ab"/>
  </g>
</svg>
