<svg xmlns="http://www.w3.org/2000/svg" width="45.66" height="55.132" viewBox="0 0 45.66 55.132">
  <g id="Group_246" data-name="Group 246" transform="translate(-73 -521.717)">
    <g id="bitoin_btc_coin_crypto" data-name="bitoin btc coin crypto" transform="translate(87.064 521.717)">
      <g id="bitoin_btc" data-name="bitoin btc" transform="translate(0 0)">
        <circle id="round" cx="12.983" cy="12.983" r="12.983" transform="translate(0 0)" fill="#fab915"/>
        <path id="B" d="M239.562,366.67a4.13,4.13,0,0,1,2.207,3.44,3.889,3.889,0,0,1-4.1,4.021h-1.156v.736a.512.512,0,0,1-.525.525h-.946a.512.512,0,0,1-.525-.525v-.736h-1.051v.736a.512.512,0,0,1-.525.525H232a.512.512,0,0,1-.525-.525v-.736h-.946a.512.512,0,0,1-.525-.525v-.631a.512.512,0,0,1,.525-.525h.946v-10.4h-.946a.512.512,0,0,1-.525-.525V361a.512.512,0,0,1,.525-.525h.946v-.946A.512.512,0,0,1,232,359h.946a.512.512,0,0,1,.525.526v.946h1.051v-.946a.512.512,0,0,1,.525-.526h.946a.512.512,0,0,1,.525.526v.946h.946s3.573.163,3.573,3.468C241.033,366.358,239.562,366.67,239.562,366.67Zm-2.1-4.624h-3.993v4.1h3.993a2.117,2.117,0,0,0,1.787-2.207A1.772,1.772,0,0,0,237.46,362.046Zm.631,5.675h-4.624v4.729h4.2s2.107-.44,2.107-2.34S238.443,367.72,238.091,367.721Z" transform="translate(-221.801 -354.681)" fill="#fff" fill-rule="evenodd"/>
      </g>
    </g>
    <g id="Layer_2" data-name="Layer 2" transform="translate(73 530.115)">
      <g id="Layer_1" data-name="Layer 1" transform="translate(0)">
        <circle id="Ellipse_78" data-name="Ellipse 78" cx="5.687" cy="5.687" r="5.687" transform="translate(11.46 34.741)" fill="#f4a047"/>
        <path id="Path_1609" data-name="Path 1609" d="M5.687,0A5.687,5.687,0,1,1,0,5.687,5.687,5.687,0,0,1,5.687,0Z" transform="translate(31.592 34.741)" fill="#f4a047"/>
        <path id="Path_1601" data-name="Path 1601" d="M123.612,342.609a5.639,5.639,0,0,1-.1,1.081,5.687,5.687,0,0,0-11.167,0,5.687,5.687,0,1,1,11.271-1.081Z" transform="translate(-100.664 -302.181)" fill="#f3a70f"/>
        <path id="Path_1602" data-name="Path 1602" d="M318.842,342.61a5.64,5.64,0,0,1-.1,1.081,5.687,5.687,0,0,0-11.167,0,5.687,5.687,0,1,1,11.271-1.081Z" transform="translate(-275.762 -302.182)" fill="#f3a70f"/>
        <path id="Path_1603" data-name="Path 1603" d="M92.13,100.355a4.341,4.341,0,0,0,4.341,4.341h26.8a4.341,4.341,0,0,0,4.341-4.341V84.241a4.341,4.341,0,0,0-4.341-4.341H92.243C92.016,82.516,92.13,100.355,92.13,100.355Z" transform="translate(-82.604 -71.661)" fill="#f9c48c"/>
        <path id="Path_1604" data-name="Path 1604" d="M129.28,96.841a4.344,4.344,0,0,1-3.856,2.344H98.614a4.341,4.341,0,0,1-4.34-4.339s-.113-17.841.113-20.456h2.2c-.117,5.446-.033,18.408-.033,18.408a4.341,4.341,0,0,0,4.336,4.341h26.811a4.337,4.337,0,0,0,1.575-.3Z" transform="translate(-84.526 -66.719)" fill="#f3a70f"/>
        <path id="Path_1605" data-name="Path 1605" d="M40.7,33.54H13.9a4.965,4.965,0,0,1-4.959-4.959V10.173A8.946,8.946,0,0,0,0,1.237V0A10.191,10.191,0,0,1,9.819,7.507H40.7a4.965,4.965,0,0,1,4.96,4.959V28.581A4.965,4.965,0,0,1,40.7,33.54ZM10.073,8.745a10.208,10.208,0,0,1,.1,1.428V28.581A3.727,3.727,0,0,0,13.9,32.3H40.7a3.727,3.727,0,0,0,3.723-3.722V12.466A3.727,3.727,0,0,0,40.7,8.745Z" transform="translate(0)" fill="#426572"/>
        <path id="Path_1606" data-name="Path 1606" d="M109.226,343.512a6.306,6.306,0,1,1,6.306-6.306A6.306,6.306,0,0,1,109.226,343.512Zm0-11.374a5.068,5.068,0,1,0,5.068,5.068,5.068,5.068,0,0,0-5.068-5.068Z" transform="translate(-92.307 -296.778)" fill="#426572"/>
        <path id="Path_1607" data-name="Path 1607" d="M304.456,343.512a6.306,6.306,0,1,1,6.306-6.306A6.306,6.306,0,0,1,304.456,343.512Zm0-11.374a5.068,5.068,0,1,0,5.068,5.068,5.068,5.068,0,0,0-5.068-5.068Z" transform="translate(-267.405 -296.778)" fill="#426572"/>
        <rect id="Rectangle_165" data-name="Rectangle 165" width="1.237" height="24.682" transform="translate(14.086 8.467)" fill="#426572"/>
        <rect id="Rectangle_166" data-name="Rectangle 166" width="1.237" height="24.682" transform="translate(20.427 8.467)" fill="#426572"/>
        <rect id="Rectangle_167" data-name="Rectangle 167" width="1.237" height="24.682" transform="translate(26.768 8.467)" fill="#426572"/>
        <rect id="Rectangle_168" data-name="Rectangle 168" width="1.237" height="24.682" transform="translate(33.11 8.467)" fill="#426572"/>
        <rect id="Rectangle_169" data-name="Rectangle 169" width="1.237" height="24.682" transform="translate(39.451 8.467)" fill="#426572"/>
        <rect id="Rectangle_170" data-name="Rectangle 170" width="35.459" height="1.237" transform="translate(9.554 12.006)" fill="#426572"/>
        <rect id="Rectangle_171" data-name="Rectangle 171" width="35.459" height="1.237" transform="translate(9.554 17.378)" fill="#426572"/>
        <rect id="Rectangle_172" data-name="Rectangle 172" width="35.459" height="1.237" transform="translate(9.554 22.748)" fill="#426572"/>
        <rect id="Rectangle_173" data-name="Rectangle 173" width="35.459" height="1.237" transform="translate(9.554 28.12)" fill="#426572"/>
        <path id="Path_1608" data-name="Path 1608" d="M351.628,384.624a5.267,5.267,0,0,0,.894-1.074,7.274,7.274,0,0,0,.544-1.031c.27-.619.383-1.046.5-1.031s.187.469.033,1.2a4.783,4.783,0,0,1-.448,1.237,4.675,4.675,0,0,1-.991,1.293,4.212,4.212,0,0,1-1.4.857,5.346,5.346,0,0,1-1.27.288,4.837,4.837,0,0,1-.857.024c-.206-.017-.319-.052-.327-.1s.093-.122.279-.2.461-.162.79-.267a9.071,9.071,0,0,0,1.106-.412,4.477,4.477,0,0,0,1.147-.782Z" transform="translate(-312.388 -342.148)" fill="#fff"/>
      </g>
    </g>
  </g>
</svg>
