<svg xmlns="http://www.w3.org/2000/svg" width="17.193" height="16.118" viewBox="0 0 17.193 16.118">
  <g id="calendar-line" transform="translate(-2 -2)">
    <path id="Path_1428" data-name="Path 1428" d="M18.252,6H16.506V7.075h1.612v11.82H3.074V7.075H4.686V6H2.94A.956.956,0,0,0,2,6.972V19a.956.956,0,0,0,.94.972H18.252a.956.956,0,0,0,.94-.972V6.972A.956.956,0,0,0,18.252,6Z" transform="translate(0 -1.851)" fill="#939393"/>
    <path id="Path_1429" data-name="Path 1429" d="M8,14H9.075v1.075H8Z" transform="translate(-2.777 -5.553)" fill="#939393"/>
    <path id="Path_1430" data-name="Path 1430" d="M14,14h1.075v1.075H14Z" transform="translate(-5.553 -5.553)" fill="#939393"/>
    <path id="Path_1431" data-name="Path 1431" d="M20,14h1.075v1.075H20Z" transform="translate(-8.329 -5.553)" fill="#939393"/>
    <path id="Path_1432" data-name="Path 1432" d="M26,14h1.075v1.075H26Z" transform="translate(-11.106 -5.553)" fill="#939393"/>
    <path id="Path_1433" data-name="Path 1433" d="M8,19H9.075v1.075H8Z" transform="translate(-2.777 -7.867)" fill="#939393"/>
    <path id="Path_1434" data-name="Path 1434" d="M14,19h1.075v1.075H14Z" transform="translate(-5.553 -7.867)" fill="#939393"/>
    <path id="Path_1435" data-name="Path 1435" d="M20,19h1.075v1.075H20Z" transform="translate(-8.329 -7.867)" fill="#939393"/>
    <path id="Path_1436" data-name="Path 1436" d="M26,19h1.075v1.075H26Z" transform="translate(-11.106 -7.867)" fill="#939393"/>
    <path id="Path_1437" data-name="Path 1437" d="M8,24H9.075v1.075H8Z" transform="translate(-2.777 -10.18)" fill="#939393"/>
    <path id="Path_1438" data-name="Path 1438" d="M14,24h1.075v1.075H14Z" transform="translate(-5.553 -10.18)" fill="#939393"/>
    <path id="Path_1439" data-name="Path 1439" d="M20,24h1.075v1.075H20Z" transform="translate(-8.329 -10.18)" fill="#939393"/>
    <path id="Path_1440" data-name="Path 1440" d="M26,24h1.075v1.075H26Z" transform="translate(-11.106 -10.18)" fill="#939393"/>
    <path id="Path_1441" data-name="Path 1441" d="M9.537,6.3a.537.537,0,0,0,.537-.537V2.537A.537.537,0,0,0,9,2.537V5.761A.537.537,0,0,0,9.537,6.3Z" transform="translate(-3.239)" fill="#939393"/>
    <path id="Path_1442" data-name="Path 1442" d="M25.537,6.3a.537.537,0,0,0,.537-.537V2.537a.537.537,0,1,0-1.075,0V5.761A.537.537,0,0,0,25.537,6.3Z" transform="translate(-10.643)" fill="#939393"/>
    <path id="Path_1443" data-name="Path 1443" d="M13,6h5.373V7.075H13Z" transform="translate(-5.09 -1.851)" fill="#939393"/>
  </g>
</svg>
