<svg xmlns="http://www.w3.org/2000/svg" width="17.97" height="17.97" viewBox="0 0 17.97 17.97"><path d="M16.877,3.37H1.154a1.093,1.093,0,0,1-.789-.325,1.061,1.061,0,0,1-.333-.789,1.1,1.1,0,0,1,.325-.8,1.069,1.069,0,0,1,.8-.333H6.77A1.093,1.093,0,0,1,7.095.334,1.071,1.071,0,0,1,7.893,0h2.246a1.071,1.071,0,0,1,.8.333,1.093,1.093,0,0,1,.325.789h5.616a1.079,1.079,0,0,1,.789.333,1.089,1.089,0,0,1,.333.8,1.06,1.06,0,0,1-.333.789,1.1,1.1,0,0,1-.789.325Zm0,12.354a2.247,2.247,0,0,1-2.246,2.246H3.4a2.165,2.165,0,0,1-1.588-.658,2.162,2.162,0,0,1-.658-1.588V4.493H16.877V15.724ZM5.646,7.862A1.138,1.138,0,0,0,4.514,6.739a1.06,1.06,0,0,0-.789.333,1.1,1.1,0,0,0-.325.789V14.6a1.109,1.109,0,0,0,1.114,1.123,1.1,1.1,0,0,0,.8-.325,1.069,1.069,0,0,0,.333-.8V7.863Zm4.492,0A1.138,1.138,0,0,0,9.007,6.739a1.06,1.06,0,0,0-.789.333,1.1,1.1,0,0,0-.325.789V14.6a1.109,1.109,0,0,0,1.114,1.123,1.1,1.1,0,0,0,.8-.325,1.069,1.069,0,0,0,.333-.8V7.863Zm4.492,0A1.138,1.138,0,0,0,13.5,6.739a1.06,1.06,0,0,0-.789.333,1.1,1.1,0,0,0-.325.789V14.6A1.109,1.109,0,0,0,13.5,15.724a1.1,1.1,0,0,0,.8-.325,1.069,1.069,0,0,0,.333-.8V7.863Z" transform="translate(-0.031 -0.001)" fill="#a2251b"/></svg>