<svg xmlns="http://www.w3.org/2000/svg" width="32.472" height="32.999" viewBox="0 0 32.472 32.999">
  <g id="Group_1096" data-name="Group 1096" transform="translate(-69 -226)">
    <g id="Camada_2" data-name="Camada 2" transform="translate(69 226.825)">
      <g id="Camada_1" data-name="Camada 1" transform="translate(0 0)">
        <path id="Path_1419" data-name="Path 1419" d="M31.822,16.574h-1.5a9.479,9.479,0,0,0-5.579-6.107,6.419,6.419,0,0,0,1.354-3.981,6.486,6.486,0,0,0-12.972,0,6.419,6.419,0,0,0,1.53,4.144c-.785.217-1.95.582-3.426,1.124A22.4,22.4,0,0,0,7.109,7.461.677.677,0,0,0,6.012,8V14.9a25.268,25.268,0,0,0-3.3,3.2H.677A.677.677,0,0,0,0,18.768v5.051a.677.677,0,0,0,.406.623L9.817,28.5v1.652a2.031,2.031,0,0,0,2.018,2.018h2.072a2.031,2.031,0,0,0,2.018-2.018V28.707h5.213v1.422a2.031,2.031,0,0,0,2.018,2.018h2.072a2.031,2.031,0,0,0,2.018-2.018V26.514a9.194,9.194,0,0,0,3.345-8.6h1.205a.677.677,0,0,0,0-1.354ZM19.662,1.354A5.132,5.132,0,1,1,14.53,6.486,5.132,5.132,0,0,1,19.662,1.354Zm6.527,24.374h0l-.095.108v.095a.677.677,0,0,0,0,.122.7.7,0,0,0,0,.135h0v3.927a.677.677,0,0,1-.664.664H23.183a.677.677,0,0,1-.664-.664V27.949q0-.122,0-.244l-.068-.108-.081-.108h-.095l-.122-.068H15.261a.677.677,0,0,0-.677.677v2.1a.677.677,0,0,1-.664.664H11.849a.677.677,0,0,1-.664-.664V28.044h0a.663.663,0,0,0,0-.217.637.637,0,0,0-.068-.108.474.474,0,0,0-.284-.284h0L1.354,23.372V19.445H3.033a.677.677,0,0,0,.542-.257,23.169,23.169,0,0,1,3.548-3.467h0l.095-.108v-.095a.636.636,0,0,0,0-.122.65.65,0,0,0,0-.135V9.479a15.545,15.545,0,0,1,3.209,3.412.664.664,0,0,0,.2.217h0a.664.664,0,0,0,.3.095h.311a44.282,44.282,0,0,1,4.618-1.476,6.364,6.364,0,0,0,7.84-.217,8.125,8.125,0,0,1,2.492,14.218Z" transform="translate(0 0)" fill="#939393"/>
        <circle id="Ellipse_60" data-name="Ellipse 60" cx="1.201" cy="1.201" r="1.201" transform="translate(6.025 17.803)" fill="#939393"/>
        <path id="Path_1420" data-name="Path 1420" d="M19.694,10.11H11.275a.625.625,0,0,0,0,1.251h8.419a.625.625,0,0,0,0-1.251Z" transform="translate(4.294 3.626)" fill="#939393"/>
      </g>
    </g>
    <g id="bitcoincash_bch_bitcoin" data-name="bitcoincash bch bitcoin" transform="translate(80.55 226)">
      <g id="bitcoincash_bch" data-name="bitcoincash bch" transform="translate(0 0)">
        <circle id="Эллипс_5" data-name="Эллипс 5" cx="8.5" cy="8.5" r="8.5" transform="translate(0.45 0)" fill="#f4a047"/>
        <path id="Фигура_1_копия" data-name="Фигура 1 копия" d="M1087.25,360.583c-.3.8-2.1,1.327-2.1,1.327l.35,1.461-.926.221-.352-1.471-.732.167.354,1.479-.925.221-.357-1.489-1.855.423-.074-1.166s.337-.042.645-.1.314-.41.273-.58l-.921-3.846a.576.576,0,0,0-.615-.419,6.664,6.664,0,0,0-.67.212l-.233-.974,1.8-.431-.361-1.509.925-.221.361,1.509.731-.175-.361-1.509.925-.221.364,1.518a3.984,3.984,0,0,1,1.709.045,1.838,1.838,0,0,1,1.029,1.5,1.889,1.889,0,0,1-.546,1.16,1.869,1.869,0,0,1,1.563,2.869Zm-5.12-4.179.443,1.85a3.811,3.811,0,0,0,1.291-.412c.492-.311.7-.619.629-1.026a1,1,0,0,0-1.086-.666A4.755,4.755,0,0,0,1082.13,356.4Zm.616,2.787.479,2a7.264,7.264,0,0,0,1.68-.506c.412-.266.882-.778.608-1.33s-1.039-.523-1.55-.452A9.468,9.468,0,0,0,1082.746,359.19Z" transform="translate(-1074.52 -349.936)" fill="#fff" fill-rule="evenodd"/>
      </g>
    </g>
  </g>
</svg>
