<svg width="34" height="33" viewBox="0 0 34 33" fill="none" xmlns="http://www.w3.org/2000/svg">
<path d="M17.1473 2.47656C9.29804 2.47656 2.93359 8.84101 2.93359 16.6903C2.93359 24.5395 9.29804 30.904 17.1473 30.904C24.9966 30.904 31.361 24.5395 31.361 16.6903C31.361 8.84101 24.9966 2.47656 17.1473 2.47656ZM17.8548 23.5814L17.8612 24.5871C17.8612 24.7267 17.7469 24.8441 17.6073 24.8441H16.7063C16.5667 24.8441 16.4525 24.7299 16.4525 24.5903V23.5941C13.6351 23.3847 12.3089 21.7793 12.1662 20.0343C12.1535 19.8852 12.2709 19.7583 12.42 19.7583H13.8858C14.0095 19.7583 14.1174 19.8471 14.1364 19.9677C14.2982 20.9734 15.0819 21.7254 16.4874 21.9125V17.3851L15.7037 17.1852C14.0444 16.7886 12.4644 15.7543 12.4644 13.6096C12.4644 11.2967 14.2221 10.053 16.4683 9.83406V8.78707C16.4683 8.64747 16.5826 8.53325 16.7222 8.53325H17.6137C17.7533 8.53325 17.8675 8.64747 17.8675 8.78707V9.82454C20.0408 10.0435 21.6716 11.3125 21.8619 13.2891C21.8778 13.4383 21.7604 13.5683 21.6081 13.5683H20.1836C20.0567 13.5683 19.9488 13.4732 19.9329 13.3494C19.806 12.423 19.0636 11.6679 17.8548 11.5029V15.7638L18.6607 15.951C20.7166 16.4587 22.1158 17.4422 22.1158 19.6441C22.1158 22.0331 20.339 23.3656 17.8548 23.5814ZM14.4378 13.4636C14.4378 14.2695 14.9359 14.8945 16.0083 15.2816C16.1574 15.3419 16.3065 15.3895 16.4842 15.4402V11.5061C15.3135 11.6552 14.4378 12.3119 14.4378 13.4636ZM18.134 17.7531C18.0452 17.7341 17.9563 17.7119 17.8548 17.6833V21.9252C19.2064 21.8047 20.1392 21.0623 20.1392 19.8186C20.1392 18.8445 19.6347 18.21 18.134 17.7531Z" fill="#F4A047"/>
</svg>
