<svg xmlns="http://www.w3.org/2000/svg" width="17.59" height="13.883" viewBox="0 0 17.59 13.883">
  <path id="edit" d="M8.755,10.412,9.9,9.268l-1.5-1.5L7.257,8.913v.552H8.2v.947h.552Zm4.338-7.1a.2.2,0,0,0-.325.01L9.317,6.774a.224.224,0,1,0,.316.316l3.451-3.451a.2.2,0,0,0,.01-.325Zm.789,5.857v1.873a2.845,2.845,0,0,1-2.839,2.84H2.84A2.734,2.734,0,0,1,.833,13.05,2.738,2.738,0,0,1,0,11.043V2.84A2.734,2.734,0,0,1,.833.833,2.738,2.738,0,0,1,2.84,0h8.2A2.711,2.711,0,0,1,12.2.246a.3.3,0,0,1,.178.227.308.308,0,0,1-.089.286l-.483.483a.289.289,0,0,1-.316.079,1.747,1.747,0,0,0-.444-.059H2.84a1.519,1.519,0,0,0-1.114.463,1.519,1.519,0,0,0-.463,1.114v8.2a1.519,1.519,0,0,0,.463,1.114,1.519,1.519,0,0,0,1.114.463h8.2a1.582,1.582,0,0,0,1.577-1.577V9.8a.3.3,0,0,1,.089-.217l.631-.631a.3.3,0,0,1,.345-.069.286.286,0,0,1,.2.286Zm-.947-7.277,2.84,2.84L9.15,11.359H6.31V8.519Zm4.378,1.3-.907.907-2.84-2.84.907-.907a.952.952,0,0,1,1.341,0l1.5,1.5a.913.913,0,0,1,.276.67A.913.913,0,0,1,17.314,3.195Z" fill="#939393"/>
</svg>
