<svg xmlns="http://www.w3.org/2000/svg" width="30.889" height="30.889" viewBox="0 0 30.889 30.889"><g id="Group_383" data-name="Group 383" transform="translate(-254 -163)"><path id="Path_95" data-name="Path 95" d="M16 .56A15.445 15.445 0 1 0 31.449 16 15.445 15.445 0 0 0 16 .56z" transform="translate(253.44 162.44)" fill="#e1a2a5"/><g id="Group_124" data-name="Group 124" transform="translate(214 20.082)" fill="#fff"><circle id="Ellipse_1" data-name="Ellipse 1" cx="1.573" cy="1.573" transform="translate(54 163.1)" r="1.573"/><path id="Path_2" data-name="Path 2" d="M18.7 19.66a1 1 0 0 1-1-.96l-.356-7.44a1.384 1.384 0 0 1 1.387-1.44 1.384 1.384 0 0 1 1.382 1.45l-.413 7.438a1 1 0 0 1-1 .952z" transform="translate(36.657 141.098)"/></g></g></svg>