<svg id="_5296499_fb_facebook_facebook_logo_icon" data-name="5296499_fb_facebook_facebook logo_icon" xmlns="http://www.w3.org/2000/svg" width="31.3" height="31.3" viewBox="0 0 31.3 31.3">
  <path id="Path_1" data-name="Path 1" d="M31.3,15.65a15.65,15.65,0,1,0-18.1,15.46V20.174H9.231V15.65H13.2V12.2c0-3.922,2.336-6.089,5.911-6.089a24.066,24.066,0,0,1,3.5.306V10.27H20.645a2.262,2.262,0,0,0-2.55,2.444V15.65h4.34l-.694,4.524H18.1V31.109A15.654,15.654,0,0,0,31.3,15.65Z" fill="#1877f2"/>
  <path id="Path_2" data-name="Path 2" d="M163.511,114.06l.694-4.524h-4.34V106.6a2.262,2.262,0,0,1,2.55-2.444h1.973v-3.851a24.066,24.066,0,0,0-3.5-.306c-3.575,0-5.911,2.167-5.911,6.089v3.448H151v4.524h3.974V125a15.821,15.821,0,0,0,4.891,0V114.06Z" transform="translate(-141.769 -93.887)" fill="#fff"/>
</svg>
