<svg xmlns="http://www.w3.org/2000/svg" width="28" height="28" viewBox="0 0 28 28"><g transform="translate(-79 -1789)"><circle cx="14" cy="14" r="14" transform="translate(79 1789)" fill="#fff"/><path d="M14,1A13,13,0,0,0,4.808,23.192,13,13,0,0,0,23.192,4.808,12.915,12.915,0,0,0,14,1m0-1A14,14,0,1,1,0,14,14,14,0,0,1,14,0Z" transform="translate(79 1789)" fill="#707070"/><path d="M12.5,12.5a3.25,3.25,0,1,1,3.25-3.25A3.25,3.25,0,0,1,12.5,12.5Zm0,2.438c2.589,0,4.911.464,6.5,2.489V19H6V17.426C7.589,15.4,9.911,14.938,12.5,14.938Z" transform="translate(81 1791)" fill="#fb9c1a"/></g></svg>