<svg xmlns="http://www.w3.org/2000/svg" width="28" height="28" viewBox="0 0 28 28"><g transform="translate(-79 -1595)"><circle cx="14" cy="14" r="14" transform="translate(79 1595)" fill="#fff"/><path d="M14,1A13,13,0,0,0,4.808,23.192,13,13,0,0,0,23.192,4.808,12.915,12.915,0,0,0,14,1m0-1A14,14,0,1,1,0,14,14,14,0,0,1,14,0Z" transform="translate(79 1595)" fill="#707070"/><path d="M17.271,9.146l-1.619-.483a5.629,5.629,0,0,0-.459-1.126l.792-1.483a.3.3,0,0,0-.053-.348l-1.155-1.16a.3.3,0,0,0-.348-.053l-1.474.788a5.614,5.614,0,0,0-1.14-.483l-.483-1.6a.3.3,0,0,0-.285-.2H9.415a.3.3,0,0,0-.28.208L8.652,4.8a5.619,5.619,0,0,0-1.15.483L6.052,4.5a.3.3,0,0,0-.348.053L4.531,5.7a.3.3,0,0,0-.053.348L5.26,7.5a5.619,5.619,0,0,0-.483,1.145l-1.6.483a.3.3,0,0,0-.208.28V11.04a.3.3,0,0,0,.208.28l1.609.483a5.614,5.614,0,0,0,.483,1.126l-.792,1.517a.3.3,0,0,0,.053.348l1.155,1.155A.3.3,0,0,0,6.033,16l1.493-.8a5.629,5.629,0,0,0,1.111.454l.483,1.628a.3.3,0,0,0,.28.208h1.633a.3.3,0,0,0,.28-.208l.483-1.633a5.619,5.619,0,0,0,1.1-.454l1.5.8a.3.3,0,0,0,.348-.053L15.9,14.794a.3.3,0,0,0,.053-.348l-.8-1.5a5.619,5.619,0,0,0,.459-1.106l1.628-.483a.3.3,0,0,0,.208-.28V9.431a.3.3,0,0,0-.179-.285ZM10.232,12.9a2.657,2.657,0,1,1,2.657-2.657A2.657,2.657,0,0,1,10.232,12.9Z" transform="translate(82.79 1598.753)" fill="#fb9c1a"/></g></svg>