<svg xmlns="http://www.w3.org/2000/svg" width="28" height="28" viewBox="0 0 28 28"><g transform="translate(-79 -1705)"><circle cx="14" cy="14" r="14" transform="translate(79 1705)" fill="#fff"/><path d="M14,1A13,13,0,0,0,4.808,23.192,13,13,0,0,0,23.192,4.808,12.915,12.915,0,0,0,14,1m0-1A14,14,0,1,1,0,14,14,14,0,0,1,14,0Z" transform="translate(79 1705)" fill="#707070"/><g transform="translate(0 -1615)"><g transform="translate(81.375 3324.875)"><path d="M5.625,17.794A2.044,2.044,0,0,1,7.669,15.75h7.152a2.044,2.044,0,0,1,2.044,2.044V22.9a2.044,2.044,0,0,1-2.044,2.044H7.669A2.044,2.044,0,0,1,5.625,22.9Z" transform="translate(0 -7.984)" fill="#fb9c1a"/><path d="M10.125,4.7a3.576,3.576,0,1,1,7.152,0V7.766H16.256V4.7a2.554,2.554,0,1,0-5.109,0V7.766H10.125Z" transform="translate(-2.456 0)" fill="#fb9c1a" fill-rule="evenodd"/></g><circle cx="1.5" cy="1.5" r="1.5" transform="translate(91 3337)" fill="#fff"/></g></g></svg>