<svg xmlns="http://www.w3.org/2000/svg" width="28" height="28" viewBox="0 0 28 28"><g transform="translate(-79 -1747)"><circle cx="14" cy="14" r="14" transform="translate(79 1747)" fill="#fff"/><path d="M14,1A13,13,0,0,0,4.808,23.192,13,13,0,0,0,23.192,4.808,12.915,12.915,0,0,0,14,1m0-1A14,14,0,1,1,0,14,14,14,0,0,1,14,0Z" transform="translate(79 1747)" fill="#707070"/><circle cx="7" cy="7" r="7" transform="translate(86 1754)" fill="#fb9c1a"/><path d="M10.62,9.781-.625.781.625-.781l11.245,9Z" transform="translate(87.5 1756.5)" fill="#fff"/></g></svg>