<svg xmlns="http://www.w3.org/2000/svg" width="28" height="28" viewBox="0 0 28 28"><g transform="translate(-79 -1850)"><circle cx="14" cy="14" r="14" transform="translate(79 1850)" fill="#fff"/><path d="M14,1A13,13,0,0,0,4.808,23.192,13,13,0,0,0,23.192,4.808,12.915,12.915,0,0,0,14,1m0-1A14,14,0,1,1,0,14,14,14,0,0,1,14,0Z" transform="translate(79 1850)" fill="#707070"/><path d="M17.554,6.685a3.786,3.786,0,0,0-5.211-.135l0,0L10.425,8.461a3.77,3.77,0,0,0-.794,1.171,3.76,3.76,0,0,0-1.028.657l0,0L6.685,12.2a3.785,3.785,0,0,0,5.353,5.353l1.914-1.914,0,0a3.759,3.759,0,0,0,.657-1.028,3.77,3.77,0,0,0,1.171-.794L17.692,11.9l0,0a3.785,3.785,0,0,0-.135-5.211Zm-6.807,9.508h0a1.91,1.91,0,0,1-2.7-2.7h0l1.4-1.4a3.762,3.762,0,0,0,2.7,2.7l-1.4,1.4Zm1.038-3.739a1.9,1.9,0,0,1-.554-1.223,1.9,1.9,0,0,1,1.777,1.777,1.9,1.9,0,0,1-1.223-.554Zm4.527-1.825-.117.117h0l-1.4,1.4a3.759,3.759,0,0,0-2.7-2.7l1.4-1.4h0l.117-.117.005.005a1.91,1.91,0,0,1,2.691,2.691l.005.006Z" transform="translate(81.423 1852.423)" fill="#fb9c1a"/></g></svg>