<svg xmlns="http://www.w3.org/2000/svg" xmlns:xlink="http://www.w3.org/1999/xlink" width="451.198" height="309.063" viewBox="0 0 451.198 309.063"><defs><linearGradient id="a" x1="0.167" y1="0.131" x2="0.832" y2="0.868" gradientUnits="objectBoundingBox"><stop offset="0" stop-color="#5b4a88"/><stop offset="1" stop-color="#4c3a6d"/></linearGradient><linearGradient id="b" x1="0.143" y1="0.787" x2="0.856" y2="0.213" xlink:href="#a"/><linearGradient id="c" x1="0.159" y1="0.141" x2="0.84" y2="0.861" xlink:href="#a"/><linearGradient id="d" x1="0.284" y1="-0.416" x2="0.716" y2="1.408" xlink:href="#a"/><linearGradient id="e" x1="0.117" y1="0.177" x2="0.883" y2="0.823" gradientUnits="objectBoundingBox"><stop offset="0" stop-color="#5b4a88"/><stop offset="1" stop-color="#4e3b75"/></linearGradient><linearGradient id="g" x1="0.192" y1="0.095" x2="0.808" y2="0.906" xlink:href="#a"/></defs><g transform="translate(-79.151 -128.99)"><g transform="translate(-28.177 -46.436)"><ellipse cx="26.679" cy="26.679" rx="26.679" ry="26.679" transform="translate(209.513 430.588)" fill="#fb9c1a"/><path d="M584.159,482.4c12.495-4.019,25.778-8.209,35.688-17.763,8.855-8.537,14.833-21.573,11.165-34.376-3.661-12.777-14.626-21.3-25.947-25.534a100.49,100.49,0,0,0-19.854-4.784c-7.3-1.139-14.632-2.071-21.961-2.969q-44.512-5.452-89.358-6.661c-14.753-.4-29.5-.388-44.257-.159-13.177.2-27.055.2-39.279-5.8-9.506-4.664-18.134-13.15-20.782-24.3-3.058-12.872,2.582-25.98,10.672-35.3A88.093,88.093,0,0,1,394.634,311.9c5.577-4.126,11.349-7.959,17.246-11.537a233.006,233.006,0,0,1,36.3-17.923c6.188-2.41,12.469-4.489,18.8-6.407a153.329,153.329,0,0,0,15.885-5.448c9.994-4.266,19.5-11.491,22.04-23.337,2.408-11.227-1.652-23.415-8.771-31.755-8.236-9.649-20.654-13.879-32.56-14.563-13.366-.768-26.424,2.814-38.986,7.361-13.4,4.849-26.509,10.425-40.191,14.353a254.421,254.421,0,0,1-41.365,8.235c-6.837.78-13.881,1.66-20.759,1.063-5.764-.5-11.5-2.316-15.748-6.7a17.338,17.338,0,0,1-5.067-14.368c.135-.99,1.539-.569,1.4.415-.908,6.632,3.3,12.744,8.489,15.874,6,3.618,13.291,3.623,19.966,3.209a244.99,244.99,0,0,0,42.976-6.653c13.882-3.4,27.269-8.25,40.641-13.436,12.7-4.925,25.683-9.732,39.25-10.8,11.772-.926,24.156.911,34.411,7.5a40.759,40.759,0,0,1,17.753,26.528c2.064,10.828-.795,21.727-8.448,29.284-7.925,7.824-18.79,11.169-28.916,14.249a253.62,253.62,0,0,0-37.576,14.4,232.049,232.049,0,0,0-35.346,21.282c-10.8,7.9-21.461,17.851-24.877,31.953a31.375,31.375,0,0,0,1.365,19.741,35.575,35.575,0,0,0,10.809,13.737c10.837,8.54,24.5,10.294,37.587,10.468,14.7.2,29.405-.336,44.113-.077q44.959.79,89.735,5.862,11.22,1.272,22.411,2.812a190.31,190.31,0,0,1,20.042,3.481c11.731,2.916,23.147,8.523,30.439,19.176a33.214,33.214,0,0,1,5.8,15.831,33.983,33.983,0,0,1-3.389,17.326c-5.6,11.8-16.087,19.3-27.225,24.233a184.476,184.476,0,0,1-18.329,6.628c-.9.289-1.284-1.216-.387-1.5Z" transform="translate(-193.988 0.546)" fill="#f2f2f2"/><circle cx="12.479" cy="12.479" r="12.479" transform="translate(159.014 222.744)" fill="#f2f2f2"/><circle cx="12.479" cy="12.479" r="12.479" transform="translate(232.33 175.426)" fill="#f2f2f2"/><circle cx="12.479" cy="12.479" r="12.479" transform="translate(278.088 228.464)" fill="#f2f2f2"/><circle cx="12.479" cy="12.479" r="12.479" transform="translate(216.211 289.821)" fill="#f2f2f2"/><circle cx="12.479" cy="12.479" r="12.479" transform="translate(137.695 319.46)" fill="#f2f2f2"/><circle cx="12.479" cy="12.479" r="12.479" transform="translate(220.891 365.737)" fill="#f2f2f2"/><circle cx="12.479" cy="12.479" r="12.479" transform="translate(310.327 391.736)" fill="#f2f2f2"/><circle cx="12.479" cy="12.479" r="12.479" transform="translate(414.842 386.017)" fill="#f2f2f2"/><path d="M548.772,220.371a77.2,77.2,0,0,0-76.427,75.87c-.005.385-.008,3.092-.008,6.632a19.573,19.573,0,0,0,19.57,19.572h0a19.584,19.584,0,0,0,19.581-19.6c0-2.412,0-4.079,0-4.181a37.119,37.119,0,1,1,57.139,31.249l.007.008s-27.855,17.932-36.347,42.533l.007,0a54.524,54.524,0,0,0-2.247,15.525c0,2.161.127,21.065.373,36.409a20.175,20.175,0,0,0,20.177,19.848h0a20.181,20.181,0,0,0,20.18-20.305c-.085-14.052-.131-30.415-.131-31.6,0-15.105,14.572-30.156,26.542-39.97a80.5,80.5,0,0,0,27.686-44.077,50.316,50.316,0,0,0,1.45-10.923,76.991,76.991,0,0,0-77.548-76.99Z" transform="translate(-315.993 -32.464)" fill="#fb9c1a"/></g><g transform="translate(325.718 150.914)"><ellipse cx="45.702" cy="7.617" rx="45.702" ry="7.617" transform="translate(65.54 250.516)" fill="#e6e7e8"/><path d="M38.984,552.117c-3.1,2.821-1.975,2.257-5.642-.564C24.032,544.218.9,523.906-.23,526.445c-1.693,3.667,20.876,33.007,30.75,44.292,5.642,5.924,3.95,5.924,10.438.282l12.977-11-3.385-19.184Z" transform="translate(0.32 -377.772)" fill-rule="evenodd" fill="url(#a)"/><path d="M597.9,594.03c3.667,1.693,2.821,1.411.846,5.642-5.36,10.438-20.03,37.521-17.491,38.085,4.232.846,27.647-27.365,36.674-39.5,4.8-6.771,5.642-6.206-1.975-10.438L590,574l-2.257,15.8Z" transform="translate(-416.976 -412.068)" fill-rule="evenodd" fill="url(#b)"/><rect width="136.824" height="130.054" rx="30" transform="translate(42.971 16.362)" fill="url(#c)"/><path d="M292.571,172.595c0-.282.282-.282.282-.564-.282-2.257,0-4.514-.282-6.489a20.237,20.237,0,0,0-1.411-5.924,5.756,5.756,0,0,0-6.771-3.385,6.1,6.1,0,0,0-4.8,4.232,24.34,24.34,0,0,0-1.128,7.9v4.232Zm22.569,0,.282-.282c-.282-3.1-.282-6.489-.282-9.592a14.633,14.633,0,0,0-1.975-6.206,6.184,6.184,0,0,0-11-.846,13.521,13.521,0,0,0-1.975,5.642,45.061,45.061,0,0,0-.282,10.72v.564ZM259,159.9h10.72c.564,0,.846,0,.846-.846a28.857,28.857,0,0,1,2.821-10.438,11.181,11.181,0,0,1,9.592-5.924,12.506,12.506,0,0,1,5.642.846,10.376,10.376,0,0,1,5.36,4.514.874.874,0,0,0,.282.564h0a13.755,13.755,0,0,0,.846-1.975,12.164,12.164,0,0,1,5.642-6.771,10.657,10.657,0,0,1,6.489-1.128A15.609,15.609,0,0,1,315.987,141c3.385,1.693,5.078,4.8,6.207,8.181a53.874,53.874,0,0,1,1.693,9.31V159.9h11.567v7.053H324.168v5.642h11.284v7.335H323.886v14.106c-2.821-.564-5.642-.846-8.463-1.411v-5.078c0-1.693-1.129-2.539-2.821-2.539a11.432,11.432,0,0,0-3.1,0H282.133c-2.539,0-3.95,1.128-3.95,3.667a24.077,24.077,0,0,0,0,4.514v.846h-7.617V179.929H259v-7.335h11.284v-5.642H259Z" transform="translate(-185.843 -99.527)" fill="#fefefe" fill-rule="evenodd"/><ellipse cx="4.232" cy="4.232" rx="4.232" ry="4.232" transform="translate(117.731 59.808)" fill="#f89f33"/><path d="M343.95,213a4.1,4.1,0,0,1,4.232,3.95,4.339,4.339,0,0,1-4.232,4.232A4.1,4.1,0,0,1,340,216.95,3.857,3.857,0,0,1,343.95,213Z" transform="translate(-243.992 -152.91)" fill="#f89f33" fill-rule="evenodd"/><path d="M323.211,395.25a3.2,3.2,0,1,1,4.232-4.8v.282a23.083,23.083,0,0,0,14.67,5.078c5.078,0,10.438-1.411,13.541-5.078l.282-.282a3.083,3.083,0,0,1,4.232-.282,3.171,3.171,0,0,1,.282,4.514.276.276,0,0,1-.282.282c-4.514,5.078-11.284,7.053-18.337,7.053a28,28,0,0,1-18.337-6.489Z" transform="translate(-231.152 -279.584)" fill="#fefefe"/><g transform="translate(100.24 60.372)"><circle cx="1.128" cy="1.128" r="1.128" transform="translate(0.846 1.128)" fill="#fefefe"/><circle cx="0.564" cy="0.564" r="0.564" fill="#fefefe"/></g><g transform="translate(122.245 60.372)"><circle cx="1.128" cy="1.128" r="1.128" transform="translate(0.846 1.128)" fill="#fefefe"/><circle cx="0.564" cy="0.564" r="0.564" fill="#fefefe"/></g><path d="M333.784,0c12.413,0,28.776,11.284,22.569,11.284H311.5C305.291,11.284,321.371,0,333.784,0Z" transform="translate(-222.541)" fill-rule="evenodd" fill="url(#d)"/><g transform="translate(80.491 241.77)"><path d="M299.949,857s.282,15.234-7.617,15.234C284.714,872.234,285,857,285,857Z" transform="translate(-284.995 -857)" fill-rule="evenodd" fill="url(#e)"/><path d="M465.949,857s.282,15.234-7.335,15.234C450.715,872.234,451,857,451,857Z" transform="translate(-404.165 -857)" fill-rule="evenodd" fill="url(#e)"/></g><g transform="translate(86.818 194.441)"><path d="M354.311,704.037c.282-1.975-.282-3.668-2.257-4.514a11.075,11.075,0,0,0-3.95-.846,4.241,4.241,0,0,1-3.667-3.1c-.564-1.693,0-3.1,1.128-4.514a3.832,3.832,0,0,1,4.514-.564,3.431,3.431,0,0,1,2.539,3.667,7.81,7.81,0,0,1,.282,2.539c.564,2.257,2.257,3.385,5.078,3.667a16.515,16.515,0,0,0,3.667-.564,4.691,4.691,0,0,0,2.821-3.95,4.183,4.183,0,0,0,.282-1.975,4.7,4.7,0,0,1,5.078-3.95c2.257.282,3.667,2.539,3.1,5.078a3.878,3.878,0,0,1-4.232,3.667c-1.975,0-3.95.564-4.8,2.539a14.881,14.881,0,0,0-.846,3.385c-.282,1.693-.846,3.1-2.257,3.667-2.539,1.128-6.489.282-6.489-4.232Z" transform="translate(-333.835 -689.715)" fill="#bfdfb9" fill-rule="evenodd"/><path d="M390.311,739.755a4.206,4.206,0,0,0-2.539-4.232,9.011,9.011,0,0,0-3.95-.846,4.237,4.237,0,0,1-3.385-3.1c-.564-1.693,0-3.1,1.128-4.514a4.344,4.344,0,0,1,4.514-.564,3.642,3.642,0,0,1,2.539,3.668,7.809,7.809,0,0,0,.282,2.539c.282,1.975,2.257,3.385,4.8,3.667a9.954,9.954,0,0,0,3.95-.846c1.693-.282,2.257-1.975,2.539-3.385a5.507,5.507,0,0,0,.282-1.975,4.709,4.709,0,0,1,5.078-4.232c1.975.282,3.667,2.821,3.1,5.078a3.878,3.878,0,0,1-4.232,3.667c-1.975,0-3.95.564-4.8,2.539a14.875,14.875,0,0,0-.846,3.385c-.282,1.411-.846,3.1-2.257,3.667C393.978,745.4,390.029,744.551,390.311,739.755Z" transform="translate(-359.679 -715.559)" fill="#f89f33" fill-rule="evenodd"/><path d="M312.381,699.606a4.582,4.582,0,0,0,4.514-2.539,16.271,16.271,0,0,0,.846-3.95,3.654,3.654,0,0,1,2.821-3.667,4.015,4.015,0,0,1,4.514,1.411c1.411,1.129,1.411,2.821.846,4.514a3.885,3.885,0,0,1-3.667,2.539,7.811,7.811,0,0,0-2.539.282,4.62,4.62,0,0,0-3.667,4.8,16.651,16.651,0,0,0,.564,3.95,4.29,4.29,0,0,0,3.667,2.821h1.975a4.884,4.884,0,0,1,4.232,5.078,4.4,4.4,0,0,1-5.36,3.385q-3.385-.423-3.385-4.232c-.282-2.257-.846-3.95-2.821-5.078-.846-.564-2.257-.564-3.385-.846-1.411-.282-3.1-.564-3.667-2.257-1.128-2.539-.282-6.489,4.514-6.207Z" transform="translate(-307.422 -689.234)" fill="#fefefe" fill-rule="evenodd"/></g><path d="M217.828,540h77.581c8.463,0,16.645,7.053,15.234,15.516l-7.617,52.473c-1.411,8.463-7.053,15.516-15.516,15.516H225.727c-8.463,0-14.106-7.053-15.516-15.516l-7.617-52.473C201.184,547.053,209.365,540,217.828,540Z" transform="translate(-145.235 -387.659)" fill-rule="evenodd" fill="url(#g)"/><g transform="translate(86.818 179.489)"><path d="M354.311,651.037a3.987,3.987,0,0,0-2.257-4.514,25.044,25.044,0,0,0-3.95-.846,4.241,4.241,0,0,1-3.667-3.1c-.564-1.693,0-3.1,1.128-4.514a3.832,3.832,0,0,1,4.514-.564,3.431,3.431,0,0,1,2.539,3.667,7.809,7.809,0,0,1,.282,2.539c.564,2.257,2.257,3.667,5.078,3.667a16.509,16.509,0,0,0,3.667-.564,4.67,4.67,0,0,0,2.821-3.667,5.507,5.507,0,0,0,.282-1.975,4.709,4.709,0,0,1,5.078-4.232c2.257.282,3.667,2.539,3.1,5.078a3.878,3.878,0,0,1-4.232,3.667c-1.975,0-3.95.564-4.8,2.539a14.879,14.879,0,0,0-.846,3.385c-.282,1.693-.846,3.1-2.257,3.667-2.539,1.128-6.489.282-6.489-4.232Z" transform="translate(-333.835 -636.715)" fill="#bfdfb9" fill-rule="evenodd"/><path d="M390.311,686.755a4.207,4.207,0,0,0-2.539-4.232,9.01,9.01,0,0,0-3.95-.846,4.237,4.237,0,0,1-3.385-3.1c-.564-1.693,0-3.1,1.128-4.514a4.344,4.344,0,0,1,4.514-.564,3.642,3.642,0,0,1,2.539,3.667,7.809,7.809,0,0,0,.282,2.539c.282,2.257,2.257,3.385,4.8,3.667a19.046,19.046,0,0,0,3.95-.564c1.693-.564,2.257-2.257,2.539-3.667a5.508,5.508,0,0,0,.282-1.975,4.709,4.709,0,0,1,5.078-4.232c1.975.282,3.667,2.821,3.1,5.078a3.878,3.878,0,0,1-4.232,3.667c-1.975,0-3.95.564-4.8,2.539a14.879,14.879,0,0,0-.846,3.385c-.282,1.411-.846,3.1-2.257,3.668C393.978,692.4,390.029,691.551,390.311,686.755Z" transform="translate(-359.679 -662.559)" fill="#f89f33" fill-rule="evenodd"/><path d="M312.381,646.606a4.192,4.192,0,0,0,4.514-2.539,16.271,16.271,0,0,0,.846-3.95,3.9,3.9,0,0,1,2.821-3.667,4.016,4.016,0,0,1,4.514,1.411c1.411,1.411,1.411,2.821.846,4.514a3.642,3.642,0,0,1-3.667,2.539,7.809,7.809,0,0,0-2.539.282,4.62,4.62,0,0,0-3.667,4.8,16.65,16.65,0,0,0,.564,3.95,4.29,4.29,0,0,0,3.667,2.821,4.8,4.8,0,0,1,1.975.282,4.454,4.454,0,0,1,4.232,4.8,4.4,4.4,0,0,1-5.36,3.385q-3.385-.423-3.385-4.232c-.282-1.975-.846-3.95-2.821-5.078-.846-.282-2.257-.564-3.385-.846-1.411-.282-3.1-.564-3.667-2.257-1.128-2.539-.282-6.489,4.514-6.206Z" transform="translate(-307.422 -636.234)" fill="#fefefe" fill-rule="evenodd"/></g></g></g></svg>