<svg xmlns="http://www.w3.org/2000/svg" width="28" height="28" viewBox="0 0 28 28"><g transform="translate(-79 -1553)"><circle cx="14" cy="14" r="14" transform="translate(79 1553)" fill="#fff"/><path d="M14,1A13,13,0,0,0,4.808,23.192,13,13,0,0,0,23.192,4.808,12.915,12.915,0,0,0,14,1m0-1A14,14,0,1,1,0,14,14,14,0,0,1,14,0Z" transform="translate(79 1553)" fill="#707070"/><path d="M13.4,15.477a4.61,4.61,0,0,0-.167-1.525c1.757-2.063,6.4-7.514,6.828-7.929a.822.822,0,0,0,.273-.612,1.362,1.362,0,0,0-.391-.869C19.675,4.261,18.525,3.2,18.313,3.4c-.628.612-.754.775-1.011,1.027-.387.379.041,1.154-.094,1.467a.6.6,0,0,1-.51.424,7.651,7.651,0,0,1-.966-.122,1.019,1.019,0,0,0-.775.375.857.857,0,0,0-.355.636c-.008.367.522.852.126,1.239s-.966-.253-1.386-.2a1.539,1.539,0,0,0-.983.881c-.053.249.477.889.4,1.252a.849.849,0,0,1-.465.448c-.188.041-1.019-.281-1.207-.241a2.849,2.849,0,0,0-.709.424,4.592,4.592,0,0,0-1.945-.383,4.961,4.961,0,0,0-5.055,4.859,4.955,4.955,0,0,0,5.057,4.852A4.885,4.885,0,0,0,13.4,15.477Zm-7.416.945a1.3,1.3,0,1,1,1.3,1.3A1.3,1.3,0,0,1,5.985,16.421Z" transform="translate(81.625 1555.625)" fill="#fb9c1a"/></g></svg>