<svg xmlns="http://www.w3.org/2000/svg" width="28" height="28" viewBox="0 0 28 28"><g transform="translate(-79 -1637)"><circle cx="14" cy="14" r="14" transform="translate(79 1637)" fill="#fff"/><path d="M14,1A13,13,0,0,0,4.808,23.192,13,13,0,0,0,23.192,4.808,12.915,12.915,0,0,0,14,1m0-1A14,14,0,1,1,0,14,14,14,0,0,1,14,0Z" transform="translate(79 1637)" fill="#707070"/><path d="M4.632,11.694H4.449a1.449,1.449,0,0,1,0-2.9h.183a5.761,5.761,0,0,1,.62-1.5l-.13-.129a1.449,1.449,0,1,1,2.05-2.049l.129.129a5.761,5.761,0,0,1,1.5-.62V4.449a1.449,1.449,0,0,1,2.9,0v.183a5.761,5.761,0,0,1,1.5.62l.129-.13a1.449,1.449,0,0,1,2.049,2.05l-.129.129a5.735,5.735,0,0,1,.62,1.5h.183a1.449,1.449,0,1,1,0,2.9h-.183a5.761,5.761,0,0,1-.62,1.5l.13.129a1.449,1.449,0,1,1-2.05,2.049l-.129-.129a5.761,5.761,0,0,1-1.5.62v.183a1.449,1.449,0,1,1-2.9,0v-.183a5.761,5.761,0,0,1-1.5-.62l-.129.13a1.449,1.449,0,0,1-2.049-2.05l.129-.129A5.761,5.761,0,0,1,4.632,11.694Zm3.44-2.9L6.622,10.245l2.9,2.9L13.868,8.8,12.419,7.347l-2.9,2.9Z" transform="translate(83 1641)" fill="#fb9c1a" fill-rule="evenodd"/></g></svg>