<svg xmlns="http://www.w3.org/2000/svg" width="18.5" height="10.792" viewBox="0 0 18.5 10.792">
  <g id="filter" transform="translate(-4.5 -9)">
    <path id="Path_1526" data-name="Path 1526" d="M10.667,19.021a.771.771,0,0,1,.771-.771h4.625a.771.771,0,1,1,0,1.542H11.438A.771.771,0,0,1,10.667,19.021ZM7.583,14.4a.771.771,0,0,1,.771-.771H19.146a.771.771,0,1,1,0,1.542H8.354A.771.771,0,0,1,7.583,14.4ZM4.5,9.771A.771.771,0,0,1,5.271,9H22.229a.771.771,0,1,1,0,1.542H5.271A.771.771,0,0,1,4.5,9.771Z" fill="#999" fill-rule="evenodd"/>
  </g>
</svg>
