<svg id="_5027880_bag_business_currency_dollar_finance_icon" data-name="5027880_bag_business_currency_dollar_finance_icon" xmlns="http://www.w3.org/2000/svg" width="48.957" height="43.383" viewBox="0 0 48.957 43.383">
  <g id="Group_245" data-name="Group 245" transform="translate(0 0)">
    <path id="Path_1591" data-name="Path 1591" d="M29.529,27.016v-.35a21.751,21.751,0,0,0-6.813-8.245H11.771C6.061,22.264,2,31.376,2,37.869c0,8.431,6.833,9.225,15.254,9.225,5.009,0,9.441-.289,12.213-2.278a2.01,2.01,0,0,1-.526-1.288V38.518a2.034,2.034,0,0,0,.6,1.36v-.052a2.054,2.054,0,0,1-.6-1.36V33.447a2.034,2.034,0,0,0,.6,1.36v-.052a2.054,2.054,0,0,1-.6-1.36V28.387A2.064,2.064,0,0,1,29.529,27.016Z" transform="translate(-1.227 -4.999)" fill="#f4a047"/>
    <ellipse id="Ellipse_76" data-name="Ellipse 76" cx="10.235" cy="4.092" rx="10.235" ry="4.092" transform="translate(27.715 19.296)" fill="#fab915"/>
    <circle id="Ellipse_77" data-name="Ellipse 77" cx="8.513" cy="8.513" r="8.513" transform="translate(7.514 19.296)" fill="#fab915"/>
    <path id="Path_1592" data-name="Path 1592" d="M23.187,14.42H10.9a2.061,2.061,0,1,0,0,4.123H23.187a2.061,2.061,0,0,0,0-4.123Z" transform="translate(-1.017 -5.122)" fill="#fff"/>
    <path id="Path_1593" data-name="Path 1593" d="M38.375,32.172c-5.648,0-10.235-1.835-10.235-4.092v5.009c0,2.257,4.586,4.092,10.235,4.092s10.235-1.835,10.235-4.092V28.08C48.609,30.347,44.023,32.172,38.375,32.172Z" transform="translate(-0.425 -4.703)" fill="#f9c48c"/>
    <path id="Path_1594" data-name="Path 1594" d="M38.375,37.092c-5.648,0-10.235-1.835-10.235-4.092v5.009c0,2.257,4.586,4.092,10.235,4.092s10.235-1.835,10.235-4.092V33C48.609,35.257,44.023,37.092,38.375,37.092Z" transform="translate(-0.425 -4.552)" fill="#f9c48c"/>
    <path id="Path_1595" data-name="Path 1595" d="M38.375,42C32.726,42,28.14,40.167,28.14,37.91v5.009c0,2.257,4.586,4.092,10.235,4.092s10.235-1.835,10.235-4.092V37.91C48.609,40.177,44.023,42,38.375,42Z" transform="translate(-0.425 -4.401)" fill="#f9c48c"/>
    <path id="Path_1596" data-name="Path 1596" d="M21.764,14.674l3.092-7.946c-4.978-2.474-11.245,3.906-15.646,0L12.3,14.674Z" transform="translate(-1.006 -5.376)" fill="#f4a047"/>
    <g id="Group_244" data-name="Group 244">
      <path id="Path_1597" data-name="Path 1597" d="M17.663,38.262v-.505a3.033,3.033,0,0,0-.773-5.968A1.494,1.494,0,1,1,18.385,30.3a.773.773,0,0,0,1.546,0,3.049,3.049,0,0,0-2.267-2.927v-.505a.773.773,0,0,0-1.546,0v.505a3.033,3.033,0,0,0,.773,5.968A1.494,1.494,0,1,1,15.4,34.83a.773.773,0,1,0-1.546,0,3.049,3.049,0,0,0,2.267,2.927v.505a.773.773,0,0,0,1.546,0Z" transform="translate(-0.864 -4.764)" fill="#505050"/>
      <path id="Path_1598" data-name="Path 1598" d="M26.362,32.656a9.276,9.276,0,1,0-9.276,9.286A9.283,9.283,0,0,0,26.362,32.656Zm-17.016,0a7.73,7.73,0,1,1,7.73,7.74A7.739,7.739,0,0,1,9.346,32.656Z" transform="translate(-1.049 -4.847)" fill="#505050"/>
      <path id="Path_1599" data-name="Path 1599" d="M50.207,28.786c0-3.154-5.669-4.865-11.008-4.865-3.535,0-7.2.752-9.286,2.175a23.139,23.139,0,0,0-5.267-6.782,2.826,2.826,0,0,0-1.216-5.38h-.278l2.68-6.9a.769.769,0,0,0-.381-.969c-2.587-1.288-5.359-.464-8.029.32-2.906.855-5.411,1.6-7.441-.206a.792.792,0,0,0-.969-.072.757.757,0,0,0-.278.917l2.68,6.9h-.278A2.826,2.826,0,0,0,9.918,19.3,24.816,24.816,0,0,0,4.064,27.2,26.846,26.846,0,0,0,1.25,38.258v.093a.77.77,0,0,0,.763.773h.01A.788.788,0,0,0,2.8,38.34a.227.227,0,0,1-.01-.082c-.021-5.792,3.762-14.883,9.245-18.676H22.5a21.149,21.149,0,0,1,6.236,7.586,2.7,2.7,0,0,0-.546,1.608v15.13a2.554,2.554,0,0,0,.227,1.041c-2.659,1.525-6.926,1.762-10.822,1.762h-.587c-6.967,0-11.935-.783-13.533-4.648a.792.792,0,0,0-1.02-.4.768.768,0,0,0-.4,1.01A8.507,8.507,0,0,0,8,47.4a36.768,36.768,0,0,0,9.286.855c4.6-.01,8.967-.206,12.079-2.072,1.938,1.69,5.968,2.6,9.833,2.6,5.339,0,11.008-1.7,11.008-4.865ZM10.98,8.523c2.175.732,4.556.021,6.875-.66,2.237-.66,4.36-1.288,6.256-.68l-2.618,6.751h-8.41Zm.155,6.947h12.3a1.288,1.288,0,1,1,0,2.577h-12.3a1.288,1.288,0,1,1,0-2.577ZM39.2,37.114c-5.411,0-9.462-1.752-9.462-3.319V31.352c2.051,1.494,5.834,2.288,9.462,2.288s7.411-.794,9.462-2.288V33.8C48.661,35.362,44.61,37.114,39.2,37.114Zm9.462,1.742c0,1.567-4.051,3.319-9.462,3.319s-9.462-1.752-9.462-3.319V36.423c2.051,1.494,5.834,2.288,9.462,2.288s7.411-.783,9.462-2.288Zm0-10.07c0,1.567-4.051,3.319-9.462,3.319s-9.462-1.752-9.462-3.319,4.051-3.319,9.462-3.319S48.661,27.219,48.661,28.786Zm0,15.141c0,1.567-4.051,3.319-9.462,3.319-4.4,0-7.895-1.154-9.049-2.422-.01-.021-.01-.031-.021-.052a.1.1,0,0,0-.052-.041,1.3,1.3,0,0,1-.34-.794V41.5C31.789,43,35.571,43.793,39.2,43.793s7.411-.783,9.462-2.288Z" transform="translate(-1.25 -5.398)" fill="#505050"/>
      <path id="Path_1600" data-name="Path 1600" d="M2.307,40.146a.77.77,0,0,0,.639-.886.774.774,0,1,0-1.525.258v.021a.766.766,0,0,0,.763.618A.5.5,0,0,0,2.307,40.146Z" transform="translate(-1.245 -4.38)" fill="#505050"/>
    </g>
  </g>
</svg>
