<?xml version="1.0" encoding="UTF-8"?>
<!DOCTYPE svg PUBLIC "-//W3C//DTD SVG 1.1//EN" "http://www.w3.org/Graphics/SVG/1.1/DTD/svg11.dtd">
<!-- Creator: CorelDRAW X7 -->
<svg xmlns="http://www.w3.org/2000/svg" xml:space="preserve" width="2.06108in" height="2.68001in" version="1.1" style="shape-rendering:geometricPrecision; text-rendering:geometricPrecision; image-rendering:optimizeQuality; fill-rule:evenodd; clip-rule:evenodd"
viewBox="0 0 725 942"
 xmlns:xlink="http://www.w3.org/1999/xlink">
 <defs>
  <style type="text/css">
   <![CDATA[
    .fil4 {fill:#FEFEFE}
    .fil0 {fill:#E6E7E8}
    .fil5 {fill:#F89F33}
    .fil9 {fill:#BFDFB9}
    .fil6 {fill:#FEFEFE;fill-rule:nonzero}
    .fil7 {fill:url(#id0)}
    .fil1 {fill:url(#id1)}
    .fil8 {fill:url(#id2)}
    .fil3 {fill:url(#id3)}
    .fil10 {fill:url(#id4)}
    .fil2 {fill:url(#id5)}
   ]]>
  </style>
  <linearGradient id="id0" gradientUnits="userSpaceOnUse" x1="357.963" y1="-16.6502" x2="430.93" y2="56.3167">
   <stop offset="0" style="stop-opacity:1; stop-color:#5B4A88"/>
   <stop offset="1" style="stop-opacity:1; stop-color:#4C3A6D"/>
  </linearGradient>
  <linearGradient id="id1" gradientUnits="userSpaceOnUse" xlink:href="#id0" x1="31.8356" y1="549.022" x2="159.724" y2="676.91">
  </linearGradient>
  <linearGradient id="id2" gradientUnits="objectBoundingBox" x1="11.74%" y1="17.7464%" x2="88.26%" y2="82.2536%">
   <stop offset="0" style="stop-opacity:1; stop-color:#5B4A88"/>
   <stop offset="1" style="stop-opacity:1; stop-color:#4E3B75"/>
  </linearGradient>
  <linearGradient id="id3" gradientUnits="userSpaceOnUse" xlink:href="#id0" x1="229.252" y1="122.934" x2="559.639" y2="454.884">
  </linearGradient>
  <linearGradient id="id4" gradientUnits="userSpaceOnUse" xlink:href="#id0" x1="276.019" y1="567.996" x2="512.872" y2="808.097">
  </linearGradient>
  <linearGradient id="id5" gradientUnits="userSpaceOnUse" xlink:href="#id0" x1="601.596" y1="751.873" x2="704.261" y2="622.185">
  </linearGradient>
 </defs>
 <g id="Layer_x0020_1">
  <metadata id="CorelCorpID_0Corel-Layer"/>
  <ellipse class="fil0" cx="394" cy="915" rx="162" ry="27"/>
  <path class="fil1" d="M139 618c-11,10 -7,8 -20,-2 -33,-26 -115,-98 -119,-89 -6,13 74,117 109,157 20,21 14,21 37,1l46 -39 -12 -68 -41 40z"/>
  <path class="fil2" d="M641 645c13,6 10,5 3,20 -19,37 -71,133 -62,135 15,3 98,-97 130,-140 17,-24 20,-22 -7,-37l-92 -49 -8 56 36 15z"/>
  <rect class="fil3" x="152" y="58" width="485" height="461" rx="83" ry="83"/>
  <path class="fil4" d="M378 259c0,-1 1,-1 1,-2 -1,-8 0,-16 -1,-23 -1,-7 -2,-15 -5,-21 -5,-10 -13,-14 -24,-12 -8,1 -14,7 -17,15 -3,9 -4,18 -4,28 0,5 0,10 0,15 17,0 34,0 50,0zm80 0c1,-1 1,-1 1,-1 -1,-11 -1,-23 -1,-34 -1,-8 -3,-16 -7,-22 -8,-17 -29,-18 -39,-3 -4,6 -6,13 -7,20 -2,12 -2,25 -1,38 0,0 0,1 0,2 18,0 36,0 54,0zm-199 -45c0,0 1,0 2,0 12,0 24,0 36,0 2,0 3,0 3,-3 1,-12 4,-25 10,-37 7,-13 19,-20 34,-21 7,0 14,0 20,3 8,3 14,8 19,16 0,0 0,1 1,2 0,0 0,0 0,0 1,-2 2,-4 3,-7 4,-10 10,-19 20,-24 8,-4 15,-5 23,-4 11,0 22,2 31,8 12,6 18,17 22,29 3,11 5,22 6,33 0,1 0,3 0,4 0,0 0,0 0,1 7,0 14,0 21,0 7,0 13,0 20,0 0,9 0,17 0,25 -13,0 -27,0 -40,0 0,7 0,13 0,20 13,0 27,0 40,0 0,9 0,17 0,26 -13,0 -27,0 -41,0 0,16 0,33 0,50 -10,-2 -20,-3 -30,-5 0,-4 0,-9 0,-13 0,-2 0,-3 0,-5 0,-6 -4,-9 -10,-9 -4,-1 -7,0 -11,0 -32,0 -65,0 -97,0 -9,0 -14,4 -14,13 -1,5 0,10 0,16 0,1 0,2 0,3 -9,0 -18,0 -27,0 0,-17 0,-33 0,-50 -14,0 -28,0 -41,0 0,-9 0,-17 0,-26 0,0 0,0 1,0 12,0 25,0 37,0 1,0 1,0 2,0 0,-6 0,-13 0,-20 -14,0 -27,0 -40,0 0,-8 0,-17 0,-25z"/>
  <circle class="fil5" cx="432" cy="227" r="15"/>
  <path class="fil5" d="M354 213c8,0 15,6 15,14 0,8 -7,15 -15,15 -8,0 -14,-7 -14,-15 0,-8 6,-14 14,-14z"/>
  <path class="fil6" d="M326 410c-5,-5 -5,-12 -1,-16 4,-5 11,-5 16,-1 0,1 0,1 0,1 13,11 32,18 52,18 18,0 37,-5 48,-18l1 -1c4,-4 11,-5 15,-1 5,5 5,12 1,16 0,0 0,1 -1,1 -16,18 -40,25 -65,25 -24,0 -48,-8 -65,-23 -1,-1 -1,-1 -1,-1z"/>
  <g id="_2632256739200">
   <circle class="fil4" cx="362" cy="222" r="4"/>
   <circle class="fil4" cx="357" cy="216" r="2"/>
  </g>
  <g id="_2632256741440">
   <circle class="fil4" cx="440" cy="222" r="4"/>
   <circle class="fil4" cx="435" cy="216" r="2"/>
  </g>
  <path class="fil7" d="M394 0c44,0 102,40 80,40l-159 0c-22,0 35,-40 79,-40z"/>
  <g id="_2632256739840">
   <path class="fil8" d="M338 857c0,0 1,54 -27,54 -27,0 -26,-54 -26,-54l53 0z"/>
   <path class="fil8" d="M504 857c0,0 1,54 -26,54 -28,0 -27,-54 -27,-54l53 0z"/>
  </g>
  <g id="_2632256745632">
   <path class="fil9" d="M380 740c1,-7 -1,-13 -8,-16 -5,-2 -10,-3 -14,-3 -7,-1 -11,-5 -13,-11 -2,-6 0,-11 4,-16 5,-4 10,-5 16,-2 6,2 9,6 9,13 1,3 1,6 1,9 2,8 8,12 18,13 4,0 9,-1 13,-2 6,-2 9,-8 10,-14 1,-2 1,-4 1,-7 1,-8 9,-15 18,-14 8,1 13,9 11,18 -1,8 -6,13 -15,13 -7,0 -14,2 -17,9 -2,4 -2,8 -3,12 -1,6 -3,11 -8,13 -9,4 -23,1 -23,-15l0 0z"/>
   <path class="fil5" d="M416 775c0,-6 -2,-12 -9,-15 -4,-2 -9,-3 -14,-3 -6,-1 -10,-5 -12,-11 -2,-6 0,-11 4,-16 5,-4 10,-4 16,-2 6,2 9,7 9,13 0,3 0,6 1,9 1,7 8,12 17,13 5,0 9,-1 14,-3 6,-1 8,-7 9,-12 1,-3 1,-5 1,-7 1,-9 9,-16 18,-15 7,1 13,10 11,18 -1,8 -6,13 -15,13 -7,0 -14,2 -17,9 -2,4 -2,8 -3,12 -1,5 -3,11 -8,13 -9,4 -23,1 -22,-16z"/>
   <path class="fil4" d="M325 726c6,0 13,-2 16,-9 2,-4 2,-9 3,-14 0,-7 4,-11 10,-13 6,-2 12,0 16,5 5,4 5,10 3,16 -3,6 -7,9 -13,9 -3,0 -6,0 -9,1 -8,2 -13,8 -13,17 0,5 1,10 2,14 2,6 7,9 13,10 2,0 5,0 7,0 9,1 16,10 15,18 -1,8 -10,14 -19,12 -8,-1 -12,-6 -12,-15 -1,-8 -3,-14 -10,-18 -3,-2 -8,-2 -12,-3 -5,-1 -11,-2 -13,-8 -4,-9 -1,-23 16,-22l0 0z"/>
  </g>
  <path class="fil10" d="M257 540l275 0c30,0 59,25 54,55l-27 186c-5,30 -25,55 -55,55l-219 0c-30,0 -50,-25 -55,-55l-27 -186c-5,-30 24,-55 54,-55z"/>
  <g id="_2632256746560">
   <path class="fil9" d="M380 687c1,-6 -1,-13 -8,-16 -5,-2 -10,-2 -14,-3 -7,-1 -11,-5 -13,-11 -2,-6 0,-11 4,-16 5,-4 10,-5 16,-2 6,2 9,6 9,13 1,3 1,6 1,9 2,8 8,13 18,13 4,0 9,-1 13,-2 6,-2 9,-8 10,-13 1,-3 1,-5 1,-7 1,-9 9,-16 18,-15 8,1 13,9 11,18 -1,8 -6,13 -15,13 -7,0 -14,2 -17,9 -2,4 -2,8 -3,12 -1,6 -3,11 -8,13 -9,4 -23,1 -23,-15l0 0z"/>
   <path class="fil5" d="M416 722c0,-6 -2,-12 -9,-15 -4,-2 -9,-3 -14,-3 -6,-1 -10,-5 -12,-11 -2,-6 0,-11 4,-16 5,-4 10,-4 16,-2 6,2 9,7 9,13 0,3 0,6 1,9 1,8 8,12 17,13 5,0 9,-1 14,-2 6,-2 8,-8 9,-13 1,-3 1,-5 1,-7 1,-9 9,-16 18,-15 7,1 13,10 11,18 -1,8 -6,13 -15,13 -7,0 -14,2 -17,9 -2,4 -2,8 -3,12 -1,5 -3,11 -8,13 -9,4 -23,1 -22,-16z"/>
   <path class="fil4" d="M325 673c6,1 13,-2 16,-9 2,-4 2,-9 3,-14 0,-6 4,-11 10,-13 6,-2 12,0 16,5 5,5 5,10 3,16 -2,6 -7,9 -13,9 -3,0 -6,0 -9,1 -8,2 -13,8 -13,17 0,5 1,10 2,14 2,6 7,9 13,10 2,0 5,0 7,1 9,0 16,9 15,17 -1,8 -10,14 -19,12 -8,-1 -12,-6 -12,-15 -1,-7 -3,-14 -10,-18 -3,-1 -8,-2 -12,-3 -5,-1 -11,-2 -13,-8 -4,-9 -1,-23 16,-22l0 0z"/>
  </g>
 </g>
</svg>
