<svg xmlns="http://www.w3.org/2000/svg" xmlns:xlink="http://www.w3.org/1999/xlink" width="456.427" height="488.717" viewBox="0 0 456.427 488.717">
  <defs>
    <linearGradient id="linear-gradient" x1="0.159" y1="0.14" x2="0.84" y2="0.86" gradientUnits="objectBoundingBox">
      <stop offset="0" stop-color="#5b4a88"/>
      <stop offset="1" stop-color="#4c3a6d"/>
    </linearGradient>
    <linearGradient id="linear-gradient-2" x1="0.284" y1="-0.417" x2="0.716" y2="1.411" xlink:href="#linear-gradient"/>
  </defs>
  <g id="Group_1161" data-name="Group 1161" transform="translate(-381.826 -28.164)">
    <rect id="Rectangle_671" data-name="Rectangle 671" width="456.427" height="433.736" rx="89" transform="translate(381.826 83.145)" fill="url(#linear-gradient)"/>
    <path id="Path_1678" data-name="Path 1678" d="M315.579,262.452v-1.745a182.42,182.42,0,0,0-.873-21.818,47.561,47.561,0,0,0-4.364-19.2c-4.364-9.6-12.218-13.963-21.818-12.218-8.727,1.745-13.963,6.982-16.581,14.836-3.491,7.854-3.491,17.454-3.491,26.181-.873,4.364,0,8.727,0,13.963Zm75.053,0v-.873c0-10.473,0-21.818-.873-32.29,0-6.982-2.618-13.963-5.236-20.945C376.669,193.508,356.6,191.763,347,206.6c-3.491,5.236-5.236,12.218-6.109,18.327-2.618,11.345-1.745,23.563-1.745,35.781v1.745ZM203,220.562h35.781a2.314,2.314,0,0,0,2.618-2.618c1.745-12.218,3.491-24.436,9.6-34.908,6.982-13.091,17.454-19.2,31.418-20.072,6.982,0,13.091,0,20.072,2.618a30.619,30.619,0,0,1,16.581,14.836c.873.873.873,1.745,1.745,1.745v.873c.873-2.618,1.745-4.364,2.618-6.982,3.491-9.6,9.6-18.327,19.2-22.69C349.615,149.873,356.6,149,364.451,149c10.473.873,20.072,2.618,28.8,7.854,10.473,6.109,16.581,16.581,20.072,27.054a100.148,100.148,0,0,1,5.236,32.29,3.206,3.206,0,0,1,.873,2.618v1.745H458.7v23.563H420.3v18.327h38.4v24.436H419.432v47.126c-9.6-1.745-19.2-2.618-28.8-4.364V312.2c0-5.236-2.618-8.727-8.727-8.727H279.8c-7.854,0-13.091,4.364-13.091,13.091v17.454H241.4V286.888H203V262.452h37.526V244.125H203Z" transform="translate(279.187 9.198)" fill="#fefefe" fill-rule="evenodd"/>
    <circle id="Ellipse_112" data-name="Ellipse 112" cx="13.963" cy="13.963" r="13.963" transform="translate(631.42 228.014)" fill="#f89f33"/>
    <path id="Path_1679" data-name="Path 1679" d="M303.963,229c6.982,0,13.091,6.109,13.091,13.963s-6.109,13.963-13.091,13.963a13.963,13.963,0,1,1,0-27.927Z" transform="translate(268.113 -0.986)" fill="#f89f33" fill-rule="evenodd"/>
    <path id="Path_1680" data-name="Path 1680" d="M274.505,438.341a9.789,9.789,0,0,1-.873-13.963c4.364-4.364,10.473-5.236,14.836-.873.873.873.873,0,.873.873,12.218,10.473,30.545,16.581,48,16.581s34.908-5.236,45.381-16.581l.873-.873c3.491-4.364,10.473-4.364,14.836-.873s4.364,10.473.873,14.836l-.873.873c-14.836,16.581-38.4,23.563-61.09,23.563s-46.254-7.854-61.962-21.818C274.505,439.214,274.505,439.214,274.505,438.341Z" transform="translate(270.517 -25.313)" fill="#fefefe"/>
    <g id="_2834632985696" transform="translate(572.949 229.76)">
      <circle id="Ellipse_113" data-name="Ellipse 113" cx="4.364" cy="4.364" r="4.364" transform="translate(1.745 3.491)" fill="#fefefe"/>
      <circle id="Ellipse_114" data-name="Ellipse 114" cx="1.745" cy="1.745" r="1.745" fill="#fefefe"/>
    </g>
    <g id="_2834632986976" transform="translate(646.257 229.76)">
      <circle id="Ellipse_115" data-name="Ellipse 115" cx="4.364" cy="4.364" r="4.364" transform="translate(1.745 3.491)" fill="#fefefe"/>
      <circle id="Ellipse_116" data-name="Ellipse 116" cx="1.745" cy="1.745" r="1.745" fill="#fefefe"/>
    </g>
    <path id="Path_1681" data-name="Path 1681" d="M337.423,0c41.017,0,96,37.526,75.053,37.526H262.37C242.3,37.526,296.405,0,337.423,0Z" transform="translate(272.18 28.164)" fill-rule="evenodd" fill="url(#linear-gradient-2)"/>
  </g>
</svg>
