<svg xmlns="http://www.w3.org/2000/svg" width="87.14" height="82.562" viewBox="0 0 87.14 82.562">
  <g id="_2303158_contact_us_headphones_headset_help_listne_icon" data-name="2303158_contact us_headphones_headset_help_listne_icon" transform="translate(-2.203 -3.471)">
    <path id="Path_1" data-name="Path 1" d="M19.927,48.351A16.675,16.675,0,0,1,3.586,28.341,17.075,17.075,0,0,1,20.527,15h5.236V48.351Z" transform="translate(0 24.343)" fill="none" stroke="#fff" stroke-linecap="round" stroke-linejoin="round" stroke-width="2"/>
    <path id="Path_2" data-name="Path 2" d="M27.836,48.351a16.675,16.675,0,0,0,16.341-20.01A17.075,17.075,0,0,0,27.236,15H22V48.351Z" transform="translate(43.783 24.343)" fill="none" stroke="#fff" stroke-linecap="round" stroke-linejoin="round" stroke-width="2"/>
    <path id="Path_3" data-name="Path 3" d="M7,39.344V35.409A30.381,30.381,0,0,1,30.048,5.395,30.014,30.014,0,0,1,67.032,34.709v4.636" transform="translate(8.755)" fill="none" stroke="#fff" stroke-linecap="round" stroke-linejoin="round" stroke-width="2"/>
    <path id="Path_4" data-name="Path 4" d="M10,25h0A10,10,0,0,0,20,35" transform="translate(15.763 47.694)" fill="none" stroke="#fff" stroke-linecap="round" stroke-linejoin="round" stroke-width="2"/>
    <circle id="Ellipse_1" data-name="Ellipse 1" cx="3.335" cy="3.335" r="3.335" transform="translate(42.438 79.364)" fill="#fff"/>
    <line id="Line_13" data-name="Line 13" y2="30.014" transform="translate(17.426 41.012)" fill="none" stroke="#fff" stroke-linecap="round" stroke-linejoin="round" stroke-width="1"/>
    <rect id="Rectangle_324" data-name="Rectangle 324" width="6.67" height="33.349" transform="translate(65.782 39.344)" fill="#fff"/>
  </g>
</svg>
