<svg xmlns="http://www.w3.org/2000/svg" width="16" height="16" viewBox="0 0 16 16"><g transform="translate(-3 -3)"><path d="M15.361,11.285a.893.893,0,1,0-.893-.893A.893.893,0,0,0,15.361,11.285Z" transform="translate(-4.532 -2.568)" fill="#acacac"/><path d="M16.142,19.213V13.5H14v.357h.714v5.356H14v.357h2.857v-.357Z" transform="translate(-4.428 -4.542)" fill="#acacac"/><path d="M11,3a8,8,0,1,0,8,8A8,8,0,0,0,11,3Zm0,15.335A7.335,7.335,0,1,1,18.335,11,7.343,7.343,0,0,1,11,18.335Z" fill="#acacac"/></g></svg>