<svg width="289" height="230" viewBox="0 0 289 230" fill="none" xmlns="http://www.w3.org/2000/svg">
<path d="M6.43945 205.53L40.9523 205.358L75.4651 205.293L144.498 205.171L213.524 205.293L248.044 205.358L282.556 205.53L248.044 205.71L213.524 205.768L144.498 205.89L75.4651 205.768L40.9523 205.703L6.43945 205.53Z" fill="#263238"/>
<path d="M89.4309 103.35C89.2473 103.139 89.0504 102.94 88.8414 102.753C88.6534 102.546 88.4542 102.349 88.2448 102.164C88.0593 101.955 87.8625 101.755 87.6553 101.567C87.4691 101.358 87.2698 101.161 87.0586 100.978C86.8717 100.769 86.6704 100.568 86.4692 100.381C86.2873 100.171 86.0903 99.9736 85.8797 99.7917C85.6917 99.5822 85.4926 99.383 85.283 99.1951C85.1012 98.9845 84.9042 98.7875 84.6936 98.6056C84.5055 98.3984 84.3064 98.2016 84.0969 98.0161C83.4884 97.3453 82.7775 96.7752 81.9906 96.3268V36.9196C81.9906 36.6033 81.8397 36.4451 81.8397 36.1288C81.8786 35.8062 81.8237 35.4793 81.6815 35.1871C81.6815 35.029 81.5305 34.7127 81.5305 34.5545C81.444 34.2313 81.336 33.9143 81.2071 33.6056C81.0408 33.432 80.9328 33.2109 80.8979 32.973C80.717 32.689 80.5048 32.4262 80.2653 32.1894C80.1 32.0313 79.949 31.7222 79.7909 31.5568L79.1583 30.9242C79.1583 30.8308 79.0361 30.7301 78.8995 30.6726L78.5904 30.3563H78.5544C78.5544 30.2557 78.4394 30.1622 78.3028 30.0975L77.9865 29.7884C77.9865 29.695 77.8643 29.5943 77.7277 29.5296L77.4186 29.2205C77.4186 29.1199 77.2964 29.0264 77.1598 28.9617L76.8507 28.6454C76.8507 28.552 76.7285 28.4513 76.5919 28.3866L76.2756 28.0775V28.0416C76.2756 27.9481 76.1534 27.8547 76.0168 27.79L75.7077 27.4737H75.6718C75.6718 27.3802 75.5568 27.2796 75.4202 27.2149L75.1039 26.9058V26.8698C75.1039 26.7764 74.9817 26.6829 74.8451 26.6182L74.536 26.3019H74.5C74.5 26.2013 74.385 26.1078 74.2484 26.0431L73.9321 25.734C73.9321 25.6406 73.8099 25.5399 73.6733 25.4824L73.3283 25.1373C73.3283 24.9792 73.0191 24.821 72.8538 24.821C72.8548 24.8006 72.8516 24.7802 72.8445 24.7611C72.8373 24.7419 72.8263 24.7244 72.8122 24.7096C72.7981 24.6948 72.7811 24.6831 72.7623 24.675C72.7435 24.667 72.7233 24.6629 72.7029 24.6629C72.3866 24.5119 72.2212 24.3466 71.9121 24.1884C71.6402 23.9912 71.3786 23.7801 71.1285 23.5558C70.9704 23.5558 70.6541 23.4049 70.4959 23.4049C70.1796 23.2467 69.7052 23.2467 69.547 23.0814C69.2746 23.1036 69.0013 23.0514 68.7563 22.9304H66.0821C65.8944 23.0509 65.6713 23.1042 65.4495 23.0814C64.975 23.2467 64.6659 23.2467 64.5006 23.4049C64.1915 23.4049 64.0333 23.5558 63.868 23.8793C63.5304 23.8872 63.2028 23.9947 62.9263 24.1884C62.7753 24.3466 62.4518 24.5119 62.2936 24.6629C62.0836 24.8932 61.8115 25.058 61.5101 25.1373C61.3923 25.3757 61.2314 25.5901 61.0356 25.77C60.8775 25.9281 60.8775 26.0791 60.7265 26.0791L2.16038 98.4043C0.775462 100.067 0.0841969 102.2 0.230106 104.359C0.376016 106.518 1.34789 108.538 2.94394 110C3.12872 110.217 3.33065 110.419 3.54779 110.604C3.72831 110.82 3.928 111.02 4.14445 111.2C4.32923 111.417 4.53116 111.619 4.7483 111.804C4.93058 112.021 5.13012 112.223 5.34496 112.408C5.52983 112.623 5.73177 112.822 5.94881 113.005C6.13109 113.222 6.33062 113.424 6.54547 113.608C6.73033 113.823 6.93227 114.023 7.14932 114.205C7.33159 114.422 7.53113 114.624 7.74598 114.809C7.93084 115.024 8.13278 115.223 8.34983 115.406C8.72157 115.828 9.13591 116.211 9.58628 116.549C11.0668 117.836 12.9814 118.512 14.9418 118.439H58.5915V124.413C58.5786 125.629 58.823 126.834 59.3086 127.949C59.7943 129.064 60.5102 130.064 61.4094 130.883C61.5963 131.084 61.7904 131.278 61.9845 131.458C62.1677 131.663 62.3621 131.857 62.5668 132.04C62.7537 132.241 62.9478 132.436 63.1491 132.615C63.3323 132.82 63.5267 133.014 63.7314 133.198C63.9183 133.399 64.1124 133.593 64.3137 133.78C64.495 133.986 64.6895 134.181 64.896 134.362C65.0757 134.563 65.2698 134.757 65.471 134.944C65.6542 135.149 65.8486 135.343 66.0533 135.527C66.233 135.721 66.4271 135.915 66.6284 136.102C67.8158 137.385 69.3623 138.282 71.0663 138.674C72.7704 139.066 74.5531 138.936 76.1823 138.301C77.8114 137.666 79.2115 136.554 80.2 135.112C81.1886 133.67 81.7199 131.963 81.7246 130.214V118.41H83.3062C84.457 118.429 85.6002 118.219 86.6691 117.792C87.738 117.365 88.7112 116.73 89.5321 115.923C90.353 115.116 91.0052 114.154 91.4506 113.093C91.896 112.031 92.1259 110.892 92.1266 109.741C92.144 108.547 91.9134 107.363 91.4494 106.263C90.9854 105.163 90.298 104.171 89.4309 103.35ZM58.5771 69.5634V95.04H38.0462L58.5771 69.5634Z" fill="#F4A047"/>
<path opacity="0.1" d="M89.4309 103.35C89.2473 103.139 89.0504 102.94 88.8414 102.753C88.6534 102.546 88.4542 102.349 88.2448 102.164C88.0593 101.955 87.8625 101.755 87.6553 101.567C87.4691 101.358 87.2698 101.161 87.0586 100.978C86.8717 100.769 86.6704 100.568 86.4692 100.381C86.2873 100.171 86.0903 99.9736 85.8797 99.7917C85.6917 99.5822 85.4926 99.383 85.283 99.1951C85.1012 98.9845 84.9042 98.7875 84.6936 98.6056C84.5055 98.3984 84.3064 98.2016 84.0969 98.0161C83.4884 97.3453 82.7775 96.7752 81.9906 96.3268V36.9196C81.9906 36.6033 81.8397 36.4451 81.8397 36.1288C81.8786 35.8062 81.8237 35.4793 81.6815 35.1871C81.6815 35.029 81.5305 34.7127 81.5305 34.5545C81.444 34.2313 81.336 33.9143 81.2071 33.6056C81.0408 33.432 80.9328 33.2109 80.8979 32.973C80.717 32.689 80.5048 32.4262 80.2653 32.1894C80.1 32.0313 79.949 31.7222 79.7909 31.5568L79.1583 30.9242C79.1583 30.8308 79.0361 30.7301 78.8995 30.6726L78.5904 30.3563H78.5544C78.5544 30.2557 78.4394 30.1622 78.3028 30.0975L77.9865 29.7884C77.9865 29.695 77.8643 29.5943 77.7277 29.5296L77.4186 29.2205C77.4186 29.1199 77.2964 29.0264 77.1598 28.9617L76.8507 28.6454C76.8507 28.552 76.7285 28.4513 76.5919 28.3866L76.2756 28.0775V28.0416C76.2756 27.9481 76.1534 27.8547 76.0168 27.79L75.7077 27.4737H75.6718C75.6718 27.3802 75.5568 27.2796 75.4202 27.2149L75.1039 26.9058V26.8698C75.1039 26.7764 74.9817 26.6829 74.8451 26.6182L74.536 26.3019H74.5C74.5 26.2013 74.385 26.1078 74.2484 26.0431L73.9321 25.734C73.9321 25.6406 73.8099 25.5399 73.6733 25.4824L73.3283 25.1373C73.3283 24.9792 73.0191 24.821 72.8538 24.821C72.8548 24.8006 72.8516 24.7802 72.8445 24.7611C72.8373 24.7419 72.8263 24.7244 72.8122 24.7096C72.7981 24.6948 72.7811 24.6831 72.7623 24.675C72.7435 24.667 72.7233 24.6629 72.7029 24.6629C72.3866 24.5119 72.2212 24.3466 71.9121 24.1884C71.6402 23.9912 71.3786 23.7801 71.1285 23.5558C70.9704 23.5558 70.6541 23.4049 70.4959 23.4049C70.1796 23.2467 69.7052 23.2467 69.547 23.0814C69.2746 23.1036 69.0013 23.0514 68.7563 22.9304H66.0821C65.8944 23.0509 65.6713 23.1042 65.4495 23.0814C64.975 23.2467 64.6659 23.2467 64.5006 23.4049C64.1915 23.4049 64.0333 23.5558 63.868 23.8793C63.5304 23.8872 63.2028 23.9947 62.9263 24.1884C62.7753 24.3466 62.4518 24.5119 62.2936 24.6629C62.0836 24.8932 61.8115 25.058 61.5101 25.1373C61.3923 25.3757 61.2314 25.5901 61.0356 25.77C60.8775 25.9281 60.8775 26.0791 60.7265 26.0791L2.16038 98.4043C0.775462 100.067 0.0841969 102.2 0.230106 104.359C0.376016 106.518 1.34789 108.538 2.94394 110C3.12872 110.217 3.33065 110.419 3.54779 110.604C3.72831 110.82 3.928 111.02 4.14445 111.2C4.32923 111.417 4.53116 111.619 4.7483 111.804C4.93058 112.021 5.13012 112.223 5.34496 112.408C5.52983 112.623 5.73177 112.822 5.94881 113.005C6.13109 113.222 6.33062 113.424 6.54547 113.608C6.73033 113.823 6.93227 114.023 7.14932 114.205C7.33159 114.422 7.53113 114.624 7.74598 114.809C7.93084 115.024 8.13278 115.223 8.34983 115.406C8.72157 115.828 9.13591 116.211 9.58628 116.549C11.0668 117.836 12.9814 118.512 14.9418 118.439H58.5915V124.413C58.5786 125.629 58.823 126.834 59.3086 127.949C59.7943 129.064 60.5102 130.064 61.4094 130.883C61.5963 131.084 61.7904 131.278 61.9845 131.458C62.1677 131.663 62.3621 131.857 62.5668 132.04C62.7537 132.241 62.9478 132.436 63.1491 132.615C63.3323 132.82 63.5267 133.014 63.7314 133.198C63.9183 133.399 64.1124 133.593 64.3137 133.78C64.495 133.986 64.6895 134.181 64.896 134.362C65.0757 134.563 65.2698 134.757 65.471 134.944C65.6542 135.149 65.8486 135.343 66.0533 135.527C66.233 135.721 66.4271 135.915 66.6284 136.102C67.8158 137.385 69.3623 138.282 71.0663 138.674C72.7704 139.066 74.5531 138.936 76.1823 138.301C77.8114 137.666 79.2115 136.554 80.2 135.112C81.1886 133.67 81.7199 131.963 81.7246 130.214V118.41H83.3062C84.457 118.429 85.6002 118.219 86.6691 117.792C87.738 117.365 88.7112 116.73 89.5321 115.923C90.353 115.116 91.0052 114.154 91.4506 113.093C91.896 112.031 92.1259 110.892 92.1266 109.741C92.144 108.547 91.9134 107.363 91.4494 106.263C90.9854 105.163 90.298 104.171 89.4309 103.35ZM58.5771 69.5634V95.04H38.0462L58.5771 69.5634Z" fill="black"/>
<path d="M86.3115 103.731C86.3107 104.883 86.0807 106.023 85.6348 107.084C85.1889 108.146 84.5361 109.109 83.7144 109.916C82.8928 110.723 81.9187 111.358 80.8489 111.785C79.7792 112.211 78.6353 112.421 77.4838 112.401H75.9095V124.384C75.9095 126.683 74.9961 128.888 73.3702 130.514C71.7444 132.14 69.5392 133.054 67.2399 133.054C64.9406 133.054 62.7355 132.14 61.1096 130.514C59.4838 128.888 58.5704 126.683 58.5704 124.384V112.401H8.9182C6.96957 112.467 5.06842 111.791 3.59858 110.51C2.6879 109.825 1.9254 108.963 1.35714 107.976C0.788868 106.988 0.426615 105.896 0.292246 104.764C0.157877 103.633 0.254181 102.486 0.575341 101.393C0.896502 100.3 1.43586 99.2831 2.16085 98.4042L60.461 25.8632C60.6192 25.8632 60.6192 25.7123 60.7773 25.5541C60.9731 25.3743 61.1339 25.1598 61.2518 24.9215C61.5542 24.8398 61.828 24.6755 62.0425 24.4471C62.1935 24.2889 62.5098 24.1308 62.6679 23.9726C62.9453 23.7742 63.2759 23.664 63.6168 23.6563C63.775 23.3472 63.9331 23.189 64.2494 23.189C64.4004 23.0309 64.7167 23.0309 65.1911 22.8728C65.4141 22.8964 65.6382 22.8404 65.8238 22.7146H68.5051C68.7451 22.843 69.0177 22.898 69.2887 22.8728C69.4469 23.0309 69.9213 23.0309 70.2376 23.189C70.3958 23.189 70.7121 23.3472 70.8702 23.3472C71.1793 23.6563 71.4956 23.8145 71.6538 23.9726C71.9701 24.1308 72.1282 24.2889 72.4445 24.4471C72.4865 24.4471 72.5267 24.4637 72.5564 24.4934C72.586 24.523 72.6027 24.5633 72.6027 24.6052C72.7608 24.6052 73.0771 24.7634 73.0771 24.9215L73.7025 25.5541C73.8607 25.7123 74.0188 26.0214 74.177 26.1795C74.4182 26.4174 74.6305 26.6828 74.8096 26.9703C74.8491 27.2081 74.9593 27.4286 75.1259 27.6029C75.2559 27.9073 75.3593 28.2224 75.435 28.5446C75.435 28.7028 75.5932 29.0191 75.5932 29.1772C75.7355 29.4719 75.7904 29.8012 75.7513 30.1261C75.7513 30.4352 75.9095 30.5934 75.9095 30.9097V95.0614H77.4838C79.8013 95.0499 82.0294 95.9545 83.6829 97.5784C85.3364 99.2022 86.2812 101.414 86.3115 103.731ZM58.5704 56.1276L27.2062 95.0614H58.5704V56.1276Z" fill="#F4A047"/>
<path d="M178.518 46.2157C176.739 43.5077 174.671 41.001 172.35 38.7394C172.265 38.6454 172.173 38.5565 172.077 38.4735L171.998 38.3944C171.926 38.3153 171.854 38.2362 171.775 38.1643C171.574 37.9487 171.358 37.7474 171.15 37.5389L171.092 37.4886L170.877 37.2729C170.852 37.2448 170.826 37.2184 170.797 37.1939C170.726 37.1148 170.654 37.0357 170.575 36.9638C170.373 36.7482 170.158 36.5469 169.949 36.3384L169.892 36.2881L169.676 36.0724L169.597 35.9934C169.525 35.9143 169.453 35.8352 169.374 35.7633C169.173 35.5477 168.957 35.3464 168.749 35.1379L168.691 35.0876L168.476 34.8719C168.476 34.8719 168.425 34.8144 168.396 34.7928C168.325 34.7109 168.248 34.634 168.166 34.5628C167.972 34.34 167.757 34.1459 167.548 33.9374L167.491 33.8871C167.424 33.8099 167.352 33.7378 167.275 33.6714C167.275 33.6714 167.225 33.6139 167.196 33.5923C160.863 27.065 152.61 22.7446 143.351 22.7446C130.893 22.7446 120.656 30.1562 114.029 40.2347C107.091 50.2988 103.476 63.4182 103.317 77.9105C103.476 92.2879 107.091 105.493 114.029 115.586C115.805 118.254 117.85 120.733 120.132 122.984L120.448 123.293V123.329L121.009 123.889C121.102 123.997 121.203 124.091 121.296 124.184L121.613 124.493L121.649 124.529L122.209 125.09L122.497 125.392L122.813 125.694C122.828 125.702 122.841 125.714 122.849 125.73L123.41 126.29L123.697 126.592L124.014 126.894C124.022 126.899 124.03 126.905 124.036 126.912C124.042 126.919 124.047 126.928 124.05 126.937L124.61 127.498L124.905 127.793L125.214 128.095L125.257 128.138L125.818 128.699C132.043 134.917 140.08 139.093 149.318 139.093C161.452 139.093 171.854 131.524 178.482 121.589C185.254 111.525 189.042 98.2617 189.042 83.9203C189.064 69.3919 185.29 56.3086 178.518 46.2157ZM158.009 105.788C153.437 112.56 148.232 115.558 143.351 115.558C140.348 115.485 137.441 114.48 135.034 112.682C134.811 112.395 134.595 112.093 134.38 111.776C129.966 105.156 126.81 95.0699 126.81 83.8771C126.81 72.5262 129.966 62.5986 134.38 55.8413C139.117 49.2205 144.444 46.0719 149.354 46.2228C152.2 46.2099 154.974 47.1177 157.261 48.8108C157.513 49.1486 157.757 49.4793 157.98 49.8316C162.394 56.6105 165.543 66.538 165.543 77.8674C165.571 89.0602 162.423 99.1602 158.009 105.788Z" fill="#F4A047"/>
<path opacity="0.1" d="M178.518 46.2157C176.739 43.5077 174.671 41.001 172.35 38.7394C172.265 38.6454 172.173 38.5565 172.077 38.4735L171.998 38.3944C171.926 38.3153 171.854 38.2362 171.775 38.1643C171.574 37.9487 171.358 37.7474 171.15 37.5389L171.092 37.4886L170.877 37.2729C170.852 37.2448 170.826 37.2184 170.797 37.1939C170.726 37.1148 170.654 37.0357 170.575 36.9638C170.373 36.7482 170.158 36.5469 169.949 36.3384L169.892 36.2881L169.676 36.0724L169.597 35.9934C169.525 35.9143 169.453 35.8352 169.374 35.7633C169.173 35.5477 168.957 35.3464 168.749 35.1379L168.691 35.0876L168.476 34.8719C168.476 34.8719 168.425 34.8144 168.396 34.7928C168.325 34.7109 168.248 34.634 168.166 34.5628C167.972 34.34 167.757 34.1459 167.548 33.9374L167.491 33.8871C167.424 33.8099 167.352 33.7378 167.275 33.6714C167.275 33.6714 167.225 33.6139 167.196 33.5923C160.863 27.065 152.61 22.7446 143.351 22.7446C130.893 22.7446 120.656 30.1562 114.029 40.2347C107.091 50.2988 103.476 63.4182 103.317 77.9105C103.476 92.2879 107.091 105.493 114.029 115.586C115.805 118.254 117.85 120.733 120.132 122.984L120.448 123.293V123.329L121.009 123.889C121.102 123.997 121.203 124.091 121.296 124.184L121.613 124.493L121.649 124.529L122.209 125.09L122.497 125.392L122.813 125.694C122.828 125.702 122.841 125.714 122.849 125.73L123.41 126.29L123.697 126.592L124.014 126.894C124.022 126.899 124.03 126.905 124.036 126.912C124.042 126.919 124.047 126.928 124.05 126.937L124.61 127.498L124.905 127.793L125.214 128.095L125.257 128.138L125.818 128.699C132.043 134.917 140.08 139.093 149.318 139.093C161.452 139.093 171.854 131.524 178.482 121.589C185.254 111.525 189.042 98.2617 189.042 83.9203C189.064 69.3919 185.29 56.3086 178.518 46.2157ZM158.009 105.788C153.437 112.56 148.232 115.558 143.351 115.558C140.348 115.485 137.441 114.48 135.034 112.682C134.811 112.395 134.595 112.093 134.38 111.776C129.966 105.156 126.81 95.0699 126.81 83.8771C126.81 72.5262 129.966 62.5986 134.38 55.8413C139.117 49.2205 144.444 46.0719 149.354 46.2228C152.2 46.2099 154.974 47.1177 157.261 48.8108C157.513 49.1486 157.757 49.4793 157.98 49.8316C162.394 56.6105 165.543 66.538 165.543 77.8674C165.571 89.0602 162.423 99.1602 158.009 105.788Z" fill="black"/>
<path d="M103.312 77.8805C103.47 63.3809 107.1 50.2976 114.03 40.2118C120.651 30.1477 130.894 22.7146 143.352 22.7146C155.487 22.7146 165.889 30.1261 172.51 40.2118C179.289 50.276 183.07 63.3809 183.07 77.8805C183.07 92.2578 179.289 105.471 172.51 115.556C165.889 125.484 155.487 133.054 143.352 133.054C130.894 133.054 120.651 125.484 114.03 115.556C107.114 105.471 103.47 92.2291 103.312 77.8805ZM165.573 77.8805C165.573 66.5368 162.424 56.602 158.01 49.8447C153.438 43.2239 148.241 40.0753 143.352 40.2334C138.464 40.0753 133.101 43.2239 128.378 49.8447C123.965 56.6236 120.809 66.5583 120.809 77.8805C120.809 89.0733 123.965 99.1662 128.378 105.78C133.101 112.559 138.443 115.556 143.352 115.556C148.262 115.556 153.417 112.559 158.01 105.78C162.424 99.1662 165.573 89.0589 165.573 77.8805Z" fill="#F4A047"/>
<path d="M285.904 103.35C285.717 103.142 285.515 102.94 285.314 102.753C285.12 102.545 284.919 102.351 284.717 102.164C284.523 101.956 284.329 101.754 284.128 101.567C283.934 101.359 283.733 101.158 283.531 100.978C283.337 100.769 283.143 100.568 282.942 100.381C282.748 100.173 282.547 99.9715 282.345 99.7917C282.151 99.5833 281.95 99.382 281.756 99.1951C281.57 98.988 281.373 98.7912 281.166 98.6056C280.972 98.3971 280.771 98.203 280.57 98.0161C279.961 97.3431 279.247 96.7727 278.456 96.3268V36.9196C278.456 36.6033 278.305 36.4451 278.305 36.1288C278.344 35.8062 278.289 35.4793 278.147 35.1871C278.147 35.029 277.996 34.7127 277.996 34.5545C277.91 34.2313 277.802 33.9143 277.673 33.6056C277.509 33.4299 277.402 33.2098 277.363 32.973C277.185 32.6873 276.972 32.4242 276.731 32.1894C276.566 32.0313 276.415 31.7222 276.256 31.5568L275.624 30.9242C275.624 30.8308 275.502 30.7301 275.365 30.6726L275.056 30.3563H275.02C275.02 30.2557 274.905 30.1622 274.768 30.0975L274.452 29.7884C274.452 29.695 274.33 29.5943 274.193 29.5296L273.884 29.2205C273.884 29.1199 273.762 29.0264 273.625 28.9617L273.316 28.6454C273.316 28.552 273.194 28.4513 273.057 28.3866L272.741 28.0775V28.0416C272.741 27.9481 272.619 27.8547 272.482 27.79L272.173 27.4737H272.137C272.137 27.3802 272.022 27.2796 271.886 27.2149L271.569 26.9058V26.8698C271.569 26.7764 271.447 26.6829 271.311 26.6182L271.002 26.3019H270.966C270.966 26.2013 270.851 26.1078 270.714 26.0431L270.398 25.734C270.398 25.6406 270.275 25.5399 270.139 25.4824L269.794 25.1373C269.794 24.9792 269.485 24.821 269.319 24.821C269.319 24.8003 269.315 24.7797 269.307 24.7605C269.299 24.7413 269.288 24.7239 269.273 24.7092C269.258 24.6945 269.241 24.6829 269.222 24.6749C269.203 24.667 269.182 24.6629 269.161 24.6629C268.852 24.5119 268.687 24.3466 268.378 24.1884C268.106 23.9912 267.844 23.7801 267.594 23.5558C267.436 23.5558 267.12 23.4049 266.961 23.4049C266.645 23.2467 266.178 23.2467 266.013 23.0814C265.74 23.1043 265.467 23.0521 265.222 22.9304H262.548C262.36 23.0509 262.137 23.1042 261.915 23.0814C261.441 23.2467 261.131 23.2467 260.966 23.4049C260.657 23.4049 260.499 23.5558 260.334 23.8793C259.996 23.888 259.669 23.9955 259.392 24.1884C259.241 24.3466 258.917 24.5119 258.766 24.6629C258.552 24.8913 258.278 25.0556 257.976 25.1373C257.855 25.3742 257.695 25.5882 257.501 25.77C257.343 25.9281 257.343 26.0791 257.192 26.0791L198.612 98.4043C197.227 100.067 196.535 102.2 196.681 104.359C196.827 106.518 197.799 108.538 199.395 110C199.58 110.217 199.782 110.419 199.999 110.604C200.179 110.82 200.379 111.02 200.596 111.2C200.78 111.417 200.982 111.619 201.199 111.804C201.802 112.402 202.401 113.003 202.997 113.608C203.402 114.004 203.802 114.404 204.197 114.809C204.382 115.024 204.584 115.223 204.801 115.406C205.173 115.828 205.587 116.211 206.037 116.549C207.518 117.836 209.433 118.512 211.393 118.439H255.043V124.413C255.03 125.629 255.274 126.834 255.76 127.949C256.245 129.064 256.961 130.064 257.861 130.883C258.048 131.091 258.249 131.285 258.443 131.465C258.623 131.666 258.817 131.853 259.018 132.04C259.204 132.245 259.4 132.439 259.607 132.622C259.794 132.824 259.981 133.011 260.183 133.198C260.369 133.406 260.571 133.6 260.772 133.787C260.959 133.988 261.146 134.182 261.347 134.362C261.534 134.571 261.735 134.765 261.937 134.952C262.123 135.153 262.31 135.347 262.512 135.527C262.695 135.734 262.889 135.93 263.094 136.116C264.282 137.4 265.829 138.297 267.534 138.689C269.238 139.081 271.022 138.95 272.651 138.314C274.281 137.678 275.681 136.565 276.669 135.122C277.657 133.678 278.187 131.971 278.19 130.221V118.41H279.772C280.924 118.43 282.068 118.221 283.138 117.795C284.208 117.368 285.183 116.733 286.005 115.926C286.827 115.119 287.481 114.157 287.927 113.095C288.374 112.033 288.605 110.893 288.607 109.741C288.623 108.547 288.391 107.362 287.926 106.262C287.461 105.162 286.772 104.17 285.904 103.35ZM255.043 69.5634V95.04H234.512L255.043 69.5634Z" fill="#F4A047"/>
<path opacity="0.1" d="M285.904 103.35C285.717 103.142 285.515 102.94 285.314 102.753C285.12 102.545 284.919 102.351 284.717 102.164C284.523 101.956 284.329 101.754 284.128 101.567C283.934 101.359 283.733 101.158 283.531 100.978C283.337 100.769 283.143 100.568 282.942 100.381C282.748 100.173 282.547 99.9715 282.345 99.7917C282.151 99.5833 281.95 99.382 281.756 99.1951C281.57 98.988 281.373 98.7912 281.166 98.6056C280.972 98.3971 280.771 98.203 280.57 98.0161C279.961 97.3431 279.247 96.7727 278.456 96.3268V36.9196C278.456 36.6033 278.305 36.4451 278.305 36.1288C278.344 35.8062 278.289 35.4793 278.147 35.1871C278.147 35.029 277.996 34.7127 277.996 34.5545C277.91 34.2313 277.802 33.9143 277.673 33.6056C277.509 33.4299 277.402 33.2098 277.363 32.973C277.185 32.6873 276.972 32.4242 276.731 32.1894C276.566 32.0313 276.415 31.7222 276.256 31.5568L275.624 30.9242C275.624 30.8308 275.502 30.7301 275.365 30.6726L275.056 30.3563H275.02C275.02 30.2557 274.905 30.1622 274.768 30.0975L274.452 29.7884C274.452 29.695 274.33 29.5943 274.193 29.5296L273.884 29.2205C273.884 29.1199 273.762 29.0264 273.625 28.9617L273.316 28.6454C273.316 28.552 273.194 28.4513 273.057 28.3866L272.741 28.0775V28.0416C272.741 27.9481 272.619 27.8547 272.482 27.79L272.173 27.4737H272.137C272.137 27.3802 272.022 27.2796 271.886 27.2149L271.569 26.9058V26.8698C271.569 26.7764 271.447 26.6829 271.311 26.6182L271.002 26.3019H270.966C270.966 26.2013 270.851 26.1078 270.714 26.0431L270.398 25.734C270.398 25.6406 270.275 25.5399 270.139 25.4824L269.794 25.1373C269.794 24.9792 269.485 24.821 269.319 24.821C269.319 24.8003 269.315 24.7797 269.307 24.7605C269.299 24.7413 269.288 24.7239 269.273 24.7092C269.258 24.6945 269.241 24.6829 269.222 24.6749C269.203 24.667 269.182 24.6629 269.161 24.6629C268.852 24.5119 268.687 24.3466 268.378 24.1884C268.106 23.9912 267.844 23.7801 267.594 23.5558C267.436 23.5558 267.12 23.4049 266.961 23.4049C266.645 23.2467 266.178 23.2467 266.013 23.0814C265.74 23.1043 265.467 23.0521 265.222 22.9304H262.548C262.36 23.0509 262.137 23.1042 261.915 23.0814C261.441 23.2467 261.131 23.2467 260.966 23.4049C260.657 23.4049 260.499 23.5558 260.334 23.8793C259.996 23.888 259.669 23.9955 259.392 24.1884C259.241 24.3466 258.917 24.5119 258.766 24.6629C258.552 24.8913 258.278 25.0556 257.976 25.1373C257.855 25.3742 257.695 25.5882 257.501 25.77C257.343 25.9281 257.343 26.0791 257.192 26.0791L198.612 98.4043C197.227 100.067 196.535 102.2 196.681 104.359C196.827 106.518 197.799 108.538 199.395 110C199.58 110.217 199.782 110.419 199.999 110.604C200.179 110.82 200.379 111.02 200.596 111.2C200.78 111.417 200.982 111.619 201.199 111.804C201.802 112.402 202.401 113.003 202.997 113.608C203.402 114.004 203.802 114.404 204.197 114.809C204.382 115.024 204.584 115.223 204.801 115.406C205.173 115.828 205.587 116.211 206.037 116.549C207.518 117.836 209.433 118.512 211.393 118.439H255.043V124.413C255.03 125.629 255.274 126.834 255.76 127.949C256.245 129.064 256.961 130.064 257.861 130.883C258.048 131.091 258.249 131.285 258.443 131.465C258.623 131.666 258.817 131.853 259.018 132.04C259.204 132.245 259.4 132.439 259.607 132.622C259.794 132.824 259.981 133.011 260.183 133.198C260.369 133.406 260.571 133.6 260.772 133.787C260.959 133.988 261.146 134.182 261.347 134.362C261.534 134.571 261.735 134.765 261.937 134.952C262.123 135.153 262.31 135.347 262.512 135.527C262.695 135.734 262.889 135.93 263.094 136.116C264.282 137.4 265.829 138.297 267.534 138.689C269.238 139.081 271.022 138.95 272.651 138.314C274.281 137.678 275.681 136.565 276.669 135.122C277.657 133.678 278.187 131.971 278.19 130.221V118.41H279.772C280.924 118.43 282.068 118.221 283.138 117.795C284.208 117.368 285.183 116.733 286.005 115.926C286.827 115.119 287.481 114.157 287.927 113.095C288.374 112.033 288.605 110.893 288.607 109.741C288.623 108.547 288.391 107.362 287.926 106.262C287.461 105.162 286.772 104.17 285.904 103.35ZM255.043 69.5634V95.04H234.512L255.043 69.5634Z" fill="black"/>
<path d="M282.779 103.731C282.778 104.883 282.548 106.023 282.102 107.084C281.657 108.146 281.004 109.109 280.182 109.916C279.36 110.723 278.386 111.358 277.317 111.785C276.247 112.211 275.103 112.421 273.951 112.401H272.377V124.384C272.377 126.683 271.464 128.888 269.838 130.514C268.212 132.14 266.007 133.054 263.708 133.054C261.408 133.054 259.203 132.14 257.577 130.514C255.951 128.888 255.038 126.683 255.038 124.384V112.401H205.386C203.425 112.476 201.509 111.8 200.03 110.51C199.115 109.825 198.349 108.962 197.778 107.972C197.207 106.982 196.843 105.886 196.709 104.751C196.574 103.616 196.672 102.466 196.996 101.37C197.32 100.274 197.863 99.255 198.593 98.3754L256.929 25.8632C257.087 25.8632 257.087 25.7123 257.245 25.5541C257.441 25.3743 257.602 25.1598 257.719 24.9215C258.022 24.8398 258.296 24.6755 258.51 24.4471C258.668 24.2889 258.985 24.1308 259.143 23.9726C259.417 23.7731 259.746 23.6627 260.084 23.6563C260.243 23.3472 260.401 23.189 260.71 23.189C260.868 23.0309 261.184 23.0309 261.659 22.8728C261.882 22.8964 262.106 22.8404 262.291 22.7146H264.973C265.213 22.843 265.485 22.898 265.756 22.8728C265.914 23.0309 266.389 23.0309 266.705 23.189C266.863 23.189 267.18 23.3472 267.338 23.3472C267.654 23.6563 267.963 23.8145 268.121 23.9726C268.438 24.1308 268.596 24.2889 268.912 24.4471C268.954 24.4471 268.994 24.4637 269.024 24.4934C269.054 24.523 269.07 24.5633 269.07 24.6052C269.228 24.6052 269.538 24.7634 269.538 24.9215L270.17 25.5541C270.328 25.7123 270.486 26.0214 270.645 26.1795C270.886 26.4174 271.098 26.6828 271.277 26.9703C271.317 27.2081 271.427 27.4286 271.594 27.6029C271.723 27.9082 271.829 28.2231 271.91 28.5446C271.91 28.7028 272.061 29.0191 272.061 29.1772C272.203 29.4719 272.258 29.8012 272.219 30.1261C272.219 30.4352 272.377 30.5934 272.377 30.9097V95.0614H273.951C276.269 95.0499 278.497 95.9545 280.151 97.5784C281.804 99.2022 282.749 101.414 282.779 103.731ZM255.038 56.1276L223.674 95.0614H255.038V56.1276Z" fill="#F4A047"/>
<path d="M166.259 112.603C166.234 112.768 166.267 112.936 166.352 113.079C166.438 113.222 166.57 113.331 166.726 113.387C167.481 113.502 168.401 113.624 169.422 113.768C172.463 107.169 175.568 101.971 174.691 104.027C173.352 107.257 172.473 110.66 172.082 114.135C173.268 114.293 176.036 114.631 177.416 114.796C180.593 103.021 184.094 94.3658 183.684 97.0831C182.017 108.046 182.311 111.626 182.692 115.457C195.582 117.024 212.511 118.879 224.782 119.936C226.788 113.466 228.664 106.392 228.836 106.91C230.181 110.756 230.152 116.191 229.814 120.36C233.725 120.669 236.859 120.834 238.778 120.834C238.778 120.834 240.216 115.357 240.475 113.545C241.245 108.91 241.201 104.176 240.346 99.556C239.461 94.8402 237.578 90.5989 235.817 86.2641C235.811 86.2373 235.804 86.2109 235.795 86.1851C234.627 83.3451 233.788 80.3809 233.293 77.3502C233.289 77.3265 233.289 77.302 233.293 77.2783C232.965 75.0681 232.823 72.8341 232.869 70.6C233.027 62.4193 229.361 55.0653 222.395 52.4055C210.498 40.2494 194.158 45.8278 189.543 56.1076C187.739 60.7156 185.949 66.7325 184.389 71.3692C184.393 71.3768 184.396 71.3855 184.396 71.3944C184.396 71.4032 184.393 71.4119 184.389 71.4195C183.8 73.2382 183.102 75.0195 182.297 76.7535C178.02 85.0349 169.781 89.3049 166.259 112.603Z" fill="#263238"/>
<path d="M225.265 54.8213C229.729 57.7759 232.274 61.8087 232.454 67.8041C232.569 71.2978 232.454 74.698 233.439 78.0552C234.424 81.5201 236.206 84.4387 238.054 87.3501C240.98 91.9796 242.906 96.5229 242.899 102.389C242.892 108.255 242.008 115.328 239.642 120.713C239.642 120.749 239.585 120.713 239.599 120.713C241.612 115.213 242.345 107.464 241.936 101.526C241.483 94.9989 238.435 90.7 235.372 85.5458C232.905 81.4542 231.54 76.7929 231.411 72.0167C231.325 69.0549 231.641 65.9997 230.779 63.153C229.758 59.76 227.314 57.4668 224.87 55.418C224.546 55.1233 224.927 54.5985 225.265 54.8213Z" fill="#263238"/>
<path d="M173.513 85.329C177.236 80.9511 181.039 77.2633 183.498 71.6706C185.733 66.5738 187.236 61.132 189.5 56.0496C189.5 55.9633 189.651 56.0064 189.615 56.0999C186.021 65.1576 184.641 74.4598 178.358 81.8425C174.936 85.8538 171.55 89.556 169.091 94.4802C166.578 99.6734 165.005 105.272 164.448 111.014C164.448 111.215 164.182 111.187 164.182 111.014C164.178 101.622 167.482 92.5288 173.513 85.329Z" fill="#263238"/>
<path d="M137.31 196.89C137.31 196.89 172.009 206.236 177.746 205.229C183.482 204.223 202.849 178.157 207.148 168.704C211.446 159.25 218.585 112.222 217.212 107.046C215.839 101.87 208.657 101.799 202.597 115.141C196.537 128.483 182.21 157.813 179.658 160.228C177.106 162.644 134.513 194.389 137.31 196.89Z" fill="#C8918A"/>
<path d="M174.735 202.139C169.416 199.357 162.939 192.606 158.525 191.902C157.445 191.691 156.326 191.832 155.333 192.306C154.34 192.78 153.526 193.561 153.011 194.533C153.011 194.533 150.984 190.026 146.872 190.047C144.766 190.047 142.926 193.44 142.926 193.44C142.926 193.44 141.136 189.896 137.491 190.141C134.579 190.335 133.178 193.699 133.178 193.699C133.178 193.699 129.885 191.097 126.981 192.261C121.101 194.583 120.123 219.578 129.181 223.805C133.401 225.775 133.307 219.657 133.307 219.657C133.307 219.657 135.564 228.428 140.711 228.758C145.859 229.089 145.262 221.153 145.262 221.153C145.262 221.153 147.526 229.628 152.896 229.434C158.489 229.24 156.534 221.397 156.534 221.397C156.534 221.397 160.085 227.105 164.161 226.012C170.897 224.215 163.658 210.686 165.182 205.244H173.643L174.735 202.139Z" fill="#C8918A"/>
<path d="M167.06 196.818C172.329 199.018 178.339 190.701 183.759 192.634C190.79 195.143 184.291 203.82 173.638 205.229H165.177L167.06 196.818Z" fill="#C8918A"/>
<path d="M132.869 194.195C132.869 194.178 132.863 194.161 132.851 194.149C132.838 194.137 132.822 194.13 132.805 194.13C132.788 194.13 132.771 194.137 132.759 194.149C132.747 194.161 132.74 194.178 132.74 194.195C130.418 202.34 130.353 212.001 133.265 220.009C133.358 220.268 133.833 220.232 133.782 219.923C132.359 211.067 131.798 203.116 132.869 194.195Z" fill="#263238"/>
<path d="M142.878 193.296C142.878 193.196 142.727 193.174 142.698 193.296C140.348 201.707 140.542 212.583 145.02 221.425C145.171 221.727 145.617 221.842 145.466 221.483C142.957 215.387 141.872 201.34 142.878 193.296Z" fill="#263238"/>
<path d="M157.055 221.922C153.123 213.296 152.354 204.259 152.9 194.871C152.9 194.749 152.735 194.749 152.699 194.871C151.182 199.393 151.463 205.41 152.074 210.075C152.552 214.405 154.155 218.534 156.725 222.051C156.854 222.202 157.142 222.109 157.055 221.922Z" fill="#263238"/>
<path d="M184.175 191.974C180.724 190.824 177.18 193.584 174.276 195.13C173.346 195.683 172.367 196.148 171.35 196.517C169.05 197.236 167.346 196.776 166.318 196.136C164.708 195.108 159.683 190.091 156.053 191.759C154.8 192.345 153.728 193.256 152.947 194.397C151.84 192.384 150.424 190.191 147.973 189.789C147.433 189.697 146.879 189.721 146.349 189.858C145.819 189.996 145.323 190.244 144.896 190.587C144.439 190.939 144.033 191.353 143.688 191.816C143.347 192.232 143.066 192.694 142.854 193.189C142.853 193.172 142.853 193.155 142.854 193.139L142.775 192.988L142.624 192.679C142.419 192.265 142.127 191.899 141.769 191.608C141.701 191.538 141.619 191.483 141.529 191.446C141.438 191.409 141.342 191.39 141.244 191.392C141.229 191.392 141.214 191.398 141.203 191.409C141.193 191.42 141.187 191.434 141.187 191.449C141.187 191.465 141.193 191.479 141.203 191.49C141.214 191.501 141.229 191.507 141.244 191.507C141.412 191.587 141.549 191.721 141.632 191.888C141.747 192.06 141.855 192.24 141.977 192.406C142.099 192.571 142.215 192.743 142.337 192.909L142.516 193.175L142.596 193.311C142.63 193.355 142.669 193.396 142.711 193.433C142.721 193.447 142.734 193.458 142.749 193.465C142.764 193.473 142.78 193.477 142.797 193.477C142.814 193.477 142.83 193.473 142.845 193.465C142.86 193.458 142.873 193.447 142.883 193.433C143.253 193.105 143.588 192.738 143.882 192.341C144.244 191.92 144.647 191.534 145.083 191.191C145.497 190.87 145.974 190.64 146.483 190.517C146.993 190.393 147.522 190.377 148.037 190.472C150.237 190.903 151.632 192.858 152.803 194.605C152.803 194.605 152.803 194.605 152.839 194.605C152.803 194.663 152.882 194.713 152.926 194.67C154.133 193.613 155.284 192.427 156.951 192.183C158.748 191.917 160.452 192.779 161.94 193.685C162.686 194.123 163.406 194.603 164.097 195.123C164.708 195.597 165.29 196.129 165.944 196.561C168.741 198.322 171.803 196.956 172.565 196.632C174.068 195.955 175.525 195.182 176.929 194.318C178.339 193.372 179.93 192.728 181.601 192.427C182.369 192.314 183.152 192.397 183.879 192.669C184.605 192.94 185.251 193.391 185.756 193.98C186.281 194.656 186.95 195.921 185.577 198.803C185.577 198.803 185.577 198.861 185.62 198.839C186.339 198.092 188.625 193.462 184.175 191.974Z" fill="#263238"/>
<path d="M214.488 150.725L181.743 145.492C181.743 145.492 197.386 114.516 206.781 105.53C216.055 96.6588 220.569 105.745 219.203 119.447C217.694 134.637 214.488 150.725 214.488 150.725Z" fill="#37474F"/>
<path d="M213.427 144.628C212.507 144.412 211.565 144.276 210.645 144.067C209.725 143.859 208.841 143.73 207.935 143.593C206.087 143.305 204.233 143.047 202.385 142.795C198.733 142.292 195.082 141.738 191.415 141.357C189.331 141.127 187.26 140.811 185.168 140.638C185.104 140.638 185.097 140.739 185.168 140.753C188.799 141.602 192.494 142.191 196.174 142.831C199.855 143.471 203.478 143.988 207.144 144.384C208.172 144.499 209.207 144.628 210.235 144.678C211.263 144.729 212.356 144.829 213.413 144.844C213.441 144.846 213.47 144.836 213.491 144.817C213.513 144.798 213.526 144.772 213.528 144.743C213.53 144.715 213.52 144.686 213.501 144.665C213.482 144.643 213.456 144.63 213.427 144.628Z" fill="#263238"/>
<path d="M196.263 205.517H282.98C282.98 205.517 246.936 116.061 228.612 102.992C223.113 99.0668 214.35 98.6283 208.441 106.507C203.596 112.977 190.146 138.676 189.535 147.921C188.924 157.166 196.177 166.303 196.177 166.303L196.263 205.517Z" fill="#455A64"/>
<path d="M224.97 144.902C225.193 144.844 225.408 144.815 225.624 144.772C225.814 144.729 226.011 144.729 226.202 144.773C226.392 144.816 226.569 144.902 226.722 145.023C226.875 145.145 226.998 145.299 227.083 145.475C227.168 145.65 227.212 145.842 227.213 146.037C227.207 146.211 227.247 146.383 227.327 146.536C227.408 146.69 227.527 146.82 227.673 146.914C227.836 147.017 228.02 147.081 228.212 147.101C228.432 147.133 228.65 147.177 228.866 147.231C228.65 147.288 228.435 147.317 228.212 147.36C227.971 147.408 227.721 147.386 227.493 147.295C227.25 147.192 227.043 147.018 226.898 146.797C226.754 146.575 226.678 146.316 226.681 146.052C226.677 145.879 226.629 145.71 226.542 145.56C226.456 145.411 226.333 145.286 226.185 145.196C226.014 145.103 225.825 145.047 225.631 145.031C225.408 144.988 225.193 144.959 224.97 144.902Z" fill="white"/>
<path d="M191.802 144.902C192.017 144.844 192.233 144.815 192.449 144.772C192.639 144.729 192.836 144.729 193.026 144.773C193.216 144.816 193.394 144.902 193.547 145.023C193.699 145.145 193.823 145.299 193.908 145.475C193.993 145.65 194.037 145.842 194.037 146.037C194.033 146.211 194.074 146.383 194.156 146.537C194.238 146.691 194.358 146.821 194.505 146.914C194.667 147.019 194.852 147.083 195.044 147.101C195.26 147.144 195.475 147.166 195.691 147.231C195.475 147.288 195.26 147.317 195.044 147.36C194.803 147.407 194.554 147.384 194.325 147.295C194.083 147.189 193.878 147.015 193.734 146.794C193.59 146.574 193.513 146.316 193.513 146.052C193.509 145.879 193.461 145.71 193.374 145.56C193.288 145.411 193.165 145.286 193.017 145.196C192.846 145.102 192.657 145.046 192.463 145.031C192.233 144.988 192.017 144.959 191.802 144.902Z" fill="white"/>
<path d="M237.02 187.991C237.235 187.933 237.458 187.905 237.674 187.861C237.864 187.821 238.061 187.823 238.25 187.868C238.439 187.913 238.616 188 238.767 188.122C238.918 188.243 239.041 188.398 239.125 188.573C239.21 188.748 239.254 188.939 239.255 189.134C239.253 189.308 239.295 189.479 239.377 189.632C239.458 189.785 239.577 189.916 239.722 190.011C239.886 190.111 240.071 190.173 240.262 190.191C240.477 190.234 240.7 190.262 240.916 190.32C240.7 190.385 240.477 190.413 240.262 190.457C240.02 190.502 239.771 190.477 239.543 190.385C239.299 190.28 239.092 190.107 238.946 189.886C238.801 189.665 238.723 189.406 238.723 189.141C238.722 188.969 238.676 188.8 238.589 188.651C238.502 188.502 238.377 188.378 238.227 188.293C238.061 188.195 237.873 188.139 237.681 188.127C237.458 188.084 237.235 188.056 237.02 187.991Z" fill="white"/>
<path d="M252.014 147.231C252.229 147.166 252.452 147.144 252.668 147.101C252.858 147.058 253.055 147.058 253.244 147.102C253.434 147.145 253.612 147.231 253.764 147.353C253.916 147.474 254.038 147.628 254.122 147.804C254.207 147.98 254.25 148.172 254.249 148.367C254.247 148.54 254.288 148.712 254.37 148.865C254.452 149.019 254.571 149.149 254.717 149.244C254.878 149.348 255.064 149.41 255.256 149.423C255.471 149.474 255.694 149.495 255.91 149.56C255.694 149.617 255.471 149.646 255.256 149.689C255.015 149.738 254.765 149.715 254.537 149.625C254.293 149.52 254.086 149.347 253.94 149.126C253.795 148.905 253.717 148.646 253.717 148.381C253.716 148.208 253.67 148.038 253.583 147.888C253.496 147.738 253.371 147.613 253.221 147.525C253.053 147.431 252.867 147.375 252.675 147.36C252.452 147.288 252.229 147.288 252.014 147.231Z" fill="white"/>
<path d="M213.676 125.313C213.899 125.255 214.114 125.227 214.33 125.183C214.569 125.131 214.819 125.148 215.049 125.234C215.298 125.327 215.514 125.494 215.666 125.712C215.819 125.93 215.902 126.189 215.904 126.456C215.904 126.629 215.946 126.8 216.028 126.953C216.109 127.106 216.227 127.237 216.372 127.333C216.537 127.43 216.72 127.491 216.911 127.513C217.134 127.556 217.349 127.584 217.565 127.642C217.349 127.707 217.134 127.728 216.911 127.779C216.669 127.82 216.42 127.795 216.192 127.707C215.945 127.602 215.736 127.425 215.591 127.199C215.446 126.973 215.372 126.709 215.379 126.441C215.376 126.269 215.329 126.101 215.242 125.953C215.155 125.804 215.032 125.68 214.883 125.593C214.714 125.494 214.525 125.435 214.33 125.421C214.114 125.399 213.899 125.378 213.676 125.313Z" fill="white"/>
<path d="M237.276 124.817C237.492 124.759 237.708 124.731 237.931 124.687C238.17 124.637 238.419 124.654 238.649 124.738C238.899 124.832 239.114 124.999 239.268 125.217C239.421 125.435 239.506 125.693 239.512 125.96C239.509 126.134 239.55 126.306 239.632 126.459C239.714 126.613 239.833 126.743 239.979 126.837C240.143 126.938 240.327 127 240.518 127.017C240.734 127.06 240.95 127.088 241.173 127.146C240.95 127.211 240.734 127.239 240.518 127.283C240.277 127.328 240.027 127.303 239.8 127.211C239.556 127.106 239.349 126.933 239.203 126.712C239.057 126.491 238.98 126.232 238.98 125.967C238.977 125.795 238.93 125.626 238.844 125.478C238.757 125.329 238.633 125.205 238.484 125.119C238.318 125.021 238.13 124.965 237.938 124.953C237.715 124.919 237.494 124.874 237.276 124.817Z" fill="white"/>
<path d="M222.002 102.165C222.218 102.108 222.44 102.079 222.656 102.036C222.846 101.993 223.043 101.993 223.233 102.036C223.423 102.08 223.6 102.165 223.752 102.287C223.904 102.409 224.027 102.563 224.111 102.738C224.195 102.914 224.238 103.106 224.238 103.301C224.234 103.475 224.275 103.647 224.356 103.801C224.438 103.954 224.558 104.084 224.705 104.178C224.867 104.282 225.052 104.346 225.244 104.365C225.46 104.408 225.683 104.43 225.898 104.494C225.683 104.552 225.46 104.581 225.244 104.624C225.003 104.672 224.754 104.649 224.525 104.559C224.282 104.455 224.074 104.281 223.929 104.06C223.783 103.839 223.705 103.58 223.706 103.315C223.704 103.142 223.658 102.972 223.571 102.822C223.484 102.672 223.359 102.547 223.21 102.46C223.042 102.366 222.855 102.309 222.663 102.295C222.44 102.251 222.218 102.223 222.002 102.165Z" fill="white"/>
<path d="M207.889 162.932C208.104 162.874 208.32 162.845 208.536 162.802C208.775 162.749 209.025 162.767 209.255 162.852C209.504 162.944 209.72 163.109 209.874 163.326C210.028 163.543 210.113 163.801 210.117 164.067C210.113 164.241 210.154 164.413 210.236 164.567C210.318 164.721 210.438 164.851 210.584 164.944C210.747 165.049 210.931 165.113 211.124 165.131C211.339 165.174 211.555 165.203 211.771 165.261C211.555 165.325 211.339 165.347 211.124 165.39C210.883 165.437 210.633 165.414 210.405 165.325C210.163 165.219 209.958 165.045 209.814 164.824C209.669 164.604 209.592 164.345 209.592 164.082C209.588 163.909 209.541 163.74 209.454 163.59C209.367 163.441 209.244 163.316 209.096 163.226C208.925 163.133 208.737 163.077 208.543 163.061C208.32 163.018 208.104 162.996 207.889 162.932Z" fill="white"/>
<path d="M233.64 202.419C233.855 202.354 234.078 202.326 234.294 202.282C234.484 202.242 234.681 202.244 234.87 202.289C235.059 202.334 235.236 202.421 235.387 202.542C235.539 202.664 235.661 202.818 235.745 202.994C235.83 203.169 235.874 203.36 235.875 203.555C235.873 203.728 235.915 203.9 235.997 204.053C236.078 204.206 236.197 204.337 236.343 204.432C236.505 204.535 236.69 204.597 236.882 204.612C237.097 204.655 237.32 204.683 237.536 204.741C237.32 204.806 237.097 204.834 236.882 204.877C236.64 204.923 236.391 204.898 236.163 204.806C235.919 204.702 235.711 204.529 235.565 204.308C235.419 204.086 235.342 203.827 235.343 203.562C235.342 203.39 235.296 203.22 235.209 203.072C235.122 202.923 234.997 202.799 234.847 202.714C234.681 202.616 234.494 202.56 234.301 202.548C234.057 202.505 233.834 202.476 233.64 202.419Z" fill="white"/>
<path d="M220.95 181.197C221.166 181.14 221.382 181.111 221.597 181.068C221.837 181.019 222.086 181.036 222.316 181.118C222.566 181.211 222.783 181.377 222.937 181.596C223.091 181.814 223.175 182.073 223.179 182.34C223.175 182.514 223.217 182.686 223.298 182.839C223.38 182.993 223.5 183.123 223.646 183.217C223.809 183.32 223.994 183.381 224.185 183.397C224.401 183.44 224.616 183.469 224.839 183.526C224.616 183.591 224.401 183.613 224.185 183.663C223.943 183.704 223.695 183.679 223.466 183.591C223.225 183.485 223.019 183.311 222.875 183.09C222.731 182.869 222.654 182.611 222.654 182.347C222.649 182.176 222.601 182.008 222.515 181.86C222.428 181.711 222.305 181.587 222.158 181.499C221.991 181.398 221.8 181.341 221.604 181.334C221.417 181.284 221.166 181.262 220.95 181.197Z" fill="white"/>
<path d="M197.51 185.057C197.733 184.993 197.948 184.964 198.164 184.921C198.354 184.88 198.551 184.882 198.74 184.927C198.929 184.972 199.106 185.059 199.257 185.181C199.409 185.303 199.531 185.457 199.616 185.632C199.7 185.807 199.744 185.999 199.745 186.193C199.744 186.367 199.785 186.538 199.867 186.691C199.949 186.845 200.068 186.975 200.213 187.07C200.375 187.173 200.56 187.235 200.752 187.25C200.975 187.293 201.19 187.322 201.406 187.379C201.19 187.436 200.972 187.481 200.752 187.516C200.51 187.561 200.261 187.536 200.033 187.444C199.789 187.34 199.581 187.167 199.435 186.946C199.289 186.725 199.212 186.465 199.213 186.2C199.212 186.029 199.167 185.86 199.081 185.712C198.995 185.563 198.873 185.439 198.725 185.352C198.555 185.256 198.366 185.199 198.171 185.187C197.948 185.144 197.733 185.115 197.51 185.057Z" fill="white"/>
<path d="M231.741 163.449C231.957 163.392 232.173 163.363 232.388 163.32C232.579 163.28 232.776 163.282 232.965 163.327C233.155 163.372 233.332 163.458 233.484 163.58C233.636 163.702 233.759 163.856 233.844 164.031C233.929 164.206 233.975 164.398 233.977 164.592C233.974 164.766 234.015 164.938 234.097 165.092C234.178 165.245 234.298 165.375 234.444 165.469C234.607 165.572 234.792 165.633 234.983 165.649C235.199 165.692 235.415 165.721 235.63 165.778C235.415 165.843 235.199 165.865 234.983 165.915C234.742 165.959 234.493 165.934 234.264 165.843C234.023 165.737 233.818 165.563 233.673 165.342C233.529 165.121 233.452 164.863 233.452 164.6C233.447 164.428 233.4 164.26 233.313 164.112C233.226 163.964 233.103 163.84 232.956 163.751C232.788 163.652 232.598 163.595 232.403 163.586C232.201 163.536 231.957 163.514 231.741 163.449Z" fill="white"/>
<path d="M261.712 192.498C261.928 192.44 262.15 192.412 262.366 192.368C262.606 192.316 262.855 192.334 263.085 192.419C263.334 192.512 263.55 192.679 263.703 192.897C263.855 193.115 263.938 193.375 263.94 193.641C263.94 193.814 263.982 193.985 264.064 194.138C264.145 194.291 264.263 194.422 264.408 194.518C264.573 194.615 264.756 194.676 264.947 194.698C265.17 194.741 265.385 194.77 265.601 194.827C265.385 194.892 265.17 194.913 264.947 194.964C264.756 194.999 264.559 194.991 264.371 194.941C264.184 194.891 264.009 194.799 263.861 194.673C263.713 194.547 263.595 194.39 263.516 194.213C263.436 194.035 263.397 193.842 263.401 193.648C263.4 193.476 263.354 193.307 263.267 193.158C263.18 193.009 263.055 192.885 262.905 192.8C262.739 192.7 262.552 192.641 262.359 192.627C262.15 192.577 261.928 192.577 261.712 192.498Z" fill="white"/>
<path d="M249.812 174.764C250.027 174.706 250.25 174.677 250.466 174.634C250.656 174.594 250.853 174.596 251.042 174.641C251.231 174.686 251.408 174.773 251.559 174.894C251.71 175.016 251.833 175.17 251.917 175.345C252.002 175.521 252.046 175.712 252.047 175.907C252.044 176.081 252.085 176.252 252.167 176.406C252.249 176.559 252.368 176.689 252.514 176.784C252.676 176.888 252.862 176.95 253.054 176.963C253.269 177.007 253.492 177.035 253.708 177.093C253.492 177.158 253.269 177.186 253.054 177.229C252.812 177.275 252.562 177.25 252.335 177.158C252.091 177.054 251.883 176.881 251.737 176.66C251.591 176.438 251.514 176.179 251.515 175.914C251.514 175.741 251.468 175.572 251.381 175.423C251.294 175.275 251.169 175.151 251.019 175.066C250.853 174.968 250.666 174.911 250.473 174.9C250.25 174.857 250.027 174.828 249.812 174.764Z" fill="white"/>
<path d="M275.105 200.608C275.328 200.55 275.544 200.521 275.76 200.478C275.95 200.438 276.147 200.44 276.336 200.485C276.525 200.53 276.702 200.616 276.853 200.738C277.004 200.86 277.127 201.014 277.211 201.189C277.296 201.364 277.34 201.556 277.341 201.751C277.339 201.924 277.381 202.096 277.463 202.249C277.544 202.402 277.663 202.532 277.808 202.628C277.971 202.731 278.156 202.793 278.348 202.807C278.57 202.85 278.786 202.879 279.002 202.937C278.786 202.993 278.568 203.039 278.348 203.073C278.106 203.118 277.857 203.094 277.629 203.001C277.385 202.898 277.177 202.725 277.033 202.504C276.888 202.282 276.813 202.022 276.816 201.758C276.812 201.586 276.764 201.418 276.677 201.27C276.59 201.122 276.468 200.998 276.32 200.91C276.151 200.813 275.961 200.757 275.767 200.744C275.544 200.701 275.336 200.672 275.105 200.608Z" fill="white"/>
<path d="M215.668 137.555C215.56 137.749 215.424 137.922 215.301 138.109C215.197 138.274 215.057 138.413 214.891 138.516C214.726 138.62 214.539 138.684 214.345 138.706C214.151 138.727 213.955 138.705 213.771 138.64C213.586 138.575 213.419 138.47 213.281 138.332C213.161 138.206 213.011 138.113 212.845 138.063C212.678 138.013 212.502 138.006 212.332 138.044C212.145 138.086 211.97 138.173 211.822 138.296C211.644 138.428 211.46 138.55 211.269 138.662C211.384 138.468 211.513 138.296 211.635 138.109C211.776 137.902 211.973 137.74 212.203 137.642C212.446 137.546 212.712 137.524 212.967 137.577C213.223 137.631 213.457 137.758 213.641 137.944C213.765 138.064 213.919 138.15 214.086 138.194C214.253 138.238 214.429 138.238 214.597 138.195C214.784 138.144 214.956 138.051 215.1 137.922C215.33 137.8 215.503 137.663 215.668 137.555Z" fill="white"/>
<path d="M206.992 122.999C206.884 123.193 206.748 123.365 206.626 123.552C206.521 123.717 206.381 123.856 206.215 123.96C206.05 124.063 205.863 124.128 205.669 124.149C205.475 124.171 205.279 124.148 205.095 124.083C204.911 124.019 204.743 123.913 204.606 123.775C204.486 123.649 204.336 123.556 204.169 123.505C204.003 123.455 203.826 123.449 203.657 123.487C203.469 123.53 203.294 123.616 203.146 123.739C202.969 123.871 202.784 123.994 202.593 124.106C202.708 123.912 202.837 123.739 202.959 123.552C203.1 123.346 203.297 123.184 203.527 123.085C203.77 122.989 204.036 122.967 204.291 123.021C204.547 123.074 204.781 123.202 204.965 123.387C205.089 123.507 205.243 123.594 205.41 123.638C205.578 123.682 205.754 123.682 205.921 123.638C206.108 123.588 206.28 123.494 206.424 123.365C206.626 123.243 206.798 123.106 206.992 122.999Z" fill="white"/>
<path d="M250.894 162.895C250.779 163.096 250.65 163.269 250.528 163.449C250.391 163.657 250.199 163.824 249.974 163.93C249.736 164.034 249.472 164.065 249.216 164.019C248.96 163.973 248.724 163.852 248.536 163.672C248.415 163.548 248.265 163.456 248.099 163.406C247.933 163.356 247.757 163.348 247.587 163.384C247.4 163.426 247.225 163.513 247.077 163.636C246.89 163.758 246.718 163.894 246.523 164.002C246.631 163.808 246.768 163.636 246.89 163.449C247.028 163.242 247.223 163.08 247.451 162.981C247.694 162.889 247.959 162.868 248.214 162.921C248.469 162.975 248.703 163.101 248.888 163.283C249.011 163.404 249.163 163.491 249.33 163.535C249.496 163.579 249.671 163.579 249.837 163.535C250.025 163.486 250.2 163.395 250.348 163.269C250.549 163.147 250.722 163.01 250.894 162.895Z" fill="white"/>
<path d="M228.94 115.716C228.833 115.91 228.696 116.083 228.574 116.269C228.439 116.475 228.25 116.64 228.028 116.744C227.785 116.854 227.515 116.888 227.252 116.843C226.99 116.798 226.746 116.676 226.554 116.492C226.433 116.367 226.283 116.274 226.117 116.223C225.951 116.171 225.775 116.162 225.605 116.198C225.418 116.241 225.243 116.327 225.095 116.449C224.908 116.571 224.735 116.708 224.541 116.823C224.649 116.622 224.785 116.449 224.908 116.262C225.047 116.056 225.245 115.896 225.476 115.802C225.719 115.707 225.984 115.684 226.24 115.738C226.495 115.792 226.729 115.919 226.913 116.104C227.039 116.23 227.195 116.321 227.366 116.369C227.538 116.417 227.718 116.42 227.891 116.377C228.076 116.323 228.248 116.23 228.394 116.104C228.61 115.96 228.746 115.824 228.94 115.716Z" fill="white"/>
<path d="M213.712 104.962C213.604 105.156 213.468 105.329 213.345 105.516C213.21 105.722 213.021 105.889 212.799 105.997C212.556 106.106 212.285 106.139 212.023 106.093C211.76 106.047 211.517 105.924 211.325 105.739C211.205 105.613 211.055 105.52 210.889 105.47C210.722 105.419 210.546 105.413 210.376 105.451C210.188 105.492 210.013 105.578 209.866 105.703C209.679 105.825 209.507 105.961 209.312 106.069C209.42 105.875 209.557 105.703 209.679 105.516C209.818 105.307 210.016 105.145 210.247 105.048C210.49 104.953 210.756 104.931 211.011 104.984C211.267 105.038 211.501 105.165 211.685 105.35C211.809 105.472 211.962 105.559 212.13 105.603C212.297 105.647 212.473 105.647 212.641 105.602C212.827 105.551 213 105.458 213.144 105.329C213.345 105.207 213.511 105.07 213.712 104.962Z" fill="white"/>
<path d="M228.083 129.403C228.147 129.618 228.169 129.841 228.219 130.057C228.264 130.297 228.246 130.544 228.169 130.776C228.074 131.024 227.907 131.238 227.689 131.391C227.471 131.543 227.213 131.627 226.947 131.631C226.773 131.629 226.601 131.67 226.448 131.752C226.295 131.834 226.165 131.953 226.07 132.098C225.965 132.26 225.904 132.446 225.89 132.638C225.84 132.853 225.818 133.076 225.753 133.292C225.696 133.076 225.667 132.853 225.624 132.638C225.575 132.396 225.6 132.146 225.696 131.919C225.799 131.674 225.972 131.466 226.193 131.32C226.415 131.174 226.674 131.097 226.94 131.099C227.112 131.097 227.281 131.051 227.429 130.964C227.578 130.877 227.702 130.752 227.788 130.603C227.882 130.435 227.938 130.249 227.953 130.057C227.996 129.841 228.025 129.618 228.083 129.403Z" fill="white"/>
<path d="M222.9 167.697C222.958 167.913 222.986 168.136 223.029 168.352C223.07 168.542 223.068 168.738 223.023 168.928C222.978 169.117 222.891 169.293 222.769 169.445C222.647 169.596 222.493 169.719 222.318 169.803C222.143 169.888 221.951 169.932 221.757 169.933C221.583 169.93 221.411 169.971 221.258 170.053C221.104 170.135 220.974 170.254 220.88 170.4C220.779 170.564 220.717 170.748 220.7 170.939C220.657 171.155 220.628 171.378 220.571 171.594C220.506 171.378 220.477 171.155 220.434 170.939C220.389 170.698 220.414 170.448 220.506 170.221C220.61 169.977 220.784 169.77 221.005 169.624C221.226 169.478 221.485 169.401 221.75 169.401C221.922 169.4 222.091 169.353 222.24 169.266C222.389 169.179 222.513 169.055 222.598 168.905C222.696 168.739 222.752 168.551 222.763 168.359C222.807 168.136 222.857 167.913 222.9 167.697Z" fill="white"/>
<path d="M273.176 185.439C273.241 185.655 273.269 185.871 273.313 186.086C273.353 186.277 273.351 186.474 273.306 186.663C273.261 186.853 273.174 187.03 273.053 187.182C272.931 187.334 272.777 187.457 272.602 187.542C272.427 187.628 272.235 187.673 272.04 187.675C271.866 187.672 271.694 187.713 271.541 187.795C271.387 187.877 271.257 187.996 271.163 188.142C271.058 188.304 270.996 188.489 270.983 188.682C270.94 188.897 270.912 189.113 270.854 189.329C270.789 189.113 270.761 188.897 270.717 188.682C270.673 188.44 270.698 188.191 270.789 187.963C270.895 187.721 271.069 187.515 271.29 187.37C271.511 187.226 271.769 187.15 272.033 187.15C272.205 187.146 272.372 187.098 272.521 187.011C272.669 186.924 272.793 186.802 272.881 186.654C272.978 186.485 273.034 186.295 273.047 186.101C273.097 185.871 273.126 185.655 273.176 185.439Z" fill="white"/>
<path d="M249.886 134.708C249.943 134.924 249.972 135.139 250.015 135.362C250.066 135.602 250.048 135.851 249.965 136.081C249.87 136.33 249.704 136.546 249.486 136.699C249.268 136.853 249.009 136.938 248.743 136.944C248.569 136.941 248.397 136.982 248.244 137.064C248.09 137.145 247.96 137.265 247.866 137.411C247.765 137.574 247.703 137.759 247.686 137.95C247.643 138.166 247.614 138.382 247.557 138.604C247.492 138.382 247.471 138.166 247.42 137.95C247.385 137.759 247.393 137.562 247.443 137.375C247.493 137.187 247.584 137.013 247.71 136.865C247.836 136.717 247.994 136.599 248.171 136.519C248.349 136.439 248.541 136.4 248.736 136.405C248.908 136.402 249.076 136.355 249.225 136.268C249.374 136.181 249.497 136.057 249.584 135.909C249.684 135.743 249.741 135.555 249.749 135.362C249.8 135.139 249.821 134.924 249.886 134.708Z" fill="white"/>
<path d="M249.889 196.172C249.947 196.387 249.975 196.603 250.018 196.819C250.059 197.009 250.057 197.206 250.012 197.396C249.967 197.585 249.88 197.762 249.758 197.914C249.637 198.066 249.483 198.189 249.308 198.275C249.133 198.36 248.941 198.405 248.746 198.407C248.572 198.404 248.4 198.445 248.247 198.527C248.093 198.609 247.963 198.729 247.869 198.875C247.767 199.037 247.705 199.222 247.689 199.414C247.646 199.63 247.617 199.845 247.56 200.061C247.495 199.845 247.474 199.63 247.423 199.414C247.383 199.172 247.407 198.924 247.495 198.695C247.601 198.453 247.775 198.248 247.996 198.104C248.217 197.96 248.475 197.883 248.739 197.883C248.911 197.878 249.078 197.83 249.227 197.743C249.375 197.657 249.499 197.534 249.587 197.387C249.689 197.219 249.746 197.029 249.752 196.833C249.803 196.625 249.824 196.409 249.889 196.172Z" fill="white"/>
<path d="M261.713 160.984C261.778 161.199 261.8 161.422 261.843 161.638C261.886 161.828 261.886 162.025 261.843 162.215C261.799 162.404 261.713 162.582 261.592 162.734C261.47 162.886 261.316 163.008 261.14 163.093C260.965 163.177 260.772 163.22 260.578 163.219C260.404 163.217 260.232 163.258 260.079 163.34C259.926 163.422 259.795 163.541 259.701 163.687C259.596 163.848 259.534 164.034 259.521 164.226C259.471 164.442 259.449 164.664 259.384 164.88C259.327 164.664 259.298 164.442 259.255 164.226C259.206 163.984 259.231 163.734 259.327 163.507C259.429 163.264 259.601 163.056 259.821 162.91C260.041 162.764 260.299 162.687 260.563 162.687C260.737 162.686 260.907 162.64 261.057 162.553C261.207 162.466 261.331 162.341 261.419 162.191C261.513 162.024 261.569 161.837 261.584 161.645C261.627 161.422 261.677 161.199 261.713 160.984Z" fill="white"/>
<path d="M201.787 169.07C201.851 169.285 201.873 169.501 201.916 169.717C201.959 169.907 201.959 170.104 201.915 170.294C201.872 170.485 201.786 170.662 201.665 170.815C201.543 170.967 201.389 171.091 201.214 171.176C201.038 171.261 200.846 171.305 200.651 171.306C200.477 171.302 200.305 171.342 200.151 171.424C199.997 171.506 199.867 171.626 199.774 171.773C199.668 171.934 199.606 172.12 199.594 172.312C199.544 172.528 199.522 172.743 199.457 172.959C199.4 172.743 199.371 172.528 199.328 172.312C199.281 172.07 199.306 171.82 199.4 171.593C199.503 171.351 199.676 171.145 199.896 171C200.115 170.856 200.373 170.779 200.636 170.781C200.809 170.777 200.978 170.729 201.128 170.642C201.277 170.556 201.402 170.433 201.492 170.285C201.587 170.115 201.643 169.926 201.657 169.731C201.7 169.501 201.729 169.285 201.787 169.07Z" fill="white"/>
<path d="M202.949 134.708C203.003 134.924 203.046 135.142 203.079 135.362C203.132 135.601 203.117 135.85 203.035 136.081C202.941 136.33 202.774 136.546 202.556 136.699C202.339 136.853 202.08 136.938 201.813 136.944C201.639 136.94 201.467 136.981 201.314 137.063C201.16 137.144 201.03 137.264 200.936 137.411C200.832 137.573 200.77 137.758 200.757 137.95C200.706 138.166 200.685 138.382 200.62 138.604C200.563 138.382 200.534 138.166 200.491 137.95C200.442 137.709 200.465 137.46 200.555 137.231C200.66 136.988 200.833 136.781 201.054 136.635C201.275 136.489 201.534 136.412 201.799 136.412C201.972 136.409 202.142 136.362 202.291 136.275C202.441 136.188 202.566 136.065 202.654 135.916C202.749 135.748 202.805 135.561 202.82 135.369C202.863 135.139 202.892 134.924 202.949 134.708Z" fill="white"/>
<path d="M215.488 112.374C215.545 112.59 215.574 112.805 215.617 113.028C215.668 113.268 215.65 113.517 215.567 113.747C215.472 113.996 215.306 114.212 215.088 114.365C214.87 114.519 214.611 114.604 214.345 114.61C214.171 114.607 213.999 114.648 213.846 114.73C213.692 114.811 213.562 114.931 213.468 115.077C213.367 115.24 213.305 115.425 213.288 115.616C213.245 115.832 213.216 116.048 213.159 116.27C213.094 116.048 213.072 115.832 213.022 115.616C212.978 115.375 213.003 115.126 213.094 114.897C213.2 114.656 213.374 114.45 213.595 114.306C213.816 114.162 214.074 114.085 214.338 114.085C214.51 114.082 214.678 114.035 214.827 113.949C214.976 113.862 215.099 113.738 215.186 113.589C215.286 113.424 215.343 113.236 215.351 113.043C215.402 112.784 215.423 112.59 215.488 112.374Z" fill="white"/>
<path d="M212.126 146.9C212.183 147.123 212.212 147.339 212.255 147.554C212.295 147.745 212.293 147.942 212.248 148.131C212.203 148.321 212.117 148.498 211.995 148.65C211.873 148.802 211.719 148.925 211.544 149.01C211.369 149.096 211.177 149.141 210.983 149.143C210.809 149.14 210.637 149.181 210.483 149.263C210.33 149.345 210.2 149.464 210.106 149.61C210.003 149.773 209.941 149.958 209.926 150.15C209.883 150.365 209.854 150.581 209.796 150.797C209.732 150.581 209.703 150.365 209.66 150.15C209.616 149.908 209.641 149.659 209.732 149.431C209.838 149.189 210.012 148.984 210.233 148.84C210.454 148.695 210.712 148.618 210.975 148.618C211.147 148.614 211.315 148.566 211.463 148.479C211.611 148.392 211.735 148.27 211.824 148.122C211.92 147.953 211.977 147.763 211.989 147.569C212.032 147.339 212.075 147.123 212.126 146.9Z" fill="white"/>
<path d="M242.337 151.544C242.395 151.759 242.424 151.982 242.467 152.198C242.507 152.388 242.505 152.585 242.46 152.774C242.415 152.963 242.328 153.14 242.207 153.291C242.085 153.443 241.931 153.565 241.755 153.65C241.58 153.734 241.389 153.778 241.194 153.779C241.021 153.778 240.849 153.819 240.696 153.901C240.543 153.983 240.412 154.102 240.317 154.247C240.217 154.41 240.156 154.595 240.138 154.786C240.094 155.002 240.066 155.224 240.008 155.44C239.943 155.224 239.922 155.002 239.872 154.786C239.826 154.544 239.851 154.295 239.943 154.067C240.048 153.824 240.221 153.616 240.442 153.471C240.663 153.325 240.922 153.247 241.187 153.248C241.36 153.246 241.529 153.2 241.677 153.113C241.826 153.026 241.95 152.901 242.035 152.752C242.136 152.586 242.193 152.398 242.201 152.205C242.265 151.982 242.265 151.759 242.337 151.544Z" fill="white"/>
<path d="M214.409 190.32C214.466 190.543 214.495 190.759 214.538 190.974C214.581 191.165 214.581 191.362 214.538 191.552C214.494 191.742 214.409 191.92 214.287 192.072C214.166 192.225 214.011 192.348 213.836 192.433C213.66 192.518 213.468 192.563 213.273 192.563C213.099 192.558 212.926 192.598 212.772 192.68C212.618 192.762 212.489 192.883 212.396 193.03C212.292 193.19 212.228 193.373 212.209 193.562C212.177 193.782 212.134 194.001 212.08 194.216C212.022 194.001 211.993 193.785 211.95 193.562C211.902 193.321 211.925 193.072 212.015 192.843C212.119 192.6 212.292 192.393 212.514 192.249C212.735 192.104 212.994 192.028 213.259 192.031C213.431 192.027 213.6 191.979 213.75 191.893C213.899 191.806 214.025 191.683 214.114 191.535C214.207 191.364 214.264 191.176 214.279 190.982C214.323 190.759 214.351 190.543 214.409 190.32Z" fill="white"/>
<path d="M237.156 140.581C237.271 140.387 237.408 140.215 237.53 140.028C237.662 139.82 237.852 139.655 238.076 139.553C238.314 139.45 238.577 139.418 238.833 139.463C239.089 139.508 239.326 139.627 239.514 139.805C239.636 139.93 239.787 140.023 239.954 140.075C240.122 140.126 240.299 140.135 240.47 140.1C240.655 140.056 240.827 139.97 240.973 139.848C241.16 139.719 241.333 139.589 241.534 139.474C241.419 139.676 241.283 139.848 241.16 140.035C241.022 140.239 240.827 140.399 240.6 140.495C240.356 140.589 240.091 140.61 239.836 140.557C239.581 140.503 239.347 140.377 239.162 140.193C239.038 140.075 238.886 139.99 238.72 139.946C238.554 139.902 238.38 139.9 238.213 139.942C238.028 139.996 237.856 140.089 237.71 140.215C237.53 140.337 237.358 140.474 237.156 140.581Z" fill="white"/>
<path d="M219.537 156.548C219.645 156.354 219.782 156.181 219.904 155.994C220.008 155.829 220.148 155.69 220.314 155.587C220.48 155.484 220.666 155.419 220.86 155.397C221.054 155.376 221.25 155.398 221.435 155.463C221.619 155.528 221.786 155.633 221.924 155.771C222.043 155.898 222.194 155.991 222.36 156.041C222.526 156.092 222.703 156.098 222.873 156.059C223.06 156.017 223.235 155.931 223.383 155.807C223.561 155.675 223.746 155.553 223.937 155.441C223.822 155.635 223.692 155.807 223.57 155.994C223.46 156.155 223.316 156.29 223.147 156.388C222.978 156.486 222.79 156.545 222.596 156.561C222.401 156.576 222.206 156.549 222.024 156.479C221.842 156.41 221.677 156.301 221.543 156.16C221.42 156.04 221.268 155.953 221.101 155.909C220.935 155.865 220.76 155.865 220.594 155.908C220.408 155.962 220.237 156.055 220.091 156.181C219.904 156.303 219.731 156.44 219.537 156.548Z" fill="white"/>
<path d="M207.591 180.07C207.706 179.869 207.842 179.696 207.965 179.516C208.069 179.352 208.209 179.212 208.375 179.109C208.54 179.006 208.727 178.941 208.921 178.919C209.115 178.898 209.311 178.921 209.495 178.985C209.68 179.05 209.847 179.155 209.985 179.294C210.105 179.418 210.256 179.51 210.422 179.56C210.588 179.611 210.764 179.618 210.934 179.581C211.121 179.539 211.296 179.453 211.444 179.33C211.622 179.197 211.807 179.075 211.997 178.963C211.882 179.157 211.753 179.329 211.631 179.516C211.522 179.677 211.378 179.812 211.21 179.91C211.042 180.008 210.854 180.067 210.66 180.082C210.467 180.098 210.272 180.071 210.09 180.001C209.909 179.932 209.745 179.823 209.611 179.682C209.487 179.561 209.333 179.475 209.166 179.43C208.998 179.386 208.822 179.386 208.655 179.43C208.468 179.478 208.296 179.569 208.152 179.696C207.965 179.826 207.763 179.955 207.591 180.07Z" fill="white"/>
<path d="M212.749 204.503C212.864 204.309 213.001 204.136 213.123 203.949C213.255 203.742 213.445 203.577 213.669 203.475C213.907 203.373 214.17 203.343 214.425 203.387C214.681 203.432 214.917 203.55 215.107 203.726C215.227 203.852 215.377 203.946 215.543 203.997C215.709 204.049 215.886 204.057 216.056 204.021C216.244 203.976 216.419 203.888 216.566 203.762C216.746 203.64 216.918 203.511 217.12 203.396C217.005 203.597 216.875 203.77 216.753 203.949C216.612 204.156 216.415 204.318 216.185 204.417C215.942 204.51 215.677 204.532 215.422 204.478C215.167 204.424 214.932 204.298 214.747 204.115C214.623 203.996 214.471 203.911 214.305 203.867C214.139 203.823 213.965 203.822 213.799 203.863C213.613 203.917 213.442 204.01 213.295 204.136C213.123 204.258 212.95 204.395 212.749 204.503Z" fill="white"/>
<path d="M235.858 177.646C235.966 177.452 236.103 177.28 236.225 177.093C236.36 176.887 236.549 176.723 236.771 176.618C237.014 176.509 237.284 176.474 237.547 176.519C237.809 176.564 238.052 176.686 238.245 176.87C238.365 176.996 238.515 177.089 238.681 177.14C238.847 177.192 239.024 177.2 239.194 177.165C239.381 177.119 239.555 177.033 239.704 176.913C239.884 176.791 240.057 176.654 240.258 176.539C240.143 176.74 240.013 176.913 239.891 177.1C239.752 177.306 239.554 177.467 239.323 177.56C239.08 177.655 238.815 177.678 238.559 177.624C238.304 177.57 238.07 177.443 237.886 177.258C237.76 177.14 237.607 177.055 237.44 177.011C237.273 176.967 237.097 176.965 236.93 177.006C236.744 177.06 236.572 177.153 236.426 177.28C236.225 177.402 236.052 177.538 235.858 177.646Z" fill="white"/>
<path d="M251.762 187.38C251.87 187.186 252.006 187.013 252.128 186.826C252.264 186.622 252.453 186.458 252.675 186.352C252.913 186.25 253.176 186.22 253.431 186.264C253.686 186.309 253.923 186.427 254.112 186.604C254.233 186.729 254.383 186.822 254.549 186.873C254.715 186.925 254.891 186.933 255.061 186.898C255.249 186.855 255.423 186.769 255.572 186.647C255.759 186.524 255.931 186.388 256.125 186.273C256.017 186.474 255.881 186.647 255.759 186.834C255.621 187.042 255.423 187.202 255.191 187.294C254.948 187.389 254.682 187.412 254.427 187.358C254.171 187.304 253.937 187.177 253.753 186.992C253.627 186.873 253.474 186.788 253.307 186.744C253.14 186.7 252.965 186.699 252.797 186.74C252.611 186.794 252.44 186.887 252.294 187.013C252.128 187.136 251.956 187.272 251.762 187.38Z" fill="white"/>
<path d="M225.01 194.769C225.118 194.575 225.254 194.403 225.376 194.216C225.509 194.008 225.699 193.843 225.923 193.741C226.165 193.632 226.435 193.597 226.698 193.642C226.961 193.687 227.204 193.809 227.396 193.993C227.516 194.119 227.667 194.212 227.833 194.263C227.999 194.315 228.175 194.323 228.345 194.288C228.533 194.243 228.708 194.154 228.856 194.029C229.035 193.906 229.208 193.777 229.409 193.662C229.294 193.863 229.165 194.036 229.043 194.216C228.904 194.424 228.706 194.587 228.475 194.683C228.232 194.778 227.966 194.801 227.711 194.747C227.455 194.693 227.221 194.566 227.037 194.381C226.911 194.263 226.758 194.178 226.591 194.134C226.424 194.09 226.249 194.088 226.081 194.129C225.895 194.183 225.724 194.276 225.578 194.403C225.376 194.525 225.204 194.661 225.01 194.769Z" fill="white"/>
<path d="M259.521 204.504C259.637 204.31 259.766 204.137 259.888 203.95C260.022 203.744 260.212 203.58 260.434 203.476C260.677 203.366 260.947 203.331 261.21 203.376C261.472 203.421 261.715 203.543 261.908 203.727C262.028 203.853 262.179 203.945 262.345 203.997C262.511 204.048 262.687 204.057 262.857 204.022C263.044 203.978 263.219 203.892 263.367 203.77C263.554 203.641 263.727 203.512 263.921 203.397C263.813 203.598 263.677 203.77 263.554 203.957C263.416 204.162 263.221 204.321 262.994 204.417C262.751 204.512 262.485 204.534 262.23 204.48C261.975 204.427 261.74 204.3 261.556 204.115C261.431 203.998 261.279 203.913 261.113 203.869C260.948 203.825 260.774 203.823 260.607 203.864C260.419 203.916 260.244 204.009 260.097 204.137C259.881 204.259 259.708 204.396 259.521 204.504Z" fill="white"/>
<path d="M263.41 178.2C263.518 177.998 263.655 177.826 263.777 177.639C263.913 177.434 264.102 177.271 264.323 177.164C264.566 177.055 264.836 177.02 265.098 177.065C265.361 177.11 265.604 177.232 265.797 177.416C265.917 177.541 266.067 177.634 266.233 177.686C266.399 177.737 266.576 177.746 266.746 177.711C266.933 177.667 267.108 177.581 267.256 177.459C267.443 177.337 267.616 177.2 267.81 177.085C267.702 177.287 267.565 177.459 267.443 177.646C267.305 177.854 267.107 178.015 266.875 178.106C266.632 178.202 266.367 178.224 266.111 178.17C265.856 178.117 265.621 177.989 265.437 177.804C265.313 177.686 265.161 177.602 264.995 177.558C264.829 177.514 264.655 177.512 264.488 177.553C264.3 177.605 264.126 177.698 263.978 177.826C263.777 177.955 263.604 178.092 263.41 178.2Z" fill="white"/>
<path d="M200.392 198.142C200.507 197.941 200.636 197.768 200.758 197.581C200.894 197.377 201.083 197.213 201.305 197.107C201.547 196.997 201.817 196.962 202.08 197.007C202.342 197.052 202.586 197.174 202.778 197.358C202.899 197.484 203.049 197.576 203.215 197.628C203.381 197.679 203.557 197.688 203.727 197.653C203.914 197.609 204.089 197.523 204.238 197.401C204.424 197.279 204.597 197.143 204.791 197.028C204.683 197.229 204.547 197.401 204.424 197.588C204.288 197.794 204.092 197.954 203.864 198.048C203.621 198.143 203.355 198.165 203.1 198.111C202.845 198.058 202.61 197.931 202.426 197.746C202.302 197.628 202.149 197.544 201.983 197.501C201.817 197.458 201.643 197.459 201.477 197.502C201.288 197.548 201.113 197.64 200.967 197.768C200.758 197.89 200.571 198.027 200.392 198.142Z" fill="white"/>
<path d="M198.419 157.101C198.527 156.907 198.663 156.735 198.786 156.548C198.921 156.341 199.11 156.175 199.332 156.066C199.575 155.957 199.846 155.924 200.108 155.97C200.371 156.016 200.614 156.14 200.806 156.325C200.925 156.451 201.076 156.543 201.242 156.594C201.408 156.644 201.585 156.651 201.755 156.612C201.944 156.575 202.12 156.488 202.265 156.361C202.452 156.239 202.624 156.102 202.818 155.994C202.706 156.185 202.584 156.37 202.452 156.548C202.314 156.754 202.119 156.916 201.891 157.015C201.648 157.11 201.383 157.131 201.127 157.078C200.872 157.024 200.638 156.898 200.453 156.713C200.33 156.594 200.178 156.508 200.012 156.464C199.846 156.42 199.671 156.419 199.504 156.462C199.316 156.514 199.142 156.607 198.994 156.735C198.793 156.857 198.62 156.993 198.419 157.101Z" fill="white"/>
<path d="M221.871 102.344C221.605 103.689 215.538 112.538 209.442 112.459C207.458 112.423 207.142 101.582 207.142 101.582L206.933 100.792L204.058 89.6636L216.947 80.7712L218.816 79.5923C218.816 79.5923 219.398 82.6906 220.096 86.5509C220.096 86.7306 220.16 86.9104 220.189 87.1044C220.218 87.2985 220.282 87.5214 220.311 87.7299C220.426 88.305 220.534 88.8944 220.635 89.4839C220.714 89.9296 220.786 90.3609 220.85 90.8354C220.915 91.3098 220.987 91.7699 221.066 92.2731C221.563 95.608 221.832 98.9729 221.871 102.344Z" fill="#C8918A"/>
<path d="M220.096 86.5509C219.066 89.7373 217.355 92.6615 215.082 95.1206C212.809 97.5797 210.029 99.5148 206.933 100.792L204.058 89.6636L216.947 80.7712L218.816 79.5923C218.816 79.5923 219.398 82.6906 220.096 86.5509Z" fill="#263238"/>
<path d="M188.256 73.1372C187.724 93.3086 199.758 95.9037 204.071 96.0115C208.018 96.1122 221.475 95.954 224.092 75.9479C226.709 55.9418 217.493 49.3498 208.478 48.631C199.463 47.9121 188.788 52.9657 188.256 73.1372Z" fill="#C8918A"/>
<path d="M191.322 67.0353C191.797 66.9562 192.214 66.8124 192.674 66.6902C193.165 66.6302 193.624 66.4134 193.982 66.072C194.074 65.9424 194.12 65.786 194.114 65.6274C194.107 65.4687 194.048 65.3167 193.946 65.195C193.707 64.9862 193.416 64.8448 193.104 64.7855C192.792 64.7261 192.47 64.7508 192.171 64.8571C191.534 64.9775 190.965 65.3312 190.575 65.8491C190.493 65.9726 190.449 66.117 190.447 66.265C190.446 66.413 190.487 66.5583 190.566 66.6836C190.645 66.8088 190.758 66.9086 190.892 66.971C191.026 67.0333 191.176 67.0557 191.322 67.0353Z" fill="#263238"/>
<path d="M204.805 69.9818C204.341 69.9308 203.88 69.854 203.425 69.7518C202.932 69.7384 202.458 69.5642 202.073 69.2557C201.97 69.1349 201.91 68.9832 201.902 68.8246C201.894 68.6659 201.939 68.5091 202.03 68.3787C202.25 68.149 202.527 67.982 202.833 67.8948C203.138 67.8076 203.462 67.8034 203.77 67.8827C204.415 67.9491 205.013 68.2542 205.445 68.7382C205.539 68.8531 205.598 68.9931 205.613 69.1409C205.629 69.2887 205.601 69.4379 205.533 69.5701C205.465 69.7023 205.36 69.8117 205.231 69.8848C205.101 69.958 204.953 69.9917 204.805 69.9818Z" fill="#263238"/>
<path d="M194.294 73.5982C194.294 73.5479 194.193 73.6701 194.193 73.7276C194.33 75.0934 194.258 76.6821 193.05 77.2213C193.007 77.2213 193.05 77.3075 193.05 77.3004C194.56 76.984 194.639 74.8706 194.294 73.5982Z" fill="#263238"/>
<path d="M192.976 72.2467C190.762 72.2467 190.884 76.6605 192.94 76.6821C194.996 76.7037 194.823 72.2683 192.976 72.2467Z" fill="#263238"/>
<path d="M192.064 72.5698C191.719 72.8142 191.388 73.2455 190.964 73.2886C190.54 73.3318 190.109 72.8645 189.785 72.4116C189.785 72.3685 189.721 72.4116 189.721 72.4619C189.721 73.3102 190.03 74.1872 190.842 74.3238C191.654 74.4604 192.115 73.7128 192.28 72.8861C192.33 72.7063 192.201 72.4691 192.064 72.5698Z" fill="#263238"/>
<path d="M203.316 85.3366C202.978 85.6457 202.633 86.0554 202.13 86.1057C201.628 86.0724 201.139 85.9353 200.692 85.7032C200.683 85.6984 200.672 85.697 200.661 85.699C200.65 85.7011 200.64 85.7067 200.633 85.7148C200.626 85.7229 200.621 85.7332 200.62 85.744C200.619 85.7549 200.622 85.7658 200.628 85.7751C200.815 86.0532 201.075 86.2752 201.379 86.417C201.683 86.5588 202.019 86.6153 202.353 86.5802C202.637 86.52 202.896 86.3751 203.097 86.1646C203.297 85.9542 203.428 85.688 203.474 85.4013C203.446 85.3222 203.367 85.2934 203.316 85.3366Z" fill="#263238"/>
<path d="M196.446 79.823C196.446 79.823 196.288 81.879 196.338 82.8423C198.221 82.7389 200.109 82.9035 201.945 83.3311C202.376 83.4461 202.348 83.0939 201.859 82.8351C200.403 82.0764 198.753 81.7709 197.122 81.958C197.035 81.6921 197.431 78.795 197.28 78.795C196.537 78.9041 195.811 79.112 195.123 79.4133C195.339 75.1001 196.245 70.9019 196.395 66.6246C196.398 66.5933 196.388 66.5622 196.369 66.5373C196.35 66.5124 196.323 66.4952 196.292 66.4891C196.261 66.4829 196.229 66.4882 196.202 66.5038C196.175 66.5195 196.154 66.5446 196.144 66.5743C194.879 70.9378 194.519 75.8692 194.181 80.2975C194.138 80.8438 196.072 80.0099 196.446 79.823Z" fill="#263238"/>
<path d="M206.041 73.6686C205.233 73.3521 204.35 73.2821 203.503 73.4674C203.049 73.5706 202.619 73.761 202.238 74.0281C201.845 74.3216 201.523 74.7 201.296 75.1351L200.872 75.9187L201.742 75.8253C202.354 75.7604 202.97 75.7604 203.582 75.8253C204.221 75.881 204.834 76.0988 205.365 76.4579C205.017 75.8228 204.434 75.3502 203.74 75.1423C203.065 74.919 202.35 74.8382 201.641 74.9051L202.087 75.624C202.459 75.0001 203.032 74.5211 203.712 74.2653C204.46 73.9705 205.243 73.7701 206.041 73.6686Z" fill="#263238"/>
<path d="M203.549 77.2418C202.898 77.089 202.272 76.8471 201.687 76.523C201.55 76.4367 201.026 76.0413 201.054 75.9263C201.129 75.592 201.245 75.2684 201.4 74.963C201.158 75.2344 200.974 75.5525 200.86 75.8975C200.901 76.0876 200.982 76.2665 201.099 76.4218C201.215 76.577 201.365 76.7048 201.536 76.7961C202.154 77.1244 202.85 77.2785 203.549 77.2418Z" fill="#263238"/>
<path d="M198.773 82.6985C198.773 82.6985 200.024 84.4956 201.462 84.7113C203.115 84.9701 203.309 83.482 201.462 82.6338C200.527 82.1953 198.773 82.6985 198.773 82.6985Z" fill="#263238"/>
<path d="M201.457 84.747C200.831 84.617 200.255 84.3101 199.797 83.8628C200.142 83.3524 200.933 82.7845 202.708 83.7406C202.967 84.3445 202.507 84.8764 201.457 84.747Z" fill="#FF99BA"/>
<path d="M223.973 76.4297C220.651 76.8466 219.544 69.8952 219.544 69.8952C219.544 69.8952 212.773 70.2402 210.063 60.6074C210.399 63.5176 211.578 66.2661 213.456 68.5149C213.456 68.5149 201.443 67.7961 195.93 58.0698C195.93 58.0698 198.187 63.0659 200.157 64.784C200.157 64.784 195.074 63.6338 192.436 59.6801C192.436 59.6801 190.624 65.5532 189.093 67.2282C189.093 67.2282 188.568 46.3019 208.043 47.5815C208.043 47.5815 220.206 47.7972 225.029 57.1856C229.853 66.574 223.973 76.4297 223.973 76.4297Z" fill="#263238"/>
<path d="M220.866 77.4071C220.866 77.4071 224.884 70.8582 227.832 72.2528C230.779 73.6474 228.019 82.964 224.748 84.4089C224.341 84.624 223.895 84.7546 223.437 84.7927C222.978 84.8308 222.516 84.7756 222.08 84.6305C221.643 84.4854 221.24 84.2534 220.896 83.9485C220.551 83.6435 220.272 83.2719 220.075 82.8561L220.866 77.4071Z" fill="#C8918A"/>
<path d="M226.975 74.9059C227.025 74.9059 227.04 74.9706 226.975 74.9921C224.682 76.0848 223.582 78.3349 222.849 80.6496C223.496 79.7367 224.416 79.2119 225.631 79.9308C225.695 79.9667 225.631 80.0674 225.573 80.0602C225.153 79.9524 224.71 79.9783 224.306 80.1342C223.901 80.2901 223.555 80.5683 223.316 80.93C222.914 81.5326 222.581 82.1789 222.324 82.8566C222.223 83.0722 221.842 82.986 221.907 82.7415C221.903 82.7226 221.903 82.703 221.907 82.684C221.706 79.7151 223.776 75.4019 226.975 74.9059Z" fill="#263238"/>
<path d="M222.856 83.3594C222.867 83.5456 222.932 83.7245 223.044 83.8735C223.156 84.0225 223.31 84.1348 223.486 84.1964C223.662 84.2579 223.852 84.2658 224.033 84.2191C224.213 84.1724 224.376 84.0732 224.5 83.934C224.624 83.7949 224.704 83.622 224.729 83.4374C224.755 83.2527 224.725 83.0646 224.644 82.8968C224.563 82.729 224.434 82.5892 224.273 82.4949C224.112 82.4007 223.927 82.3563 223.741 82.3674C223.617 82.3738 223.496 82.4046 223.385 82.4581C223.273 82.5116 223.174 82.5866 223.091 82.6789C223.009 82.7711 222.946 82.8788 222.906 82.9956C222.865 83.1124 222.849 83.2361 222.856 83.3594Z" fill="white"/>
<path d="M225.114 81.7999C225.12 81.9194 225.162 82.0345 225.233 82.1305C225.304 82.2265 225.403 82.2991 225.515 82.3392C225.628 82.3792 225.75 82.3848 225.866 82.3553C225.982 82.3258 226.087 82.2625 226.167 82.1735C226.247 82.0845 226.298 81.9737 226.315 81.8552C226.332 81.7367 226.313 81.6159 226.262 81.5081C226.21 81.4003 226.127 81.3103 226.024 81.2497C225.921 81.189 225.802 81.1603 225.682 81.1673C225.603 81.171 225.526 81.1903 225.454 81.2242C225.383 81.2581 225.319 81.3059 225.266 81.3647C225.213 81.4236 225.172 81.4924 225.146 81.5671C225.12 81.6418 225.11 81.7209 225.114 81.7999Z" fill="white"/>
<path d="M159.702 121.033L149.262 123.458L156.771 155.78L167.212 153.355L159.702 121.033Z" fill="#EBEBEB"/>
<path d="M134.25 35.2388C125.527 37.2681 117.602 41.838 111.476 48.3706C105.35 54.9033 101.299 63.1055 99.8338 71.9404C98.3687 80.7752 99.5559 89.8461 103.245 98.0064C106.935 106.167 112.96 113.05 120.561 117.786C128.162 122.522 136.996 124.899 145.947 124.615C154.898 124.332 163.564 121.4 170.849 116.193C178.135 110.985 183.713 103.733 186.878 95.356C190.043 86.9784 190.654 77.8506 188.632 69.1262C187.289 63.329 184.816 57.8533 181.355 53.0122C177.895 48.1712 173.514 44.0595 168.464 40.9124C163.413 37.7653 157.792 35.6443 151.921 34.6708C146.051 33.6973 140.046 33.8903 134.25 35.2388ZM152.595 114.221C145.703 115.824 138.491 115.347 131.87 112.85C125.25 110.354 119.518 105.95 115.401 100.195C111.283 94.4412 108.965 87.595 108.739 80.5228C108.513 73.4507 110.389 66.4704 114.131 60.4649C117.872 54.4593 123.311 49.6983 129.758 46.784C136.206 43.8697 143.373 42.9331 150.353 44.0927C157.333 45.2522 163.813 48.4558 168.972 53.2983C174.131 58.1407 177.738 64.4044 179.337 71.2972C181.48 80.5352 179.867 90.246 174.852 98.295C169.837 106.344 161.832 112.072 152.595 114.221Z" fill="#A6A6A6"/>
<path d="M163.262 144.208L156.259 145.834C153.835 146.398 152.326 148.82 152.889 151.245L161.845 189.792C162.409 192.217 164.831 193.725 167.256 193.162L174.258 191.535C176.682 190.972 178.191 188.55 177.628 186.125L168.672 147.578C168.109 145.153 165.686 143.644 163.262 144.208Z" fill="#263238"/>
<g opacity="0.3">
<path opacity="0.3" d="M179.338 71.2834C180.936 78.1734 180.455 85.3825 177.956 91.9992C175.457 98.6159 171.052 104.343 165.299 108.457C159.545 112.57 152.701 114.885 145.632 115.109C138.562 115.333 131.585 113.456 125.583 109.715C119.58 105.974 114.822 100.537 111.909 94.0918C108.996 87.6465 108.06 80.4823 109.218 73.505C110.377 66.5276 113.579 60.0505 118.418 54.8926C123.258 49.7346 129.518 46.1274 136.407 44.5272C140.983 43.4633 145.724 43.3116 150.358 44.0807C154.993 44.8497 159.43 46.5246 163.417 49.0094C167.404 51.4942 170.862 54.7403 173.594 58.5622C176.326 62.3841 178.278 66.7068 179.338 71.2834Z" fill="white"/>
<path opacity="0.3" d="M180.216 81.3625C179.688 90.7776 175.465 99.6038 168.466 105.922C161.466 112.241 152.255 115.542 142.835 115.106L180.216 81.3625Z" fill="#EBEBEB"/>
<path opacity="0.3" d="M163.758 49.2353L112.553 95.4513C111.279 92.9134 110.314 90.2321 109.678 87.4647C108.932 84.294 108.632 81.035 108.786 77.7815L146.591 43.6569C152.697 44.0161 158.608 45.9369 163.758 49.2353Z" fill="#EBEBEB"/>
<path opacity="0.3" d="M178.353 67.854L129.578 111.87C127.446 110.891 125.416 109.704 123.518 108.326L175.456 61.4561C176.636 63.4849 177.607 65.6286 178.353 67.854Z" fill="#EBEBEB"/>
<path opacity="0.3" d="M167.694 52.1551L115.029 99.6722C114.785 99.3128 114.541 98.9534 114.311 98.5867L166.673 51.3356C167.032 51.5944 167.37 51.8603 167.694 52.1551Z" fill="#EBEBEB"/>
<path opacity="0.3" d="M134.666 44.9807L111.303 66.0579C111.698 65.0587 112.144 64.081 112.633 63.1321L131.632 45.9799C132.617 45.6133 133.631 45.2754 134.666 44.9807Z" fill="#EBEBEB"/>
</g>
<path d="M119.11 85.5597C119.107 85.5118 119.107 85.4638 119.11 85.4159C118.981 84.697 119.203 86.0988 119.11 85.6316C119.017 85.1643 118.966 84.5245 118.923 83.971C118.758 82.0191 118.758 80.0568 118.923 78.105C118.923 77.8247 118.973 77.5515 118.995 77.2783C118.995 77.1921 118.916 77.9253 118.995 77.343L119.06 76.8398C119.146 76.1928 119.254 75.5458 119.383 74.9061C119.656 73.4955 120.023 72.1049 120.483 70.7438C120.591 70.4203 120.713 70.0968 120.828 69.7733C120.979 69.3348 120.627 70.255 120.864 69.6799L121.101 69.112C121.41 68.3931 121.748 67.6742 122.108 66.9554C122.467 66.2365 122.934 65.4673 123.387 64.7556C123.603 64.425 123.819 64.1015 124.041 63.778C124.422 63.2245 123.862 64.0008 124.156 63.6127L124.581 63.0519C125.89 61.4063 127.353 59.8898 128.951 58.5231C128.951 58.5231 129.282 58.2571 129.038 58.4584C128.793 58.6596 129.167 58.3505 129.21 58.3146L129.929 57.7467C130.411 57.3873 130.899 57.0278 131.403 56.7115C132.457 56.007 133.546 55.3568 134.666 54.7634C134.967 54.5746 135.227 54.3285 135.432 54.0392C135.637 53.7499 135.783 53.423 135.862 53.0772C135.94 52.7314 135.95 52.3735 135.891 52.0239C135.831 51.6743 135.703 51.3399 135.515 51.0397C135.326 50.7395 135.08 50.4794 134.79 50.2743C134.501 50.0692 134.174 49.9231 133.828 49.8443C133.483 49.7655 133.125 49.7556 132.775 49.8152C132.426 49.8748 132.091 50.0026 131.791 50.1914C124.688 53.9798 118.851 59.9608 115.918 67.5017C113.933 72.5729 113.086 78.0187 113.438 83.4534C113.51 84.6605 113.664 85.8614 113.898 87.0477C114.103 87.732 114.57 88.3073 115.198 88.6481C115.826 88.9889 116.563 89.0674 117.248 88.8665C117.922 88.6445 118.486 88.1732 118.824 87.5492C119.162 86.9251 119.249 86.1953 119.067 85.5093L119.11 85.5597Z" fill="white"/>
<path d="M121.498 93.2089C121.647 93.7104 121.644 94.2446 121.489 94.7442C121.334 95.2439 121.034 95.6863 120.628 96.0158C120.222 96.3453 119.727 96.5469 119.206 96.5953C118.686 96.6436 118.162 96.5365 117.702 96.2875C117.242 96.0384 116.866 95.6586 116.622 95.196C116.378 94.7335 116.277 94.2089 116.33 93.6887C116.384 93.1684 116.591 92.6758 116.925 92.2731C117.259 91.8704 117.704 91.5756 118.206 91.4261C118.539 91.3257 118.889 91.2923 119.235 91.3276C119.581 91.363 119.917 91.4665 120.223 91.6322C120.529 91.798 120.799 92.0226 121.018 92.2932C121.237 92.5638 121.4 92.875 121.498 93.2089Z" fill="white"/>
<path d="M235.89 115.874C242.36 139.266 245.465 162.751 241.886 174.864C239.6 182.585 234.086 187.804 230.578 189.529C222.375 193.584 195.166 187.833 177.439 184.267C173.083 183.39 183.355 148.288 187.733 150.15C194.203 152.888 214.008 156.583 214.554 156.763C215.726 157.166 218.148 131.783 219.859 116.902C222.224 96.1698 232.159 102.366 235.89 115.874Z" fill="#C8918A"/>
<path d="M143.37 143.464C141.444 146.605 143.945 149.481 143.945 149.481C142.303 150.302 141.001 151.673 140.265 153.355C139.107 156.375 143.334 159.516 143.334 159.516C141.809 160.722 140.684 162.361 140.107 164.218C139.287 167.222 143.104 170.996 143.104 170.996C142.316 172.878 142.232 174.981 142.867 176.92C144.772 182.031 152.931 183.706 158.107 184.827C163.283 185.949 179.012 184.252 182.045 184.238L189.486 151.077C189.486 151.077 167.697 139.467 161.45 139.021C156.137 138.662 145.534 139.941 143.37 143.464Z" fill="#C8918A"/>
<path d="M144.29 148.999C150.041 148.057 155.692 148.848 161.407 149.315C161.433 149.315 161.459 149.326 161.478 149.345C161.497 149.364 161.507 149.389 161.507 149.416C161.507 149.443 161.497 149.468 161.478 149.487C161.459 149.506 161.433 149.517 161.407 149.517C155.72 148.985 150.005 149.581 144.319 149.279C144.286 149.276 144.255 149.262 144.232 149.238C144.208 149.215 144.194 149.184 144.19 149.151C144.187 149.118 144.195 149.085 144.213 149.057C144.232 149.03 144.259 149.009 144.29 148.999Z" fill="#263238"/>
<path d="M143.547 159.107C144.866 159.015 146.191 159.1 147.487 159.358C148.872 159.541 150.255 159.747 151.635 159.977C154.4 160.456 157.151 160.985 159.887 161.565C160.01 161.565 160.002 161.781 159.887 161.759C157.127 161.307 154.366 160.897 151.599 160.559C150.211 160.386 148.824 160.235 147.429 160.084C146.11 160.031 144.801 159.831 143.526 159.488C143.487 159.472 143.454 159.445 143.431 159.409C143.408 159.373 143.397 159.332 143.4 159.29C143.402 159.247 143.418 159.207 143.444 159.174C143.471 159.142 143.507 159.118 143.547 159.107Z" fill="#263238"/>
<path d="M143.221 171.011C144.343 170.817 145.651 171.22 146.758 171.428C148.016 171.665 149.267 171.888 150.525 172.111C153.041 172.557 155.557 172.995 158.087 173.355C158.21 173.355 158.195 173.57 158.087 173.549C155.514 173.204 152.94 172.888 150.374 172.521C149.116 172.341 147.851 172.147 146.593 171.953C145.522 171.788 144.17 171.701 143.214 171.141C143.202 171.134 143.192 171.124 143.186 171.113C143.179 171.101 143.176 171.087 143.177 171.074C143.178 171.06 143.182 171.047 143.19 171.036C143.198 171.025 143.209 171.016 143.221 171.011Z" fill="#263238"/>
<path d="M150.476 140.028C147.866 140.366 144.876 140.941 143.187 143.163C142.406 144.105 142.021 145.314 142.115 146.534C142.264 147.673 142.84 148.714 143.726 149.445C142.683 149.781 141.756 150.405 141.051 151.244C140.347 152.083 139.893 153.105 139.743 154.19C139.699 154.733 139.768 155.28 139.945 155.796C140.122 156.312 140.403 156.785 140.771 157.188C141.131 157.612 141.54 157.986 141.936 158.374C142.331 158.762 142.77 159.093 143.179 159.431C142.736 159.777 142.321 160.156 141.936 160.566C141.504 160.981 141.116 161.438 140.778 161.932C140.079 162.91 139.684 164.073 139.643 165.275C139.702 166.469 140.118 167.618 140.836 168.574C141.42 169.563 142.243 170.389 143.23 170.976C143.242 170.982 143.256 170.983 143.269 170.979C143.283 170.976 143.294 170.968 143.302 170.956C143.31 170.945 143.313 170.932 143.312 170.918C143.311 170.904 143.304 170.892 143.294 170.882C142.519 170.174 141.861 169.346 141.346 168.431C140.725 167.454 140.384 166.325 140.361 165.167C140.457 164.069 140.828 163.014 141.44 162.097C141.744 161.601 142.075 161.121 142.432 160.66C142.787 160.283 143.118 159.884 143.424 159.466C143.424 159.466 142.568 158.561 142.266 158.172C141.965 157.784 141.67 157.367 141.397 156.943C140.818 156.138 140.561 155.146 140.678 154.161C140.847 153.242 141.265 152.387 141.885 151.688C142.489 150.969 143.273 150.402 143.905 149.697C143.928 149.66 143.943 149.618 143.949 149.575C143.955 149.532 143.953 149.488 143.941 149.445C142.504 147.203 142.683 145.075 144.222 143.414C145.005 142.609 145.922 141.945 146.932 141.452C148.094 140.923 149.296 140.488 150.526 140.15C150.577 140.143 150.555 140.021 150.476 140.028Z" fill="#263238"/>
<path d="M198.133 188.329C196.602 187.854 194.985 187.61 193.418 187.265C191.851 186.92 190.269 186.596 188.688 186.28C187.106 185.964 185.46 185.648 183.85 185.346C182.239 185.044 180.737 184.706 179.17 184.519C177.657 184.373 176.132 184.406 174.626 184.62C173.107 184.792 171.583 184.914 170.054 184.986C166.974 185.135 163.888 185.068 160.817 184.785C157.343 184.462 153.902 183.849 150.53 182.952C150.458 182.952 150.437 183.038 150.53 183.06C156.376 185.011 162.504 185.983 168.667 185.935C170.191 185.935 171.722 185.842 173.239 185.691C174.755 185.475 176.281 185.346 177.811 185.302C179.429 185.409 181.035 185.65 182.613 186.021C184.202 186.316 185.783 186.618 187.372 186.898C189.169 187.215 190.966 187.538 192.771 187.819C194.575 188.099 196.365 188.501 198.133 188.631C198.263 188.602 198.27 188.365 198.133 188.329Z" fill="#263238"/>
<path d="M220.466 158.215C218.166 157.432 215.736 156.943 213.371 156.375C211.006 155.807 208.612 155.261 206.233 154.722C201.689 153.694 197.089 152.824 192.574 151.566C191.388 151.235 190.216 150.847 189.059 150.459C188.477 150.25 187.909 150.02 187.341 149.74C186.773 149.459 186.119 149.287 185.558 149.021C185.493 148.978 185.443 149.078 185.508 149.122C185.961 149.402 186.377 149.74 186.845 150.013C187.312 150.286 187.88 150.559 188.412 150.804C189.384 151.248 190.38 151.639 191.395 151.975C193.509 152.694 195.708 153.19 197.865 153.694C202.609 154.779 207.361 155.85 212.12 156.878C213.457 157.166 214.801 157.453 216.146 157.719C217.49 157.985 218.957 158.316 220.38 158.474C220.414 158.483 220.45 158.479 220.48 158.463C220.511 158.446 220.535 158.419 220.546 158.386C220.557 158.352 220.555 158.316 220.54 158.284C220.525 158.253 220.499 158.228 220.466 158.215Z" fill="#263238"/>
<path d="M212.984 149.517L245.865 153.988C245.865 153.988 239.856 119.806 233.465 108.484C227.16 97.3128 220.202 104.696 217.549 118.21C214.573 133.191 212.984 149.517 212.984 149.517Z" fill="#37474F"/>
<path d="M243.393 149.036C242.473 148.82 241.531 148.683 240.611 148.482C239.691 148.281 238.807 148.144 237.901 148.001C236.054 147.713 234.199 147.454 232.344 147.203C228.693 146.699 225.048 146.146 221.382 145.765C219.297 145.535 217.219 145.226 215.135 145.046C215.119 145.046 215.105 145.052 215.094 145.063C215.083 145.074 215.077 145.088 215.077 145.104C215.077 145.119 215.083 145.133 215.094 145.144C215.105 145.155 215.119 145.161 215.135 145.161C218.765 146.009 222.467 146.642 226.148 147.239C229.828 147.835 233.451 148.396 237.118 148.799C238.146 148.906 239.174 149.043 240.209 149.093C241.244 149.144 242.329 149.237 243.386 149.259C243.416 149.26 243.444 149.249 243.466 149.228C243.488 149.208 243.5 149.18 243.501 149.151C243.502 149.121 243.491 149.092 243.471 149.071C243.451 149.049 243.423 149.037 243.393 149.036Z" fill="#263238"/>
<path d="M261.407 25.0167C260.985 29.0607 259.448 32.9079 256.966 36.1289C254.485 39.3499 251.157 41.818 247.355 43.2577C243.552 44.6974 239.424 45.0522 235.432 44.2824C231.44 43.5126 227.74 41.6484 224.745 38.8981L213.761 40.5155L219.26 31.0193C217.999 27.9285 217.459 24.5908 217.682 21.26C217.905 17.9293 218.884 14.6932 220.546 11.7979C222.207 8.90261 224.507 6.42433 227.271 4.55155C230.034 2.67877 233.188 1.4608 236.493 0.990291C239.798 0.519778 243.166 0.809107 246.343 1.83627C249.519 2.86343 252.419 4.60137 254.823 6.91793C257.226 9.23448 259.07 12.0686 260.213 15.2049C261.357 18.3411 261.77 21.6968 261.422 25.0167H261.407Z" fill="white"/>
<path d="M261.406 25.0169C260.985 29.0639 259.453 32.9155 256.978 36.145C255.762 37.7705 254.308 39.2029 252.664 40.3935C249.398 42.845 245.522 44.352 241.457 44.7498C240.444 44.8445 239.425 44.8637 238.409 44.8073C237.391 44.785 236.377 44.6792 235.376 44.491C231.328 43.7496 227.566 41.8951 224.514 39.1355L224.772 39.2146L213.81 40.8967L213.012 41.0189L213.414 40.3L218.878 30.7894V31.1632C217.281 27.2351 216.843 22.9323 217.613 18.7627C218.383 14.5932 220.33 10.731 223.224 7.63214C226.118 4.5333 229.838 2.32717 233.945 1.2742C238.052 0.221237 242.375 0.3654 246.403 1.68967C249.575 2.76743 252.466 4.54076 254.864 6.8799C257.258 9.20975 259.09 12.0531 260.223 15.1951C261.357 18.3372 261.761 21.6957 261.406 25.0169ZM261.406 25.0169C261.752 21.714 261.336 18.3756 260.19 15.2587C259.044 12.1418 257.197 9.32946 254.794 7.03805C252.39 4.74665 249.492 3.03729 246.324 2.04152C243.156 1.04575 239.801 0.790123 236.519 1.2943C233.26 1.78501 230.157 3.01447 227.447 4.88863C224.762 6.779 222.522 9.23227 220.883 12.0773C219.264 14.9229 218.311 18.0983 218.094 21.3651C217.895 24.6272 218.423 27.8929 219.64 30.926L219.719 31.1273L219.618 31.307L214.09 40.7817L213.695 40.1994L224.686 38.661H224.837L224.945 38.7617C227.881 41.5059 231.522 43.38 235.462 44.1747C236.443 44.3759 237.438 44.4985 238.438 44.5414C239.439 44.6097 240.442 44.6097 241.443 44.5414C243.447 44.3852 245.419 43.9496 247.302 43.2474C249.2 42.5565 250.986 41.5875 252.6 40.3719C253.412 39.7771 254.185 39.1312 254.915 38.4382C255.626 37.7246 256.293 36.9683 256.913 36.1737C259.415 32.9429 260.971 29.0803 261.406 25.0169Z" fill="#263238"/>
<path d="M228.843 32.9886C228.83 32.6971 228.875 32.4058 228.978 32.1324C229.08 31.859 229.236 31.6092 229.438 31.3982C229.64 31.1871 229.882 31.0192 230.151 30.9046C230.419 30.79 230.708 30.7311 231 30.7314C231.598 30.7314 232.173 30.9692 232.596 31.3925C233.019 31.8158 233.257 32.39 233.257 32.9886C233.257 33.5873 233.019 34.1614 232.596 34.5847C232.173 35.0081 231.598 35.2459 231 35.2459C230.708 35.2462 230.419 35.1872 230.151 35.0726C229.882 34.958 229.64 34.7901 229.438 34.5791C229.236 34.368 229.08 34.1182 228.978 33.8449C228.875 33.5715 228.83 33.2802 228.843 32.9886ZM229.756 27.784L229.246 10.3083H232.739L232.2 27.7625L229.756 27.784Z" fill="#F4A047"/>
<path d="M237.233 32.9886C237.219 32.6971 237.265 32.4058 237.367 32.1324C237.469 31.859 237.626 31.6092 237.828 31.3982C238.029 31.1871 238.272 31.0192 238.54 30.9046C238.809 30.79 239.098 30.7311 239.389 30.7314C239.988 30.7314 240.562 30.9692 240.986 31.3925C241.409 31.8158 241.647 32.39 241.647 32.9886C241.647 33.5873 241.409 34.1614 240.986 34.5847C240.562 35.0081 239.988 35.2459 239.389 35.2459C239.098 35.2462 238.809 35.1872 238.54 35.0726C238.272 34.958 238.029 34.7901 237.828 34.5791C237.626 34.368 237.469 34.1182 237.367 33.8449C237.265 33.5715 237.219 33.2802 237.233 32.9886ZM238.146 27.784L237.635 10.3083H241.129L240.619 27.784H238.146Z" fill="#F4A047"/>
<path d="M245.593 32.9886C245.58 32.6971 245.625 32.4058 245.728 32.1324C245.83 31.859 245.986 31.6092 246.188 31.3982C246.39 31.1871 246.632 31.0192 246.901 30.9046C247.169 30.79 247.458 30.7311 247.75 30.7314C248.348 30.7314 248.923 30.9692 249.346 31.3925C249.769 31.8158 250.007 32.39 250.007 32.9886C250.007 33.5873 249.769 34.1614 249.346 34.5847C248.923 35.0081 248.348 35.2459 247.75 35.2459C247.458 35.2462 247.169 35.1872 246.901 35.0726C246.632 34.958 246.39 34.7901 246.188 34.5791C245.986 34.368 245.83 34.1182 245.728 33.8449C245.625 33.5715 245.58 33.2802 245.593 32.9886ZM246.506 27.784L245.996 10.3083H249.489L248.979 27.784H246.506Z" fill="#F4A047"/>
</svg>
