<svg xmlns="http://www.w3.org/2000/svg" width="304" height="130" viewBox="0 0 304 130">
  <g id="Group_949" data-name="Group 949" transform="translate(-454 -225)">
    <g id="Rectangle_522" data-name="Rectangle 522" transform="translate(454 225)" fill="#fff" stroke="#74a669" stroke-width="1">
      <rect width="288" height="130" stroke="none"/>
      <rect x="0.5" y="0.5" width="287" height="129" fill="none"/>
    </g>
    <rect id="Rectangle_523" data-name="Rectangle 523" width="87" height="128" transform="translate(654 226)" fill="#dbdbdb"/>
    <text id="Step_02" data-name="Step 02" transform="translate(525 257)" fill="#74a669" font-size="18" font-family="OpenSans, Open Sans" letter-spacing="-0.03em"><tspan x="0" y="0">Step 02</tspan></text>
    <text id="Import_Account_Details" data-name="Import
Account Details" transform="translate(555 305)" fill="#74a669" font-size="20" font-family="OpenSans-Semibold, Open Sans" font-weight="600" letter-spacing="-0.03em"><tspan x="-31.693" y="0">Import</tspan><tspan x="-70.922" y="23">Account Details</tspan></text>
    <line id="Line_2" data-name="Line 2" x2="175" transform="translate(467.5 271.5)" fill="none" stroke="#707070" stroke-width="1"/>
    <path id="Polygon_1" data-name="Polygon 1" d="M14,0,28,16H0Z" transform="translate(758 278) rotate(90)" fill="#74a669"/>
    <g id="import" transform="translate(676.5 271)">
      <path id="Path_646" data-name="Path 646" d="M7.944,15.417V32.64H32.056V15.417H25.167V11.973H35.5V36.084H4.5V11.973H14.833v3.444Z" transform="translate(0 1.329)" fill="#74a669"/>
      <path id="Path_647" data-name="Path 647" d="M20.822,3H17.378V23.759l-4.366-4.368-2.438,2.438L19.1,30.353l8.525-8.525-2.435-2.438-4.366,4.368Z" transform="translate(0.9 0)" fill="#74a669"/>
    </g>
  </g>
</svg>
