<svg xmlns="http://www.w3.org/2000/svg" width="240.248" height="352.012" viewBox="0 0 240.248 352.012">
  <g id="Group_13" data-name="Group 13" transform="translate(-222.876 -1280.448)">
    <g id="Group_4" data-name="Group 4" transform="translate(100.211 1034.545)">
      <path id="Path_2" data-name="Path 2" d="M128.409,360.226c27.115-9.695,125.914-38.39,125.914-38.39s26.935-5.83,41.117,21.727c9.695,30.213,30.005,145.112,30.005,145.112l17.726,85.651s14.657,40.215-23.814,53.588S194.011,671.77,194.011,671.77s-35.143,10.527-46.634-23.049c-.107-.338-.255-.838-.4-1.348C127.357,525.6,122.807,498.581,122.807,498.581L105.973,395.744S101.295,369.921,128.409,360.226Z" transform="translate(17 -75.417)" fill="#6862a7"/>
      <g id="Path_3" data-name="Path 3" transform="translate(129.9 274.224) rotate(-3)" fill="#fff">
        <path d="M 43.38037872314453 304.8859252929688 C 37.05430221557617 304.8859252929688 31.3349552154541 304.3730163574219 26.38118553161621 303.3614196777344 C 19.55253219604492 301.9669189453125 14.45526218414307 299.6598815917969 11.23103141784668 296.5042724609375 C 8.742300987243652 294.0685424804688 6.634570121765137 290.9587707519531 4.96645450592041 287.2612915039062 C 3.610646963119507 284.2559814453125 2.537262201309204 280.8498229980469 1.776185393333435 277.1374816894531 C 0.5778777003288269 271.2925109863281 0.4858392179012299 266.3768920898438 0.5018776655197144 264.5347290039062 C 0.5021121501922607 264.5074768066406 0.5022938847541809 264.4852294921875 0.5023865699768066 264.4680480957031 L 18.79195404052734 39.62516403198242 L 18.79360771179199 39.60493087768555 L 18.79360771179199 39.58462524414062 C 18.79360771179199 35.0031623840332 19.69076156616211 30.55900955200195 21.46018600463867 26.37562370300293 C 23.16937828063965 22.33470153808594 25.61630058288574 18.70547103881836 28.73299217224121 15.58877849578857 C 31.84972381591797 12.47204780578613 35.47891616821289 10.02512454986572 39.51987838745117 8.315932273864746 C 43.70326232910156 6.5465087890625 48.14737701416016 5.649354934692383 52.72883987426758 5.649354934692383 L 52.73964691162109 5.649354934692383 L 52.75045394897461 5.648893356323242 L 166.1934204101562 0.7378935813903809 L 166.2161102294922 0.7368935346603394 L 166.2386016845703 0.7338550686836243 C 167.3894958496094 0.5787012577056885 168.565185546875 0.5000089406967163 169.7329864501953 0.5000089406967163 C 173.6643829345703 0.5000089406967163 177.5728759765625 1.362393498420715 181.3499908447266 3.063201189041138 C 185.0804138183594 4.74304723739624 188.4958343505859 7.154316425323486 191.5013427734375 10.23004722595215 C 194.9736480712891 13.78354740142822 197.6866912841797 17.99908638000488 199.5651092529297 22.75954818725586 C 201.5636596679688 27.82446670532227 202.5107879638672 33.26610946655273 202.3802032470703 38.93268203735352 L 194.0863800048828 250.5003509521484 L 194.0859985351562 250.5101318359375 L 194.0859985351562 250.5199279785156 C 194.0859985351562 259.5234680175781 193.5982666015625 268.8996276855469 190.0598754882812 276.4772033691406 C 188.2236022949219 280.4095458984375 185.7263031005859 283.5911560058594 182.4251861572266 286.2038269042969 C 180.6601409912109 287.6007385253906 178.6378326416016 288.8417053222656 176.4144897460938 289.8922424316406 C 174.0995483398438 290.9860534667969 171.4890289306641 291.9102172851562 168.6552276611328 292.6391906738281 L 51.94310760498047 304.5441589355469 C 51.91022491455078 304.54736328125 48.38053131103516 304.8859252929688 43.38037872314453 304.8859252929688 Z" stroke="none"/>
        <path d="M 169.7329559326172 1 C 168.5873718261719 1 167.4341888427734 1.07720947265625 166.3053741455078 1.229400634765625 L 166.2603759765625 1.2354736328125 L 166.2149963378906 1.2374267578125 L 52.72883605957031 6.14935302734375 C 48.21464538574219 6.14935302734375 43.83607482910156 7.033233642578125 39.71464538574219 8.77642822265625 C 35.73330688476562 10.46038818359375 32.15748596191406 12.87136840820312 29.08653259277344 15.94232177734375 C 26.01556396484375 19.01324462890625 23.6046142578125 22.58905029296875 21.92068481445312 26.57040405273438 C 20.17745971679688 30.69180297851562 19.29356384277344 35.07040405273438 19.29356384277344 39.5845947265625 L 19.29356384277344 39.62521362304688 L 19.29026794433594 39.6656494140625 L 1.00225830078125 264.4899291992188 C 1.002151489257812 264.5040893554688 1.00201416015625 264.5204772949219 1.001846313476562 264.5391235351562 C 0.9859619140625 266.3653259277344 1.077301025390625 271.2388916015625 2.2659912109375 277.0370178222656 C 3.0196533203125 280.7132263183594 4.081573486328125 284.0840148925781 5.422225952148438 287.0556640625 C 7.064651489257812 290.6961669921875 9.136688232421875 293.7549438476562 11.58076477050781 296.1469421386719 C 14.735107421875 299.234130859375 19.74833679199219 301.4966125488281 26.48114013671875 302.8715209960938 C 31.33268737792969 303.8622436523438 37.17630004882812 304.3858947753906 43.38021850585938 304.3858947753906 C 48.35221862792969 304.3858947753906 51.86192321777344 304.0496520996094 51.89237976074219 304.0466918945312 L 168.5669097900391 292.1455993652344 C 171.3561859130859 291.4259643554688 173.9242706298828 290.515869140625 176.2008819580078 289.4401550292969 C 178.3898773193359 288.4058532714844 180.3796081542969 287.1850891113281 182.1148834228516 285.8117370605469 C 185.3535766601562 283.2484741210938 187.8042297363281 280.1258850097656 189.6067962646484 276.265625 C 193.1039123535156 268.7764282226562 193.5859985351562 259.4657897949219 193.5859985351562 250.5199279785156 L 193.5867614746094 250.4807739257812 L 201.8804779052734 38.91604614257812 C 202.0088043212891 33.31838989257812 201.0733337402344 27.94406127929688 199.0999908447266 22.94305419921875 C 197.2461395263672 18.24484252929688 194.5693054199219 14.08517456054688 191.1437225341797 10.57949829101562 C 188.1820678710938 7.548675537109375 184.8179168701172 5.173187255859375 181.1446838378906 3.519134521484375 C 177.4325256347656 1.8475341796875 173.5930633544922 1 169.7329559326172 1 M 169.7329406738281 3.0517578125e-05 C 186.9294738769531 3.0517578125e-05 203.3993377685547 16.47665405273438 202.8800354003906 38.94696044921875 L 194.5859985351562 250.5199279785156 C 194.5859985351562 269.5379638671875 192.3386535644531 287.0810546875 168.7431945800781 293.1328125 L 51.99383544921875 305.0415344238281 C 51.99385070800781 305.0415344238281 22.2109375 307.9500427246094 10.88130187988281 296.8616333007812 C -0.4483489990234375 285.7733154296875 0.0024566650390625 265.1886901855469 0.0024566650390625 264.447021484375 L 18.29356384277344 39.5845947265625 C 18.29356384277344 20.56649780273438 33.71076965332031 5.14935302734375 52.72883605957031 5.14935302734375 L 166.1717529296875 0.23834228515625 C 167.3580474853516 0.078399658203125 168.5482177734375 3.0517578125e-05 169.7329406738281 3.0517578125e-05 Z" stroke="none" fill="#e3e3e3"/>
      </g>
    </g>
    <path id="Path_9" data-name="Path 9" d="M1.7,0V-12.85H3.8V0ZM14.981,0H12.907V-5.977a2.616,2.616,0,0,0-.453-1.679,1.75,1.75,0,0,0-1.437-.554A2.285,2.285,0,0,0,9.1-7.436,4.27,4.27,0,0,0,8.5-4.843V0H6.43V-9.721H8.047l.29,1.274h.105A2.876,2.876,0,0,1,9.69-9.519,4.182,4.182,0,0,1,11.483-9.9q3.5,0,3.5,3.56Zm6.254.176a4.256,4.256,0,0,1-3.353-1.288,5.38,5.38,0,0,1-1.147-3.7,5.41,5.41,0,0,1,1.2-3.771A4.45,4.45,0,0,1,21.4-9.9a6.5,6.5,0,0,1,2.769.571l-.624,1.661a6.255,6.255,0,0,0-2.162-.51q-2.522,0-2.522,3.349a4.01,4.01,0,0,0,.628,2.457,2.175,2.175,0,0,0,1.841.822,5.283,5.283,0,0,0,2.61-.686v1.8A4.079,4.079,0,0,1,22.76.035,7.093,7.093,0,0,1,21.235.176ZM30.618-9.9a4.972,4.972,0,0,1,1.028.088l-.2,1.925a3.9,3.9,0,0,0-.914-.105,2.645,2.645,0,0,0-2.008.809,2.923,2.923,0,0,0-.769,2.1V0H25.688V-9.721H27.3l.272,1.714h.105a3.851,3.851,0,0,1,1.261-1.38A3,3,0,0,1,30.618-9.9ZM37.153.176a4.7,4.7,0,0,1-3.546-1.323A5.021,5.021,0,0,1,32.328-4.79a5.509,5.509,0,0,1,1.187-3.744A4.1,4.1,0,0,1,36.776-9.9a4.006,4.006,0,0,1,3.041,1.169,4.467,4.467,0,0,1,1.116,3.217v1.116H34.455a3.193,3.193,0,0,0,.765,2.175,2.663,2.663,0,0,0,2.03.76,7.5,7.5,0,0,0,1.6-.163,8.408,8.408,0,0,0,1.6-.541V-.483a6.342,6.342,0,0,1-1.529.51A9.378,9.378,0,0,1,37.153.176Zm-.378-8.508a2.075,2.075,0,0,0-1.578.624,2.974,2.974,0,0,0-.708,1.819H38.9a2.691,2.691,0,0,0-.58-1.824A1.984,1.984,0,0,0,36.776-8.332ZM48.821,0l-.413-1.354h-.07A3.982,3.982,0,0,1,46.923-.145a4.475,4.475,0,0,1-1.828.321A3.094,3.094,0,0,1,42.858-.6a2.894,2.894,0,0,1-.8-2.188A2.57,2.57,0,0,1,43.17-5.054a6.436,6.436,0,0,1,3.4-.835l1.679-.053V-6.46a1.965,1.965,0,0,0-.435-1.393,1.774,1.774,0,0,0-1.349-.461,4.665,4.665,0,0,0-1.433.22,10.811,10.811,0,0,0-1.318.519l-.668-1.477a7.189,7.189,0,0,1,1.731-.628A7.968,7.968,0,0,1,46.554-9.9a4.2,4.2,0,0,1,2.8.809,3.166,3.166,0,0,1,.945,2.54V0ZM45.745-1.406a2.558,2.558,0,0,0,1.806-.628A2.278,2.278,0,0,0,48.233-3.8v-.844l-1.248.053a4.27,4.27,0,0,0-2.123.488A1.482,1.482,0,0,0,44.2-2.769a1.3,1.3,0,0,0,.387,1.006A1.661,1.661,0,0,0,45.745-1.406ZM59.171-2.769A2.543,2.543,0,0,1,58.134-.584a4.966,4.966,0,0,1-2.971.76,7.017,7.017,0,0,1-3.12-.589V-2.2a7.66,7.66,0,0,0,3.19.791q1.907,0,1.907-1.151a.912.912,0,0,0-.211-.615,2.5,2.5,0,0,0-.694-.51,11.949,11.949,0,0,0-1.345-.6,6.22,6.22,0,0,1-2.272-1.3,2.407,2.407,0,0,1-.593-1.687,2.216,2.216,0,0,1,1.006-1.938A4.776,4.776,0,0,1,55.77-9.9a7.754,7.754,0,0,1,3.243.694l-.668,1.556A7.213,7.213,0,0,0,55.7-8.3q-1.635,0-1.635.932a.937.937,0,0,0,.426.773,9.374,9.374,0,0,0,1.859.87,8.5,8.5,0,0,1,1.749.853,2.548,2.548,0,0,1,.809.892A2.582,2.582,0,0,1,59.171-2.769ZM65.109.176a4.7,4.7,0,0,1-3.546-1.323A5.021,5.021,0,0,1,60.283-4.79,5.509,5.509,0,0,1,61.47-8.534,4.1,4.1,0,0,1,64.731-9.9a4.006,4.006,0,0,1,3.041,1.169,4.467,4.467,0,0,1,1.116,3.217v1.116H62.41a3.193,3.193,0,0,0,.765,2.175,2.663,2.663,0,0,0,2.03.76,7.5,7.5,0,0,0,1.6-.163,8.408,8.408,0,0,0,1.6-.541V-.483a6.342,6.342,0,0,1-1.529.51A9.378,9.378,0,0,1,65.109.176Zm-.378-8.508a2.075,2.075,0,0,0-1.578.624,2.974,2.974,0,0,0-.708,1.819h4.412a2.691,2.691,0,0,0-.58-1.824A1.984,1.984,0,0,0,64.731-8.332ZM73.973.176a3.386,3.386,0,0,1-2.839-1.318,5.926,5.926,0,0,1-1.02-3.7,5.945,5.945,0,0,1,1.033-3.722A3.418,3.418,0,0,1,74.008-9.9a3.351,3.351,0,0,1,2.918,1.415h.105a12.381,12.381,0,0,1-.149-1.652v-3.542h2.074V0H77.339l-.36-1.274h-.1A3.3,3.3,0,0,1,73.973.176Zm.554-1.67a2.248,2.248,0,0,0,1.854-.716,3.771,3.771,0,0,0,.6-2.325v-.29a4.357,4.357,0,0,0-.6-2.61,2.217,2.217,0,0,0-1.872-.773,1.9,1.9,0,0,0-1.679.883,4.527,4.527,0,0,0-.589,2.518,4.414,4.414,0,0,0,.571,2.465A1.929,1.929,0,0,0,74.527-1.494Zm16.665-9.738a3.462,3.462,0,0,0-2.848,1.283,5.485,5.485,0,0,0-1.037,3.542,5.522,5.522,0,0,0,1,3.577,3.523,3.523,0,0,0,2.887,1.213,7.586,7.586,0,0,0,1.582-.163q.765-.163,1.591-.417V-.4a9.645,9.645,0,0,1-3.428.571A5.479,5.479,0,0,1,86.6-1.534a7.151,7.151,0,0,1-1.512-4.891,7.9,7.9,0,0,1,.734-3.507,5.238,5.238,0,0,1,2.123-2.3,6.42,6.42,0,0,1,3.261-.8,8.092,8.092,0,0,1,3.639.826l-.756,1.749A11.285,11.285,0,0,0,92.717-11,4.956,4.956,0,0,0,91.192-11.232ZM104.925,0h-2.074V-5.977a2.616,2.616,0,0,0-.453-1.679,1.75,1.75,0,0,0-1.437-.554,2.281,2.281,0,0,0-1.912.778,4.286,4.286,0,0,0-.611,2.606V0H96.373V-13.676h2.065V-10.2a16.2,16.2,0,0,1-.105,1.784h.132a2.868,2.868,0,0,1,1.173-1.09,3.782,3.782,0,0,1,1.753-.387q3.533,0,3.533,3.56Zm8.416,0-.413-1.354h-.07a3.982,3.982,0,0,1-1.415,1.208,4.475,4.475,0,0,1-1.828.321A3.094,3.094,0,0,1,107.378-.6a2.894,2.894,0,0,1-.8-2.188,2.57,2.57,0,0,1,1.116-2.268,6.436,6.436,0,0,1,3.4-.835l1.679-.053V-6.46a1.965,1.965,0,0,0-.435-1.393,1.774,1.774,0,0,0-1.349-.461,4.665,4.665,0,0,0-1.433.22,10.811,10.811,0,0,0-1.318.519l-.668-1.477a7.189,7.189,0,0,1,1.731-.628,7.968,7.968,0,0,1,1.775-.215,4.2,4.2,0,0,1,2.8.809,3.166,3.166,0,0,1,.945,2.54V0Zm-3.076-1.406a2.558,2.558,0,0,0,1.806-.628,2.278,2.278,0,0,0,.681-1.762v-.844l-1.248.053a4.27,4.27,0,0,0-2.123.488,1.482,1.482,0,0,0-.664,1.332,1.3,1.3,0,0,0,.387,1.006A1.661,1.661,0,0,0,110.265-1.406ZM125.712,0h-2.074V-5.977a2.616,2.616,0,0,0-.453-1.679,1.75,1.75,0,0,0-1.437-.554,2.285,2.285,0,0,0-1.916.773,4.27,4.27,0,0,0-.606,2.593V0h-2.065V-9.721h1.617l.29,1.274h.105a2.876,2.876,0,0,1,1.248-1.072,4.182,4.182,0,0,1,1.793-.378q3.5,0,3.5,3.56Zm6.254.176a4.256,4.256,0,0,1-3.353-1.288,5.38,5.38,0,0,1-1.147-3.7,5.41,5.41,0,0,1,1.2-3.771A4.45,4.45,0,0,1,132.133-9.9a6.5,6.5,0,0,1,2.769.571l-.624,1.661a6.256,6.256,0,0,0-2.162-.51q-2.522,0-2.522,3.349a4.01,4.01,0,0,0,.628,2.457,2.175,2.175,0,0,0,1.841.822,5.283,5.283,0,0,0,2.61-.686v1.8a4.079,4.079,0,0,1-1.182.466A7.093,7.093,0,0,1,131.966.176Zm8.7,0a4.7,4.7,0,0,1-3.546-1.323,5.021,5.021,0,0,1-1.279-3.643,5.509,5.509,0,0,1,1.187-3.744A4.1,4.1,0,0,1,140.286-9.9a4.006,4.006,0,0,1,3.041,1.169,4.467,4.467,0,0,1,1.116,3.217v1.116h-6.478a3.193,3.193,0,0,0,.765,2.175,2.663,2.663,0,0,0,2.03.76,7.5,7.5,0,0,0,1.6-.163,8.408,8.408,0,0,0,1.6-.541V-.483a6.342,6.342,0,0,1-1.529.51A9.378,9.378,0,0,1,140.664.176Zm-.378-8.508a2.075,2.075,0,0,0-1.578.624A2.974,2.974,0,0,0,138-5.889h4.412a2.691,2.691,0,0,0-.58-1.824A1.984,1.984,0,0,0,140.286-8.332ZM152.78-2.769a2.543,2.543,0,0,1-1.037,2.184,4.966,4.966,0,0,1-2.971.76,7.017,7.017,0,0,1-3.12-.589V-2.2a7.66,7.66,0,0,0,3.19.791q1.907,0,1.907-1.151a.912.912,0,0,0-.211-.615,2.5,2.5,0,0,0-.694-.51,11.949,11.949,0,0,0-1.345-.6,6.22,6.22,0,0,1-2.272-1.3,2.407,2.407,0,0,1-.593-1.687,2.216,2.216,0,0,1,1.006-1.938,4.776,4.776,0,0,1,2.738-.69,7.754,7.754,0,0,1,3.243.694l-.668,1.556a7.213,7.213,0,0,0-2.646-.65q-1.635,0-1.635.932a.937.937,0,0,0,.426.773,9.374,9.374,0,0,0,1.859.87,8.5,8.5,0,0,1,1.749.853,2.548,2.548,0,0,1,.809.892A2.582,2.582,0,0,1,152.78-2.769ZM13.1,14.558a7.029,7.029,0,0,1-1.569,4.878,5.674,5.674,0,0,1-4.443,1.74,5.713,5.713,0,0,1-4.469-1.727,7.073,7.073,0,0,1-1.56-4.909A6.963,6.963,0,0,1,2.632,9.653,5.781,5.781,0,0,1,7.11,7.948,5.664,5.664,0,0,1,11.54,9.68,7.022,7.022,0,0,1,13.1,14.558Zm-9.809,0a5.762,5.762,0,0,0,.958,3.6,3.382,3.382,0,0,0,2.839,1.226A3.376,3.376,0,0,0,9.918,18.17a5.772,5.772,0,0,0,.954-3.612,5.784,5.784,0,0,0-.945-3.586A3.34,3.34,0,0,0,7.11,9.75a3.41,3.41,0,0,0-2.852,1.222A5.706,5.706,0,0,0,3.3,14.558Zm16.687-1.714H17.609V21H15.535V12.844h-1.6v-.967l1.6-.633v-.633a3.537,3.537,0,0,1,.809-2.553,3.306,3.306,0,0,1,2.47-.831,6.591,6.591,0,0,1,2.145.36l-.545,1.564a4.761,4.761,0,0,0-1.459-.246,1.187,1.187,0,0,0-1.024.435,2.192,2.192,0,0,0-.321,1.305v.633h2.373Zm11.778,5.388a2.543,2.543,0,0,1-1.037,2.184,4.966,4.966,0,0,1-2.971.76,7.017,7.017,0,0,1-3.12-.589V18.8a7.66,7.66,0,0,0,3.19.791q1.907,0,1.907-1.151a.912.912,0,0,0-.211-.615,2.5,2.5,0,0,0-.694-.51,11.949,11.949,0,0,0-1.345-.6,6.22,6.22,0,0,1-2.272-1.3,2.407,2.407,0,0,1-.593-1.687,2.216,2.216,0,0,1,1.006-1.938,4.776,4.776,0,0,1,2.738-.69A7.754,7.754,0,0,1,31.6,11.8l-.668,1.556a7.213,7.213,0,0,0-2.646-.65q-1.635,0-1.635.932a.937.937,0,0,0,.426.773,9.374,9.374,0,0,0,1.859.87,8.5,8.5,0,0,1,1.749.853,2.548,2.548,0,0,1,.809.892A2.582,2.582,0,0,1,31.761,18.231ZM40.309,21l-.29-1.274h-.105a2.931,2.931,0,0,1-1.226,1.063,4.1,4.1,0,0,1-1.815.387,3.563,3.563,0,0,1-2.637-.879,3.643,3.643,0,0,1-.87-2.663V11.279h2.083v5.994a2.6,2.6,0,0,0,.457,1.674,1.745,1.745,0,0,0,1.433.558,2.281,2.281,0,0,0,1.912-.778,4.286,4.286,0,0,0,.611-2.606V11.279h2.074V21Zm7.95.176a4.256,4.256,0,0,1-3.353-1.288,5.38,5.38,0,0,1-1.147-3.7,5.41,5.41,0,0,1,1.2-3.771A4.45,4.45,0,0,1,48.426,11.1a6.5,6.5,0,0,1,2.769.571l-.624,1.661a6.255,6.255,0,0,0-2.162-.51q-2.522,0-2.522,3.349a4.01,4.01,0,0,0,.628,2.457,2.175,2.175,0,0,0,1.841.822,5.283,5.283,0,0,0,2.61-.686v1.8a4.079,4.079,0,0,1-1.182.466A7.093,7.093,0,0,1,48.259,21.176Zm8.372,0a4.256,4.256,0,0,1-3.353-1.288,5.38,5.38,0,0,1-1.147-3.7,5.41,5.41,0,0,1,1.2-3.771A4.45,4.45,0,0,1,56.8,11.1a6.5,6.5,0,0,1,2.769.571l-.624,1.661a6.255,6.255,0,0,0-2.162-.51q-2.522,0-2.522,3.349a4.01,4.01,0,0,0,.628,2.457,2.175,2.175,0,0,0,1.841.822,5.283,5.283,0,0,0,2.61-.686v1.8a4.079,4.079,0,0,1-1.182.466A7.093,7.093,0,0,1,56.631,21.176Zm8.7,0a4.7,4.7,0,0,1-3.546-1.323A5.021,5.021,0,0,1,60.5,16.21a5.509,5.509,0,0,1,1.187-3.744A4.1,4.1,0,0,1,64.95,11.1a4.006,4.006,0,0,1,3.041,1.169,4.467,4.467,0,0,1,1.116,3.217v1.116H62.63a3.193,3.193,0,0,0,.765,2.175,2.663,2.663,0,0,0,2.03.76,7.5,7.5,0,0,0,1.6-.163,8.408,8.408,0,0,0,1.6-.541v1.679a6.342,6.342,0,0,1-1.529.51A9.378,9.378,0,0,1,65.328,21.176Zm-.378-8.508a2.075,2.075,0,0,0-1.578.624,2.974,2.974,0,0,0-.708,1.819h4.412a2.691,2.691,0,0,0-.58-1.824A1.984,1.984,0,0,0,64.95,12.668Zm12.494,5.563a2.543,2.543,0,0,1-1.037,2.184,4.966,4.966,0,0,1-2.971.76,7.017,7.017,0,0,1-3.12-.589V18.8a7.66,7.66,0,0,0,3.19.791q1.907,0,1.907-1.151a.912.912,0,0,0-.211-.615,2.5,2.5,0,0,0-.694-.51,11.949,11.949,0,0,0-1.345-.6,6.22,6.22,0,0,1-2.272-1.3,2.407,2.407,0,0,1-.593-1.687,2.216,2.216,0,0,1,1.006-1.938,4.776,4.776,0,0,1,2.738-.69,7.754,7.754,0,0,1,3.243.694l-.668,1.556a7.213,7.213,0,0,0-2.646-.65q-1.635,0-1.635.932a.937.937,0,0,0,.426.773,9.374,9.374,0,0,0,1.859.87,8.5,8.5,0,0,1,1.749.853,2.548,2.548,0,0,1,.809.892A2.582,2.582,0,0,1,77.445,18.231Zm8.223,0a2.543,2.543,0,0,1-1.037,2.184,4.966,4.966,0,0,1-2.971.76,7.017,7.017,0,0,1-3.12-.589V18.8a7.66,7.66,0,0,0,3.19.791q1.907,0,1.907-1.151a.912.912,0,0,0-.211-.615,2.5,2.5,0,0,0-.694-.51,11.949,11.949,0,0,0-1.345-.6,6.22,6.22,0,0,1-2.272-1.3,2.407,2.407,0,0,1-.593-1.687,2.216,2.216,0,0,1,1.006-1.938,4.776,4.776,0,0,1,2.738-.69,7.754,7.754,0,0,1,3.243.694l-.668,1.556A7.213,7.213,0,0,0,82.2,12.7q-1.635,0-1.635.932a.937.937,0,0,0,.426.773,9.374,9.374,0,0,0,1.859.87,8.5,8.5,0,0,1,1.749.853,2.548,2.548,0,0,1,.809.892A2.582,2.582,0,0,1,85.667,18.231Zm6.57-5.388H89.865V21H87.79V12.844h-1.6v-.967l1.6-.633v-.633A3.537,3.537,0,0,1,88.6,8.058a3.306,3.306,0,0,1,2.47-.831,6.591,6.591,0,0,1,2.145.36l-.545,1.564a4.761,4.761,0,0,0-1.459-.246,1.187,1.187,0,0,0-1.024.435,2.192,2.192,0,0,0-.321,1.305v.633h2.373ZM100.206,21l-.29-1.274H99.81a2.931,2.931,0,0,1-1.226,1.063,4.1,4.1,0,0,1-1.815.387,3.563,3.563,0,0,1-2.637-.879,3.643,3.643,0,0,1-.87-2.663V11.279h2.083v5.994a2.6,2.6,0,0,0,.457,1.674,1.745,1.745,0,0,0,1.433.558,2.281,2.281,0,0,0,1.912-.778,4.286,4.286,0,0,0,.611-2.606V11.279h2.074V21Zm6.1,0h-2.065V7.324H106.3ZM3.542,42H1.477V32.279H3.542ZM1.354,29.7a1.144,1.144,0,0,1,.3-.853,1.182,1.182,0,0,1,.866-.3,1.156,1.156,0,0,1,.848.3,1.144,1.144,0,0,1,.3.853,1.122,1.122,0,0,1-.3.831,1.147,1.147,0,0,1-.848.3,1.171,1.171,0,0,1-.866-.3A1.122,1.122,0,0,1,1.354,29.7ZM14.507,42H12.433V36.023a2.616,2.616,0,0,0-.453-1.679,1.75,1.75,0,0,0-1.437-.554,2.285,2.285,0,0,0-1.916.773,4.27,4.27,0,0,0-.606,2.593V42H5.955V32.279H7.572l.29,1.274h.105a2.876,2.876,0,0,1,1.248-1.072,4.182,4.182,0,0,1,1.793-.378q3.5,0,3.5,3.56Zm4.549,0-3.691-9.721h2.18l1.978,5.651a11.2,11.2,0,0,1,.615,2.3h.07a15.462,15.462,0,0,1,.615-2.3L22.8,32.279H25L21.288,42Zm11.123.176a4.7,4.7,0,0,1-3.546-1.323,5.021,5.021,0,0,1-1.279-3.643,5.509,5.509,0,0,1,1.187-3.744A4.1,4.1,0,0,1,29.8,32.1a4.006,4.006,0,0,1,3.041,1.169,4.467,4.467,0,0,1,1.116,3.217v1.116H27.481a3.193,3.193,0,0,0,.765,2.175,2.663,2.663,0,0,0,2.03.76,7.5,7.5,0,0,0,1.6-.163,8.408,8.408,0,0,0,1.6-.541v1.679a6.342,6.342,0,0,1-1.529.51A9.378,9.378,0,0,1,30.179,42.176ZM29.8,33.668a2.075,2.075,0,0,0-1.578.624,2.974,2.974,0,0,0-.708,1.819h4.412a2.691,2.691,0,0,0-.58-1.824A1.984,1.984,0,0,0,29.8,33.668ZM42.3,39.231a2.543,2.543,0,0,1-1.037,2.184,4.966,4.966,0,0,1-2.971.76,7.017,7.017,0,0,1-3.12-.589V39.8a7.66,7.66,0,0,0,3.19.791q1.907,0,1.907-1.151a.912.912,0,0,0-.211-.615,2.5,2.5,0,0,0-.694-.51,11.949,11.949,0,0,0-1.345-.6,6.22,6.22,0,0,1-2.272-1.3,2.407,2.407,0,0,1-.593-1.687,2.216,2.216,0,0,1,1.006-1.938,4.776,4.776,0,0,1,2.738-.69,7.754,7.754,0,0,1,3.243.694l-.668,1.556a7.213,7.213,0,0,0-2.646-.65q-1.635,0-1.635.932a.937.937,0,0,0,.426.773,9.374,9.374,0,0,0,1.859.87,8.5,8.5,0,0,1,1.749.853,2.548,2.548,0,0,1,.809.892A2.582,2.582,0,0,1,42.3,39.231Zm5.314,1.274a5.023,5.023,0,0,0,1.512-.237v1.556a4.169,4.169,0,0,1-.883.25,6.086,6.086,0,0,1-1.121.1q-2.936,0-2.936-3.094V33.844H42.854V32.93l1.424-.756.7-2.057h1.274v2.162h2.769v1.564H46.255v5.2a1.46,1.46,0,0,0,.374,1.1A1.362,1.362,0,0,0,47.609,40.506ZM58.714,42H56.64V36.006a2.718,2.718,0,0,0-.422-1.666,1.557,1.557,0,0,0-1.318-.549,2.011,2.011,0,0,0-1.753.778,4.564,4.564,0,0,0-.558,2.588V42H50.523V32.279H52.14l.29,1.274h.105a2.693,2.693,0,0,1,1.173-1.072A3.783,3.783,0,0,1,55.4,32.1a2.956,2.956,0,0,1,2.971,1.529h.141a2.963,2.963,0,0,1,1.213-1.125,3.849,3.849,0,0,1,1.793-.4,3.265,3.265,0,0,1,2.536.879,3.892,3.892,0,0,1,.8,2.681V42H62.783V36.006a2.7,2.7,0,0,0-.426-1.666,1.569,1.569,0,0,0-1.323-.549,2.05,2.05,0,0,0-1.762.751,3.874,3.874,0,0,0-.558,2.307Zm12.723.176a4.7,4.7,0,0,1-3.546-1.323,5.021,5.021,0,0,1-1.279-3.643A5.509,5.509,0,0,1,67.8,33.466,4.1,4.1,0,0,1,71.059,32.1,4.006,4.006,0,0,1,74.1,33.272a4.467,4.467,0,0,1,1.116,3.217v1.116H68.739a3.193,3.193,0,0,0,.765,2.175,2.663,2.663,0,0,0,2.03.76,7.5,7.5,0,0,0,1.6-.163,8.408,8.408,0,0,0,1.6-.541v1.679a6.342,6.342,0,0,1-1.529.51A9.378,9.378,0,0,1,71.437,42.176Zm-.378-8.508a2.075,2.075,0,0,0-1.578.624,2.974,2.974,0,0,0-.708,1.819h4.412a2.691,2.691,0,0,0-.58-1.824A1.984,1.984,0,0,0,71.059,33.668ZM85.575,42H83.5V36.023a2.616,2.616,0,0,0-.453-1.679,1.75,1.75,0,0,0-1.437-.554,2.285,2.285,0,0,0-1.916.773,4.27,4.27,0,0,0-.606,2.593V42H77.023V32.279H78.64l.29,1.274h.105a2.876,2.876,0,0,1,1.248-1.072,4.182,4.182,0,0,1,1.793-.378q3.5,0,3.5,3.56Zm5.955-1.494a5.023,5.023,0,0,0,1.512-.237v1.556a4.169,4.169,0,0,1-.883.25,6.086,6.086,0,0,1-1.121.1q-2.936,0-2.936-3.094V33.844H86.775V32.93l1.424-.756.7-2.057h1.274v2.162h2.769v1.564H90.176v5.2a1.46,1.46,0,0,0,.374,1.1A1.362,1.362,0,0,0,91.53,40.506Z" transform="translate(265 1345)" fill="#6862a7"/>
    <line id="Line_1" data-name="Line 1" x2="153" transform="translate(265.5 1398.5)" fill="none" stroke="#bfbfbf" stroke-width="1"/>
    <path id="Path_8" data-name="Path 8" d="M6.211,0,2.578-9.492H2.52q.1,1.128.1,2.681V0H1.472V-10.708H3.347L6.738-1.875H6.8l3.42-8.833h1.86V0H10.833V-6.9q0-1.187.1-2.578h-.059L7.214,0ZM19.318,0l-.242-1.143h-.059a3.378,3.378,0,0,1-1.2,1.022,3.65,3.65,0,0,1-1.49.267,2.681,2.681,0,0,1-1.871-.615,2.244,2.244,0,0,1-.677-1.75q0-2.432,3.889-2.549l1.362-.044v-.5a2.035,2.035,0,0,0-.406-1.4,1.672,1.672,0,0,0-1.3-.45,5.3,5.3,0,0,0-2.271.615l-.374-.93a5.713,5.713,0,0,1,1.3-.505A5.631,5.631,0,0,1,17.4-8.159a3.058,3.058,0,0,1,2.128.637,2.66,2.66,0,0,1,.692,2.043V0ZM16.571-.857a2.468,2.468,0,0,0,1.783-.623A2.3,2.3,0,0,0,19-3.223v-.725L17.787-3.9a4.422,4.422,0,0,0-2.091.45A1.358,1.358,0,0,0,15.055-2.2a1.253,1.253,0,0,0,.4,1A1.657,1.657,0,0,0,16.571-.857ZM27.767,0V-5.193a2.1,2.1,0,0,0-.447-1.465,1.82,1.82,0,0,0-1.4-.483,2.307,2.307,0,0,0-1.846.681,3.439,3.439,0,0,0-.586,2.249V0H22.274V-8.027h.989l.2,1.1h.059a2.483,2.483,0,0,1,1.047-.919,3.4,3.4,0,0,1,1.5-.326,3.049,3.049,0,0,1,2.183.7,2.977,2.977,0,0,1,.732,2.238V0Zm1.989-8.027h1.3L32.817-3.45a17.412,17.412,0,0,1,.718,2.263h.059q.1-.374.4-1.278t1.989-5.563h1.3l-3.45,9.141a4.56,4.56,0,0,1-1.2,1.923,2.547,2.547,0,0,1-1.681.568,4.891,4.891,0,0,1-1.1-.125V2.5a4.238,4.238,0,0,0,.9.088,1.857,1.857,0,0,0,1.787-1.406L32.993.044ZM47.049-1.077h-.066A2.857,2.857,0,0,1,44.464.146,2.981,2.981,0,0,1,42.014-.93a4.739,4.739,0,0,1-.875-3.062,4.819,4.819,0,0,1,.879-3.083,2.958,2.958,0,0,1,2.446-1.1,2.919,2.919,0,0,1,2.5,1.187h.1l-.051-.579-.029-.564V-11.4H48.2V0H47.21Zm-2.432.205a2.214,2.214,0,0,0,1.805-.677,3.423,3.423,0,0,0,.56-2.186v-.256a4.028,4.028,0,0,0-.568-2.435A2.156,2.156,0,0,0,44.6-7.156a1.861,1.861,0,0,0-1.637.831A4.134,4.134,0,0,0,42.4-3.977a3.963,3.963,0,0,0,.564,2.322A1.91,1.91,0,0,0,44.618-.872ZM51.543,0H50.327V-8.027h1.216ZM50.225-10.2a.808.808,0,0,1,.205-.612.717.717,0,0,1,.513-.194.716.716,0,0,1,.505.2.793.793,0,0,1,.212.608.805.805,0,0,1-.212.612.709.709,0,0,1-.505.2.7.7,0,0,1-.513-.2A.823.823,0,0,1,50.225-10.2Zm12.148,3.12H60.329V0H59.113V-7.083H57.678v-.549l1.436-.439v-.447q0-2.959,2.585-2.959a5.32,5.32,0,0,1,1.494.256l-.315.974a4.022,4.022,0,0,0-1.2-.227,1.17,1.17,0,0,0-1.018.458,2.555,2.555,0,0,0-.33,1.469v.52h2.043Zm-5.083,0H55.246V0H54.03V-7.083H52.595v-.549l1.436-.439v-.447q0-2.959,2.585-2.959a5.32,5.32,0,0,1,1.494.256l-.315.974a4.022,4.022,0,0,0-1.2-.227,1.17,1.17,0,0,0-1.018.458,2.555,2.555,0,0,0-.33,1.469v.52h2.043Zm9.5,7.229A3.688,3.688,0,0,1,63.977-.937a4.2,4.2,0,0,1-1.029-3.01A4.654,4.654,0,0,1,63.9-7.031a3.175,3.175,0,0,1,2.567-1.143,3.027,3.027,0,0,1,2.388.992,3.8,3.8,0,0,1,.879,2.618v.769h-5.53a3.182,3.182,0,0,0,.714,2.146,2.47,2.47,0,0,0,1.908.732,6.466,6.466,0,0,0,2.563-.542V-.374a6.434,6.434,0,0,1-1.219.4A6.853,6.853,0,0,1,66.786.146Zm-.33-7.3a1.985,1.985,0,0,0-1.542.63,2.9,2.9,0,0,0-.677,1.743h4.2a2.673,2.673,0,0,0-.513-1.761A1.8,1.8,0,0,0,66.456-7.156Zm8.566-1.018a4.757,4.757,0,0,1,.959.088l-.168,1.128a4.142,4.142,0,0,0-.879-.11,2.139,2.139,0,0,0-1.666.791,2.884,2.884,0,0,0-.692,1.97V0H71.36V-8.027h1L72.5-6.541h.059a3.529,3.529,0,0,1,1.077-1.208A2.424,2.424,0,0,1,75.022-8.174Zm5.4,8.32A3.688,3.688,0,0,1,77.615-.937a4.2,4.2,0,0,1-1.029-3.01,4.654,4.654,0,0,1,.956-3.083,3.175,3.175,0,0,1,2.567-1.143,3.027,3.027,0,0,1,2.388.992,3.8,3.8,0,0,1,.879,2.618v.769h-5.53a3.182,3.182,0,0,0,.714,2.146,2.47,2.47,0,0,0,1.908.732,6.466,6.466,0,0,0,2.563-.542V-.374a6.434,6.434,0,0,1-1.219.4A6.853,6.853,0,0,1,80.424.146Zm-.33-7.3a1.985,1.985,0,0,0-1.542.63,2.9,2.9,0,0,0-.677,1.743h4.2a2.673,2.673,0,0,0-.513-1.761A1.8,1.8,0,0,0,80.095-7.156ZM90.492,0V-5.193a2.1,2.1,0,0,0-.447-1.465,1.82,1.82,0,0,0-1.4-.483A2.307,2.307,0,0,0,86.8-6.46a3.439,3.439,0,0,0-.586,2.249V0H85V-8.027h.989l.2,1.1h.059a2.483,2.483,0,0,1,1.047-.919,3.4,3.4,0,0,1,1.5-.326,3.049,3.049,0,0,1,2.183.7,2.977,2.977,0,0,1,.732,2.238V0Zm5.856-.857A3.972,3.972,0,0,0,96.971-.9a4.03,4.03,0,0,0,.476-.1v.93a2.223,2.223,0,0,1-.582.157,4.373,4.373,0,0,1-.692.062q-2.329,0-2.329-2.454V-7.083h-1.15v-.586l1.15-.505.513-1.714h.7v1.86h2.329v.945H95.059v4.724A1.625,1.625,0,0,0,95.4-1.245,1.2,1.2,0,0,0,96.348-.857ZM6.226,21l-.242-1.143H5.925a3.378,3.378,0,0,1-1.2,1.022,3.65,3.65,0,0,1-1.49.267,2.681,2.681,0,0,1-1.871-.615,2.244,2.244,0,0,1-.677-1.75q0-2.432,3.889-2.549l1.362-.044v-.5a2.035,2.035,0,0,0-.406-1.4,1.672,1.672,0,0,0-1.3-.45,5.3,5.3,0,0,0-2.271.615l-.374-.93a5.713,5.713,0,0,1,1.3-.505,5.631,5.631,0,0,1,1.417-.183,3.058,3.058,0,0,1,2.128.637,2.66,2.66,0,0,1,.692,2.043V21Zm-2.747-.857a2.468,2.468,0,0,0,1.783-.623,2.3,2.3,0,0,0,.648-1.743v-.725L4.695,17.1a4.422,4.422,0,0,0-2.091.45A1.358,1.358,0,0,0,1.963,18.8a1.253,1.253,0,0,0,.4,1A1.657,1.657,0,0,0,3.479,20.143ZM10.4,21H9.181V9.6H10.4Zm8.7-8.027v.769l-1.487.176a2.611,2.611,0,0,1,.527,1.6A2.373,2.373,0,0,1,17.33,17.4a3.25,3.25,0,0,1-2.212.7,3.683,3.683,0,0,1-.674-.059,1.2,1.2,0,0,0-.776,1.033.525.525,0,0,0,.271.487,1.98,1.98,0,0,0,.93.157H16.29a3.182,3.182,0,0,1,2,.549,1.909,1.909,0,0,1,.7,1.6A2.279,2.279,0,0,1,17.923,23.9a5.723,5.723,0,0,1-3.12.7,4.263,4.263,0,0,1-2.428-.586,1.892,1.892,0,0,1-.853-1.655,1.859,1.859,0,0,1,.469-1.267,2.387,2.387,0,0,1,1.318-.725,1.272,1.272,0,0,1-.516-.432,1.144,1.144,0,0,1-.209-.681,1.293,1.293,0,0,1,.234-.769,2.464,2.464,0,0,1,.74-.637,2.168,2.168,0,0,1-1.014-.872,2.561,2.561,0,0,1-.392-1.406,2.6,2.6,0,0,1,.791-2.032,3.23,3.23,0,0,1,2.241-.714,4.075,4.075,0,0,1,1.135.146Zm-6.4,9.375a1.09,1.09,0,0,0,.549.989,3.032,3.032,0,0,0,1.575.337,4.394,4.394,0,0,0,2.267-.458,1.4,1.4,0,0,0,.736-1.241.982.982,0,0,0-.4-.9,3.129,3.129,0,0,0-1.516-.253H14.444a1.92,1.92,0,0,0-1.289.4A1.413,1.413,0,0,0,12.694,22.348Zm.659-6.8a1.634,1.634,0,0,0,.476,1.274,1.9,1.9,0,0,0,1.326.432,1.551,1.551,0,0,0,1.78-1.729,1.6,1.6,0,0,0-1.8-1.809,1.784,1.784,0,0,0-1.318.461A1.858,1.858,0,0,0,13.353,15.543Zm13.869,1.436a4.428,4.428,0,0,1-.989,3.065,3.482,3.482,0,0,1-2.732,1.1,3.618,3.618,0,0,1-1.912-.505,3.335,3.335,0,0,1-1.289-1.45,5.054,5.054,0,0,1-.454-2.212,4.421,4.421,0,0,1,.981-3.058,3.471,3.471,0,0,1,2.725-1.095,3.4,3.4,0,0,1,2.677,1.121A4.409,4.409,0,0,1,27.222,16.979Zm-6.116,0a3.81,3.81,0,0,0,.615,2.344,2.136,2.136,0,0,0,1.809.806,2.15,2.15,0,0,0,1.813-.8,3.791,3.791,0,0,0,.619-2.347,3.73,3.73,0,0,0-.619-2.325,2.175,2.175,0,0,0-1.827-.795,2.14,2.14,0,0,0-1.8.784A3.772,3.772,0,0,0,21.106,16.979Zm11.459-4.153a4.757,4.757,0,0,1,.959.088l-.168,1.128a4.142,4.142,0,0,0-.879-.11,2.139,2.139,0,0,0-1.666.791,2.884,2.884,0,0,0-.692,1.97V21H28.9V12.973h1l.139,1.487H30.1a3.529,3.529,0,0,1,1.077-1.208A2.424,2.424,0,0,1,32.565,12.826ZM35.792,21H34.576V12.973h1.216ZM34.474,10.8a.808.808,0,0,1,.205-.612.759.759,0,0,1,1.018,0,.793.793,0,0,1,.212.608.805.805,0,0,1-.212.612.744.744,0,0,1-1.018,0A.823.823,0,0,1,34.474,10.8Zm6.039,9.346a3.972,3.972,0,0,0,.623-.048,4.03,4.03,0,0,0,.476-.1v.93a2.223,2.223,0,0,1-.582.157,4.373,4.373,0,0,1-.692.062q-2.329,0-2.329-2.454V13.917h-1.15v-.586l1.15-.505.513-1.714h.7v1.86h2.329v.945H39.224v4.724a1.625,1.625,0,0,0,.344,1.113A1.2,1.2,0,0,0,40.513,20.143ZM48.259,21V15.807a2.1,2.1,0,0,0-.447-1.465,1.82,1.82,0,0,0-1.4-.483,2.292,2.292,0,0,0-1.849.688,3.487,3.487,0,0,0-.582,2.256V21H42.766V9.6h1.216v3.45a7.517,7.517,0,0,1-.059,1.033H44a2.48,2.48,0,0,1,1.022-.912,3.322,3.322,0,0,1,1.512-.333,3.1,3.1,0,0,1,2.208.7,2.946,2.946,0,0,1,.736,2.223V21Zm13.5,0V15.778a2.168,2.168,0,0,0-.41-1.439,1.586,1.586,0,0,0-1.274-.48,2.058,2.058,0,0,0-1.677.652,3.1,3.1,0,0,0-.542,2.007V21H56.634V15.778a2.168,2.168,0,0,0-.41-1.439,1.6,1.6,0,0,0-1.282-.48,1.985,1.985,0,0,0-1.674.685,3.706,3.706,0,0,0-.531,2.245V21H51.522V12.973h.989l.2,1.1h.059a2.39,2.39,0,0,1,.97-.916,2.965,2.965,0,0,1,1.4-.33A2.385,2.385,0,0,1,57.6,14.188h.059a2.56,2.56,0,0,1,1.04-1,3.227,3.227,0,0,1,1.553-.366,2.718,2.718,0,0,1,2.04.7,3.129,3.129,0,0,1,.677,2.238V21ZM70.2,18.81a2.011,2.011,0,0,1-.835,1.729,3.925,3.925,0,0,1-2.344.608,5.1,5.1,0,0,1-2.49-.505V19.513a6.022,6.022,0,0,0,1.241.461,5.184,5.184,0,0,0,1.278.168,2.9,2.9,0,0,0,1.465-.3,1.046,1.046,0,0,0,.106-1.729,6.394,6.394,0,0,0-1.586-.787,8.6,8.6,0,0,1-1.593-.729,2.176,2.176,0,0,1-.7-.707,1.843,1.843,0,0,1-.231-.945,1.8,1.8,0,0,1,.8-1.549,3.72,3.72,0,0,1,2.19-.568,6.408,6.408,0,0,1,2.534.527l-.432.989a5.817,5.817,0,0,0-2.19-.5,2.52,2.52,0,0,0-1.3.271.838.838,0,0,0-.439.747.91.91,0,0,0,.165.549,1.626,1.626,0,0,0,.531.432,11.867,11.867,0,0,0,1.406.593,5.254,5.254,0,0,1,1.93,1.047A1.847,1.847,0,0,1,70.2,18.81ZM80.67,21V15.807a2.1,2.1,0,0,0-.447-1.465,1.82,1.82,0,0,0-1.4-.483,2.292,2.292,0,0,0-1.849.688,3.487,3.487,0,0,0-.582,2.256V21H75.177V9.6h1.216v3.45a7.517,7.517,0,0,1-.059,1.033h.073a2.48,2.48,0,0,1,1.022-.912,3.322,3.322,0,0,1,1.512-.333,3.1,3.1,0,0,1,2.208.7,2.946,2.946,0,0,1,.736,2.223V21Zm8.2,0-.242-1.143H88.57a3.378,3.378,0,0,1-1.2,1.022,3.65,3.65,0,0,1-1.49.267,2.681,2.681,0,0,1-1.871-.615,2.244,2.244,0,0,1-.677-1.75q0-2.432,3.889-2.549l1.362-.044v-.5a2.035,2.035,0,0,0-.406-1.4,1.672,1.672,0,0,0-1.3-.45,5.3,5.3,0,0,0-2.271.615l-.374-.93a5.713,5.713,0,0,1,1.3-.505,5.631,5.631,0,0,1,1.417-.183,3.058,3.058,0,0,1,2.128.637,2.66,2.66,0,0,1,.692,2.043V21Zm-2.747-.857a2.468,2.468,0,0,0,1.783-.623,2.3,2.3,0,0,0,.648-1.743v-.725l-1.216.051a4.422,4.422,0,0,0-2.091.45,1.358,1.358,0,0,0-.641,1.241,1.253,1.253,0,0,0,.4,1A1.657,1.657,0,0,0,86.123,20.143Zm7.46.857-3.047-8.027h1.3l1.729,4.761a22.533,22.533,0,0,1,.688,2.168h.059a16.375,16.375,0,0,1,.509-1.608q.428-1.219,1.923-5.321h1.3L95,21Zm8.7.146a3.688,3.688,0,0,1-2.809-1.084,4.2,4.2,0,0,1-1.029-3.01,4.654,4.654,0,0,1,.956-3.083,3.175,3.175,0,0,1,2.567-1.143,3.027,3.027,0,0,1,2.388.992,3.8,3.8,0,0,1,.879,2.618v.769H99.7a3.182,3.182,0,0,0,.714,2.146,2.47,2.47,0,0,0,1.908.732,6.466,6.466,0,0,0,2.563-.542v1.084a6.434,6.434,0,0,1-1.219.4A6.853,6.853,0,0,1,102.282,21.146Zm-.33-7.3a1.985,1.985,0,0,0-1.542.63,2.9,2.9,0,0,0-.677,1.743h4.2a2.673,2.673,0,0,0-.513-1.761A1.8,1.8,0,0,0,101.952,13.844Zm12.086,7.3a3.474,3.474,0,0,1-1.432-.289,2.693,2.693,0,0,1-1.088-.89h-.088a10.767,10.767,0,0,1,.088,1.333v3.3H110.3V12.973h.989l.168,1.1h.059a2.824,2.824,0,0,1,1.091-.952,3.317,3.317,0,0,1,1.428-.293,2.967,2.967,0,0,1,2.465,1.091,4.8,4.8,0,0,1,.868,3.062,4.776,4.776,0,0,1-.883,3.073A2.972,2.972,0,0,1,114.038,21.146Zm-.176-7.288a2.155,2.155,0,0,0-1.78.681,3.505,3.505,0,0,0-.564,2.168v.271a4.017,4.017,0,0,0,.564,2.421,2.145,2.145,0,0,0,1.809.729,1.881,1.881,0,0,0,1.63-.842,3.994,3.994,0,0,0,.59-2.322,3.844,3.844,0,0,0-.59-2.3A1.939,1.939,0,0,0,113.862,13.859Zm8.844-1.033a4.757,4.757,0,0,1,.959.088l-.168,1.128a4.142,4.142,0,0,0-.879-.11,2.139,2.139,0,0,0-1.666.791,2.884,2.884,0,0,0-.692,1.97V21h-1.216V12.973h1l.139,1.487h.059a3.529,3.529,0,0,1,1.077-1.208A2.424,2.424,0,0,1,122.706,12.826Zm8.94,4.153a4.428,4.428,0,0,1-.989,3.065,3.482,3.482,0,0,1-2.732,1.1,3.618,3.618,0,0,1-1.912-.505,3.335,3.335,0,0,1-1.289-1.45,5.054,5.054,0,0,1-.454-2.212,4.421,4.421,0,0,1,.981-3.058,3.471,3.471,0,0,1,2.725-1.095,3.4,3.4,0,0,1,2.677,1.121A4.409,4.409,0,0,1,131.646,16.979Zm-6.116,0a3.81,3.81,0,0,0,.615,2.344,2.442,2.442,0,0,0,3.622,0,3.791,3.791,0,0,0,.619-2.347,3.73,3.73,0,0,0-.619-2.325,2.175,2.175,0,0,0-1.827-.795,2.14,2.14,0,0,0-1.8.784A3.772,3.772,0,0,0,125.53,16.979ZM135.085,21l-3.047-8.027h1.3l1.729,4.761a22.533,22.533,0,0,1,.688,2.168h.059a16.375,16.375,0,0,1,.509-1.608q.428-1.219,1.923-5.321h1.3L136.506,21Zm8.7.146a3.688,3.688,0,0,1-2.809-1.084,4.2,4.2,0,0,1-1.029-3.01,4.654,4.654,0,0,1,.956-3.083,3.175,3.175,0,0,1,2.567-1.143,3.027,3.027,0,0,1,2.388.992,3.8,3.8,0,0,1,.879,2.618v.769h-5.53a3.182,3.182,0,0,0,.714,2.146,2.47,2.47,0,0,0,1.908.732,6.466,6.466,0,0,0,2.563-.542v1.084a6.434,6.434,0,0,1-1.219.4A6.853,6.853,0,0,1,143.783,21.146Zm-.33-7.3a1.985,1.985,0,0,0-1.542.63,2.9,2.9,0,0,0-.677,1.743h4.2a2.673,2.673,0,0,0-.513-1.761A1.8,1.8,0,0,0,143.454,13.844Zm10.368,6.079h-.066a2.857,2.857,0,0,1-2.52,1.223,2.981,2.981,0,0,1-2.45-1.077,4.739,4.739,0,0,1-.875-3.062,4.819,4.819,0,0,1,.879-3.083,2.958,2.958,0,0,1,2.446-1.1,2.919,2.919,0,0,1,2.5,1.187h.1l-.051-.579-.029-.564V9.6h1.216V21h-.989Zm-2.432.205a2.214,2.214,0,0,0,1.805-.677,3.423,3.423,0,0,0,.56-2.186v-.256a4.028,4.028,0,0,0-.568-2.435,2.156,2.156,0,0,0-1.813-.729,1.861,1.861,0,0,0-1.637.831,4.134,4.134,0,0,0-.568,2.347,3.963,3.963,0,0,0,.564,2.322A1.91,1.91,0,0,0,151.39,20.128ZM3.882,41.143A3.972,3.972,0,0,0,4.5,41.1,4.03,4.03,0,0,0,4.98,41v.93a2.223,2.223,0,0,1-.582.157,4.373,4.373,0,0,1-.692.062q-2.329,0-2.329-2.454V34.917H.227v-.586l1.15-.505.513-1.714h.7v1.86H4.922v.945H2.593v4.724a1.625,1.625,0,0,0,.344,1.113A1.2,1.2,0,0,0,3.882,41.143ZM11.628,42V36.807a2.1,2.1,0,0,0-.447-1.465,1.82,1.82,0,0,0-1.4-.483,2.292,2.292,0,0,0-1.849.688A3.487,3.487,0,0,0,7.35,37.8V42H6.134V30.6H7.35v3.45a7.517,7.517,0,0,1-.059,1.033h.073a2.48,2.48,0,0,1,1.022-.912A3.322,3.322,0,0,1,9.9,33.841a3.1,3.1,0,0,1,2.208.7,2.946,2.946,0,0,1,.736,2.223V42Zm8.2,0-.242-1.143h-.059a3.378,3.378,0,0,1-1.2,1.022,3.65,3.65,0,0,1-1.49.267,2.681,2.681,0,0,1-1.871-.615,2.244,2.244,0,0,1-.677-1.75q0-2.432,3.889-2.549l1.362-.044v-.5a2.035,2.035,0,0,0-.406-1.4,1.672,1.672,0,0,0-1.3-.45,5.3,5.3,0,0,0-2.271.615l-.374-.93a5.713,5.713,0,0,1,1.3-.505,5.631,5.631,0,0,1,1.417-.183,3.058,3.058,0,0,1,2.128.637,2.66,2.66,0,0,1,.692,2.043V42Zm-2.747-.857a2.468,2.468,0,0,0,1.783-.623,2.3,2.3,0,0,0,.648-1.743v-.725L18.3,38.1a4.422,4.422,0,0,0-2.091.45,1.358,1.358,0,0,0-.641,1.241,1.253,1.253,0,0,0,.4,1A1.657,1.657,0,0,0,17.081,41.143Zm8.3,0A3.972,3.972,0,0,0,26,41.1a4.03,4.03,0,0,0,.476-.1v.93a2.223,2.223,0,0,1-.582.157,4.373,4.373,0,0,1-.692.062q-2.329,0-2.329-2.454V34.917h-1.15v-.586l1.15-.505.513-1.714h.7v1.86h2.329v.945H24.087v4.724a1.625,1.625,0,0,0,.344,1.113A1.2,1.2,0,0,0,25.376,41.143Zm8.292,0a3.972,3.972,0,0,0,.623-.048,4.03,4.03,0,0,0,.476-.1v.93a2.223,2.223,0,0,1-.582.157,4.373,4.373,0,0,1-.692.062q-2.329,0-2.329-2.454V34.917h-1.15v-.586l1.15-.505.513-1.714h.7v1.86h2.329v.945H32.379v4.724a1.625,1.625,0,0,0,.344,1.113A1.2,1.2,0,0,0,33.668,41.143ZM41.414,42V36.807a2.1,2.1,0,0,0-.447-1.465,1.82,1.82,0,0,0-1.4-.483,2.292,2.292,0,0,0-1.849.688,3.487,3.487,0,0,0-.582,2.256V42H35.921V30.6h1.216v3.45a7.517,7.517,0,0,1-.059,1.033h.073a2.48,2.48,0,0,1,1.022-.912,3.322,3.322,0,0,1,1.512-.333,3.1,3.1,0,0,1,2.208.7,2.946,2.946,0,0,1,.736,2.223V42Zm6.654.146a3.688,3.688,0,0,1-2.809-1.084,4.2,4.2,0,0,1-1.029-3.01,4.654,4.654,0,0,1,.956-3.083,3.175,3.175,0,0,1,2.567-1.143,3.027,3.027,0,0,1,2.388.992,3.8,3.8,0,0,1,.879,2.618v.769H45.49a3.182,3.182,0,0,0,.714,2.146,2.47,2.47,0,0,0,1.908.732,6.466,6.466,0,0,0,2.563-.542v1.084a6.434,6.434,0,0,1-1.219.4A6.853,6.853,0,0,1,48.068,42.146Zm-.33-7.3a1.985,1.985,0,0,0-1.542.63,2.9,2.9,0,0,0-.677,1.743h4.2a2.673,2.673,0,0,0-.513-1.761A1.8,1.8,0,0,0,47.739,34.844Zm11.558,7.3a3.426,3.426,0,0,1-2.7-1.073,4.412,4.412,0,0,1-.956-3.036,4.55,4.55,0,0,1,.97-3.113,3.494,3.494,0,0,1,2.765-1.1,5.487,5.487,0,0,1,1.157.125,3.812,3.812,0,0,1,.908.293l-.374,1.033a5.717,5.717,0,0,0-.879-.267,3.924,3.924,0,0,0-.842-.106q-2.446,0-2.446,3.12a3.715,3.715,0,0,0,.6,2.271,2.077,2.077,0,0,0,1.769.791,5.408,5.408,0,0,0,2.058-.432v1.077A4.386,4.386,0,0,1,59.3,42.146ZM68.273,42V36.807a2.1,2.1,0,0,0-.447-1.465,1.82,1.82,0,0,0-1.4-.483,2.292,2.292,0,0,0-1.849.688A3.487,3.487,0,0,0,64,37.8V42H62.78V30.6H64v3.45a7.517,7.517,0,0,1-.059,1.033h.073a2.48,2.48,0,0,1,1.022-.912,3.322,3.322,0,0,1,1.512-.333,3.1,3.1,0,0,1,2.208.7,2.946,2.946,0,0,1,.736,2.223V42Zm8.2,0-.242-1.143h-.059a3.378,3.378,0,0,1-1.2,1.022,3.65,3.65,0,0,1-1.49.267,2.681,2.681,0,0,1-1.871-.615,2.244,2.244,0,0,1-.677-1.75q0-2.432,3.889-2.549l1.362-.044v-.5a2.035,2.035,0,0,0-.406-1.4,1.672,1.672,0,0,0-1.3-.45,5.3,5.3,0,0,0-2.271.615l-.374-.93a5.713,5.713,0,0,1,1.3-.505,5.631,5.631,0,0,1,1.417-.183,3.058,3.058,0,0,1,2.128.637,2.66,2.66,0,0,1,.692,2.043V42Zm-2.747-.857a2.468,2.468,0,0,0,1.783-.623,2.3,2.3,0,0,0,.648-1.743v-.725l-1.216.051a4.422,4.422,0,0,0-2.091.45,1.358,1.358,0,0,0-.641,1.241,1.253,1.253,0,0,0,.4,1A1.657,1.657,0,0,0,73.727,41.143Zm11.2.857V36.807a2.1,2.1,0,0,0-.447-1.465,1.82,1.82,0,0,0-1.4-.483,2.307,2.307,0,0,0-1.846.681,3.439,3.439,0,0,0-.586,2.249V42H79.429V33.973h.989l.2,1.1h.059a2.483,2.483,0,0,1,1.047-.919,3.4,3.4,0,0,1,1.5-.326,3.049,3.049,0,0,1,2.183.7,2.977,2.977,0,0,1,.732,2.238V42Zm6.471.146a3.426,3.426,0,0,1-2.7-1.073,4.412,4.412,0,0,1-.956-3.036,4.55,4.55,0,0,1,.97-3.113,3.494,3.494,0,0,1,2.765-1.1,5.487,5.487,0,0,1,1.157.125,3.812,3.812,0,0,1,.908.293l-.374,1.033a5.717,5.717,0,0,0-.879-.267,3.924,3.924,0,0,0-.842-.106Q89,34.9,89,38.023a3.715,3.715,0,0,0,.6,2.271,2.077,2.077,0,0,0,1.769.791,5.408,5.408,0,0,0,2.058-.432v1.077A4.386,4.386,0,0,1,91.394,42.146Zm6.874,0a3.688,3.688,0,0,1-2.809-1.084,4.2,4.2,0,0,1-1.029-3.01,4.654,4.654,0,0,1,.956-3.083,3.175,3.175,0,0,1,2.567-1.143,3.027,3.027,0,0,1,2.388.992,3.8,3.8,0,0,1,.879,2.618v.769H95.69a3.182,3.182,0,0,0,.714,2.146,2.47,2.47,0,0,0,1.908.732,6.466,6.466,0,0,0,2.563-.542v1.084a6.434,6.434,0,0,1-1.219.4A6.853,6.853,0,0,1,98.268,42.146Zm-.33-7.3a1.985,1.985,0,0,0-1.542.63,2.9,2.9,0,0,0-.677,1.743h4.2a2.673,2.673,0,0,0-.513-1.761A1.8,1.8,0,0,0,97.938,34.844Zm10.082,4.966a2.011,2.011,0,0,1-.835,1.729,3.925,3.925,0,0,1-2.344.608,5.1,5.1,0,0,1-2.49-.505V40.513a6.022,6.022,0,0,0,1.241.461,5.184,5.184,0,0,0,1.278.168,2.9,2.9,0,0,0,1.465-.3,1.046,1.046,0,0,0,.106-1.729,6.394,6.394,0,0,0-1.586-.787,8.6,8.6,0,0,1-1.593-.729,2.176,2.176,0,0,1-.7-.707,1.843,1.843,0,0,1-.231-.945,1.8,1.8,0,0,1,.8-1.549,3.72,3.72,0,0,1,2.19-.568,6.408,6.408,0,0,1,2.534.527l-.432.989a5.817,5.817,0,0,0-2.19-.5,2.52,2.52,0,0,0-1.3.271.838.838,0,0,0-.439.747.91.91,0,0,0,.165.549,1.626,1.626,0,0,0,.531.432,11.867,11.867,0,0,0,1.406.593,5.254,5.254,0,0,1,1.93,1.047A1.847,1.847,0,0,1,108.021,39.81Zm11.9-1.831a4.428,4.428,0,0,1-.989,3.065,3.482,3.482,0,0,1-2.732,1.1,3.618,3.618,0,0,1-1.912-.505A3.335,3.335,0,0,1,113,40.191a5.054,5.054,0,0,1-.454-2.212,4.421,4.421,0,0,1,.981-3.058,3.471,3.471,0,0,1,2.725-1.095,3.4,3.4,0,0,1,2.677,1.121A4.409,4.409,0,0,1,119.923,37.979Zm-6.116,0a3.81,3.81,0,0,0,.615,2.344,2.442,2.442,0,0,0,3.622,0,3.791,3.791,0,0,0,.619-2.347,3.73,3.73,0,0,0-.619-2.325,2.175,2.175,0,0,0-1.827-.795,2.14,2.14,0,0,0-1.8.784A3.772,3.772,0,0,0,113.808,37.979Zm11.415-3.062h-2.043V42h-1.216V34.917h-1.436v-.549l1.436-.439v-.447q0-2.959,2.585-2.959a5.32,5.32,0,0,1,1.494.256l-.315.974a4.022,4.022,0,0,0-1.2-.227,1.17,1.17,0,0,0-1.018.458,2.555,2.555,0,0,0-.33,1.469v.52h2.043Zm3.187-.945h1.3l1.758,4.578a17.412,17.412,0,0,1,.718,2.263h.059q.1-.374.4-1.278t1.989-5.563h1.3l-3.45,9.141a4.56,4.56,0,0,1-1.2,1.923,2.547,2.547,0,0,1-1.681.568,4.891,4.891,0,0,1-1.1-.125V44.5a4.238,4.238,0,0,0,.9.088,1.857,1.857,0,0,0,1.787-1.406l.447-1.143Zm15.312,4.006a4.428,4.428,0,0,1-.989,3.065,3.482,3.482,0,0,1-2.732,1.1,3.618,3.618,0,0,1-1.912-.505,3.335,3.335,0,0,1-1.289-1.45,5.054,5.054,0,0,1-.454-2.212,4.421,4.421,0,0,1,.981-3.058,3.471,3.471,0,0,1,2.725-1.095,3.4,3.4,0,0,1,2.677,1.121A4.409,4.409,0,0,1,143.721,37.979Zm-6.116,0a3.81,3.81,0,0,0,.615,2.344,2.442,2.442,0,0,0,3.622,0,3.791,3.791,0,0,0,.619-2.347,3.73,3.73,0,0,0-.619-2.325,2.175,2.175,0,0,0-1.827-.795,2.14,2.14,0,0,0-1.8.784A3.772,3.772,0,0,0,137.606,37.979Zm8.94-4.006V39.18a2.1,2.1,0,0,0,.447,1.465,1.82,1.82,0,0,0,1.4.483,2.282,2.282,0,0,0,1.842-.688,3.473,3.473,0,0,0,.582-2.249V33.973h1.216V42h-1l-.176-1.077h-.066a2.423,2.423,0,0,1-1.036.908,3.483,3.483,0,0,1-1.512.315,3.069,3.069,0,0,1-2.194-.7,2.962,2.962,0,0,1-.729-2.227V33.973ZM2.5,63H1.289V51.6H2.5ZM9.57,63l-.242-1.143H9.269a3.378,3.378,0,0,1-1.2,1.022,3.65,3.65,0,0,1-1.49.267,2.681,2.681,0,0,1-1.871-.615,2.244,2.244,0,0,1-.677-1.75q0-2.432,3.889-2.549l1.362-.044v-.5a2.035,2.035,0,0,0-.406-1.4,1.672,1.672,0,0,0-1.3-.45,5.3,5.3,0,0,0-2.271.615l-.374-.93a5.713,5.713,0,0,1,1.3-.505,5.631,5.631,0,0,1,1.417-.183,3.058,3.058,0,0,1,2.128.637,2.66,2.66,0,0,1,.692,2.043V63Zm-2.747-.857a2.468,2.468,0,0,0,1.783-.623,2.3,2.3,0,0,0,.648-1.743v-.725L8.039,59.1a4.422,4.422,0,0,0-2.091.45A1.358,1.358,0,0,0,5.307,60.8a1.253,1.253,0,0,0,.4,1A1.657,1.657,0,0,0,6.823,62.143Zm11.2.857V57.807a2.1,2.1,0,0,0-.447-1.465,1.82,1.82,0,0,0-1.4-.483,2.307,2.307,0,0,0-1.846.681,3.439,3.439,0,0,0-.586,2.249V63H12.525V54.973h.989l.2,1.1h.059a2.483,2.483,0,0,1,1.047-.919,3.4,3.4,0,0,1,1.5-.326,3.049,3.049,0,0,1,2.183.7,2.977,2.977,0,0,1,.732,2.238V63Zm8.727-1.077H26.68a2.857,2.857,0,0,1-2.52,1.223,2.981,2.981,0,0,1-2.45-1.077,4.739,4.739,0,0,1-.875-3.062,4.819,4.819,0,0,1,.879-3.083,2.958,2.958,0,0,1,2.446-1.1,2.919,2.919,0,0,1,2.5,1.187h.1l-.051-.579-.029-.564V51.6H27.9V63h-.989Zm-2.432.205a2.214,2.214,0,0,0,1.805-.677,3.423,3.423,0,0,0,.56-2.186v-.256a4.028,4.028,0,0,0-.568-2.435,2.156,2.156,0,0,0-1.813-.729,1.861,1.861,0,0,0-1.637.831,4.134,4.134,0,0,0-.568,2.347,3.963,3.963,0,0,0,.564,2.322A1.91,1.91,0,0,0,24.314,62.128ZM31.24,63H30.024V54.973H31.24ZM29.921,52.8a.808.808,0,0,1,.205-.612.759.759,0,0,1,1.018,0,.793.793,0,0,1,.212.608.805.805,0,0,1-.212.612.744.744,0,0,1-1.018,0A.823.823,0,0,1,29.921,52.8ZM38.861,63V57.807a2.1,2.1,0,0,0-.447-1.465,1.82,1.82,0,0,0-1.4-.483,2.307,2.307,0,0,0-1.846.681,3.439,3.439,0,0,0-.586,2.249V63H33.368V54.973h.989l.2,1.1h.059a2.483,2.483,0,0,1,1.047-.919,3.4,3.4,0,0,1,1.5-.326,3.049,3.049,0,0,1,2.183.7,2.977,2.977,0,0,1,.732,2.238V63Zm9.833-8.027v.769l-1.487.176a2.611,2.611,0,0,1,.527,1.6,2.373,2.373,0,0,1-.806,1.882,3.25,3.25,0,0,1-2.212.7,3.683,3.683,0,0,1-.674-.059,1.2,1.2,0,0,0-.776,1.033.525.525,0,0,0,.271.487,1.98,1.98,0,0,0,.93.157h1.421a3.182,3.182,0,0,1,2,.549,1.909,1.909,0,0,1,.7,1.6A2.279,2.279,0,0,1,47.522,65.9a5.723,5.723,0,0,1-3.12.7,4.263,4.263,0,0,1-2.428-.586,1.892,1.892,0,0,1-.853-1.655A1.859,1.859,0,0,1,41.59,63.1a2.387,2.387,0,0,1,1.318-.725,1.272,1.272,0,0,1-.516-.432,1.144,1.144,0,0,1-.209-.681,1.293,1.293,0,0,1,.234-.769,2.464,2.464,0,0,1,.74-.637,2.168,2.168,0,0,1-1.014-.872,2.561,2.561,0,0,1-.392-1.406,2.6,2.6,0,0,1,.791-2.032,3.23,3.23,0,0,1,2.241-.714,4.075,4.075,0,0,1,1.135.146Zm-6.4,9.375a1.09,1.09,0,0,0,.549.989,3.032,3.032,0,0,0,1.575.337,4.394,4.394,0,0,0,2.267-.458,1.4,1.4,0,0,0,.736-1.241.982.982,0,0,0-.4-.9,3.129,3.129,0,0,0-1.516-.253H44.043a1.92,1.92,0,0,0-1.289.4A1.413,1.413,0,0,0,42.293,64.348Zm.659-6.8a1.634,1.634,0,0,0,.476,1.274,1.9,1.9,0,0,0,1.326.432,1.551,1.551,0,0,0,1.78-1.729,1.6,1.6,0,0,0-1.8-1.809,1.784,1.784,0,0,0-1.318.461A1.858,1.858,0,0,0,42.952,57.543Zm12.979,4.6a3.972,3.972,0,0,0,.623-.048,4.03,4.03,0,0,0,.476-.1v.93a2.223,2.223,0,0,1-.582.157,4.373,4.373,0,0,1-.692.062q-2.329,0-2.329-2.454V55.917h-1.15v-.586l1.15-.505.513-1.714h.7v1.86h2.329v.945H54.642v4.724a1.625,1.625,0,0,0,.344,1.113A1.2,1.2,0,0,0,55.931,62.143Zm9.181-3.164a4.428,4.428,0,0,1-.989,3.065,3.482,3.482,0,0,1-2.732,1.1,3.618,3.618,0,0,1-1.912-.505,3.335,3.335,0,0,1-1.289-1.45,5.054,5.054,0,0,1-.454-2.212,4.421,4.421,0,0,1,.981-3.058,3.471,3.471,0,0,1,2.725-1.095,3.4,3.4,0,0,1,2.677,1.121A4.409,4.409,0,0,1,65.113,58.979Zm-6.116,0a3.81,3.81,0,0,0,.615,2.344,2.442,2.442,0,0,0,3.622,0,3.791,3.791,0,0,0,.619-2.347,3.73,3.73,0,0,0-.619-2.325,2.175,2.175,0,0,0-1.827-.795,2.14,2.14,0,0,0-1.8.784A3.772,3.772,0,0,0,59,58.979Zm9.969-4.006h1.3l1.758,4.578a17.412,17.412,0,0,1,.718,2.263H72.8q.1-.374.4-1.278t1.989-5.563h1.3l-3.45,9.141a4.56,4.56,0,0,1-1.2,1.923,2.547,2.547,0,0,1-1.681.568,4.891,4.891,0,0,1-1.1-.125V65.5a4.238,4.238,0,0,0,.9.088,1.857,1.857,0,0,0,1.787-1.406l.447-1.143Zm15.312,4.006a4.428,4.428,0,0,1-.989,3.065,3.482,3.482,0,0,1-2.732,1.1,3.618,3.618,0,0,1-1.912-.505,3.335,3.335,0,0,1-1.289-1.45,5.054,5.054,0,0,1-.454-2.212,4.421,4.421,0,0,1,.981-3.058,3.471,3.471,0,0,1,2.725-1.095,3.4,3.4,0,0,1,2.677,1.121A4.409,4.409,0,0,1,84.278,58.979Zm-6.116,0a3.81,3.81,0,0,0,.615,2.344,2.442,2.442,0,0,0,3.622,0,3.791,3.791,0,0,0,.619-2.347,3.73,3.73,0,0,0-.619-2.325,2.175,2.175,0,0,0-1.827-.795,2.14,2.14,0,0,0-1.8.784A3.772,3.772,0,0,0,78.162,58.979Zm8.94-4.006V60.18a2.1,2.1,0,0,0,.447,1.465,1.82,1.82,0,0,0,1.4.483,2.282,2.282,0,0,0,1.842-.688,3.473,3.473,0,0,0,.582-2.249V54.973h1.216V63h-1l-.176-1.077h-.066a2.423,2.423,0,0,1-1.036.908,3.483,3.483,0,0,1-1.512.315,3.069,3.069,0,0,1-2.194-.7,2.962,2.962,0,0,1-.729-2.227V54.973Zm11.276-.146a4.757,4.757,0,0,1,.959.088l-.168,1.128a4.142,4.142,0,0,0-.879-.11,2.139,2.139,0,0,0-1.666.791,2.884,2.884,0,0,0-.692,1.97V63H94.716V54.973h1l.139,1.487h.059a3.529,3.529,0,0,1,1.077-1.208A2.424,2.424,0,0,1,98.378,54.826Zm10.921,7.1h-.066a2.857,2.857,0,0,1-2.52,1.223,2.981,2.981,0,0,1-2.45-1.077,4.739,4.739,0,0,1-.875-3.062,4.819,4.819,0,0,1,.879-3.083,2.958,2.958,0,0,1,2.446-1.1,2.919,2.919,0,0,1,2.5,1.187h.1l-.051-.579-.029-.564V51.6h1.216V63h-.989Zm-2.432.205a2.214,2.214,0,0,0,1.805-.677,3.423,3.423,0,0,0,.56-2.186v-.256a4.028,4.028,0,0,0-.568-2.435,2.156,2.156,0,0,0-1.813-.729,1.861,1.861,0,0,0-1.637.831,4.134,4.134,0,0,0-.568,2.347,3.963,3.963,0,0,0,.564,2.322A1.91,1.91,0,0,0,106.867,62.128Zm9.1,1.018a3.688,3.688,0,0,1-2.809-1.084,4.2,4.2,0,0,1-1.029-3.01,4.654,4.654,0,0,1,.956-3.083,3.175,3.175,0,0,1,2.567-1.143,3.027,3.027,0,0,1,2.388.992,3.8,3.8,0,0,1,.879,2.618v.769h-5.53a3.182,3.182,0,0,0,.714,2.146,2.47,2.47,0,0,0,1.908.732,6.466,6.466,0,0,0,2.563-.542v1.084a6.434,6.434,0,0,1-1.219.4A6.853,6.853,0,0,1,115.968,63.146Zm-.33-7.3a1.985,1.985,0,0,0-1.542.63,2.9,2.9,0,0,0-.677,1.743h4.2a2.673,2.673,0,0,0-.513-1.761A1.8,1.8,0,0,0,115.639,55.844Zm10.082,4.966a2.011,2.011,0,0,1-.835,1.729,3.925,3.925,0,0,1-2.344.608,5.1,5.1,0,0,1-2.49-.505V61.513a6.022,6.022,0,0,0,1.241.461,5.184,5.184,0,0,0,1.278.168,2.9,2.9,0,0,0,1.465-.3,1.046,1.046,0,0,0,.106-1.729,6.394,6.394,0,0,0-1.586-.787,8.6,8.6,0,0,1-1.593-.729,2.176,2.176,0,0,1-.7-.707,1.843,1.843,0,0,1-.231-.945,1.8,1.8,0,0,1,.8-1.549,3.72,3.72,0,0,1,2.19-.568,6.408,6.408,0,0,1,2.534.527l-.432.989a5.817,5.817,0,0,0-2.19-.5,2.52,2.52,0,0,0-1.3.271.838.838,0,0,0-.439.747.91.91,0,0,0,.165.549,1.626,1.626,0,0,0,.531.432,11.867,11.867,0,0,0,1.406.593,5.254,5.254,0,0,1,1.93,1.047A1.847,1.847,0,0,1,125.721,60.81ZM128.464,63h-1.216V54.973h1.216Zm-1.318-10.2a.808.808,0,0,1,.205-.612.759.759,0,0,1,1.018,0,.793.793,0,0,1,.212.608.805.805,0,0,1-.212.612.744.744,0,0,1-1.018,0A.823.823,0,0,1,127.146,52.8Zm7.109,2.029a4.757,4.757,0,0,1,.959.088l-.168,1.128a4.142,4.142,0,0,0-.879-.11,2.139,2.139,0,0,0-1.666.791,2.884,2.884,0,0,0-.692,1.97V63h-1.216V54.973h1l.139,1.487h.059a3.529,3.529,0,0,1,1.077-1.208A2.424,2.424,0,0,1,134.254,54.826Zm5.4,8.32a3.688,3.688,0,0,1-2.809-1.084,4.2,4.2,0,0,1-1.029-3.01,4.654,4.654,0,0,1,.956-3.083,3.175,3.175,0,0,1,2.567-1.143,3.027,3.027,0,0,1,2.388.992,3.8,3.8,0,0,1,.879,2.618v.769h-5.53a3.182,3.182,0,0,0,.714,2.146,2.47,2.47,0,0,0,1.908.732,6.466,6.466,0,0,0,2.563-.542v1.084a6.434,6.434,0,0,1-1.219.4A6.853,6.853,0,0,1,139.656,63.146Zm-.33-7.3a1.985,1.985,0,0,0-1.542.63,2.9,2.9,0,0,0-.677,1.743h4.2a2.673,2.673,0,0,0-.513-1.761A1.8,1.8,0,0,0,139.327,55.844Zm10.368,6.079h-.066a2.857,2.857,0,0,1-2.52,1.223,2.981,2.981,0,0,1-2.45-1.077,4.739,4.739,0,0,1-.875-3.062,4.819,4.819,0,0,1,.879-3.083,2.958,2.958,0,0,1,2.446-1.1,2.919,2.919,0,0,1,2.5,1.187h.1l-.051-.579-.029-.564V51.6h1.216V63h-.989Zm-2.432.205a2.214,2.214,0,0,0,1.805-.677,3.423,3.423,0,0,0,.56-2.186v-.256a4.028,4.028,0,0,0-.568-2.435,2.156,2.156,0,0,0-1.813-.729,1.861,1.861,0,0,0-1.637.831,4.134,4.134,0,0,0-.568,2.347,3.963,3.963,0,0,0,.564,2.322A1.91,1.91,0,0,0,147.263,62.128ZM4.951,75.826a4.757,4.757,0,0,1,.959.088l-.168,1.128a4.142,4.142,0,0,0-.879-.11,2.139,2.139,0,0,0-1.666.791,2.884,2.884,0,0,0-.692,1.97V84H1.289V75.973h1l.139,1.487H2.49a3.529,3.529,0,0,1,1.077-1.208A2.424,2.424,0,0,1,4.951,75.826Zm5.4,8.32a3.688,3.688,0,0,1-2.809-1.084,4.2,4.2,0,0,1-1.029-3.01,4.654,4.654,0,0,1,.956-3.083,3.175,3.175,0,0,1,2.567-1.143,3.027,3.027,0,0,1,2.388.992,3.8,3.8,0,0,1,.879,2.618v.769H7.775a3.182,3.182,0,0,0,.714,2.146,2.47,2.47,0,0,0,1.908.732,6.466,6.466,0,0,0,2.563-.542v1.084a6.434,6.434,0,0,1-1.219.4A6.853,6.853,0,0,1,10.353,84.146Zm-.33-7.3a1.985,1.985,0,0,0-1.542.63A2.9,2.9,0,0,0,7.8,79.217H12a2.673,2.673,0,0,0-.513-1.761A1.8,1.8,0,0,0,10.024,76.844ZM20.106,81.81a2.011,2.011,0,0,1-.835,1.729,3.925,3.925,0,0,1-2.344.608,5.1,5.1,0,0,1-2.49-.505V82.513a6.022,6.022,0,0,0,1.241.461,5.184,5.184,0,0,0,1.278.168,2.9,2.9,0,0,0,1.465-.3,1.046,1.046,0,0,0,.106-1.729,6.394,6.394,0,0,0-1.586-.787,8.6,8.6,0,0,1-1.593-.729,2.176,2.176,0,0,1-.7-.707,1.843,1.843,0,0,1-.231-.945,1.8,1.8,0,0,1,.8-1.549,3.72,3.72,0,0,1,2.19-.568,6.408,6.408,0,0,1,2.534.527l-.432.989a5.817,5.817,0,0,0-2.19-.5,2.52,2.52,0,0,0-1.3.271.838.838,0,0,0-.439.747.91.91,0,0,0,.165.549,1.626,1.626,0,0,0,.531.432,11.867,11.867,0,0,0,1.406.593,5.254,5.254,0,0,1,1.93,1.047A1.847,1.847,0,0,1,20.106,81.81Zm2.67-5.837V81.18a2.1,2.1,0,0,0,.447,1.465,1.82,1.82,0,0,0,1.4.483,2.282,2.282,0,0,0,1.842-.688,3.473,3.473,0,0,0,.582-2.249V75.973h1.216V84h-1l-.176-1.077h-.066a2.423,2.423,0,0,1-1.036.908,3.483,3.483,0,0,1-1.512.315,3.069,3.069,0,0,1-2.194-.7,2.962,2.962,0,0,1-.729-2.227V75.973ZM31.606,84H30.39V72.6h1.216Zm4.721-.857a3.972,3.972,0,0,0,.623-.048,4.03,4.03,0,0,0,.476-.1v.93a2.223,2.223,0,0,1-.582.157,4.373,4.373,0,0,1-.692.062q-2.329,0-2.329-2.454V76.917h-1.15v-.586l1.15-.505.513-1.714h.7v1.86h2.329v.945H35.038v4.724a1.625,1.625,0,0,0,.344,1.113A1.2,1.2,0,0,0,36.327,83.143Zm11.163-.22h-.066a2.857,2.857,0,0,1-2.52,1.223,2.981,2.981,0,0,1-2.45-1.077,4.739,4.739,0,0,1-.875-3.062,4.819,4.819,0,0,1,.879-3.083,2.958,2.958,0,0,1,2.446-1.1,2.919,2.919,0,0,1,2.5,1.187h.1l-.051-.579-.029-.564V72.6H48.64V84h-.989Zm-2.432.205a2.214,2.214,0,0,0,1.805-.677,3.423,3.423,0,0,0,.56-2.186v-.256a4.028,4.028,0,0,0-.568-2.435,2.156,2.156,0,0,0-1.813-.729,1.861,1.861,0,0,0-1.637.831,4.134,4.134,0,0,0-.568,2.347,3.963,3.963,0,0,0,.564,2.322A1.91,1.91,0,0,0,45.058,83.128Zm9.372-7.3a4.757,4.757,0,0,1,.959.088l-.168,1.128a4.142,4.142,0,0,0-.879-.11,2.139,2.139,0,0,0-1.666.791,2.884,2.884,0,0,0-.692,1.97V84H50.768V75.973h1l.139,1.487h.059a3.529,3.529,0,0,1,1.077-1.208A2.424,2.424,0,0,1,54.43,75.826ZM61.377,84l-.242-1.143h-.059a3.378,3.378,0,0,1-1.2,1.022,3.65,3.65,0,0,1-1.49.267,2.681,2.681,0,0,1-1.871-.615,2.244,2.244,0,0,1-.677-1.75q0-2.432,3.889-2.549l1.362-.044v-.5a2.035,2.035,0,0,0-.406-1.4,1.672,1.672,0,0,0-1.3-.45,5.3,5.3,0,0,0-2.271.615l-.374-.93a5.713,5.713,0,0,1,1.3-.505,5.631,5.631,0,0,1,1.417-.183,3.058,3.058,0,0,1,2.128.637,2.66,2.66,0,0,1,.692,2.043V84Zm-2.747-.857a2.468,2.468,0,0,0,1.783-.623,2.3,2.3,0,0,0,.648-1.743v-.725l-1.216.051a4.422,4.422,0,0,0-2.091.45,1.358,1.358,0,0,0-.641,1.241,1.253,1.253,0,0,0,.4,1A1.657,1.657,0,0,0,58.631,83.143ZM74.565,84V78.778a2.168,2.168,0,0,0-.41-1.439,1.586,1.586,0,0,0-1.274-.48,2.058,2.058,0,0,0-1.677.652,3.1,3.1,0,0,0-.542,2.007V84H69.445V78.778a2.168,2.168,0,0,0-.41-1.439,1.6,1.6,0,0,0-1.282-.48,1.985,1.985,0,0,0-1.674.685,3.706,3.706,0,0,0-.531,2.245V84H64.333V75.973h.989l.2,1.1h.059a2.389,2.389,0,0,1,.97-.916,2.965,2.965,0,0,1,1.4-.33,2.385,2.385,0,0,1,2.461,1.362h.059a2.56,2.56,0,0,1,1.04-1,3.227,3.227,0,0,1,1.553-.366,2.718,2.718,0,0,1,2.04.7,3.129,3.129,0,0,1,.677,2.238V84Zm8.207,0-.242-1.143h-.059a3.378,3.378,0,0,1-1.2,1.022,3.65,3.65,0,0,1-1.49.267,2.681,2.681,0,0,1-1.871-.615,2.244,2.244,0,0,1-.677-1.75q0-2.432,3.889-2.549l1.362-.044v-.5a2.035,2.035,0,0,0-.406-1.4,1.672,1.672,0,0,0-1.3-.45,5.3,5.3,0,0,0-2.271.615l-.374-.93a5.713,5.713,0,0,1,1.3-.505,5.631,5.631,0,0,1,1.417-.183,3.058,3.058,0,0,1,2.128.637,2.66,2.66,0,0,1,.692,2.043V84Zm-2.747-.857a2.468,2.468,0,0,0,1.783-.623,2.3,2.3,0,0,0,.648-1.743v-.725l-1.216.051a4.422,4.422,0,0,0-2.091.45,1.358,1.358,0,0,0-.641,1.241,1.253,1.253,0,0,0,.4,1A1.657,1.657,0,0,0,80.026,83.143Zm8.3,0a3.972,3.972,0,0,0,.623-.048,4.03,4.03,0,0,0,.476-.1v.93a2.223,2.223,0,0,1-.582.157,4.373,4.373,0,0,1-.692.062q-2.329,0-2.329-2.454V76.917h-1.15v-.586l1.15-.505.513-1.714h.7v1.86h2.329v.945H87.032v4.724a1.625,1.625,0,0,0,.344,1.113A1.2,1.2,0,0,0,88.321,83.143ZM91.789,84H90.573V75.973h1.216ZM90.471,73.8a.808.808,0,0,1,.205-.612.759.759,0,0,1,1.018,0,.793.793,0,0,1,.212.608.805.805,0,0,1-.212.612.744.744,0,0,1-1.018,0A.823.823,0,0,1,90.471,73.8Zm6.654,10.349a3.426,3.426,0,0,1-2.7-1.073,4.412,4.412,0,0,1-.956-3.036,4.55,4.55,0,0,1,.97-3.113,3.494,3.494,0,0,1,2.765-1.1,5.487,5.487,0,0,1,1.157.125,3.812,3.812,0,0,1,.908.293L98.9,77.276a5.717,5.717,0,0,0-.879-.267,3.924,3.924,0,0,0-.842-.106q-2.446,0-2.446,3.12a3.715,3.715,0,0,0,.6,2.271,2.077,2.077,0,0,0,1.769.791,5.408,5.408,0,0,0,2.058-.432v1.077A4.386,4.386,0,0,1,97.125,84.146Zm8.42-.146-.242-1.143h-.059a3.378,3.378,0,0,1-1.2,1.022,3.65,3.65,0,0,1-1.49.267,2.681,2.681,0,0,1-1.871-.615,2.244,2.244,0,0,1-.677-1.75q0-2.432,3.889-2.549l1.362-.044v-.5a2.035,2.035,0,0,0-.406-1.4,1.672,1.672,0,0,0-1.3-.45,5.3,5.3,0,0,0-2.271.615l-.374-.93a5.713,5.713,0,0,1,1.3-.505,5.631,5.631,0,0,1,1.417-.183,3.058,3.058,0,0,1,2.128.637,2.66,2.66,0,0,1,.692,2.043V84Zm-2.747-.857a2.468,2.468,0,0,0,1.783-.623,2.3,2.3,0,0,0,.648-1.743v-.725l-1.216.051a4.422,4.422,0,0,0-2.091.45,1.358,1.358,0,0,0-.641,1.241,1.253,1.253,0,0,0,.4,1A1.657,1.657,0,0,0,102.8,83.143Zm6.918.857H108.5V72.6h1.216Zm3.344,0h-1.216V72.6h1.216Zm.854-8.027h1.3l1.758,4.578a17.412,17.412,0,0,1,.718,2.263h.059q.1-.374.4-1.278t1.989-5.563h1.3l-3.45,9.141a4.56,4.56,0,0,1-1.2,1.923,2.547,2.547,0,0,1-1.681.568,4.891,4.891,0,0,1-1.1-.125V86.5a4.238,4.238,0,0,0,.9.088,1.857,1.857,0,0,0,1.787-1.406l.447-1.143ZM2.5,105H1.289V96.973H2.5ZM1.187,94.8a.808.808,0,0,1,.205-.612.717.717,0,0,1,.513-.194.716.716,0,0,1,.505.2.793.793,0,0,1,.212.608.805.805,0,0,1-.212.612.709.709,0,0,1-.505.2.7.7,0,0,1-.513-.2A.823.823,0,0,1,1.187,94.8Zm8.94,10.2V99.807a2.1,2.1,0,0,0-.447-1.465,1.82,1.82,0,0,0-1.4-.483,2.307,2.307,0,0,0-1.846.681,3.439,3.439,0,0,0-.586,2.249V105H4.633V96.973h.989l.2,1.1h.059a2.483,2.483,0,0,1,1.047-.919,3.4,3.4,0,0,1,1.5-.326,3.049,3.049,0,0,1,2.183.7,2.977,2.977,0,0,1,.732,2.238V105Zm6.471.146a3.426,3.426,0,0,1-2.7-1.073,4.412,4.412,0,0,1-.956-3.036,4.55,4.55,0,0,1,.97-3.113,3.494,3.494,0,0,1,2.765-1.1,5.487,5.487,0,0,1,1.157.125,3.812,3.812,0,0,1,.908.293l-.374,1.033a5.717,5.717,0,0,0-.879-.267,3.924,3.924,0,0,0-.842-.106q-2.446,0-2.446,3.12a3.715,3.715,0,0,0,.6,2.271,2.077,2.077,0,0,0,1.769.791,5.408,5.408,0,0,0,2.058-.432v1.077A4.386,4.386,0,0,1,16.6,105.146Zm7.145-8.32a4.757,4.757,0,0,1,.959.088l-.168,1.128a4.142,4.142,0,0,0-.879-.11,2.139,2.139,0,0,0-1.666.791,2.884,2.884,0,0,0-.692,1.97V105H20.081V96.973h1l.139,1.487h.059a3.529,3.529,0,0,1,1.077-1.208A2.424,2.424,0,0,1,23.743,96.826Zm5.4,8.32a3.688,3.688,0,0,1-2.809-1.084,4.2,4.2,0,0,1-1.029-3.01,4.654,4.654,0,0,1,.956-3.083,3.175,3.175,0,0,1,2.567-1.143,3.027,3.027,0,0,1,2.388.992,3.8,3.8,0,0,1,.879,2.618v.769h-5.53a3.182,3.182,0,0,0,.714,2.146,2.47,2.47,0,0,0,1.908.732,6.466,6.466,0,0,0,2.563-.542v1.084a6.434,6.434,0,0,1-1.219.4A6.853,6.853,0,0,1,29.145,105.146Zm-.33-7.3a1.985,1.985,0,0,0-1.542.63,2.9,2.9,0,0,0-.677,1.743h4.2a2.673,2.673,0,0,0-.513-1.761A1.8,1.8,0,0,0,28.815,97.844ZM38.656,105l-.242-1.143h-.059a3.378,3.378,0,0,1-1.2,1.022,3.65,3.65,0,0,1-1.49.267,2.681,2.681,0,0,1-1.871-.615,2.244,2.244,0,0,1-.677-1.75q0-2.432,3.889-2.549l1.362-.044v-.5a2.035,2.035,0,0,0-.406-1.4,1.672,1.672,0,0,0-1.3-.45,5.3,5.3,0,0,0-2.271.615l-.374-.93a5.713,5.713,0,0,1,1.3-.505,5.631,5.631,0,0,1,1.417-.183,3.058,3.058,0,0,1,2.128.637,2.66,2.66,0,0,1,.692,2.043V105Zm-2.747-.857a2.468,2.468,0,0,0,1.783-.623,2.3,2.3,0,0,0,.648-1.743v-.725l-1.216.051a4.422,4.422,0,0,0-2.091.45,1.358,1.358,0,0,0-.641,1.241,1.253,1.253,0,0,0,.4,1A1.657,1.657,0,0,0,35.909,104.143ZM46.79,102.81a2.011,2.011,0,0,1-.835,1.729,3.925,3.925,0,0,1-2.344.608,5.1,5.1,0,0,1-2.49-.505v-1.128a6.022,6.022,0,0,0,1.241.461,5.184,5.184,0,0,0,1.278.168,2.9,2.9,0,0,0,1.465-.3,1.046,1.046,0,0,0,.106-1.729,6.394,6.394,0,0,0-1.586-.787,8.6,8.6,0,0,1-1.593-.729,2.176,2.176,0,0,1-.7-.707,1.843,1.843,0,0,1-.231-.945,1.8,1.8,0,0,1,.8-1.549,3.72,3.72,0,0,1,2.19-.568,6.408,6.408,0,0,1,2.534.527l-.432.989a5.817,5.817,0,0,0-2.19-.5,2.52,2.52,0,0,0-1.3.271.838.838,0,0,0-.439.747.91.91,0,0,0,.165.549,1.626,1.626,0,0,0,.531.432,11.867,11.867,0,0,0,1.406.593,5.254,5.254,0,0,1,1.93,1.047A1.847,1.847,0,0,1,46.79,102.81Zm4.919,2.336a3.688,3.688,0,0,1-2.809-1.084,4.2,4.2,0,0,1-1.029-3.01,4.654,4.654,0,0,1,.956-3.083,3.175,3.175,0,0,1,2.567-1.143,3.027,3.027,0,0,1,2.388.992,3.8,3.8,0,0,1,.879,2.618v.769H49.13a3.182,3.182,0,0,0,.714,2.146,2.47,2.47,0,0,0,1.908.732,6.466,6.466,0,0,0,2.563-.542v1.084a6.434,6.434,0,0,1-1.219.4A6.853,6.853,0,0,1,51.708,105.146Zm-.33-7.3a1.985,1.985,0,0,0-1.542.63,2.9,2.9,0,0,0-.677,1.743h4.2a2.673,2.673,0,0,0-.513-1.761A1.8,1.8,0,0,0,51.379,97.844Zm10.082,4.966a2.011,2.011,0,0,1-.835,1.729,3.925,3.925,0,0,1-2.344.608,5.1,5.1,0,0,1-2.49-.505v-1.128a6.022,6.022,0,0,0,1.241.461,5.184,5.184,0,0,0,1.278.168,2.9,2.9,0,0,0,1.465-.3,1.046,1.046,0,0,0,.106-1.729,6.394,6.394,0,0,0-1.586-.787,8.6,8.6,0,0,1-1.593-.729,2.176,2.176,0,0,1-.7-.707,1.843,1.843,0,0,1-.231-.945,1.8,1.8,0,0,1,.8-1.549,3.72,3.72,0,0,1,2.19-.568,6.408,6.408,0,0,1,2.534.527l-.432.989a5.817,5.817,0,0,0-2.19-.5,2.52,2.52,0,0,0-1.3.271.838.838,0,0,0-.439.747.91.91,0,0,0,.165.549,1.626,1.626,0,0,0,.531.432,11.867,11.867,0,0,0,1.406.593,5.254,5.254,0,0,1,1.93,1.047A1.847,1.847,0,0,1,61.461,102.81ZM72.99,105l-1.472-4.709q-.139-.432-.52-1.963h-.059q-.293,1.282-.513,1.978L68.911,105H67.5l-2.19-8.027h1.274l1.183,4.607a18.666,18.666,0,0,1,.465,2.131H68.3q.081-.417.26-1.08t.311-1.051l1.472-4.607h1.318l1.436,4.607a15.549,15.549,0,0,1,.557,2.117h.059a7.763,7.763,0,0,1,.157-.813q.128-.549,1.527-5.911h1.26L74.433,105Zm5.878,0H77.653V96.973h1.216ZM77.55,94.8a.808.808,0,0,1,.205-.612.759.759,0,0,1,1.018,0,.793.793,0,0,1,.212.608.805.805,0,0,1-.212.612.744.744,0,0,1-1.018,0A.823.823,0,0,1,77.55,94.8Zm6.039,9.346a3.972,3.972,0,0,0,.623-.048,4.03,4.03,0,0,0,.476-.1v.93a2.223,2.223,0,0,1-.582.157,4.373,4.373,0,0,1-.692.062q-2.329,0-2.329-2.454V97.917h-1.15v-.586l1.15-.505.513-1.714h.7v1.86h2.329v.945H82.3v4.724a1.625,1.625,0,0,0,.344,1.113A1.2,1.2,0,0,0,83.589,104.143Zm7.746.857V99.807a2.1,2.1,0,0,0-.447-1.465,1.82,1.82,0,0,0-1.4-.483,2.292,2.292,0,0,0-1.849.688,3.487,3.487,0,0,0-.582,2.256V105H85.842V93.6h1.216v3.45A7.517,7.517,0,0,1,87,98.086h.073a2.48,2.48,0,0,1,1.022-.912,3.322,3.322,0,0,1,1.512-.333,3.1,3.1,0,0,1,2.208.7,2.946,2.946,0,0,1,.736,2.223V105Zm10.372-8.174a4.757,4.757,0,0,1,.959.088l-.168,1.128a4.142,4.142,0,0,0-.879-.11,2.139,2.139,0,0,0-1.666.791,2.884,2.884,0,0,0-.692,1.97V105H98.045V96.973h1l.139,1.487h.059a3.529,3.529,0,0,1,1.077-1.208A2.424,2.424,0,0,1,101.707,96.826Zm5.4,8.32a3.688,3.688,0,0,1-2.809-1.084,4.2,4.2,0,0,1-1.029-3.01,4.654,4.654,0,0,1,.956-3.083,3.175,3.175,0,0,1,2.567-1.143,3.027,3.027,0,0,1,2.388.992,3.8,3.8,0,0,1,.879,2.618v.769h-5.53a3.182,3.182,0,0,0,.714,2.146,2.47,2.47,0,0,0,1.908.732,6.466,6.466,0,0,0,2.563-.542v1.084a6.434,6.434,0,0,1-1.219.4A6.853,6.853,0,0,1,107.109,105.146Zm-.33-7.3a1.985,1.985,0,0,0-1.542.63,2.9,2.9,0,0,0-.677,1.743h4.2a2.673,2.673,0,0,0-.513-1.761A1.8,1.8,0,0,0,106.78,97.844Zm8.112,7.3a3.426,3.426,0,0,1-2.7-1.073,4.412,4.412,0,0,1-.956-3.036,4.55,4.55,0,0,1,.97-3.113,3.494,3.494,0,0,1,2.765-1.1,5.487,5.487,0,0,1,1.157.125,3.812,3.812,0,0,1,.908.293l-.374,1.033a5.717,5.717,0,0,0-.879-.267,3.924,3.924,0,0,0-.842-.106q-2.446,0-2.446,3.12a3.715,3.715,0,0,0,.6,2.271,2.077,2.077,0,0,0,1.769.791,5.408,5.408,0,0,0,2.058-.432v1.077A4.386,4.386,0,0,1,114.892,105.146Zm10.412-4.167a4.428,4.428,0,0,1-.989,3.065,3.482,3.482,0,0,1-2.732,1.1,3.618,3.618,0,0,1-1.912-.505,3.335,3.335,0,0,1-1.289-1.45,5.054,5.054,0,0,1-.454-2.212,4.421,4.421,0,0,1,.981-3.058,3.471,3.471,0,0,1,2.725-1.095,3.4,3.4,0,0,1,2.677,1.121A4.409,4.409,0,0,1,125.3,100.979Zm-6.116,0a3.81,3.81,0,0,0,.615,2.344,2.442,2.442,0,0,0,3.622,0,3.791,3.791,0,0,0,.619-2.347,3.73,3.73,0,0,0-.619-2.325,2.175,2.175,0,0,0-1.827-.795,2.14,2.14,0,0,0-1.8.784A3.772,3.772,0,0,0,119.188,100.979ZM137.217,105V99.778a2.168,2.168,0,0,0-.41-1.439,1.586,1.586,0,0,0-1.274-.48,2.058,2.058,0,0,0-1.677.652,3.1,3.1,0,0,0-.542,2.007V105H132.1V99.778a2.168,2.168,0,0,0-.41-1.439,1.6,1.6,0,0,0-1.282-.48,1.985,1.985,0,0,0-1.674.685,3.706,3.706,0,0,0-.531,2.245V105h-1.216V96.973h.989l.2,1.1h.059a2.39,2.39,0,0,1,.97-.916,2.965,2.965,0,0,1,1.4-.33,2.385,2.385,0,0,1,2.461,1.362h.059a2.56,2.56,0,0,1,1.04-1,3.227,3.227,0,0,1,1.553-.366,2.718,2.718,0,0,1,2.04.7,3.129,3.129,0,0,1,.677,2.238V105Zm2.6-3.464v-1.113h3.6v1.113ZM11.521,126v-5.222a2.168,2.168,0,0,0-.41-1.439,1.586,1.586,0,0,0-1.274-.48,2.058,2.058,0,0,0-1.677.652,3.1,3.1,0,0,0-.542,2.007V126H6.4v-5.222a2.168,2.168,0,0,0-.41-1.439,1.6,1.6,0,0,0-1.282-.48,1.985,1.985,0,0,0-1.674.685,3.706,3.706,0,0,0-.531,2.245V126H1.289v-8.027h.989l.2,1.1h.059a2.39,2.39,0,0,1,.97-.916,2.965,2.965,0,0,1,1.4-.33,2.385,2.385,0,0,1,2.461,1.362h.059a2.56,2.56,0,0,1,1.04-1,3.227,3.227,0,0,1,1.553-.366,2.718,2.718,0,0,1,2.04.7,3.129,3.129,0,0,1,.677,2.238V126Zm6.662.146a3.688,3.688,0,0,1-2.809-1.084,4.2,4.2,0,0,1-1.029-3.01,4.654,4.654,0,0,1,.956-3.083,3.175,3.175,0,0,1,2.567-1.143,3.027,3.027,0,0,1,2.388.992,3.8,3.8,0,0,1,.879,2.618v.769H15.6a3.182,3.182,0,0,0,.714,2.146,2.47,2.47,0,0,0,1.908.732,6.466,6.466,0,0,0,2.563-.542v1.084a6.434,6.434,0,0,1-1.219.4A6.853,6.853,0,0,1,18.183,126.146Zm-.33-7.3a1.985,1.985,0,0,0-1.542.63,2.9,2.9,0,0,0-.677,1.743h4.2a2.673,2.673,0,0,0-.513-1.761A1.8,1.8,0,0,0,17.853,118.844ZM28.25,126v-5.193a2.1,2.1,0,0,0-.447-1.465,1.82,1.82,0,0,0-1.4-.483,2.307,2.307,0,0,0-1.846.681,3.439,3.439,0,0,0-.586,2.249V126H22.757v-8.027h.989l.2,1.1H24a2.483,2.483,0,0,1,1.047-.919,3.4,3.4,0,0,1,1.5-.326,3.049,3.049,0,0,1,2.183.7,2.977,2.977,0,0,1,.732,2.238V126Zm8.727-1.077h-.066a2.857,2.857,0,0,1-2.52,1.223,2.981,2.981,0,0,1-2.45-1.077,4.739,4.739,0,0,1-.875-3.062,4.819,4.819,0,0,1,.879-3.083,2.958,2.958,0,0,1,2.446-1.1,2.919,2.919,0,0,1,2.5,1.187h.1l-.051-.579-.029-.564V114.6h1.216V126h-.989Zm-2.432.205a2.214,2.214,0,0,0,1.805-.677,3.423,3.423,0,0,0,.56-2.186v-.256a4.028,4.028,0,0,0-.568-2.435,2.156,2.156,0,0,0-1.813-.729,1.861,1.861,0,0,0-1.637.831,4.134,4.134,0,0,0-.568,2.347,3.963,3.963,0,0,0,.564,2.322A1.91,1.91,0,0,0,34.546,125.128ZM45.192,126l-.242-1.143h-.059a3.378,3.378,0,0,1-1.2,1.022,3.65,3.65,0,0,1-1.49.267,2.681,2.681,0,0,1-1.871-.615,2.244,2.244,0,0,1-.677-1.75q0-2.432,3.889-2.549l1.362-.044v-.5a2.035,2.035,0,0,0-.406-1.4,1.672,1.672,0,0,0-1.3-.45,5.3,5.3,0,0,0-2.271.615l-.374-.93a5.713,5.713,0,0,1,1.3-.505,5.631,5.631,0,0,1,1.417-.183,3.058,3.058,0,0,1,2.128.637,2.66,2.66,0,0,1,.692,2.043V126Zm-2.747-.857a2.468,2.468,0,0,0,1.783-.623,2.3,2.3,0,0,0,.648-1.743v-.725l-1.216.051a4.422,4.422,0,0,0-2.091.45,1.358,1.358,0,0,0-.641,1.241,1.253,1.253,0,0,0,.4,1A1.657,1.657,0,0,0,42.446,125.143Zm8.3,0a3.972,3.972,0,0,0,.623-.048,4.03,4.03,0,0,0,.476-.1v.93a2.223,2.223,0,0,1-.582.157,4.373,4.373,0,0,1-.692.062q-2.329,0-2.329-2.454v-4.775h-1.15v-.586l1.15-.505.513-1.714h.7v1.86h2.329v.945H49.452v4.724a1.625,1.625,0,0,0,.344,1.113A1.2,1.2,0,0,0,50.741,125.143Zm3.468.857H52.993v-8.027h1.216Zm-1.318-10.2a.808.808,0,0,1,.205-.612.759.759,0,0,1,1.018,0,.793.793,0,0,1,.212.608.805.805,0,0,1-.212.612.744.744,0,0,1-1.018,0A.823.823,0,0,1,52.891,115.8Zm10.375,6.182a4.428,4.428,0,0,1-.989,3.065,3.482,3.482,0,0,1-2.732,1.1,3.618,3.618,0,0,1-1.912-.505,3.335,3.335,0,0,1-1.289-1.45,5.054,5.054,0,0,1-.454-2.212,4.421,4.421,0,0,1,.981-3.058,3.471,3.471,0,0,1,2.725-1.095,3.4,3.4,0,0,1,2.677,1.121A4.409,4.409,0,0,1,63.266,121.979Zm-6.116,0a3.81,3.81,0,0,0,.615,2.344,2.442,2.442,0,0,0,3.622,0,3.791,3.791,0,0,0,.619-2.347,3.73,3.73,0,0,0-.619-2.325,2.175,2.175,0,0,0-1.827-.795,2.14,2.14,0,0,0-1.8.784A3.772,3.772,0,0,0,57.15,121.979ZM70.441,126v-5.193a2.1,2.1,0,0,0-.447-1.465,1.82,1.82,0,0,0-1.4-.483,2.307,2.307,0,0,0-1.846.681,3.439,3.439,0,0,0-.586,2.249V126H64.947v-8.027h.989l.2,1.1h.059a2.483,2.483,0,0,1,1.047-.919,3.4,3.4,0,0,1,1.5-.326,3.049,3.049,0,0,1,2.183.7,2.977,2.977,0,0,1,.732,2.238V126Zm8.442-2.19a2.011,2.011,0,0,1-.835,1.729,3.925,3.925,0,0,1-2.344.608,5.1,5.1,0,0,1-2.49-.505v-1.128a6.022,6.022,0,0,0,1.241.461,5.184,5.184,0,0,0,1.278.168,2.9,2.9,0,0,0,1.465-.3,1.046,1.046,0,0,0,.106-1.729,6.394,6.394,0,0,0-1.586-.787,8.6,8.6,0,0,1-1.593-.729,2.176,2.176,0,0,1-.7-.707,1.843,1.843,0,0,1-.231-.945,1.8,1.8,0,0,1,.8-1.549,3.72,3.72,0,0,1,2.19-.568,6.408,6.408,0,0,1,2.534.527l-.432.989a5.817,5.817,0,0,0-2.19-.5,2.52,2.52,0,0,0-1.3.271.838.838,0,0,0-.439.747.91.91,0,0,0,.165.549,1.626,1.626,0,0,0,.531.432,11.867,11.867,0,0,0,1.406.593,5.254,5.254,0,0,1,1.93,1.047A1.847,1.847,0,0,1,78.882,123.81Zm8.709-5.969a2.984,2.984,0,0,1,2.457,1.08,5.784,5.784,0,0,1-.007,6.13,2.972,2.972,0,0,1-2.45,1.095,3.474,3.474,0,0,1-1.432-.289,2.693,2.693,0,0,1-1.088-.89h-.088L84.728,126h-.872V114.6h1.216v2.769q0,.93-.059,1.67h.059A2.886,2.886,0,0,1,87.592,117.841Zm-.176,1.018a2.123,2.123,0,0,0-1.794.714,5.51,5.51,0,0,0,.015,4.827,2.145,2.145,0,0,0,1.809.729,1.875,1.875,0,0,0,1.67-.817,4.2,4.2,0,0,0,.549-2.347,4.034,4.034,0,0,0-.549-2.336A1.947,1.947,0,0,0,87.416,118.859Zm3.908-.886h1.3l1.758,4.578a17.412,17.412,0,0,1,.718,2.263h.059q.1-.374.4-1.278t1.989-5.563h1.3l-3.45,9.141a4.56,4.56,0,0,1-1.2,1.923,2.547,2.547,0,0,1-1.681.568,4.891,4.891,0,0,1-1.1-.125V128.5a4.238,4.238,0,0,0,.9.088,1.857,1.857,0,0,0,1.787-1.406l.447-1.143ZM108.09,126l-.242-1.143h-.059a3.378,3.378,0,0,1-1.2,1.022,3.65,3.65,0,0,1-1.49.267,2.681,2.681,0,0,1-1.871-.615,2.244,2.244,0,0,1-.677-1.75q0-2.432,3.889-2.549l1.362-.044v-.5a2.035,2.035,0,0,0-.406-1.4,1.672,1.672,0,0,0-1.3-.45,5.3,5.3,0,0,0-2.271.615l-.374-.93a5.713,5.713,0,0,1,1.3-.505,5.631,5.631,0,0,1,1.417-.183,3.058,3.058,0,0,1,2.128.637,2.66,2.66,0,0,1,.692,2.043V126Zm-2.747-.857a2.468,2.468,0,0,0,1.783-.623,2.3,2.3,0,0,0,.648-1.743v-.725l-1.216.051a4.422,4.422,0,0,0-2.091.45,1.358,1.358,0,0,0-.641,1.241,1.253,1.253,0,0,0,.4,1A1.657,1.657,0,0,0,105.343,125.143Zm11.2.857v-5.193a2.1,2.1,0,0,0-.447-1.465,1.82,1.82,0,0,0-1.4-.483,2.307,2.307,0,0,0-1.846.681,3.439,3.439,0,0,0-.586,2.249V126h-1.216v-8.027h.989l.2,1.1h.059a2.483,2.483,0,0,1,1.047-.919,3.4,3.4,0,0,1,1.5-.326,3.049,3.049,0,0,1,2.183.7,2.977,2.977,0,0,1,.732,2.238V126ZM8.2,147,6.87,143.594H2.578L1.26,147H0l4.233-10.752H5.281L9.492,147Zm-1.721-4.526-1.245-3.318q-.242-.63-.5-1.545a13.877,13.877,0,0,1-.461,1.545l-1.26,3.318ZM10.514,147V136.292h1.245V147Zm2.875-3.464v-1.113h3.6v1.113Zm8.786,3.611a3.474,3.474,0,0,1-1.432-.289,2.693,2.693,0,0,1-1.088-.89h-.088a10.767,10.767,0,0,1,.088,1.333v3.3H18.44V138.973h.989l.168,1.1h.059a2.824,2.824,0,0,1,1.091-.952,3.317,3.317,0,0,1,1.428-.293,2.967,2.967,0,0,1,2.465,1.091,5.811,5.811,0,0,1-.015,6.134A2.972,2.972,0,0,1,22.175,147.146ZM22,139.859a2.155,2.155,0,0,0-1.78.681,3.505,3.505,0,0,0-.564,2.168v.271a4.017,4.017,0,0,0,.564,2.421,2.145,2.145,0,0,0,1.809.729,1.881,1.881,0,0,0,1.63-.842,3.994,3.994,0,0,0,.59-2.322,3.844,3.844,0,0,0-.59-2.3A1.939,1.939,0,0,0,22,139.859Zm12.111,3.12a4.428,4.428,0,0,1-.989,3.065,3.482,3.482,0,0,1-2.732,1.1,3.618,3.618,0,0,1-1.912-.505,3.335,3.335,0,0,1-1.289-1.45,5.054,5.054,0,0,1-.454-2.212,4.421,4.421,0,0,1,.981-3.058,3.471,3.471,0,0,1,2.725-1.095,3.4,3.4,0,0,1,2.677,1.121A4.409,4.409,0,0,1,34.111,142.979Zm-6.116,0a3.81,3.81,0,0,0,.615,2.344,2.442,2.442,0,0,0,3.622,0,3.791,3.791,0,0,0,.619-2.347,3.73,3.73,0,0,0-.619-2.325,2.175,2.175,0,0,0-1.827-.795,2.14,2.14,0,0,0-1.8.784A3.772,3.772,0,0,0,27.995,142.979ZM42.347,147l-1.472-4.709q-.139-.432-.52-1.963H40.3q-.293,1.282-.513,1.978L38.268,147H36.861l-2.19-8.027h1.274l1.183,4.607a18.666,18.666,0,0,1,.465,2.131h.059q.081-.417.26-1.08t.311-1.051l1.472-4.607h1.318l1.436,4.607a15.549,15.549,0,0,1,.557,2.117h.059a7.763,7.763,0,0,1,.157-.813q.128-.549,1.527-5.911h1.26L43.79,147Zm8.053.146a3.688,3.688,0,0,1-2.809-1.084,4.2,4.2,0,0,1-1.029-3.01,4.654,4.654,0,0,1,.956-3.083,3.175,3.175,0,0,1,2.567-1.143,3.027,3.027,0,0,1,2.388.992,3.8,3.8,0,0,1,.879,2.618v.769h-5.53a3.182,3.182,0,0,0,.714,2.146,2.47,2.47,0,0,0,1.908.732,6.466,6.466,0,0,0,2.563-.542v1.084a6.434,6.434,0,0,1-1.219.4A6.853,6.853,0,0,1,50.4,147.146Zm-.33-7.3a1.985,1.985,0,0,0-1.542.63,2.9,2.9,0,0,0-.677,1.743h4.2a2.673,2.673,0,0,0-.513-1.761A1.8,1.8,0,0,0,50.071,139.844Zm8.566-1.018a4.757,4.757,0,0,1,.959.088l-.168,1.128a4.142,4.142,0,0,0-.879-.11,2.139,2.139,0,0,0-1.666.791,2.884,2.884,0,0,0-.692,1.97V147H54.975v-8.027h1l.139,1.487h.059a3.529,3.529,0,0,1,1.077-1.208A2.424,2.424,0,0,1,58.637,138.826Zm5.4,8.32a3.688,3.688,0,0,1-2.809-1.084,4.2,4.2,0,0,1-1.029-3.01,4.654,4.654,0,0,1,.956-3.083,3.175,3.175,0,0,1,2.567-1.143,3.027,3.027,0,0,1,2.388.992,3.8,3.8,0,0,1,.879,2.618v.769h-5.53a3.182,3.182,0,0,0,.714,2.146,2.47,2.47,0,0,0,1.908.732,6.466,6.466,0,0,0,2.563-.542v1.084a6.434,6.434,0,0,1-1.219.4A6.853,6.853,0,0,1,64.039,147.146Zm-.33-7.3a1.985,1.985,0,0,0-1.542.63,2.9,2.9,0,0,0-.677,1.743h4.2a2.673,2.673,0,0,0-.513-1.761A1.8,1.8,0,0,0,63.71,139.844Zm10.368,6.079h-.066a2.857,2.857,0,0,1-2.52,1.223,2.981,2.981,0,0,1-2.45-1.077,4.739,4.739,0,0,1-.875-3.062,4.819,4.819,0,0,1,.879-3.083,2.958,2.958,0,0,1,2.446-1.1,2.919,2.919,0,0,1,2.5,1.187h.1l-.051-.579-.029-.564V135.6h1.216V147h-.989Zm-2.432.205a2.214,2.214,0,0,0,1.805-.677,3.423,3.423,0,0,0,.56-2.186v-.256a4.028,4.028,0,0,0-.568-2.435,2.156,2.156,0,0,0-1.813-.729,1.861,1.861,0,0,0-1.637.831,4.134,4.134,0,0,0-.568,2.347,3.963,3.963,0,0,0,.564,2.322A1.91,1.91,0,0,0,71.646,146.128Zm12.547,1.018a3.688,3.688,0,0,1-2.809-1.084,4.2,4.2,0,0,1-1.029-3.01,4.654,4.654,0,0,1,.956-3.083,3.175,3.175,0,0,1,2.567-1.143,3.027,3.027,0,0,1,2.388.992,3.8,3.8,0,0,1,.879,2.618v.769h-5.53a3.182,3.182,0,0,0,.714,2.146,2.47,2.47,0,0,0,1.908.732,6.466,6.466,0,0,0,2.563-.542v1.084a6.434,6.434,0,0,1-1.219.4A6.853,6.853,0,0,1,84.193,147.146Zm-.33-7.3a1.985,1.985,0,0,0-1.542.63,2.9,2.9,0,0,0-.677,1.743h4.2a2.673,2.673,0,0,0-.513-1.761A1.8,1.8,0,0,0,83.863,139.844ZM94.261,147v-5.193a2.1,2.1,0,0,0-.447-1.465,1.82,1.82,0,0,0-1.4-.483,2.307,2.307,0,0,0-1.846.681,3.439,3.439,0,0,0-.586,2.249V147H88.767v-8.027h.989l.2,1.1h.059a2.483,2.483,0,0,1,1.047-.919,3.4,3.4,0,0,1,1.5-.326,3.049,3.049,0,0,1,2.183.7,2.977,2.977,0,0,1,.732,2.238V147Zm9.833-8.027v.769l-1.487.176a2.611,2.611,0,0,1,.527,1.6,2.373,2.373,0,0,1-.806,1.882,3.25,3.25,0,0,1-2.212.7,3.683,3.683,0,0,1-.674-.059,1.2,1.2,0,0,0-.776,1.033.525.525,0,0,0,.271.487,1.98,1.98,0,0,0,.93.157h1.421a3.182,3.182,0,0,1,2,.549,1.909,1.909,0,0,1,.7,1.6,2.279,2.279,0,0,1-1.069,2.032,5.723,5.723,0,0,1-3.12.7,4.263,4.263,0,0,1-2.428-.586,1.892,1.892,0,0,1-.853-1.655,1.859,1.859,0,0,1,.469-1.267,2.387,2.387,0,0,1,1.318-.725,1.272,1.272,0,0,1-.516-.432,1.144,1.144,0,0,1-.209-.681,1.293,1.293,0,0,1,.234-.769,2.464,2.464,0,0,1,.74-.637,2.168,2.168,0,0,1-1.014-.872,2.561,2.561,0,0,1-.392-1.406,2.6,2.6,0,0,1,.791-2.032,3.23,3.23,0,0,1,2.241-.714,4.075,4.075,0,0,1,1.135.146Zm-6.4,9.375a1.09,1.09,0,0,0,.549.989,3.032,3.032,0,0,0,1.575.337,4.394,4.394,0,0,0,2.267-.458,1.4,1.4,0,0,0,.736-1.241.982.982,0,0,0-.4-.9,3.129,3.129,0,0,0-1.516-.253H99.443a1.92,1.92,0,0,0-1.289.4A1.413,1.413,0,0,0,97.692,148.348Zm.659-6.8a1.634,1.634,0,0,0,.476,1.274,1.9,1.9,0,0,0,1.326.432,1.551,1.551,0,0,0,1.78-1.729,1.6,1.6,0,0,0-1.8-1.809,1.784,1.784,0,0,0-1.318.461A1.858,1.858,0,0,0,98.352,141.543ZM106.508,147h-1.216v-8.027h1.216Zm-1.318-10.2a.808.808,0,0,1,.205-.612.759.759,0,0,1,1.018,0,.793.793,0,0,1,.212.608.805.805,0,0,1-.212.612.744.744,0,0,1-1.018,0A.823.823,0,0,1,105.189,136.8Zm8.94,10.2v-5.193a2.1,2.1,0,0,0-.447-1.465,1.82,1.82,0,0,0-1.4-.483,2.307,2.307,0,0,0-1.846.681,3.439,3.439,0,0,0-.586,2.249V147h-1.216v-8.027h.989l.2,1.1h.059a2.483,2.483,0,0,1,1.047-.919,3.4,3.4,0,0,1,1.5-.326,3.049,3.049,0,0,1,2.183.7,2.977,2.977,0,0,1,.732,2.238V147Zm6.654.146a3.688,3.688,0,0,1-2.809-1.084,4.2,4.2,0,0,1-1.029-3.01,4.654,4.654,0,0,1,.956-3.083,3.175,3.175,0,0,1,2.567-1.143,3.027,3.027,0,0,1,2.388.992,3.8,3.8,0,0,1,.879,2.618v.769h-5.53a3.182,3.182,0,0,0,.714,2.146,2.47,2.47,0,0,0,1.908.732,6.466,6.466,0,0,0,2.563-.542v1.084a6.434,6.434,0,0,1-1.219.4A6.853,6.853,0,0,1,120.783,147.146Zm-.33-7.3a1.985,1.985,0,0,0-1.542.63,2.9,2.9,0,0,0-.677,1.743h4.2a2.673,2.673,0,0,0-.513-1.761A1.8,1.8,0,0,0,120.454,139.844Zm4.728,6.379a1.091,1.091,0,0,1,.223-.743.81.81,0,0,1,.641-.253.867.867,0,0,1,.663.253,1.046,1.046,0,0,1,.238.743,1.027,1.027,0,0,1-.242.732.961.961,0,0,1-1.278.026A1,1,0,0,1,125.182,146.224Z" transform="translate(265 1421)" fill="#707070"/>
  </g>
</svg>
