<svg xmlns="http://www.w3.org/2000/svg" width="240.248" height="352.012" viewBox="0 0 240.248 352.012">
  <g id="Group_12" data-name="Group 12" transform="translate(-968.876 -1280.448)">
    <g id="Group_7" data-name="Group 7" transform="translate(846.211 1034.545)">
      <path id="Path_2" data-name="Path 2" d="M128.409,360.226c27.115-9.695,125.914-38.39,125.914-38.39s26.935-5.83,41.117,21.727c9.695,30.213,30.005,145.112,30.005,145.112l17.726,85.651s14.657,40.215-23.814,53.588S194.011,671.77,194.011,671.77s-35.143,10.527-46.634-23.049c-.107-.338-.255-.838-.4-1.348C127.357,525.6,122.807,498.581,122.807,498.581L105.973,395.744S101.295,369.921,128.409,360.226Z" transform="translate(17 -75.417)" fill="#6862a7"/>
      <g id="Path_3" data-name="Path 3" transform="translate(129.9 274.224) rotate(-3)" fill="#fff">
        <path d="M 43.38037872314453 304.8859252929688 C 37.05430221557617 304.8859252929688 31.3349552154541 304.3730163574219 26.38118553161621 303.3614196777344 C 19.55253219604492 301.9669189453125 14.45526218414307 299.6598815917969 11.23103141784668 296.5042724609375 C 8.742300987243652 294.0685424804688 6.634570121765137 290.9587707519531 4.96645450592041 287.2612915039062 C 3.610646963119507 284.2559814453125 2.537262201309204 280.8498229980469 1.776185393333435 277.1374816894531 C 0.5778777003288269 271.2925109863281 0.4858392179012299 266.3768920898438 0.5018776655197144 264.5347290039062 C 0.5021121501922607 264.5074768066406 0.5022938847541809 264.4852294921875 0.5023865699768066 264.4680480957031 L 18.79195404052734 39.62516403198242 L 18.79360771179199 39.60493087768555 L 18.79360771179199 39.58462524414062 C 18.79360771179199 35.0031623840332 19.69076156616211 30.55900955200195 21.46018600463867 26.37562370300293 C 23.16937828063965 22.33470153808594 25.61630058288574 18.70547103881836 28.73299217224121 15.58877849578857 C 31.84972381591797 12.47204780578613 35.47891616821289 10.02512454986572 39.51987838745117 8.315932273864746 C 43.70326232910156 6.5465087890625 48.14737701416016 5.649354934692383 52.72883987426758 5.649354934692383 L 52.73964691162109 5.649354934692383 L 52.75045394897461 5.648893356323242 L 166.1934204101562 0.7378935813903809 L 166.2161102294922 0.7368935346603394 L 166.2386016845703 0.7338550686836243 C 167.3894958496094 0.5787012577056885 168.565185546875 0.5000089406967163 169.7329864501953 0.5000089406967163 C 173.6643829345703 0.5000089406967163 177.5728759765625 1.362393498420715 181.3499908447266 3.063201189041138 C 185.0804138183594 4.74304723739624 188.4958343505859 7.154316425323486 191.5013427734375 10.23004722595215 C 194.9736480712891 13.78354740142822 197.6866912841797 17.99908638000488 199.5651092529297 22.75954818725586 C 201.5636596679688 27.82446670532227 202.5107879638672 33.26610946655273 202.3802032470703 38.93268203735352 L 194.0863800048828 250.5003509521484 L 194.0859985351562 250.5101318359375 L 194.0859985351562 250.5199279785156 C 194.0859985351562 259.5234680175781 193.5982666015625 268.8996276855469 190.0598754882812 276.4772033691406 C 188.2236022949219 280.4095458984375 185.7263031005859 283.5911560058594 182.4251861572266 286.2038269042969 C 180.6601409912109 287.6007385253906 178.6378326416016 288.8417053222656 176.4144897460938 289.8922424316406 C 174.0995483398438 290.9860534667969 171.4890289306641 291.9102172851562 168.6552276611328 292.6391906738281 L 51.94310760498047 304.5441589355469 C 51.91022491455078 304.54736328125 48.38053131103516 304.8859252929688 43.38037872314453 304.8859252929688 Z" stroke="none"/>
        <path d="M 169.7329559326172 1 C 168.5873718261719 1 167.4341888427734 1.07720947265625 166.3053741455078 1.229400634765625 L 166.2603759765625 1.2354736328125 L 166.2149963378906 1.2374267578125 L 52.72883605957031 6.14935302734375 C 48.21464538574219 6.14935302734375 43.83607482910156 7.033233642578125 39.71464538574219 8.77642822265625 C 35.73330688476562 10.46038818359375 32.15748596191406 12.87136840820312 29.08653259277344 15.94232177734375 C 26.01556396484375 19.01324462890625 23.6046142578125 22.58905029296875 21.92068481445312 26.57040405273438 C 20.17745971679688 30.69180297851562 19.29356384277344 35.07040405273438 19.29356384277344 39.5845947265625 L 19.29356384277344 39.62521362304688 L 19.29026794433594 39.6656494140625 L 1.00225830078125 264.4899291992188 C 1.002151489257812 264.5040893554688 1.00201416015625 264.5204772949219 1.001846313476562 264.5391235351562 C 0.9859619140625 266.3653259277344 1.077301025390625 271.2388916015625 2.2659912109375 277.0370178222656 C 3.0196533203125 280.7132263183594 4.081573486328125 284.0840148925781 5.422225952148438 287.0556640625 C 7.064651489257812 290.6961669921875 9.136688232421875 293.7549438476562 11.58076477050781 296.1469421386719 C 14.735107421875 299.234130859375 19.74833679199219 301.4966125488281 26.48114013671875 302.8715209960938 C 31.33268737792969 303.8622436523438 37.17630004882812 304.3858947753906 43.38021850585938 304.3858947753906 C 48.35221862792969 304.3858947753906 51.86192321777344 304.0496520996094 51.89237976074219 304.0466918945312 L 168.5669097900391 292.1455993652344 C 171.3561859130859 291.4259643554688 173.9242706298828 290.515869140625 176.2008819580078 289.4401550292969 C 178.3898773193359 288.4058532714844 180.3796081542969 287.1850891113281 182.1148834228516 285.8117370605469 C 185.3535766601562 283.2484741210938 187.8042297363281 280.1258850097656 189.6067962646484 276.265625 C 193.1039123535156 268.7764282226562 193.5859985351562 259.4657897949219 193.5859985351562 250.5199279785156 L 193.5867614746094 250.4807739257812 L 201.8804779052734 38.91604614257812 C 202.0088043212891 33.31838989257812 201.0733337402344 27.94406127929688 199.0999908447266 22.94305419921875 C 197.2461395263672 18.24484252929688 194.5693054199219 14.08517456054688 191.1437225341797 10.57949829101562 C 188.1820678710938 7.548675537109375 184.8179168701172 5.173187255859375 181.1446838378906 3.519134521484375 C 177.4325256347656 1.8475341796875 173.5930633544922 1 169.7329559326172 1 M 169.7329406738281 3.0517578125e-05 C 186.9294738769531 3.0517578125e-05 203.3993377685547 16.47665405273438 202.8800354003906 38.94696044921875 L 194.5859985351562 250.5199279785156 C 194.5859985351562 269.5379638671875 192.3386535644531 287.0810546875 168.7431945800781 293.1328125 L 51.99383544921875 305.0415344238281 C 51.99385070800781 305.0415344238281 22.2109375 307.9500427246094 10.88130187988281 296.8616333007812 C -0.4483489990234375 285.7733154296875 0.0024566650390625 265.1886901855469 0.0024566650390625 264.447021484375 L 18.29356384277344 39.5845947265625 C 18.29356384277344 20.56649780273438 33.71076965332031 5.14935302734375 52.72883605957031 5.14935302734375 L 166.1717529296875 0.23834228515625 C 167.3580474853516 0.078399658203125 168.5482177734375 3.0517578125e-05 169.7329406738281 3.0517578125e-05 Z" stroke="none" fill="#e3e3e3"/>
      </g>
    </g>
    <path id="Path_15" data-name="Path 15" d="M4.2-5.354l2.856-5.354H8.4L4.827-4.153V0H3.567V-4.094L0-10.708H1.362ZM16.169-4.021A4.428,4.428,0,0,1,15.18-.956a3.482,3.482,0,0,1-2.732,1.1,3.618,3.618,0,0,1-1.912-.505,3.335,3.335,0,0,1-1.289-1.45,5.054,5.054,0,0,1-.454-2.212,4.421,4.421,0,0,1,.981-3.058A3.471,3.471,0,0,1,12.5-8.174a3.4,3.4,0,0,1,2.677,1.121A4.409,4.409,0,0,1,16.169-4.021Zm-6.116,0a3.81,3.81,0,0,0,.615,2.344,2.136,2.136,0,0,0,1.809.806,2.15,2.15,0,0,0,1.813-.8,3.791,3.791,0,0,0,.619-2.347,3.73,3.73,0,0,0-.619-2.325,2.175,2.175,0,0,0-1.827-.795,2.14,2.14,0,0,0-1.8.784A3.772,3.772,0,0,0,10.053-4.021Zm8.94-4.006V-2.82a2.1,2.1,0,0,0,.447,1.465,1.82,1.82,0,0,0,1.4.483A2.282,2.282,0,0,0,22.68-1.56a3.473,3.473,0,0,0,.582-2.249V-8.027h1.216V0h-1L23.3-1.077h-.066A2.423,2.423,0,0,1,22.2-.168a3.483,3.483,0,0,1-1.512.315,3.069,3.069,0,0,1-2.194-.7,2.962,2.962,0,0,1-.729-2.227V-8.027ZM33.261.146a3.426,3.426,0,0,1-2.7-1.073,4.412,4.412,0,0,1-.956-3.036,4.55,4.55,0,0,1,.97-3.113,3.494,3.494,0,0,1,2.765-1.1,5.487,5.487,0,0,1,1.157.125,3.812,3.812,0,0,1,.908.293l-.374,1.033a5.717,5.717,0,0,0-.879-.267,3.924,3.924,0,0,0-.842-.106q-2.446,0-2.446,3.12a3.715,3.715,0,0,0,.6,2.271,2.077,2.077,0,0,0,1.769.791,5.408,5.408,0,0,0,2.058-.432V-.271A4.386,4.386,0,0,1,33.261.146ZM41.681,0l-.242-1.143H41.38a3.378,3.378,0,0,1-1.2,1.022,3.65,3.65,0,0,1-1.49.267,2.681,2.681,0,0,1-1.871-.615,2.244,2.244,0,0,1-.677-1.75q0-2.432,3.889-2.549L41.4-4.812v-.5a2.035,2.035,0,0,0-.406-1.4,1.672,1.672,0,0,0-1.3-.45,5.3,5.3,0,0,0-2.271.615l-.374-.93a5.713,5.713,0,0,1,1.3-.505,5.631,5.631,0,0,1,1.417-.183,3.058,3.058,0,0,1,2.128.637,2.66,2.66,0,0,1,.692,2.043V0ZM38.934-.857a2.468,2.468,0,0,0,1.783-.623,2.3,2.3,0,0,0,.648-1.743v-.725L40.15-3.9a4.422,4.422,0,0,0-2.091.45A1.358,1.358,0,0,0,37.418-2.2a1.253,1.253,0,0,0,.4,1A1.657,1.657,0,0,0,38.934-.857ZM50.13,0V-5.193a2.1,2.1,0,0,0-.447-1.465,1.82,1.82,0,0,0-1.4-.483,2.307,2.307,0,0,0-1.846.681,3.439,3.439,0,0,0-.586,2.249V0H44.636V-8.027h.989l.2,1.1h.059a2.483,2.483,0,0,1,1.047-.919,3.4,3.4,0,0,1,1.5-.326,3.049,3.049,0,0,1,2.183.7,2.977,2.977,0,0,1,.732,2.238V0Zm13.28-8.027v.769l-1.487.176a2.556,2.556,0,0,1,.366.67,2.557,2.557,0,0,1,.161.934A2.373,2.373,0,0,1,61.644-3.6a3.25,3.25,0,0,1-2.212.7,3.683,3.683,0,0,1-.674-.059,1.2,1.2,0,0,0-.776,1.033.525.525,0,0,0,.271.487,1.98,1.98,0,0,0,.93.157H60.6a3.182,3.182,0,0,1,2,.549,1.909,1.909,0,0,1,.7,1.6A2.279,2.279,0,0,1,62.237,2.9a5.723,5.723,0,0,1-3.12.7,4.263,4.263,0,0,1-2.428-.586,1.892,1.892,0,0,1-.853-1.655A1.859,1.859,0,0,1,56.3.1,2.387,2.387,0,0,1,57.623-.63a1.272,1.272,0,0,1-.516-.432,1.144,1.144,0,0,1-.209-.681,1.293,1.293,0,0,1,.234-.769,2.464,2.464,0,0,1,.74-.637,2.168,2.168,0,0,1-1.014-.872,2.561,2.561,0,0,1-.392-1.406,2.6,2.6,0,0,1,.791-2.032A3.23,3.23,0,0,1,59.5-8.174a4.075,4.075,0,0,1,1.135.146Zm-6.4,9.375a1.09,1.09,0,0,0,.549.989,3.032,3.032,0,0,0,1.575.337A4.394,4.394,0,0,0,61.4,2.216,1.4,1.4,0,0,0,62.135.974a.982.982,0,0,0-.4-.9,3.129,3.129,0,0,0-1.516-.253H58.758a1.92,1.92,0,0,0-1.289.4A1.413,1.413,0,0,0,57.008,1.348Zm.659-6.8a1.634,1.634,0,0,0,.476,1.274,1.9,1.9,0,0,0,1.326.432,1.551,1.551,0,0,0,1.78-1.729,1.6,1.6,0,0,0-1.8-1.809,1.784,1.784,0,0,0-1.318.461A1.858,1.858,0,0,0,57.667-5.457ZM68,.146A3.688,3.688,0,0,1,65.189-.937a4.2,4.2,0,0,1-1.029-3.01,4.654,4.654,0,0,1,.956-3.083,3.175,3.175,0,0,1,2.567-1.143,3.027,3.027,0,0,1,2.388.992,3.8,3.8,0,0,1,.879,2.618v.769H65.42a3.182,3.182,0,0,0,.714,2.146,2.47,2.47,0,0,0,1.908.732,6.466,6.466,0,0,0,2.563-.542V-.374a6.434,6.434,0,0,1-1.219.4A6.853,6.853,0,0,1,68,.146Zm-.33-7.3a1.985,1.985,0,0,0-1.542.63,2.9,2.9,0,0,0-.677,1.743h4.2a2.673,2.673,0,0,0-.513-1.761A1.8,1.8,0,0,0,67.669-7.156ZM78.066,0V-5.193a2.1,2.1,0,0,0-.447-1.465,1.82,1.82,0,0,0-1.4-.483,2.307,2.307,0,0,0-1.846.681,3.439,3.439,0,0,0-.586,2.249V0H72.573V-8.027h.989l.2,1.1h.059a2.483,2.483,0,0,1,1.047-.919,3.4,3.4,0,0,1,1.5-.326,3.049,3.049,0,0,1,2.183.7,2.977,2.977,0,0,1,.732,2.238V0ZM84.72.146A3.688,3.688,0,0,1,81.912-.937a4.2,4.2,0,0,1-1.029-3.01,4.654,4.654,0,0,1,.956-3.083,3.175,3.175,0,0,1,2.567-1.143,3.027,3.027,0,0,1,2.388.992,3.8,3.8,0,0,1,.879,2.618v.769h-5.53a3.182,3.182,0,0,0,.714,2.146,2.47,2.47,0,0,0,1.908.732,6.466,6.466,0,0,0,2.563-.542V-.374a6.434,6.434,0,0,1-1.219.4A6.853,6.853,0,0,1,84.72.146Zm-.33-7.3a1.985,1.985,0,0,0-1.542.63,2.9,2.9,0,0,0-.677,1.743h4.2a2.673,2.673,0,0,0-.513-1.761A1.8,1.8,0,0,0,84.391-7.156Zm8.566-1.018a4.757,4.757,0,0,1,.959.088l-.168,1.128a4.142,4.142,0,0,0-.879-.11,2.139,2.139,0,0,0-1.666.791,2.884,2.884,0,0,0-.692,1.97V0H89.295V-8.027h1l.139,1.487H90.5a3.529,3.529,0,0,1,1.077-1.208A2.424,2.424,0,0,1,92.957-8.174ZM99.9,0l-.242-1.143H99.6a3.378,3.378,0,0,1-1.2,1.022,3.65,3.65,0,0,1-1.49.267,2.681,2.681,0,0,1-1.871-.615,2.244,2.244,0,0,1-.677-1.75q0-2.432,3.889-2.549l1.362-.044v-.5a2.035,2.035,0,0,0-.406-1.4,1.672,1.672,0,0,0-1.3-.45,5.3,5.3,0,0,0-2.271.615l-.374-.93a5.713,5.713,0,0,1,1.3-.505,5.631,5.631,0,0,1,1.417-.183,3.058,3.058,0,0,1,2.128.637,2.66,2.66,0,0,1,.692,2.043V0ZM97.158-.857a2.468,2.468,0,0,0,1.783-.623,2.3,2.3,0,0,0,.648-1.743v-.725L98.374-3.9a4.422,4.422,0,0,0-2.091.45A1.358,1.358,0,0,0,95.642-2.2a1.253,1.253,0,0,0,.4,1A1.657,1.657,0,0,0,97.158-.857Zm8.3,0a3.972,3.972,0,0,0,.623-.048,4.03,4.03,0,0,0,.476-.1v.93a2.223,2.223,0,0,1-.582.157,4.373,4.373,0,0,1-.692.062q-2.329,0-2.329-2.454V-7.083H101.8v-.586l1.15-.505.513-1.714h.7v1.86h2.329v.945h-2.329v4.724a1.625,1.625,0,0,0,.344,1.113A1.2,1.2,0,0,0,105.453-.857Zm5.644,1a3.688,3.688,0,0,1-2.809-1.084,4.2,4.2,0,0,1-1.029-3.01,4.654,4.654,0,0,1,.956-3.083,3.175,3.175,0,0,1,2.567-1.143,3.027,3.027,0,0,1,2.388.992,3.8,3.8,0,0,1,.879,2.618v.769h-5.53a3.182,3.182,0,0,0,.714,2.146,2.47,2.47,0,0,0,1.908.732,6.466,6.466,0,0,0,2.563-.542V-.374a6.434,6.434,0,0,1-1.219.4A6.853,6.853,0,0,1,111.1.146Zm-.33-7.3a1.985,1.985,0,0,0-1.542.63,2.9,2.9,0,0,0-.677,1.743h4.2a2.673,2.673,0,0,0-.513-1.761A1.8,1.8,0,0,0,110.767-7.156ZM11.521,21V15.778a2.168,2.168,0,0,0-.41-1.439,1.586,1.586,0,0,0-1.274-.48,2.058,2.058,0,0,0-1.677.652,3.1,3.1,0,0,0-.542,2.007V21H6.4V15.778a2.168,2.168,0,0,0-.41-1.439,1.6,1.6,0,0,0-1.282-.48,1.985,1.985,0,0,0-1.674.685A3.706,3.706,0,0,0,2.5,16.789V21H1.289V12.973h.989l.2,1.1h.059a2.39,2.39,0,0,1,.97-.916,2.965,2.965,0,0,1,1.4-.33,2.385,2.385,0,0,1,2.461,1.362h.059a2.56,2.56,0,0,1,1.04-1,3.227,3.227,0,0,1,1.553-.366,2.718,2.718,0,0,1,2.04.7,3.129,3.129,0,0,1,.677,2.238V21Zm4.413-8.027V18.18a2.1,2.1,0,0,0,.447,1.465,1.82,1.82,0,0,0,1.4.483,2.282,2.282,0,0,0,1.842-.688,3.473,3.473,0,0,0,.582-2.249V12.973H21.42V21h-1l-.176-1.077h-.066a2.423,2.423,0,0,1-1.036.908,3.483,3.483,0,0,1-1.512.315,3.069,3.069,0,0,1-2.194-.7,2.962,2.962,0,0,1-.729-2.227V12.973ZM24.764,21H23.548V9.6h1.216Zm4.721-.857a3.972,3.972,0,0,0,.623-.048,4.03,4.03,0,0,0,.476-.1v.93a2.223,2.223,0,0,1-.582.157,4.373,4.373,0,0,1-.692.062q-2.329,0-2.329-2.454V13.917H25.83v-.586l1.15-.505.513-1.714h.7v1.86h2.329v.945H28.2v4.724a1.625,1.625,0,0,0,.344,1.113A1.2,1.2,0,0,0,29.485,20.143ZM32.953,21H31.738V12.973h1.216ZM31.635,10.8a.808.808,0,0,1,.205-.612.759.759,0,0,1,1.018,0,.793.793,0,0,1,.212.608.805.805,0,0,1-.212.612.744.744,0,0,1-1.018,0A.823.823,0,0,1,31.635,10.8Zm8.91,9.126h-.066a2.857,2.857,0,0,1-2.52,1.223,2.981,2.981,0,0,1-2.45-1.077,4.739,4.739,0,0,1-.875-3.062,4.819,4.819,0,0,1,.879-3.083,2.958,2.958,0,0,1,2.446-1.1,2.919,2.919,0,0,1,2.5,1.187h.1l-.051-.579-.029-.564V9.6H41.7V21h-.989Zm-2.432.205a2.214,2.214,0,0,0,1.805-.677,3.423,3.423,0,0,0,.56-2.186v-.256a4.028,4.028,0,0,0-.568-2.435,2.156,2.156,0,0,0-1.813-.729,1.861,1.861,0,0,0-1.637.831,4.134,4.134,0,0,0-.568,2.347,3.963,3.963,0,0,0,.564,2.322A1.91,1.91,0,0,0,38.114,20.128ZM45.039,21H43.823V12.973h1.216ZM43.721,10.8a.808.808,0,0,1,.205-.612.759.759,0,0,1,1.018,0,.793.793,0,0,1,.212.608.805.805,0,0,1-.212.612.744.744,0,0,1-1.018,0A.823.823,0,0,1,43.721,10.8ZM57.4,21V15.778a2.168,2.168,0,0,0-.41-1.439,1.586,1.586,0,0,0-1.274-.48,2.058,2.058,0,0,0-1.677.652,3.1,3.1,0,0,0-.542,2.007V21H52.28V15.778a2.168,2.168,0,0,0-.41-1.439,1.6,1.6,0,0,0-1.282-.48,1.985,1.985,0,0,0-1.674.685,3.706,3.706,0,0,0-.531,2.245V21H47.167V12.973h.989l.2,1.1h.059a2.39,2.39,0,0,1,.97-.916,2.965,2.965,0,0,1,1.4-.33,2.385,2.385,0,0,1,2.461,1.362h.059a2.56,2.56,0,0,1,1.04-1,3.227,3.227,0,0,1,1.553-.366,2.718,2.718,0,0,1,2.04.7,3.129,3.129,0,0,1,.677,2.238V21Zm6.662.146a3.688,3.688,0,0,1-2.809-1.084,4.2,4.2,0,0,1-1.029-3.01,4.654,4.654,0,0,1,.956-3.083,3.175,3.175,0,0,1,2.567-1.143,3.027,3.027,0,0,1,2.388.992,3.8,3.8,0,0,1,.879,2.618v.769h-5.53a3.182,3.182,0,0,0,.714,2.146,2.47,2.47,0,0,0,1.908.732,6.466,6.466,0,0,0,2.563-.542v1.084a6.434,6.434,0,0,1-1.219.4A6.853,6.853,0,0,1,64.061,21.146Zm-.33-7.3a1.985,1.985,0,0,0-1.542.63,2.9,2.9,0,0,0-.677,1.743h4.2a2.673,2.673,0,0,0-.513-1.761A1.8,1.8,0,0,0,63.732,13.844ZM74.129,21V15.807a2.1,2.1,0,0,0-.447-1.465,1.82,1.82,0,0,0-1.4-.483,2.307,2.307,0,0,0-1.846.681,3.439,3.439,0,0,0-.586,2.249V21H68.636V12.973h.989l.2,1.1h.059a2.483,2.483,0,0,1,1.047-.919,3.4,3.4,0,0,1,1.5-.326,3.049,3.049,0,0,1,2.183.7,2.977,2.977,0,0,1,.732,2.238V21Zm8.442-2.19a2.011,2.011,0,0,1-.835,1.729,3.925,3.925,0,0,1-2.344.608,5.1,5.1,0,0,1-2.49-.505V19.513a6.022,6.022,0,0,0,1.241.461,5.184,5.184,0,0,0,1.278.168,2.9,2.9,0,0,0,1.465-.3,1.046,1.046,0,0,0,.106-1.729,6.394,6.394,0,0,0-1.586-.787,8.6,8.6,0,0,1-1.593-.729,2.176,2.176,0,0,1-.7-.707,1.843,1.843,0,0,1-.231-.945,1.8,1.8,0,0,1,.8-1.549,3.72,3.72,0,0,1,2.19-.568,6.408,6.408,0,0,1,2.534.527l-.432.989a5.817,5.817,0,0,0-2.19-.5,2.52,2.52,0,0,0-1.3.271.838.838,0,0,0-.439.747.91.91,0,0,0,.165.549,1.626,1.626,0,0,0,.531.432,11.867,11.867,0,0,0,1.406.593,5.254,5.254,0,0,1,1.93,1.047A1.847,1.847,0,0,1,82.57,18.81ZM85.314,21H84.1V12.973h1.216ZM84,10.8a.808.808,0,0,1,.205-.612.759.759,0,0,1,1.018,0,.793.793,0,0,1,.212.608.805.805,0,0,1-.212.612.744.744,0,0,1-1.018,0A.823.823,0,0,1,84,10.8Zm10.375,6.182a4.428,4.428,0,0,1-.989,3.065,3.482,3.482,0,0,1-2.732,1.1,3.618,3.618,0,0,1-1.912-.505,3.335,3.335,0,0,1-1.289-1.45A5.054,5.054,0,0,1,87,16.979a4.421,4.421,0,0,1,.981-3.058A3.471,3.471,0,0,1,90.7,12.826a3.4,3.4,0,0,1,2.677,1.121A4.409,4.409,0,0,1,94.371,16.979Zm-6.116,0a3.81,3.81,0,0,0,.615,2.344,2.442,2.442,0,0,0,3.622,0,3.791,3.791,0,0,0,.619-2.347,3.73,3.73,0,0,0-.619-2.325,2.175,2.175,0,0,0-1.827-.795,2.14,2.14,0,0,0-1.8.784A3.772,3.772,0,0,0,88.255,16.979ZM101.545,21V15.807a2.1,2.1,0,0,0-.447-1.465,1.82,1.82,0,0,0-1.4-.483,2.307,2.307,0,0,0-1.846.681,3.439,3.439,0,0,0-.586,2.249V21H96.052V12.973h.989l.2,1.1H97.3a2.483,2.483,0,0,1,1.047-.919,3.4,3.4,0,0,1,1.5-.326,3.049,3.049,0,0,1,2.183.7,2.977,2.977,0,0,1,.732,2.238V21Zm8.2,0-.242-1.143h-.059a3.378,3.378,0,0,1-1.2,1.022,3.65,3.65,0,0,1-1.49.267,2.681,2.681,0,0,1-1.871-.615,2.244,2.244,0,0,1-.677-1.75q0-2.432,3.889-2.549l1.362-.044v-.5a2.035,2.035,0,0,0-.406-1.4,1.672,1.672,0,0,0-1.3-.45,5.3,5.3,0,0,0-2.271.615l-.374-.93a5.713,5.713,0,0,1,1.3-.505,5.631,5.631,0,0,1,1.417-.183,3.058,3.058,0,0,1,2.128.637,2.66,2.66,0,0,1,.692,2.043V21ZM107,20.143a2.468,2.468,0,0,0,1.783-.623,2.3,2.3,0,0,0,.648-1.743v-.725l-1.216.051a4.422,4.422,0,0,0-2.091.45,1.358,1.358,0,0,0-.641,1.241,1.253,1.253,0,0,0,.4,1A1.657,1.657,0,0,0,107,20.143Zm6.918.857H112.7V9.6h1.216ZM4.951,33.826a4.757,4.757,0,0,1,.959.088l-.168,1.128a4.142,4.142,0,0,0-.879-.11,2.139,2.139,0,0,0-1.666.791,2.884,2.884,0,0,0-.692,1.97V42H1.289V33.973h1l.139,1.487H2.49a3.529,3.529,0,0,1,1.077-1.208A2.424,2.424,0,0,1,4.951,33.826Zm5.4,8.32a3.688,3.688,0,0,1-2.809-1.084,4.2,4.2,0,0,1-1.029-3.01,4.654,4.654,0,0,1,.956-3.083,3.175,3.175,0,0,1,2.567-1.143,3.027,3.027,0,0,1,2.388.992,3.8,3.8,0,0,1,.879,2.618v.769H7.775a3.182,3.182,0,0,0,.714,2.146,2.47,2.47,0,0,0,1.908.732,6.466,6.466,0,0,0,2.563-.542v1.084a6.434,6.434,0,0,1-1.219.4A6.853,6.853,0,0,1,10.353,42.146Zm-.33-7.3a1.985,1.985,0,0,0-1.542.63A2.9,2.9,0,0,0,7.8,37.217H12a2.673,2.673,0,0,0-.513-1.761A1.8,1.8,0,0,0,10.024,34.844Zm8.639,7.3a3.474,3.474,0,0,1-1.432-.289,2.693,2.693,0,0,1-1.088-.89h-.088a10.767,10.767,0,0,1,.088,1.333v3.3H14.928V33.973h.989l.168,1.1h.059a2.824,2.824,0,0,1,1.091-.952,3.317,3.317,0,0,1,1.428-.293,2.967,2.967,0,0,1,2.465,1.091A4.8,4.8,0,0,1,22,37.979a4.776,4.776,0,0,1-.883,3.073A2.972,2.972,0,0,1,18.663,42.146Zm-.176-7.288a2.155,2.155,0,0,0-1.78.681,3.505,3.505,0,0,0-.564,2.168v.271a4.017,4.017,0,0,0,.564,2.421,2.145,2.145,0,0,0,1.809.729,1.881,1.881,0,0,0,1.63-.842,3.994,3.994,0,0,0,.59-2.322,3.844,3.844,0,0,0-.59-2.3A1.939,1.939,0,0,0,18.487,34.859ZM30.6,37.979a4.428,4.428,0,0,1-.989,3.065,3.482,3.482,0,0,1-2.732,1.1,3.618,3.618,0,0,1-1.912-.505,3.335,3.335,0,0,1-1.289-1.45,5.054,5.054,0,0,1-.454-2.212,4.421,4.421,0,0,1,.981-3.058,3.471,3.471,0,0,1,2.725-1.095,3.4,3.4,0,0,1,2.677,1.121A4.409,4.409,0,0,1,30.6,37.979Zm-6.116,0a3.81,3.81,0,0,0,.615,2.344,2.136,2.136,0,0,0,1.809.806,2.15,2.15,0,0,0,1.813-.8,3.791,3.791,0,0,0,.619-2.347,3.73,3.73,0,0,0-.619-2.325,2.175,2.175,0,0,0-1.827-.795,2.14,2.14,0,0,0-1.8.784A3.772,3.772,0,0,0,24.483,37.979Zm11.459-4.153a4.757,4.757,0,0,1,.959.088l-.168,1.128a4.142,4.142,0,0,0-.879-.11,2.139,2.139,0,0,0-1.666.791,2.884,2.884,0,0,0-.692,1.97V42H32.28V33.973h1l.139,1.487h.059a3.529,3.529,0,0,1,1.077-1.208A2.424,2.424,0,0,1,35.942,33.826Zm4.6,7.317a3.972,3.972,0,0,0,.623-.048,4.03,4.03,0,0,0,.476-.1v.93a2.223,2.223,0,0,1-.582.157,4.373,4.373,0,0,1-.692.062q-2.329,0-2.329-2.454V34.917h-1.15v-.586l1.15-.505.513-1.714h.7v1.86h2.329v.945H39.256v4.724a1.625,1.625,0,0,0,.344,1.113A1.2,1.2,0,0,0,40.545,41.143Zm7.431-1.333a2.011,2.011,0,0,1-.835,1.729,3.925,3.925,0,0,1-2.344.608,5.1,5.1,0,0,1-2.49-.505V40.513a6.022,6.022,0,0,0,1.241.461,5.184,5.184,0,0,0,1.278.168,2.9,2.9,0,0,0,1.465-.3,1.046,1.046,0,0,0,.106-1.729,6.394,6.394,0,0,0-1.586-.787,8.6,8.6,0,0,1-1.593-.729,2.176,2.176,0,0,1-.7-.707,1.843,1.843,0,0,1-.231-.945,1.8,1.8,0,0,1,.8-1.549,3.72,3.72,0,0,1,2.19-.568,6.408,6.408,0,0,1,2.534.527l-.432.989a5.817,5.817,0,0,0-2.19-.5,2.52,2.52,0,0,0-1.3.271.838.838,0,0,0-.439.747.91.91,0,0,0,.165.549,1.626,1.626,0,0,0,.531.432,11.867,11.867,0,0,0,1.406.593,5.254,5.254,0,0,1,1.93,1.047A1.847,1.847,0,0,1,47.976,39.81Zm7.567,1.333a3.972,3.972,0,0,0,.623-.048,4.03,4.03,0,0,0,.476-.1v.93a2.223,2.223,0,0,1-.582.157,4.373,4.373,0,0,1-.692.062q-2.329,0-2.329-2.454V34.917h-1.15v-.586l1.15-.505.513-1.714h.7v1.86h2.329v.945H54.254v4.724a1.625,1.625,0,0,0,.344,1.113A1.2,1.2,0,0,0,55.543,41.143Zm9.181-3.164a4.428,4.428,0,0,1-.989,3.065A3.482,3.482,0,0,1,61,42.146a3.618,3.618,0,0,1-1.912-.505,3.335,3.335,0,0,1-1.289-1.45,5.054,5.054,0,0,1-.454-2.212,4.421,4.421,0,0,1,.981-3.058,3.471,3.471,0,0,1,2.725-1.095,3.4,3.4,0,0,1,2.677,1.121A4.409,4.409,0,0,1,64.724,37.979Zm-6.116,0a3.81,3.81,0,0,0,.615,2.344,2.442,2.442,0,0,0,3.622,0,3.791,3.791,0,0,0,.619-2.347,3.73,3.73,0,0,0-.619-2.325,2.175,2.175,0,0,0-1.827-.795,2.14,2.14,0,0,0-1.8.784A3.772,3.772,0,0,0,58.609,37.979Zm13.836,3.164a3.972,3.972,0,0,0,.623-.048,4.03,4.03,0,0,0,.476-.1v.93a2.223,2.223,0,0,1-.582.157,4.373,4.373,0,0,1-.692.062q-2.329,0-2.329-2.454V34.917H68.79v-.586l1.15-.505.513-1.714h.7v1.86h2.329v.945H71.156v4.724a1.625,1.625,0,0,0,.344,1.113A1.2,1.2,0,0,0,72.445,41.143Zm5.915-7.317a4.757,4.757,0,0,1,.959.088l-.168,1.128a4.142,4.142,0,0,0-.879-.11,2.139,2.139,0,0,0-1.666.791,2.884,2.884,0,0,0-.692,1.97V42H74.7V33.973h1l.139,1.487H75.9a3.529,3.529,0,0,1,1.077-1.208A2.424,2.424,0,0,1,78.36,33.826ZM85.307,42l-.242-1.143h-.059a3.378,3.378,0,0,1-1.2,1.022,3.65,3.65,0,0,1-1.49.267,2.681,2.681,0,0,1-1.871-.615,2.244,2.244,0,0,1-.677-1.75q0-2.432,3.889-2.549l1.362-.044v-.5a2.035,2.035,0,0,0-.406-1.4,1.672,1.672,0,0,0-1.3-.45,5.3,5.3,0,0,0-2.271.615l-.374-.93a5.713,5.713,0,0,1,1.3-.505,5.631,5.631,0,0,1,1.417-.183,3.058,3.058,0,0,1,2.128.637,2.66,2.66,0,0,1,.692,2.043V42Zm-2.747-.857a2.468,2.468,0,0,0,1.783-.623,2.3,2.3,0,0,0,.648-1.743v-.725l-1.216.051a4.422,4.422,0,0,0-2.091.45,1.358,1.358,0,0,0-.641,1.241,1.253,1.253,0,0,0,.4,1A1.657,1.657,0,0,0,82.561,41.143Zm8.91,1a3.426,3.426,0,0,1-2.7-1.073,4.412,4.412,0,0,1-.956-3.036,4.55,4.55,0,0,1,.97-3.113,3.494,3.494,0,0,1,2.765-1.1,5.487,5.487,0,0,1,1.157.125,3.812,3.812,0,0,1,.908.293l-.374,1.033a5.717,5.717,0,0,0-.879-.267,3.924,3.924,0,0,0-.842-.106q-2.446,0-2.446,3.12a3.715,3.715,0,0,0,.6,2.271,2.077,2.077,0,0,0,1.769.791,5.408,5.408,0,0,0,2.058-.432v1.077A4.386,4.386,0,0,1,91.471,42.146Zm4.684-4.255a14.3,14.3,0,0,1,.959-1.172l2.593-2.747h1.443L97.9,37.393,101.377,42H99.905l-2.834-3.794L96.155,39v3h-1.2V30.6h1.2v6.042q0,.4-.059,1.245Zm8.394-3.918h1.3l1.758,4.578a17.412,17.412,0,0,1,.718,2.263h.059q.1-.374.4-1.278t1.989-5.563h1.3l-3.45,9.141a4.56,4.56,0,0,1-1.2,1.923,2.547,2.547,0,0,1-1.681.568,4.891,4.891,0,0,1-1.1-.125V44.5a4.238,4.238,0,0,0,.9.088,1.857,1.857,0,0,0,1.787-1.406l.447-1.143Zm15.312,4.006a4.428,4.428,0,0,1-.989,3.065,3.482,3.482,0,0,1-2.732,1.1,3.618,3.618,0,0,1-1.912-.505,3.335,3.335,0,0,1-1.289-1.45,5.054,5.054,0,0,1-.454-2.212,4.421,4.421,0,0,1,.981-3.058,3.471,3.471,0,0,1,2.725-1.095,3.4,3.4,0,0,1,2.677,1.121A4.409,4.409,0,0,1,119.861,37.979Zm-6.116,0a3.81,3.81,0,0,0,.615,2.344,2.442,2.442,0,0,0,3.622,0,3.791,3.791,0,0,0,.619-2.347,3.73,3.73,0,0,0-.619-2.325,2.175,2.175,0,0,0-1.827-.795,2.14,2.14,0,0,0-1.8.784A3.772,3.772,0,0,0,113.746,37.979Zm8.94-4.006V39.18a2.1,2.1,0,0,0,.447,1.465,1.82,1.82,0,0,0,1.4.483,2.282,2.282,0,0,0,1.842-.688,3.473,3.473,0,0,0,.582-2.249V33.973h1.216V42h-1l-.176-1.077h-.066a2.423,2.423,0,0,1-1.036.908,3.483,3.483,0,0,1-1.512.315,3.069,3.069,0,0,1-2.194-.7,2.962,2.962,0,0,1-.729-2.227V33.973Zm11.276-.146a4.757,4.757,0,0,1,.959.088l-.168,1.128a4.142,4.142,0,0,0-.879-.11,2.139,2.139,0,0,0-1.666.791,2.884,2.884,0,0,0-.692,1.97V42H130.3V33.973h1l.139,1.487h.059a3.529,3.529,0,0,1,1.077-1.208A2.424,2.424,0,0,1,133.961,33.826ZM5.024,63.146a3.474,3.474,0,0,1-1.432-.289,2.693,2.693,0,0,1-1.088-.89H2.417A10.767,10.767,0,0,1,2.5,63.3v3.3H1.289V54.973h.989l.168,1.1H2.5A2.824,2.824,0,0,1,3.6,55.119a3.317,3.317,0,0,1,1.428-.293,2.967,2.967,0,0,1,2.465,1.091,5.811,5.811,0,0,1-.015,6.134A2.972,2.972,0,0,1,5.024,63.146Zm-.176-7.288a2.155,2.155,0,0,0-1.78.681A3.505,3.505,0,0,0,2.5,58.708v.271A4.017,4.017,0,0,0,3.069,61.4a2.145,2.145,0,0,0,1.809.729,1.881,1.881,0,0,0,1.63-.842,3.994,3.994,0,0,0,.59-2.322,3.844,3.844,0,0,0-.59-2.3A1.939,1.939,0,0,0,4.849,55.859Zm6.325-.886V60.18a2.1,2.1,0,0,0,.447,1.465,1.82,1.82,0,0,0,1.4.483,2.282,2.282,0,0,0,1.842-.688,3.473,3.473,0,0,0,.582-2.249V54.973h1.216V63h-1l-.176-1.077h-.066a2.423,2.423,0,0,1-1.036.908,3.483,3.483,0,0,1-1.512.315,3.069,3.069,0,0,1-2.194-.7,2.962,2.962,0,0,1-.729-2.227V54.973Zm11.276-.146a4.757,4.757,0,0,1,.959.088l-.168,1.128a4.142,4.142,0,0,0-.879-.11,2.139,2.139,0,0,0-1.666.791A2.884,2.884,0,0,0,20,58.693V63H18.788V54.973h1l.139,1.487h.059a3.529,3.529,0,0,1,1.077-1.208A2.424,2.424,0,0,1,22.45,54.826Zm5.219,8.32a3.426,3.426,0,0,1-2.7-1.073,4.412,4.412,0,0,1-.956-3.036,4.55,4.55,0,0,1,.97-3.113,3.494,3.494,0,0,1,2.765-1.1,5.487,5.487,0,0,1,1.157.125,3.812,3.812,0,0,1,.908.293l-.374,1.033a5.717,5.717,0,0,0-.879-.267,3.924,3.924,0,0,0-.842-.106q-2.446,0-2.446,3.12a3.715,3.715,0,0,0,.6,2.271,2.077,2.077,0,0,0,1.769.791,5.408,5.408,0,0,0,2.058-.432v1.077A4.386,4.386,0,0,1,27.669,63.146ZM36.645,63V57.807a2.1,2.1,0,0,0-.447-1.465,1.82,1.82,0,0,0-1.4-.483,2.292,2.292,0,0,0-1.849.688,3.487,3.487,0,0,0-.582,2.256V63H31.152V51.6h1.216v3.45a7.517,7.517,0,0,1-.059,1.033h.073a2.48,2.48,0,0,1,1.022-.912,3.322,3.322,0,0,1,1.512-.333,3.1,3.1,0,0,1,2.208.7,2.946,2.946,0,0,1,.736,2.223V63Zm8.2,0L44.6,61.857h-.059a3.378,3.378,0,0,1-1.2,1.022,3.65,3.65,0,0,1-1.49.267,2.681,2.681,0,0,1-1.871-.615,2.244,2.244,0,0,1-.677-1.75q0-2.432,3.889-2.549l1.362-.044v-.5a2.035,2.035,0,0,0-.406-1.4,1.672,1.672,0,0,0-1.3-.45,5.3,5.3,0,0,0-2.271.615l-.374-.93a5.713,5.713,0,0,1,1.3-.505,5.631,5.631,0,0,1,1.417-.183,3.058,3.058,0,0,1,2.128.637,2.66,2.66,0,0,1,.692,2.043V63ZM42.1,62.143a2.468,2.468,0,0,0,1.783-.623,2.3,2.3,0,0,0,.648-1.743v-.725l-1.216.051a4.422,4.422,0,0,0-2.091.45,1.358,1.358,0,0,0-.641,1.241,1.253,1.253,0,0,0,.4,1A1.657,1.657,0,0,0,42.1,62.143ZM52.979,60.81a2.011,2.011,0,0,1-.835,1.729,3.925,3.925,0,0,1-2.344.608,5.1,5.1,0,0,1-2.49-.505V61.513a6.022,6.022,0,0,0,1.241.461,5.184,5.184,0,0,0,1.278.168,2.9,2.9,0,0,0,1.465-.3,1.046,1.046,0,0,0,.106-1.729,6.394,6.394,0,0,0-1.586-.787,8.6,8.6,0,0,1-1.593-.729,2.176,2.176,0,0,1-.7-.707,1.843,1.843,0,0,1-.231-.945,1.8,1.8,0,0,1,.8-1.549,3.72,3.72,0,0,1,2.19-.568,6.408,6.408,0,0,1,2.534.527l-.432.989a5.817,5.817,0,0,0-2.19-.5,2.52,2.52,0,0,0-1.3.271.838.838,0,0,0-.439.747.91.91,0,0,0,.165.549,1.626,1.626,0,0,0,.531.432,11.867,11.867,0,0,0,1.406.593,5.254,5.254,0,0,1,1.93,1.047A1.847,1.847,0,0,1,52.979,60.81ZM55.722,63H54.506V54.973h1.216ZM54.4,52.8a.808.808,0,0,1,.205-.612.759.759,0,0,1,1.018,0,.793.793,0,0,1,.212.608.805.805,0,0,1-.212.612.744.744,0,0,1-1.018,0A.823.823,0,0,1,54.4,52.8ZM63.343,63V57.807a2.1,2.1,0,0,0-.447-1.465,1.82,1.82,0,0,0-1.4-.483,2.307,2.307,0,0,0-1.846.681,3.439,3.439,0,0,0-.586,2.249V63H57.85V54.973h.989l.2,1.1H59.1a2.483,2.483,0,0,1,1.047-.919,3.4,3.4,0,0,1,1.5-.326,3.049,3.049,0,0,1,2.183.7,2.977,2.977,0,0,1,.732,2.238V63Zm9.833-8.027v.769l-1.487.176a2.611,2.611,0,0,1,.527,1.6,2.373,2.373,0,0,1-.806,1.882,3.25,3.25,0,0,1-2.212.7,3.683,3.683,0,0,1-.674-.059,1.2,1.2,0,0,0-.776,1.033.525.525,0,0,0,.271.487,1.98,1.98,0,0,0,.93.157h1.421a3.182,3.182,0,0,1,2,.549,1.909,1.909,0,0,1,.7,1.6A2.279,2.279,0,0,1,72,65.9a5.723,5.723,0,0,1-3.12.7,4.263,4.263,0,0,1-2.428-.586,1.892,1.892,0,0,1-.853-1.655,1.859,1.859,0,0,1,.469-1.267,2.387,2.387,0,0,1,1.318-.725,1.272,1.272,0,0,1-.516-.432,1.144,1.144,0,0,1-.209-.681,1.293,1.293,0,0,1,.234-.769,2.464,2.464,0,0,1,.74-.637,2.168,2.168,0,0,1-1.014-.872,2.561,2.561,0,0,1-.392-1.406,2.6,2.6,0,0,1,.791-2.032,3.23,3.23,0,0,1,2.241-.714,4.075,4.075,0,0,1,1.135.146Zm-6.4,9.375a1.09,1.09,0,0,0,.549.989,3.032,3.032,0,0,0,1.575.337,4.394,4.394,0,0,0,2.267-.458,1.4,1.4,0,0,0,.736-1.241.982.982,0,0,0-.4-.9,3.129,3.129,0,0,0-1.516-.253H68.526a1.92,1.92,0,0,0-1.289.4A1.413,1.413,0,0,0,66.775,64.348Zm.659-6.8a1.634,1.634,0,0,0,.476,1.274,1.9,1.9,0,0,0,1.326.432,1.551,1.551,0,0,0,1.78-1.729,1.6,1.6,0,0,0-1.8-1.809,1.784,1.784,0,0,0-1.318.461A1.858,1.858,0,0,0,67.434,57.543Zm14.122,5.6a3.474,3.474,0,0,1-1.432-.289,2.693,2.693,0,0,1-1.088-.89h-.088a10.767,10.767,0,0,1,.088,1.333v3.3H77.821V54.973h.989l.168,1.1h.059a2.824,2.824,0,0,1,1.091-.952,3.317,3.317,0,0,1,1.428-.293,2.967,2.967,0,0,1,2.465,1.091,5.811,5.811,0,0,1-.015,6.134A2.972,2.972,0,0,1,81.556,63.146Zm-.176-7.288a2.155,2.155,0,0,0-1.78.681,3.505,3.505,0,0,0-.564,2.168v.271A4.017,4.017,0,0,0,79.6,61.4a2.145,2.145,0,0,0,1.809.729,1.881,1.881,0,0,0,1.63-.842,3.994,3.994,0,0,0,.59-2.322,3.844,3.844,0,0,0-.59-2.3A1.939,1.939,0,0,0,81.381,55.859ZM91.5,63l-.242-1.143H91.2A3.378,3.378,0,0,1,90,62.879a3.65,3.65,0,0,1-1.49.267,2.681,2.681,0,0,1-1.871-.615,2.244,2.244,0,0,1-.677-1.75q0-2.432,3.889-2.549l1.362-.044v-.5a2.035,2.035,0,0,0-.406-1.4,1.672,1.672,0,0,0-1.3-.45,5.3,5.3,0,0,0-2.271.615l-.374-.93a5.713,5.713,0,0,1,1.3-.505,5.631,5.631,0,0,1,1.417-.183,3.058,3.058,0,0,1,2.128.637,2.66,2.66,0,0,1,.692,2.043V63Zm-2.747-.857a2.468,2.468,0,0,0,1.783-.623,2.3,2.3,0,0,0,.648-1.743v-.725l-1.216.051a4.422,4.422,0,0,0-2.091.45,1.358,1.358,0,0,0-.641,1.241,1.253,1.253,0,0,0,.4,1A1.657,1.657,0,0,0,88.753,62.143Zm8.3,0a3.972,3.972,0,0,0,.623-.048,4.03,4.03,0,0,0,.476-.1v.93a2.223,2.223,0,0,1-.582.157,4.373,4.373,0,0,1-.692.062q-2.329,0-2.329-2.454V55.917h-1.15v-.586l1.15-.505.513-1.714h.7v1.86h2.329v.945H95.759v4.724a1.625,1.625,0,0,0,.344,1.113A1.2,1.2,0,0,0,97.048,62.143Zm4.845,0a3.972,3.972,0,0,0,.623-.048,4.03,4.03,0,0,0,.476-.1v.93a2.223,2.223,0,0,1-.582.157,4.373,4.373,0,0,1-.692.062q-2.329,0-2.329-2.454V55.917h-1.15v-.586l1.15-.505.513-1.714h.7v1.86h2.329v.945H100.6v4.724a1.625,1.625,0,0,0,.344,1.113A1.2,1.2,0,0,0,101.893,62.143Zm5.644,1a3.688,3.688,0,0,1-2.809-1.084,4.2,4.2,0,0,1-1.029-3.01,4.654,4.654,0,0,1,.956-3.083,3.175,3.175,0,0,1,2.567-1.143,3.027,3.027,0,0,1,2.388.992,3.8,3.8,0,0,1,.879,2.618v.769h-5.53a3.182,3.182,0,0,0,.714,2.146,2.47,2.47,0,0,0,1.908.732,6.466,6.466,0,0,0,2.563-.542v1.084a6.434,6.434,0,0,1-1.219.4A6.853,6.853,0,0,1,107.537,63.146Zm-.33-7.3a1.985,1.985,0,0,0-1.542.63,2.9,2.9,0,0,0-.677,1.743h4.2a2.673,2.673,0,0,0-.513-1.761A1.8,1.8,0,0,0,107.208,55.844Zm8.566-1.018a4.757,4.757,0,0,1,.959.088l-.168,1.128a4.142,4.142,0,0,0-.879-.11,2.139,2.139,0,0,0-1.666.791,2.884,2.884,0,0,0-.692,1.97V63h-1.216V54.973h1l.139,1.487h.059a3.529,3.529,0,0,1,1.077-1.208A2.424,2.424,0,0,1,115.774,54.826Zm7.5,8.174V57.807a2.1,2.1,0,0,0-.447-1.465,1.82,1.82,0,0,0-1.4-.483,2.307,2.307,0,0,0-1.846.681A3.439,3.439,0,0,0,119,58.789V63h-1.216V54.973h.989l.2,1.1h.059a2.483,2.483,0,0,1,1.047-.919,3.4,3.4,0,0,1,1.5-.326,3.049,3.049,0,0,1,2.183.7,2.977,2.977,0,0,1,.732,2.238V63Zm4.538-1.743.11.168q-.19.732-.549,1.7t-.747,1.805h-.916q.2-.762.436-1.882t.333-1.794ZM4.5,84.146a3.426,3.426,0,0,1-2.7-1.073,4.412,4.412,0,0,1-.956-3.036,4.55,4.55,0,0,1,.97-3.113,3.494,3.494,0,0,1,2.765-1.1,5.487,5.487,0,0,1,1.157.125,3.812,3.812,0,0,1,.908.293L6.27,77.276a5.717,5.717,0,0,0-.879-.267,3.924,3.924,0,0,0-.842-.106Q2.1,76.9,2.1,80.023a3.715,3.715,0,0,0,.6,2.271,2.077,2.077,0,0,0,1.769.791,5.408,5.408,0,0,0,2.058-.432v1.077A4.386,4.386,0,0,1,4.5,84.146Zm7.145-8.32a4.757,4.757,0,0,1,.959.088l-.168,1.128a4.142,4.142,0,0,0-.879-.11,2.139,2.139,0,0,0-1.666.791,2.884,2.884,0,0,0-.692,1.97V84H7.98V75.973h1l.139,1.487h.059a3.529,3.529,0,0,1,1.077-1.208A2.424,2.424,0,0,1,11.642,75.826Zm.737.146h1.3L15.44,80.55a17.412,17.412,0,0,1,.718,2.263h.059q.1-.374.4-1.278T18.6,75.973h1.3l-3.45,9.141a4.56,4.56,0,0,1-1.2,1.923,2.547,2.547,0,0,1-1.681.568,4.891,4.891,0,0,1-1.1-.125V86.5a4.238,4.238,0,0,0,.9.088,1.857,1.857,0,0,0,1.787-1.406l.447-1.143ZM24.5,84.146a3.474,3.474,0,0,1-1.432-.289,2.693,2.693,0,0,1-1.088-.89H21.89a10.767,10.767,0,0,1,.088,1.333v3.3H20.762V75.973h.989l.168,1.1h.059a2.824,2.824,0,0,1,1.091-.952,3.317,3.317,0,0,1,1.428-.293,2.967,2.967,0,0,1,2.465,1.091,5.811,5.811,0,0,1-.015,6.134A2.972,2.972,0,0,1,24.5,84.146Zm-.176-7.288a2.155,2.155,0,0,0-1.78.681,3.505,3.505,0,0,0-.564,2.168v.271a4.017,4.017,0,0,0,.564,2.421,2.145,2.145,0,0,0,1.809.729,1.881,1.881,0,0,0,1.63-.842,3.994,3.994,0,0,0,.59-2.322,3.844,3.844,0,0,0-.59-2.3A1.939,1.939,0,0,0,24.321,76.859ZM32.1,83.143a3.972,3.972,0,0,0,.623-.048A4.03,4.03,0,0,0,33.2,83v.93a2.223,2.223,0,0,1-.582.157,4.373,4.373,0,0,1-.692.062q-2.329,0-2.329-2.454V76.917h-1.15v-.586l1.15-.505.513-1.714h.7v1.86h2.329v.945H30.807v4.724a1.625,1.625,0,0,0,.344,1.113A1.2,1.2,0,0,0,32.1,83.143Zm9.181-3.164a4.428,4.428,0,0,1-.989,3.065,3.482,3.482,0,0,1-2.732,1.1,3.618,3.618,0,0,1-1.912-.505,3.335,3.335,0,0,1-1.289-1.45,5.054,5.054,0,0,1-.454-2.212,4.421,4.421,0,0,1,.981-3.058,3.471,3.471,0,0,1,2.725-1.095,3.4,3.4,0,0,1,2.677,1.121A4.409,4.409,0,0,1,41.278,79.979Zm-6.116,0a3.81,3.81,0,0,0,.615,2.344,2.442,2.442,0,0,0,3.622,0,3.791,3.791,0,0,0,.619-2.347,3.73,3.73,0,0,0-.619-2.325,2.175,2.175,0,0,0-1.827-.795,2.14,2.14,0,0,0-1.8.784A3.772,3.772,0,0,0,35.162,79.979Zm14.979,4.167a3.474,3.474,0,0,1-1.432-.289,2.693,2.693,0,0,1-1.088-.89h-.088a10.767,10.767,0,0,1,.088,1.333v3.3H46.406V75.973h.989l.168,1.1h.059a2.824,2.824,0,0,1,1.091-.952,3.317,3.317,0,0,1,1.428-.293,2.967,2.967,0,0,1,2.465,1.091,5.811,5.811,0,0,1-.015,6.134A2.972,2.972,0,0,1,50.141,84.146Zm-.176-7.288a2.155,2.155,0,0,0-1.78.681,3.505,3.505,0,0,0-.564,2.168v.271a4.017,4.017,0,0,0,.564,2.421,2.145,2.145,0,0,0,1.809.729,1.881,1.881,0,0,0,1.63-.842,3.994,3.994,0,0,0,.59-2.322,3.844,3.844,0,0,0-.59-2.3A1.939,1.939,0,0,0,49.965,76.859Zm8.844-1.033a4.757,4.757,0,0,1,.959.088L59.6,77.042a4.142,4.142,0,0,0-.879-.11,2.139,2.139,0,0,0-1.666.791,2.884,2.884,0,0,0-.692,1.97V84H55.148V75.973h1l.139,1.487h.059a3.529,3.529,0,0,1,1.077-1.208A2.424,2.424,0,0,1,58.81,75.826Zm8.94,4.153a4.428,4.428,0,0,1-.989,3.065,3.482,3.482,0,0,1-2.732,1.1,3.618,3.618,0,0,1-1.912-.505,3.335,3.335,0,0,1-1.289-1.45,5.054,5.054,0,0,1-.454-2.212,4.421,4.421,0,0,1,.981-3.058,3.471,3.471,0,0,1,2.725-1.095,3.4,3.4,0,0,1,2.677,1.121A4.409,4.409,0,0,1,67.749,79.979Zm-6.116,0a3.81,3.81,0,0,0,.615,2.344,2.442,2.442,0,0,0,3.622,0,3.791,3.791,0,0,0,.619-2.347,3.73,3.73,0,0,0-.619-2.325,2.175,2.175,0,0,0-1.827-.795,2.14,2.14,0,0,0-1.8.784A3.772,3.772,0,0,0,61.634,79.979ZM68.457,87.6a2.926,2.926,0,0,1-1.128-.183v-.989a3.566,3.566,0,0,0,1,.146,1.047,1.047,0,0,0,.839-.311,1.428,1.428,0,0,0,.267-.948V75.973h1.216V85.23Q70.646,87.6,68.457,87.6ZM69.328,73.8a.808.808,0,0,1,.205-.612.759.759,0,0,1,1.018,0,.793.793,0,0,1,.212.608.805.805,0,0,1-.212.612.744.744,0,0,1-1.018,0A.823.823,0,0,1,69.328,73.8Zm6.838,10.349a3.688,3.688,0,0,1-2.809-1.084,4.2,4.2,0,0,1-1.029-3.01,4.654,4.654,0,0,1,.956-3.083,3.175,3.175,0,0,1,2.567-1.143,3.027,3.027,0,0,1,2.388.992,3.8,3.8,0,0,1,.879,2.618v.769h-5.53a3.182,3.182,0,0,0,.714,2.146,2.47,2.47,0,0,0,1.908.732,6.466,6.466,0,0,0,2.563-.542v1.084a6.434,6.434,0,0,1-1.219.4A6.853,6.853,0,0,1,76.166,84.146Zm-.33-7.3a1.985,1.985,0,0,0-1.542.63,2.9,2.9,0,0,0-.677,1.743h4.2a2.673,2.673,0,0,0-.513-1.761A1.8,1.8,0,0,0,75.836,76.844Zm8.112,7.3a3.426,3.426,0,0,1-2.7-1.073,4.412,4.412,0,0,1-.956-3.036,4.55,4.55,0,0,1,.97-3.113,3.494,3.494,0,0,1,2.765-1.1,5.487,5.487,0,0,1,1.157.125,3.812,3.812,0,0,1,.908.293l-.374,1.033a5.717,5.717,0,0,0-.879-.267A3.924,3.924,0,0,0,84,76.9q-2.446,0-2.446,3.12a3.715,3.715,0,0,0,.6,2.271,2.077,2.077,0,0,0,1.769.791,5.408,5.408,0,0,0,2.058-.432v1.077A4.386,4.386,0,0,1,83.948,84.146Zm6.076-1a3.972,3.972,0,0,0,.623-.048,4.03,4.03,0,0,0,.476-.1v.93a2.223,2.223,0,0,1-.582.157,4.373,4.373,0,0,1-.692.062q-2.329,0-2.329-2.454V76.917h-1.15v-.586l1.15-.505.513-1.714h.7v1.86h2.329v.945H88.735v4.724a1.625,1.625,0,0,0,.344,1.113A1.2,1.2,0,0,0,90.024,83.143ZM93.492,84H92.277V75.973h1.216ZM92.174,73.8a.808.808,0,0,1,.205-.612.759.759,0,0,1,1.018,0,.793.793,0,0,1,.212.608.805.805,0,0,1-.212.612.744.744,0,0,1-1.018,0A.823.823,0,0,1,92.174,73.8Zm10.375,6.182a4.428,4.428,0,0,1-.989,3.065,3.482,3.482,0,0,1-2.732,1.1,3.618,3.618,0,0,1-1.912-.505,3.335,3.335,0,0,1-1.289-1.45,5.054,5.054,0,0,1-.454-2.212,4.421,4.421,0,0,1,.981-3.058,3.471,3.471,0,0,1,2.725-1.095,3.4,3.4,0,0,1,2.677,1.121A4.409,4.409,0,0,1,102.549,79.979Zm-6.116,0a3.81,3.81,0,0,0,.615,2.344,2.442,2.442,0,0,0,3.622,0,3.791,3.791,0,0,0,.619-2.347,3.73,3.73,0,0,0-.619-2.325,2.175,2.175,0,0,0-1.827-.795,2.14,2.14,0,0,0-1.8.784A3.772,3.772,0,0,0,96.434,79.979ZM109.724,84V78.807a2.1,2.1,0,0,0-.447-1.465,1.82,1.82,0,0,0-1.4-.483,2.307,2.307,0,0,0-1.846.681,3.439,3.439,0,0,0-.586,2.249V84h-1.216V75.973h.989l.2,1.1h.059a2.483,2.483,0,0,1,1.047-.919,3.4,3.4,0,0,1,1.5-.326,3.049,3.049,0,0,1,2.183.7,2.977,2.977,0,0,1,.732,2.238V84Zm8.442-2.19a2.011,2.011,0,0,1-.835,1.729,3.925,3.925,0,0,1-2.344.608,5.1,5.1,0,0,1-2.49-.505V82.513a6.022,6.022,0,0,0,1.241.461,5.184,5.184,0,0,0,1.278.168,2.9,2.9,0,0,0,1.465-.3,1.046,1.046,0,0,0,.106-1.729A6.394,6.394,0,0,0,115,80.323a8.6,8.6,0,0,1-1.593-.729,2.176,2.176,0,0,1-.7-.707,1.843,1.843,0,0,1-.231-.945,1.8,1.8,0,0,1,.8-1.549,3.72,3.72,0,0,1,2.19-.568,6.408,6.408,0,0,1,2.534.527l-.432.989a5.817,5.817,0,0,0-2.19-.5,2.52,2.52,0,0,0-1.3.271.838.838,0,0,0-.439.747.91.91,0,0,0,.165.549,1.626,1.626,0,0,0,.531.432,11.867,11.867,0,0,0,1.406.593,5.254,5.254,0,0,1,1.93,1.047A1.847,1.847,0,0,1,118.165,81.81Zm2.8.447.11.168q-.19.732-.549,1.7t-.747,1.805h-.916q.2-.762.436-1.882t.333-1.794ZM2.5,105H1.289V96.973H2.5ZM1.187,94.8a.808.808,0,0,1,.205-.612.717.717,0,0,1,.513-.194.716.716,0,0,1,.505.2.793.793,0,0,1,.212.608.805.805,0,0,1-.212.612.709.709,0,0,1-.505.2.7.7,0,0,1-.513-.2A.823.823,0,0,1,1.187,94.8Zm8.94,10.2V99.807a2.1,2.1,0,0,0-.447-1.465,1.82,1.82,0,0,0-1.4-.483,2.307,2.307,0,0,0-1.846.681,3.439,3.439,0,0,0-.586,2.249V105H4.633V96.973h.989l.2,1.1h.059a2.483,2.483,0,0,1,1.047-.919,3.4,3.4,0,0,1,1.5-.326,3.049,3.049,0,0,1,2.183.7,2.977,2.977,0,0,1,.732,2.238V105Zm8.727-1.077h-.066a2.857,2.857,0,0,1-2.52,1.223,2.981,2.981,0,0,1-2.45-1.077,4.739,4.739,0,0,1-.875-3.062,4.819,4.819,0,0,1,.879-3.083,2.958,2.958,0,0,1,2.446-1.1,2.919,2.919,0,0,1,2.5,1.187h.1l-.051-.579-.029-.564V93.6H20V105h-.989Zm-2.432.205a2.214,2.214,0,0,0,1.805-.677,3.423,3.423,0,0,0,.56-2.186v-.256a4.028,4.028,0,0,0-.568-2.435,2.156,2.156,0,0,0-1.813-.729,1.861,1.861,0,0,0-1.637.831,4.134,4.134,0,0,0-.568,2.347,3.963,3.963,0,0,0,.564,2.322A1.91,1.91,0,0,0,16.422,104.128Zm6.852-7.156v5.208a2.1,2.1,0,0,0,.447,1.465,1.82,1.82,0,0,0,1.4.483,2.282,2.282,0,0,0,1.842-.688,3.473,3.473,0,0,0,.582-2.249V96.973H28.76V105h-1l-.176-1.077h-.066a2.423,2.423,0,0,1-1.036.908,3.483,3.483,0,0,1-1.512.315,3.069,3.069,0,0,1-2.194-.7,2.962,2.962,0,0,1-.729-2.227V96.973Zm12.792,5.837a2.011,2.011,0,0,1-.835,1.729,3.925,3.925,0,0,1-2.344.608,5.1,5.1,0,0,1-2.49-.505v-1.128a6.022,6.022,0,0,0,1.241.461,5.184,5.184,0,0,0,1.278.168,2.9,2.9,0,0,0,1.465-.3,1.046,1.046,0,0,0,.106-1.729,6.394,6.394,0,0,0-1.586-.787,8.6,8.6,0,0,1-1.593-.729,2.176,2.176,0,0,1-.7-.707,1.843,1.843,0,0,1-.231-.945,1.8,1.8,0,0,1,.8-1.549,3.72,3.72,0,0,1,2.19-.568,6.408,6.408,0,0,1,2.534.527l-.432.989a5.817,5.817,0,0,0-2.19-.5,2.52,2.52,0,0,0-1.3.271.838.838,0,0,0-.439.747.91.91,0,0,0,.165.549,1.626,1.626,0,0,0,.531.432,11.867,11.867,0,0,0,1.406.593,5.254,5.254,0,0,1,1.93,1.047A1.847,1.847,0,0,1,36.066,102.81Zm4.12,1.333a3.972,3.972,0,0,0,.623-.048,4.03,4.03,0,0,0,.476-.1v.93a2.223,2.223,0,0,1-.582.157,4.373,4.373,0,0,1-.692.062q-2.329,0-2.329-2.454V97.917h-1.15v-.586l1.15-.505.513-1.714h.7v1.86h2.329v.945H38.9v4.724a1.625,1.625,0,0,0,.344,1.113A1.2,1.2,0,0,0,40.187,104.143ZM46.1,96.826a4.757,4.757,0,0,1,.959.088l-.168,1.128a4.142,4.142,0,0,0-.879-.11,2.139,2.139,0,0,0-1.666.791,2.884,2.884,0,0,0-.692,1.97V105H42.439V96.973h1l.139,1.487h.059a3.529,3.529,0,0,1,1.077-1.208A2.424,2.424,0,0,1,46.1,96.826Zm.737.146h1.3L49.9,101.55a17.412,17.412,0,0,1,.718,2.263h.059q.1-.374.4-1.278t1.989-5.563h1.3l-3.45,9.141a4.56,4.56,0,0,1-1.2,1.923,2.547,2.547,0,0,1-1.681.568,4.891,4.891,0,0,1-1.1-.125V107.5a4.238,4.238,0,0,0,.9.088,1.857,1.857,0,0,0,1.787-1.406l.447-1.143ZM62.4,105.146a3.474,3.474,0,0,1-1.432-.289,2.693,2.693,0,0,1-1.088-.89H59.8a10.767,10.767,0,0,1,.088,1.333v3.3H58.667V96.973h.989l.168,1.1h.059a2.824,2.824,0,0,1,1.091-.952,3.317,3.317,0,0,1,1.428-.293,2.967,2.967,0,0,1,2.465,1.091,5.811,5.811,0,0,1-.015,6.134A2.972,2.972,0,0,1,62.4,105.146Zm-.176-7.288a2.155,2.155,0,0,0-1.78.681,3.505,3.505,0,0,0-.564,2.168v.271a4.017,4.017,0,0,0,.564,2.421,2.145,2.145,0,0,0,1.809.729,1.881,1.881,0,0,0,1.63-.842,3.994,3.994,0,0,0,.59-2.322,3.844,3.844,0,0,0-.59-2.3A1.939,1.939,0,0,0,62.227,97.859Zm8.573,7.288a3.688,3.688,0,0,1-2.809-1.084,4.2,4.2,0,0,1-1.029-3.01,4.654,4.654,0,0,1,.956-3.083,3.175,3.175,0,0,1,2.567-1.143,3.027,3.027,0,0,1,2.388.992,3.8,3.8,0,0,1,.879,2.618v.769h-5.53a3.182,3.182,0,0,0,.714,2.146,2.47,2.47,0,0,0,1.908.732,6.466,6.466,0,0,0,2.563-.542v1.084a6.434,6.434,0,0,1-1.219.4A6.853,6.853,0,0,1,70.8,105.146Zm-.33-7.3a1.985,1.985,0,0,0-1.542.63,2.9,2.9,0,0,0-.677,1.743h4.2a2.673,2.673,0,0,0-.513-1.761A1.8,1.8,0,0,0,70.471,97.844Zm8.566-1.018a4.757,4.757,0,0,1,.959.088l-.168,1.128a4.142,4.142,0,0,0-.879-.11,2.139,2.139,0,0,0-1.666.791,2.884,2.884,0,0,0-.692,1.97V105H75.375V96.973h1l.139,1.487h.059a3.529,3.529,0,0,1,1.077-1.208A2.424,2.424,0,0,1,79.037,96.826Zm5.629,1.091H82.622V105H81.407V97.917H79.971v-.549l1.436-.439v-.447q0-2.959,2.585-2.959a5.32,5.32,0,0,1,1.494.256l-.315.974a4.022,4.022,0,0,0-1.2-.227,1.17,1.17,0,0,0-1.018.458,2.555,2.555,0,0,0-.33,1.469v.52h2.043Zm7.944,3.062a4.428,4.428,0,0,1-.989,3.065,3.482,3.482,0,0,1-2.732,1.1,3.618,3.618,0,0,1-1.912-.505,3.335,3.335,0,0,1-1.289-1.45,5.054,5.054,0,0,1-.454-2.212,4.421,4.421,0,0,1,.981-3.058,3.471,3.471,0,0,1,2.725-1.095,3.4,3.4,0,0,1,2.677,1.121A4.409,4.409,0,0,1,92.609,100.979Zm-6.116,0a3.81,3.81,0,0,0,.615,2.344,2.442,2.442,0,0,0,3.622,0,3.791,3.791,0,0,0,.619-2.347,3.73,3.73,0,0,0-.619-2.325,2.175,2.175,0,0,0-1.827-.795,2.14,2.14,0,0,0-1.8.784A3.772,3.772,0,0,0,86.494,100.979Zm11.459-4.153a4.757,4.757,0,0,1,.959.088l-.168,1.128a4.142,4.142,0,0,0-.879-.11,2.139,2.139,0,0,0-1.666.791,2.884,2.884,0,0,0-.692,1.97V105H94.291V96.973h1l.139,1.487h.059a3.529,3.529,0,0,1,1.077-1.208A2.424,2.424,0,0,1,97.953,96.826ZM110.2,105V99.778a2.168,2.168,0,0,0-.41-1.439,1.586,1.586,0,0,0-1.274-.48,2.058,2.058,0,0,0-1.677.652,3.1,3.1,0,0,0-.542,2.007V105h-1.216V99.778a2.168,2.168,0,0,0-.41-1.439,1.6,1.6,0,0,0-1.282-.48,1.985,1.985,0,0,0-1.674.685,3.706,3.706,0,0,0-.531,2.245V105H99.964V96.973h.989l.2,1.1h.059a2.39,2.39,0,0,1,.97-.916,2.965,2.965,0,0,1,1.4-.33,2.385,2.385,0,0,1,2.461,1.362h.059a2.56,2.56,0,0,1,1.04-1,3.227,3.227,0,0,1,1.553-.366,2.718,2.718,0,0,1,2.04.7,3.129,3.129,0,0,1,.677,2.238V105Zm8.207,0-.242-1.143H118.1a3.378,3.378,0,0,1-1.2,1.022,3.65,3.65,0,0,1-1.49.267,2.681,2.681,0,0,1-1.871-.615,2.244,2.244,0,0,1-.677-1.75q0-2.432,3.889-2.549l1.362-.044v-.5a2.035,2.035,0,0,0-.406-1.4,1.672,1.672,0,0,0-1.3-.45,5.3,5.3,0,0,0-2.271.615l-.374-.93a5.713,5.713,0,0,1,1.3-.505,5.631,5.631,0,0,1,1.417-.183,3.058,3.058,0,0,1,2.128.637,2.66,2.66,0,0,1,.692,2.043V105Zm-2.747-.857a2.468,2.468,0,0,0,1.783-.623,2.3,2.3,0,0,0,.648-1.743v-.725l-1.216.051a4.422,4.422,0,0,0-2.091.45,1.358,1.358,0,0,0-.641,1.241,1.253,1.253,0,0,0,.4,1A1.657,1.657,0,0,0,115.656,104.143Zm11.2.857V99.807a2.1,2.1,0,0,0-.447-1.465,1.82,1.82,0,0,0-1.4-.483,2.307,2.307,0,0,0-1.846.681,3.439,3.439,0,0,0-.586,2.249V105h-1.216V96.973h.989l.2,1.1h.059a2.483,2.483,0,0,1,1.047-.919,3.4,3.4,0,0,1,1.5-.326,3.049,3.049,0,0,1,2.183.7,2.977,2.977,0,0,1,.732,2.238V105Zm6.471.146a3.426,3.426,0,0,1-2.7-1.073,4.412,4.412,0,0,1-.956-3.036,4.55,4.55,0,0,1,.97-3.113,3.494,3.494,0,0,1,2.765-1.1,5.487,5.487,0,0,1,1.157.125,3.812,3.812,0,0,1,.908.293l-.374,1.033a5.717,5.717,0,0,0-.879-.267,3.924,3.924,0,0,0-.842-.106q-2.446,0-2.446,3.12a3.715,3.715,0,0,0,.6,2.271,2.077,2.077,0,0,0,1.769.791,5.408,5.408,0,0,0,2.058-.432v1.077A4.386,4.386,0,0,1,133.323,105.146Zm6.874,0a3.688,3.688,0,0,1-2.809-1.084,4.2,4.2,0,0,1-1.029-3.01,4.654,4.654,0,0,1,.956-3.083,3.175,3.175,0,0,1,2.567-1.143,3.027,3.027,0,0,1,2.388.992,3.8,3.8,0,0,1,.879,2.618v.769h-5.53a3.182,3.182,0,0,0,.714,2.146,2.47,2.47,0,0,0,1.908.732,6.466,6.466,0,0,0,2.563-.542v1.084a6.434,6.434,0,0,1-1.219.4A6.853,6.853,0,0,1,140.2,105.146Zm-.33-7.3a1.985,1.985,0,0,0-1.542.63,2.9,2.9,0,0,0-.677,1.743h4.2a2.673,2.673,0,0,0-.513-1.761A1.8,1.8,0,0,0,139.868,97.844Zm10.943,6.3a3.972,3.972,0,0,0,.623-.048,4.03,4.03,0,0,0,.476-.1v.93a2.223,2.223,0,0,1-.582.157,4.373,4.373,0,0,1-.692.062q-2.329,0-2.329-2.454V97.917h-1.15v-.586l1.15-.505.513-1.714h.7v1.86h2.329v.945h-2.329v4.724a1.625,1.625,0,0,0,.344,1.113A1.2,1.2,0,0,0,150.811,104.143Zm9.181-3.164a4.428,4.428,0,0,1-.989,3.065,3.482,3.482,0,0,1-2.732,1.1,3.618,3.618,0,0,1-1.912-.505,3.335,3.335,0,0,1-1.289-1.45,5.054,5.054,0,0,1-.454-2.212,4.421,4.421,0,0,1,.981-3.058,3.471,3.471,0,0,1,2.725-1.095A3.4,3.4,0,0,1,159,97.947,4.409,4.409,0,0,1,159.993,100.979Zm-6.116,0a3.81,3.81,0,0,0,.615,2.344,2.442,2.442,0,0,0,3.622,0,3.791,3.791,0,0,0,.619-2.347,3.73,3.73,0,0,0-.619-2.325,2.175,2.175,0,0,0-1.827-.795,2.14,2.14,0,0,0-1.8.784A3.772,3.772,0,0,0,153.877,100.979Zm-150,24.164A3.972,3.972,0,0,0,4.5,125.1a4.03,4.03,0,0,0,.476-.1v.93a2.223,2.223,0,0,1-.582.157,4.373,4.373,0,0,1-.692.062q-2.329,0-2.329-2.454v-4.775H.227v-.586l1.15-.505.513-1.714h.7v1.86H4.922v.945H2.593v4.724a1.625,1.625,0,0,0,.344,1.113A1.2,1.2,0,0,0,3.882,125.143Zm7.189.857-.242-1.143h-.059a3.378,3.378,0,0,1-1.2,1.022,3.65,3.65,0,0,1-1.49.267,2.681,2.681,0,0,1-1.871-.615,2.244,2.244,0,0,1-.677-1.75q0-2.432,3.889-2.549l1.362-.044v-.5a2.035,2.035,0,0,0-.406-1.4,1.672,1.672,0,0,0-1.3-.45,5.3,5.3,0,0,0-2.271.615l-.374-.93a5.713,5.713,0,0,1,1.3-.505,5.631,5.631,0,0,1,1.417-.183,3.058,3.058,0,0,1,2.128.637,2.66,2.66,0,0,1,.692,2.043V126Zm-2.747-.857a2.468,2.468,0,0,0,1.783-.623,2.3,2.3,0,0,0,.648-1.743v-.725L9.54,122.1a4.422,4.422,0,0,0-2.091.45,1.358,1.358,0,0,0-.641,1.241,1.253,1.253,0,0,0,.4,1A1.657,1.657,0,0,0,8.324,125.143Zm6.9-3.252a14.3,14.3,0,0,1,.959-1.172l2.593-2.747h1.443l-3.252,3.42L20.45,126H18.978l-2.834-3.794-.916.791v3h-1.2V114.6h1.2v6.042q0,.4-.059,1.245Zm9.613,4.255a3.688,3.688,0,0,1-2.809-1.084A4.2,4.2,0,0,1,21,122.052a4.654,4.654,0,0,1,.956-3.083,3.175,3.175,0,0,1,2.567-1.143,3.027,3.027,0,0,1,2.388.992,3.8,3.8,0,0,1,.879,2.618v.769h-5.53a3.182,3.182,0,0,0,.714,2.146,2.47,2.47,0,0,0,1.908.732,6.466,6.466,0,0,0,2.563-.542v1.084a6.434,6.434,0,0,1-1.219.4A6.853,6.853,0,0,1,24.841,126.146Zm-.33-7.3a1.985,1.985,0,0,0-1.542.63,2.9,2.9,0,0,0-.677,1.743h4.2a2.673,2.673,0,0,0-.513-1.761A1.8,1.8,0,0,0,24.512,118.844ZM34.078,126H32.862v-8.027h1.216ZM32.76,115.8a.808.808,0,0,1,.205-.612.759.759,0,0,1,1.018,0,.793.793,0,0,1,.212.608.805.805,0,0,1-.212.612.744.744,0,0,1-1.018,0A.823.823,0,0,1,32.76,115.8ZM41.7,126v-5.193a2.1,2.1,0,0,0-.447-1.465,1.82,1.82,0,0,0-1.4-.483,2.307,2.307,0,0,0-1.846.681,3.439,3.439,0,0,0-.586,2.249V126H36.206v-8.027H37.2l.2,1.1h.059a2.483,2.483,0,0,1,1.047-.919,3.4,3.4,0,0,1,1.5-.326,3.049,3.049,0,0,1,2.183.7,2.977,2.977,0,0,1,.732,2.238V126Zm6.882-7.083H46.537V126H45.322v-7.083H43.886v-.549l1.436-.439v-.447q0-2.959,2.585-2.959a5.32,5.32,0,0,1,1.494.256l-.315.974a4.022,4.022,0,0,0-1.2-.227,1.17,1.17,0,0,0-1.018.458,2.555,2.555,0,0,0-.33,1.469v.52h2.043Zm7.944,3.062a4.428,4.428,0,0,1-.989,3.065,3.482,3.482,0,0,1-2.732,1.1,3.618,3.618,0,0,1-1.912-.505,3.335,3.335,0,0,1-1.289-1.45,5.054,5.054,0,0,1-.454-2.212,4.421,4.421,0,0,1,.981-3.058,3.471,3.471,0,0,1,2.725-1.095,3.4,3.4,0,0,1,2.677,1.121A4.409,4.409,0,0,1,56.525,121.979Zm-6.116,0a3.81,3.81,0,0,0,.615,2.344,2.442,2.442,0,0,0,3.622,0,3.791,3.791,0,0,0,.619-2.347,3.73,3.73,0,0,0-.619-2.325,2.175,2.175,0,0,0-1.827-.795,2.14,2.14,0,0,0-1.8.784A3.772,3.772,0,0,0,50.409,121.979Zm11.459-4.153a4.757,4.757,0,0,1,.959.088l-.168,1.128a4.142,4.142,0,0,0-.879-.11,2.139,2.139,0,0,0-1.666.791,2.884,2.884,0,0,0-.692,1.97V126H58.206v-8.027h1l.139,1.487h.059a3.529,3.529,0,0,1,1.077-1.208A2.424,2.424,0,0,1,61.868,117.826ZM74.111,126v-5.222a2.168,2.168,0,0,0-.41-1.439,1.586,1.586,0,0,0-1.274-.48,2.058,2.058,0,0,0-1.677.652,3.1,3.1,0,0,0-.542,2.007V126H68.991v-5.222a2.168,2.168,0,0,0-.41-1.439,1.6,1.6,0,0,0-1.282-.48,1.985,1.985,0,0,0-1.674.685,3.706,3.706,0,0,0-.531,2.245V126H63.879v-8.027h.989l.2,1.1h.059a2.389,2.389,0,0,1,.97-.916,2.965,2.965,0,0,1,1.4-.33,2.385,2.385,0,0,1,2.461,1.362h.059a2.56,2.56,0,0,1,1.04-1,3.227,3.227,0,0,1,1.553-.366,2.718,2.718,0,0,1,2.04.7,3.129,3.129,0,0,1,.677,2.238V126Zm6.662.146a3.688,3.688,0,0,1-2.809-1.084,4.2,4.2,0,0,1-1.029-3.01,4.654,4.654,0,0,1,.956-3.083,3.175,3.175,0,0,1,2.567-1.143,3.027,3.027,0,0,1,2.388.992,3.8,3.8,0,0,1,.879,2.618v.769h-5.53a3.182,3.182,0,0,0,.714,2.146,2.47,2.47,0,0,0,1.908.732,6.466,6.466,0,0,0,2.563-.542v1.084a6.434,6.434,0,0,1-1.219.4A6.853,6.853,0,0,1,80.773,126.146Zm-.33-7.3a1.985,1.985,0,0,0-1.542.63,2.9,2.9,0,0,0-.677,1.743h4.2a2.673,2.673,0,0,0-.513-1.761A1.8,1.8,0,0,0,80.443,118.844Zm10.368,6.079h-.066a2.857,2.857,0,0,1-2.52,1.223,2.981,2.981,0,0,1-2.45-1.077,4.739,4.739,0,0,1-.875-3.062,4.819,4.819,0,0,1,.879-3.083,2.958,2.958,0,0,1,2.446-1.1,2.919,2.919,0,0,1,2.5,1.187h.1l-.051-.579-.029-.564V114.6h1.216V126h-.989Zm-2.432.205a2.214,2.214,0,0,0,1.805-.677,3.423,3.423,0,0,0,.56-2.186v-.256a4.028,4.028,0,0,0-.568-2.435,2.156,2.156,0,0,0-1.813-.729,1.861,1.861,0,0,0-1.637.831,4.134,4.134,0,0,0-.568,2.347,3.963,3.963,0,0,0,.564,2.322A1.91,1.91,0,0,0,88.379,125.128Zm14.62-.205h-.066a2.857,2.857,0,0,1-2.52,1.223,2.981,2.981,0,0,1-2.45-1.077,4.739,4.739,0,0,1-.875-3.062,4.819,4.819,0,0,1,.879-3.083,2.958,2.958,0,0,1,2.446-1.1,2.919,2.919,0,0,1,2.5,1.187h.1l-.051-.579-.029-.564V114.6h1.216V126h-.989Zm-2.432.205a2.214,2.214,0,0,0,1.805-.677,3.423,3.423,0,0,0,.56-2.186v-.256a4.028,4.028,0,0,0-.568-2.435,2.156,2.156,0,0,0-1.813-.729,1.861,1.861,0,0,0-1.637.831,4.134,4.134,0,0,0-.568,2.347,3.963,3.963,0,0,0,.564,2.322A1.91,1.91,0,0,0,100.568,125.128Zm9.1,1.018a3.688,3.688,0,0,1-2.809-1.084,4.2,4.2,0,0,1-1.029-3.01,4.654,4.654,0,0,1,.956-3.083,3.175,3.175,0,0,1,2.567-1.143,3.027,3.027,0,0,1,2.388.992,3.8,3.8,0,0,1,.879,2.618v.769h-5.53a3.182,3.182,0,0,0,.714,2.146,2.47,2.47,0,0,0,1.908.732,6.466,6.466,0,0,0,2.563-.542v1.084a6.434,6.434,0,0,1-1.219.4A6.853,6.853,0,0,1,109.668,126.146Zm-.33-7.3a1.985,1.985,0,0,0-1.542.63,2.9,2.9,0,0,0-.677,1.743h4.2a2.673,2.673,0,0,0-.513-1.761A1.8,1.8,0,0,0,109.339,118.844Zm8.112,7.3a3.426,3.426,0,0,1-2.7-1.073,4.412,4.412,0,0,1-.956-3.036,4.55,4.55,0,0,1,.97-3.113,3.494,3.494,0,0,1,2.765-1.1,5.487,5.487,0,0,1,1.157.125,3.812,3.812,0,0,1,.908.293l-.374,1.033a5.717,5.717,0,0,0-.879-.267,3.924,3.924,0,0,0-.842-.106q-2.446,0-2.446,3.12a3.715,3.715,0,0,0,.6,2.271,2.077,2.077,0,0,0,1.769.791,5.408,5.408,0,0,0,2.058-.432v1.077A4.386,4.386,0,0,1,117.451,126.146Zm4.7-.146h-1.216v-8.027h1.216Zm-1.318-10.2a.808.808,0,0,1,.205-.612.759.759,0,0,1,1.018,0,.793.793,0,0,1,.212.608.805.805,0,0,1-.212.612.744.744,0,0,1-1.018,0A.823.823,0,0,1,120.831,115.8Zm8.625,8.013a2.011,2.011,0,0,1-.835,1.729,3.925,3.925,0,0,1-2.344.608,5.1,5.1,0,0,1-2.49-.505v-1.128a6.022,6.022,0,0,0,1.241.461,5.184,5.184,0,0,0,1.278.168,2.9,2.9,0,0,0,1.465-.3,1.046,1.046,0,0,0,.106-1.729,6.394,6.394,0,0,0-1.586-.787,8.6,8.6,0,0,1-1.593-.729,2.176,2.176,0,0,1-.7-.707,1.843,1.843,0,0,1-.231-.945,1.8,1.8,0,0,1,.8-1.549,3.72,3.72,0,0,1,2.19-.568,6.408,6.408,0,0,1,2.534.527l-.432.989a5.817,5.817,0,0,0-2.19-.5,2.52,2.52,0,0,0-1.3.271.838.838,0,0,0-.439.747.91.91,0,0,0,.165.549,1.626,1.626,0,0,0,.531.432,11.867,11.867,0,0,0,1.406.593,5.253,5.253,0,0,1,1.93,1.047A1.847,1.847,0,0,1,129.456,123.81ZM132.2,126h-1.216v-8.027H132.2Zm-1.318-10.2a.808.808,0,0,1,.205-.612.759.759,0,0,1,1.018,0,.793.793,0,0,1,.212.608.805.805,0,0,1-.212.612.744.744,0,0,1-1.018,0A.823.823,0,0,1,130.881,115.8Zm10.375,6.182a4.428,4.428,0,0,1-.989,3.065,3.482,3.482,0,0,1-2.732,1.1,3.618,3.618,0,0,1-1.912-.505,3.335,3.335,0,0,1-1.289-1.45,5.054,5.054,0,0,1-.454-2.212,4.421,4.421,0,0,1,.981-3.058,3.471,3.471,0,0,1,2.725-1.095,3.4,3.4,0,0,1,2.677,1.121A4.409,4.409,0,0,1,141.256,121.979Zm-6.116,0a3.81,3.81,0,0,0,.615,2.344,2.442,2.442,0,0,0,3.622,0,3.791,3.791,0,0,0,.619-2.347,3.73,3.73,0,0,0-.619-2.325,2.175,2.175,0,0,0-1.827-.795,2.14,2.14,0,0,0-1.8.784A3.772,3.772,0,0,0,135.141,121.979ZM148.431,126v-5.193a2.1,2.1,0,0,0-.447-1.465,1.82,1.82,0,0,0-1.4-.483,2.307,2.307,0,0,0-1.846.681,3.439,3.439,0,0,0-.586,2.249V126h-1.216v-8.027h.989l.2,1.1h.059a2.483,2.483,0,0,1,1.047-.919,3.4,3.4,0,0,1,1.5-.326,3.049,3.049,0,0,1,2.183.7,2.977,2.977,0,0,1,.732,2.238V126Zm8.442-2.19a2.011,2.011,0,0,1-.835,1.729,3.925,3.925,0,0,1-2.344.608,5.1,5.1,0,0,1-2.49-.505v-1.128a6.022,6.022,0,0,0,1.241.461,5.184,5.184,0,0,0,1.278.168,2.9,2.9,0,0,0,1.465-.3,1.046,1.046,0,0,0,.106-1.729,6.394,6.394,0,0,0-1.586-.787,8.6,8.6,0,0,1-1.593-.729,2.176,2.176,0,0,1-.7-.707,1.843,1.843,0,0,1-.231-.945,1.8,1.8,0,0,1,.8-1.549,3.72,3.72,0,0,1,2.19-.568,6.408,6.408,0,0,1,2.534.527l-.432.989a5.817,5.817,0,0,0-2.19-.5,2.52,2.52,0,0,0-1.3.271.838.838,0,0,0-.439.747.91.91,0,0,0,.165.549,1.626,1.626,0,0,0,.531.432,11.867,11.867,0,0,0,1.406.593,5.254,5.254,0,0,1,1.93,1.047A1.847,1.847,0,0,1,156.872,123.81Zm1.352,1.414a1.091,1.091,0,0,1,.223-.743.81.81,0,0,1,.641-.253.867.867,0,0,1,.663.253,1.046,1.046,0,0,1,.238.743,1.027,1.027,0,0,1-.242.732.961.961,0,0,1-1.278.026A1,1,0,0,1,158.224,125.224Z" transform="translate(1009 1382)" fill="#707070"/>
    <path id="Path_14" data-name="Path 14" d="M1.7,0V-12.85H3.8V0ZM14.981,0H12.907V-5.977a2.616,2.616,0,0,0-.453-1.679,1.75,1.75,0,0,0-1.437-.554A2.285,2.285,0,0,0,9.1-7.436,4.27,4.27,0,0,0,8.5-4.843V0H6.43V-9.721H8.047l.29,1.274h.105A2.876,2.876,0,0,1,9.69-9.519,4.182,4.182,0,0,1,11.483-9.9q3.5,0,3.5,3.56Zm8.864-2.769A2.543,2.543,0,0,1,22.809-.584a4.966,4.966,0,0,1-2.971.76,7.017,7.017,0,0,1-3.12-.589V-2.2a7.66,7.66,0,0,0,3.19.791q1.907,0,1.907-1.151a.912.912,0,0,0-.211-.615,2.5,2.5,0,0,0-.694-.51,11.949,11.949,0,0,0-1.345-.6,6.22,6.22,0,0,1-2.272-1.3A2.407,2.407,0,0,1,16.7-7.269a2.216,2.216,0,0,1,1.006-1.938,4.776,4.776,0,0,1,2.738-.69,7.754,7.754,0,0,1,3.243.694L23.02-7.646a7.213,7.213,0,0,0-2.646-.65q-1.635,0-1.635.932a.937.937,0,0,0,.426.773,9.374,9.374,0,0,0,1.859.87,8.5,8.5,0,0,1,1.749.853,2.548,2.548,0,0,1,.809.892A2.582,2.582,0,0,1,23.846-2.769ZM27.6,0H25.538V-9.721H27.6ZM25.415-12.3a1.144,1.144,0,0,1,.3-.853,1.182,1.182,0,0,1,.866-.3,1.156,1.156,0,0,1,.848.3,1.144,1.144,0,0,1,.3.853,1.122,1.122,0,0,1-.3.831,1.147,1.147,0,0,1-.848.3,1.171,1.171,0,0,1-.866-.3A1.122,1.122,0,0,1,25.415-12.3ZM38.226-9.721v1.134l-1.661.308a2.681,2.681,0,0,1,.378.756,2.982,2.982,0,0,1,.149.949A2.908,2.908,0,0,1,36.055-4.21a4.34,4.34,0,0,1-2.856.861,4.632,4.632,0,0,1-.844-.07,1.164,1.164,0,0,0-.668.967.537.537,0,0,0,.312.5,2.7,2.7,0,0,0,1.147.167h1.7a3.772,3.772,0,0,1,2.443.686A2.412,2.412,0,0,1,38.12.879a2.876,2.876,0,0,1-1.362,2.549,7.173,7.173,0,0,1-3.937.9,5.434,5.434,0,0,1-3.032-.7,2.273,2.273,0,0,1-1.046-2A2.133,2.133,0,0,1,29.309.11,3.038,3.038,0,0,1,30.9-.738a1.552,1.552,0,0,1-.681-.567,1.431,1.431,0,0,1-.268-.822,1.415,1.415,0,0,1,.308-.923,3.549,3.549,0,0,1,.914-.747,2.707,2.707,0,0,1-1.226-1.059,3.115,3.115,0,0,1-.47-1.718,3.08,3.08,0,0,1,1-2.452,4.194,4.194,0,0,1,2.843-.87,6.921,6.921,0,0,1,.866.057,5.45,5.45,0,0,1,.681.119ZM30.588,1.512a1.136,1.136,0,0,0,.6,1.028,3.309,3.309,0,0,0,1.692.36A5.112,5.112,0,0,0,35.4,2.417a1.449,1.449,0,0,0,.826-1.283.963.963,0,0,0-.453-.9,3.635,3.635,0,0,0-1.683-.268H32.522a2.2,2.2,0,0,0-1.411.417A1.369,1.369,0,0,0,30.588,1.512Zm.888-8.086a1.956,1.956,0,0,0,.47,1.406,1.778,1.778,0,0,0,1.349.492q1.793,0,1.793-1.916a2.173,2.173,0,0,0-.444-1.463A1.686,1.686,0,0,0,33.3-8.569a1.739,1.739,0,0,0-1.358.51A2.143,2.143,0,0,0,31.476-6.574ZM48.039,0H45.965V-5.977a2.616,2.616,0,0,0-.453-1.679,1.75,1.75,0,0,0-1.437-.554,2.281,2.281,0,0,0-1.912.778,4.286,4.286,0,0,0-.611,2.606V0H39.487V-13.676h2.065V-10.2a16.2,16.2,0,0,1-.105,1.784h.132a2.868,2.868,0,0,1,1.173-1.09A3.782,3.782,0,0,1,44.506-9.9q3.533,0,3.533,3.56Zm5.955-1.494a5.023,5.023,0,0,0,1.512-.237V-.176a4.169,4.169,0,0,1-.883.25,6.086,6.086,0,0,1-1.121.1q-2.936,0-2.936-3.094V-8.156H49.239V-9.07l1.424-.756.7-2.057h1.274v2.162h2.769v1.564H52.641v5.2a1.46,1.46,0,0,0,.374,1.1A1.362,1.362,0,0,0,53.994-1.494Zm7.792-6.662H59.413V0H57.339V-8.156h-1.6v-.967l1.6-.633v-.633a3.537,3.537,0,0,1,.809-2.553,3.306,3.306,0,0,1,2.47-.831,6.591,6.591,0,0,1,2.145.36l-.545,1.564a4.761,4.761,0,0,0-1.459-.246,1.187,1.187,0,0,0-1.024.435,2.192,2.192,0,0,0-.321,1.305v.633h2.373ZM69.754,0l-.29-1.274h-.105A2.931,2.931,0,0,1,68.133-.211a4.1,4.1,0,0,1-1.815.387A3.563,3.563,0,0,1,63.681-.7a3.643,3.643,0,0,1-.87-2.663V-9.721h2.083v5.994a2.6,2.6,0,0,0,.457,1.674,1.745,1.745,0,0,0,1.433.558A2.281,2.281,0,0,0,68.7-2.272a4.286,4.286,0,0,0,.611-2.606V-9.721H71.38V0Zm6.1,0H73.785V-13.676H75.85Zm8.869-6.873h1.459a3.331,3.331,0,0,0,2.127-.545,1.977,1.977,0,0,0,.659-1.617,1.741,1.741,0,0,0-.712-1.564,3.9,3.9,0,0,0-2.145-.475H84.719Zm0,1.74V0h-2.1V-12.85h3.63a5.964,5.964,0,0,1,3.683.932,3.345,3.345,0,0,1,1.2,2.813,3.516,3.516,0,0,1-2.5,3.419L92.26,0H89.87L86.793-5.133ZM97.609.176a4.7,4.7,0,0,1-3.546-1.323A5.021,5.021,0,0,1,92.784-4.79,5.509,5.509,0,0,1,93.97-8.534,4.1,4.1,0,0,1,97.231-9.9a4.006,4.006,0,0,1,3.041,1.169,4.467,4.467,0,0,1,1.116,3.217v1.116H94.911a3.193,3.193,0,0,0,.765,2.175,2.663,2.663,0,0,0,2.03.76,7.5,7.5,0,0,0,1.6-.163,8.408,8.408,0,0,0,1.6-.541V-.483a6.342,6.342,0,0,1-1.529.51A9.378,9.378,0,0,1,97.609.176Zm-.378-8.508a2.075,2.075,0,0,0-1.578.624,2.974,2.974,0,0,0-.708,1.819h4.412a2.691,2.691,0,0,0-.58-1.824A1.984,1.984,0,0,0,97.231-8.332ZM108.126.176a3.4,3.4,0,0,1-2.865-1.327h-.123q.123,1.23.123,1.494V4.324h-2.065V-9.721h1.67q.07.272.29,1.3h.105a3.236,3.236,0,0,1,2.9-1.477A3.374,3.374,0,0,1,111-8.578a5.944,5.944,0,0,1,1.015,3.7,5.948,5.948,0,0,1-1.033,3.718A3.4,3.4,0,0,1,108.126.176Zm-.5-8.385a2.147,2.147,0,0,0-1.8.721,3.735,3.735,0,0,0-.567,2.3v.308a4.547,4.547,0,0,0,.563,2.571,2.092,2.092,0,0,0,1.837.8,1.865,1.865,0,0,0,1.652-.879,4.539,4.539,0,0,0,.58-2.5,4.38,4.38,0,0,0-.576-2.474A1.92,1.92,0,0,0,107.625-8.209Zm14.867,3.331A5.306,5.306,0,0,1,121.27-1.16a4.377,4.377,0,0,1-3.4,1.336,4.66,4.66,0,0,1-2.408-.615,4.062,4.062,0,0,1-1.608-1.767,6.017,6.017,0,0,1-.562-2.672A5.27,5.27,0,0,1,114.5-8.569,4.4,4.4,0,0,1,117.921-9.9a4.282,4.282,0,0,1,3.34,1.358A5.245,5.245,0,0,1,122.492-4.878Zm-7.075,0q0,3.366,2.487,3.366,2.461,0,2.461-3.366,0-3.331-2.479-3.331A2.113,2.113,0,0,0,116-7.348,4.383,4.383,0,0,0,115.417-4.878ZM129.255-9.9a4.972,4.972,0,0,1,1.028.088l-.2,1.925a3.9,3.9,0,0,0-.914-.105,2.645,2.645,0,0,0-2.008.809,2.923,2.923,0,0,0-.769,2.1V0h-2.065V-9.721h1.617l.272,1.714h.105a3.851,3.851,0,0,1,1.261-1.38A3,3,0,0,1,129.255-9.9Zm5.911,8.4a5.023,5.023,0,0,0,1.512-.237V-.176a4.169,4.169,0,0,1-.883.25,6.086,6.086,0,0,1-1.121.1q-2.936,0-2.936-3.094V-8.156h-1.327V-9.07l1.424-.756.7-2.057h1.274v2.162h2.769v1.564h-2.769v5.2a1.46,1.46,0,0,0,.374,1.1A1.362,1.362,0,0,0,135.167-1.494ZM140.146,0h-2.065V-9.721h2.065Zm-2.188-12.3a1.144,1.144,0,0,1,.3-.853,1.182,1.182,0,0,1,.866-.3,1.156,1.156,0,0,1,.848.3,1.144,1.144,0,0,1,.3.853,1.122,1.122,0,0,1-.3.831,1.147,1.147,0,0,1-.848.3,1.171,1.171,0,0,1-.866-.3A1.122,1.122,0,0,1,137.958-12.3ZM151.111,0h-2.074V-5.977a2.616,2.616,0,0,0-.453-1.679,1.75,1.75,0,0,0-1.437-.554,2.285,2.285,0,0,0-1.916.773,4.27,4.27,0,0,0-.606,2.593V0h-2.065V-9.721h1.617l.29,1.274h.105a2.876,2.876,0,0,1,1.248-1.072,4.182,4.182,0,0,1,1.793-.378q3.5,0,3.5,3.56Zm10.543-9.721v1.134l-1.661.308a2.681,2.681,0,0,1,.378.756,2.982,2.982,0,0,1,.149.949,2.908,2.908,0,0,1-1.037,2.364,4.34,4.34,0,0,1-2.856.861,4.632,4.632,0,0,1-.844-.07,1.164,1.164,0,0,0-.668.967.537.537,0,0,0,.312.5,2.7,2.7,0,0,0,1.147.167h1.7a3.772,3.772,0,0,1,2.443.686,2.412,2.412,0,0,1,.835,1.978,2.876,2.876,0,0,1-1.362,2.549,7.173,7.173,0,0,1-3.937.9,5.434,5.434,0,0,1-3.032-.7,2.273,2.273,0,0,1-1.046-2A2.133,2.133,0,0,1,152.738.11a3.038,3.038,0,0,1,1.586-.848,1.552,1.552,0,0,1-.681-.567,1.431,1.431,0,0,1-.268-.822,1.415,1.415,0,0,1,.308-.923A3.549,3.549,0,0,1,154.6-3.8a2.707,2.707,0,0,1-1.226-1.059,3.115,3.115,0,0,1-.47-1.718,3.08,3.08,0,0,1,1-2.452,4.194,4.194,0,0,1,2.843-.87,6.921,6.921,0,0,1,.866.057,5.45,5.45,0,0,1,.681.119ZM154.016,1.512a1.136,1.136,0,0,0,.6,1.028,3.309,3.309,0,0,0,1.692.36,5.112,5.112,0,0,0,2.514-.483,1.449,1.449,0,0,0,.826-1.283.963.963,0,0,0-.453-.9,3.635,3.635,0,0,0-1.683-.268H155.95a2.2,2.2,0,0,0-1.411.417A1.369,1.369,0,0,0,154.016,1.512Zm.888-8.086a1.956,1.956,0,0,0,.47,1.406,1.778,1.778,0,0,0,1.349.492q1.793,0,1.793-1.916a2.173,2.173,0,0,0-.444-1.463,1.686,1.686,0,0,0-1.349-.514,1.739,1.739,0,0,0-1.358.51A2.143,2.143,0,0,0,154.9-6.574Z" transform="translate(1009 1349)" fill="#6862a7"/>
    <line id="Line_4" data-name="Line 4" x2="153" transform="translate(1009.5 1360.5)" fill="none" stroke="#bfbfbf" stroke-width="1"/>
  </g>
</svg>
