<svg id="_3225191_app_instagram_logo_media_popular_icon" data-name="3225191_app_instagram_logo_media_popular_icon" xmlns="http://www.w3.org/2000/svg" xmlns:xlink="http://www.w3.org/1999/xlink" width="30" height="30" viewBox="0 0 30 30">
  <defs>
    <linearGradient id="linear-gradient" x1="0.146" y1="0.854" x2="0.854" y2="0.146" gradientUnits="objectBoundingBox">
      <stop offset="0" stop-color="#ffd521"/>
      <stop offset="0.055" stop-color="#ffd020"/>
      <stop offset="0.124" stop-color="#fec01e"/>
      <stop offset="0.2" stop-color="#fca71b"/>
      <stop offset="0.282" stop-color="#fa8316"/>
      <stop offset="0.368" stop-color="#f85510"/>
      <stop offset="0.456" stop-color="#f51e09"/>
      <stop offset="0.5" stop-color="#f30005"/>
      <stop offset="0.503" stop-color="#f20007"/>
      <stop offset="0.597" stop-color="#e1003b"/>
      <stop offset="0.688" stop-color="#d30067"/>
      <stop offset="0.776" stop-color="#c70088"/>
      <stop offset="0.859" stop-color="#bf00a0"/>
      <stop offset="0.936" stop-color="#bb00af"/>
      <stop offset="1" stop-color="#b900b4"/>
    </linearGradient>
  </defs>
  <path id="Path_6" data-name="Path 6" d="M15,30h0A15,15,0,0,1,0,15H0A15,15,0,0,1,15,0h0A15,15,0,0,1,30,15h0A15,15,0,0,1,15,30Z" fill="url(#linear-gradient)"/>
  <g id="Group_7" data-name="Group 7" transform="translate(4.743 4.746)">
    <path id="Path_7" data-name="Path 7" d="M168.857,160.548c2.737,0,3.062.009,4.143.06a5.626,5.626,0,0,1,1.9.355,3.391,3.391,0,0,1,1.944,1.944,5.7,5.7,0,0,1,.355,1.9c.048,1.082.06,1.406.06,4.143s-.009,3.062-.06,4.143a5.627,5.627,0,0,1-.355,1.9,3.391,3.391,0,0,1-1.944,1.944,5.7,5.7,0,0,1-1.9.355c-1.082.048-1.406.06-4.143.06s-3.062-.009-4.143-.06a5.627,5.627,0,0,1-1.9-.355A3.391,3.391,0,0,1,160.865,175a5.7,5.7,0,0,1-.355-1.9c-.048-1.082-.06-1.406-.06-4.143s.009-3.062.06-4.143a5.626,5.626,0,0,1,.355-1.9,3.391,3.391,0,0,1,1.944-1.944,5.7,5.7,0,0,1,1.9-.355c1.082-.051,1.406-.06,4.143-.06m0-1.848c-2.785,0-3.134.012-4.227.063a7.538,7.538,0,0,0-2.491.478,4.95,4.95,0,0,0-1.815,1.181,5.048,5.048,0,0,0-1.184,1.818,7.582,7.582,0,0,0-.478,2.491c-.051,1.094-.063,1.442-.063,4.227s.012,3.134.063,4.227a7.537,7.537,0,0,0,.478,2.491,5.261,5.261,0,0,0,3,3,7.583,7.583,0,0,0,2.491.478c1.094.051,1.442.063,4.227.063s3.134-.012,4.227-.063a7.538,7.538,0,0,0,2.491-.478,5.261,5.261,0,0,0,3-3,7.583,7.583,0,0,0,.478-2.491c.051-1.094.063-1.442.063-4.227s-.012-3.134-.063-4.227a7.538,7.538,0,0,0-.478-2.491,5.261,5.261,0,0,0-3-3,7.583,7.583,0,0,0-2.491-.478c-1.091-.048-1.439-.06-4.224-.06Z" transform="translate(-158.6 -158.7)" fill="#fff"/>
    <path id="Path_8" data-name="Path 8" d="M329.967,324.7a5.267,5.267,0,1,0,5.267,5.267A5.268,5.268,0,0,0,329.967,324.7Zm0,8.686a3.419,3.419,0,1,1,3.419-3.419A3.419,3.419,0,0,1,329.967,333.386Z" transform="translate(-319.71 -319.712)" fill="#fff"/>
    <circle id="Ellipse_1" data-name="Ellipse 1" cx="1.232" cy="1.232" r="1.232" transform="translate(14.5 3.548)" fill="#fff"/>
  </g>
</svg>
