<svg width="695" height="523" viewBox="0 0 695 523" fill="none" xmlns="http://www.w3.org/2000/svg">
<g filter="url(#filter0_d_2966_1676)">
<path d="M612.926 52H82C67.6406 52 56 63.6406 56 78V437C56 451.359 67.6406 463 82 463H612.926C627.286 463 638.926 451.359 638.926 437V78C638.926 63.6406 627.286 52 612.926 52Z" fill="url(#paint0_linear_2966_1676)"/>
</g>
<path d="M300.898 284.521L296.478 279.217L295.594 284.521H300.898Z" fill="#253F4B"/>
<path d="M243.428 343.757L239.008 338.452L249.617 337.568L243.428 343.757Z" fill="#253F4B"/>
<path d="M328.953 362.39C328.546 362.447 328.133 362.447 327.726 362.39L324.221 362.508L311.404 362.649H311.251L311.141 362.508C306.036 355.561 299.442 346.635 292.234 336.885L276.898 315.973L277.183 316.138L260.313 315.973L255.603 315.855C255.048 315.906 254.492 315.906 253.938 315.855C254.487 315.747 255.044 315.7 255.603 315.714H260.313L277.183 315.549H277.38V315.69L292.716 336.509L311.492 362.249L311.207 362.131L324.024 362.273H327.529C328.006 362.243 328.485 362.283 328.953 362.39Z" fill="white"/>
<path d="M349.52 369.491C349.52 369.75 341.216 369.962 330.963 369.962C320.71 369.962 312.406 369.75 312.406 369.491C312.406 369.231 320.71 369.02 330.963 369.02C341.216 369.02 349.52 369.231 349.52 369.491Z" fill="white"/>
<path d="M349.52 376.881C349.52 377.14 341.216 377.352 330.963 377.352C320.71 377.352 312.406 377.14 312.406 376.881C312.406 376.622 320.71 376.41 330.963 376.41C341.216 376.41 349.52 376.622 349.52 376.881Z" fill="white"/>
<path d="M202.677 250.399C202.365 250.548 202.031 250.635 201.691 250.659L198.821 251.153L188.524 252.707H188.37L188.239 252.566L174.502 238.2C167.929 231.135 161.948 224.918 157.698 220.279L152.659 214.791C152.02 214.139 151.434 213.43 150.906 212.672C151.621 213.227 152.288 213.85 152.9 214.532L158.114 219.808C162.496 224.306 168.521 230.57 175.115 237.541L188.743 252.024H188.436L198.777 250.8L201.647 250.517C201.986 250.441 202.331 250.402 202.677 250.399Z" fill="white"/>
<path d="M136.388 210.014C136.388 210.273 128.085 210.485 117.832 210.485C107.578 210.485 99.2969 210.273 99.2969 210.014C99.2969 209.755 107.6 209.543 117.832 209.543C128.063 209.543 136.388 209.755 136.388 210.014Z" fill="white"/>
<path d="M136.388 217.414C136.388 217.673 128.085 217.885 117.832 217.885C107.578 217.885 99.2969 217.673 99.2969 217.414C99.2969 217.155 107.6 216.943 117.832 216.943C128.063 216.943 136.388 217.155 136.388 217.414Z" fill="white"/>
<g filter="url(#filter1_d_2966_1676)">
<path d="M469.072 139.164C465.998 132.068 461.238 125.968 455.273 121.479C449.307 116.989 442.347 114.267 435.092 113.589L433.756 113.447H432.901C432.069 113.447 431.214 113.447 430.36 113.447H430.141L430.36 151.128V159.959L472.468 169.85C473.103 166.653 473.418 163.393 473.41 160.124C473.432 152.878 471.95 145.717 469.072 139.164Z" fill="#F4A047"/>
</g>
<g filter="url(#filter2_d_2966_1676)">
<path d="M427.921 164.24L385.812 174.438C387.967 184.744 393.33 193.952 401.013 200.538C408.697 207.124 418.241 210.695 428.068 210.659C437.896 210.623 447.417 206.984 455.059 200.342C462.701 193.7 468.006 184.453 470.095 174.131L427.965 164.24" fill="#C56500"/>
</g>
<path d="M591.876 157.489C591.876 157.819 570.099 158.102 543.239 158.102C516.379 158.102 494.602 157.819 494.602 157.489C494.602 157.16 516.379 156.877 543.239 156.877C570.099 156.877 591.876 157.16 591.876 157.489Z" fill="white"/>
<path d="M591.876 145.581C591.876 145.911 570.099 146.193 543.239 146.193C516.379 146.193 494.602 145.911 494.602 145.581C494.602 145.251 516.379 144.969 543.239 144.969C570.099 144.969 591.876 145.251 591.876 145.581Z" fill="white"/>
<path d="M591.876 133.642C591.876 133.971 570.099 134.254 543.239 134.254C516.379 134.254 494.602 133.971 494.602 133.642C494.602 133.312 516.379 133.029 543.239 133.029C570.099 133.029 591.876 133.312 591.876 133.642Z" fill="white"/>
<path d="M591.876 168.569C591.876 168.899 570.099 169.182 543.239 169.182C516.379 169.182 494.602 168.899 494.602 168.569C494.602 168.24 516.379 167.957 543.239 167.957C570.099 167.957 591.876 168.216 591.876 168.569Z" fill="white"/>
<path d="M561.737 180.634C561.737 180.964 546.774 181.246 528.326 181.246C509.879 181.246 494.938 180.964 494.938 180.634C494.938 180.304 509.879 180.021 528.326 180.021C546.774 180.021 561.737 180.304 561.737 180.634Z" fill="white"/>
<g filter="url(#filter3_d_2966_1676)">
<path d="M402.59 266.9H392.578V387.172H402.59V266.9Z" fill="url(#paint1_linear_2966_1676)"/>
</g>
<g filter="url(#filter4_d_2966_1676)">
<path d="M421.958 307.736H411.945V387.148H421.958V307.736Z" fill="url(#paint2_linear_2966_1676)"/>
</g>
<g filter="url(#filter5_d_2966_1676)">
<path d="M441.294 281.854H431.281V387.783H441.294V281.854Z" fill="url(#paint3_linear_2966_1676)"/>
</g>
<g filter="url(#filter6_d_2966_1676)">
<path d="M460.653 271.527H450.641V387.159H460.653V271.527Z" fill="url(#paint4_linear_2966_1676)"/>
</g>
<g filter="url(#filter7_d_2966_1676)">
<path d="M479.997 310.188H469.984V387.15H479.997V310.188Z" fill="url(#paint5_linear_2966_1676)"/>
</g>
<g filter="url(#filter8_d_2966_1676)">
<path d="M499.309 325.273H489.297V387.14H499.309V325.273Z" fill="url(#paint6_linear_2966_1676)"/>
</g>
<g filter="url(#filter9_d_2966_1676)">
<path d="M518.661 279.238H508.648V387.169H518.661V279.238Z" fill="url(#paint7_linear_2966_1676)"/>
</g>
<g filter="url(#filter10_d_2966_1676)">
<path d="M538.004 298.691H527.992V387.146H538.004V298.691Z" fill="url(#paint8_linear_2966_1676)"/>
</g>
<g filter="url(#filter11_d_2966_1676)">
<path d="M557.333 283.152H547.32V387.174H557.333V283.152Z" fill="url(#paint9_linear_2966_1676)"/>
</g>
<g filter="url(#filter12_d_2966_1676)">
<path d="M576.668 316.309H566.656V387.171H576.668V316.309Z" fill="url(#paint10_linear_2966_1676)"/>
</g>
<g filter="url(#filter13_d_2966_1676)">
<path d="M596.028 302.824H586.016V387.181H596.028V302.824Z" fill="url(#paint11_linear_2966_1676)"/>
</g>
<path d="M600.119 395.522C600.119 395.781 552.599 395.969 493.993 395.969C435.387 395.969 387.867 395.781 387.867 395.522C387.867 395.263 435.365 395.098 493.993 395.098C552.621 395.098 600.119 395.286 600.119 395.522Z" fill="white"/>
<path d="M473.627 405.494C467.718 406.091 461.769 406.091 455.859 405.494C461.769 404.898 467.718 404.898 473.627 405.494Z" fill="white"/>
<path d="M406.907 405.008C401.964 405.604 396.974 405.604 392.031 405.008C396.976 404.443 401.962 404.443 406.907 405.008Z" fill="white"/>
<path d="M431.549 405.494C425.64 406.091 419.691 406.091 413.781 405.494C419.691 404.898 425.64 404.898 431.549 405.494Z" fill="white"/>
<path d="M452.58 405.494C446.671 406.091 440.722 406.091 434.812 405.494C440.722 404.898 446.671 404.898 452.58 405.494Z" fill="white"/>
<path d="M494.641 405.494C488.724 406.091 482.769 406.091 476.852 405.494C482.769 404.898 488.724 404.898 494.641 405.494Z" fill="white"/>
<path d="M515.698 405.494C509.788 406.091 503.839 406.091 497.93 405.494C503.839 404.898 509.788 404.898 515.698 405.494Z" fill="white"/>
<path d="M536.737 405.494C530.827 406.091 524.878 406.091 518.969 405.494C524.878 404.898 530.827 404.898 536.737 405.494Z" fill="white"/>
<path d="M557.76 405.494C551.851 406.091 545.902 406.091 539.992 405.494C545.902 404.898 551.851 404.898 557.76 405.494Z" fill="white"/>
<path d="M578.791 405.494C572.882 406.091 566.933 406.091 561.023 405.494C566.933 404.898 572.882 404.898 578.791 405.494Z" fill="white"/>
<path d="M599.838 405.494C593.929 406.091 587.98 406.091 582.07 405.494C587.98 404.898 593.929 404.898 599.838 405.494Z" fill="white"/>
<path d="M117.292 139.302C122.937 139.302 127.513 134.726 127.513 129.081C127.513 123.436 122.937 118.859 117.292 118.859C111.647 118.859 107.07 123.436 107.07 129.081C107.07 134.726 111.647 139.302 117.292 139.302Z" fill="#C15049"/>
<path d="M292.593 121.007C292.593 121.337 260.08 121.619 219.987 121.619C179.894 121.619 147.359 121.337 147.359 121.007C147.359 120.677 179.872 120.395 219.987 120.395C260.102 120.395 292.593 120.724 292.593 121.007Z" fill="white"/>
<path d="M205.677 133.565C204.96 133.752 204.223 133.831 203.486 133.801L197.352 134.013C192.159 134.013 185.017 134.178 177.108 134.178C169.199 134.178 162.057 134.178 156.864 134.013L150.73 133.801C149.993 133.831 149.256 133.752 148.539 133.565C149.258 133.393 149.994 133.314 150.73 133.33C152.176 133.33 154.279 133.189 156.864 133.142C162.057 133.142 169.199 132.953 177.108 132.953C185.017 132.953 192.159 132.953 197.352 133.142C199.937 133.142 202.04 133.142 203.486 133.33C204.223 133.314 204.958 133.393 205.677 133.565Z" fill="white"/>
<path d="M243.899 283.506L301.234 284.377C300.796 317.206 275.053 343.983 243.899 343.983H243.57L243.899 283.506Z" fill="#253F4B"/>
<path d="M234.851 274.737L234.04 335.167C202.886 334.72 177.516 307.566 177.516 274.713C177.516 241.861 203.39 214.26 234.851 214.26C266.312 214.26 292.186 241.555 292.186 274.713L234.851 274.737Z" fill="#BE782E"/>
<path d="M239.157 277.861L296.492 278.733C296.054 311.562 270.311 338.339 239.157 338.339H238.828L239.157 277.861Z" fill="url(#paint12_linear_2966_1676)"/>
<path d="M227.473 267.669L226.67 327.838C195.815 327.393 170.688 300.356 170.688 267.646C170.688 234.935 196.314 207.453 227.473 207.453C258.632 207.453 284.258 234.63 284.258 267.646L227.473 267.669Z" fill="url(#paint13_linear_2966_1676)"/>
<g filter="url(#filter14_d_2966_1676)">
<path d="M383.043 168.829L378.5 164.286L420.521 154.064L425.064 158.607L383.043 168.829Z" fill="#FF9B2B"/>
<path d="M425.058 112.045L420.516 107.502V154.066L425.058 158.609V112.045Z" fill="#FFC32A"/>
<path d="M425.26 149.727L425.019 112.047C414.329 112.251 404.064 116.58 396.099 124.246C391.005 129.019 387.075 135.06 384.654 141.842C382.233 148.624 381.393 155.94 382.209 163.151C382.388 164.987 382.658 166.81 383.019 168.615C383.03 168.661 383.03 168.71 383.019 168.756L425.128 158.582L425.26 149.727Z" fill="url(#paint14_linear_2966_1676)"/>
<path d="M420.713 145.182L420.472 107.502C409.782 107.706 399.517 112.036 391.552 119.701C386.458 124.474 382.528 130.515 380.107 137.297C377.686 144.079 376.846 151.395 377.662 158.606C377.841 160.442 378.111 162.265 378.473 164.07C378.483 164.116 378.483 164.165 378.473 164.211L420.581 154.037L420.713 145.182Z" fill="url(#paint15_linear_2966_1676)"/>
</g>
<defs>
<filter id="filter0_d_2966_1676" x="0" y="0" width="694.93" height="523" filterUnits="userSpaceOnUse" color-interpolation-filters="sRGB">
<feFlood flood-opacity="0" result="BackgroundImageFix"/>
<feColorMatrix in="SourceAlpha" type="matrix" values="0 0 0 0 0 0 0 0 0 0 0 0 0 0 0 0 0 0 127 0" result="hardAlpha"/>
<feOffset dy="4"/>
<feGaussianBlur stdDeviation="28"/>
<feComposite in2="hardAlpha" operator="out"/>
<feColorMatrix type="matrix" values="0 0 0 0 1 0 0 0 0 1 0 0 0 0 1 0 0 0 0.64 0"/>
<feBlend mode="normal" in2="BackgroundImageFix" result="effect1_dropShadow_2966_1676"/>
<feBlend mode="normal" in="SourceGraphic" in2="effect1_dropShadow_2966_1676" result="shape"/>
</filter>
<filter id="filter1_d_2966_1676" x="426.141" y="113.447" width="51.2734" height="64.4023" filterUnits="userSpaceOnUse" color-interpolation-filters="sRGB">
<feFlood flood-opacity="0" result="BackgroundImageFix"/>
<feColorMatrix in="SourceAlpha" type="matrix" values="0 0 0 0 0 0 0 0 0 0 0 0 0 0 0 0 0 0 127 0" result="hardAlpha"/>
<feOffset dy="4"/>
<feGaussianBlur stdDeviation="2"/>
<feComposite in2="hardAlpha" operator="out"/>
<feColorMatrix type="matrix" values="0 0 0 0 0 0 0 0 0 0 0 0 0 0 0 0 0 0 0.25 0"/>
<feBlend mode="normal" in2="BackgroundImageFix" result="effect1_dropShadow_2966_1676"/>
<feBlend mode="normal" in="SourceGraphic" in2="effect1_dropShadow_2966_1676" result="shape"/>
</filter>
<filter id="filter2_d_2966_1676" x="381.812" y="164.24" width="92.2812" height="54.418" filterUnits="userSpaceOnUse" color-interpolation-filters="sRGB">
<feFlood flood-opacity="0" result="BackgroundImageFix"/>
<feColorMatrix in="SourceAlpha" type="matrix" values="0 0 0 0 0 0 0 0 0 0 0 0 0 0 0 0 0 0 127 0" result="hardAlpha"/>
<feOffset dy="4"/>
<feGaussianBlur stdDeviation="2"/>
<feComposite in2="hardAlpha" operator="out"/>
<feColorMatrix type="matrix" values="0 0 0 0 0 0 0 0 0 0 0 0 0 0 0 0 0 0 0.25 0"/>
<feBlend mode="normal" in2="BackgroundImageFix" result="effect1_dropShadow_2966_1676"/>
<feBlend mode="normal" in="SourceGraphic" in2="effect1_dropShadow_2966_1676" result="shape"/>
</filter>
<filter id="filter3_d_2966_1676" x="389.578" y="262.9" width="26.0156" height="136.271" filterUnits="userSpaceOnUse" color-interpolation-filters="sRGB">
<feFlood flood-opacity="0" result="BackgroundImageFix"/>
<feColorMatrix in="SourceAlpha" type="matrix" values="0 0 0 0 0 0 0 0 0 0 0 0 0 0 0 0 0 0 127 0" result="hardAlpha"/>
<feOffset dx="5" dy="4"/>
<feGaussianBlur stdDeviation="4"/>
<feComposite in2="hardAlpha" operator="out"/>
<feColorMatrix type="matrix" values="0 0 0 0 0 0 0 0 0 0 0 0 0 0 0 0 0 0 0.25 0"/>
<feBlend mode="normal" in2="BackgroundImageFix" result="effect1_dropShadow_2966_1676"/>
<feBlend mode="normal" in="SourceGraphic" in2="effect1_dropShadow_2966_1676" result="shape"/>
</filter>
<filter id="filter4_d_2966_1676" x="408.945" y="303.736" width="26.0156" height="95.4121" filterUnits="userSpaceOnUse" color-interpolation-filters="sRGB">
<feFlood flood-opacity="0" result="BackgroundImageFix"/>
<feColorMatrix in="SourceAlpha" type="matrix" values="0 0 0 0 0 0 0 0 0 0 0 0 0 0 0 0 0 0 127 0" result="hardAlpha"/>
<feOffset dx="5" dy="4"/>
<feGaussianBlur stdDeviation="4"/>
<feComposite in2="hardAlpha" operator="out"/>
<feColorMatrix type="matrix" values="0 0 0 0 0 0 0 0 0 0 0 0 0 0 0 0 0 0 0.25 0"/>
<feBlend mode="normal" in2="BackgroundImageFix" result="effect1_dropShadow_2966_1676"/>
<feBlend mode="normal" in="SourceGraphic" in2="effect1_dropShadow_2966_1676" result="shape"/>
</filter>
<filter id="filter5_d_2966_1676" x="428.281" y="277.854" width="26.0156" height="121.93" filterUnits="userSpaceOnUse" color-interpolation-filters="sRGB">
<feFlood flood-opacity="0" result="BackgroundImageFix"/>
<feColorMatrix in="SourceAlpha" type="matrix" values="0 0 0 0 0 0 0 0 0 0 0 0 0 0 0 0 0 0 127 0" result="hardAlpha"/>
<feOffset dx="5" dy="4"/>
<feGaussianBlur stdDeviation="4"/>
<feComposite in2="hardAlpha" operator="out"/>
<feColorMatrix type="matrix" values="0 0 0 0 0 0 0 0 0 0 0 0 0 0 0 0 0 0 0.25 0"/>
<feBlend mode="normal" in2="BackgroundImageFix" result="effect1_dropShadow_2966_1676"/>
<feBlend mode="normal" in="SourceGraphic" in2="effect1_dropShadow_2966_1676" result="shape"/>
</filter>
<filter id="filter6_d_2966_1676" x="447.641" y="267.527" width="26.0156" height="131.633" filterUnits="userSpaceOnUse" color-interpolation-filters="sRGB">
<feFlood flood-opacity="0" result="BackgroundImageFix"/>
<feColorMatrix in="SourceAlpha" type="matrix" values="0 0 0 0 0 0 0 0 0 0 0 0 0 0 0 0 0 0 127 0" result="hardAlpha"/>
<feOffset dx="5" dy="4"/>
<feGaussianBlur stdDeviation="4"/>
<feComposite in2="hardAlpha" operator="out"/>
<feColorMatrix type="matrix" values="0 0 0 0 0 0 0 0 0 0 0 0 0 0 0 0 0 0 0.25 0"/>
<feBlend mode="normal" in2="BackgroundImageFix" result="effect1_dropShadow_2966_1676"/>
<feBlend mode="normal" in="SourceGraphic" in2="effect1_dropShadow_2966_1676" result="shape"/>
</filter>
<filter id="filter7_d_2966_1676" x="466.984" y="306.188" width="26.0156" height="92.9629" filterUnits="userSpaceOnUse" color-interpolation-filters="sRGB">
<feFlood flood-opacity="0" result="BackgroundImageFix"/>
<feColorMatrix in="SourceAlpha" type="matrix" values="0 0 0 0 0 0 0 0 0 0 0 0 0 0 0 0 0 0 127 0" result="hardAlpha"/>
<feOffset dx="5" dy="4"/>
<feGaussianBlur stdDeviation="4"/>
<feComposite in2="hardAlpha" operator="out"/>
<feColorMatrix type="matrix" values="0 0 0 0 0 0 0 0 0 0 0 0 0 0 0 0 0 0 0.25 0"/>
<feBlend mode="normal" in2="BackgroundImageFix" result="effect1_dropShadow_2966_1676"/>
<feBlend mode="normal" in="SourceGraphic" in2="effect1_dropShadow_2966_1676" result="shape"/>
</filter>
<filter id="filter8_d_2966_1676" x="486.297" y="321.273" width="26.0156" height="77.8672" filterUnits="userSpaceOnUse" color-interpolation-filters="sRGB">
<feFlood flood-opacity="0" result="BackgroundImageFix"/>
<feColorMatrix in="SourceAlpha" type="matrix" values="0 0 0 0 0 0 0 0 0 0 0 0 0 0 0 0 0 0 127 0" result="hardAlpha"/>
<feOffset dx="5" dy="4"/>
<feGaussianBlur stdDeviation="4"/>
<feComposite in2="hardAlpha" operator="out"/>
<feColorMatrix type="matrix" values="0 0 0 0 0 0 0 0 0 0 0 0 0 0 0 0 0 0 0.25 0"/>
<feBlend mode="normal" in2="BackgroundImageFix" result="effect1_dropShadow_2966_1676"/>
<feBlend mode="normal" in="SourceGraphic" in2="effect1_dropShadow_2966_1676" result="shape"/>
</filter>
<filter id="filter9_d_2966_1676" x="505.648" y="275.238" width="26.0156" height="123.932" filterUnits="userSpaceOnUse" color-interpolation-filters="sRGB">
<feFlood flood-opacity="0" result="BackgroundImageFix"/>
<feColorMatrix in="SourceAlpha" type="matrix" values="0 0 0 0 0 0 0 0 0 0 0 0 0 0 0 0 0 0 127 0" result="hardAlpha"/>
<feOffset dx="5" dy="4"/>
<feGaussianBlur stdDeviation="4"/>
<feComposite in2="hardAlpha" operator="out"/>
<feColorMatrix type="matrix" values="0 0 0 0 0 0 0 0 0 0 0 0 0 0 0 0 0 0 0.25 0"/>
<feBlend mode="normal" in2="BackgroundImageFix" result="effect1_dropShadow_2966_1676"/>
<feBlend mode="normal" in="SourceGraphic" in2="effect1_dropShadow_2966_1676" result="shape"/>
</filter>
<filter id="filter10_d_2966_1676" x="524.992" y="294.691" width="26.0156" height="104.455" filterUnits="userSpaceOnUse" color-interpolation-filters="sRGB">
<feFlood flood-opacity="0" result="BackgroundImageFix"/>
<feColorMatrix in="SourceAlpha" type="matrix" values="0 0 0 0 0 0 0 0 0 0 0 0 0 0 0 0 0 0 127 0" result="hardAlpha"/>
<feOffset dx="5" dy="4"/>
<feGaussianBlur stdDeviation="4"/>
<feComposite in2="hardAlpha" operator="out"/>
<feColorMatrix type="matrix" values="0 0 0 0 0 0 0 0 0 0 0 0 0 0 0 0 0 0 0.25 0"/>
<feBlend mode="normal" in2="BackgroundImageFix" result="effect1_dropShadow_2966_1676"/>
<feBlend mode="normal" in="SourceGraphic" in2="effect1_dropShadow_2966_1676" result="shape"/>
</filter>
<filter id="filter11_d_2966_1676" x="544.32" y="279.152" width="26.0156" height="120.021" filterUnits="userSpaceOnUse" color-interpolation-filters="sRGB">
<feFlood flood-opacity="0" result="BackgroundImageFix"/>
<feColorMatrix in="SourceAlpha" type="matrix" values="0 0 0 0 0 0 0 0 0 0 0 0 0 0 0 0 0 0 127 0" result="hardAlpha"/>
<feOffset dx="5" dy="4"/>
<feGaussianBlur stdDeviation="4"/>
<feComposite in2="hardAlpha" operator="out"/>
<feColorMatrix type="matrix" values="0 0 0 0 0 0 0 0 0 0 0 0 0 0 0 0 0 0 0.25 0"/>
<feBlend mode="normal" in2="BackgroundImageFix" result="effect1_dropShadow_2966_1676"/>
<feBlend mode="normal" in="SourceGraphic" in2="effect1_dropShadow_2966_1676" result="shape"/>
</filter>
<filter id="filter12_d_2966_1676" x="563.656" y="312.309" width="26.0156" height="86.8633" filterUnits="userSpaceOnUse" color-interpolation-filters="sRGB">
<feFlood flood-opacity="0" result="BackgroundImageFix"/>
<feColorMatrix in="SourceAlpha" type="matrix" values="0 0 0 0 0 0 0 0 0 0 0 0 0 0 0 0 0 0 127 0" result="hardAlpha"/>
<feOffset dx="5" dy="4"/>
<feGaussianBlur stdDeviation="4"/>
<feComposite in2="hardAlpha" operator="out"/>
<feColorMatrix type="matrix" values="0 0 0 0 0 0 0 0 0 0 0 0 0 0 0 0 0 0 0.25 0"/>
<feBlend mode="normal" in2="BackgroundImageFix" result="effect1_dropShadow_2966_1676"/>
<feBlend mode="normal" in="SourceGraphic" in2="effect1_dropShadow_2966_1676" result="shape"/>
</filter>
<filter id="filter13_d_2966_1676" x="583.016" y="298.824" width="26.0156" height="100.357" filterUnits="userSpaceOnUse" color-interpolation-filters="sRGB">
<feFlood flood-opacity="0" result="BackgroundImageFix"/>
<feColorMatrix in="SourceAlpha" type="matrix" values="0 0 0 0 0 0 0 0 0 0 0 0 0 0 0 0 0 0 127 0" result="hardAlpha"/>
<feOffset dx="5" dy="4"/>
<feGaussianBlur stdDeviation="4"/>
<feComposite in2="hardAlpha" operator="out"/>
<feColorMatrix type="matrix" values="0 0 0 0 0 0 0 0 0 0 0 0 0 0 0 0 0 0 0.25 0"/>
<feBlend mode="normal" in2="BackgroundImageFix" result="effect1_dropShadow_2966_1676"/>
<feBlend mode="normal" in="SourceGraphic" in2="effect1_dropShadow_2966_1676" result="shape"/>
</filter>
<filter id="filter14_d_2966_1676" x="368.359" y="102.502" width="65.8984" height="79.3262" filterUnits="userSpaceOnUse" color-interpolation-filters="sRGB">
<feFlood flood-opacity="0" result="BackgroundImageFix"/>
<feColorMatrix in="SourceAlpha" type="matrix" values="0 0 0 0 0 0 0 0 0 0 0 0 0 0 0 0 0 0 127 0" result="hardAlpha"/>
<feOffset dy="4"/>
<feGaussianBlur stdDeviation="4.5"/>
<feComposite in2="hardAlpha" operator="out"/>
<feColorMatrix type="matrix" values="0 0 0 0 0 0 0 0 0 0 0 0 0 0 0 0 0 0 0.71 0"/>
<feBlend mode="normal" in2="BackgroundImageFix" result="effect1_dropShadow_2966_1676"/>
<feBlend mode="normal" in="SourceGraphic" in2="effect1_dropShadow_2966_1676" result="shape"/>
</filter>
<linearGradient id="paint0_linear_2966_1676" x1="347.463" y1="52" x2="347.463" y2="463" gradientUnits="userSpaceOnUse">
<stop stop-color="#D59F67"/>
<stop offset="1" stop-color="#592D91"/>
</linearGradient>
<linearGradient id="paint1_linear_2966_1676" x1="397.584" y1="266.9" x2="397.584" y2="387.172" gradientUnits="userSpaceOnUse">
<stop stop-color="#FFD467"/>
<stop offset="1" stop-color="#FFB908"/>
</linearGradient>
<linearGradient id="paint2_linear_2966_1676" x1="416.951" y1="307.736" x2="416.951" y2="387.148" gradientUnits="userSpaceOnUse">
<stop stop-color="#FF9089"/>
<stop offset="1" stop-color="#F4A047"/>
</linearGradient>
<linearGradient id="paint3_linear_2966_1676" x1="436.287" y1="281.854" x2="436.287" y2="387.783" gradientUnits="userSpaceOnUse">
<stop stop-color="#FFD467"/>
<stop offset="1" stop-color="#FFB908"/>
</linearGradient>
<linearGradient id="paint4_linear_2966_1676" x1="455.647" y1="271.527" x2="455.647" y2="387.159" gradientUnits="userSpaceOnUse">
<stop stop-color="#FF9089"/>
<stop offset="1" stop-color="#F4A047"/>
</linearGradient>
<linearGradient id="paint5_linear_2966_1676" x1="474.991" y1="310.188" x2="474.991" y2="387.15" gradientUnits="userSpaceOnUse">
<stop stop-color="#FFD467"/>
<stop offset="1" stop-color="#FFB908"/>
</linearGradient>
<linearGradient id="paint6_linear_2966_1676" x1="494.303" y1="325.273" x2="494.303" y2="387.14" gradientUnits="userSpaceOnUse">
<stop stop-color="#FF9089"/>
<stop offset="1" stop-color="#F4A047"/>
</linearGradient>
<linearGradient id="paint7_linear_2966_1676" x1="513.655" y1="279.238" x2="513.655" y2="387.169" gradientUnits="userSpaceOnUse">
<stop stop-color="#FFD467"/>
<stop offset="1" stop-color="#FFB908"/>
</linearGradient>
<linearGradient id="paint8_linear_2966_1676" x1="532.998" y1="298.691" x2="532.998" y2="387.146" gradientUnits="userSpaceOnUse">
<stop stop-color="#FF9089"/>
<stop offset="1" stop-color="#F4A047"/>
</linearGradient>
<linearGradient id="paint9_linear_2966_1676" x1="552.326" y1="283.152" x2="552.326" y2="387.174" gradientUnits="userSpaceOnUse">
<stop stop-color="#FFD467"/>
<stop offset="1" stop-color="#FFB908"/>
</linearGradient>
<linearGradient id="paint10_linear_2966_1676" x1="571.662" y1="316.309" x2="571.662" y2="387.171" gradientUnits="userSpaceOnUse">
<stop stop-color="#FF9089"/>
<stop offset="1" stop-color="#F4A047"/>
</linearGradient>
<linearGradient id="paint11_linear_2966_1676" x1="591.022" y1="302.824" x2="591.022" y2="387.181" gradientUnits="userSpaceOnUse">
<stop stop-color="#FFD467"/>
<stop offset="1" stop-color="#FFB908"/>
</linearGradient>
<linearGradient id="paint12_linear_2966_1676" x1="267.66" y1="277.861" x2="267.66" y2="338.339" gradientUnits="userSpaceOnUse">
<stop stop-color="#455A64"/>
<stop offset="1" stop-color="#6190A6"/>
</linearGradient>
<linearGradient id="paint13_linear_2966_1676" x1="227.473" y1="207.453" x2="227.473" y2="327.838" gradientUnits="userSpaceOnUse">
<stop stop-color="#F4A047"/>
<stop offset="1" stop-color="#FFC991"/>
</linearGradient>
<linearGradient id="paint14_linear_2966_1676" x1="403.583" y1="112.047" x2="403.583" y2="168.756" gradientUnits="userSpaceOnUse">
<stop stop-color="#FFC329"/>
<stop offset="1" stop-color="#FF982B"/>
</linearGradient>
<linearGradient id="paint15_linear_2966_1676" x1="399.036" y1="107.502" x2="399.036" y2="164.211" gradientUnits="userSpaceOnUse">
<stop stop-color="#FFD467"/>
<stop offset="1" stop-color="#FFAF5A"/>
</linearGradient>
</defs>
</svg>
