<?xml version="1.0" encoding="utf-8"?>
<!-- Generator: Adobe Illustrator 25.3.0, SVG Export Plug-In . SVG Version: 6.00 Build 0)  -->
<svg version="1.1" id="Layer_1" xmlns="http://www.w3.org/2000/svg" xmlns:xlink="http://www.w3.org/1999/xlink" x="0px" y="0px"
	 viewBox="0 0 788.4 119.9" style="enable-background:new 0 0 788.4 119.9;" xml:space="preserve">
<style type="text/css">
	.st0{enable-background:new    ;}
	.st1{fill:#49306B;}
	.st2{fill:#BFDFB9;}
	.st3{fill:#EDA03F;}
	.st4{fill:#6961AB;}
</style>
<g class="st0">
	<path class="st1" d="M250.3,22h24.8l10.3,11.2h-35.2c-3.1,0-6,0.5-8.8,1.5c-2.8,1-5.3,2.4-7.6,4.2c-2.3,1.8-4.2,3.9-5.8,6.3
		c-1.6,2.4-2.7,5-3.3,7.7l-0.3,1.4c-0.1,0.6-0.2,1.1-0.3,1.8c-0.1,0.6-0.1,1.3-0.2,2.1c0,3.2,0.7,6.3,2,9.3c1.3,3,3.2,5.6,5.5,7.9
		c2.3,2.3,5,4.1,8.2,5.5c3.2,1.4,6.6,2.1,10.4,2.1c0.1,0,1.6,0,4.5,0c3,0,6.8,0,11.4-0.1c4.7,0,9.9-0.1,15.8-0.1s11.8,0,17.7-0.1
		c5.9,0,11.7-0.1,17.1-0.1c5.5,0,10.2,0,14.2,0L341.1,94h-90.7c-5.1,0-9.9-0.9-14.5-2.8c-4.6-1.9-8.6-4.4-12.1-7.7
		c-3.5-3.3-6.2-7.1-8.2-11.4c-2-4.4-3-9.1-3-14.2c0-5,1-9.7,3.1-14.1c2.1-4.4,4.8-8.2,8.3-11.4c3.5-3.2,7.5-5.8,12.1-7.6
		C240.5,23,245.3,22,250.3,22z M289.2,21.9h63.1c4.1,0,7.7,0.8,10.7,2.5c3,1.7,5.4,3.8,7.3,6.4c2.4,3.2,3.7,6.6,3.9,10.5
		c0.2,3.8-0.6,7.4-2.3,10.7c-1.7,3.3-4.2,6.1-7.6,8.3c-3.4,2.2-7.4,3.3-12.1,3.3h-9.5c0.2,0.2,0.7,0.8,1.6,1.8
		c0.9,1,1.9,2.2,3.1,3.7c1.2,1.5,2.6,3.1,4.2,4.9c1.5,1.8,3.1,3.6,4.7,5.5L368.9,94H355c-2.7-3-5.3-5.8-7.8-8.7
		c-2.5-2.8-5-5.6-7.4-8.2l-22.4-24.7h37.1c2.5-0.3,4.6-1.4,6.4-3.2c1.8-1.8,2.7-3.9,2.7-6.4c0-1.4-0.3-2.6-0.9-3.8
		c-0.6-1.2-1.4-2.2-2.4-3c-1-0.9-2.1-1.5-3.3-2c-1.2-0.5-2.5-0.7-3.8-0.7h-53.8L289.2,21.9z"/>
	<path class="st1" d="M383.5,52.2h106.6c1.4,0,2.7-0.3,4-0.8c1.3-0.5,2.4-1.2,3.3-2.1c0.9-0.9,1.7-1.9,2.2-3
		c0.5-1.2,0.8-2.4,0.8-3.7c0-1.3-0.3-2.5-0.8-3.7c-0.6-1.2-1.3-2.2-2.2-3c-0.9-0.9-2-1.5-3.3-2c-1.3-0.5-2.6-0.7-4-0.7H383.5V21.9
		H490c3,0,5.7,0.5,8.3,1.5c2.6,1,4.9,2.5,6.9,4.3c2,1.8,3.6,4,4.7,6.5c1.2,2.5,1.8,5.3,1.8,8.2c0,3-0.6,5.8-1.7,8.3
		c-1.1,2.5-2.7,4.7-4.7,6.6c-2,1.9-4.3,3.3-7,4.4c-2.6,1.1-5.4,1.6-8.4,1.6h-94.8v30.4h-11.7V52.2z"/>
	<path class="st1" d="M516.8,33.3V21.9h128.3v11.3h-58.4V94H575V33.3H516.8z"/>
	<path class="st1" d="M653.4,94V21.9l64.1,54.7L782,21.9V94h-11.7v-47l-52.6,44.7l-52.4-44.7v47H653.4z"/>
</g>
<g>
	<path class="st2" d="M85,56.5c0.5-6.5-1.7-13.4-9.1-16.7c-4.6-2-10-2.5-15.1-3.1c-7.1-0.8-11.4-4.8-13.5-11.1
		c-2.1-6.5-0.2-12.6,4.8-17.3c4.8-4.5,10.5-5,16.6-2.6c6.3,2.5,9.5,7.1,10,13.9c0.2,3.2,0.4,6.5,1,9.6c1.6,8.2,8.2,13.4,18.3,13.6
		c4.8,0.1,9.9-0.8,14.5-2.2c6.4-2,9.1-7.7,10.3-13.9c0.5-2.4,0.6-4.9,0.8-7.4c0.7-9.3,9.8-16.9,19-15.6c8.2,1.1,13.9,10.2,12.3,19.5
		c-1.5,8.6-6.7,13.2-15.9,13.5c-8,0.2-15,2.3-18.7,9.7c-2,3.8-2.1,8.5-3.1,12.9c-1.2,5.7-2.7,11.4-8.6,13.9
		C98.9,77.3,84.2,74.2,85,56.5z"/>
	<path class="st3" d="M122.5,94.3c0.5-6.4-1.6-13.2-9-16.5c-4.5-2-9.9-2.5-14.9-3.1c-7-0.8-11.3-4.8-13.3-11
		c-2.1-6.4-0.2-12.5,4.8-17.1c4.7-4.4,10.3-5,16.4-2.5c6.3,2.5,9.4,7.1,9.8,13.7c0.2,3.2,0.4,6.4,1,9.5c1.6,8.1,8.1,13.2,18.1,13.5
		c4.8,0.1,9.8-0.8,14.3-2.2c6.4-2,9-7.6,10.2-13.7c0.5-2.4,0.6-4.9,0.8-7.3c0.7-9.2,9.7-16.7,18.7-15.4c8.1,1.1,13.7,10.1,12.1,19.3
		c-1.5,8.5-6.6,13.1-15.7,13.3c-7.9,0.2-14.8,2.3-18.5,9.6c-1.9,3.8-2.1,8.4-3,12.7c-1.2,5.6-2.7,11.3-8.5,13.7
		C136.3,114.8,121.8,111.7,122.5,94.3z"/>
	<path class="st4" d="M26.2,42.1c6.5,0.5,13.4-1.7,16.7-9.1c2-4.6,2.5-10,3.1-15.1c0.8-7.1,4.8-11.4,11.1-13.5
		c6.5-2.1,12.6-0.2,17.3,4.8c4.5,4.8,5,10.5,2.6,16.6c-2.5,6.3-7.1,9.5-13.9,10c-3.2,0.2-6.5,0.4-9.6,1c-8.2,1.6-13.4,8.2-13.6,18.3
		c-0.1,4.8,0.8,9.9,2.2,14.5c2,6.4,7.7,9.1,13.9,10.3c2.4,0.5,4.9,0.6,7.4,0.8c9.3,0.7,16.9,9.8,15.6,19
		c-1.1,8.2-10.2,13.9-19.5,12.3c-8.6-1.5-13.2-6.7-13.5-15.9c-0.2-8-2.3-15-9.7-18.7c-3.8-2-8.5-2.1-12.9-3.1
		c-5.7-1.2-11.4-2.7-13.9-8.6C5.5,56,8.5,41.4,26.2,42.1z"/>
</g>
</svg>
