<svg xmlns="http://www.w3.org/2000/svg" width="288" height="130" viewBox="0 0 288 130">
  <g id="Group_980" data-name="Group 980" transform="translate(-927 -253)">
    <g id="Rectangle_522" data-name="Rectangle 522" transform="translate(927 253)" fill="#fff" stroke="#db903f" stroke-width="1">
      <rect width="288" height="130" stroke="none"/>
      <rect x="0.5" y="0.5" width="287" height="129" fill="none"/>
    </g>
    <rect id="Rectangle_523" data-name="Rectangle 523" width="87" height="128" transform="translate(1127 254)" fill="#dbdbdb"/>
    <text id="Step_03" data-name="Step 03" transform="translate(998 285)" fill="#db903f" font-size="18" font-family="OpenSans, Open Sans" letter-spacing="-0.03em"><tspan x="0" y="0">Step 03</tspan></text>
    <text id="Manage_your_Portfolio" data-name="Manage
your Portfolio" transform="translate(1028 333)" fill="#db903f" font-size="20" font-family="OpenSans-Semibold, Open Sans" font-weight="600" letter-spacing="-0.03em"><tspan x="-37.001" y="0">Manage</tspan><tspan x="-62.75" y="23">your Portfolio</tspan></text>
    <line id="Line_2" data-name="Line 2" x2="175" transform="translate(940.5 299.5)" fill="none" stroke="#707070" stroke-width="1"/>
    <path id="chart-line-data" d="M11.318,20.115a4.781,4.781,0,0,0,1.057.135,4.5,4.5,0,0,0,2.508-.764l3.624,3.228a4.365,4.365,0,0,0-.225,3.566,4.5,4.5,0,1,0,7.166-4.905l2.857-5.726a4.252,4.252,0,0,0,3.274-.6,4.5,4.5,0,1,0-5.276-.427l-2.857,5.726a4.343,4.343,0,0,0-.946-.1,4.5,4.5,0,0,0-2.508.764l-3.624-3.228a4.365,4.365,0,0,0,.225-3.566,4.5,4.5,0,1,0-7.256,4.826L4.5,28.125V2.25H2.25V31.5A2.25,2.25,0,0,0,4.5,33.75H33.75V31.5H5.254ZM29.25,9A2.25,2.25,0,1,1,27,11.25,2.25,2.25,0,0,1,29.25,9Zm-4.5,15.75A2.25,2.25,0,1,1,22.5,22.5,2.25,2.25,0,0,1,24.75,24.75ZM12.375,13.5a2.25,2.25,0,1,1-2.25,2.25A2.25,2.25,0,0,1,12.375,13.5Z" transform="translate(1149.156 300.75)" fill="#db903f"/>
  </g>
</svg>
