<?xml version="1.0" encoding="UTF-8"?>
<!DOCTYPE svg PUBLIC "-//W3C//DTD SVG 1.1//EN" "http://www.w3.org/Graphics/SVG/1.1/DTD/svg11.dtd">
<!-- Creator: CorelDRAW X7 -->
<svg xmlns="http://www.w3.org/2000/svg" xml:space="preserve" width="2.42478in" height="1.8235in" version="1.1" style="shape-rendering:geometricPrecision; text-rendering:geometricPrecision; image-rendering:optimizeQuality; fill-rule:evenodd; clip-rule:evenodd"
viewBox="0 0 2425 1824"
 xmlns:xlink="http://www.w3.org/1999/xlink">
 <defs>
  <style type="text/css">
   <![CDATA[
    .str1 {stroke:#FEFEFE;stroke-width:20.8347;stroke-linecap:round;stroke-linejoin:round}
    .str0 {stroke:#FEFEFE;stroke-width:13.8898;stroke-linecap:round;stroke-linejoin:round}
    .fil7 {fill:none}
    .fil1 {fill:#FEFEFE}
    .fil2 {fill:#F89F33}
    .fil3 {fill:#FEFEFE;fill-rule:nonzero}
    .fil4 {fill:url(#id0)}
    .fil5 {fill:url(#id1)}
    .fil8 {fill:url(#id2)}
    .fil0 {fill:url(#id3)}
    .fil9 {fill:url(#id4)}
    .fil6 {fill:url(#id5)}
   ]]>
  </style>
  <linearGradient id="id0" gradientUnits="userSpaceOnUse" x1="1084" y1="-47.3465" x2="1291.49" y2="160.142">
   <stop offset="0" style="stop-opacity:1; stop-color:#5B4A88"/>
   <stop offset="1" style="stop-opacity:1; stop-color:#4C3A6D"/>
  </linearGradient>
  <linearGradient id="id1" gradientUnits="userSpaceOnUse" xlink:href="#id0" x1="73.882" y1="1168.37" x2="460.607" y2="1555.09">
  </linearGradient>
  <linearGradient id="id2" gradientUnits="userSpaceOnUse" xlink:href="#id0" x1="1964.18" y1="1168.37" x2="2350.91" y2="1555.09">
  </linearGradient>
  <linearGradient id="id3" gradientUnits="userSpaceOnUse" xlink:href="#id0" x1="717.993" y1="349.575" x2="1657.48" y2="1293.51">
  </linearGradient>
  <linearGradient id="id4" gradientUnits="userSpaceOnUse" xlink:href="#id0" x1="2414.39" y1="1530.5" x2="2026.21" y2="1530.5">
  </linearGradient>
  <linearGradient id="id5" gradientUnits="userSpaceOnUse" xlink:href="#id0" x1="398.579" y1="1530.5" x2="10.4016" y2="1530.5">
  </linearGradient>
 </defs>
 <g id="Layer_x0020_1">
  <metadata id="CorelCorpID_0Corel-Layer"/>
  <g id="_2232030705392">
   <rect class="fil0" x="498" y="166" width="1379" height="1311" rx="235" ry="236"/>
   <path class="fil1" d="M1142 736c0,-2 0,-4 0,-5 0,-22 0,-44 -1,-66 -2,-21 -5,-41 -15,-59 -14,-28 -35,-40 -66,-35 -25,4 -40,20 -49,43 -10,25 -11,52 -12,79 0,14 0,28 0,43 49,0 96,0 143,0zm228 0c0,-1 1,-2 1,-2 -1,-33 -1,-66 -4,-98 -1,-22 -7,-43 -17,-63 -24,-46 -84,-49 -112,-6 -11,17 -17,36 -20,56 -6,35 -5,71 -4,107 0,2 0,4 1,6 51,0 103,0 155,0zm-569 -127c2,0 5,0 7,0 34,0 68,0 103,0 6,0 8,-1 8,-8 4,-37 11,-73 29,-106 20,-38 53,-56 95,-59 20,-1 40,0 59,7 23,9 39,25 52,45 1,2 2,4 3,6 1,1 1,1 2,2 2,-7 4,-14 7,-20 11,-31 28,-56 59,-71 20,-9 43,-12 65,-11 31,1 61,7 88,23 32,19 49,49 61,83 10,31 14,63 16,95 0,3 1,7 1,10 0,1 0,2 1,4 19,0 39,0 59,0 19,0 38,0 58,0 0,24 0,48 0,72 -38,0 -76,0 -115,0 0,19 0,37 0,56 38,0 76,0 115,0 0,25 0,48 0,72 -39,0 -78,0 -118,0 0,48 0,96 0,144 -29,-5 -57,-10 -85,-14 0,-13 0,-25 0,-37 0,-5 0,-10 0,-15 -1,-17 -11,-27 -28,-27 -11,0 -21,0 -32,0 -92,0 -184,0 -275,0 -27,0 -40,13 -41,39 -1,15 0,29 0,44 0,3 0,6 0,9 -26,0 -51,0 -77,0 0,-47 0,-94 0,-143 -39,0 -78,0 -117,0 0,-24 0,-48 0,-72 1,0 3,0 4,0 35,0 71,0 106,0 2,0 3,0 4,0 0,-19 0,-37 0,-56 -39,0 -76,0 -114,0 0,-24 0,-48 0,-72z"/>
   <circle class="fil2" cx="1295" cy="646" r="41"/>
   <path class="fil2" d="M1073 605c23,0 41,19 41,41 0,23 -18,42 -41,42 -23,0 -41,-19 -41,-42 0,-22 18,-41 41,-41z"/>
   <path class="fil3" d="M992 1165c-13,-12 -14,-32 -2,-45 12,-13 32,-14 45,-2 2,2 1,2 2,2 37,33 91,51 145,52 54,0 106,-16 138,-51l2 -2c12,-13 32,-15 45,-3 13,12 14,32 2,45 0,0 -1,1 -2,2 -46,50 -115,72 -185,72 -69,-1 -139,-25 -187,-67 -3,-3 -3,-3 -3,-3z"/>
   <g>
    <circle class="fil1" cx="1096" cy="632" r="12"/>
    <circle class="fil1" cx="1082" cy="615" r="5"/>
   </g>
   <g>
    <circle class="fil1" cx="1318" cy="632" r="12"/>
    <circle class="fil1" cx="1304" cy="615" r="5"/>
   </g>
   <path class="fil4" d="M1188 0c125,0 288,113 226,113l-453 0c-62,0 102,-113 227,-113z"/>
   <path class="fil5 str0" d="M190 1750l186 -14c32,-59 78,-257 42,-399 -22,-86 -24,-259 -51,-322 -28,-62 -106,-54 -121,18 -15,73 6,116 -16,220l-127 257 87 240z"/>
   <path class="fil6 str1" d="M375 1541c5,-23 24,-40 24,-65 -1,-22 -17,-47 -20,-62 -5,-31 11,-64 3,-94 -11,-39 -39,-70 -81,-72 -73,-2 -146,14 -214,34 -90,27 -105,393 -23,463 28,24 81,74 159,68 41,-4 110,-30 138,-59 1,-1 31,-34 36,-68 3,-14 -18,-35 -17,-44 5,-31 10,-27 10,-37 -1,-43 -19,-45 -15,-64z"/>
   <path class="fil7 str1" d="M183 1398c62,20 127,26 195,17"/>
   <path class="fil7 str1" d="M183 1539c73,11 136,12 191,6"/>
   <path class="fil7 str1" d="M198 1659c69,6 138,18 183,-10"/>
   <path class="fil8 str0" d="M2235 1750l-187 -14c-31,-59 -77,-257 -41,-399 22,-86 23,-259 51,-322 28,-62 106,-54 121,18 15,73 -6,116 16,220l126 257 -86 240z"/>
   <path class="fil9 str1" d="M2050 1541c-6,-23 -24,-40 -24,-65 1,-22 17,-47 20,-62 5,-31 -11,-64 -3,-94 11,-39 39,-70 81,-72 72,-2 146,14 214,34 90,27 105,393 23,463 -29,24 -82,74 -160,68 -40,-4 -110,-30 -137,-59 -2,-1 -31,-34 -36,-68 -3,-14 18,-35 16,-44 -4,-31 -10,-27 -9,-37 1,-43 19,-45 15,-64z"/>
   <path class="fil7 str1" d="M2242 1398c-62,20 -127,26 -195,17"/>
   <path class="fil7 str1" d="M2242 1539c-73,11 -136,12 -191,6"/>
   <path class="fil7 str1" d="M2226 1659c-68,6 -137,18 -182,-10"/>
  </g>
 </g>
</svg>
