<svg xmlns="http://www.w3.org/2000/svg" xmlns:xlink="http://www.w3.org/1999/xlink" width="740.449" height="959.154" viewBox="0 0 740.449 959.154">
  <defs>
    <linearGradient id="linear-gradient" x1="0.165" y1="0.131" x2="0.834" y2="0.867" gradientUnits="objectBoundingBox">
      <stop offset="0" stop-color="#5b4a88"/>
      <stop offset="1" stop-color="#4c3a6d"/>
    </linearGradient>
    <linearGradient id="linear-gradient-2" x1="0.856" y1="0.788" x2="0.143" y2="0.215" xlink:href="#linear-gradient"/>
    <linearGradient id="linear-gradient-3" x1="0.159" y1="0.14" x2="0.84" y2="0.86" xlink:href="#linear-gradient"/>
    <linearGradient id="linear-gradient-4" x1="0.284" y1="-0.417" x2="0.716" y2="1.411" xlink:href="#linear-gradient"/>
    <linearGradient id="linear-gradient-5" x1="0.117" y1="0.177" x2="0.883" y2="0.823" gradientUnits="objectBoundingBox">
      <stop offset="0" stop-color="#5b4a88"/>
      <stop offset="1" stop-color="#4e3b75"/>
    </linearGradient>
    <linearGradient id="linear-gradient-7" x1="0.192" y1="0.094" x2="0.808" y2="0.906" xlink:href="#linear-gradient"/>
  </defs>
  <g id="Group_4" data-name="Group 4" transform="translate(-114 -88.846)">
    <ellipse id="Ellipse_7" data-name="Ellipse 7" cx="165.209" cy="28.321" rx="165.209" ry="28.321" transform="translate(278.294 991.357)" fill="#e6e7e8"/>
    <path id="Path_23" data-name="Path 23" d="M631.811,660.468c10.385,10.385,6.608,8.5,19.825-1.888C684.678,632.146,768.7,558.51,772.474,567.951c5.664,13.217-74.58,118.95-111.4,159.544-18.881,21.713-13.217,21.713-36.818.944L578,688.789l12.273-68.916Z" transform="translate(81.69 57.115)" fill-rule="evenodd" fill="url(#linear-gradient)"/>
    <path id="Path_24" data-name="Path 24" d="M84.963,690.692c-13.217,5.664-9.44,5.664-1.888,20.769,17.937,37.762,71.748,135,62.307,136.887-15.1,3.776-100.069-98.181-132.167-142.551-16.993-23.6-20.769-21.713,7.552-36.818L114.228,618l7.552,57.587Z" transform="translate(114.031 54.268)" fill-rule="evenodd" fill="url(#linear-gradient-2)"/>
    <rect id="Rectangle_4" data-name="Rectangle 4" width="493.738" height="469.192" rx="60" transform="translate(197.106 148.321)" fill="url(#linear-gradient-3)"/>
    <path id="Path_25" data-name="Path 25" d="M324.782,271.726v-1.888c0-7.552,0-16.049-.944-23.6,0-7.552-1.888-14.161-4.72-20.769-4.72-10.385-13.217-15.1-23.6-13.217-9.44,1.888-15.1,7.552-17.937,16.049-3.776,8.5-3.776,18.881-3.776,28.321-.944,4.72,0,9.44,0,15.1Zm81.188,0v-.944c0-11.329,0-23.6-.944-34.93,0-7.552-2.832-15.1-5.664-22.657-8.5-16.049-30.21-17.937-40.594-1.888-3.776,5.664-5.664,13.217-6.608,19.825-2.832,12.273-1.888,25.489-1.888,38.706v1.888ZM203,226.412h38.706a2.5,2.5,0,0,0,2.832-2.832c1.888-13.217,3.776-26.433,10.385-37.762,7.552-14.161,18.881-20.769,33.986-21.713,7.552,0,14.161,0,21.713,2.832a33.121,33.121,0,0,1,17.937,16.049c.944.944.944,1.888,1.888,1.888v.944c.944-2.832,1.888-4.72,2.832-7.552,3.776-10.385,10.385-19.825,20.769-24.545,7.552-3.776,15.1-4.72,23.6-4.72,11.329.944,21.713,2.832,31.154,8.5,11.329,6.608,17.937,17.937,21.713,29.266a108.336,108.336,0,0,1,5.664,34.93,3.468,3.468,0,0,1,.944,2.832v1.888h42.482V251.9H438.068v19.825h41.538V298.16H437.124v50.979c-10.385-1.888-20.769-2.832-31.154-4.72V325.537c0-5.664-2.832-9.44-9.44-9.44H286.076c-8.5,0-14.161,4.72-14.161,14.161v18.881H244.538V298.16H203V271.726h40.594V251.9H203Z" transform="translate(102.672 80.509)" fill="#fefefe" fill-rule="evenodd"/>
    <circle id="Ellipse_8" data-name="Ellipse 8" cx="15.105" cy="15.105" r="15.105" transform="translate(467.104 305.033)" fill="#f89f33"/>
    <path id="Path_26" data-name="Path 26" d="M305.1,229c7.552,0,14.161,6.608,14.161,15.1s-6.608,15.1-14.161,15.1a15.1,15.1,0,0,1,0-30.21Z" transform="translate(97.804 76.033)" fill="#f89f33" fill-rule="evenodd"/>
    <path id="Path_27" data-name="Path 27" d="M274.783,439.831c-4.72-3.776-4.72-11.329-.944-15.1,4.72-4.72,11.329-5.664,16.049-.944.944.944.944,0,.944.944,13.217,11.329,33.042,17.937,51.923,17.937s37.762-5.664,49.091-17.937l.944-.944c3.776-4.72,11.329-4.72,16.049-.944s4.72,11.329.944,16.049l-.944.944c-16.049,17.937-41.538,25.489-66.083,25.489s-50.035-8.5-67.027-23.6C274.783,440.775,274.783,440.775,274.783,439.831Z" transform="translate(98.861 65.34)" fill="#fefefe"/>
    <g id="_2834632985696" transform="translate(403.853 306.921)">
      <circle id="Ellipse_9" data-name="Ellipse 9" cx="4.72" cy="4.72" r="4.72" transform="translate(1.888 3.776)" fill="#fefefe"/>
      <circle id="Ellipse_10" data-name="Ellipse 10" cx="1.888" cy="1.888" r="1.888" fill="#fefefe"/>
    </g>
    <g id="_2834632986976" transform="translate(483.153 306.921)">
      <circle id="Ellipse_11" data-name="Ellipse 11" cx="4.72" cy="4.72" r="4.72" transform="translate(1.888 3.776)" fill="#fefefe"/>
      <circle id="Ellipse_12" data-name="Ellipse 12" cx="1.888" cy="1.888" r="1.888" fill="#fefefe"/>
    </g>
    <path id="Path_28" data-name="Path 28" d="M343.911,0c44.37,0,103.845,40.594,81.188,40.594H262.723C241.01,40.594,299.541,0,343.911,0Z" transform="translate(99.592 88.846)" fill-rule="evenodd" fill="url(#linear-gradient-4)"/>
    <g id="_2834632988224" transform="translate(332.102 960.203)">
      <path id="Path_29" data-name="Path 29" d="M285.755,923c-.944,0,0,55.7-27.377,55.7C230.056,978.7,231,923,231,923Z" transform="translate(-230.996 -923)" fill-rule="evenodd" fill="url(#linear-gradient-5)"/>
      <path id="Path_30" data-name="Path 30" d="M464.755,923c-.944,0,0,55.7-27.377,55.7C409.056,978.7,410,923,410,923Z" transform="translate(-241.011 -923)" fill-rule="evenodd" fill="url(#linear-gradient-5)"/>
    </g>
    <g id="_2834632988928" transform="translate(355.175 790.195)">
      <path id="Path_31" data-name="Path 31" d="M331.8,793.974c.944-6.608-1.888-13.217-8.5-16.049-4.72-1.888-9.44-1.888-15.1-2.832-6.608-.944-10.385-4.72-12.273-10.385-2.832-6.608-.944-12.273,4.72-16.993,3.776-4.72,9.44-4.72,15.1-2.832,6.608,2.832,9.44,7.552,10.385,14.161a26.137,26.137,0,0,0,.944,8.5c.944,8.5,7.552,13.217,16.993,13.217a72.869,72.869,0,0,0,14.161-1.888c6.608-1.888,8.5-7.552,9.44-13.217a20.786,20.786,0,0,0,.944-7.552c.944-8.5,9.44-16.049,18.881-15.1,7.552.944,13.217,10.385,11.329,18.881-.944,8.5-6.608,13.217-15.1,13.217-7.552,0-14.161,1.888-17.937,9.44-1.888,3.776-1.888,7.552-2.832,12.273-.944,5.664-2.832,11.329-8.5,13.217-9.44,3.776-23.6.944-22.657-16.049Z" transform="translate(-257.63 -742.915)" fill="#bfdfb9" fill-rule="evenodd"/>
      <path id="Path_32" data-name="Path 32" d="M369.831,833.017c.944-6.608-.944-13.217-8.5-16.049a37.88,37.88,0,0,0-14.161-2.832c-6.608-.944-11.329-4.72-13.217-11.329-1.888-5.664,0-11.329,4.72-16.049a16.494,16.494,0,0,1,16.049-2.832c5.664,2.832,8.5,7.552,9.44,13.217,0,3.776,0,6.608.944,9.44C367,814.136,372.663,819.8,382.1,819.8a72.869,72.869,0,0,0,14.161-1.888c5.664-1.888,8.5-7.552,9.44-13.217a20.786,20.786,0,0,0,.944-7.552c.944-8.5,9.44-16.049,17.937-14.161,7.552.944,13.217,9.44,11.329,17.937-.944,8.5-5.664,13.217-15.1,13.217-7.552,0-14.161,1.888-16.993,9.44-1.888,2.832-2.832,7.552-2.832,11.329-1.888,5.664-2.832,11.329-8.5,13.217C383.048,851.9,368.887,849.066,369.831,833.017Z" transform="translate(-259.79 -745.141)" fill="#f89f33" fill-rule="evenodd"/>
      <path id="Path_33" data-name="Path 33" d="M272.961,779.831c6.608.944,13.217-.944,16.049-8.5a37.881,37.881,0,0,0,2.832-14.161c.944-6.608,4.72-11.329,11.329-13.217,5.664-1.888,11.329,0,16.049,4.72s4.72,10.385,2.832,16.049c-2.832,5.664-6.608,9.44-13.217,9.44-3.776,0-6.608,0-9.44.944-7.552,1.888-13.217,7.552-13.217,17.937a55.715,55.715,0,0,0,1.888,13.217c1.888,6.608,7.552,9.44,13.217,10.385,2.832,0,4.72.944,7.552.944,8.5,0,16.049,9.44,15.1,17.937-.944,7.552-9.44,13.217-18.881,12.273-8.5-1.888-12.273-6.608-13.217-16.049,0-7.552-1.888-14.161-9.44-17.937-2.832-1.888-7.552-1.888-12.273-2.832-5.664-.944-10.385-2.832-13.217-8.5-3.776-8.5-.944-22.657,16.049-22.657Z" transform="translate(-255.437 -742.933)" fill="#fefefe" fill-rule="evenodd"/>
    </g>
    <path id="Path_34" data-name="Path 34" d="M197.679,582H477.118c30.21,0,60.419,25.489,55.7,56.643L504.5,826.509c-4.72,31.154-25.489,56.643-55.7,56.643H226c-30.21,0-50.979-25.489-55.7-56.643L141.98,638.643C138.2,607.489,167.47,582,197.679,582Z" transform="translate(106.104 56.283)" fill-rule="evenodd" fill="url(#linear-gradient-7)"/>
    <g id="_2834632989920" transform="translate(355.175 736.384)">
      <path id="Path_35" data-name="Path 35" d="M331.8,736.974c.944-6.608-1.888-13.217-8.5-16.049-4.72-1.888-9.44-1.888-15.1-2.832-6.608-.944-10.385-4.72-12.273-10.385-2.832-6.608-.944-12.273,4.72-16.993,3.776-4.72,9.44-4.72,15.1-2.832A16.3,16.3,0,0,1,326.132,701.1c0,3.776,0,6.608.944,9.44.944,8.5,7.552,13.217,16.993,13.217a72.874,72.874,0,0,0,14.161-1.888c6.608-1.888,8.5-7.552,9.44-13.217a20.786,20.786,0,0,0,.944-7.552c.944-8.5,9.44-16.049,18.881-15.1,7.552.944,13.217,10.385,11.329,18.881-.944,8.5-6.608,13.217-15.1,13.217-7.552,0-14.161,1.888-17.937,9.44-1.888,3.776-1.888,7.552-2.832,12.273-.944,5.664-2.832,11.329-8.5,13.217-9.44,3.776-23.6.944-22.657-16.049Z" transform="translate(-257.63 -685.915)" fill="#bfdfb9" fill-rule="evenodd"/>
      <path id="Path_36" data-name="Path 36" d="M369.831,775.974c.944-6.608-.944-13.217-8.5-16.049a37.881,37.881,0,0,0-14.161-2.832c-6.608-.944-11.329-4.72-13.217-11.329-1.888-5.664,0-11.328,4.72-16.049s10.385-4.72,16.049-2.832c5.664,2.832,8.5,7.552,9.44,13.217,0,3.776,0,6.608.944,9.441,1.888,7.552,7.552,12.273,16.993,13.217a72.879,72.879,0,0,0,14.161-1.888c5.664-1.888,8.5-7.552,9.44-13.217a20.787,20.787,0,0,0,.944-7.552c.944-8.5,9.44-16.049,17.937-15.1,7.552,1.888,13.217,10.385,11.329,18.881-.944,8.5-5.664,12.273-15.1,13.217-7.552,0-14.161,1.888-16.993,8.5a29.07,29.07,0,0,0-2.832,12.273c-1.888,5.664-2.832,11.329-8.5,13.217C383.048,794.855,368.887,792.023,369.831,775.974Z" transform="translate(-259.79 -688.097)" fill="#f89f33" fill-rule="evenodd"/>
      <path id="Path_37" data-name="Path 37" d="M272.961,722.831c6.608.944,13.217-.944,16.049-8.5a37.881,37.881,0,0,0,2.832-14.161c.944-6.608,4.72-11.329,11.329-13.217,5.664-1.888,11.329,0,16.049,4.72s4.72,10.385,2.832,16.049c-2.832,5.664-6.608,8.5-13.217,9.44-3.776,0-6.608,0-9.44.944-7.552,1.888-13.217,7.552-13.217,17.937a55.715,55.715,0,0,0,1.888,13.217c1.888,6.608,7.552,9.44,13.217,10.385a20.786,20.786,0,0,1,7.552.944c8.5,0,16.049,9.44,15.1,17.937-.944,7.552-9.44,13.217-18.881,12.273-8.5-1.888-12.273-6.608-13.217-16.049,0-7.552-1.888-14.161-9.44-17.937-2.832-1.888-7.552-1.888-12.273-2.832-5.664-.944-10.385-2.832-13.217-8.5-3.776-8.5-.944-22.657,16.049-22.657Z" transform="translate(-255.437 -685.933)" fill="#fefefe" fill-rule="evenodd"/>
    </g>
  </g>
</svg>
