<svg width="82" height="82" viewBox="0 0 82 82" fill="none" xmlns="http://www.w3.org/2000/svg">
<path d="M41 81.999C63.6437 81.999 82 63.6429 82 40.9995C82 18.3561 63.6437 0 41 0C18.3563 0 0 18.3561 0 40.9995C0 63.6429 18.3563 81.999 41 81.999Z" fill="white"/>
<path d="M41 81.4923C63.3675 81.4923 81.5 63.3631 81.5 40.9996C81.5 18.6361 63.3675 0.506836 41 0.506836C18.6325 0.506836 0.5 18.6361 0.5 40.9996C0.5 63.3631 18.6325 81.4923 41 81.4923Z" stroke="#6660AB"/>
<path d="M44.5819 40.8428V40.5144C43.1477 37.4439 40.9798 34.7848 38.2749 32.7783H28.1419C22.8549 36.3844 19.0959 44.9333 19.0959 51.0255C19.0959 58.936 25.4219 59.6809 33.2179 59.6809C37.8549 59.6809 41.9579 59.4103 44.5249 57.5434C44.2257 57.212 44.053 56.7833 44.0379 56.3343V51.6347C44.0567 52.1158 44.2543 52.572 44.5909 52.9117V52.863C44.2557 52.5223 44.0584 52.0668 44.0379 51.586V46.8772C44.0567 47.3584 44.2543 47.8145 44.5909 48.1543V48.1056C44.2557 47.7649 44.0584 47.3093 44.0379 46.8286V42.129C44.0548 41.6465 44.2488 41.1878 44.5819 40.8428Z" fill="#F4A047"/>
<path d="M53.5131 45.9679C58.746 45.9679 62.9881 44.249 62.9881 42.1287C62.9881 40.0084 58.746 38.2896 53.5131 38.2896C48.2802 38.2896 44.0381 40.0084 44.0381 42.1287C44.0381 44.249 48.2802 45.9679 53.5131 45.9679Z" fill="#FAB915"/>
<path d="M33.2179 54.2665C37.571 54.2665 41.0999 50.6899 41.0999 46.278C41.0999 41.8661 37.571 38.2896 33.2179 38.2896C28.8648 38.2896 25.3359 41.8661 25.3359 46.278C25.3359 50.6899 28.8648 54.2665 33.2179 54.2665Z" fill="#FAB915"/>
<path d="M38.9041 28.9087H27.5301C27.2795 28.9087 27.0313 28.9587 26.7997 29.0559C26.5682 29.1531 26.3578 29.2956 26.1806 29.4752C26.0033 29.6548 25.8628 29.8681 25.7669 30.1028C25.6709 30.3374 25.6216 30.589 25.6216 30.843C25.6216 31.097 25.6709 31.3485 25.7669 31.5832C25.8628 31.8179 26.0033 32.0311 26.1806 32.2107C26.3578 32.3903 26.5682 32.5328 26.7997 32.63C27.0313 32.7272 27.2795 32.7773 27.5301 32.7773H38.9041C39.4102 32.7773 39.8957 32.5735 40.2536 32.2107C40.6115 31.848 40.8126 31.356 40.8126 30.843C40.8126 30.33 40.6115 29.838 40.2536 29.4752C39.8957 29.1125 39.4102 28.9087 38.9041 28.9087V28.9087Z" fill="white"/>
<path d="M53.5131 45.9578C48.2841 45.9578 44.0381 44.2349 44.0381 42.1187V46.8183C44.0381 48.9365 48.2841 50.6575 53.5131 50.6575C58.7421 50.6575 62.9881 48.9345 62.9881 46.8183V42.1187C62.9881 44.246 58.7421 45.9578 53.5131 45.9578Z" fill="#F9C48C"/>
<path d="M53.5131 50.7161C48.2841 50.7161 44.0381 48.9932 44.0381 46.877V51.5766C44.0381 53.6948 48.2841 55.4158 53.5131 55.4158C58.7421 55.4158 62.9881 53.6928 62.9881 51.5766V46.877C62.9881 48.9952 58.7421 50.7161 53.5131 50.7161Z" fill="#F9C48C"/>
<path d="M53.5131 55.4667C48.2841 55.4667 44.0381 53.7437 44.0381 51.6275V56.3272C44.0381 58.4454 48.2841 60.1663 53.5131 60.1663C58.7421 60.1663 62.9881 58.4434 62.9881 56.3272V51.6255C62.9881 53.7528 58.7421 55.4667 53.5131 55.4667Z" fill="#F9C48C"/>
<path d="M37.5971 28.9095L40.4601 21.4531C35.8511 19.1322 30.0501 25.118 25.9761 21.4531L28.8391 28.9095H37.5971Z" fill="#F4A047"/>
<path d="M33.9331 51.6164V51.1421C34.5944 50.9672 35.17 50.5539 35.5521 49.9796C35.9343 49.4053 36.0966 48.7095 36.0088 48.0226C35.9209 47.3357 35.589 46.7048 35.075 46.2482C34.5611 45.7917 33.9005 45.5407 33.2171 45.5424C32.9434 45.5424 32.6758 45.4602 32.4482 45.306C32.2206 45.1519 32.0432 44.9328 31.9385 44.6765C31.8337 44.4202 31.8063 44.1382 31.8597 43.8661C31.9131 43.594 32.0449 43.344 32.2385 43.1479C32.432 42.9517 32.6786 42.8181 32.9471 42.764C33.2156 42.7099 33.4938 42.7376 33.7467 42.8438C33.9996 42.95 34.2158 43.1298 34.3679 43.3604C34.5199 43.5911 34.6011 43.8623 34.6011 44.1397C34.608 44.3274 34.6864 44.505 34.8199 44.6352C34.9533 44.7655 35.1313 44.8383 35.3166 44.8383C35.5019 44.8383 35.6799 44.7655 35.8133 44.6352C35.9468 44.505 36.0252 44.3274 36.0321 44.1397C36.0281 43.5118 35.8203 42.9026 35.4408 42.4062C35.0613 41.9098 34.5311 41.5538 33.9321 41.3931V40.9188C33.9357 40.8213 33.9199 40.724 33.8855 40.6329C33.8512 40.5417 33.7991 40.4585 33.7323 40.3882C33.6655 40.318 33.5854 40.2621 33.4968 40.2239C33.4082 40.1857 33.3129 40.166 33.2166 40.166C33.1203 40.166 33.025 40.1857 32.9364 40.2239C32.8478 40.2621 32.7677 40.318 32.7009 40.3882C32.6341 40.4585 32.582 40.5417 32.5477 40.6329C32.5133 40.724 32.4975 40.8213 32.5011 40.9188V41.3931C31.8398 41.568 31.2642 41.9813 30.8821 42.5556C30.4999 43.1299 30.3376 43.8257 30.4254 44.5126C30.5133 45.1995 30.8452 45.8304 31.3592 46.287C31.8731 46.7435 32.5337 46.9945 33.2171 46.9928C33.4908 46.9928 33.7584 47.075 33.986 47.2292C34.2136 47.3833 34.391 47.6024 34.4957 47.8587C34.6005 48.115 34.6279 48.397 34.5745 48.6691C34.5211 48.9412 34.3893 49.1911 34.1957 49.3873C34.0022 49.5835 33.7556 49.7171 33.4871 49.7712C33.2186 49.8253 32.9404 49.7975 32.6875 49.6914C32.4346 49.5852 32.2184 49.4054 32.0663 49.1748C31.9143 48.9441 31.8331 48.6729 31.8331 48.3955C31.8262 48.2078 31.7478 48.0302 31.6143 47.8999C31.4809 47.7697 31.3029 47.6969 31.1176 47.6969C30.9323 47.6969 30.7543 47.7697 30.6209 47.8999C30.4874 48.0302 30.409 48.2078 30.4021 48.3955C30.4062 49.0234 30.6141 49.6325 30.9936 50.1289C31.3731 50.6252 31.9032 50.9813 32.5021 51.1421V51.6164C32.509 51.804 32.5874 51.9816 32.7209 52.1119C32.8543 52.2422 33.0323 52.315 33.2176 52.315C33.4029 52.315 33.5809 52.2422 33.7143 52.1119C33.8478 51.9816 33.9262 51.804 33.9331 51.6164V51.6164Z" fill="#505050"/>
<path d="M41.8139 46.2783C41.8116 44.5573 41.3059 42.8757 40.3608 41.4459C39.4157 40.0161 38.0736 38.9024 36.5041 38.2455C34.9347 37.5886 33.2083 37.4179 31.5432 37.7552C29.878 38.0924 28.3489 38.9223 27.1491 40.1401C25.9492 41.3578 25.1325 42.9088 24.8021 44.5968C24.4717 46.2849 24.6425 48.0344 25.2928 49.6241C25.9432 51.2139 27.0439 52.5725 28.4559 53.5284C29.868 54.4843 31.5279 54.9945 33.2259 54.9945C34.3545 54.9937 35.4719 54.7676 36.5143 54.3291C37.5566 53.8907 38.5036 53.2484 39.3011 52.439C40.0985 51.6297 40.7309 50.669 41.1621 49.612C41.5932 48.5549 41.8147 47.4221 41.8139 46.2783ZM26.0609 46.2783C26.0629 44.8443 26.4843 43.443 27.2718 42.2517C28.0593 41.0603 29.1776 40.1323 30.4854 39.5849C31.7931 39.0375 33.2317 38.8954 34.6191 39.1763C36.0066 39.4573 37.2807 40.1489 38.2805 41.1636C39.2803 42.1783 39.9609 43.4706 40.2362 44.8772C40.5115 46.2838 40.3692 47.7416 39.8273 49.0662C39.2853 50.3909 38.3681 51.523 37.1916 52.3195C36.015 53.116 34.6318 53.5411 33.2169 53.5411C31.318 53.5387 29.4978 52.7724 28.156 51.4106C26.8142 50.0488 26.0607 48.2028 26.0609 46.2783V46.2783Z" fill="#505050"/>
<path d="M63.703 42.1288C63.703 39.1693 58.455 37.568 53.512 37.568C50.239 37.568 46.842 38.2774 44.912 39.6082C43.6926 37.1975 42.0388 35.0394 40.036 33.2454C40.5759 32.9891 41.0132 32.5537 41.2755 32.0111C41.5379 31.4686 41.6095 30.8516 41.4786 30.2621C41.3477 29.6727 41.0221 29.1463 40.5557 28.77C40.0894 28.3937 39.5102 28.1901 38.914 28.193H38.656L41.137 21.7238C41.2023 21.5546 41.2021 21.3667 41.1367 21.1977C41.0713 21.0286 40.9453 20.8907 40.784 20.8116C38.389 19.6025 35.822 20.3768 33.351 21.1157C30.66 21.9184 28.342 22.6147 26.462 20.9221C26.3409 20.8108 26.1866 20.7437 26.0236 20.7314C25.8605 20.7191 25.6981 20.7623 25.562 20.8542C25.4276 20.9453 25.3284 21.0808 25.2813 21.2377C25.2343 21.3946 25.2423 21.5631 25.304 21.7147L27.785 28.1839H27.53C26.9351 28.1821 26.3574 28.3858 25.8921 28.7615C25.4268 29.1373 25.1017 29.6625 24.9705 30.2506C24.8394 30.8387 24.9099 31.4546 25.1705 31.9966C25.4311 32.5386 25.8662 32.9745 26.404 33.2322C24.1281 35.3105 22.2853 37.8291 20.984 40.6399C19.3938 43.8699 18.5071 47.4086 18.384 51.0162V51.1034C18.3832 51.2943 18.457 51.4779 18.5893 51.6138C18.7216 51.7498 18.9016 51.8272 19.09 51.8291H19.1C19.2904 51.8256 19.4719 51.7468 19.6057 51.6095C19.7395 51.4722 19.815 51.2873 19.816 51.0943C19.8081 51.0694 19.8047 51.0433 19.806 51.0172C19.787 45.5828 23.289 37.0531 28.365 33.4937H38.059C40.5069 35.3743 42.4838 37.8123 43.83 40.6105C43.5056 41.0453 43.3281 41.5745 43.324 42.1196V56.3159C43.3255 56.6529 43.397 56.9858 43.534 57.2929C41.072 58.724 37.122 58.9469 33.515 58.9469H32.971C26.521 58.9469 21.922 58.2121 20.443 54.5888C20.3638 54.4147 20.2213 54.2782 20.0453 54.2079C19.8692 54.1377 19.6731 54.1391 19.498 54.2118C19.4122 54.2492 19.3344 54.3034 19.2692 54.3713C19.2041 54.4392 19.1527 54.5195 19.1182 54.6075C19.0836 54.6955 19.0665 54.7895 19.0679 54.8843C19.0692 54.979 19.089 55.0725 19.126 55.1595C19.6417 56.2804 20.4073 57.2645 21.3625 58.0342C22.3177 58.8039 23.4363 59.3381 24.63 59.5946C27.4515 60.2311 30.3414 60.5009 33.23 60.3973C37.486 60.3871 41.53 60.2037 44.413 58.4534C46.207 60.0395 49.938 60.8858 53.513 60.8858C58.456 60.8858 63.704 59.2905 63.704 56.325L63.703 42.1288ZM27.387 23.1163C29.4 23.8025 31.604 23.1356 33.751 22.4971C35.822 21.8778 37.787 21.288 39.543 21.8586L37.12 28.193H29.33L27.387 23.1163ZM27.53 29.6342H38.914C39.0735 29.6295 39.2324 29.6573 39.3811 29.716C39.5298 29.7746 39.6654 29.8629 39.7799 29.9756C39.8943 30.0883 39.9853 30.2231 40.0474 30.372C40.1096 30.521 40.1416 30.6811 40.1416 30.8428C40.1416 31.0046 40.1096 31.1646 40.0474 31.3136C39.9853 31.4626 39.8943 31.5974 39.7799 31.7101C39.6654 31.8228 39.5298 31.9111 39.3811 31.9697C39.2324 32.0283 39.0735 32.0561 38.914 32.0514H27.53C27.3705 32.0561 27.2117 32.0283 27.063 31.9697C26.9143 31.9111 26.7787 31.8228 26.6642 31.7101C26.5498 31.5974 26.4588 31.4626 26.3966 31.3136C26.3345 31.1646 26.3025 31.0046 26.3025 30.8428C26.3025 30.6811 26.3345 30.521 26.3966 30.372C26.4588 30.2231 26.5498 30.0883 26.6642 29.9756C26.7787 29.8629 26.9143 29.7746 27.063 29.716C27.2117 29.6573 27.3705 29.6295 27.53 29.6342V29.6342ZM53.513 49.9429C48.504 49.9429 44.754 48.299 44.754 46.8294V44.5369C46.654 45.9396 50.154 46.6835 53.513 46.6835C56.872 46.6835 60.374 45.9385 62.272 44.5369V46.8284C62.272 48.299 58.522 49.9429 53.513 49.9429ZM62.272 51.5777C62.272 53.0473 58.522 54.6912 53.513 54.6912C48.504 54.6912 44.754 53.0473 44.754 51.5777V49.2953C46.654 50.698 50.154 51.4419 53.513 51.4419C56.872 51.4419 60.374 50.7071 62.272 49.2953V51.5777ZM62.272 42.1298C62.272 43.5994 58.522 45.2433 53.513 45.2433C48.504 45.2433 44.753 43.5983 44.753 42.1288C44.753 40.6592 48.503 39.0153 53.512 39.0153C58.521 39.0153 62.272 40.6592 62.272 42.1288V42.1298ZM62.272 56.3361C62.272 57.8057 58.522 59.4496 53.513 59.4496C49.439 59.4496 46.204 58.3662 45.135 57.1773C45.125 57.1581 45.125 57.148 45.116 57.1287C45.1044 57.1111 45.0876 57.0976 45.068 57.0902C44.8826 56.8854 44.7715 56.6226 44.753 56.3453V54.0628C46.653 55.4655 50.153 56.2094 53.512 56.2094C56.871 56.2094 60.373 55.4747 62.271 54.0628L62.272 56.3361Z" fill="#505050"/>
<path d="M19.363 53.7438C19.4559 53.7289 19.545 53.6955 19.6252 53.6456C19.7053 53.5956 19.7749 53.5301 19.83 53.4527C19.885 53.3754 19.9244 53.2877 19.9458 53.1949C19.9673 53.102 19.9704 53.0058 19.955 52.9117C19.9393 52.8178 19.9055 52.7278 19.8555 52.6471C19.8056 52.5664 19.7404 52.4964 19.6637 52.4412C19.5871 52.386 19.5004 52.3467 19.4088 52.3254C19.3171 52.3042 19.2222 52.3014 19.1295 52.3173C19.0368 52.3332 18.9481 52.3675 18.8684 52.4181C18.7888 52.4688 18.7197 52.5348 18.6653 52.6125C18.6108 52.6902 18.572 52.778 18.551 52.8709C18.53 52.9638 18.5273 53.06 18.543 53.154V53.1732C18.5749 53.3385 18.663 53.4872 18.7921 53.5934C18.9211 53.6995 19.0828 53.7564 19.249 53.754C19.2873 53.7554 19.3256 53.752 19.363 53.7438V53.7438Z" fill="#505050"/>
</svg>
