<svg width="82" height="82" viewBox="0 0 82 82" fill="none" xmlns="http://www.w3.org/2000/svg">
<path d="M41 82C63.6437 82 82 63.6437 82 41C82 18.3563 63.6437 0 41 0C18.3563 0 0 18.3563 0 41C0 63.6437 18.3563 82 41 82Z" fill="white"/>
<path d="M41 81.5C63.3675 81.5 81.5 63.3675 81.5 41C81.5 18.6325 63.3675 0.5 41 0.5C18.6325 0.5 0.5 18.6325 0.5 41C0.5 63.3675 18.6325 81.5 41 81.5Z" stroke="#6660AB"/>
<path d="M44.6611 40.0731C51.3211 40.0731 56.7201 34.6741 56.7201 28.0141C56.7201 21.3541 51.3211 15.9551 44.6611 15.9551C38.001 15.9551 32.6021 21.3541 32.6021 28.0141C32.6021 34.6741 38.001 40.0731 44.6611 40.0731Z" fill="#FAB915"/>
<path fill-rule="evenodd" clip-rule="evenodd" d="M49.098 27.091C49.6875 27.3999 50.1865 27.8569 50.5459 28.4171C50.9053 28.9773 51.1128 29.6213 51.148 30.286C51.1658 30.7874 51.079 31.2871 50.893 31.7531C50.707 32.2191 50.426 32.6413 50.0678 32.9927C49.7097 33.3441 49.2822 33.617 48.8127 33.7941C48.3432 33.9711 47.842 34.0484 47.341 34.021H46.267V34.704C46.2686 34.7685 46.2571 34.8327 46.2332 34.8927C46.2092 34.9526 46.1734 35.0071 46.1277 35.0527C46.0821 35.0984 46.0276 35.1343 45.9677 35.1582C45.9077 35.1821 45.8435 35.1936 45.779 35.192H44.901C44.8365 35.1936 44.7723 35.1821 44.7123 35.1582C44.6523 35.1343 44.5979 35.0984 44.5522 35.0527C44.5066 35.0071 44.4707 34.9526 44.4468 34.8927C44.4228 34.8327 44.4113 34.7685 44.413 34.704V34.021H43.437V34.704C43.4386 34.7685 43.4271 34.8327 43.4032 34.8927C43.3793 34.9526 43.3434 35.0071 43.2977 35.0527C43.2521 35.0984 43.1976 35.1343 43.1377 35.1582C43.0777 35.1821 43.0135 35.1936 42.949 35.192H42.07C42.0054 35.1936 41.9413 35.1821 41.8813 35.1582C41.8214 35.1343 41.7669 35.0984 41.7212 35.0527C41.6756 35.0071 41.6397 34.9526 41.6158 34.8927C41.5918 34.8327 41.5803 34.7685 41.582 34.704V34.021H40.704C40.6394 34.0226 40.5753 34.0111 40.5153 33.9872C40.4554 33.9632 40.4009 33.9274 40.3552 33.8817C40.3096 33.8361 40.2737 33.7816 40.2498 33.7217C40.2258 33.6617 40.2143 33.5975 40.216 33.533V32.947C40.2143 32.8825 40.2258 32.8183 40.2498 32.7583C40.2737 32.6984 40.3096 32.6439 40.3552 32.5982C40.4009 32.5526 40.4554 32.5167 40.5153 32.4928C40.5753 32.4688 40.6394 32.4573 40.704 32.459H41.582V22.796H40.704C40.6394 22.7976 40.5753 22.7862 40.5153 22.7622C40.4554 22.7383 40.4009 22.7024 40.3552 22.6567C40.3096 22.6111 40.2737 22.5566 40.2498 22.4967C40.2258 22.4367 40.2143 22.3725 40.216 22.308V21.82C40.2143 21.7554 40.2258 21.6912 40.2498 21.6313C40.2737 21.5713 40.3096 21.5169 40.3552 21.4713C40.4009 21.4256 40.4554 21.3897 40.5153 21.3658C40.5753 21.3418 40.6394 21.3303 40.704 21.332H41.582V20.454C41.5803 20.3894 41.5918 20.3252 41.6158 20.2653C41.6397 20.2053 41.6756 20.1509 41.7212 20.1053C41.7669 20.0596 41.8214 20.0237 41.8813 19.9998C41.9413 19.9758 42.0054 19.9643 42.07 19.966H42.949C43.0135 19.9643 43.0777 19.9758 43.1377 19.9998C43.1976 20.0237 43.2521 20.0596 43.2977 20.1053C43.3434 20.1509 43.3793 20.2053 43.4032 20.2653C43.4271 20.3252 43.4386 20.3894 43.437 20.454V21.332H44.413V20.454C44.4113 20.3894 44.4228 20.3252 44.4468 20.2653C44.4707 20.2053 44.5066 20.1509 44.5522 20.1053C44.5979 20.0596 44.6523 20.0237 44.7123 19.9998C44.7723 19.9758 44.8365 19.9643 44.901 19.966H45.779C45.8435 19.9643 45.9077 19.9758 45.9677 19.9998C46.0276 20.0237 46.0821 20.0596 46.1277 20.1053C46.1734 20.1509 46.2092 20.2053 46.2332 20.2653C46.2571 20.3252 46.2686 20.3894 46.267 20.454V21.332H47.145C47.145 21.332 50.464 21.483 50.464 24.553C50.464 26.801 49.098 27.091 49.098 27.091ZM47.146 22.796H43.437V26.603H47.146C47.6274 26.5276 48.0637 26.2762 48.3702 25.8974C48.6767 25.5186 48.8317 25.0395 48.805 24.553C48.8203 24.3266 48.7886 24.0995 48.712 23.8859C48.6353 23.6723 48.5153 23.4769 48.3595 23.3119C48.2037 23.1469 48.0155 23.0159 47.8067 22.9271C47.5978 22.8383 47.3729 22.7937 47.146 22.796V22.796ZM47.732 28.067H43.437V32.459H47.337C47.337 32.459 49.294 32.05 49.294 30.286C49.294 28.522 48.059 28.067 47.731 28.067H47.732Z" fill="white"/>
<path d="M35.4641 66.585C38.3813 66.585 40.7461 64.2202 40.7461 61.303C40.7461 58.3858 38.3813 56.021 35.4641 56.021C32.547 56.021 30.1821 58.3858 30.1821 61.303C30.1821 64.2202 32.547 66.585 35.4641 66.585Z" fill="#F4A047"/>
<path d="M54.1621 56.021C55.2068 56.021 56.228 56.3308 57.0966 56.9112C57.9653 57.4916 58.6423 58.3165 59.0421 59.2817C59.4418 60.2468 59.5464 61.3089 59.3426 62.3335C59.1388 63.3581 58.6358 64.2992 57.8971 65.0379C57.1584 65.7766 56.2172 66.2797 55.1926 66.4835C54.168 66.6873 53.106 66.5827 52.1408 66.1829C51.1756 65.7831 50.3507 65.1061 49.7703 64.2375C49.1899 63.3689 48.8801 62.3477 48.8801 61.303C48.8801 59.9021 49.4366 58.5586 50.4272 57.5681C51.4178 56.5775 52.7613 56.021 54.1621 56.021V56.021Z" fill="#F4A047"/>
<path d="M40.85 61.2991C40.8488 61.6349 40.8153 61.9698 40.75 62.2991C40.5166 61.0951 39.8715 60.0097 38.9253 59.2293C37.9792 58.4489 36.7909 58.0221 35.5645 58.0221C34.338 58.0221 33.1497 58.4489 32.2036 59.2293C31.2574 60.0097 30.6123 61.0951 30.379 62.2991C30.2392 61.5763 30.2522 60.8322 30.4169 60.1147C30.5816 59.3972 30.8946 58.722 31.3356 58.1325C31.7766 57.543 32.336 57.0522 32.9778 56.6916C33.6196 56.331 34.3298 56.1086 35.0627 56.0386C35.7955 55.9686 36.5349 56.0525 37.2334 56.2851C37.932 56.5176 38.5741 56.8937 39.1188 57.389C39.6634 57.8843 40.0985 58.488 40.3961 59.1614C40.6937 59.8348 40.8473 60.5629 40.847 61.2991H40.85Z" fill="#F3A70F"/>
<path d="M59.5489 61.2981C59.5478 61.6339 59.5143 61.9688 59.4489 62.2981C59.2156 61.0941 58.5705 60.0087 57.6243 59.2283C56.6781 58.448 55.4899 58.0212 54.2635 58.0212C53.037 58.0212 51.8487 58.448 50.9026 59.2283C49.9564 60.0087 49.3113 61.0941 49.0779 62.2981C48.9382 61.5753 48.9511 60.8313 49.1159 60.1137C49.2806 59.3962 49.5935 58.721 50.0345 58.1315C50.4756 57.542 51.0349 57.0513 51.6768 56.6907C52.3186 56.3301 53.0288 56.1076 53.7617 56.0376C54.4945 55.9676 55.2339 56.0516 55.9324 56.2841C56.6309 56.5167 57.2731 56.8927 57.8178 57.388C58.3624 57.8833 58.7975 58.487 59.0951 59.1604C59.3927 59.8338 59.5463 60.5619 59.546 61.2981H59.5489Z" fill="#F3A70F"/>
<path d="M28.387 50.4067C28.387 51.4761 28.8118 52.5016 29.5679 53.2578C30.3241 54.0139 31.3496 54.4387 32.419 54.4387H57.319C58.3883 54.4387 59.4139 54.0139 60.17 53.2578C60.9262 52.5016 61.351 51.4761 61.351 50.4067V35.4387C61.351 34.3694 60.9262 33.3438 60.17 32.5877C59.4139 31.8315 58.3883 31.4067 57.319 31.4067H28.492C28.281 33.8367 28.387 50.4067 28.387 50.4067Z" fill="#F9C48C"/>
<path d="M61.105 51.7319C60.7647 52.3879 60.2508 52.9379 59.6193 53.3218C58.9878 53.7057 58.263 53.9088 57.524 53.9089H32.62C31.5512 53.9086 30.5262 53.484 29.7703 52.7283C29.0144 51.9726 28.5895 50.9477 28.589 49.8789C28.589 49.8789 28.484 33.3089 28.694 30.8789H30.742C30.634 35.9369 30.711 47.9789 30.711 47.9789C30.711 49.0474 31.1351 50.0722 31.8902 50.8282C32.6452 51.5842 33.6695 52.0096 34.738 52.0109H59.638C60.1383 52.0102 60.6341 51.9162 61.1 51.7339L61.105 51.7319Z" fill="#F3A70F"/>
<path d="M57.3391 54.9049H32.4391C31.2192 54.9017 30.0502 54.4154 29.1881 53.5523C28.326 52.6892 27.8409 51.5198 27.8391 50.2999V33.2029C27.8367 31.0024 26.9614 28.8928 25.4054 27.3369C23.8493 25.781 21.7395 24.906 19.5391 24.9039V23.7549C21.6131 23.7572 23.629 24.4408 25.2767 25.7004C26.9244 26.9601 28.1128 28.7261 28.6591 30.7269H57.3391C58.5603 30.7282 59.7312 31.2139 60.5949 32.0773C61.4586 32.9408 61.9445 34.1116 61.9461 35.3329V50.2999C61.9442 51.521 61.4582 52.6915 60.5945 53.5548C59.7309 54.418 58.5602 54.9036 57.3391 54.9049V54.9049ZM28.8941 31.8769C28.9584 32.316 28.9918 32.7591 28.9941 33.2029V50.3029C28.9964 51.2177 29.3609 52.0943 30.0078 52.7412C30.6546 53.3881 31.5313 53.7525 32.4461 53.7549H57.3391C58.2554 53.7538 59.134 53.3894 59.782 52.7415C60.4301 52.0937 60.7947 51.2152 60.7961 50.2989V35.3329C60.7947 34.4165 60.4301 33.5381 59.782 32.8902C59.134 32.2424 58.2554 31.8779 57.3391 31.8769H28.8941Z" fill="#426572"/>
<path d="M35.253 67.1598C34.0946 67.1598 32.9622 66.8163 31.999 66.1727C31.0358 65.5291 30.2851 64.6144 29.8418 63.5442C29.3985 62.474 29.2825 61.2963 29.5085 60.1601C29.7345 59.024 30.2924 57.9804 31.1115 57.1613C31.9306 56.3422 32.9742 55.7843 34.1104 55.5583C35.2465 55.3323 36.4242 55.4484 37.4944 55.8917C38.5646 56.335 39.4793 57.0856 40.1229 58.0488C40.7665 59.012 41.11 60.1444 41.11 61.3028C41.11 62.8562 40.4929 64.3459 39.3945 65.4443C38.2961 66.5427 36.8064 67.1598 35.253 67.1598V67.1598ZM35.253 56.5958C34.322 56.5958 33.412 56.8719 32.6379 57.3891C31.8639 57.9063 31.2606 58.6414 30.9043 59.5015C30.548 60.3616 30.4548 61.308 30.6364 62.2211C30.8181 63.1342 31.2664 63.9729 31.9246 64.6312C32.5829 65.2894 33.4216 65.7377 34.3347 65.9194C35.2478 66.101 36.1942 66.0078 37.0543 65.6515C37.9144 65.2952 38.6495 64.6919 39.1667 63.9179C39.6839 63.1438 39.96 62.2338 39.96 61.3028C39.96 60.0544 39.4641 58.8572 38.5814 57.9744C37.6986 57.0917 36.5014 56.5958 35.253 56.5958Z" fill="#426572"/>
<path d="M53.951 67.1598C52.7926 67.1598 51.6602 66.8163 50.697 66.1727C49.7338 65.5291 48.9831 64.6144 48.5398 63.5442C48.0965 62.474 47.9805 61.2963 48.2065 60.1601C48.4325 59.024 48.9904 57.9804 49.8095 57.1613C50.6286 56.3422 51.6722 55.7843 52.8083 55.5583C53.9445 55.3323 55.1222 55.4484 56.1924 55.8917C57.2626 56.335 58.1773 57.0856 58.8209 58.0488C59.4645 59.012 59.808 60.1444 59.808 61.3028C59.808 62.8562 59.1909 64.3459 58.0925 65.4443C56.9941 66.5427 55.5044 67.1598 53.951 67.1598ZM53.951 56.5958C53.02 56.5958 52.11 56.8719 51.3359 57.3891C50.5619 57.9063 49.9586 58.6414 49.6023 59.5015C49.246 60.3616 49.1528 61.308 49.3344 62.2211C49.5161 63.1342 49.9644 63.9729 50.6226 64.6312C51.2809 65.2894 52.1196 65.7377 53.0327 65.9194C53.9458 66.101 54.8922 66.0078 55.7523 65.6515C56.6124 65.2952 57.3475 64.6919 57.8647 63.9179C58.3819 63.1438 58.658 62.2338 58.658 61.3028C58.658 60.0544 58.1621 58.8572 57.2794 57.9744C56.3966 57.0917 55.1994 56.5958 53.951 56.5958Z" fill="#426572"/>
<path d="M33.7711 31.6187H32.6221V54.5417H33.7711V31.6187Z" fill="#426572"/>
<path d="M39.66 31.6187H38.511V54.5417H39.66V31.6187Z" fill="#426572"/>
<path d="M45.5491 31.6187H44.4001V54.5417H45.5491V31.6187Z" fill="#426572"/>
<path d="M51.439 31.6187H50.29V54.5417H51.439V31.6187Z" fill="#426572"/>
<path d="M57.328 31.6187H56.179V54.5417H57.328V31.6187Z" fill="#426572"/>
<path d="M61.3451 34.9058H28.4121V36.0548H61.3451V34.9058Z" fill="#426572"/>
<path d="M61.3451 39.895H28.4121V41.044H61.3451V39.895Z" fill="#426572"/>
<path d="M61.3451 44.8828H28.4121V46.0318H61.3451V44.8828Z" fill="#426572"/>
<path d="M61.3451 49.8721H28.4121V51.0211H61.3451V49.8721Z" fill="#426572"/>
<path d="M55.9841 63.2049C56.304 62.9099 56.5832 62.5736 56.8141 62.2049C57.0082 61.8996 57.1774 61.5792 57.3201 61.2469C57.5711 60.6719 57.6751 60.2759 57.7851 60.2889C57.8951 60.3019 57.9581 60.7249 57.8161 61.4039C57.731 61.8042 57.5911 62.1908 57.4001 62.5529C57.1661 63.0036 56.8547 63.4098 56.4801 63.7529C56.1035 64.1023 55.6618 64.3742 55.1801 64.5529C54.7992 64.6896 54.4029 64.7793 54.0001 64.8199C53.7346 64.851 53.4669 64.8583 53.2001 64.8419C53.0091 64.8269 52.9001 64.7939 52.9001 64.7419C52.9001 64.6899 52.9861 64.6289 53.1601 64.5579C53.3341 64.4869 53.5881 64.4079 53.8941 64.3099C54.2448 64.2047 54.5881 64.0768 54.9221 63.9269C55.3114 63.7427 55.6697 63.4991 55.9841 63.2049Z" fill="white"/>
</svg>
