<svg width="82" height="82" viewBox="0 0 82 82" fill="none" xmlns="http://www.w3.org/2000/svg">
<g clip-path="url(#clip0_4258_122)">
<path d="M41 82C63.6437 82 82 63.6437 82 41C82 18.3563 63.6437 0 41 0C18.3563 0 0 18.3563 0 41C0 63.6437 18.3563 82 41 82Z" fill="white"/>
<path d="M41 81.5062C63.3675 81.5062 81.5 63.371 81.5 41.0002C81.5 18.6293 63.3675 0.494141 41 0.494141C18.6325 0.494141 0.5 18.6293 0.5 41.0002C0.5 63.371 18.6325 81.5062 41 81.5062Z" stroke="#6660AB"/>
<path d="M30.088 38.9363C32.0428 40.8678 34.5335 42.1831 37.245 42.7161C39.9565 43.249 42.767 42.9756 45.3213 41.9304C47.8755 40.8852 50.0586 39.1152 51.5946 36.8442C53.1306 34.5732 53.9504 31.9032 53.9504 29.1719C53.9504 26.4406 53.1306 23.7706 51.5946 21.4996C50.0586 19.2286 47.8755 17.4586 45.3213 16.4134C42.767 15.3682 39.9565 15.0948 37.245 15.6277C34.5335 16.1607 32.0428 17.4761 30.088 19.4075C27.4669 21.9972 25.9944 25.5096 25.9944 29.1719C25.9944 32.8342 27.4669 36.3466 30.088 38.9363V38.9363ZM31.832 21.1295C33.442 19.5388 35.4932 18.4556 37.7263 18.0167C39.9595 17.5778 42.2742 17.803 44.3777 18.6638C46.4813 19.5246 48.2793 20.9823 49.5443 22.8527C50.8093 24.723 51.4844 26.922 51.4844 29.1714C51.4844 31.4209 50.8093 33.6198 49.5443 35.4901C48.2793 37.3605 46.4813 38.8182 44.3777 39.679C42.2742 40.5398 39.9595 40.765 37.7263 40.3261C35.4932 39.8872 33.442 38.804 31.832 37.2133C29.6732 35.0804 28.4604 32.1877 28.4604 29.1714C28.4604 26.1551 29.6732 23.2624 31.832 21.1295V21.1295Z" fill="white"/>
<path d="M33.0913 22.3752C34.4518 21.031 36.1853 20.1156 38.0724 19.7447C39.9596 19.3739 41.9157 19.5642 43.6933 20.2917C45.471 21.0191 46.9904 22.2511 48.0594 23.8316C49.1283 25.4122 49.6989 27.2704 49.6989 29.1714C49.6989 31.0723 49.1283 32.9306 48.0594 34.5111C46.9904 36.0917 45.471 37.3236 43.6933 38.0511C41.9157 38.7785 39.9596 38.9689 38.0724 38.598C36.1853 38.2272 34.4518 37.3118 33.0913 35.9676C31.2668 34.1651 30.2418 31.7205 30.2418 29.1714C30.2418 26.6223 31.2668 24.1776 33.0913 22.3752V22.3752Z" fill="#F9C48C"/>
<path d="M31.832 37.2121C33.442 38.8028 35.4932 39.886 37.7263 40.3249C39.9595 40.7638 42.2742 40.5386 44.3778 39.6778C46.4813 38.817 48.2793 37.3593 49.5443 35.4889C50.8093 33.6186 51.4844 31.4196 51.4844 29.1702C51.4844 26.9207 50.8093 24.7218 49.5443 22.8515C48.2793 20.9811 46.4813 19.5234 44.3778 18.6626C42.2742 17.8018 39.9595 17.5766 37.7263 18.0155C35.4932 18.4543 33.442 19.5376 31.832 21.1283C29.6732 23.2611 28.4604 26.1539 28.4604 29.1702C28.4604 32.1865 29.6732 35.0792 31.832 37.2121V37.2121ZM46.852 22.3741C48.2128 23.7184 49.1396 25.4312 49.515 27.296C49.8905 29.1607 49.6978 31.0935 48.9614 32.85C48.225 34.6065 46.9779 36.1079 45.3778 37.1642C43.7777 38.2204 41.8965 38.7842 39.972 38.7842C38.0476 38.7842 36.1664 38.2204 34.5663 37.1642C32.9662 36.1079 31.7191 34.6065 30.9826 32.85C30.2462 31.0935 30.0535 29.1607 30.429 27.296C30.8045 25.4312 31.7312 23.7184 33.092 22.3741C34.9167 20.5714 37.3915 19.5587 39.972 19.5587C42.5525 19.5587 45.0273 20.5714 46.852 22.3741V22.3741Z" fill="black"/>
<path d="M29.3121 40.6397C29.1481 40.4908 28.9868 40.338 28.8281 40.1813C28.6691 40.0242 28.5151 39.8651 28.3641 39.7031L23.9421 44.0718L24.8901 45.0084L29.3121 40.6397Z" fill="#F2F2FC"/>
<path d="M21.5781 44.2267L17.105 48.646L20.2615 51.7645L24.7347 47.3452L21.5781 44.2267Z" fill="#61729B"/>
<path d="M26.624 46.7223L26.154 46.252L30.697 41.7638C33.9044 44.071 37.8745 45.0983 41.8148 44.6408C45.7552 44.1832 49.3759 42.2744 51.9544 39.2954C54.5328 36.3163 55.8793 32.4862 55.7249 28.5695C55.5706 24.6528 53.9269 20.9376 51.1219 18.1656C48.3169 15.3936 44.5569 13.7686 40.5925 13.615C36.628 13.4614 32.7508 14.7905 29.7347 17.3371C26.7186 19.8836 24.7854 23.4602 24.3212 27.3529C23.8569 31.2456 24.8956 35.1682 27.23 38.3376L22.687 42.8258L22.213 42.3575C22.1303 42.2757 22.032 42.2107 21.9238 42.1664C21.8156 42.1221 21.6997 42.0992 21.5825 42.0992C21.4654 42.0992 21.3494 42.1221 21.2413 42.1664C21.1331 42.2107 21.0348 42.2757 20.952 42.3575L15.215 48.0234C15.048 48.1885 14.9541 48.4124 14.9541 48.6458C14.9541 48.8793 15.048 49.1032 15.215 49.2683L19.631 53.6311C19.7981 53.7961 20.0247 53.8888 20.261 53.8888C20.4973 53.8888 20.7239 53.7961 20.891 53.6311L26.625 47.9701C26.7081 47.8883 26.7739 47.7911 26.8189 47.6842C26.8638 47.5772 26.887 47.4625 26.887 47.3467C26.887 47.2309 26.8638 47.1162 26.8189 47.0092C26.7739 46.9022 26.7081 46.8051 26.625 46.7233L26.624 46.7223ZM21.578 44.2267L24.734 47.3447L20.261 51.7638L17.105 48.6458L21.578 44.2267ZM49.854 19.4064C51.8089 21.3377 53.1401 23.7984 53.6795 26.4772C54.2188 29.156 53.942 31.9326 52.884 34.456C51.826 36.9793 50.0344 39.1361 47.7358 40.6535C45.4371 42.1709 42.7346 42.9808 39.97 42.9808C37.2055 42.9808 34.503 42.1709 32.2043 40.6535C29.9056 39.1361 28.114 36.9793 27.0561 34.456C25.9981 31.9326 25.7213 29.156 26.2606 26.4772C26.7999 23.7984 28.1312 21.3377 30.086 19.4064C31.384 18.1241 32.9249 17.1068 34.6208 16.4128C36.3167 15.7188 38.1344 15.3616 39.97 15.3616C41.8057 15.3616 43.6233 15.7188 45.3192 16.4128C47.0151 17.1068 48.5561 18.1241 49.854 19.4064V19.4064ZM28.364 39.7039C28.515 39.8659 28.67 40.025 28.828 40.1821C28.986 40.3391 29.148 40.4923 29.312 40.6405L24.89 45.0092L23.942 44.0726L28.364 39.7039Z" fill="black"/>
<path d="M32.771 54.521H27.426V61.5621H32.771V54.521Z" fill="#F9C48C"/>
<path d="M33.662 52.7607H26.535C26.2987 52.7607 26.0721 52.8535 25.905 53.0186C25.7379 53.1836 25.644 53.4075 25.644 53.641V62.4427C25.644 62.6761 25.7379 62.9 25.905 63.0651C26.0721 63.2302 26.2987 63.3229 26.535 63.3229H33.662C33.8984 63.3229 34.125 63.2302 34.2921 63.0651C34.4592 62.9 34.553 62.6761 34.553 62.4427V53.641C34.553 53.4075 34.4592 53.1836 34.2921 53.0186C34.125 52.8535 33.8984 52.7607 33.662 52.7607ZM32.771 61.5624H27.426V54.5213H32.771V61.5624Z" fill="black"/>
<path d="M43.461 50.8745H38.116V61.5622H43.461V50.8745Z" fill="#BFE0B9"/>
<path d="M44.352 49.1133H37.225C36.9887 49.1133 36.762 49.206 36.595 49.3711C36.4279 49.5362 36.334 49.7601 36.334 49.9935V62.4417C36.334 62.6752 36.4279 62.8991 36.595 63.0642C36.762 63.2293 36.9887 63.322 37.225 63.322H44.352C44.5883 63.322 44.8149 63.2293 44.982 63.0642C45.1491 62.8991 45.243 62.6752 45.243 62.4417V49.9935C45.243 49.7601 45.1491 49.5362 44.982 49.3711C44.8149 49.206 44.5883 49.1133 44.352 49.1133ZM43.461 61.5615H38.116V50.8738H43.461V61.5615Z" fill="black"/>
<path d="M54.1512 45.2168H48.8062V61.5615H54.1512V45.2168Z" fill="#FDBF00"/>
<path d="M55.0431 43.457H47.9161C47.6798 43.457 47.4532 43.5498 47.2861 43.7149C47.119 43.8799 47.0251 44.1038 47.0251 44.3373V62.4425C47.0251 62.676 47.119 62.8999 47.2861 63.0649C47.4532 63.23 47.6798 63.3228 47.9161 63.3228H55.0431C55.2795 63.3228 55.5061 63.23 55.6732 63.0649C55.8403 62.8999 55.9341 62.676 55.9341 62.4425V44.3373C55.9341 44.1038 55.8403 43.8799 55.6732 43.7149C55.5061 43.5498 55.2795 43.457 55.0431 43.457ZM54.1521 61.5632H48.8071V45.2176H54.1521V61.5632Z" fill="black"/>
<path d="M64.8421 40.439H59.4971V61.5624H64.8421V40.439Z" fill="#6660AB"/>
<path d="M65.7331 38.6782H58.6061C58.3698 38.6782 58.1432 38.771 57.9761 38.936C57.809 39.1011 57.7151 39.325 57.7151 39.5585V62.4444C57.7151 62.56 57.7381 62.6745 57.7829 62.7813C57.8277 62.8881 57.8933 62.9851 57.9761 63.0668C58.0588 63.1486 58.157 63.2134 58.2651 63.2577C58.3732 63.3019 58.4891 63.3247 58.6061 63.3247H65.7331C65.8501 63.3247 65.966 63.3019 66.0741 63.2577C66.1822 63.2134 66.2804 63.1486 66.3631 63.0668C66.4459 62.9851 66.5115 62.8881 66.5563 62.7813C66.601 62.6745 66.6241 62.56 66.6241 62.4444V39.5585C66.6241 39.325 66.5302 39.1011 66.3631 38.936C66.196 38.771 65.9694 38.6782 65.7331 38.6782ZM64.8421 61.5612H59.4971V40.4388H64.8421V61.5612Z" fill="black"/>
</g>
<defs>
<clipPath id="clip0_4258_122">
<rect width="82" height="82" fill="white"/>
</clipPath>
</defs>
</svg>
