<svg width="82" height="84" viewBox="0 0 82 84" fill="none" xmlns="http://www.w3.org/2000/svg">
<path d="M41 83C63.6437 83 82 64.6437 82 42C82 19.3563 63.6437 1 41 1C18.3563 1 0 19.3563 0 42C0 64.6437 18.3563 83 41 83Z" fill="white"/>
<path d="M41 82.5065C63.3675 82.5065 81.5 64.371 81.5 41.9998C81.5 19.6286 63.3675 1.49316 41 1.49316C18.6325 1.49316 0.5 19.6286 0.5 41.9998C0.5 64.371 18.6325 82.5065 41 82.5065Z" stroke="#6660AB"/>
<path d="M60.1389 61.831V17.4873C60.1389 16.9403 59.9216 16.4157 59.5348 16.0289C59.148 15.6421 58.6234 15.4248 58.0764 15.4248H25.0764C24.5294 15.4248 24.0048 15.6421 23.618 16.0289C23.2312 16.4157 23.0139 16.9403 23.0139 17.4873V61.831C23.0139 62.6516 23.3399 63.4385 23.9201 64.0187C24.5002 64.5988 25.2872 64.9248 26.1077 64.9248H63.2327C62.4122 64.9248 61.6252 64.5988 61.0451 64.0187C60.4649 63.4385 60.1389 62.6516 60.1389 61.831V61.831Z" fill="#F2F2F2"/>
<path d="M63.2327 64.9248C64.0532 64.9248 64.8401 64.5989 65.4203 64.0187C66.0005 63.4385 66.3264 62.6516 66.3264 61.8311V48.4248C66.3264 47.8778 66.1091 47.3532 65.7223 46.9664C65.3355 46.5796 64.8109 46.3623 64.2639 46.3623H60.1389V61.8311C60.1389 62.6516 60.4649 63.4385 61.0451 64.0187C61.6252 64.5989 62.4122 64.9248 63.2327 64.9248V64.9248Z" fill="#6660AB"/>
<path d="M45.3044 31.3008L47.9702 27.3047L50.636 31.3008C50.7152 31.4061 50.8318 31.4771 50.9617 31.4992C51.0916 31.5212 51.2251 31.4927 51.3347 31.4195C51.4442 31.3462 51.5216 31.2337 51.5508 31.1052C51.5801 30.9767 51.559 30.8419 51.4919 30.7284L48.5889 26.3714L51.4919 22.0144C51.559 21.9009 51.5801 21.7661 51.5508 21.6375C51.5216 21.509 51.4442 21.3966 51.3347 21.3233C51.2251 21.2501 51.0916 21.2215 50.9617 21.2436C50.8318 21.2657 50.7152 21.3367 50.636 21.442L47.9702 25.4433L45.3044 21.4472C45.2252 21.3418 45.1086 21.2708 44.9787 21.2488C44.8487 21.2267 44.7153 21.2552 44.6057 21.3285C44.4962 21.4017 44.4188 21.5142 44.3896 21.6427C44.3603 21.7712 44.3814 21.9061 44.4485 22.0195L47.3514 26.3765L44.4485 30.7336C44.3877 30.8468 44.3715 30.9786 44.4028 31.1032C44.4342 31.2278 44.5109 31.3362 44.618 31.4071C44.7251 31.4781 44.8549 31.5065 44.9818 31.4869C45.1088 31.4672 45.2238 31.4008 45.3044 31.3008Z" fill="#6660AB"/>
<path d="M37.1163 31.177L38.5446 26.887H40.9061L42.3344 31.177C42.3557 31.2414 42.3895 31.3008 42.4339 31.3521C42.4782 31.4034 42.5322 31.4454 42.5927 31.4758C42.6533 31.5062 42.7193 31.5244 42.7869 31.5293C42.8545 31.5342 42.9224 31.5258 42.9867 31.5044C43.051 31.4831 43.1105 31.4493 43.1618 31.405C43.213 31.3607 43.2551 31.3067 43.2855 31.2461C43.3159 31.1856 43.3341 31.1196 43.339 31.052C43.3439 30.9844 43.3354 30.9165 43.3141 30.8522L40.2204 21.5709C40.1864 21.4678 40.1208 21.3779 40.0329 21.3143C39.9449 21.2506 39.8391 21.2163 39.7305 21.2163C39.6219 21.2163 39.5161 21.2506 39.4281 21.3143C39.3402 21.3779 39.2746 21.4678 39.2407 21.5709L36.1469 30.8522C36.1231 30.9749 36.1446 31.1022 36.2076 31.2102C36.2706 31.3182 36.3707 31.3997 36.4892 31.4394C36.6078 31.4792 36.7368 31.4745 36.8521 31.4262C36.9675 31.3779 37.0614 31.2894 37.1163 31.177ZM39.7202 23.3601L40.5504 25.8558H38.89L39.7202 23.3601Z" fill="#6660AB"/>
<path d="M29.4077 22.2466H31.9858V31.0122C31.9858 31.149 32.0402 31.2801 32.1369 31.3768C32.2336 31.4735 32.3647 31.5278 32.5015 31.5278C32.6382 31.5278 32.7694 31.4735 32.8661 31.3768C32.9628 31.2801 33.0171 31.149 33.0171 31.0122V22.2466H35.5952C35.732 22.2466 35.8631 22.1923 35.9598 22.0956C36.0565 21.9989 36.1108 21.8677 36.1108 21.731C36.1108 21.5942 36.0565 21.4631 35.9598 21.3664C35.8631 21.2697 35.732 21.2153 35.5952 21.2153H29.4077C29.271 21.2153 29.1398 21.2697 29.0431 21.3664C28.9464 21.4631 28.8921 21.5942 28.8921 21.731C28.8921 21.8677 28.9464 21.9989 29.0431 22.0956C29.1398 22.1923 29.271 22.2466 29.4077 22.2466Z" fill="#6660AB"/>
<path d="M32.5014 56.2574C32.5014 56.3941 32.5557 56.5253 32.6524 56.622C32.7491 56.7187 32.8802 56.773 33.017 56.773C33.1537 56.773 33.2849 56.7187 33.3816 56.622C33.4783 56.5253 33.5326 56.3941 33.5326 56.2574C33.5327 55.663 33.3275 55.0869 32.9517 54.6265C32.5758 54.1661 32.0524 53.8497 31.4701 53.7308V53.4575C31.4701 53.3208 31.4158 53.1896 31.3191 53.0929C31.2224 52.9962 31.0912 52.9419 30.9545 52.9419C30.8177 52.9419 30.6866 52.9962 30.5899 53.0929C30.4932 53.1896 30.4389 53.3208 30.4389 53.4575V53.7308C29.8561 53.8491 29.3321 54.1653 28.9557 54.6258C28.5794 55.0863 28.3738 55.6627 28.3738 56.2574C28.3738 56.8521 28.5794 57.4285 28.9557 57.8889C29.3321 58.3494 29.8561 58.6656 30.4389 58.7839V61.8364C30.138 61.73 29.8773 61.5332 29.6927 61.2729C29.5081 61.0126 29.4085 60.7015 29.4076 60.3824C29.4076 60.2456 29.3533 60.1145 29.2566 60.0178C29.1599 59.9211 29.0287 59.8667 28.892 59.8667C28.7552 59.8667 28.6241 59.9211 28.5274 60.0178C28.4307 60.1145 28.3764 60.2456 28.3764 60.3824C28.3762 60.9767 28.5815 61.5528 28.9573 62.0132C29.3332 62.4736 29.8565 62.7901 30.4389 62.9089V63.1719C30.4389 63.3086 30.4932 63.4398 30.5899 63.5365C30.6866 63.6332 30.8177 63.6875 30.9545 63.6875C31.0912 63.6875 31.2224 63.6332 31.3191 63.5365C31.4158 63.4398 31.4701 63.3086 31.4701 63.1719V62.8986C32.0529 62.7803 32.5769 62.4641 32.9532 62.0036C33.3296 61.5432 33.5352 60.9667 33.5352 60.372C33.5352 59.7774 33.3296 59.2009 32.9532 58.7405C32.5769 58.28 32.0529 57.9638 31.4701 57.8455V54.8085C31.7702 54.9145 32.0302 55.1106 32.2148 55.3699C32.3993 55.6292 32.4994 55.9391 32.5014 56.2574ZM30.4389 54.8033V57.7063C30.1437 57.5959 29.8892 57.398 29.7096 57.1391C29.53 56.8801 29.4337 56.5725 29.4337 56.2574C29.4337 55.9422 29.53 55.6346 29.7096 55.3757C29.8892 55.1167 30.1437 54.9188 30.4389 54.8085V54.8033ZM31.4701 61.8313V58.9335C31.767 59.0428 32.0232 59.2407 32.2042 59.5002C32.3852 59.7597 32.4822 60.0685 32.4822 60.3849C32.4822 60.7013 32.3852 61.0101 32.2042 61.2697C32.0232 61.5292 31.767 61.727 31.4701 61.8364V61.8313Z" fill="#F4A049"/>
<path d="M51.5796 39.2417H28.8921C28.7553 39.2417 28.6242 39.296 28.5275 39.3927C28.4308 39.4894 28.3765 39.6206 28.3765 39.7573C28.3765 39.8941 28.4308 40.0252 28.5275 40.1219C28.6242 40.2186 28.7553 40.2729 28.8921 40.2729H51.5796C51.7163 40.2729 51.8475 40.2186 51.9442 40.1219C52.0409 40.0252 52.0952 39.8941 52.0952 39.7573C52.0952 39.6206 52.0409 39.4894 51.9442 39.3927C51.8475 39.296 51.7163 39.2417 51.5796 39.2417Z" fill="#F4A049"/>
<path d="M51.5796 43.3667H28.8921C28.7553 43.3667 28.6242 43.421 28.5275 43.5177C28.4308 43.6144 28.3765 43.7456 28.3765 43.8823C28.3765 44.0191 28.4308 44.1502 28.5275 44.2469C28.6242 44.3436 28.7553 44.3979 28.8921 44.3979H51.5796C51.7163 44.3979 51.8475 44.3436 51.9442 44.2469C52.0409 44.1502 52.0952 44.0191 52.0952 43.8823C52.0952 43.7456 52.0409 43.6144 51.9442 43.5177C51.8475 43.421 51.7163 43.3667 51.5796 43.3667Z" fill="#F4A049"/>
<path d="M51.5796 55.7417H40.2358C40.0991 55.7417 39.9679 55.796 39.8712 55.8927C39.7745 55.9894 39.7202 56.1206 39.7202 56.2573C39.7202 56.3941 39.7745 56.5252 39.8712 56.6219C39.9679 56.7186 40.0991 56.7729 40.2358 56.7729H51.5796C51.7163 56.7729 51.8475 56.7186 51.9442 56.6219C52.0409 56.5252 52.0952 56.3941 52.0952 56.2573C52.0952 56.1206 52.0409 55.9894 51.9442 55.8927C51.8475 55.796 51.7163 55.7417 51.5796 55.7417Z" fill="#F4A049"/>
<path d="M51.5796 59.8667H40.2358C40.0991 59.8667 39.9679 59.921 39.8712 60.0177C39.7745 60.1144 39.7202 60.2456 39.7202 60.3823C39.7202 60.5191 39.7745 60.6502 39.8712 60.7469C39.9679 60.8436 40.0991 60.8979 40.2358 60.8979H51.5796C51.7163 60.8979 51.8475 60.8436 51.9442 60.7469C52.0409 60.6502 52.0952 60.5191 52.0952 60.3823C52.0952 60.2456 52.0409 60.1144 51.9442 60.0177C51.8475 59.921 51.7163 59.8667 51.5796 59.8667Z" fill="#F4A049"/>
<path d="M51.5796 47.4917H28.8921C28.7553 47.4917 28.6242 47.546 28.5275 47.6427C28.4308 47.7394 28.3765 47.8706 28.3765 48.0073C28.3765 48.1441 28.4308 48.2752 28.5275 48.3719C28.6242 48.4686 28.7553 48.5229 28.8921 48.5229H51.5796C51.7163 48.5229 51.8475 48.4686 51.9442 48.3719C52.0409 48.2752 52.0952 48.1441 52.0952 48.0073C52.0952 47.8706 52.0409 47.7394 51.9442 47.6427C51.8475 47.546 51.7163 47.4917 51.5796 47.4917Z" fill="#F4A049"/>
<path d="M51.5796 35.1167H28.8921C28.7553 35.1167 28.6242 35.171 28.5275 35.2677C28.4308 35.3644 28.3765 35.4956 28.3765 35.6323C28.3765 35.7691 28.4308 35.9002 28.5275 35.9969C28.6242 36.0936 28.7553 36.1479 28.8921 36.1479H51.5796C51.7163 36.1479 51.8475 36.0936 51.9442 35.9969C52.0409 35.9002 52.0952 35.7691 52.0952 35.6323C52.0952 35.4956 52.0409 35.3644 51.9442 35.2677C51.8475 35.171 51.7163 35.1167 51.5796 35.1167Z" fill="#F4A049"/>
<path d="M62.9233 47.4966H60.3452C60.2085 47.4966 60.0773 47.5509 59.9806 47.6476C59.8839 47.7443 59.8296 47.8755 59.8296 48.0122C59.8296 48.149 59.8839 48.2801 59.9806 48.3768C60.0773 48.4735 60.2085 48.5278 60.3452 48.5278H62.9233C63.3336 48.5278 63.7271 48.6908 64.0171 48.9809C64.3072 49.271 64.4702 49.6645 64.4702 50.0747V63.481C64.4702 64.1647 64.1986 64.8205 63.7151 65.304C63.2316 65.7875 62.5759 66.0591 61.8921 66.0591C61.2083 66.0591 60.5526 65.7875 60.0691 65.304C59.5856 64.8205 59.314 64.1647 59.314 63.481V19.1372C59.314 18.4534 59.0423 17.7977 58.5589 17.3142C58.0754 16.8307 57.4196 16.5591 56.7358 16.5591H23.7358C23.0521 16.5591 22.3963 16.8307 21.9128 17.3142C21.4293 17.7977 21.1577 18.4534 21.1577 19.1372V63.481C21.1577 64.4382 21.538 65.3563 22.2149 66.0332C22.8918 66.7101 23.8098 67.0903 24.7671 67.0903H61.8921C62.8494 67.0903 63.7674 66.7101 64.4443 66.0332C65.1212 65.3563 65.5015 64.4382 65.5015 63.481V50.0747C65.5015 49.3909 65.2298 48.7352 64.7464 48.2517C64.2629 47.7682 63.6071 47.4966 62.9233 47.4966ZM59.3707 66.0591H24.7671C24.0833 66.0591 23.4276 65.7875 22.9441 65.304C22.4606 64.8205 22.189 64.1647 22.189 63.481V19.1372C22.189 18.727 22.3519 18.3335 22.642 18.0434C22.9321 17.7533 23.3256 17.5903 23.7358 17.5903H56.7358C57.1461 17.5903 57.5396 17.7533 57.8296 18.0434C58.1197 18.3335 58.2827 18.727 58.2827 19.1372V63.481C58.2847 63.9613 58.3819 64.4364 58.5687 64.8789C58.7554 65.3214 59.028 65.7225 59.3707 66.0591V66.0591Z" fill="#6660AB"/>
</svg>
