<svg width="34" height="34" viewBox="0 0 34 34" fill="none" xmlns="http://www.w3.org/2000/svg">
<path d="M23.3649 24.0124H30.4582C29.8626 16.152 26.4784 11.2697 22.1375 8.38188L24.1139 4.06813C24.1737 3.93125 24.1985 3.78168 24.1862 3.63283C24.1739 3.48399 24.1249 3.34052 24.0435 3.2153C23.9621 3.09007 23.8509 2.98701 23.7198 2.91535C23.5888 2.84368 23.442 2.80566 23.2927 2.80469H10.92C10.7706 2.80566 10.6239 2.84368 10.4928 2.91535C10.3618 2.98701 10.2506 3.09007 10.1692 3.2153C10.0878 3.34052 10.0388 3.48399 10.0265 3.63283C10.0142 3.78168 10.039 3.93125 10.0988 4.06813L11.1817 6.41452H20.3146L19.5024 8.21943H17.8328C18.3427 9.59049 18.7175 11.0081 18.9519 12.452C19.1037 13.3476 19.2001 14.2518 19.2407 15.1593L17.8148 16.1611C17.8186 14.9938 17.722 13.8283 17.526 12.6776C17.2766 11.1461 16.8464 9.64958 16.2445 8.21943H15.342C14.5092 9.27176 13.7608 10.3883 13.1039 11.5585C12.5743 12.5624 12.1247 13.6065 11.7593 14.681L10.5229 13.8598C10.8838 12.8212 11.3274 11.8132 11.8495 10.8456C12.3771 9.9382 12.9556 9.06141 13.5822 8.21943H12.0029L12.0751 8.37285C7.29211 11.5585 3.65521 17.1538 3.65521 26.4942C3.64301 26.6905 3.66984 26.8874 3.73415 27.0733C3.79846 27.2592 3.89897 27.4305 4.02987 27.5774C4.16077 27.7242 4.31947 27.8437 4.49681 27.9288C4.67414 28.014 4.86659 28.0632 5.06304 28.0735H12.2827C11.9727 27.7509 11.7587 27.3483 11.6645 26.9108C11.5704 26.4734 11.6 26.0184 11.7499 25.5968C11.8998 25.1752 12.1641 24.8037 12.5132 24.5239C12.8624 24.2441 13.2825 24.067 13.7266 24.0124C13.5105 23.6459 13.3953 23.2287 13.3927 22.8032C13.3927 22.1569 13.6494 21.5371 14.1064 21.0802C14.5634 20.6232 15.1831 20.3665 15.8294 20.3665H21.2441C21.8903 20.3665 22.5101 20.6232 22.9671 21.0802C23.424 21.5371 23.6807 22.1569 23.6807 22.8032C23.6854 23.2272 23.5763 23.6448 23.3649 24.0124Z" fill="#F4A047"/>
<path d="M20.3954 26.2657C20.3954 26.0264 20.3004 25.7968 20.1311 25.6276C19.9619 25.4584 19.7323 25.3633 19.493 25.3633H14.0782C13.8389 25.3633 13.6093 25.4584 13.4401 25.6276C13.2709 25.7968 13.1758 26.0264 13.1758 26.2657C13.1758 26.5051 13.2709 26.7346 13.4401 26.9039C13.6093 27.0731 13.8389 27.1682 14.0782 27.1682H19.493C19.7323 27.1682 19.9619 27.0731 20.1311 26.9039C20.3004 26.7346 20.3954 26.5051 20.3954 26.2657Z" fill="#F4A047"/>
<path d="M21.243 21.7539H15.8282C15.5889 21.7539 15.3593 21.849 15.1901 22.0182C15.0209 22.1875 14.9258 22.417 14.9258 22.6564C14.9258 22.8957 15.0209 23.1253 15.1901 23.2945C15.3593 23.4637 15.5889 23.5588 15.8282 23.5588H21.243C21.4823 23.5588 21.7119 23.4637 21.8811 23.2945C22.0504 23.1253 22.1454 22.8957 22.1454 22.6564C22.1454 22.417 22.0504 22.1875 21.8811 22.0182C21.7119 21.849 21.4823 21.7539 21.243 21.7539Z" fill="#F4A047"/>
<path d="M20.7567 28.9727H15.3419C15.1026 28.9727 14.873 29.0677 14.7038 29.237C14.5345 29.4062 14.4395 29.6358 14.4395 29.8751C14.4395 30.1145 14.5345 30.344 14.7038 30.5132C14.873 30.6825 15.1026 30.7776 15.3419 30.7776H20.7567C20.996 30.7776 21.2255 30.6825 21.3948 30.5132C21.564 30.344 21.6591 30.1145 21.6591 29.8751C21.6591 29.6358 21.564 29.4062 21.3948 29.237C21.2255 29.0677 20.996 28.9727 20.7567 28.9727Z" fill="#F4A047"/>
<path d="M30.413 28.9727H24.0958C23.8565 28.9727 23.6269 29.0677 23.4577 29.237C23.2884 29.4062 23.1934 29.6358 23.1934 29.8751C23.1934 30.1145 23.2884 30.344 23.4577 30.5132C23.6269 30.6825 23.8565 30.7776 24.0958 30.7776H30.413C30.6524 30.7776 30.8819 30.6825 31.0512 30.5132C31.2204 30.344 31.3155 30.1145 31.3155 29.8751C31.3155 29.6358 31.2204 29.4062 31.0512 29.237C30.8819 29.0677 30.6524 28.9727 30.413 28.9727Z" fill="#F4A047"/>
<path d="M31.3154 25.3633H24.9982C24.7588 25.3633 24.5293 25.4584 24.36 25.6276C24.1908 25.7968 24.0957 26.0264 24.0957 26.2657C24.0957 26.5051 24.1908 26.7346 24.36 26.9039C24.5293 27.0731 24.7588 27.1682 24.9982 27.1682H31.3154C31.5547 27.1682 31.7843 27.0731 31.9535 26.9039C32.1227 26.7346 32.2178 26.5051 32.2178 26.2657C32.2178 26.0264 32.1227 25.7968 31.9535 25.6276C31.7843 25.4584 31.5547 25.3633 31.3154 25.3633Z" fill="#F4A047"/>
</svg>
