<svg xmlns="http://www.w3.org/2000/svg" width="15.87" height="15.87" viewBox="0 0 15.87 15.87"><path d="M15.87,7.927A7.935,7.935,0,1,0,2.809,13.968c.016.016.032.016.032.032.143.111.286.222.444.333a2.121,2.121,0,0,1,.222.174,7.921,7.921,0,0,0,8.889,0c.078-.047.141-.109.221-.158.143-.11.3-.221.444-.332.016-.016.032-.016.032-.032A8.069,8.069,0,0,0,15.87,7.927ZM7.935,14.871A6.887,6.887,0,0,1,3.952,13.6a3.236,3.236,0,0,1,.079-.38,4.136,4.136,0,0,1,.413-.983,3.49,3.49,0,0,1,.635-.809,4.456,4.456,0,0,1,.809-.634,4.005,4.005,0,0,1,.968-.4,4.219,4.219,0,0,1,3.983,1.015A3.973,3.973,0,0,1,11.7,12.7a4.217,4.217,0,0,1,.238.9,6.973,6.973,0,0,1-4,1.268ZM5.507,7.531a2.6,2.6,0,0,1,0-2.03A2.706,2.706,0,0,1,6.919,4.09a2.475,2.475,0,0,1,1.016-.206,2.423,2.423,0,0,1,1.016.206A2.706,2.706,0,0,1,10.363,5.5a2.474,2.474,0,0,1,.206,1.015,2.417,2.417,0,0,1-.206,1.015A2.7,2.7,0,0,1,8.951,8.942a2.693,2.693,0,0,1-2.047,0,2.817,2.817,0,0,1-.841-.57,2.505,2.505,0,0,1-.555-.841Zm7.364,5.263c0-.032-.016-.048-.016-.079a5.178,5.178,0,0,0-.682-1.394,4.843,4.843,0,0,0-1.079-1.126,5.165,5.165,0,0,0-1.032-.6,2.8,2.8,0,0,0,.46-.38,4.166,4.166,0,0,0,.619-.778,3.6,3.6,0,0,0,.524-1.918,3.68,3.68,0,0,0-.286-1.458,3.768,3.768,0,0,0-.809-1.189,3.814,3.814,0,0,0-1.19-.793,3.88,3.88,0,0,0-2.92,0,3.6,3.6,0,0,0-1.19.808,3.809,3.809,0,0,0-.793,1.189A3.68,3.68,0,0,0,4.19,6.531a3.451,3.451,0,0,0,.143,1,3.648,3.648,0,0,0,.4.92,3.606,3.606,0,0,0,.619.778,2.781,2.781,0,0,0,.476.38,5.078,5.078,0,0,0-1.032.619,5.5,5.5,0,0,0-1.079,1.11,4.959,4.959,0,0,0-.682,1.394.173.173,0,0,0-.016.079A6.941,6.941,0,1,1,14.886,7.927a6.9,6.9,0,0,1-2.015,4.867Z" fill="#f4a047"/></svg>