<svg id="account" xmlns="http://www.w3.org/2000/svg" width="19" height="19" viewBox="0 0 19 19">
  <path id="Path_1444" data-name="Path 1444" d="M19,9.491A9.5,9.5,0,1,0,3.363,16.723c.019.019.038.019.038.038.171.133.342.266.532.4a2.54,2.54,0,0,1,.266.208,9.484,9.484,0,0,0,10.642,0c.093-.056.169-.131.264-.189.171-.132.361-.265.532-.4.019-.019.038-.019.038-.038A9.661,9.661,0,0,0,19,9.49ZM9.5,17.8a8.245,8.245,0,0,1-4.769-1.519,3.875,3.875,0,0,1,.1-.455,4.952,4.952,0,0,1,.494-1.177,4.178,4.178,0,0,1,.76-.969,5.335,5.335,0,0,1,.969-.759,4.8,4.8,0,0,1,1.159-.475,5.051,5.051,0,0,1,4.769,1.215A4.756,4.756,0,0,1,14,15.2a5.048,5.048,0,0,1,.285,1.082A8.348,8.348,0,0,1,9.5,17.8ZM6.593,9.017a3.114,3.114,0,0,1,0-2.431A3.24,3.24,0,0,1,8.284,4.9,2.963,2.963,0,0,1,9.5,4.65a2.9,2.9,0,0,1,1.216.247,3.24,3.24,0,0,1,1.691,1.689A2.962,2.962,0,0,1,12.654,7.8a2.893,2.893,0,0,1-.247,1.215,3.237,3.237,0,0,1-1.691,1.69,3.224,3.224,0,0,1-2.451,0,3.372,3.372,0,0,1-1.007-.683,3,3,0,0,1-.665-1.007Zm8.816,6.3c0-.038-.019-.057-.019-.095a6.2,6.2,0,0,0-.817-1.669A5.8,5.8,0,0,0,13.281,12.2a6.184,6.184,0,0,0-1.235-.722,3.349,3.349,0,0,0,.551-.455,4.988,4.988,0,0,0,.741-.931,4.3,4.3,0,0,0,.627-2.3,4.406,4.406,0,0,0-.342-1.746,4.511,4.511,0,0,0-.969-1.424,4.566,4.566,0,0,0-1.425-.95,4.645,4.645,0,0,0-3.5,0,4.312,4.312,0,0,0-1.425.968,4.56,4.56,0,0,0-.95,1.424A4.406,4.406,0,0,0,5.016,7.82a4.131,4.131,0,0,0,.171,1.2,4.368,4.368,0,0,0,.475,1.1,4.317,4.317,0,0,0,.741.931,3.33,3.33,0,0,0,.57.455,6.08,6.08,0,0,0-1.235.741,6.583,6.583,0,0,0-1.292,1.329,5.936,5.936,0,0,0-.817,1.669.207.207,0,0,0-.019.1A8.31,8.31,0,1,1,17.822,9.491a8.265,8.265,0,0,1-2.413,5.827Z" fill="#fff"/>
</svg>
