<svg xmlns="http://www.w3.org/2000/svg" width="26.5" height="33.302" viewBox="0 0 26.5 33.302">
  <g id="Group_1165" data-name="Group 1165" transform="translate(-940 -196.613)">
    <g id="Group_1164" data-name="Group 1164">
      <g id="document" transform="translate(934 195)">
        <path id="Path_1447" data-name="Path 1447" d="M25,9V29H7V3h9" fill="none" stroke="#939393" stroke-linecap="round" stroke-linejoin="round" stroke-width="2"/>
        <line id="Line_216" data-name="Line 216" x2="9" y2="6" transform="translate(16 3)" fill="none" stroke="#939393" stroke-linecap="round" stroke-linejoin="round" stroke-width="2"/>
        <line id="Line_217" data-name="Line 217" y2="6" transform="translate(16 3)" fill="none" stroke="#939393" stroke-linecap="round" stroke-linejoin="round" stroke-width="2"/>
        <line id="Line_218" data-name="Line 218" x1="9" transform="translate(16 9)" fill="none" stroke="#939393" stroke-linecap="round" stroke-linejoin="round" stroke-width="2"/>
        <line id="Line_219" data-name="Line 219" x2="5" transform="translate(11 17)" fill="none" stroke="#939393" stroke-linecap="round" stroke-linejoin="round" stroke-width="2"/>
        <line id="Line_220" data-name="Line 220" x2="9" transform="translate(11 21)" fill="none" stroke="#939393" stroke-linecap="round" stroke-linejoin="round" stroke-width="2"/>
      </g>
      <g id="Group_1152" data-name="Group 1152" transform="translate(-1 -3)">
        <circle id="Ellipse_63" data-name="Ellipse 63" cx="6" cy="6" r="6" transform="translate(951 216)" fill="#fff"/>
        <g id="_3688454_find_lens_search_magnifier_magnifying_icon" data-name="3688454_find_lens_search_magnifier_magnifying_icon" transform="translate(942.641 207.782)">
          <path id="Path_1448" data-name="Path 1448" d="M25.283,27.335,31.1,33.157,32.656,31.6l-5.821-5.821Z" transform="translate(-7.798 -8.023)" fill="#6660ab" stroke="#fff" stroke-linecap="round" stroke-width="0" fill-rule="evenodd"/>
          <path id="Path_1449" data-name="Path 1449" d="M14.586,21.172a6.586,6.586,0,1,1,6.586-6.586A6.586,6.586,0,0,1,14.586,21.172Zm0-10.977a4.391,4.391,0,1,0,4.391,4.391A4.391,4.391,0,0,0,14.586,10.2Z" fill="#f4a047" stroke="#fff" stroke-linecap="round" stroke-width="0" fill-rule="evenodd"/>
        </g>
      </g>
    </g>
  </g>
</svg>
