<svg width="47" height="47" viewBox="0 0 47 47" fill="none" xmlns="http://www.w3.org/2000/svg">
<rect width="47" height="47" rx="23" fill="#6660AB"/>
<path d="M12.2248 20.5754L31.593 14.9847C31.7886 14.9283 31.9961 14.9284 32.1916 14.9849C32.3871 15.0414 32.5626 15.1521 32.6979 15.3041C32.8332 15.4562 32.9227 15.6434 32.9562 15.8441C32.9896 16.0449 32.9656 16.251 32.8868 16.4387L25.0833 35.026C25.0033 35.2167 24.8703 35.3805 24.6999 35.4978C24.5296 35.6151 24.3291 35.6809 24.1224 35.6875C23.9157 35.6941 23.7114 35.6411 23.534 35.5348C23.3565 35.4286 23.2133 35.2736 23.1215 35.0883L20.0467 28.8958C20.009 28.8199 19.9945 28.7346 20.0049 28.6506C20.0154 28.5665 20.0503 28.4873 20.1055 28.423L25.8931 21.6706C25.9171 21.6423 25.9334 21.6084 25.9404 21.5719C25.9475 21.5355 25.945 21.4979 25.9333 21.4627L25.9088 21.4117C25.8818 21.3712 25.842 21.341 25.7957 21.326C25.7494 21.3109 25.6994 21.312 25.6538 21.329L25.6097 21.3509L18.2375 26.3095C18.1672 26.3565 18.0847 26.3819 18.0001 26.3824C17.9155 26.3829 17.8326 26.3585 17.7617 26.3123L11.935 22.5167C11.7616 22.4039 11.6243 22.2437 11.5394 22.0551C11.4545 21.8665 11.4256 21.6575 11.4561 21.4529C11.4867 21.2484 11.5754 21.0569 11.7117 20.9013C11.8479 20.7457 12.0261 20.6326 12.2248 20.5754Z" fill="white"/>
</svg>
