<svg xmlns="http://www.w3.org/2000/svg" width="24" height="28" viewBox="0 0 24 28">
  <g id="hourglass-split" transform="translate(-4.5 -2.25)">
    <path id="Path_1525" data-name="Path 1525" d="M5.5,30.25a1,1,0,1,1,0-2h2v-2a9,9,0,0,1,5.114-8.12,1.4,1.4,0,0,0,.886-1.18v-1.4a1.4,1.4,0,0,0-.886-1.18A9,9,0,0,1,7.5,6.25v-2h-2a1,1,0,1,1,0-2h22a1,1,0,0,1,0,2h-2v2a9,9,0,0,1-5.114,8.12,1.4,1.4,0,0,0-.886,1.18v1.4a1.4,1.4,0,0,0,.886,1.18A9,9,0,0,1,25.5,26.25v2h2a1,1,0,0,1,0,2Zm4-26v2a6.949,6.949,0,0,0,.674,3H22.825a6.975,6.975,0,0,0,.674-3v-2H9.5Zm6,12.7a3.391,3.391,0,0,1-2.022,2.984A7,7,0,0,0,9.5,26.25a8.066,8.066,0,0,1,6-2.96V16.95Zm2,0a3.391,3.391,0,0,0,2.022,2.984A7,7,0,0,1,23.5,26.25a8.066,8.066,0,0,0-6-2.96V16.95Z" fill="#f4a047" fill-rule="evenodd"/>
  </g>
</svg>
