<svg xmlns="http://www.w3.org/2000/svg" width="240.248" height="352.012" viewBox="0 0 240.248 352.012">
  <g id="Group_10" data-name="Group 10" transform="translate(-471.376 -1284.448)">
    <g id="Group_5" data-name="Group 5" transform="translate(-429.5 -141)">
      <path id="Path_2" data-name="Path 2" d="M128.409,360.226c27.115-9.695,125.914-38.39,125.914-38.39s26.935-5.83,41.117,21.727c9.695,30.213,30.005,145.112,30.005,145.112l17.726,85.651s14.657,40.215-23.814,53.588S194.011,671.77,194.011,671.77s-35.143,10.527-46.634-23.049c-.107-.338-.255-.838-.4-1.348C127.357,525.6,122.807,498.581,122.807,498.581L105.973,395.744S101.295,369.921,128.409,360.226Z" transform="translate(795.211 1104.127)" fill="#c6dfbf"/>
      <g id="Path_3" data-name="Path 3" transform="translate(908.111 1453.768) rotate(-3)" fill="#fff">
        <path d="M 43.38037872314453 304.8859252929688 C 37.05430221557617 304.8859252929688 31.3349552154541 304.3730163574219 26.38118553161621 303.3614196777344 C 19.55253219604492 301.9669189453125 14.45526218414307 299.6598815917969 11.23103141784668 296.5042724609375 C 8.742300987243652 294.0685424804688 6.634570121765137 290.9587707519531 4.96645450592041 287.2612915039062 C 3.610646963119507 284.2559814453125 2.537262201309204 280.8498229980469 1.776185393333435 277.1374816894531 C 0.5778777003288269 271.2925109863281 0.4858392179012299 266.3768920898438 0.5018776655197144 264.5347290039062 C 0.5021121501922607 264.5074768066406 0.5022938847541809 264.4852294921875 0.5023865699768066 264.4680480957031 L 18.79195404052734 39.62516403198242 L 18.79360771179199 39.60493087768555 L 18.79360771179199 39.58462524414062 C 18.79360771179199 35.0031623840332 19.69076156616211 30.55900955200195 21.46018600463867 26.37562370300293 C 23.16937828063965 22.33470153808594 25.61630058288574 18.70547103881836 28.73299217224121 15.58877849578857 C 31.84972381591797 12.47204780578613 35.47891616821289 10.02512454986572 39.51987838745117 8.315932273864746 C 43.70326232910156 6.5465087890625 48.14737701416016 5.649354934692383 52.72883987426758 5.649354934692383 L 52.73964691162109 5.649354934692383 L 52.75045394897461 5.648893356323242 L 166.1934204101562 0.7378935813903809 L 166.2161102294922 0.7368935346603394 L 166.2386016845703 0.7338550686836243 C 167.3894958496094 0.5787012577056885 168.565185546875 0.5000089406967163 169.7329864501953 0.5000089406967163 C 173.6643829345703 0.5000089406967163 177.5728759765625 1.362393498420715 181.3499908447266 3.063201189041138 C 185.0804138183594 4.74304723739624 188.4958343505859 7.154316425323486 191.5013427734375 10.23004722595215 C 194.9736480712891 13.78354740142822 197.6866912841797 17.99908638000488 199.5651092529297 22.75954818725586 C 201.5636596679688 27.82446670532227 202.5107879638672 33.26610946655273 202.3802032470703 38.93268203735352 L 194.0863800048828 250.5003509521484 L 194.0859985351562 250.5101318359375 L 194.0859985351562 250.5199279785156 C 194.0859985351562 259.5234680175781 193.5982666015625 268.8996276855469 190.0598754882812 276.4772033691406 C 188.2236022949219 280.4095458984375 185.7263031005859 283.5911560058594 182.4251861572266 286.2038269042969 C 180.6601409912109 287.6007385253906 178.6378326416016 288.8417053222656 176.4144897460938 289.8922424316406 C 174.0995483398438 290.9860534667969 171.4890289306641 291.9102172851562 168.6552276611328 292.6391906738281 L 51.94310760498047 304.5441589355469 C 51.91022491455078 304.54736328125 48.38053131103516 304.8859252929688 43.38037872314453 304.8859252929688 Z" stroke="none"/>
        <path d="M 169.7329559326172 1 C 168.5873718261719 1 167.4341888427734 1.07720947265625 166.3053741455078 1.229400634765625 L 166.2603759765625 1.2354736328125 L 166.2149963378906 1.2374267578125 L 52.72883605957031 6.14935302734375 C 48.21464538574219 6.14935302734375 43.83607482910156 7.033233642578125 39.71464538574219 8.77642822265625 C 35.73330688476562 10.46038818359375 32.15748596191406 12.87136840820312 29.08653259277344 15.94232177734375 C 26.01556396484375 19.01324462890625 23.6046142578125 22.58905029296875 21.92068481445312 26.57040405273438 C 20.17745971679688 30.69180297851562 19.29356384277344 35.07040405273438 19.29356384277344 39.5845947265625 L 19.29356384277344 39.62521362304688 L 19.29026794433594 39.6656494140625 L 1.00225830078125 264.4899291992188 C 1.002151489257812 264.5040893554688 1.00201416015625 264.5204772949219 1.001846313476562 264.5391235351562 C 0.9859619140625 266.3653259277344 1.077301025390625 271.2388916015625 2.2659912109375 277.0370178222656 C 3.0196533203125 280.7132263183594 4.081573486328125 284.0840148925781 5.422225952148438 287.0556640625 C 7.064651489257812 290.6961669921875 9.136688232421875 293.7549438476562 11.58076477050781 296.1469421386719 C 14.735107421875 299.234130859375 19.74833679199219 301.4966125488281 26.48114013671875 302.8715209960938 C 31.33268737792969 303.8622436523438 37.17630004882812 304.3858947753906 43.38021850585938 304.3858947753906 C 48.35221862792969 304.3858947753906 51.86192321777344 304.0496520996094 51.89237976074219 304.0466918945312 L 168.5669097900391 292.1455993652344 C 171.3561859130859 291.4259643554688 173.9242706298828 290.515869140625 176.2008819580078 289.4401550292969 C 178.3898773193359 288.4058532714844 180.3796081542969 287.1850891113281 182.1148834228516 285.8117370605469 C 185.3535766601562 283.2484741210938 187.8042297363281 280.1258850097656 189.6067962646484 276.265625 C 193.1039123535156 268.7764282226562 193.5859985351562 259.4657897949219 193.5859985351562 250.5199279785156 L 193.5867614746094 250.4807739257812 L 201.8804779052734 38.91604614257812 C 202.0088043212891 33.31838989257812 201.0733337402344 27.94406127929688 199.0999908447266 22.94305419921875 C 197.2461395263672 18.24484252929688 194.5693054199219 14.08517456054688 191.1437225341797 10.57949829101562 C 188.1820678710938 7.548675537109375 184.8179168701172 5.173187255859375 181.1446838378906 3.519134521484375 C 177.4325256347656 1.8475341796875 173.5930633544922 1 169.7329559326172 1 M 169.7329406738281 3.0517578125e-05 C 186.9294738769531 3.0517578125e-05 203.3993377685547 16.47665405273438 202.8800354003906 38.94696044921875 L 194.5859985351562 250.5199279785156 C 194.5859985351562 269.5379638671875 192.3386535644531 287.0810546875 168.7431945800781 293.1328125 L 51.99383544921875 305.0415344238281 C 51.99385070800781 305.0415344238281 22.2109375 307.9500427246094 10.88130187988281 296.8616333007812 C -0.4483489990234375 285.7733154296875 0.0024566650390625 265.1886901855469 0.0024566650390625 264.447021484375 L 18.29356384277344 39.5845947265625 C 18.29356384277344 20.56649780273438 33.71076965332031 5.14935302734375 52.72883605957031 5.14935302734375 L 166.1717529296875 0.23834228515625 C 167.3580474853516 0.078399658203125 168.5482177734375 3.0517578125e-05 169.7329406738281 3.0517578125e-05 Z" stroke="none" fill="#e3e3e3"/>
      </g>
    </g>
    <path id="Path_11" data-name="Path 11" d="M10.818,0H9.587L7.427-7.17q-.154-.476-.344-1.2a7.006,7.006,0,0,1-.2-.872,16.679,16.679,0,0,1-.513,2.117L4.277,0H3.047L.2-10.708H1.516L3.208-4.094a24.6,24.6,0,0,1,.513,2.52A18.2,18.2,0,0,1,4.307-4.2l1.919-6.511H7.544l2.014,6.57a19.972,19.972,0,0,1,.593,2.563,21.96,21.96,0,0,1,.527-2.534l1.685-6.6h1.318Zm7.3.146A3.688,3.688,0,0,1,15.308-.937a4.2,4.2,0,0,1-1.029-3.01,4.654,4.654,0,0,1,.956-3.083A3.175,3.175,0,0,1,17.8-8.174a3.027,3.027,0,0,1,2.388.992,3.8,3.8,0,0,1,.879,2.618v.769h-5.53a3.182,3.182,0,0,0,.714,2.146,2.47,2.47,0,0,0,1.908.732,6.466,6.466,0,0,0,2.563-.542V-.374a6.434,6.434,0,0,1-1.219.4A6.853,6.853,0,0,1,18.117.146Zm-.33-7.3a1.985,1.985,0,0,0-1.542.63,2.9,2.9,0,0,0-.677,1.743h4.2a2.673,2.673,0,0,0-.513-1.761A1.8,1.8,0,0,0,17.787-7.156ZM33.067-4.021a4.428,4.428,0,0,1-.989,3.065,3.482,3.482,0,0,1-2.732,1.1,3.618,3.618,0,0,1-1.912-.505,3.335,3.335,0,0,1-1.289-1.45,5.054,5.054,0,0,1-.454-2.212,4.421,4.421,0,0,1,.981-3.058A3.471,3.471,0,0,1,29.4-8.174a3.4,3.4,0,0,1,2.677,1.121A4.409,4.409,0,0,1,33.067-4.021Zm-6.116,0a3.81,3.81,0,0,0,.615,2.344,2.136,2.136,0,0,0,1.809.806,2.15,2.15,0,0,0,1.813-.8,3.791,3.791,0,0,0,.619-2.347,3.73,3.73,0,0,0-.619-2.325,2.175,2.175,0,0,0-1.827-.795,2.14,2.14,0,0,0-1.8.784A3.772,3.772,0,0,0,26.951-4.021ZM38.366-7.083H36.323V0H35.107V-7.083H33.671v-.549l1.436-.439v-.447q0-2.959,2.585-2.959a5.32,5.32,0,0,1,1.494.256l-.315.974a4.022,4.022,0,0,0-1.2-.227,1.17,1.17,0,0,0-1.018.458,2.555,2.555,0,0,0-.33,1.469v.52h2.043ZM41.974-.857A3.972,3.972,0,0,0,42.6-.9a4.03,4.03,0,0,0,.476-.1v.93a2.223,2.223,0,0,1-.582.157A4.373,4.373,0,0,1,41.8.146q-2.329,0-2.329-2.454V-7.083h-1.15v-.586l1.15-.505.513-1.714h.7v1.86h2.329v.945H40.685v4.724a1.625,1.625,0,0,0,.344,1.113A1.2,1.2,0,0,0,41.974-.857Zm5.644,1A3.688,3.688,0,0,1,44.809-.937a4.2,4.2,0,0,1-1.029-3.01,4.654,4.654,0,0,1,.956-3.083A3.175,3.175,0,0,1,47.3-8.174a3.027,3.027,0,0,1,2.388.992,3.8,3.8,0,0,1,.879,2.618v.769h-5.53a3.182,3.182,0,0,0,.714,2.146,2.47,2.47,0,0,0,1.908.732,6.466,6.466,0,0,0,2.563-.542V-.374a6.434,6.434,0,0,1-1.219.4A6.853,6.853,0,0,1,47.617.146Zm-.33-7.3a1.985,1.985,0,0,0-1.542.63,2.9,2.9,0,0,0-.677,1.743h4.2a2.673,2.673,0,0,0-.513-1.761A1.8,1.8,0,0,0,47.288-7.156ZM57.685,0V-5.193a2.1,2.1,0,0,0-.447-1.465,1.82,1.82,0,0,0-1.4-.483,2.307,2.307,0,0,0-1.846.681,3.439,3.439,0,0,0-.586,2.249V0H52.192V-8.027h.989l.2,1.1h.059a2.483,2.483,0,0,1,1.047-.919,3.4,3.4,0,0,1,1.5-.326,3.049,3.049,0,0,1,2.183.7A2.977,2.977,0,0,1,58.9-5.237V0Zm9.3-.857A3.972,3.972,0,0,0,67.61-.9a4.03,4.03,0,0,0,.476-.1v.93A2.223,2.223,0,0,1,67.5.084a4.373,4.373,0,0,1-.692.062q-2.329,0-2.329-2.454V-7.083h-1.15v-.586l1.15-.505L65-9.888h.7v1.86h2.329v.945H65.7v4.724a1.625,1.625,0,0,0,.344,1.113A1.2,1.2,0,0,0,66.988-.857ZM74.177,0l-.242-1.143h-.059a3.378,3.378,0,0,1-1.2,1.022,3.65,3.65,0,0,1-1.49.267,2.681,2.681,0,0,1-1.871-.615,2.244,2.244,0,0,1-.677-1.75q0-2.432,3.889-2.549l1.362-.044v-.5a2.035,2.035,0,0,0-.406-1.4,1.672,1.672,0,0,0-1.3-.45,5.3,5.3,0,0,0-2.271.615l-.374-.93a5.713,5.713,0,0,1,1.3-.505,5.631,5.631,0,0,1,1.417-.183,3.058,3.058,0,0,1,2.128.637,2.66,2.66,0,0,1,.692,2.043V0ZM71.43-.857a2.468,2.468,0,0,0,1.783-.623,2.3,2.3,0,0,0,.648-1.743v-.725L72.646-3.9a4.422,4.422,0,0,0-2.091.45A1.358,1.358,0,0,0,69.914-2.2a1.253,1.253,0,0,0,.4,1A1.657,1.657,0,0,0,71.43-.857Zm6.9-3.252a14.3,14.3,0,0,1,.959-1.172l2.593-2.747h1.443l-3.252,3.42L83.556,0H82.084L79.249-3.794,78.334-3V0h-1.2V-11.4h1.2v6.042q0,.4-.059,1.245ZM87.947.146A3.688,3.688,0,0,1,85.138-.937a4.2,4.2,0,0,1-1.029-3.01,4.654,4.654,0,0,1,.956-3.083,3.175,3.175,0,0,1,2.567-1.143,3.027,3.027,0,0,1,2.388.992A3.8,3.8,0,0,1,90.9-4.563v.769h-5.53a3.182,3.182,0,0,0,.714,2.146,2.47,2.47,0,0,0,1.908.732,6.466,6.466,0,0,0,2.563-.542V-.374a6.434,6.434,0,0,1-1.219.4A6.853,6.853,0,0,1,87.947.146Zm-.33-7.3a1.985,1.985,0,0,0-1.542.63A2.9,2.9,0,0,0,85.4-4.783h4.2a2.673,2.673,0,0,0-.513-1.761A1.8,1.8,0,0,0,87.618-7.156ZM4.951,12.826a4.757,4.757,0,0,1,.959.088l-.168,1.128a4.142,4.142,0,0,0-.879-.11,2.139,2.139,0,0,0-1.666.791,2.884,2.884,0,0,0-.692,1.97V21H1.289V12.973h1l.139,1.487H2.49a3.529,3.529,0,0,1,1.077-1.208A2.424,2.424,0,0,1,4.951,12.826Zm5.4,8.32a3.688,3.688,0,0,1-2.809-1.084,4.2,4.2,0,0,1-1.029-3.01,4.654,4.654,0,0,1,.956-3.083,3.175,3.175,0,0,1,2.567-1.143,3.027,3.027,0,0,1,2.388.992,3.8,3.8,0,0,1,.879,2.618v.769H7.775a3.182,3.182,0,0,0,.714,2.146,2.47,2.47,0,0,0,1.908.732,6.466,6.466,0,0,0,2.563-.542v1.084a6.434,6.434,0,0,1-1.219.4A6.853,6.853,0,0,1,10.353,21.146Zm-.33-7.3a1.985,1.985,0,0,0-1.542.63A2.9,2.9,0,0,0,7.8,16.217H12a2.673,2.673,0,0,0-.513-1.761A1.8,1.8,0,0,0,10.024,13.844Zm8.112,7.3a3.426,3.426,0,0,1-2.7-1.073,4.412,4.412,0,0,1-.956-3.036,4.55,4.55,0,0,1,.97-3.113,3.494,3.494,0,0,1,2.765-1.1,5.487,5.487,0,0,1,1.157.125,3.812,3.812,0,0,1,.908.293l-.374,1.033a5.717,5.717,0,0,0-.879-.267,3.924,3.924,0,0,0-.842-.106q-2.446,0-2.446,3.12a3.715,3.715,0,0,0,.6,2.271,2.077,2.077,0,0,0,1.769.791,5.408,5.408,0,0,0,2.058-.432v1.077A4.386,4.386,0,0,1,18.136,21.146Zm10.412-4.167a4.428,4.428,0,0,1-.989,3.065,3.482,3.482,0,0,1-2.732,1.1,3.618,3.618,0,0,1-1.912-.505,3.335,3.335,0,0,1-1.289-1.45,5.054,5.054,0,0,1-.454-2.212,4.421,4.421,0,0,1,.981-3.058,3.471,3.471,0,0,1,2.725-1.095,3.4,3.4,0,0,1,2.677,1.121A4.409,4.409,0,0,1,28.547,16.979Zm-6.116,0a3.81,3.81,0,0,0,.615,2.344,2.136,2.136,0,0,0,1.809.806,2.15,2.15,0,0,0,1.813-.8,3.791,3.791,0,0,0,.619-2.347,3.73,3.73,0,0,0-.619-2.325,2.175,2.175,0,0,0-1.827-.795,2.14,2.14,0,0,0-1.8.784A3.772,3.772,0,0,0,22.432,16.979ZM40.461,21V15.778a2.168,2.168,0,0,0-.41-1.439,1.586,1.586,0,0,0-1.274-.48,2.058,2.058,0,0,0-1.677.652,3.1,3.1,0,0,0-.542,2.007V21H35.341V15.778a2.168,2.168,0,0,0-.41-1.439,1.6,1.6,0,0,0-1.282-.48,1.985,1.985,0,0,0-1.674.685,3.706,3.706,0,0,0-.531,2.245V21H30.229V12.973h.989l.2,1.1h.059a2.39,2.39,0,0,1,.97-.916,2.965,2.965,0,0,1,1.4-.33,2.385,2.385,0,0,1,2.461,1.362h.059a2.56,2.56,0,0,1,1.04-1,3.227,3.227,0,0,1,1.553-.366,2.718,2.718,0,0,1,2.04.7,3.129,3.129,0,0,1,.677,2.238V21Zm13.5,0V15.778a2.168,2.168,0,0,0-.41-1.439,1.586,1.586,0,0,0-1.274-.48,2.058,2.058,0,0,0-1.677.652,3.1,3.1,0,0,0-.542,2.007V21H48.844V15.778a2.168,2.168,0,0,0-.41-1.439,1.6,1.6,0,0,0-1.282-.48,1.985,1.985,0,0,0-1.674.685,3.706,3.706,0,0,0-.531,2.245V21H43.731V12.973h.989l.2,1.1h.059a2.39,2.39,0,0,1,.97-.916,2.965,2.965,0,0,1,1.4-.33,2.385,2.385,0,0,1,2.461,1.362h.059a2.56,2.56,0,0,1,1.04-1,3.227,3.227,0,0,1,1.553-.366,2.718,2.718,0,0,1,2.04.7,3.129,3.129,0,0,1,.677,2.238V21Zm6.662.146a3.688,3.688,0,0,1-2.809-1.084,4.2,4.2,0,0,1-1.029-3.01,4.654,4.654,0,0,1,.956-3.083,3.175,3.175,0,0,1,2.567-1.143,3.027,3.027,0,0,1,2.388.992,3.8,3.8,0,0,1,.879,2.618v.769h-5.53a3.182,3.182,0,0,0,.714,2.146,2.47,2.47,0,0,0,1.908.732,6.466,6.466,0,0,0,2.563-.542v1.084a6.434,6.434,0,0,1-1.219.4A6.853,6.853,0,0,1,60.625,21.146Zm-.33-7.3a1.985,1.985,0,0,0-1.542.63,2.9,2.9,0,0,0-.677,1.743h4.2a2.673,2.673,0,0,0-.513-1.761A1.8,1.8,0,0,0,60.3,13.844ZM70.693,21V15.807a2.1,2.1,0,0,0-.447-1.465,1.82,1.82,0,0,0-1.4-.483A2.307,2.307,0,0,0,67,14.54a3.439,3.439,0,0,0-.586,2.249V21H65.2V12.973h.989l.2,1.1h.059a2.483,2.483,0,0,1,1.047-.919,3.4,3.4,0,0,1,1.5-.326,3.049,3.049,0,0,1,2.183.7,2.977,2.977,0,0,1,.732,2.238V21Zm8.727-1.077h-.066a2.857,2.857,0,0,1-2.52,1.223,2.981,2.981,0,0,1-2.45-1.077,4.739,4.739,0,0,1-.875-3.062,4.819,4.819,0,0,1,.879-3.083,2.958,2.958,0,0,1,2.446-1.1,2.919,2.919,0,0,1,2.5,1.187h.1l-.051-.579-.029-.564V9.6H80.57V21h-.989Zm-2.432.205a2.214,2.214,0,0,0,1.805-.677,3.423,3.423,0,0,0,.56-2.186v-.256a4.028,4.028,0,0,0-.568-2.435,2.156,2.156,0,0,0-1.813-.729,1.861,1.861,0,0,0-1.637.831,4.134,4.134,0,0,0-.568,2.347,3.963,3.963,0,0,0,.564,2.322A1.91,1.91,0,0,0,76.988,20.128ZM87.635,21l-.242-1.143h-.059a3.378,3.378,0,0,1-1.2,1.022,3.65,3.65,0,0,1-1.49.267,2.681,2.681,0,0,1-1.871-.615,2.244,2.244,0,0,1-.677-1.75q0-2.432,3.889-2.549l1.362-.044v-.5a2.035,2.035,0,0,0-.406-1.4,1.672,1.672,0,0,0-1.3-.45,5.3,5.3,0,0,0-2.271.615L83,13.529a5.713,5.713,0,0,1,1.3-.505,5.631,5.631,0,0,1,1.417-.183,3.058,3.058,0,0,1,2.128.637,2.66,2.66,0,0,1,.692,2.043V21Zm-2.747-.857a2.468,2.468,0,0,0,1.783-.623,2.3,2.3,0,0,0,.648-1.743v-.725L86.1,17.1a4.422,4.422,0,0,0-2.091.45,1.358,1.358,0,0,0-.641,1.241,1.253,1.253,0,0,0,.4,1A1.657,1.657,0,0,0,84.888,20.143Zm8.3,0a3.972,3.972,0,0,0,.623-.048,4.03,4.03,0,0,0,.476-.1v.93a2.223,2.223,0,0,1-.582.157,4.373,4.373,0,0,1-.692.062q-2.329,0-2.329-2.454V13.917h-1.15v-.586l1.15-.505.513-1.714h.7v1.86h2.329v.945H91.894v4.724a1.625,1.625,0,0,0,.344,1.113A1.2,1.2,0,0,0,93.183,20.143ZM96.652,21H95.436V12.973h1.216ZM95.333,10.8a.808.808,0,0,1,.205-.612.759.759,0,0,1,1.018,0,.793.793,0,0,1,.212.608.805.805,0,0,1-.212.612.744.744,0,0,1-1.018,0A.823.823,0,0,1,95.333,10.8Zm10.375,6.182a4.428,4.428,0,0,1-.989,3.065,3.482,3.482,0,0,1-2.732,1.1,3.618,3.618,0,0,1-1.912-.505,3.335,3.335,0,0,1-1.289-1.45,5.054,5.054,0,0,1-.454-2.212,4.421,4.421,0,0,1,.981-3.058,3.471,3.471,0,0,1,2.725-1.095,3.4,3.4,0,0,1,2.677,1.121A4.409,4.409,0,0,1,105.708,16.979Zm-6.116,0a3.81,3.81,0,0,0,.615,2.344,2.442,2.442,0,0,0,3.622,0,3.791,3.791,0,0,0,.619-2.347,3.73,3.73,0,0,0-.619-2.325A2.175,2.175,0,0,0,102,13.859a2.14,2.14,0,0,0-1.8.784A3.772,3.772,0,0,0,99.593,16.979ZM112.883,21V15.807a2.1,2.1,0,0,0-.447-1.465,1.82,1.82,0,0,0-1.4-.483,2.307,2.307,0,0,0-1.846.681,3.439,3.439,0,0,0-.586,2.249V21H107.39V12.973h.989l.2,1.1h.059a2.483,2.483,0,0,1,1.047-.919,3.4,3.4,0,0,1,1.5-.326,3.049,3.049,0,0,1,2.183.7,2.977,2.977,0,0,1,.732,2.238V21Zm8.442-2.19a2.011,2.011,0,0,1-.835,1.729,3.925,3.925,0,0,1-2.344.608,5.1,5.1,0,0,1-2.49-.505V19.513a6.022,6.022,0,0,0,1.241.461,5.184,5.184,0,0,0,1.278.168,2.9,2.9,0,0,0,1.465-.3,1.046,1.046,0,0,0,.106-1.729,6.394,6.394,0,0,0-1.586-.787,8.6,8.6,0,0,1-1.593-.729,2.176,2.176,0,0,1-.7-.707,1.843,1.843,0,0,1-.231-.945,1.8,1.8,0,0,1,.8-1.549,3.72,3.72,0,0,1,2.19-.568,6.408,6.408,0,0,1,2.534.527l-.432.989a5.817,5.817,0,0,0-2.19-.5,2.52,2.52,0,0,0-1.3.271.838.838,0,0,0-.439.747.91.91,0,0,0,.165.549,1.626,1.626,0,0,0,.531.432,11.867,11.867,0,0,0,1.406.593,5.254,5.254,0,0,1,1.93,1.047A1.847,1.847,0,0,1,121.325,18.81Zm8.592-4.893h-2.043V21h-1.216V13.917h-1.436v-.549l1.436-.439v-.447q0-2.959,2.585-2.959a5.32,5.32,0,0,1,1.494.256l-.315.974a4.022,4.022,0,0,0-1.2-.227,1.17,1.17,0,0,0-1.018.458,2.555,2.555,0,0,0-.33,1.469v.52h2.043Zm4.677-1.091a4.757,4.757,0,0,1,.959.088l-.168,1.128a4.142,4.142,0,0,0-.879-.11,2.139,2.139,0,0,0-1.666.791,2.884,2.884,0,0,0-.692,1.97V21h-1.216V12.973h1l.139,1.487h.059a3.529,3.529,0,0,1,1.077-1.208A2.424,2.424,0,0,1,134.594,12.826Zm8.94,4.153a4.428,4.428,0,0,1-.989,3.065,3.482,3.482,0,0,1-2.732,1.1,3.618,3.618,0,0,1-1.912-.505,3.335,3.335,0,0,1-1.289-1.45,5.054,5.054,0,0,1-.454-2.212,4.421,4.421,0,0,1,.981-3.058,3.471,3.471,0,0,1,2.725-1.095,3.4,3.4,0,0,1,2.677,1.121A4.409,4.409,0,0,1,143.533,16.979Zm-6.116,0a3.81,3.81,0,0,0,.615,2.344,2.442,2.442,0,0,0,3.622,0,3.791,3.791,0,0,0,.619-2.347,3.73,3.73,0,0,0-.619-2.325,2.175,2.175,0,0,0-1.827-.795,2.14,2.14,0,0,0-1.8.784A3.772,3.772,0,0,0,137.418,16.979ZM155.447,21V15.778a2.168,2.168,0,0,0-.41-1.439,1.586,1.586,0,0,0-1.274-.48,2.058,2.058,0,0,0-1.677.652,3.1,3.1,0,0,0-.542,2.007V21h-1.216V15.778a2.168,2.168,0,0,0-.41-1.439,1.6,1.6,0,0,0-1.282-.48,1.985,1.985,0,0,0-1.674.685,3.706,3.706,0,0,0-.531,2.245V21h-1.216V12.973h.989l.2,1.1h.059a2.39,2.39,0,0,1,.97-.916,2.965,2.965,0,0,1,1.4-.33,2.385,2.385,0,0,1,2.461,1.362h.059a2.56,2.56,0,0,1,1.04-1,3.227,3.227,0,0,1,1.553-.366,2.718,2.718,0,0,1,2.04.7,3.129,3.129,0,0,1,.677,2.238V21ZM8.218,37.979a4.428,4.428,0,0,1-.989,3.065,3.482,3.482,0,0,1-2.732,1.1,3.618,3.618,0,0,1-1.912-.505A3.335,3.335,0,0,1,1.3,40.191a5.054,5.054,0,0,1-.454-2.212,4.421,4.421,0,0,1,.981-3.058,3.471,3.471,0,0,1,2.725-1.095,3.4,3.4,0,0,1,2.677,1.121A4.409,4.409,0,0,1,8.218,37.979Zm-6.116,0a3.81,3.81,0,0,0,.615,2.344,2.136,2.136,0,0,0,1.809.806,2.15,2.15,0,0,0,1.813-.8,3.791,3.791,0,0,0,.619-2.347,3.73,3.73,0,0,0-.619-2.325,2.175,2.175,0,0,0-1.827-.795,2.14,2.14,0,0,0-1.8.784A3.772,3.772,0,0,0,2.1,37.979Zm8.94-4.006V39.18a2.1,2.1,0,0,0,.447,1.465,1.82,1.82,0,0,0,1.4.483,2.282,2.282,0,0,0,1.842-.688,3.473,3.473,0,0,0,.582-2.249V33.973h1.216V42h-1l-.176-1.077h-.066a2.423,2.423,0,0,1-1.036.908,3.483,3.483,0,0,1-1.512.315,3.069,3.069,0,0,1-2.194-.7,2.962,2.962,0,0,1-.729-2.227V33.973Zm11.276-.146a4.757,4.757,0,0,1,.959.088l-.168,1.128a4.142,4.142,0,0,0-.879-.11,2.139,2.139,0,0,0-1.666.791,2.884,2.884,0,0,0-.692,1.97V42H18.656V33.973h1l.139,1.487h.059a3.529,3.529,0,0,1,1.077-1.208A2.424,2.424,0,0,1,22.318,33.826Zm9.076,1.091H29.35V42H28.134V34.917H26.7v-.549l1.436-.439v-.447q0-2.959,2.585-2.959a5.32,5.32,0,0,1,1.494.256l-.315.974a4.022,4.022,0,0,0-1.2-.227,1.17,1.17,0,0,0-1.018.458,2.555,2.555,0,0,0-.33,1.469v.52h2.043Zm4.677-1.091a4.757,4.757,0,0,1,.959.088l-.168,1.128a4.142,4.142,0,0,0-.879-.11,2.139,2.139,0,0,0-1.666.791,2.884,2.884,0,0,0-.692,1.97V42H32.408V33.973h1l.139,1.487h.059a3.529,3.529,0,0,1,1.077-1.208A2.424,2.424,0,0,1,36.07,33.826ZM39.3,42H38.081V33.973H39.3ZM37.979,31.8a.808.808,0,0,1,.205-.612.759.759,0,0,1,1.018,0,.793.793,0,0,1,.212.608.805.805,0,0,1-.212.612.744.744,0,0,1-1.018,0A.823.823,0,0,1,37.979,31.8Zm6.838,10.349a3.688,3.688,0,0,1-2.809-1.084,4.2,4.2,0,0,1-1.029-3.01,4.654,4.654,0,0,1,.956-3.083A3.175,3.175,0,0,1,44.5,33.826a3.027,3.027,0,0,1,2.388.992,3.8,3.8,0,0,1,.879,2.618v.769h-5.53a3.182,3.182,0,0,0,.714,2.146,2.47,2.47,0,0,0,1.908.732,6.466,6.466,0,0,0,2.563-.542v1.084a6.434,6.434,0,0,1-1.219.4A6.853,6.853,0,0,1,44.816,42.146Zm-.33-7.3a1.985,1.985,0,0,0-1.542.63,2.9,2.9,0,0,0-.677,1.743h4.2a2.673,2.673,0,0,0-.513-1.761A1.8,1.8,0,0,0,44.487,34.844ZM54.884,42V36.807a2.1,2.1,0,0,0-.447-1.465,1.82,1.82,0,0,0-1.4-.483,2.307,2.307,0,0,0-1.846.681,3.439,3.439,0,0,0-.586,2.249V42H49.391V33.973h.989l.2,1.1h.059a2.483,2.483,0,0,1,1.047-.919,3.4,3.4,0,0,1,1.5-.326,3.049,3.049,0,0,1,2.183.7,2.977,2.977,0,0,1,.732,2.238V42Zm8.727-1.077h-.066a2.857,2.857,0,0,1-2.52,1.223,2.981,2.981,0,0,1-2.45-1.077,4.739,4.739,0,0,1-.875-3.062,4.819,4.819,0,0,1,.879-3.083,2.958,2.958,0,0,1,2.446-1.1,2.919,2.919,0,0,1,2.5,1.187h.1l-.051-.579-.029-.564V30.6h1.216V42h-.989Zm-2.432.205a2.214,2.214,0,0,0,1.805-.677,3.423,3.423,0,0,0,.56-2.186v-.256a4.028,4.028,0,0,0-.568-2.435,2.156,2.156,0,0,0-1.813-.729,1.861,1.861,0,0,0-1.637.831,4.134,4.134,0,0,0-.568,2.347,3.963,3.963,0,0,0,.564,2.322A1.91,1.91,0,0,0,61.179,41.128ZM72.067,39.81a2.011,2.011,0,0,1-.835,1.729,3.925,3.925,0,0,1-2.344.608,5.1,5.1,0,0,1-2.49-.505V40.513a6.022,6.022,0,0,0,1.241.461,5.184,5.184,0,0,0,1.278.168,2.9,2.9,0,0,0,1.465-.3,1.046,1.046,0,0,0,.106-1.729,6.394,6.394,0,0,0-1.586-.787,8.6,8.6,0,0,1-1.593-.729,2.176,2.176,0,0,1-.7-.707,1.843,1.843,0,0,1-.231-.945,1.8,1.8,0,0,1,.8-1.549,3.72,3.72,0,0,1,2.19-.568,6.408,6.408,0,0,1,2.534.527l-.432.989a5.817,5.817,0,0,0-2.19-.5,2.52,2.52,0,0,0-1.3.271.838.838,0,0,0-.439.747.91.91,0,0,0,.165.549,1.626,1.626,0,0,0,.531.432,11.867,11.867,0,0,0,1.406.593,5.254,5.254,0,0,1,1.93,1.047A1.847,1.847,0,0,1,72.067,39.81Zm8.709-5.969a2.984,2.984,0,0,1,2.457,1.08,4.742,4.742,0,0,1,.875,3.058,4.776,4.776,0,0,1-.883,3.073,2.972,2.972,0,0,1-2.45,1.095,3.474,3.474,0,0,1-1.432-.289,2.693,2.693,0,0,1-1.088-.89h-.088L77.913,42h-.872V30.6h1.216v2.769q0,.93-.059,1.67h.059A2.886,2.886,0,0,1,80.777,33.841ZM80.6,34.859a2.123,2.123,0,0,0-1.794.714,4.028,4.028,0,0,0-.549,2.406,4.017,4.017,0,0,0,.564,2.421,2.145,2.145,0,0,0,1.809.729,1.875,1.875,0,0,0,1.67-.817,4.2,4.2,0,0,0,.549-2.347,4.034,4.034,0,0,0-.549-2.336A1.947,1.947,0,0,0,80.6,34.859Zm8.573,7.288a3.688,3.688,0,0,1-2.809-1.084,4.2,4.2,0,0,1-1.029-3.01,4.654,4.654,0,0,1,.956-3.083,3.175,3.175,0,0,1,2.567-1.143,3.027,3.027,0,0,1,2.388.992,3.8,3.8,0,0,1,.879,2.618v.769H86.6a3.182,3.182,0,0,0,.714,2.146,2.47,2.47,0,0,0,1.908.732,6.466,6.466,0,0,0,2.563-.542v1.084a6.434,6.434,0,0,1-1.219.4A6.853,6.853,0,0,1,89.174,42.146Zm-.33-7.3a1.985,1.985,0,0,0-1.542.63,2.9,2.9,0,0,0-.677,1.743h4.2a2.673,2.673,0,0,0-.513-1.761A1.8,1.8,0,0,0,88.845,34.844Zm8.522.073H95.324V42H94.108V34.917H92.672v-.549l1.436-.439v-.447q0-2.959,2.585-2.959a5.32,5.32,0,0,1,1.494.256l-.315.974a4.022,4.022,0,0,0-1.2-.227,1.17,1.17,0,0,0-1.018.458,2.555,2.555,0,0,0-.33,1.469v.52h2.043Zm7.944,3.062a4.428,4.428,0,0,1-.989,3.065,3.482,3.482,0,0,1-2.732,1.1,3.618,3.618,0,0,1-1.912-.505,3.335,3.335,0,0,1-1.289-1.45,5.054,5.054,0,0,1-.454-2.212,4.421,4.421,0,0,1,.981-3.058,3.471,3.471,0,0,1,2.725-1.095,3.4,3.4,0,0,1,2.677,1.121A4.409,4.409,0,0,1,105.311,37.979Zm-6.116,0a3.81,3.81,0,0,0,.615,2.344,2.442,2.442,0,0,0,3.622,0,3.791,3.791,0,0,0,.619-2.347,3.73,3.73,0,0,0-.619-2.325,2.175,2.175,0,0,0-1.827-.795,2.14,2.14,0,0,0-1.8.784A3.772,3.772,0,0,0,99.195,37.979Zm11.459-4.153a4.757,4.757,0,0,1,.959.088l-.168,1.128a4.142,4.142,0,0,0-.879-.11,2.139,2.139,0,0,0-1.666.791,2.884,2.884,0,0,0-.692,1.97V42h-1.216V33.973h1l.139,1.487h.059a3.529,3.529,0,0,1,1.077-1.208A2.424,2.424,0,0,1,110.654,33.826Zm5.4,8.32a3.688,3.688,0,0,1-2.809-1.084,4.2,4.2,0,0,1-1.029-3.01,4.654,4.654,0,0,1,.956-3.083,3.175,3.175,0,0,1,2.567-1.143,3.027,3.027,0,0,1,2.388.992,3.8,3.8,0,0,1,.879,2.618v.769h-5.53a3.182,3.182,0,0,0,.714,2.146,2.47,2.47,0,0,0,1.908.732,6.466,6.466,0,0,0,2.563-.542v1.084a6.434,6.434,0,0,1-1.219.4A6.853,6.853,0,0,1,116.056,42.146Zm-.33-7.3a1.985,1.985,0,0,0-1.542.63,2.9,2.9,0,0,0-.677,1.743h4.2a2.673,2.673,0,0,0-.513-1.761A1.8,1.8,0,0,0,115.726,34.844Zm10.943,6.3a3.972,3.972,0,0,0,.623-.048,4.03,4.03,0,0,0,.476-.1v.93a2.223,2.223,0,0,1-.582.157,4.373,4.373,0,0,1-.692.062q-2.329,0-2.329-2.454V34.917h-1.15v-.586l1.15-.505.513-1.714h.7v1.86h2.329v.945h-2.329v4.724a1.625,1.625,0,0,0,.344,1.113A1.2,1.2,0,0,0,126.67,41.143Zm7.746.857V36.807a2.1,2.1,0,0,0-.447-1.465,1.82,1.82,0,0,0-1.4-.483,2.292,2.292,0,0,0-1.849.688,3.487,3.487,0,0,0-.582,2.256V42h-1.216V30.6h1.216v3.45a7.517,7.517,0,0,1-.059,1.033h.073a2.48,2.48,0,0,1,1.022-.912,3.322,3.322,0,0,1,1.512-.333,3.1,3.1,0,0,1,2.208.7,2.946,2.946,0,0,1,.736,2.223V42Zm6.654.146a3.688,3.688,0,0,1-2.809-1.084,4.2,4.2,0,0,1-1.029-3.01,4.654,4.654,0,0,1,.956-3.083,3.175,3.175,0,0,1,2.567-1.143,3.027,3.027,0,0,1,2.388.992,3.8,3.8,0,0,1,.879,2.618v.769h-5.53a3.182,3.182,0,0,0,.714,2.146,2.47,2.47,0,0,0,1.908.732,6.466,6.466,0,0,0,2.563-.542v1.084a6.434,6.434,0,0,1-1.219.4A6.853,6.853,0,0,1,141.07,42.146Zm-.33-7.3a1.985,1.985,0,0,0-1.542.63,2.9,2.9,0,0,0-.677,1.743h4.2a2.673,2.673,0,0,0-.513-1.761A1.8,1.8,0,0,0,140.74,34.844ZM6.782,63V57.807a2.1,2.1,0,0,0-.447-1.465,1.82,1.82,0,0,0-1.4-.483,2.307,2.307,0,0,0-1.846.681A3.439,3.439,0,0,0,2.5,58.789V63H1.289V54.973h.989l.2,1.1h.059a2.483,2.483,0,0,1,1.047-.919,3.4,3.4,0,0,1,1.5-.326,3.049,3.049,0,0,1,2.183.7A2.977,2.977,0,0,1,8,57.763V63Zm6.654.146a3.688,3.688,0,0,1-2.809-1.084A4.2,4.2,0,0,1,9.6,59.052a4.654,4.654,0,0,1,.956-3.083,3.175,3.175,0,0,1,2.567-1.143,3.027,3.027,0,0,1,2.388.992,3.8,3.8,0,0,1,.879,2.618v.769h-5.53a3.182,3.182,0,0,0,.714,2.146,2.47,2.47,0,0,0,1.908.732,6.466,6.466,0,0,0,2.563-.542v1.084a6.434,6.434,0,0,1-1.219.4A6.853,6.853,0,0,1,13.437,63.146Zm-.33-7.3a1.985,1.985,0,0,0-1.542.63,2.9,2.9,0,0,0-.677,1.743h4.2a2.673,2.673,0,0,0-.513-1.761A1.8,1.8,0,0,0,13.107,55.844Zm6.838,3.047-2.791-3.918h1.384l2.117,3.076,2.109-3.076h1.37l-2.791,3.918L24.281,63H22.9l-2.249-3.252L18.385,63H17.008Zm8.068,3.252a3.972,3.972,0,0,0,.623-.048,4.03,4.03,0,0,0,.476-.1v.93a2.223,2.223,0,0,1-.582.157,4.373,4.373,0,0,1-.692.062q-2.329,0-2.329-2.454V55.917h-1.15v-.586l1.15-.505.513-1.714h.7v1.86h2.329v.945H26.724v4.724a1.625,1.625,0,0,0,.344,1.113A1.2,1.2,0,0,0,28.013,62.143Zm9.434-7.3a2.984,2.984,0,0,1,2.457,1.08,4.742,4.742,0,0,1,.875,3.058,4.776,4.776,0,0,1-.883,3.073,2.972,2.972,0,0,1-2.45,1.095,3.474,3.474,0,0,1-1.432-.289,2.693,2.693,0,0,1-1.088-.89H34.84L34.583,63h-.872V51.6h1.216v2.769q0,.93-.059,1.67h.059A2.886,2.886,0,0,1,37.447,54.841Zm-.176,1.018a2.123,2.123,0,0,0-1.794.714,4.028,4.028,0,0,0-.549,2.406,4.017,4.017,0,0,0,.564,2.421,2.145,2.145,0,0,0,1.809.729,1.875,1.875,0,0,0,1.67-.817,4.2,4.2,0,0,0,.549-2.347,4.034,4.034,0,0,0-.549-2.336A1.947,1.947,0,0,0,37.271,55.859ZM43.67,63H42.454V54.973H43.67ZM42.351,52.8a.808.808,0,0,1,.205-.612.759.759,0,0,1,1.018,0,.793.793,0,0,1,.212.608.805.805,0,0,1-.212.612.744.744,0,0,1-1.018,0A.823.823,0,0,1,42.351,52.8Zm10.016,2.175v.769l-1.487.176a2.611,2.611,0,0,1,.527,1.6A2.373,2.373,0,0,1,50.6,59.4a3.25,3.25,0,0,1-2.212.7,3.683,3.683,0,0,1-.674-.059,1.2,1.2,0,0,0-.776,1.033.525.525,0,0,0,.271.487,1.98,1.98,0,0,0,.93.157h1.421a3.182,3.182,0,0,1,2,.549,1.909,1.909,0,0,1,.7,1.6A2.279,2.279,0,0,1,51.2,65.9a5.723,5.723,0,0,1-3.12.7,4.263,4.263,0,0,1-2.428-.586,1.892,1.892,0,0,1-.853-1.655,1.859,1.859,0,0,1,.469-1.267,2.387,2.387,0,0,1,1.318-.725,1.272,1.272,0,0,1-.516-.432,1.144,1.144,0,0,1-.209-.681,1.293,1.293,0,0,1,.234-.769,2.464,2.464,0,0,1,.74-.637,2.168,2.168,0,0,1-1.014-.872,2.561,2.561,0,0,1-.392-1.406,2.6,2.6,0,0,1,.791-2.032,3.23,3.23,0,0,1,2.241-.714,4.075,4.075,0,0,1,1.135.146Zm-6.4,9.375a1.09,1.09,0,0,0,.549.989,3.032,3.032,0,0,0,1.575.337,4.394,4.394,0,0,0,2.267-.458,1.4,1.4,0,0,0,.736-1.241.982.982,0,0,0-.4-.9,3.129,3.129,0,0,0-1.516-.253H47.717a1.92,1.92,0,0,0-1.289.4A1.413,1.413,0,0,0,45.966,64.348Zm.659-6.8a1.634,1.634,0,0,0,.476,1.274,1.9,1.9,0,0,0,1.326.432,1.551,1.551,0,0,0,1.78-1.729,1.6,1.6,0,0,0-1.8-1.809,1.784,1.784,0,0,0-1.318.461A1.858,1.858,0,0,0,46.625,57.543ZM58.228,63H57.012V54.973h1.216ZM56.909,52.8a.808.808,0,0,1,.205-.612.759.759,0,0,1,1.018,0,.793.793,0,0,1,.212.608.805.805,0,0,1-.212.612.744.744,0,0,1-1.018,0A.823.823,0,0,1,56.909,52.8ZM65.849,63V57.807a2.1,2.1,0,0,0-.447-1.465,1.82,1.82,0,0,0-1.4-.483,2.307,2.307,0,0,0-1.846.681,3.439,3.439,0,0,0-.586,2.249V63H60.356V54.973h.989l.2,1.1H61.6a2.483,2.483,0,0,1,1.047-.919,3.4,3.4,0,0,1,1.5-.326,3.049,3.049,0,0,1,2.183.7,2.977,2.977,0,0,1,.732,2.238V63Zm5.021,0-3.047-8.027h1.3l1.729,4.761a22.533,22.533,0,0,1,.688,2.168H71.6a16.375,16.375,0,0,1,.509-1.608q.428-1.219,1.923-5.321h1.3L72.291,63Zm8.7.146a3.688,3.688,0,0,1-2.809-1.084,4.2,4.2,0,0,1-1.029-3.01,4.654,4.654,0,0,1,.956-3.083,3.175,3.175,0,0,1,2.567-1.143,3.027,3.027,0,0,1,2.388.992,3.8,3.8,0,0,1,.879,2.618v.769H76.99a3.182,3.182,0,0,0,.714,2.146,2.47,2.47,0,0,0,1.908.732,6.466,6.466,0,0,0,2.563-.542v1.084a6.434,6.434,0,0,1-1.219.4A6.853,6.853,0,0,1,79.568,63.146Zm-.33-7.3a1.985,1.985,0,0,0-1.542.63,2.9,2.9,0,0,0-.677,1.743h4.2a2.673,2.673,0,0,0-.513-1.761A1.8,1.8,0,0,0,79.239,55.844ZM89.321,60.81a2.011,2.011,0,0,1-.835,1.729,3.925,3.925,0,0,1-2.344.608,5.1,5.1,0,0,1-2.49-.505V61.513a6.022,6.022,0,0,0,1.241.461,5.184,5.184,0,0,0,1.278.168,2.9,2.9,0,0,0,1.465-.3,1.046,1.046,0,0,0,.106-1.729,6.394,6.394,0,0,0-1.586-.787,8.6,8.6,0,0,1-1.593-.729,2.176,2.176,0,0,1-.7-.707,1.843,1.843,0,0,1-.231-.945,1.8,1.8,0,0,1,.8-1.549,3.72,3.72,0,0,1,2.19-.568,6.408,6.408,0,0,1,2.534.527l-.432.989a5.817,5.817,0,0,0-2.19-.5,2.52,2.52,0,0,0-1.3.271.838.838,0,0,0-.439.747.91.91,0,0,0,.165.549,1.626,1.626,0,0,0,.531.432,11.867,11.867,0,0,0,1.406.593,5.254,5.254,0,0,1,1.93,1.047A1.847,1.847,0,0,1,89.321,60.81Zm4.12,1.333a3.972,3.972,0,0,0,.623-.048,4.03,4.03,0,0,0,.476-.1v.93a2.223,2.223,0,0,1-.582.157,4.373,4.373,0,0,1-.692.062q-2.329,0-2.329-2.454V55.917h-1.15v-.586l1.15-.505.513-1.714h.7v1.86h2.329v.945H92.152v4.724a1.625,1.625,0,0,0,.344,1.113A1.2,1.2,0,0,0,93.441,62.143ZM105.926,63V57.778a2.168,2.168,0,0,0-.41-1.439,1.586,1.586,0,0,0-1.274-.48,2.058,2.058,0,0,0-1.677.652,3.1,3.1,0,0,0-.542,2.007V63h-1.216V57.778a2.168,2.168,0,0,0-.41-1.439,1.6,1.6,0,0,0-1.282-.48,1.985,1.985,0,0,0-1.674.685,3.706,3.706,0,0,0-.531,2.245V63H95.694V54.973h.989l.2,1.1h.059a2.39,2.39,0,0,1,.97-.916,2.965,2.965,0,0,1,1.4-.33,2.385,2.385,0,0,1,2.461,1.362h.059a2.56,2.56,0,0,1,1.04-1,3.227,3.227,0,0,1,1.553-.366,2.718,2.718,0,0,1,2.04.7,3.129,3.129,0,0,1,.677,2.238V63Zm6.662.146a3.688,3.688,0,0,1-2.809-1.084,4.2,4.2,0,0,1-1.029-3.01,4.654,4.654,0,0,1,.956-3.083,3.175,3.175,0,0,1,2.567-1.143,3.027,3.027,0,0,1,2.388.992,3.8,3.8,0,0,1,.879,2.618v.769h-5.53a3.182,3.182,0,0,0,.714,2.146,2.47,2.47,0,0,0,1.908.732,6.466,6.466,0,0,0,2.563-.542v1.084a6.434,6.434,0,0,1-1.219.4A6.853,6.853,0,0,1,112.588,63.146Zm-.33-7.3a1.985,1.985,0,0,0-1.542.63,2.9,2.9,0,0,0-.677,1.743h4.2a2.673,2.673,0,0,0-.513-1.761A1.8,1.8,0,0,0,112.258,55.844ZM122.655,63V57.807a2.1,2.1,0,0,0-.447-1.465,1.82,1.82,0,0,0-1.4-.483,2.307,2.307,0,0,0-1.846.681,3.439,3.439,0,0,0-.586,2.249V63h-1.216V54.973h.989l.2,1.1h.059a2.483,2.483,0,0,1,1.047-.919,3.4,3.4,0,0,1,1.5-.326,3.049,3.049,0,0,1,2.183.7,2.977,2.977,0,0,1,.732,2.238V63Zm5.856-.857a3.972,3.972,0,0,0,.623-.048,4.03,4.03,0,0,0,.476-.1v.93a2.223,2.223,0,0,1-.582.157,4.373,4.373,0,0,1-.692.062q-2.329,0-2.329-2.454V55.917h-1.15v-.586l1.15-.505.513-1.714h.7v1.86h2.329v.945h-2.329v4.724a1.625,1.625,0,0,0,.344,1.113A1.2,1.2,0,0,0,128.511,62.143ZM4.951,75.826a4.757,4.757,0,0,1,.959.088l-.168,1.128a4.142,4.142,0,0,0-.879-.11,2.139,2.139,0,0,0-1.666.791,2.884,2.884,0,0,0-.692,1.97V84H1.289V75.973h1l.139,1.487H2.49a3.529,3.529,0,0,1,1.077-1.208A2.424,2.424,0,0,1,4.951,75.826Zm5.4,8.32a3.688,3.688,0,0,1-2.809-1.084,4.2,4.2,0,0,1-1.029-3.01,4.654,4.654,0,0,1,.956-3.083,3.175,3.175,0,0,1,2.567-1.143,3.027,3.027,0,0,1,2.388.992,3.8,3.8,0,0,1,.879,2.618v.769H7.775a3.182,3.182,0,0,0,.714,2.146,2.47,2.47,0,0,0,1.908.732,6.466,6.466,0,0,0,2.563-.542v1.084a6.434,6.434,0,0,1-1.219.4A6.853,6.853,0,0,1,10.353,84.146Zm-.33-7.3a1.985,1.985,0,0,0-1.542.63A2.9,2.9,0,0,0,7.8,79.217H12a2.673,2.673,0,0,0-.513-1.761A1.8,1.8,0,0,0,10.024,76.844Zm8.112,7.3a3.426,3.426,0,0,1-2.7-1.073,4.412,4.412,0,0,1-.956-3.036,4.55,4.55,0,0,1,.97-3.113,3.494,3.494,0,0,1,2.765-1.1,5.487,5.487,0,0,1,1.157.125,3.812,3.812,0,0,1,.908.293l-.374,1.033a5.717,5.717,0,0,0-.879-.267,3.924,3.924,0,0,0-.842-.106q-2.446,0-2.446,3.12a3.715,3.715,0,0,0,.6,2.271,2.077,2.077,0,0,0,1.769.791,5.408,5.408,0,0,0,2.058-.432v1.077A4.386,4.386,0,0,1,18.136,84.146Zm10.412-4.167a4.428,4.428,0,0,1-.989,3.065,3.482,3.482,0,0,1-2.732,1.1,3.618,3.618,0,0,1-1.912-.505,3.335,3.335,0,0,1-1.289-1.45,5.054,5.054,0,0,1-.454-2.212,4.421,4.421,0,0,1,.981-3.058,3.471,3.471,0,0,1,2.725-1.095,3.4,3.4,0,0,1,2.677,1.121A4.409,4.409,0,0,1,28.547,79.979Zm-6.116,0a3.81,3.81,0,0,0,.615,2.344,2.136,2.136,0,0,0,1.809.806,2.15,2.15,0,0,0,1.813-.8,3.791,3.791,0,0,0,.619-2.347,3.73,3.73,0,0,0-.619-2.325,2.175,2.175,0,0,0-1.827-.795,2.14,2.14,0,0,0-1.8.784A3.772,3.772,0,0,0,22.432,79.979ZM40.461,84V78.778a2.168,2.168,0,0,0-.41-1.439,1.586,1.586,0,0,0-1.274-.48,2.058,2.058,0,0,0-1.677.652,3.1,3.1,0,0,0-.542,2.007V84H35.341V78.778a2.168,2.168,0,0,0-.41-1.439,1.6,1.6,0,0,0-1.282-.48,1.985,1.985,0,0,0-1.674.685,3.706,3.706,0,0,0-.531,2.245V84H30.229V75.973h.989l.2,1.1h.059a2.39,2.39,0,0,1,.97-.916,2.965,2.965,0,0,1,1.4-.33,2.385,2.385,0,0,1,2.461,1.362h.059a2.56,2.56,0,0,1,1.04-1,3.227,3.227,0,0,1,1.553-.366,2.718,2.718,0,0,1,2.04.7,3.129,3.129,0,0,1,.677,2.238V84Zm13.5,0V78.778a2.168,2.168,0,0,0-.41-1.439,1.586,1.586,0,0,0-1.274-.48,2.058,2.058,0,0,0-1.677.652,3.1,3.1,0,0,0-.542,2.007V84H48.844V78.778a2.168,2.168,0,0,0-.41-1.439,1.6,1.6,0,0,0-1.282-.48,1.985,1.985,0,0,0-1.674.685,3.706,3.706,0,0,0-.531,2.245V84H43.731V75.973h.989l.2,1.1h.059a2.39,2.39,0,0,1,.97-.916,2.965,2.965,0,0,1,1.4-.33,2.385,2.385,0,0,1,2.461,1.362h.059a2.56,2.56,0,0,1,1.04-1,3.227,3.227,0,0,1,1.553-.366,2.718,2.718,0,0,1,2.04.7,3.129,3.129,0,0,1,.677,2.238V84Zm6.662.146a3.688,3.688,0,0,1-2.809-1.084,4.2,4.2,0,0,1-1.029-3.01,4.654,4.654,0,0,1,.956-3.083,3.175,3.175,0,0,1,2.567-1.143,3.027,3.027,0,0,1,2.388.992,3.8,3.8,0,0,1,.879,2.618v.769h-5.53a3.182,3.182,0,0,0,.714,2.146,2.47,2.47,0,0,0,1.908.732,6.466,6.466,0,0,0,2.563-.542v1.084a6.434,6.434,0,0,1-1.219.4A6.853,6.853,0,0,1,60.625,84.146Zm-.33-7.3a1.985,1.985,0,0,0-1.542.63,2.9,2.9,0,0,0-.677,1.743h4.2a2.673,2.673,0,0,0-.513-1.761A1.8,1.8,0,0,0,60.3,76.844ZM70.693,84V78.807a2.1,2.1,0,0,0-.447-1.465,1.82,1.82,0,0,0-1.4-.483A2.307,2.307,0,0,0,67,77.54a3.439,3.439,0,0,0-.586,2.249V84H65.2V75.973h.989l.2,1.1h.059a2.483,2.483,0,0,1,1.047-.919,3.4,3.4,0,0,1,1.5-.326,3.049,3.049,0,0,1,2.183.7,2.977,2.977,0,0,1,.732,2.238V84Zm8.727-1.077h-.066a2.857,2.857,0,0,1-2.52,1.223,2.981,2.981,0,0,1-2.45-1.077,4.739,4.739,0,0,1-.875-3.062,4.819,4.819,0,0,1,.879-3.083,2.958,2.958,0,0,1,2.446-1.1,2.919,2.919,0,0,1,2.5,1.187h.1l-.051-.579-.029-.564V72.6H80.57V84h-.989Zm-2.432.205a2.214,2.214,0,0,0,1.805-.677,3.423,3.423,0,0,0,.56-2.186v-.256a4.028,4.028,0,0,0-.568-2.435,2.156,2.156,0,0,0-1.813-.729,1.861,1.861,0,0,0-1.637.831,4.134,4.134,0,0,0-.568,2.347,3.963,3.963,0,0,0,.564,2.322A1.91,1.91,0,0,0,76.988,83.128ZM87.635,84l-.242-1.143h-.059a3.378,3.378,0,0,1-1.2,1.022,3.65,3.65,0,0,1-1.49.267,2.681,2.681,0,0,1-1.871-.615,2.244,2.244,0,0,1-.677-1.75q0-2.432,3.889-2.549l1.362-.044v-.5a2.035,2.035,0,0,0-.406-1.4,1.672,1.672,0,0,0-1.3-.45,5.3,5.3,0,0,0-2.271.615L83,76.529a5.713,5.713,0,0,1,1.3-.505,5.631,5.631,0,0,1,1.417-.183,3.058,3.058,0,0,1,2.128.637,2.66,2.66,0,0,1,.692,2.043V84Zm-2.747-.857a2.468,2.468,0,0,0,1.783-.623,2.3,2.3,0,0,0,.648-1.743v-.725L86.1,80.1a4.422,4.422,0,0,0-2.091.45,1.358,1.358,0,0,0-.641,1.241,1.253,1.253,0,0,0,.4,1A1.657,1.657,0,0,0,84.888,83.143Zm8.3,0a3.972,3.972,0,0,0,.623-.048,4.03,4.03,0,0,0,.476-.1v.93a2.223,2.223,0,0,1-.582.157,4.373,4.373,0,0,1-.692.062q-2.329,0-2.329-2.454V76.917h-1.15v-.586l1.15-.505.513-1.714h.7v1.86h2.329v.945H91.894v4.724a1.625,1.625,0,0,0,.344,1.113A1.2,1.2,0,0,0,93.183,83.143ZM96.652,84H95.436V75.973h1.216ZM95.333,73.8a.808.808,0,0,1,.205-.612.759.759,0,0,1,1.018,0,.793.793,0,0,1,.212.608.805.805,0,0,1-.212.612.744.744,0,0,1-1.018,0A.823.823,0,0,1,95.333,73.8Zm10.375,6.182a4.428,4.428,0,0,1-.989,3.065,3.482,3.482,0,0,1-2.732,1.1,3.618,3.618,0,0,1-1.912-.505,3.335,3.335,0,0,1-1.289-1.45,5.054,5.054,0,0,1-.454-2.212,4.421,4.421,0,0,1,.981-3.058,3.471,3.471,0,0,1,2.725-1.095,3.4,3.4,0,0,1,2.677,1.121A4.409,4.409,0,0,1,105.708,79.979Zm-6.116,0a3.81,3.81,0,0,0,.615,2.344,2.442,2.442,0,0,0,3.622,0,3.791,3.791,0,0,0,.619-2.347,3.73,3.73,0,0,0-.619-2.325A2.175,2.175,0,0,0,102,76.859a2.14,2.14,0,0,0-1.8.784A3.772,3.772,0,0,0,99.593,79.979ZM112.883,84V78.807a2.1,2.1,0,0,0-.447-1.465,1.82,1.82,0,0,0-1.4-.483,2.307,2.307,0,0,0-1.846.681,3.439,3.439,0,0,0-.586,2.249V84H107.39V75.973h.989l.2,1.1h.059a2.483,2.483,0,0,1,1.047-.919,3.4,3.4,0,0,1,1.5-.326,3.049,3.049,0,0,1,2.183.7,2.977,2.977,0,0,1,.732,2.238V84ZM4.68,105.146a3.688,3.688,0,0,1-2.809-1.084,4.2,4.2,0,0,1-1.029-3.01A4.654,4.654,0,0,1,1.8,97.969a3.175,3.175,0,0,1,2.567-1.143,3.027,3.027,0,0,1,2.388.992,3.8,3.8,0,0,1,.879,2.618v.769H2.1a3.182,3.182,0,0,0,.714,2.146,2.47,2.47,0,0,0,1.908.732,6.466,6.466,0,0,0,2.563-.542v1.084a6.434,6.434,0,0,1-1.219.4A6.853,6.853,0,0,1,4.68,105.146Zm-.33-7.3a1.985,1.985,0,0,0-1.542.63,2.9,2.9,0,0,0-.677,1.743h4.2a2.673,2.673,0,0,0-.513-1.761A1.8,1.8,0,0,0,4.351,97.844ZM14.748,105V99.807a2.1,2.1,0,0,0-.447-1.465,1.82,1.82,0,0,0-1.4-.483,2.307,2.307,0,0,0-1.846.681,3.439,3.439,0,0,0-.586,2.249V105H9.255V96.973h.989l.2,1.1H10.5a2.483,2.483,0,0,1,1.047-.919,3.4,3.4,0,0,1,1.5-.326,3.049,3.049,0,0,1,2.183.7,2.977,2.977,0,0,1,.732,2.238V105Zm9.833-8.027v.769l-1.487.176a2.611,2.611,0,0,1,.527,1.6,2.373,2.373,0,0,1-.806,1.882,3.25,3.25,0,0,1-2.212.7,3.683,3.683,0,0,1-.674-.059,1.2,1.2,0,0,0-.776,1.033.525.525,0,0,0,.271.487,1.98,1.98,0,0,0,.93.157h1.421a3.182,3.182,0,0,1,2,.549,1.909,1.909,0,0,1,.7,1.6,2.279,2.279,0,0,1-1.069,2.032,5.723,5.723,0,0,1-3.12.7,4.263,4.263,0,0,1-2.428-.586,1.892,1.892,0,0,1-.853-1.655,1.859,1.859,0,0,1,.469-1.267,2.387,2.387,0,0,1,1.318-.725,1.272,1.272,0,0,1-.516-.432,1.144,1.144,0,0,1-.209-.681,1.293,1.293,0,0,1,.234-.769,2.464,2.464,0,0,1,.74-.637,2.168,2.168,0,0,1-1.014-.872,2.561,2.561,0,0,1-.392-1.406,2.6,2.6,0,0,1,.791-2.032,3.23,3.23,0,0,1,2.241-.714,4.075,4.075,0,0,1,1.135.146Zm-6.4,9.375a1.09,1.09,0,0,0,.549.989,3.032,3.032,0,0,0,1.575.337,4.394,4.394,0,0,0,2.267-.458,1.4,1.4,0,0,0,.736-1.241.982.982,0,0,0-.4-.9,3.129,3.129,0,0,0-1.516-.253H19.93a1.92,1.92,0,0,0-1.289.4A1.413,1.413,0,0,0,18.18,106.348Zm.659-6.8a1.634,1.634,0,0,0,.476,1.274,1.9,1.9,0,0,0,1.326.432,1.551,1.551,0,0,0,1.78-1.729,1.6,1.6,0,0,0-1.8-1.809,1.784,1.784,0,0,0-1.318.461A1.858,1.858,0,0,0,18.839,99.543ZM26.995,105H25.779V96.973h1.216ZM25.676,94.8a.808.808,0,0,1,.205-.612.759.759,0,0,1,1.018,0,.793.793,0,0,1,.212.608.805.805,0,0,1-.212.612.744.744,0,0,1-1.018,0A.823.823,0,0,1,25.676,94.8Zm8.94,10.2V99.807a2.1,2.1,0,0,0-.447-1.465,1.82,1.82,0,0,0-1.4-.483,2.307,2.307,0,0,0-1.846.681,3.439,3.439,0,0,0-.586,2.249V105H29.123V96.973h.989l.2,1.1h.059a2.483,2.483,0,0,1,1.047-.919,3.4,3.4,0,0,1,1.5-.326,3.049,3.049,0,0,1,2.183.7,2.977,2.977,0,0,1,.732,2.238V105Zm6.654.146a3.688,3.688,0,0,1-2.809-1.084,4.2,4.2,0,0,1-1.029-3.01,4.654,4.654,0,0,1,.956-3.083,3.175,3.175,0,0,1,2.567-1.143,3.027,3.027,0,0,1,2.388.992,3.8,3.8,0,0,1,.879,2.618v.769h-5.53a3.182,3.182,0,0,0,.714,2.146,2.47,2.47,0,0,0,1.908.732,6.466,6.466,0,0,0,2.563-.542v1.084a6.434,6.434,0,0,1-1.219.4A6.853,6.853,0,0,1,41.271,105.146Zm-.33-7.3a1.985,1.985,0,0,0-1.542.63,2.9,2.9,0,0,0-.677,1.743h4.2a2.673,2.673,0,0,0-.513-1.761A1.8,1.8,0,0,0,40.941,97.844Zm10.082,4.966a2.011,2.011,0,0,1-.835,1.729,3.925,3.925,0,0,1-2.344.608,5.1,5.1,0,0,1-2.49-.505v-1.128a6.022,6.022,0,0,0,1.241.461,5.184,5.184,0,0,0,1.278.168,2.9,2.9,0,0,0,1.465-.3,1.046,1.046,0,0,0,.106-1.729,6.394,6.394,0,0,0-1.586-.787,8.6,8.6,0,0,1-1.593-.729,2.176,2.176,0,0,1-.7-.707,1.843,1.843,0,0,1-.231-.945,1.8,1.8,0,0,1,.8-1.549,3.72,3.72,0,0,1,2.19-.568,6.408,6.408,0,0,1,2.534.527l-.432.989a5.817,5.817,0,0,0-2.19-.5,2.52,2.52,0,0,0-1.3.271.838.838,0,0,0-.439.747.91.91,0,0,0,.165.549,1.626,1.626,0,0,0,.531.432,11.867,11.867,0,0,0,1.406.593,5.254,5.254,0,0,1,1.93,1.047A1.847,1.847,0,0,1,51.023,102.81Zm7.567,1.333a3.972,3.972,0,0,0,.623-.048,4.03,4.03,0,0,0,.476-.1v.93a2.223,2.223,0,0,1-.582.157,4.373,4.373,0,0,1-.692.062q-2.329,0-2.329-2.454V97.917h-1.15v-.586l1.15-.505.513-1.714h.7v1.86H59.63v.945H57.3v4.724a1.625,1.625,0,0,0,.344,1.113A1.2,1.2,0,0,0,58.59,104.143ZM64.5,96.826a4.757,4.757,0,0,1,.959.088L65.3,98.042a4.142,4.142,0,0,0-.879-.11,2.139,2.139,0,0,0-1.666.791,2.884,2.884,0,0,0-.692,1.97V105H60.843V96.973h1l.139,1.487h.059a3.529,3.529,0,0,1,1.077-1.208A2.424,2.424,0,0,1,64.5,96.826Zm.737.146h1.3L68.3,101.55a17.412,17.412,0,0,1,.718,2.263h.059q.1-.374.4-1.278t1.989-5.563h1.3l-3.45,9.141a4.56,4.56,0,0,1-1.2,1.923,2.547,2.547,0,0,1-1.681.568,4.891,4.891,0,0,1-1.1-.125V107.5a4.238,4.238,0,0,0,.9.088,1.857,1.857,0,0,0,1.787-1.406l.447-1.143Zm14.422,7.17a3.972,3.972,0,0,0,.623-.048,4.03,4.03,0,0,0,.476-.1v.93a2.223,2.223,0,0,1-.582.157,4.373,4.373,0,0,1-.692.062q-2.329,0-2.329-2.454V97.917h-1.15v-.586l1.15-.505.513-1.714h.7v1.86H80.7v.945H78.374v4.724a1.625,1.625,0,0,0,.344,1.113A1.2,1.2,0,0,0,79.663,104.143Zm9.181-3.164a4.428,4.428,0,0,1-.989,3.065,3.482,3.482,0,0,1-2.732,1.1,3.618,3.618,0,0,1-1.912-.505,3.335,3.335,0,0,1-1.289-1.45,5.054,5.054,0,0,1-.454-2.212,4.421,4.421,0,0,1,.981-3.058,3.471,3.471,0,0,1,2.725-1.095,3.4,3.4,0,0,1,2.677,1.121A4.409,4.409,0,0,1,88.845,100.979Zm-6.116,0a3.81,3.81,0,0,0,.615,2.344,2.442,2.442,0,0,0,3.622,0,3.791,3.791,0,0,0,.619-2.347,3.73,3.73,0,0,0-.619-2.325,2.175,2.175,0,0,0-1.827-.795,2.14,2.14,0,0,0-1.8.784A3.772,3.772,0,0,0,82.729,100.979ZM104.2,105V99.778a2.168,2.168,0,0,0-.41-1.439,1.586,1.586,0,0,0-1.274-.48,2.058,2.058,0,0,0-1.677.652,3.1,3.1,0,0,0-.542,2.007V105H99.085V99.778a2.168,2.168,0,0,0-.41-1.439,1.6,1.6,0,0,0-1.282-.48,1.985,1.985,0,0,0-1.674.685,3.706,3.706,0,0,0-.531,2.245V105H93.973V96.973h.989l.2,1.1h.059a2.39,2.39,0,0,1,.97-.916,2.965,2.965,0,0,1,1.4-.33,2.385,2.385,0,0,1,2.461,1.362h.059a2.56,2.56,0,0,1,1.04-1,3.227,3.227,0,0,1,1.553-.366,2.718,2.718,0,0,1,2.04.7,3.129,3.129,0,0,1,.677,2.238V105Zm10.2-4.021a4.428,4.428,0,0,1-.989,3.065,3.482,3.482,0,0,1-2.732,1.1,3.618,3.618,0,0,1-1.912-.505,3.335,3.335,0,0,1-1.289-1.45,5.054,5.054,0,0,1-.454-2.212,4.421,4.421,0,0,1,.981-3.058,3.471,3.471,0,0,1,2.725-1.095,3.4,3.4,0,0,1,2.677,1.121A4.409,4.409,0,0,1,114.4,100.979Zm-6.116,0a3.81,3.81,0,0,0,.615,2.344,2.442,2.442,0,0,0,3.622,0,3.791,3.791,0,0,0,.619-2.347,3.73,3.73,0,0,0-.619-2.325,2.175,2.175,0,0,0-1.827-.795,2.14,2.14,0,0,0-1.8.784A3.772,3.772,0,0,0,108.288,100.979Zm13.261,2.944h-.066a2.857,2.857,0,0,1-2.52,1.223,2.981,2.981,0,0,1-2.45-1.077,4.739,4.739,0,0,1-.875-3.062,4.819,4.819,0,0,1,.879-3.083,2.958,2.958,0,0,1,2.446-1.1,2.919,2.919,0,0,1,2.5,1.187h.1l-.051-.579-.029-.564V93.6H122.7V105h-.989Zm-2.432.205a2.214,2.214,0,0,0,1.805-.677,3.423,3.423,0,0,0,.56-2.186v-.256a4.028,4.028,0,0,0-.568-2.435,2.156,2.156,0,0,0-1.813-.729,1.861,1.861,0,0,0-1.637.831,4.134,4.134,0,0,0-.568,2.347,3.963,3.963,0,0,0,.564,2.322A1.91,1.91,0,0,0,119.118,104.128Zm9.1,1.018a3.688,3.688,0,0,1-2.809-1.084,4.2,4.2,0,0,1-1.029-3.01,4.654,4.654,0,0,1,.956-3.083,3.175,3.175,0,0,1,2.567-1.143,3.027,3.027,0,0,1,2.388.992,3.8,3.8,0,0,1,.879,2.618v.769h-5.53a3.182,3.182,0,0,0,.714,2.146,2.47,2.47,0,0,0,1.908.732,6.466,6.466,0,0,0,2.563-.542v1.084a6.434,6.434,0,0,1-1.219.4A6.853,6.853,0,0,1,128.218,105.146Zm-.33-7.3a1.985,1.985,0,0,0-1.542.63,2.9,2.9,0,0,0-.677,1.743h4.2a2.673,2.673,0,0,0-.513-1.761A1.8,1.8,0,0,0,127.889,97.844Zm6.12,7.156h-1.216V93.6h1.216ZM.015,117.973h1.3l1.758,4.578a17.412,17.412,0,0,1,.718,2.263h.059q.1-.374.4-1.278t1.989-5.563h1.3l-3.45,9.141a4.56,4.56,0,0,1-1.2,1.923,2.547,2.547,0,0,1-1.681.568,4.891,4.891,0,0,1-1.1-.125V128.5a4.238,4.238,0,0,0,.9.088,1.857,1.857,0,0,0,1.787-1.406l.447-1.143Zm15.312,4.006a4.428,4.428,0,0,1-.989,3.065,3.482,3.482,0,0,1-2.732,1.1,3.618,3.618,0,0,1-1.912-.505,3.335,3.335,0,0,1-1.289-1.45,5.054,5.054,0,0,1-.454-2.212,4.421,4.421,0,0,1,.981-3.058,3.471,3.471,0,0,1,2.725-1.095,3.4,3.4,0,0,1,2.677,1.121A4.409,4.409,0,0,1,15.326,121.979Zm-6.116,0a3.81,3.81,0,0,0,.615,2.344,2.136,2.136,0,0,0,1.809.806,2.15,2.15,0,0,0,1.813-.8,3.791,3.791,0,0,0,.619-2.347,3.73,3.73,0,0,0-.619-2.325,2.175,2.175,0,0,0-1.827-.795,2.14,2.14,0,0,0-1.8.784A3.772,3.772,0,0,0,9.211,121.979Zm8.94-4.006v5.208a2.1,2.1,0,0,0,.447,1.465,1.82,1.82,0,0,0,1.4.483,2.282,2.282,0,0,0,1.842-.688,3.473,3.473,0,0,0,.582-2.249v-4.219h1.216V126h-1l-.176-1.077h-.066a2.423,2.423,0,0,1-1.036.908,3.483,3.483,0,0,1-1.512.315,3.069,3.069,0,0,1-2.194-.7,2.962,2.962,0,0,1-.729-2.227v-5.251Zm11.276-.146a4.757,4.757,0,0,1,.959.088l-.168,1.128a4.142,4.142,0,0,0-.879-.11,2.139,2.139,0,0,0-1.666.791,2.884,2.884,0,0,0-.692,1.97V126H25.764v-8.027h1l.139,1.487h.059a3.529,3.529,0,0,1,1.077-1.208A2.424,2.424,0,0,1,29.426,117.826Zm9.076,1.091H36.458V126H35.243v-7.083H33.807v-.549l1.436-.439v-.447q0-2.959,2.585-2.959a5.32,5.32,0,0,1,1.494.256l-.315.974a4.022,4.022,0,0,0-1.2-.227,1.17,1.17,0,0,0-1.018.458,2.555,2.555,0,0,0-.33,1.469v.52H38.5Zm4.677-1.091a4.757,4.757,0,0,1,.959.088l-.168,1.128a4.142,4.142,0,0,0-.879-.11,2.139,2.139,0,0,0-1.666.791,2.884,2.884,0,0,0-.692,1.97V126H39.517v-8.027h1l.139,1.487h.059a3.529,3.529,0,0,1,1.077-1.208A2.424,2.424,0,0,1,43.179,117.826ZM46.406,126H45.19v-8.027h1.216Zm-1.318-10.2a.808.808,0,0,1,.205-.612.759.759,0,0,1,1.018,0,.793.793,0,0,1,.212.608.805.805,0,0,1-.212.612.744.744,0,0,1-1.018,0A.823.823,0,0,1,45.087,115.8Zm6.838,10.349a3.688,3.688,0,0,1-2.809-1.084,4.2,4.2,0,0,1-1.029-3.01,4.654,4.654,0,0,1,.956-3.083,3.175,3.175,0,0,1,2.567-1.143,3.027,3.027,0,0,1,2.388.992,3.8,3.8,0,0,1,.879,2.618v.769h-5.53a3.182,3.182,0,0,0,.714,2.146,2.47,2.47,0,0,0,1.908.732,6.466,6.466,0,0,0,2.563-.542v1.084a6.434,6.434,0,0,1-1.219.4A6.853,6.853,0,0,1,51.925,126.146Zm-.33-7.3a1.985,1.985,0,0,0-1.542.63,2.9,2.9,0,0,0-.677,1.743h4.2a2.673,2.673,0,0,0-.513-1.761A1.8,1.8,0,0,0,51.6,118.844ZM61.992,126v-5.193a2.1,2.1,0,0,0-.447-1.465,1.82,1.82,0,0,0-1.4-.483,2.307,2.307,0,0,0-1.846.681,3.439,3.439,0,0,0-.586,2.249V126H56.5v-8.027h.989l.2,1.1h.059a2.483,2.483,0,0,1,1.047-.919,3.4,3.4,0,0,1,1.5-.326,3.049,3.049,0,0,1,2.183.7,2.977,2.977,0,0,1,.732,2.238V126Zm8.727-1.077h-.066a2.857,2.857,0,0,1-2.52,1.223,2.981,2.981,0,0,1-2.45-1.077,4.739,4.739,0,0,1-.875-3.062,4.819,4.819,0,0,1,.879-3.083,2.958,2.958,0,0,1,2.446-1.1,2.919,2.919,0,0,1,2.5,1.187h.1l-.051-.579-.029-.564V114.6H71.87V126h-.989Zm-2.432.205a2.214,2.214,0,0,0,1.805-.677,3.423,3.423,0,0,0,.56-2.186v-.256a4.028,4.028,0,0,0-.568-2.435,2.156,2.156,0,0,0-1.813-.729,1.861,1.861,0,0,0-1.637.831,4.133,4.133,0,0,0-.568,2.347,3.963,3.963,0,0,0,.564,2.322A1.91,1.91,0,0,0,68.288,125.128Zm10.888-1.318a2.011,2.011,0,0,1-.835,1.729,3.925,3.925,0,0,1-2.344.608,5.1,5.1,0,0,1-2.49-.505v-1.128a6.022,6.022,0,0,0,1.241.461,5.184,5.184,0,0,0,1.278.168,2.9,2.9,0,0,0,1.465-.3,1.046,1.046,0,0,0,.106-1.729,6.394,6.394,0,0,0-1.586-.787,8.6,8.6,0,0,1-1.593-.729,2.176,2.176,0,0,1-.7-.707,1.843,1.843,0,0,1-.231-.945,1.8,1.8,0,0,1,.8-1.549,3.72,3.72,0,0,1,2.19-.568,6.408,6.408,0,0,1,2.534.527l-.432.989a5.817,5.817,0,0,0-2.19-.5,2.52,2.52,0,0,0-1.3.271.838.838,0,0,0-.439.747.91.91,0,0,0,.165.549,1.626,1.626,0,0,0,.531.432,11.867,11.867,0,0,0,1.406.593,5.254,5.254,0,0,1,1.93,1.047A1.847,1.847,0,0,1,79.176,123.81Zm7.567,1.333a3.972,3.972,0,0,0,.623-.048,4.03,4.03,0,0,0,.476-.1v.93a2.223,2.223,0,0,1-.582.157,4.373,4.373,0,0,1-.692.062q-2.329,0-2.329-2.454v-4.775h-1.15v-.586l1.15-.505.513-1.714h.7v1.86h2.329v.945H85.454v4.724a1.625,1.625,0,0,0,.344,1.113A1.2,1.2,0,0,0,86.743,125.143Zm9.181-3.164a4.428,4.428,0,0,1-.989,3.065,3.482,3.482,0,0,1-2.732,1.1,3.618,3.618,0,0,1-1.912-.505A3.335,3.335,0,0,1,89,124.191a5.054,5.054,0,0,1-.454-2.212,4.421,4.421,0,0,1,.981-3.058,3.471,3.471,0,0,1,2.725-1.095,3.4,3.4,0,0,1,2.677,1.121A4.409,4.409,0,0,1,95.924,121.979Zm-6.116,0a3.81,3.81,0,0,0,.615,2.344,2.442,2.442,0,0,0,3.622,0,3.791,3.791,0,0,0,.619-2.347,3.73,3.73,0,0,0-.619-2.325,2.175,2.175,0,0,0-1.827-.795,2.14,2.14,0,0,0-1.8.784A3.772,3.772,0,0,0,89.808,121.979Zm16.422,1.831a2.011,2.011,0,0,1-.835,1.729,3.925,3.925,0,0,1-2.344.608,5.1,5.1,0,0,1-2.49-.505v-1.128a6.022,6.022,0,0,0,1.241.461,5.184,5.184,0,0,0,1.278.168,2.9,2.9,0,0,0,1.465-.3,1.046,1.046,0,0,0,.106-1.729,6.394,6.394,0,0,0-1.586-.787,8.6,8.6,0,0,1-1.593-.729,2.176,2.176,0,0,1-.7-.707,1.843,1.843,0,0,1-.231-.945,1.8,1.8,0,0,1,.8-1.549,3.72,3.72,0,0,1,2.19-.568,6.408,6.408,0,0,1,2.534.527l-.432.989a5.817,5.817,0,0,0-2.19-.5,2.52,2.52,0,0,0-1.3.271.838.838,0,0,0-.439.747.91.91,0,0,0,.165.549,1.626,1.626,0,0,0,.531.432,11.867,11.867,0,0,0,1.406.593,5.254,5.254,0,0,1,1.93,1.047A1.847,1.847,0,0,1,106.23,123.81Zm2.67-5.837v5.208a2.1,2.1,0,0,0,.447,1.465,1.82,1.82,0,0,0,1.4.483,2.282,2.282,0,0,0,1.842-.688,3.473,3.473,0,0,0,.582-2.249v-4.219h1.216V126h-1l-.176-1.077h-.066a2.423,2.423,0,0,1-1.036.908,3.483,3.483,0,0,1-1.512.315,3.069,3.069,0,0,1-2.194-.7,2.962,2.962,0,0,1-.729-2.227v-5.251Zm14.184,0v.769l-1.487.176a2.611,2.611,0,0,1,.527,1.6,2.373,2.373,0,0,1-.806,1.882,3.25,3.25,0,0,1-2.212.7,3.683,3.683,0,0,1-.674-.059,1.2,1.2,0,0,0-.776,1.033.525.525,0,0,0,.271.487,1.98,1.98,0,0,0,.93.157h1.421a3.182,3.182,0,0,1,2,.549,1.909,1.909,0,0,1,.7,1.6,2.279,2.279,0,0,1-1.069,2.032,5.723,5.723,0,0,1-3.12.7,4.263,4.263,0,0,1-2.428-.586,1.892,1.892,0,0,1-.853-1.655,1.859,1.859,0,0,1,.469-1.267,2.387,2.387,0,0,1,1.318-.725,1.272,1.272,0,0,1-.516-.432,1.144,1.144,0,0,1-.209-.681,1.293,1.293,0,0,1,.234-.769,2.464,2.464,0,0,1,.74-.637,2.168,2.168,0,0,1-1.014-.872,2.561,2.561,0,0,1-.392-1.406,2.6,2.6,0,0,1,.791-2.032,3.23,3.23,0,0,1,2.241-.714,4.075,4.075,0,0,1,1.135.146Zm-6.4,9.375a1.09,1.09,0,0,0,.549.989,3.032,3.032,0,0,0,1.575.337,4.394,4.394,0,0,0,2.267-.458,1.4,1.4,0,0,0,.736-1.241.982.982,0,0,0-.4-.9,3.129,3.129,0,0,0-1.516-.253h-1.458a1.92,1.92,0,0,0-1.289.4A1.413,1.413,0,0,0,116.683,127.348Zm.659-6.8a1.634,1.634,0,0,0,.476,1.274,1.9,1.9,0,0,0,1.326.432,1.551,1.551,0,0,0,1.78-1.729,1.6,1.6,0,0,0-1.8-1.809,1.784,1.784,0,0,0-1.318.461A1.858,1.858,0,0,0,117.342,120.543Zm13.51-2.571v.769l-1.487.176a2.611,2.611,0,0,1,.527,1.6,2.373,2.373,0,0,1-.806,1.882,3.25,3.25,0,0,1-2.212.7,3.683,3.683,0,0,1-.674-.059,1.2,1.2,0,0,0-.776,1.033.525.525,0,0,0,.271.487,1.98,1.98,0,0,0,.93.157h1.421a3.182,3.182,0,0,1,2,.549,1.909,1.909,0,0,1,.7,1.6,2.279,2.279,0,0,1-1.069,2.032,5.723,5.723,0,0,1-3.12.7,4.263,4.263,0,0,1-2.428-.586,1.892,1.892,0,0,1-.853-1.655,1.859,1.859,0,0,1,.469-1.267,2.387,2.387,0,0,1,1.318-.725,1.272,1.272,0,0,1-.516-.432,1.144,1.144,0,0,1-.209-.681,1.293,1.293,0,0,1,.234-.769,2.464,2.464,0,0,1,.74-.637,2.168,2.168,0,0,1-1.014-.872,2.561,2.561,0,0,1-.392-1.406,2.6,2.6,0,0,1,.791-2.032,3.23,3.23,0,0,1,2.241-.714,4.075,4.075,0,0,1,1.135.146Zm-6.4,9.375a1.09,1.09,0,0,0,.549.989,3.032,3.032,0,0,0,1.575.337,4.394,4.394,0,0,0,2.267-.458,1.4,1.4,0,0,0,.736-1.241.982.982,0,0,0-.4-.9,3.129,3.129,0,0,0-1.516-.253H126.2a1.92,1.92,0,0,0-1.289.4A1.413,1.413,0,0,0,124.451,127.348Zm.659-6.8a1.634,1.634,0,0,0,.476,1.274,1.9,1.9,0,0,0,1.326.432,1.551,1.551,0,0,0,1.78-1.729,1.6,1.6,0,0,0-1.8-1.809,1.784,1.784,0,0,0-1.318.461A1.858,1.858,0,0,0,125.11,120.543Zm10.331,5.6a3.688,3.688,0,0,1-2.809-1.084,4.2,4.2,0,0,1-1.029-3.01,4.654,4.654,0,0,1,.956-3.083,3.175,3.175,0,0,1,2.567-1.143,3.027,3.027,0,0,1,2.388.992,3.8,3.8,0,0,1,.879,2.618v.769h-5.53a3.182,3.182,0,0,0,.714,2.146,2.47,2.47,0,0,0,1.908.732,6.466,6.466,0,0,0,2.563-.542v1.084a6.434,6.434,0,0,1-1.219.4A6.853,6.853,0,0,1,135.441,126.146Zm-.33-7.3a1.985,1.985,0,0,0-1.542.63,2.9,2.9,0,0,0-.677,1.743h4.2a2.673,2.673,0,0,0-.513-1.761A1.8,1.8,0,0,0,135.111,118.844Zm10.082,4.966a2.011,2.011,0,0,1-.835,1.729,3.925,3.925,0,0,1-2.344.608,5.1,5.1,0,0,1-2.49-.505v-1.128a6.022,6.022,0,0,0,1.241.461,5.184,5.184,0,0,0,1.278.168,2.9,2.9,0,0,0,1.465-.3,1.046,1.046,0,0,0,.106-1.729,6.394,6.394,0,0,0-1.586-.787,8.6,8.6,0,0,1-1.593-.729,2.176,2.176,0,0,1-.7-.707,1.843,1.843,0,0,1-.231-.945,1.8,1.8,0,0,1,.8-1.549,3.72,3.72,0,0,1,2.19-.568,6.408,6.408,0,0,1,2.534.527l-.432.989a5.817,5.817,0,0,0-2.19-.5,2.52,2.52,0,0,0-1.3.271.838.838,0,0,0-.439.747.91.91,0,0,0,.165.549,1.626,1.626,0,0,0,.531.432,11.867,11.867,0,0,0,1.406.593,5.254,5.254,0,0,1,1.93,1.047A1.847,1.847,0,0,1,145.194,123.81Zm4.12,1.333a3.972,3.972,0,0,0,.623-.048,4.03,4.03,0,0,0,.476-.1v.93a2.223,2.223,0,0,1-.582.157,4.373,4.373,0,0,1-.692.062q-2.329,0-2.329-2.454v-4.775h-1.15v-.586l1.15-.505.513-1.714h.7v1.86h2.329v.945h-2.329v4.724a1.625,1.625,0,0,0,.344,1.113A1.2,1.2,0,0,0,149.314,125.143ZM6.226,147l-.242-1.143H5.925a3.378,3.378,0,0,1-1.2,1.022,3.65,3.65,0,0,1-1.49.267,2.681,2.681,0,0,1-1.871-.615,2.244,2.244,0,0,1-.677-1.75q0-2.432,3.889-2.549l1.362-.044v-.5a2.035,2.035,0,0,0-.406-1.4,1.672,1.672,0,0,0-1.3-.45,5.3,5.3,0,0,0-2.271.615l-.374-.93a5.713,5.713,0,0,1,1.3-.505,5.631,5.631,0,0,1,1.417-.183,3.058,3.058,0,0,1,2.128.637,2.66,2.66,0,0,1,.692,2.043V147Zm-2.747-.857a2.468,2.468,0,0,0,1.783-.623,2.3,2.3,0,0,0,.648-1.743v-.725l-1.216.051a4.422,4.422,0,0,0-2.091.45,1.358,1.358,0,0,0-.641,1.241,1.253,1.253,0,0,0,.4,1A1.657,1.657,0,0,0,3.479,146.143Zm11.166-.22h-.066a2.857,2.857,0,0,1-2.52,1.223,2.981,2.981,0,0,1-2.45-1.077,4.739,4.739,0,0,1-.875-3.062,4.819,4.819,0,0,1,.879-3.083,2.958,2.958,0,0,1,2.446-1.1,2.919,2.919,0,0,1,2.5,1.187h.1l-.051-.579-.029-.564V135.6H15.8V147h-.989Zm-2.432.205a2.214,2.214,0,0,0,1.805-.677,3.423,3.423,0,0,0,.56-2.186v-.256a4.028,4.028,0,0,0-.568-2.435,2.156,2.156,0,0,0-1.813-.729,1.861,1.861,0,0,0-1.637.831,4.134,4.134,0,0,0-.568,2.347,3.963,3.963,0,0,0,.564,2.322A1.91,1.91,0,0,0,12.214,146.128Zm7.467.872-3.047-8.027h1.3l1.729,4.761a22.533,22.533,0,0,1,.688,2.168h.059a16.375,16.375,0,0,1,.509-1.608q.428-1.219,1.923-5.321h1.3L21.1,147Zm6.523,0H24.988v-8.027H26.2Zm-1.318-10.2a.808.808,0,0,1,.205-.612.759.759,0,0,1,1.018,0,.793.793,0,0,1,.212.608.805.805,0,0,1-.212.612.744.744,0,0,1-1.018,0A.823.823,0,0,1,24.885,136.8Zm6.654,10.349a3.426,3.426,0,0,1-2.7-1.073,4.412,4.412,0,0,1-.956-3.036,4.55,4.55,0,0,1,.97-3.113,3.494,3.494,0,0,1,2.765-1.1,5.487,5.487,0,0,1,1.157.125,3.812,3.812,0,0,1,.908.293l-.374,1.033a5.717,5.717,0,0,0-.879-.267,3.924,3.924,0,0,0-.842-.106q-2.446,0-2.446,3.12a3.715,3.715,0,0,0,.6,2.271,2.077,2.077,0,0,0,1.769.791,5.408,5.408,0,0,0,2.058-.432v1.077A4.386,4.386,0,0,1,31.54,147.146Zm6.874,0a3.688,3.688,0,0,1-2.809-1.084,4.2,4.2,0,0,1-1.029-3.01,4.654,4.654,0,0,1,.956-3.083,3.175,3.175,0,0,1,2.567-1.143,3.027,3.027,0,0,1,2.388.992,3.8,3.8,0,0,1,.879,2.618v.769h-5.53a3.182,3.182,0,0,0,.714,2.146,2.47,2.47,0,0,0,1.908.732,6.466,6.466,0,0,0,2.563-.542v1.084a6.434,6.434,0,0,1-1.219.4A6.853,6.853,0,0,1,38.414,147.146Zm-.33-7.3a1.985,1.985,0,0,0-1.542.63,2.9,2.9,0,0,0-.677,1.743h4.2a2.673,2.673,0,0,0-.513-1.761A1.8,1.8,0,0,0,38.084,139.844Zm12.086,7.3a3.474,3.474,0,0,1-1.432-.289,2.693,2.693,0,0,1-1.088-.89h-.088a10.767,10.767,0,0,1,.088,1.333v3.3H46.435V138.973h.989l.168,1.1h.059a2.824,2.824,0,0,1,1.091-.952,3.317,3.317,0,0,1,1.428-.293,2.967,2.967,0,0,1,2.465,1.091,5.811,5.811,0,0,1-.015,6.134A2.972,2.972,0,0,1,50.17,147.146Zm-.176-7.288a2.155,2.155,0,0,0-1.78.681,3.505,3.505,0,0,0-.564,2.168v.271a4.017,4.017,0,0,0,.564,2.421,2.145,2.145,0,0,0,1.809.729,1.881,1.881,0,0,0,1.63-.842,3.994,3.994,0,0,0,.59-2.322,3.844,3.844,0,0,0-.59-2.3A1.939,1.939,0,0,0,49.995,139.859Zm8.573,7.288a3.688,3.688,0,0,1-2.809-1.084,4.2,4.2,0,0,1-1.029-3.01,4.654,4.654,0,0,1,.956-3.083,3.175,3.175,0,0,1,2.567-1.143,3.027,3.027,0,0,1,2.388.992,3.8,3.8,0,0,1,.879,2.618v.769H55.99a3.182,3.182,0,0,0,.714,2.146,2.47,2.47,0,0,0,1.908.732,6.466,6.466,0,0,0,2.563-.542v1.084a6.434,6.434,0,0,1-1.219.4A6.853,6.853,0,0,1,58.568,147.146Zm-.33-7.3a1.985,1.985,0,0,0-1.542.63,2.9,2.9,0,0,0-.677,1.743h4.2a2.673,2.673,0,0,0-.513-1.761A1.8,1.8,0,0,0,58.238,139.844Zm8.566-1.018a4.757,4.757,0,0,1,.959.088l-.168,1.128a4.142,4.142,0,0,0-.879-.11,2.139,2.139,0,0,0-1.666.791,2.884,2.884,0,0,0-.692,1.97V147H63.142v-8.027h1l.139,1.487h.059a3.529,3.529,0,0,1,1.077-1.208A2.424,2.424,0,0,1,66.8,138.826Zm7.189,5.984a2.011,2.011,0,0,1-.835,1.729,3.925,3.925,0,0,1-2.344.608,5.1,5.1,0,0,1-2.49-.505v-1.128a6.022,6.022,0,0,0,1.241.461,5.184,5.184,0,0,0,1.278.168,2.9,2.9,0,0,0,1.465-.3,1.046,1.046,0,0,0,.106-1.729,6.394,6.394,0,0,0-1.586-.787,8.6,8.6,0,0,1-1.593-.729,2.176,2.176,0,0,1-.7-.707,1.843,1.843,0,0,1-.231-.945,1.8,1.8,0,0,1,.8-1.549,3.72,3.72,0,0,1,2.19-.568,6.408,6.408,0,0,1,2.534.527l-.432.989a5.817,5.817,0,0,0-2.19-.5,2.52,2.52,0,0,0-1.3.271.838.838,0,0,0-.439.747.91.91,0,0,0,.165.549,1.626,1.626,0,0,0,.531.432,11.867,11.867,0,0,0,1.406.593,5.254,5.254,0,0,1,1.93,1.047A1.847,1.847,0,0,1,73.994,144.81Zm8.456-1.831a4.428,4.428,0,0,1-.989,3.065,3.482,3.482,0,0,1-2.732,1.1,3.618,3.618,0,0,1-1.912-.505,3.335,3.335,0,0,1-1.289-1.45,5.054,5.054,0,0,1-.454-2.212,4.421,4.421,0,0,1,.981-3.058,3.471,3.471,0,0,1,2.725-1.095,3.4,3.4,0,0,1,2.677,1.121A4.409,4.409,0,0,1,82.45,142.979Zm-6.116,0a3.81,3.81,0,0,0,.615,2.344,2.442,2.442,0,0,0,3.622,0,3.791,3.791,0,0,0,.619-2.347,3.73,3.73,0,0,0-.619-2.325,2.175,2.175,0,0,0-1.827-.795,2.14,2.14,0,0,0-1.8.784A3.772,3.772,0,0,0,76.334,142.979ZM89.624,147v-5.193a2.1,2.1,0,0,0-.447-1.465,1.82,1.82,0,0,0-1.4-.483,2.307,2.307,0,0,0-1.846.681,3.439,3.439,0,0,0-.586,2.249V147H84.131v-8.027h.989l.2,1.1h.059a2.483,2.483,0,0,1,1.047-.919,3.4,3.4,0,0,1,1.5-.326,3.049,3.049,0,0,1,2.183.7,2.977,2.977,0,0,1,.732,2.238V147Zm8.2,0-.242-1.143h-.059a3.378,3.378,0,0,1-1.2,1.022,3.65,3.65,0,0,1-1.49.267,2.681,2.681,0,0,1-1.871-.615,2.244,2.244,0,0,1-.677-1.75q0-2.432,3.889-2.549l1.362-.044v-.5a2.035,2.035,0,0,0-.406-1.4,1.672,1.672,0,0,0-1.3-.45,5.3,5.3,0,0,0-2.271.615l-.374-.93a5.713,5.713,0,0,1,1.3-.505,5.631,5.631,0,0,1,1.417-.183,3.058,3.058,0,0,1,2.128.637,2.66,2.66,0,0,1,.692,2.043V147Zm-2.747-.857a2.468,2.468,0,0,0,1.783-.623,2.3,2.3,0,0,0,.648-1.743v-.725l-1.216.051a4.422,4.422,0,0,0-2.091.45,1.358,1.358,0,0,0-.641,1.241,1.253,1.253,0,0,0,.4,1A1.657,1.657,0,0,0,95.078,146.143ZM102,147H100.78V135.6H102Zm3.344,0h-1.216v-8.027h1.216Zm-1.318-10.2a.808.808,0,0,1,.205-.612.759.759,0,0,1,1.018,0,.793.793,0,0,1,.212.608.805.805,0,0,1-.212.612.744.744,0,0,1-1.018,0A.823.823,0,0,1,104.021,136.8Zm8.625,8.013a2.011,2.011,0,0,1-.835,1.729,3.925,3.925,0,0,1-2.344.608,5.1,5.1,0,0,1-2.49-.505v-1.128a6.022,6.022,0,0,0,1.241.461,5.184,5.184,0,0,0,1.278.168,2.9,2.9,0,0,0,1.465-.3,1.046,1.046,0,0,0,.106-1.729,6.394,6.394,0,0,0-1.586-.787,8.6,8.6,0,0,1-1.593-.729,2.176,2.176,0,0,1-.7-.707,1.843,1.843,0,0,1-.231-.945,1.8,1.8,0,0,1,.8-1.549,3.72,3.72,0,0,1,2.19-.568,6.408,6.408,0,0,1,2.534.527l-.432.989a5.817,5.817,0,0,0-2.19-.5,2.52,2.52,0,0,0-1.3.271.838.838,0,0,0-.439.747.91.91,0,0,0,.165.549,1.626,1.626,0,0,0,.531.432,11.867,11.867,0,0,0,1.406.593,5.254,5.254,0,0,1,1.93,1.047A1.847,1.847,0,0,1,112.646,144.81Zm4.919,2.336a3.688,3.688,0,0,1-2.809-1.084,4.2,4.2,0,0,1-1.029-3.01,4.654,4.654,0,0,1,.956-3.083,3.175,3.175,0,0,1,2.567-1.143,3.027,3.027,0,0,1,2.388.992,3.8,3.8,0,0,1,.879,2.618v.769h-5.53a3.182,3.182,0,0,0,.714,2.146,2.47,2.47,0,0,0,1.908.732,6.466,6.466,0,0,0,2.563-.542v1.084a6.434,6.434,0,0,1-1.219.4A6.853,6.853,0,0,1,117.565,147.146Zm-.33-7.3a1.985,1.985,0,0,0-1.542.63,2.9,2.9,0,0,0-.677,1.743h4.2a2.673,2.673,0,0,0-.513-1.761A1.8,1.8,0,0,0,117.235,139.844Zm10.368,6.079h-.066a2.857,2.857,0,0,1-2.52,1.223,2.981,2.981,0,0,1-2.45-1.077,4.739,4.739,0,0,1-.875-3.062,4.819,4.819,0,0,1,.879-3.083,2.958,2.958,0,0,1,2.446-1.1,2.919,2.919,0,0,1,2.5,1.187h.1l-.051-.579-.029-.564V135.6h1.216V147h-.989Zm-2.432.205a2.214,2.214,0,0,0,1.805-.677,3.423,3.423,0,0,0,.56-2.186v-.256a4.028,4.028,0,0,0-.568-2.435,2.156,2.156,0,0,0-1.813-.729,1.861,1.861,0,0,0-1.637.831,4.134,4.134,0,0,0-.568,2.347,3.963,3.963,0,0,0,.564,2.322A1.91,1.91,0,0,0,125.172,146.128Zm11.749.015a3.972,3.972,0,0,0,.623-.048,4.03,4.03,0,0,0,.476-.1v.93a2.223,2.223,0,0,1-.582.157,4.373,4.373,0,0,1-.692.062q-2.329,0-2.329-2.454v-4.775h-1.15v-.586l1.15-.505.513-1.714h.7v1.86h2.329v.945h-2.329v4.724a1.625,1.625,0,0,0,.344,1.113A1.2,1.2,0,0,0,136.92,146.143Zm9.181-3.164a4.428,4.428,0,0,1-.989,3.065,3.482,3.482,0,0,1-2.732,1.1,3.618,3.618,0,0,1-1.912-.505,3.335,3.335,0,0,1-1.289-1.45,5.054,5.054,0,0,1-.454-2.212,4.421,4.421,0,0,1,.981-3.058,3.471,3.471,0,0,1,2.725-1.095,3.4,3.4,0,0,1,2.677,1.121A4.409,4.409,0,0,1,146.1,142.979Zm-6.116,0a3.81,3.81,0,0,0,.615,2.344,2.442,2.442,0,0,0,3.622,0,3.791,3.791,0,0,0,.619-2.347,3.73,3.73,0,0,0-.619-2.325,2.175,2.175,0,0,0-1.827-.795,2.14,2.14,0,0,0-1.8.784A3.772,3.772,0,0,0,139.986,142.979ZM.015,159.973h1.3l1.758,4.578a17.412,17.412,0,0,1,.718,2.263h.059q.1-.374.4-1.278t1.989-5.563h1.3l-3.45,9.141a4.56,4.56,0,0,1-1.2,1.923,2.547,2.547,0,0,1-1.681.568,4.891,4.891,0,0,1-1.1-.125V170.5a4.238,4.238,0,0,0,.9.088,1.857,1.857,0,0,0,1.787-1.406l.447-1.143Zm15.312,4.006a4.428,4.428,0,0,1-.989,3.065,3.482,3.482,0,0,1-2.732,1.1,3.618,3.618,0,0,1-1.912-.505,3.335,3.335,0,0,1-1.289-1.45,5.054,5.054,0,0,1-.454-2.212,4.421,4.421,0,0,1,.981-3.058,3.471,3.471,0,0,1,2.725-1.095,3.4,3.4,0,0,1,2.677,1.121A4.409,4.409,0,0,1,15.326,163.979Zm-6.116,0a3.81,3.81,0,0,0,.615,2.344,2.136,2.136,0,0,0,1.809.806,2.15,2.15,0,0,0,1.813-.8,3.791,3.791,0,0,0,.619-2.347,3.73,3.73,0,0,0-.619-2.325,2.175,2.175,0,0,0-1.827-.795,2.14,2.14,0,0,0-1.8.784A3.772,3.772,0,0,0,9.211,163.979Zm8.94-4.006v5.208a2.1,2.1,0,0,0,.447,1.465,1.82,1.82,0,0,0,1.4.483,2.282,2.282,0,0,0,1.842-.688,3.473,3.473,0,0,0,.582-2.249v-4.219h1.216V168h-1l-.176-1.077h-.066a2.423,2.423,0,0,1-1.036.908,3.483,3.483,0,0,1-1.512.315,3.069,3.069,0,0,1-2.194-.7,2.962,2.962,0,0,1-.729-2.227v-5.251Zm14.8-.132a2.984,2.984,0,0,1,2.457,1.08,5.784,5.784,0,0,1-.007,6.13,2.972,2.972,0,0,1-2.45,1.095,3.474,3.474,0,0,1-1.432-.289,2.693,2.693,0,0,1-1.088-.89h-.088L30.082,168h-.872V156.6h1.216v2.769q0,.93-.059,1.67h.059A2.886,2.886,0,0,1,32.946,159.841Zm-.176,1.018a2.123,2.123,0,0,0-1.794.714,5.51,5.51,0,0,0,.015,4.827,2.145,2.145,0,0,0,1.809.729,1.875,1.875,0,0,0,1.67-.817,4.2,4.2,0,0,0,.549-2.347,4.034,4.034,0,0,0-.549-2.336A1.947,1.947,0,0,0,32.77,160.859ZM42.889,168l-.242-1.143h-.059a3.378,3.378,0,0,1-1.2,1.022,3.65,3.65,0,0,1-1.49.267,2.681,2.681,0,0,1-1.871-.615,2.244,2.244,0,0,1-.677-1.75q0-2.432,3.889-2.549l1.362-.044v-.5a2.035,2.035,0,0,0-.406-1.4,1.672,1.672,0,0,0-1.3-.45,5.3,5.3,0,0,0-2.271.615l-.374-.93a5.713,5.713,0,0,1,1.3-.505,5.631,5.631,0,0,1,1.417-.183,3.058,3.058,0,0,1,2.128.637,2.66,2.66,0,0,1,.692,2.043V168Zm-2.747-.857a2.468,2.468,0,0,0,1.783-.623,2.3,2.3,0,0,0,.648-1.743v-.725l-1.216.051a4.422,4.422,0,0,0-2.091.45,1.358,1.358,0,0,0-.641,1.241,1.253,1.253,0,0,0,.4,1A1.657,1.657,0,0,0,40.143,167.143Zm10.881-1.333a2.011,2.011,0,0,1-.835,1.729,3.925,3.925,0,0,1-2.344.608,5.1,5.1,0,0,1-2.49-.505v-1.128a6.022,6.022,0,0,0,1.241.461,5.184,5.184,0,0,0,1.278.168,2.9,2.9,0,0,0,1.465-.3,1.046,1.046,0,0,0,.106-1.729,6.394,6.394,0,0,0-1.586-.787,8.6,8.6,0,0,1-1.593-.729,2.176,2.176,0,0,1-.7-.707,1.843,1.843,0,0,1-.231-.945,1.8,1.8,0,0,1,.8-1.549,3.72,3.72,0,0,1,2.19-.568,6.408,6.408,0,0,1,2.534.527l-.432.989a5.817,5.817,0,0,0-2.19-.5,2.52,2.52,0,0,0-1.3.271.838.838,0,0,0-.439.747.91.91,0,0,0,.165.549,1.626,1.626,0,0,0,.531.432,11.867,11.867,0,0,0,1.406.593,5.254,5.254,0,0,1,1.93,1.047A1.847,1.847,0,0,1,51.023,165.81Zm4.919,2.336a3.688,3.688,0,0,1-2.809-1.084,4.2,4.2,0,0,1-1.029-3.01,4.654,4.654,0,0,1,.956-3.083,3.175,3.175,0,0,1,2.567-1.143,3.027,3.027,0,0,1,2.388.992,3.8,3.8,0,0,1,.879,2.618v.769h-5.53a3.182,3.182,0,0,0,.714,2.146,2.47,2.47,0,0,0,1.908.732,6.466,6.466,0,0,0,2.563-.542v1.084a6.434,6.434,0,0,1-1.219.4A6.853,6.853,0,0,1,55.942,168.146Zm-.33-7.3a1.985,1.985,0,0,0-1.542.63,2.9,2.9,0,0,0-.677,1.743h4.2a2.673,2.673,0,0,0-.513-1.761A1.8,1.8,0,0,0,55.612,160.844Zm10.368,6.079h-.066a2.857,2.857,0,0,1-2.52,1.223,2.981,2.981,0,0,1-2.45-1.077,4.739,4.739,0,0,1-.875-3.062,4.819,4.819,0,0,1,.879-3.083,2.958,2.958,0,0,1,2.446-1.1,2.919,2.919,0,0,1,2.5,1.187h.1l-.051-.579-.029-.564V156.6H67.13V168h-.989Zm-2.432.205a2.214,2.214,0,0,0,1.805-.677,3.423,3.423,0,0,0,.56-2.186v-.256a4.028,4.028,0,0,0-.568-2.435,2.156,2.156,0,0,0-1.813-.729,1.861,1.861,0,0,0-1.637.831,4.134,4.134,0,0,0-.568,2.347,3.963,3.963,0,0,0,.564,2.322A1.91,1.91,0,0,0,63.548,167.128Zm16.085-3.149a4.428,4.428,0,0,1-.989,3.065,3.482,3.482,0,0,1-2.732,1.1A3.618,3.618,0,0,1,74,167.641a3.335,3.335,0,0,1-1.289-1.45,5.054,5.054,0,0,1-.454-2.212,4.421,4.421,0,0,1,.981-3.058,3.471,3.471,0,0,1,2.725-1.095,3.4,3.4,0,0,1,2.677,1.121A4.409,4.409,0,0,1,79.633,163.979Zm-6.116,0a3.81,3.81,0,0,0,.615,2.344,2.442,2.442,0,0,0,3.622,0,3.791,3.791,0,0,0,.619-2.347,3.73,3.73,0,0,0-.619-2.325,2.175,2.175,0,0,0-1.827-.795,2.14,2.14,0,0,0-1.8.784A3.772,3.772,0,0,0,73.518,163.979ZM86.808,168v-5.193a2.1,2.1,0,0,0-.447-1.465,1.82,1.82,0,0,0-1.4-.483,2.307,2.307,0,0,0-1.846.681,3.439,3.439,0,0,0-.586,2.249V168H81.315v-8.027H82.3l.2,1.1h.059a2.483,2.483,0,0,1,1.047-.919,3.4,3.4,0,0,1,1.5-.326,3.049,3.049,0,0,1,2.183.7,2.977,2.977,0,0,1,.732,2.238V168Zm5.435-8.027h1.3L95.3,164.55a17.412,17.412,0,0,1,.718,2.263h.059q.1-.374.4-1.278t1.989-5.563h1.3l-3.45,9.141a4.56,4.56,0,0,1-1.2,1.923,2.547,2.547,0,0,1-1.681.568,4.891,4.891,0,0,1-1.1-.125V170.5a4.238,4.238,0,0,0,.9.088,1.857,1.857,0,0,0,1.787-1.406l.447-1.143Zm15.312,4.006a4.428,4.428,0,0,1-.989,3.065,3.482,3.482,0,0,1-2.732,1.1,3.618,3.618,0,0,1-1.912-.505,3.335,3.335,0,0,1-1.289-1.45,5.054,5.054,0,0,1-.454-2.212,4.421,4.421,0,0,1,.981-3.058,3.471,3.471,0,0,1,2.725-1.095,3.4,3.4,0,0,1,2.677,1.121A4.409,4.409,0,0,1,107.555,163.979Zm-6.116,0a3.81,3.81,0,0,0,.615,2.344,2.442,2.442,0,0,0,3.622,0,3.791,3.791,0,0,0,.619-2.347,3.73,3.73,0,0,0-.619-2.325,2.175,2.175,0,0,0-1.827-.795,2.14,2.14,0,0,0-1.8.784A3.772,3.772,0,0,0,101.439,163.979Zm8.94-4.006v5.208a2.1,2.1,0,0,0,.447,1.465,1.82,1.82,0,0,0,1.4.483,2.282,2.282,0,0,0,1.842-.688,3.473,3.473,0,0,0,.582-2.249v-4.219h1.216V168h-1l-.176-1.077h-.066a2.423,2.423,0,0,1-1.036.908,3.483,3.483,0,0,1-1.512.315,3.069,3.069,0,0,1-2.194-.7,2.962,2.962,0,0,1-.729-2.227v-5.251Zm11.276-.146a4.757,4.757,0,0,1,.959.088l-.168,1.128a4.142,4.142,0,0,0-.879-.11,2.139,2.139,0,0,0-1.666.791,2.884,2.884,0,0,0-.692,1.97V168h-1.216v-8.027h1l.139,1.487h.059a3.529,3.529,0,0,1,1.077-1.208A2.424,2.424,0,0,1,121.655,159.826ZM5.024,189.146a3.474,3.474,0,0,1-1.432-.289,2.693,2.693,0,0,1-1.088-.89H2.417A10.767,10.767,0,0,1,2.5,189.3v3.3H1.289V180.973h.989l.168,1.1H2.5a2.824,2.824,0,0,1,1.091-.952,3.317,3.317,0,0,1,1.428-.293,2.967,2.967,0,0,1,2.465,1.091,5.811,5.811,0,0,1-.015,6.134A2.972,2.972,0,0,1,5.024,189.146Zm-.176-7.288a2.155,2.155,0,0,0-1.78.681,3.505,3.505,0,0,0-.564,2.168v.271a4.017,4.017,0,0,0,.564,2.421,2.145,2.145,0,0,0,1.809.729,1.881,1.881,0,0,0,1.63-.842,3.994,3.994,0,0,0,.59-2.322,3.844,3.844,0,0,0-.59-2.3A1.939,1.939,0,0,0,4.849,181.859Zm8.844-1.033a4.757,4.757,0,0,1,.959.088l-.168,1.128a4.142,4.142,0,0,0-.879-.11,2.139,2.139,0,0,0-1.666.791,2.884,2.884,0,0,0-.692,1.97V189H10.031v-8.027h1l.139,1.487h.059a3.529,3.529,0,0,1,1.077-1.208A2.424,2.424,0,0,1,13.693,180.826Zm5.4,8.32a3.688,3.688,0,0,1-2.809-1.084,4.2,4.2,0,0,1-1.029-3.01,4.654,4.654,0,0,1,.956-3.083,3.175,3.175,0,0,1,2.567-1.143,3.027,3.027,0,0,1,2.388.992,3.8,3.8,0,0,1,.879,2.618v.769h-5.53a3.182,3.182,0,0,0,.714,2.146,2.47,2.47,0,0,0,1.908.732,6.466,6.466,0,0,0,2.563-.542v1.084a6.434,6.434,0,0,1-1.219.4A6.853,6.853,0,0,1,19.1,189.146Zm-.33-7.3a1.985,1.985,0,0,0-1.542.63,2.9,2.9,0,0,0-.677,1.743h4.2a2.673,2.673,0,0,0-.513-1.761A1.8,1.8,0,0,0,18.766,181.844ZM25.427,189l-3.047-8.027h1.3l1.729,4.761A22.533,22.533,0,0,1,26.1,187.9h.059a16.375,16.375,0,0,1,.509-1.608q.428-1.219,1.923-5.321h1.3L26.848,189Zm6.523,0H30.734v-8.027H31.95Zm-1.318-10.2a.808.808,0,0,1,.205-.612.759.759,0,0,1,1.018,0,.793.793,0,0,1,.212.608.805.805,0,0,1-.212.612.744.744,0,0,1-1.018,0A.823.823,0,0,1,30.632,178.8Zm10.375,6.182a4.428,4.428,0,0,1-.989,3.065,3.482,3.482,0,0,1-2.732,1.1,3.618,3.618,0,0,1-1.912-.505,3.335,3.335,0,0,1-1.289-1.45,5.054,5.054,0,0,1-.454-2.212,4.421,4.421,0,0,1,.981-3.058,3.471,3.471,0,0,1,2.725-1.095,3.4,3.4,0,0,1,2.677,1.121A4.409,4.409,0,0,1,41.007,184.979Zm-6.116,0a3.81,3.81,0,0,0,.615,2.344,2.442,2.442,0,0,0,3.622,0,3.791,3.791,0,0,0,.619-2.347,3.73,3.73,0,0,0-.619-2.325,2.175,2.175,0,0,0-1.827-.795,2.14,2.14,0,0,0-1.8.784A3.772,3.772,0,0,0,34.891,184.979Zm8.94-4.006v5.208a2.1,2.1,0,0,0,.447,1.465,1.82,1.82,0,0,0,1.4.483,2.282,2.282,0,0,0,1.842-.688,3.473,3.473,0,0,0,.582-2.249v-4.219h1.216V189h-1l-.176-1.077h-.066a2.423,2.423,0,0,1-1.036.908,3.483,3.483,0,0,1-1.512.315,3.069,3.069,0,0,1-2.194-.7,2.962,2.962,0,0,1-.729-2.227v-5.251Zm12.792,5.837a2.011,2.011,0,0,1-.835,1.729,3.925,3.925,0,0,1-2.344.608,5.1,5.1,0,0,1-2.49-.505v-1.128a6.022,6.022,0,0,0,1.241.461,5.184,5.184,0,0,0,1.278.168,2.9,2.9,0,0,0,1.465-.3,1.046,1.046,0,0,0,.106-1.729,6.394,6.394,0,0,0-1.586-.787,8.6,8.6,0,0,1-1.593-.729,2.176,2.176,0,0,1-.7-.707,1.843,1.843,0,0,1-.231-.945,1.8,1.8,0,0,1,.8-1.549,3.72,3.72,0,0,1,2.19-.568,6.408,6.408,0,0,1,2.534.527l-.432.989a5.817,5.817,0,0,0-2.19-.5,2.52,2.52,0,0,0-1.3.271.838.838,0,0,0-.439.747.91.91,0,0,0,.165.549,1.626,1.626,0,0,0,.531.432,11.867,11.867,0,0,0,1.406.593,5.254,5.254,0,0,1,1.93,1.047A1.847,1.847,0,0,1,56.623,186.81Z" transform="translate(513 1382)" fill="#707070"/>
    <path id="Path_10" data-name="Path 10" d="M10.2-8.965A3.747,3.747,0,0,1,8.886-5.88,5.808,5.808,0,0,1,5.133-4.808H3.8V0H1.7V-12.85H5.4A5.6,5.6,0,0,1,9-11.865,3.534,3.534,0,0,1,10.2-8.965ZM3.8-6.574H4.913a4,4,0,0,0,2.373-.562,2.047,2.047,0,0,0,.756-1.758,2,2,0,0,0-.677-1.652,3.343,3.343,0,0,0-2.109-.545H3.8ZM16.256.176A4.7,4.7,0,0,1,12.71-1.147,5.021,5.021,0,0,1,11.431-4.79a5.509,5.509,0,0,1,1.187-3.744A4.1,4.1,0,0,1,15.878-9.9a4.006,4.006,0,0,1,3.041,1.169,4.467,4.467,0,0,1,1.116,3.217v1.116H13.558a3.193,3.193,0,0,0,.765,2.175,2.663,2.663,0,0,0,2.03.76,7.5,7.5,0,0,0,1.6-.163,8.408,8.408,0,0,0,1.6-.541V-.483a6.342,6.342,0,0,1-1.529.51A9.378,9.378,0,0,1,16.256.176Zm-.378-8.508a2.075,2.075,0,0,0-1.578.624,2.974,2.974,0,0,0-.708,1.819H18a2.691,2.691,0,0,0-.58-1.824A1.984,1.984,0,0,0,15.878-8.332ZM26.773-9.9a4.972,4.972,0,0,1,1.028.088l-.2,1.925a3.9,3.9,0,0,0-.914-.105,2.645,2.645,0,0,0-2.008.809,2.923,2.923,0,0,0-.769,2.1V0H21.842V-9.721h1.617l.272,1.714h.105A3.851,3.851,0,0,1,25.1-9.387,3,3,0,0,1,26.773-9.9Zm8.82,7.128A2.543,2.543,0,0,1,34.556-.584a4.966,4.966,0,0,1-2.971.76,7.017,7.017,0,0,1-3.12-.589V-2.2a7.66,7.66,0,0,0,3.19.791q1.907,0,1.907-1.151a.912.912,0,0,0-.211-.615,2.5,2.5,0,0,0-.694-.51,11.949,11.949,0,0,0-1.345-.6,6.22,6.22,0,0,1-2.272-1.3,2.407,2.407,0,0,1-.593-1.687,2.216,2.216,0,0,1,1.006-1.938,4.776,4.776,0,0,1,2.738-.69,7.754,7.754,0,0,1,3.243.694l-.668,1.556a7.213,7.213,0,0,0-2.646-.65q-1.635,0-1.635.932a.937.937,0,0,0,.426.773,9.374,9.374,0,0,0,1.859.87,8.5,8.5,0,0,1,1.749.853,2.548,2.548,0,0,1,.809.892A2.582,2.582,0,0,1,35.593-2.769ZM45.907-4.878A5.306,5.306,0,0,1,44.686-1.16a4.377,4.377,0,0,1-3.4,1.336,4.66,4.66,0,0,1-2.408-.615,4.062,4.062,0,0,1-1.608-1.767,6.017,6.017,0,0,1-.562-2.672,5.27,5.27,0,0,1,1.213-3.691A4.4,4.4,0,0,1,41.337-9.9a4.282,4.282,0,0,1,3.34,1.358A5.245,5.245,0,0,1,45.907-4.878Zm-7.075,0q0,3.366,2.487,3.366,2.461,0,2.461-3.366,0-3.331-2.479-3.331a2.113,2.113,0,0,0-1.885.861A4.383,4.383,0,0,0,38.832-4.878ZM56.292,0H54.218V-5.977a2.616,2.616,0,0,0-.453-1.679,1.75,1.75,0,0,0-1.437-.554,2.285,2.285,0,0,0-1.916.773,4.27,4.27,0,0,0-.606,2.593V0H47.74V-9.721h1.617l.29,1.274h.105A2.876,2.876,0,0,1,51-9.519,4.182,4.182,0,0,1,52.794-9.9q3.5,0,3.5,3.56Zm8.416,0L64.3-1.354h-.07A3.982,3.982,0,0,1,62.81-.145a4.475,4.475,0,0,1-1.828.321A3.094,3.094,0,0,1,58.745-.6a2.894,2.894,0,0,1-.8-2.188,2.57,2.57,0,0,1,1.116-2.268,6.436,6.436,0,0,1,3.4-.835l1.679-.053V-6.46A1.965,1.965,0,0,0,63.7-7.853a1.774,1.774,0,0,0-1.349-.461,4.665,4.665,0,0,0-1.433.22,10.811,10.811,0,0,0-1.318.519l-.668-1.477a7.189,7.189,0,0,1,1.731-.628A7.968,7.968,0,0,1,62.441-9.9a4.2,4.2,0,0,1,2.8.809,3.166,3.166,0,0,1,.945,2.54V0ZM61.632-1.406a2.558,2.558,0,0,0,1.806-.628A2.278,2.278,0,0,0,64.119-3.8v-.844l-1.248.053a4.27,4.27,0,0,0-2.123.488,1.482,1.482,0,0,0-.664,1.332,1.3,1.3,0,0,0,.387,1.006A1.661,1.661,0,0,0,61.632-1.406ZM70.593,0H68.528V-13.676h2.065Zm4.479,0H73.006V-9.721h2.065ZM72.883-12.3a1.144,1.144,0,0,1,.3-.853,1.182,1.182,0,0,1,.866-.3,1.156,1.156,0,0,1,.848.3,1.144,1.144,0,0,1,.3.853,1.122,1.122,0,0,1-.3.831,1.147,1.147,0,0,1-.848.3,1.171,1.171,0,0,1-.866-.3A1.122,1.122,0,0,1,72.883-12.3ZM83.98,0H76.606V-1.274l4.913-6.864H76.9V-9.721h6.935v1.441l-4.808,6.7H83.98Zm7.651,0-.413-1.354h-.07A3.982,3.982,0,0,1,89.733-.145,4.475,4.475,0,0,1,87.9.176,3.094,3.094,0,0,1,85.668-.6a2.894,2.894,0,0,1-.8-2.188A2.57,2.57,0,0,1,85.98-5.054a6.436,6.436,0,0,1,3.4-.835l1.679-.053V-6.46a1.965,1.965,0,0,0-.435-1.393,1.774,1.774,0,0,0-1.349-.461,4.665,4.665,0,0,0-1.433.22,10.811,10.811,0,0,0-1.318.519l-.668-1.477a7.189,7.189,0,0,1,1.731-.628A7.968,7.968,0,0,1,89.364-9.9a4.2,4.2,0,0,1,2.8.809,3.166,3.166,0,0,1,.945,2.54V0ZM88.555-1.406a2.558,2.558,0,0,0,1.806-.628A2.278,2.278,0,0,0,91.042-3.8v-.844l-1.248.053a4.27,4.27,0,0,0-2.123.488,1.482,1.482,0,0,0-.664,1.332,1.3,1.3,0,0,0,.387,1.006A1.661,1.661,0,0,0,88.555-1.406Zm10.517-.088a5.023,5.023,0,0,0,1.512-.237V-.176a4.169,4.169,0,0,1-.883.25,6.086,6.086,0,0,1-1.121.1q-2.936,0-2.936-3.094V-8.156H94.317V-9.07l1.424-.756.7-2.057h1.274v2.162h2.769v1.564H97.718v5.2a1.46,1.46,0,0,0,.374,1.1A1.362,1.362,0,0,0,99.072-1.494ZM104.051,0h-2.065V-9.721h2.065Zm-2.188-12.3a1.144,1.144,0,0,1,.3-.853,1.182,1.182,0,0,1,.866-.3,1.156,1.156,0,0,1,.848.3,1.144,1.144,0,0,1,.3.853,1.122,1.122,0,0,1-.3.831,1.147,1.147,0,0,1-.848.3,1.171,1.171,0,0,1-.866-.3A1.122,1.122,0,0,1,101.863-12.3Zm13.224,7.418a5.306,5.306,0,0,1-1.222,3.718,4.377,4.377,0,0,1-3.4,1.336,4.66,4.66,0,0,1-2.408-.615,4.062,4.062,0,0,1-1.608-1.767,6.017,6.017,0,0,1-.562-2.672A5.27,5.27,0,0,1,107.1-8.569,4.4,4.4,0,0,1,110.516-9.9a4.282,4.282,0,0,1,3.34,1.358A5.245,5.245,0,0,1,115.086-4.878Zm-7.075,0q0,3.366,2.487,3.366,2.461,0,2.461-3.366,0-3.331-2.479-3.331a2.113,2.113,0,0,0-1.885.861A4.383,4.383,0,0,0,108.011-4.878ZM125.471,0H123.4V-5.977a2.616,2.616,0,0,0-.453-1.679,1.75,1.75,0,0,0-1.437-.554,2.285,2.285,0,0,0-1.916.773,4.27,4.27,0,0,0-.606,2.593V0h-2.065V-9.721h1.617l.29,1.274h.105a2.876,2.876,0,0,1,1.248-1.072,4.182,4.182,0,0,1,1.793-.378q3.5,0,3.5,3.56Z" transform="translate(513 1349)" fill="#74a669"/>
    <line id="Line_2" data-name="Line 2" x2="153" transform="translate(513.5 1360.5)" fill="none" stroke="#bfbfbf" stroke-width="1"/>
  </g>
</svg>
