<svg xmlns="http://www.w3.org/2000/svg" width="13.201" height="13.201" viewBox="0 0 13.201 13.201">
  <g id="plus" transform="translate(-7.875 -7.875)">
    <path id="Path_1404" data-name="Path 1404" d="M14.475,7.875a.733.733,0,0,1,.733.733v5.867a.733.733,0,0,1-.733.733H8.608a.733.733,0,1,1,0-1.467h5.134V8.608A.733.733,0,0,1,14.475,7.875Z" fill="#fff" fill-rule="evenodd"/>
    <path id="Path_1405" data-name="Path 1405" d="M16.875,17.608a.733.733,0,0,1,.733-.733h5.867a.733.733,0,0,1,0,1.467H18.342v5.134a.733.733,0,0,1-1.467,0Z" transform="translate(-3.133 -3.133)" fill="#fff" fill-rule="evenodd"/>
  </g>
</svg>
