<svg xmlns="http://www.w3.org/2000/svg" width="18.957" height="15.612" viewBox="0 0 18.957 15.612">
  <path id="_7787557_configuration_settings_gear_options_preferences_icon" data-name="7787557_configuration_settings_gear_options_preferences_icon" d="M17.4,35.018a3.9,3.9,0,0,0,7.471,0h7.416a1.115,1.115,0,0,0,0-2.23H24.869a3.9,3.9,0,0,0-7.471,0H16.115a1.115,1.115,0,1,0,0,2.23Zm3.736-2.788A1.673,1.673,0,1,1,19.461,33.9a1.643,1.643,0,0,1,1.673-1.673Zm11.709,8.364H31.56a3.9,3.9,0,0,0-7.471,0H16.673a1.115,1.115,0,0,0,0,2.23h7.416a3.9,3.9,0,0,0,7.471,0h1.282a1.115,1.115,0,0,0,0-2.23Zm-5.018,2.788A1.673,1.673,0,1,1,29.5,41.709a1.643,1.643,0,0,1-1.673,1.673Z" transform="translate(-15 -30)" fill="#fff"/>
</svg>
