<svg xmlns="http://www.w3.org/2000/svg" width="30" height="30" viewBox="0 0 30 30">
  <g id="_1" data-name="1" transform="translate(-50.27 -48)">
    <path id="Path_3" data-name="Path 3" d="M65.27,78a15,15,0,1,1,15-15A15.017,15.017,0,0,1,65.27,78Zm0-27.823A12.823,12.823,0,1,0,78.093,63,12.838,12.838,0,0,0,65.27,50.177Z" transform="translate(0 0)" fill="#c15358"/>
    <path id="Path_4" data-name="Path 4" d="M169.991,171.188a1.117,1.117,0,0,1-.79-.327l-12.8-12.8a1.117,1.117,0,1,1,1.58-1.58l12.8,12.8a1.117,1.117,0,0,1-.79,1.907Z" transform="translate(-98.322 -100.505)" fill="#c15358"/>
    <path id="Path_5" data-name="Path 5" d="M157.2,171.187a1.117,1.117,0,0,1-.789-1.907l12.8-12.8a1.117,1.117,0,1,1,1.58,1.58l-12.8,12.8a1.117,1.117,0,0,1-.79.327Z" transform="translate(-98.329 -100.504)" fill="#c15358"/>
  </g>
</svg>
