<svg xmlns="http://www.w3.org/2000/svg" width="20.315" height="28" viewBox="0 0 20.315 28">
  <path id="refresh-sync" d="M10.187,4.188a9.75,9.75,0,0,1,7.149,2.979,9.819,9.819,0,0,1,2.979,7.209A10.11,10.11,0,0,1,18.766,19.8l-1.847-1.847a7.456,7.456,0,0,0,.894-3.574,7.345,7.345,0,0,0-2.234-5.391,7.351,7.351,0,0,0-5.391-2.234v3.813L5.064,5.5,10.187.375Zm0,17.813V18.188l5.064,5.064-5.064,5.123V24.562a9.819,9.819,0,0,1-7.209-2.979A9.819,9.819,0,0,1,0,14.375,10.11,10.11,0,0,1,1.549,8.954L3.455,10.8a7.456,7.456,0,0,0-.894,3.574A7.345,7.345,0,0,0,4.8,19.766,7.351,7.351,0,0,0,10.187,22Z" transform="translate(0 -0.375)" fill="#f4a047"/>
</svg>
