<svg xmlns="http://www.w3.org/2000/svg" width="16.04" height="22.108" viewBox="0 0 16.04 22.108"><path d="M8,3.385A7.7,7.7,0,0,0,2.352,5.737,7.753,7.753,0,0,0,0,11.429a7.983,7.983,0,0,0,1.223,4.28l1.458-1.458a5.887,5.887,0,0,1-.706-2.822A5.8,5.8,0,0,1,3.74,7.172,5.8,5.8,0,0,1,8,5.408v3.01l4.045-4L8,.375ZM8,17.45v-3.01l-4,4,4,4.045v-3.01a7.753,7.753,0,0,0,5.692-2.352,7.753,7.753,0,0,0,2.352-5.692,7.983,7.983,0,0,0-1.223-4.28L13.312,8.607a5.887,5.887,0,0,1,.706,2.822,5.8,5.8,0,0,1-1.764,4.257A5.8,5.8,0,0,1,8,17.45Z" transform="translate(0 -0.375)" fill="#f4a047"/></svg>