<svg width="16" height="16" viewBox="0 0 16 16" fill="none" xmlns="http://www.w3.org/2000/svg">
<path d="M15 8C15 4.13542 11.8646 1 8 1C4.13542 1 1 4.13542 1 8C1 11.8646 4.13542 15 8 15C11.8646 15 15 11.8646 15 8Z" stroke="white" stroke-miterlimit="10"/>
<path d="M11.1195 5.87951L10.705 5.39717C10.1381 4.80363 9.39296 4.41138 8.58278 4.28003C7.7726 4.14867 6.94169 4.2854 6.21631 4.66942C5.49093 5.05344 4.91075 5.66377 4.56393 6.40765C4.21711 7.15154 4.12262 7.9883 4.29481 8.7908C4.467 9.59329 4.89646 10.3176 5.51793 10.8538C6.1394 11.3899 6.91889 11.7085 7.73796 11.7611C8.55703 11.8137 9.37089 11.5975 10.0559 11.1454C10.7408 10.6932 11.2595 10.0298 11.533 9.25592" stroke="white" stroke-miterlimit="10" stroke-linecap="round"/>
<path d="M12.058 4.57301C12.0172 4.57318 11.9769 4.58145 11.9394 4.59735C11.9018 4.61325 11.8678 4.63645 11.8393 4.66561L9.66854 6.83634C9.62449 6.88022 9.59446 6.9362 9.58227 6.99717C9.57007 7.05814 9.57626 7.12136 9.60005 7.17881C9.62383 7.23626 9.66414 7.28535 9.71586 7.31986C9.76759 7.35437 9.8284 7.37274 9.89058 7.37264H12.0613C12.1447 7.37264 12.2246 7.33953 12.2835 7.28059C12.3425 7.22166 12.3756 7.14172 12.3756 7.05837V4.88691C12.3757 4.84541 12.3675 4.8043 12.3516 4.76597C12.3358 4.72763 12.3124 4.69283 12.283 4.66357C12.2536 4.63431 12.2186 4.61117 12.1802 4.5955C12.1418 4.57983 12.1006 4.57194 12.0591 4.57228L12.058 4.57301Z" fill="white"/>
</svg>
