<?xml version="1.0" encoding="UTF-8"?>
<!DOCTYPE svg PUBLIC "-//W3C//DTD SVG 1.1//EN" "http://www.w3.org/Graphics/SVG/1.1/DTD/svg11.dtd">
<!-- Creator: CorelDRAW X7 -->
<svg xmlns="http://www.w3.org/2000/svg" xml:space="preserve" width="5.80298in" height="0.815657in" version="1.1" style="shape-rendering:geometricPrecision; text-rendering:geometricPrecision; image-rendering:optimizeQuality; fill-rule:evenodd; clip-rule:evenodd"
viewBox="0 0 5803 816"
 xmlns:xlink="http://www.w3.org/1999/xlink">
 <defs>
  <style type="text/css">
   <![CDATA[
    .fil0 {fill:#FEFEFE}
    .fil2 {fill:#F89F33}
    .fil1 {fill:#B9DDB7}
   ]]>
  </style>
 </defs>
 <g id="Layer_x0020_1">
  <metadata id="CorelCorpID_0Corel-Layer"/>
  <g id="_2040347090768">
   <g>
    <path class="fil0" d="M1817 138l186 0 77 84 -264 0c-23,0 -45,4 -66,11 -21,8 -39,18 -57,32 -17,13 -31,29 -43,47 -12,18 -20,38 -25,58l-2 10c-1,5 -2,9 -2,14 -1,4 -1,10 -2,16 0,24 5,47 15,69 10,23 24,42 41,60 18,17 38,30 62,41 24,10 49,16 78,16l33 0c23,0 51,0 86,-1 35,0 74,-1 118,-1 45,0 89,0 133,-1 44,0 88,0 128,0l107 0 78 85 -680 0c-39,0 -75,-7 -109,-21 -34,-14 -64,-33 -91,-58 -26,-24 -46,-53 -61,-85 -15,-33 -23,-68 -23,-107 0,-37 8,-72 24,-105 15,-33 36,-62 62,-86 26,-24 56,-43 91,-57 32,-13 68,-21 106,-21l0 0zm292 0l473 0c30,0 57,6 80,18 22,13 40,29 55,48 18,24 27,50 29,79 1,28 -5,55 -17,80 -13,25 -32,46 -57,62 -26,17 -56,25 -91,25l-71 0c1,2 5,6 12,14 6,7 14,16 23,27 9,12 19,24 31,37 12,14 24,27 36,41l94 109 -104 0c-20,-22 -40,-43 -59,-65 -18,-21 -37,-42 -55,-62l-168 -185 278 0c19,-2 35,-10 48,-24 14,-13 20,-29 20,-48 0,-10 -2,-19 -6,-28 -5,-9 -11,-17 -18,-23 -8,-7 -16,-11 -25,-15 -9,-4 -19,-5 -29,-5l-403 0 -76 -85zm707 227l799 0c10,0 20,-3 30,-6 9,-4 18,-9 24,-16 7,-7 13,-14 17,-23 4,-9 6,-18 6,-27 0,-10 -2,-19 -6,-28 -5,-9 -10,-17 -17,-23 -6,-6 -15,-11 -24,-15 -10,-3 -20,-5 -30,-5l-799 0 0 -84 798 0c22,0 43,3 62,11 20,7 37,19 52,32 15,14 27,30 35,49 9,18 14,39 14,61 0,23 -5,44 -13,62 -8,19 -20,36 -35,50 -15,14 -33,25 -53,33 -19,8 -40,12 -63,12l-711 0 0 228 -87 0 0 -311 1 0zm999 -142l0 -85 962 0 0 84 -438 0 0 456 -88 0 0 -455 -436 0zm1024 455l0 -540 480 410 484 -410 0 540 -88 0 0 -352 -394 335 -393 -335 0 352 -89 0z"/>
   </g>
   <path class="fil1" d="M578 397c4,-49 -13,-101 -68,-125 -35,-15 -75,-19 -114,-24 -53,-6 -85,-35 -101,-83 -16,-48 -1,-94 36,-129 36,-34 79,-38 125,-20 47,19 71,53 75,104 1,24 3,49 7,72 12,62 61,101 137,102 36,1 74,-6 109,-16 48,-15 68,-58 77,-104 4,-18 5,-37 6,-56 5,-70 74,-127 143,-117 61,8 104,77 92,146 -11,65 -50,99 -119,101 -60,2 -113,18 -141,73 -15,29 -15,64 -23,97 -9,43 -20,85 -64,104 -73,31 -183,8 -177,-125l0 0z"/>
   <path class="fil2" d="M859 680c4,-48 -12,-99 -68,-123 -33,-15 -74,-19 -111,-24 -53,-6 -85,-36 -100,-82 -16,-48 -1,-94 36,-128 35,-33 77,-38 123,-19 47,19 70,53 73,103 2,24 3,48 8,71 12,61 61,99 136,101 36,1 73,-6 107,-16 48,-15 67,-57 76,-103 4,-18 5,-37 6,-55 6,-69 73,-125 140,-115 61,8 103,75 91,144 -11,64 -49,99 -118,100 -59,2 -110,17 -138,72 -14,29 -16,63 -23,95 -9,42 -20,85 -63,103 -72,30 -180,7 -175,-124z"/>
   <path class="fil0" d="M137 289c49,4 100,-13 125,-68 15,-35 19,-75 23,-113 6,-54 36,-86 84,-102 48,-15 94,-1 129,36 34,36 38,79 20,125 -19,47 -53,71 -104,75 -24,1 -49,3 -72,7 -62,12 -101,62 -102,137 -1,36 6,75 16,109 15,48 58,68 104,77 18,4 37,5 56,6 70,6 127,74 117,143 -8,61 -77,104 -146,92 -65,-11 -99,-50 -102,-119 -1,-60 -17,-113 -72,-140 -29,-15 -64,-16 -97,-24 -43,-9 -86,-20 -104,-64 -30,-73 -8,-182 125,-177l0 0z"/>
  </g>
 </g>
</svg>
