<?xml version="1.0" encoding="UTF-8"?>
<!DOCTYPE svg PUBLIC "-//W3C//DTD SVG 1.1//EN" "http://www.w3.org/Graphics/SVG/1.1/DTD/svg11.dtd">
<!-- Creator: CorelDRAW X7 -->
<svg xmlns="http://www.w3.org/2000/svg" xml:space="preserve" width="1.76159in" height="2.68001in" version="1.1" style="shape-rendering:geometricPrecision; text-rendering:geometricPrecision; image-rendering:optimizeQuality; fill-rule:evenodd; clip-rule:evenodd"
viewBox="0 0 2091 3181"
 xmlns:xlink="http://www.w3.org/1999/xlink">
 <defs>
  <style type="text/css">
   <![CDATA[
    .fil4 {fill:#FEFEFE}
    .fil0 {fill:#E6E7E8}
    .fil5 {fill:#F89F33}
    .fil9 {fill:#BFDFB9}
    .fil6 {fill:#FEFEFE;fill-rule:nonzero}
    .fil7 {fill:url(#id0)}
    .fil1 {fill:url(#id1)}
    .fil8 {fill:url(#id2)}
    .fil2 {fill:url(#id3)}
    .fil3 {fill:url(#id4)}
    .fil10 {fill:url(#id5)}
   ]]>
  </style>
  <linearGradient id="id0" gradientUnits="userSpaceOnUse" x1="917.697" y1="-56.2032" x2="1164" y2="190.098">
   <stop offset="0" style="stop-opacity:1; stop-color:#5B4A88"/>
   <stop offset="1" style="stop-opacity:1; stop-color:#4C3A6D"/>
  </linearGradient>
  <linearGradient id="id1" gradientUnits="userSpaceOnUse" xlink:href="#id0" x1="-10.8051" y1="2125.21" x2="366.802" y2="2502.82">
  </linearGradient>
  <linearGradient id="id2" gradientUnits="objectBoundingBox" x1="11.74%" y1="17.7464%" x2="88.26%" y2="82.2536%">
   <stop offset="0" style="stop-opacity:1; stop-color:#5B4A88"/>
   <stop offset="1" style="stop-opacity:1; stop-color:#4E3B75"/>
  </linearGradient>
  <linearGradient id="id3" gradientUnits="userSpaceOnUse" xlink:href="#id0" x1="1724.31" y1="2125.21" x2="2101.92" y2="2502.82">
  </linearGradient>
  <linearGradient id="id4" gradientUnits="userSpaceOnUse" xlink:href="#id0" x1="483.228" y1="414.967" x2="1598.46" y2="1535.47">
  </linearGradient>
  <linearGradient id="id5" gradientUnits="userSpaceOnUse" xlink:href="#id0" x1="641.093" y1="1917.28" x2="1440.59" y2="2727.75">
  </linearGradient>
 </defs>
 <g id="Layer_x0020_1">
  <metadata id="CorelCorpID_0Corel-Layer"/>
  <ellipse class="fil0" cx="1041" cy="3089" rx="548" ry="93"/>
  <path class="fil1" d="M5 2674c55,28 283,-362 351,-493l-40 -228c-33,52 -361,695 -311,721z"/>
  <path class="fil2" d="M2086 2674c-55,28 -283,-362 -351,-493l40 -228c33,52 361,695 311,721z"/>
  <rect class="fil3" x="222" y="197" width="1637" height="1556" rx="279" ry="280"/>
  <path class="fil4" d="M986 873c1,-2 1,-4 1,-5 0,-27 0,-53 -2,-79 -2,-24 -6,-48 -17,-70 -17,-33 -43,-47 -79,-41 -30,4 -48,23 -58,51 -12,30 -13,62 -14,94 -1,16 0,33 0,50 58,0 113,0 169,0zm271 0c1,-1 1,-1 1,-2 -1,-39 -1,-78 -4,-116 -2,-26 -9,-51 -21,-75 -28,-54 -100,-58 -133,-7 -13,20 -19,43 -23,66 -7,42 -6,85 -5,128 0,2 0,4 1,6 61,0 123,0 184,0zm-675 -151c3,1 5,1 8,1 41,0 81,0 122,0 7,0 9,-2 10,-9 5,-44 12,-87 34,-126 25,-45 63,-67 113,-70 24,-2 47,0 70,8 27,11 47,29 62,54 1,2 2,4 4,7 0,0 1,1 2,2 2,-9 5,-17 7,-24 14,-36 35,-67 71,-84 24,-11 51,-14 77,-13 37,1 73,8 105,27 38,23 58,58 72,99 12,36 17,74 19,113 1,3 1,7 1,11 0,1 1,2 1,5 24,0 47,0 70,0 23,0 46,0 69,0 0,29 0,57 0,85 -45,0 -90,0 -137,0 0,22 0,44 0,67 46,0 92,0 138,0 0,29 0,57 0,85 -46,0 -93,0 -140,0 0,58 0,114 0,171 -35,-5 -68,-11 -102,-17 0,-15 0,-29 0,-44 0,-6 0,-11 0,-17 -1,-21 -12,-32 -33,-32 -12,0 -25,0 -38,0 -109,0 -218,0 -327,0 -31,0 -47,15 -48,46 -1,17 0,35 0,52 -1,4 0,7 0,11 -31,0 -60,0 -91,0 0,-56 0,-112 0,-169 -47,0 -93,0 -139,0 0,-29 0,-58 0,-86 1,0 3,0 4,0 42,0 85,0 127,0 1,0 3,0 4,0 0,-22 0,-44 0,-67 -46,0 -90,0 -135,0 0,-28 0,-57 0,-86z"/>
  <circle class="fil5" cx="1168" cy="767" r="49"/>
  <path class="fil5" d="M905 718c27,0 49,22 49,49 0,27 -22,49 -49,49 -27,0 -49,-22 -49,-49 0,-27 22,-49 49,-49z"/>
  <path class="fil6" d="M808 1398c-15,14 -16,38 -2,53 14,15 38,16 53,2 3,-2 2,-1 3,-2 43,-39 108,-60 173,-61 63,-1 124,19 163,61l2 2c14,16 38,17 53,3 16,-14 17,-37 3,-53 0,0 -1,-1 -2,-3 -55,-59 -137,-86 -220,-85 -82,1 -165,29 -222,80 -3,3 -3,3 -4,3z"/>
  <g id="_2632256736768">
   <circle class="fil4" cx="932" cy="750" r="15"/>
   <circle class="fil4" cx="915" cy="730" r="6"/>
  </g>
  <g id="_2632256736864">
   <circle class="fil4" cx="1195" cy="750" r="15"/>
   <circle class="fil4" cx="1179" cy="730" r="6"/>
  </g>
  <path class="fil7" d="M1041 0c148,0 342,134 269,134l-538 0c-74,0 120,-134 269,-134z"/>
  <g id="_2632256738624">
   <path class="fil8" d="M851 2892c-2,0 3,185 -91,185 -93,0 -90,-185 -90,-185l181 0z"/>
   <path class="fil8" d="M1412 2892c-2,0 3,185 -91,185 -93,0 -90,-185 -90,-185l181 0z"/>
  </g>
  <g id="_2632256739072">
   <path class="fil9" d="M993 2497c2,-21 -5,-43 -29,-54 -14,-6 -31,-8 -48,-10 -22,-2 -36,-15 -43,-35 -6,-21 0,-40 16,-55 15,-14 33,-16 53,-8 20,8 30,22 31,44 1,10 2,21 4,31 5,26 26,42 58,43 15,0 31,-3 46,-7 21,-6 29,-25 33,-44 2,-8 2,-16 3,-24 2,-30 31,-54 60,-50 26,4 44,33 39,62 -4,28 -21,43 -50,43 -26,1 -48,8 -60,31 -6,13 -7,27 -10,42 -4,18 -8,36 -27,44 -31,13 -78,3 -76,-53l0 0z"/>
   <path class="fil5" d="M1113 2617c2,-20 -5,-42 -29,-53 -14,-6 -31,-7 -47,-9 -22,-3 -36,-16 -43,-35 -6,-21 0,-40 16,-55 15,-14 33,-16 52,-8 20,8 30,23 31,44 1,10 2,20 3,30 6,26 26,42 58,43 15,0 31,-2 46,-7 20,-6 28,-24 32,-44 2,-7 2,-15 3,-23 2,-29 31,-53 59,-49 26,3 44,32 39,62 -5,27 -21,41 -50,42 -25,1 -47,7 -59,31 -6,12 -7,26 -10,40 -3,18 -8,36 -27,44 -30,12 -76,3 -74,-53z"/>
   <path class="fil4" d="M806 2451c21,1 43,-6 53,-29 7,-15 8,-32 10,-48 3,-23 15,-37 36,-44 20,-6 40,0 55,16 14,15 16,33 8,53 -8,20 -23,30 -44,32 -11,0 -21,1 -31,3 -26,5 -43,26 -43,58 -1,15 2,32 7,46 6,21 24,29 44,33 8,2 16,2 24,3 29,2 53,31 49,60 -3,26 -32,45 -62,40 -27,-5 -42,-22 -43,-51 0,-26 -7,-48 -31,-60 -12,-6 -27,-6 -41,-10 -18,-3 -36,-8 -44,-27 -13,-31 -3,-78 53,-75l0 0z"/>
  </g>
  <path class="fil10" d="M578 1823l926 0c101,0 199,85 184,187l-93 625c-15,102 -83,187 -185,187l-739 0c-101,0 -169,-85 -184,-187l-94 -625c-15,-102 83,-187 185,-187z"/>
  <g id="_2632256740352">
   <path class="fil9" d="M993 2318c2,-21 -5,-43 -29,-53 -14,-7 -31,-8 -48,-10 -22,-3 -36,-16 -43,-36 -6,-20 0,-40 16,-55 15,-14 33,-16 53,-8 20,8 30,23 31,44 1,10 2,21 4,31 5,26 26,43 58,43 15,1 32,-2 46,-7 21,-6 29,-24 33,-44 2,-8 2,-16 3,-24 2,-29 31,-54 60,-49 26,3 44,32 39,62 -4,27 -21,42 -50,43 -26,0 -48,7 -60,31 -6,12 -7,27 -10,41 -4,18 -8,36 -27,44 -31,13 -78,3 -76,-53l0 0z"/>
   <path class="fil5" d="M1113 2438c2,-20 -5,-42 -29,-52 -14,-7 -31,-8 -47,-10 -22,-3 -36,-15 -43,-35 -6,-21 0,-40 16,-55 15,-14 33,-16 52,-8 20,8 30,23 31,44 1,10 2,20 3,30 6,26 26,42 58,43 15,1 31,-2 46,-7 20,-6 28,-24 32,-43 2,-8 2,-16 3,-24 2,-29 31,-53 59,-49 26,4 44,32 39,62 -5,27 -21,42 -50,42 -25,1 -47,8 -59,31 -6,12 -7,27 -10,40 -3,18 -8,36 -27,44 -30,13 -76,3 -74,-53z"/>
   <path class="fil4" d="M806 2272c21,2 43,-5 53,-29 7,-15 8,-32 10,-48 3,-23 15,-37 36,-43 20,-7 40,-1 55,15 14,15 16,34 8,53 -8,20 -23,30 -44,32 -11,1 -21,1 -31,3 -26,5 -43,26 -43,58 -1,16 2,32 7,47 6,20 24,29 44,32 8,2 16,2 24,3 29,2 54,31 49,61 -3,26 -32,44 -62,39 -27,-5 -42,-22 -43,-51 0,-25 -7,-48 -31,-59 -12,-7 -27,-7 -41,-10 -18,-4 -36,-9 -44,-28 -13,-31 -3,-77 53,-75l0 0z"/>
  </g>
  <g id="_2632256745440">
   <path class="fil4" d="M1396 1070c73,488 226,0 0,0z"/>
   <path class="fil4" d="M686 1070c-73,488 -226,0 0,0z"/>
  </g>
 </g>
</svg>
