<svg width="25" height="25" viewBox="0 0 25 25" fill="none" xmlns="http://www.w3.org/2000/svg">
<path fill-rule="evenodd" clip-rule="evenodd" d="M18.272 20.04C16.348 21.579 13.906 22.5 11.25 22.5C5.037 22.5 0 17.463 0 11.25C0 5.037 5.037 0 11.25 0C17.463 0 22.5 5.037 22.5 11.25C22.5 13.906 21.579 16.348 20.04 18.272L24.634 22.866C25.122 23.354 25.122 24.146 24.634 24.634C24.146 25.122 23.354 25.122 22.866 24.634L18.272 20.04ZM2.5 11.25C2.5 6.418 6.418 2.5 11.25 2.5C16.082 2.5 20 6.418 20 11.25C20 13.607 19.068 15.747 17.552 17.32C17.509 17.353 17.468 17.389 17.429 17.429C17.389 17.468 17.353 17.509 17.32 17.552C15.747 19.068 13.607 20 11.25 20C6.418 20 2.5 16.082 2.5 11.25Z" fill="#6562A8"/>
</svg>
