<?xml version="1.0" encoding="UTF-8"?>
<!DOCTYPE svg PUBLIC "-//W3C//DTD SVG 1.1//EN" "http://www.w3.org/Graphics/SVG/1.1/DTD/svg11.dtd">
<!-- Creator: CorelDRAW X7 -->
<svg xmlns="http://www.w3.org/2000/svg" xml:space="preserve" width="0.631669in" height="0.706669in" version="1.1" style="shape-rendering:geometricPrecision; text-rendering:geometricPrecision; image-rendering:optimizeQuality; fill-rule:evenodd; clip-rule:evenodd"
viewBox="0 0 434 485"
 xmlns:xlink="http://www.w3.org/1999/xlink">
 <defs>
  <style type="text/css">
   <![CDATA[
    .fil0 {fill:#999999}
   ]]>
  </style>
 </defs>
 <g id="Layer_x0020_1">
  <metadata id="CorelCorpID_0Corel-Layer"/>
  <path class="fil0" d="M113 17c0,-9 8,-17 17,-17 10,0 18,8 18,17l0 451c0,10 -8,17 -18,17 -4,0 -9,-2 -12,-5l-113 -113c-7,-7 -7,-18 0,-24 7,-7 18,-7 24,0l84 84 0 -410z"/>
  <path class="fil0" d="M320 468c0,10 -7,17 -17,17 -9,0 -17,-7 -17,-17l0 -451c0,-9 8,-17 17,-17 5,0 9,2 12,5l114 113c6,7 6,18 0,25 -7,6 -18,6 -25,0l-84 -84 0 409z"/>
 </g>
</svg>
