<svg width="250" height="145" viewBox="0 0 250 145" fill="none" xmlns="http://www.w3.org/2000/svg">
<path d="M124.501 1.7085C120.784 1.7085 117.151 2.81061 114.061 4.87546C110.97 6.94032 108.562 9.87518 107.139 13.3089C105.717 16.7426 105.345 20.521 106.07 24.1662C106.795 27.8115 108.585 31.1598 111.213 33.7879C113.841 36.4159 117.189 38.2057 120.835 38.9308C124.48 39.6558 128.258 39.2837 131.692 37.8614C135.126 36.4391 138.061 34.0305 140.125 30.9403C142.19 27.85 143.292 24.2168 143.292 20.5002C143.292 15.5163 141.312 10.7366 137.788 7.21245C134.264 3.68833 129.485 1.7085 124.501 1.7085ZM124.501 35.8752C121.46 35.8752 118.487 34.9734 115.959 33.284C113.43 31.5946 111.46 29.1933 110.296 26.3839C109.132 23.5745 108.828 20.4831 109.421 17.5006C110.014 14.5182 111.479 11.7786 113.629 9.6284C115.779 7.47816 118.519 6.01384 121.501 5.42059C124.484 4.82734 127.575 5.13182 130.384 6.29552C133.194 7.45921 135.595 9.42986 137.285 11.9583C138.974 14.4867 139.876 17.4593 139.876 20.5002C139.876 24.5779 138.256 28.4886 135.372 31.3719C132.489 34.2553 128.578 35.8752 124.501 35.8752ZM127.917 11.9585V10.2502C127.917 9.79708 127.737 9.36256 127.417 9.04219C127.097 8.72181 126.662 8.54183 126.209 8.54183C125.756 8.54183 125.321 8.72181 125.001 9.04219C124.681 9.36256 124.501 9.79708 124.501 10.2502V11.9585H122.792V10.2502C122.792 9.79708 122.612 9.36256 122.292 9.04219C121.972 8.72181 121.537 8.54183 121.084 8.54183C120.631 8.54183 120.196 8.72181 119.876 9.04219C119.556 9.36256 119.376 9.79708 119.376 10.2502V11.9585H117.667C117.214 11.9585 116.78 12.1385 116.459 12.4589C116.139 12.7792 115.959 13.2138 115.959 13.6668C115.959 14.1199 116.139 14.5544 116.459 14.8748C116.78 15.1952 117.214 15.3752 117.667 15.3752H119.376V25.6252H117.667C117.214 25.6252 116.78 25.8051 116.459 26.1255C116.139 26.4459 115.959 26.8804 115.959 27.3335C115.959 27.7866 116.139 28.2211 116.459 28.5415C116.78 28.8618 117.214 29.0418 117.667 29.0418H119.376V30.7502C119.376 31.2032 119.556 31.6378 119.876 31.9581C120.196 32.2785 120.631 32.4585 121.084 32.4585C121.537 32.4585 121.972 32.2785 122.292 31.9581C122.612 31.6378 122.792 31.2032 122.792 30.7502V29.0418H124.501V30.7502C124.501 31.2032 124.681 31.6378 125.001 31.9581C125.321 32.2785 125.756 32.4585 126.209 32.4585C126.662 32.4585 127.097 32.2785 127.417 31.9581C127.737 31.6378 127.917 31.2032 127.917 30.7502V29.0418C129.277 29.0418 130.58 28.5019 131.541 27.5408C132.502 26.5796 133.042 25.2761 133.042 23.9168C133.039 22.6548 132.571 21.4382 131.727 20.5002C132.571 19.5621 133.039 18.3455 133.042 17.0835C133.042 15.7243 132.502 14.4207 131.541 13.4596C130.58 12.4985 129.277 11.9585 127.917 11.9585ZM127.917 25.6252H122.792V22.2085H127.917C128.37 22.2085 128.805 22.3885 129.125 22.7089C129.446 23.0292 129.626 23.4638 129.626 23.9168C129.626 24.3699 129.446 24.8044 129.125 25.1248C128.805 25.4452 128.37 25.6252 127.917 25.6252ZM127.917 18.7918H122.792V15.3752H127.917C128.37 15.3752 128.805 15.5551 129.125 15.8755C129.446 16.1959 129.626 16.6304 129.626 17.0835C129.626 17.5366 129.446 17.9711 129.125 18.2915C128.805 18.6118 128.37 18.7918 127.917 18.7918Z" fill="#6660AB"/>
<path d="M14.4189 95.6606L17.2681 90.292H18.6084L15.0415 96.8472V101H13.7964V96.9058L10.2222 90.292H11.5845L14.4189 95.6606ZM26.8188 96.9717C26.8188 97.6309 26.7334 98.2192 26.5625 98.7368C26.3916 99.2544 26.145 99.6914 25.8228 100.048C25.5005 100.404 25.1099 100.678 24.6509 100.868C24.1968 101.054 23.6816 101.146 23.1055 101.146C22.5684 101.146 22.0752 101.054 21.626 100.868C21.1816 100.678 20.7959 100.404 20.4688 100.048C20.1465 99.6914 19.895 99.2544 19.7144 98.7368C19.5386 98.2192 19.4507 97.6309 19.4507 96.9717C19.4507 96.0928 19.5996 95.3457 19.8975 94.7305C20.1953 94.1104 20.6201 93.6392 21.1719 93.3169C21.7285 92.9897 22.3901 92.8262 23.1567 92.8262C23.8892 92.8262 24.5288 92.9897 25.0757 93.3169C25.6274 93.644 26.0547 94.1177 26.3574 94.7378C26.665 95.353 26.8188 96.0977 26.8188 96.9717ZM20.7104 96.9717C20.7104 97.6162 20.7959 98.1753 20.9668 98.6489C21.1377 99.1226 21.4014 99.4888 21.7578 99.7476C22.1143 100.006 22.5732 100.136 23.1348 100.136C23.6914 100.136 24.1479 100.006 24.5044 99.7476C24.8657 99.4888 25.1318 99.1226 25.3027 98.6489C25.4736 98.1753 25.5591 97.6162 25.5591 96.9717C25.5591 96.332 25.4736 95.7803 25.3027 95.3164C25.1318 94.8477 24.8682 94.4863 24.5117 94.2324C24.1553 93.9785 23.6938 93.8516 23.1274 93.8516C22.2925 93.8516 21.6797 94.1274 21.2891 94.6792C20.9033 95.231 20.7104 95.9951 20.7104 96.9717ZM35.5493 92.9727V101H34.5532L34.3774 99.8721H34.3115C34.1455 100.15 33.9307 100.385 33.667 100.575C33.4033 100.766 33.1055 100.907 32.7734 101C32.4463 101.098 32.0972 101.146 31.7261 101.146C31.0913 101.146 30.5591 101.044 30.1294 100.839C29.6997 100.634 29.375 100.316 29.1553 99.8867C28.9404 99.457 28.833 98.9053 28.833 98.2314V92.9727H30.0635V98.1436C30.0635 98.8125 30.2148 99.313 30.5176 99.645C30.8203 99.9722 31.2817 100.136 31.9019 100.136C32.4976 100.136 32.9712 100.023 33.3228 99.7988C33.6792 99.5742 33.9355 99.2446 34.0918 98.8101C34.248 98.3706 34.3262 97.8335 34.3262 97.1987V92.9727H35.5493ZM45.2319 101.146C44.5093 101.146 43.8721 100.998 43.3203 100.7C42.7686 100.402 42.3389 99.9478 42.0312 99.3374C41.7236 98.7271 41.5698 97.958 41.5698 97.0303C41.5698 96.0586 41.731 95.2651 42.0532 94.6499C42.3804 94.0298 42.8296 93.5708 43.4009 93.2729C43.9722 92.9751 44.6216 92.8262 45.3491 92.8262C45.7495 92.8262 46.1353 92.8677 46.5063 92.9507C46.8823 93.0288 47.1899 93.1289 47.4292 93.251L47.063 94.269C46.8188 94.1714 46.5356 94.0835 46.2134 94.0054C45.896 93.9272 45.5981 93.8882 45.3198 93.8882C44.7632 93.8882 44.2993 94.0078 43.9282 94.2471C43.562 94.4863 43.2861 94.8379 43.1006 95.3018C42.9199 95.7656 42.8296 96.3369 42.8296 97.0156C42.8296 97.665 42.9175 98.2192 43.0933 98.6782C43.2739 99.1372 43.54 99.4888 43.8916 99.7329C44.248 99.9722 44.6924 100.092 45.2246 100.092C45.6494 100.092 46.0327 100.048 46.3745 99.96C46.7163 99.8672 47.0264 99.7598 47.3047 99.6377V100.722C47.0361 100.858 46.7358 100.963 46.4038 101.037C46.0767 101.11 45.686 101.146 45.2319 101.146ZM52.2119 92.8408C53.1689 92.8408 53.8794 93.0557 54.3433 93.4854C54.8071 93.915 55.0391 94.6011 55.0391 95.5435V101H54.1528L53.9185 99.8135H53.8599C53.6353 100.106 53.4009 100.353 53.1567 100.553C52.9126 100.749 52.6294 100.897 52.3071 101C51.9897 101.098 51.5991 101.146 51.1353 101.146C50.647 101.146 50.2124 101.061 49.8315 100.89C49.4556 100.719 49.1577 100.46 48.938 100.114C48.7231 99.7671 48.6157 99.3276 48.6157 98.7954C48.6157 97.9946 48.9331 97.3794 49.5679 96.9497C50.2026 96.52 51.1694 96.2856 52.4683 96.2466L53.8525 96.188V95.6973C53.8525 95.0039 53.7036 94.5181 53.4058 94.2397C53.1079 93.9614 52.688 93.8223 52.146 93.8223C51.7261 93.8223 51.3257 93.8833 50.9448 94.0054C50.564 94.1274 50.2026 94.2715 49.8608 94.4375L49.4873 93.5146C49.8486 93.3291 50.2637 93.1704 50.7324 93.0386C51.2012 92.9067 51.6943 92.8408 52.2119 92.8408ZM53.8379 97.0449L52.6147 97.0962C51.6138 97.1353 50.9082 97.2988 50.498 97.5869C50.0879 97.875 49.8828 98.2827 49.8828 98.8101C49.8828 99.269 50.022 99.6084 50.3003 99.8281C50.5786 100.048 50.9473 100.158 51.4062 100.158C52.1191 100.158 52.7026 99.96 53.1567 99.5645C53.6108 99.1689 53.8379 98.5757 53.8379 97.7847V97.0449ZM61.3452 92.8262C62.2974 92.8262 63.0176 93.0605 63.5059 93.5293C63.9941 93.9932 64.2383 94.7402 64.2383 95.7705V101H63.0371V95.8511C63.0371 95.1821 62.8833 94.6816 62.5757 94.3496C62.2729 94.0176 61.8066 93.8516 61.1768 93.8516C60.2881 93.8516 59.6631 94.103 59.3018 94.606C58.9404 95.1089 58.7598 95.8389 58.7598 96.7959V101H57.5439V92.9727H58.5254L58.7085 94.1299H58.7744C58.9453 93.8467 59.1626 93.6099 59.4263 93.4194C59.6899 93.2241 59.9854 93.0776 60.3125 92.98C60.6396 92.8774 60.9839 92.8262 61.3452 92.8262ZM74.4116 92.8262C75.4126 92.8262 76.2109 93.1704 76.8066 93.8589C77.4023 94.5474 77.7002 95.5825 77.7002 96.9644C77.7002 97.8774 77.5635 98.644 77.29 99.2642C77.0166 99.8843 76.6309 100.353 76.1328 100.67C75.6396 100.988 75.0562 101.146 74.3823 101.146C73.9575 101.146 73.584 101.09 73.2617 100.978C72.9395 100.866 72.6636 100.714 72.4341 100.524C72.2046 100.333 72.0142 100.126 71.8628 99.9014H71.7749C71.7896 100.092 71.8066 100.321 71.8262 100.59C71.8506 100.858 71.8628 101.093 71.8628 101.293V104.589H70.6396V92.9727H71.6431L71.8042 94.1592H71.8628C72.019 93.915 72.2095 93.6929 72.4341 93.4927C72.6587 93.2876 72.9321 93.1265 73.2544 93.0093C73.5815 92.8872 73.9673 92.8262 74.4116 92.8262ZM74.1992 93.8516C73.6426 93.8516 73.1934 93.959 72.8516 94.1738C72.5146 94.3887 72.2681 94.7109 72.1118 95.1406C71.9556 95.5654 71.8726 96.1001 71.8628 96.7446V96.979C71.8628 97.6577 71.936 98.2314 72.0825 98.7002C72.2339 99.1689 72.4805 99.5254 72.8223 99.7695C73.1689 100.014 73.6328 100.136 74.2139 100.136C74.7119 100.136 75.127 100.001 75.459 99.7329C75.791 99.4644 76.0376 99.0908 76.1987 98.6123C76.3647 98.1289 76.4478 97.5747 76.4478 96.9497C76.4478 96.0024 76.2622 95.2505 75.8911 94.6938C75.5249 94.1323 74.9609 93.8516 74.1992 93.8516ZM86.4526 92.9727V101H85.4565L85.2808 99.8721H85.2148C85.0488 100.15 84.834 100.385 84.5703 100.575C84.3066 100.766 84.0088 100.907 83.6768 101C83.3496 101.098 83.0005 101.146 82.6294 101.146C81.9946 101.146 81.4624 101.044 81.0327 100.839C80.603 100.634 80.2783 100.316 80.0586 99.8867C79.8438 99.457 79.7363 98.9053 79.7363 98.2314V92.9727H80.9668V98.1436C80.9668 98.8125 81.1182 99.313 81.4209 99.645C81.7236 99.9722 82.1851 100.136 82.8052 100.136C83.4009 100.136 83.8745 100.023 84.2261 99.7988C84.5825 99.5742 84.8389 99.2446 84.9951 98.8101C85.1514 98.3706 85.2295 97.8335 85.2295 97.1987V92.9727H86.4526ZM92.6709 92.8262C92.832 92.8262 93.0005 92.8359 93.1763 92.8555C93.3521 92.8701 93.5083 92.8921 93.645 92.9214L93.4912 94.0493C93.3594 94.0151 93.2129 93.9883 93.0518 93.9688C92.8906 93.9492 92.7393 93.9395 92.5977 93.9395C92.2754 93.9395 91.9702 94.0054 91.6821 94.1372C91.3989 94.2642 91.1499 94.4497 90.9351 94.6938C90.7202 94.9331 90.5518 95.2236 90.4297 95.5654C90.3076 95.9023 90.2466 96.2783 90.2466 96.6934V101H89.0234V92.9727H90.0342L90.166 94.4521H90.2173C90.3833 94.1543 90.5835 93.8833 90.8179 93.6392C91.0522 93.3901 91.3232 93.1924 91.6309 93.0459C91.9434 92.8994 92.29 92.8262 92.6709 92.8262ZM98.3765 101.146C97.6538 101.146 97.0166 100.998 96.4648 100.7C95.9131 100.402 95.4834 99.9478 95.1758 99.3374C94.8682 98.7271 94.7144 97.958 94.7144 97.0303C94.7144 96.0586 94.8755 95.2651 95.1978 94.6499C95.5249 94.0298 95.9741 93.5708 96.5454 93.2729C97.1167 92.9751 97.7661 92.8262 98.4937 92.8262C98.894 92.8262 99.2798 92.8677 99.6509 92.9507C100.027 93.0288 100.334 93.1289 100.574 93.251L100.208 94.269C99.9634 94.1714 99.6802 94.0835 99.3579 94.0054C99.0405 93.9272 98.7427 93.8882 98.4644 93.8882C97.9077 93.8882 97.4438 94.0078 97.0728 94.2471C96.7065 94.4863 96.4307 94.8379 96.2451 95.3018C96.0645 95.7656 95.9741 96.3369 95.9741 97.0156C95.9741 97.665 96.062 98.2192 96.2378 98.6782C96.4185 99.1372 96.6846 99.4888 97.0361 99.7329C97.3926 99.9722 97.8369 100.092 98.3691 100.092C98.7939 100.092 99.1772 100.048 99.519 99.96C99.8608 99.8672 100.171 99.7598 100.449 99.6377V100.722C100.181 100.858 99.8804 100.963 99.5483 101.037C99.2212 101.11 98.8306 101.146 98.3765 101.146ZM103.569 89.6035V93.0093C103.569 93.2046 103.564 93.4023 103.555 93.6025C103.545 93.7979 103.528 93.9785 103.503 94.1445H103.584C103.75 93.8613 103.96 93.6245 104.214 93.4341C104.473 93.2388 104.766 93.0923 105.093 92.9946C105.42 92.8921 105.767 92.8408 106.133 92.8408C106.777 92.8408 107.314 92.9434 107.744 93.1484C108.179 93.3535 108.503 93.6709 108.718 94.1006C108.938 94.5303 109.048 95.0869 109.048 95.7705V101H107.847V95.8511C107.847 95.1821 107.693 94.6816 107.385 94.3496C107.083 94.0176 106.616 93.8516 105.986 93.8516C105.391 93.8516 104.915 93.9663 104.558 94.1958C104.207 94.4204 103.953 94.7524 103.796 95.1919C103.645 95.6313 103.569 96.1685 103.569 96.8032V101H102.354V89.6035H103.569ZM114.556 92.8408C115.513 92.8408 116.223 93.0557 116.687 93.4854C117.151 93.915 117.383 94.6011 117.383 95.5435V101H116.497L116.262 99.8135H116.204C115.979 100.106 115.745 100.353 115.5 100.553C115.256 100.749 114.973 100.897 114.651 101C114.333 101.098 113.943 101.146 113.479 101.146C112.991 101.146 112.556 101.061 112.175 100.89C111.799 100.719 111.501 100.46 111.282 100.114C111.067 99.7671 110.959 99.3276 110.959 98.7954C110.959 97.9946 111.277 97.3794 111.912 96.9497C112.546 96.52 113.513 96.2856 114.812 96.2466L116.196 96.188V95.6973C116.196 95.0039 116.047 94.5181 115.75 94.2397C115.452 93.9614 115.032 93.8223 114.49 93.8223C114.07 93.8223 113.669 93.8833 113.289 94.0054C112.908 94.1274 112.546 94.2715 112.205 94.4375L111.831 93.5146C112.192 93.3291 112.607 93.1704 113.076 93.0386C113.545 92.9067 114.038 92.8408 114.556 92.8408ZM116.182 97.0449L114.958 97.0962C113.958 97.1353 113.252 97.2988 112.842 97.5869C112.432 97.875 112.227 98.2827 112.227 98.8101C112.227 99.269 112.366 99.6084 112.644 99.8281C112.922 100.048 113.291 100.158 113.75 100.158C114.463 100.158 115.046 99.96 115.5 99.5645C115.955 99.1689 116.182 98.5757 116.182 97.7847V97.0449ZM125.081 98.8027C125.081 99.3154 124.951 99.7476 124.692 100.099C124.438 100.446 124.072 100.707 123.594 100.883C123.12 101.059 122.554 101.146 121.895 101.146C121.333 101.146 120.847 101.103 120.437 101.015C120.027 100.927 119.668 100.802 119.36 100.641V99.5205C119.688 99.6816 120.078 99.8281 120.532 99.96C120.986 100.092 121.45 100.158 121.924 100.158C122.617 100.158 123.12 100.045 123.433 99.8208C123.745 99.5962 123.901 99.291 123.901 98.9053C123.901 98.6855 123.838 98.4927 123.711 98.3267C123.589 98.1558 123.381 97.9922 123.088 97.8359C122.795 97.6748 122.39 97.499 121.873 97.3086C121.36 97.1133 120.916 96.9204 120.54 96.73C120.168 96.5347 119.88 96.2979 119.675 96.0195C119.475 95.7412 119.375 95.3799 119.375 94.9355C119.375 94.2568 119.648 93.7368 120.195 93.3755C120.747 93.0093 121.47 92.8262 122.363 92.8262C122.847 92.8262 123.298 92.875 123.718 92.9727C124.143 93.0654 124.539 93.1924 124.905 93.3535L124.495 94.3276C124.163 94.186 123.809 94.0664 123.433 93.9688C123.057 93.8711 122.673 93.8223 122.283 93.8223C121.721 93.8223 121.289 93.915 120.986 94.1006C120.688 94.2861 120.54 94.54 120.54 94.8623C120.54 95.1113 120.608 95.3164 120.745 95.4775C120.886 95.6387 121.111 95.79 121.418 95.9316C121.726 96.0732 122.131 96.2393 122.634 96.4297C123.137 96.6152 123.572 96.8081 123.938 97.0083C124.304 97.2036 124.585 97.4429 124.78 97.7261C124.98 98.0044 125.081 98.3633 125.081 98.8027ZM130.127 92.8262C130.811 92.8262 131.396 92.9775 131.885 93.2803C132.373 93.583 132.747 94.0078 133.005 94.5547C133.264 95.0967 133.394 95.7314 133.394 96.459V97.2134H127.849C127.864 98.1558 128.098 98.8735 128.552 99.3667C129.006 99.8599 129.646 100.106 130.471 100.106C130.979 100.106 131.428 100.06 131.819 99.9673C132.209 99.8745 132.615 99.7378 133.035 99.5571V100.626C132.629 100.807 132.227 100.939 131.826 101.022C131.431 101.105 130.962 101.146 130.42 101.146C129.648 101.146 128.975 100.99 128.398 100.678C127.827 100.36 127.383 99.8965 127.065 99.2861C126.748 98.6758 126.589 97.9287 126.589 97.0449C126.589 96.1807 126.733 95.4336 127.021 94.8037C127.314 94.1689 127.725 93.6807 128.252 93.3389C128.784 92.9971 129.409 92.8262 130.127 92.8262ZM130.112 93.8223C129.463 93.8223 128.945 94.0347 128.56 94.4595C128.174 94.8843 127.944 95.4775 127.871 96.2393H132.119C132.114 95.7607 132.039 95.3408 131.892 94.9795C131.75 94.6133 131.533 94.3301 131.24 94.1299C130.947 93.9248 130.571 93.8223 130.112 93.8223ZM140.571 89.6035V92.4526C140.571 92.7798 140.562 93.0972 140.542 93.4048C140.527 93.7124 140.515 93.9517 140.505 94.1226H140.571C140.791 93.7612 141.108 93.4561 141.523 93.207C141.938 92.958 142.468 92.8335 143.113 92.8335C144.119 92.8335 144.919 93.1826 145.515 93.8809C146.116 94.5742 146.416 95.6069 146.416 96.979C146.416 97.8823 146.279 98.644 146.006 99.2642C145.732 99.8843 145.347 100.353 144.849 100.67C144.351 100.988 143.762 101.146 143.083 101.146C142.449 101.146 141.926 101.029 141.516 100.795C141.111 100.556 140.798 100.265 140.579 99.9233H140.483L140.234 101H139.355V89.6035H140.571ZM142.915 93.8516C142.334 93.8516 141.873 93.9663 141.531 94.1958C141.189 94.4204 140.942 94.7622 140.791 95.2212C140.645 95.6753 140.571 96.2515 140.571 96.9497V97.0156C140.571 98.0264 140.74 98.8003 141.077 99.3374C141.414 99.8696 142.026 100.136 142.915 100.136C143.662 100.136 144.221 99.8623 144.592 99.3154C144.968 98.7686 145.156 97.9873 145.156 96.9717C145.156 95.9365 144.971 95.1577 144.6 94.6353C144.233 94.1128 143.672 93.8516 142.915 93.8516ZM149.756 92.9727V101H148.54V92.9727H149.756ZM149.163 89.9697C149.363 89.9697 149.534 90.0356 149.675 90.1675C149.822 90.2944 149.895 90.4946 149.895 90.7681C149.895 91.0366 149.822 91.2368 149.675 91.3687C149.534 91.5005 149.363 91.5664 149.163 91.5664C148.953 91.5664 148.777 91.5005 148.635 91.3687C148.499 91.2368 148.43 91.0366 148.43 90.7681C148.43 90.4946 148.499 90.2944 148.635 90.1675C148.777 90.0356 148.953 89.9697 149.163 89.9697ZM154.927 100.15C155.127 100.15 155.332 100.133 155.542 100.099C155.752 100.065 155.923 100.023 156.055 99.9746V100.919C155.913 100.983 155.715 101.037 155.461 101.081C155.212 101.125 154.968 101.146 154.729 101.146C154.304 101.146 153.918 101.073 153.572 100.927C153.225 100.775 152.947 100.521 152.737 100.165C152.532 99.8086 152.429 99.3154 152.429 98.6855V93.9248H151.287V93.3315L152.437 92.8555L152.92 91.1123H153.652V92.9727H156.003V93.9248H153.652V98.6489C153.652 99.1519 153.767 99.5278 153.997 99.7769C154.231 100.026 154.541 100.15 154.927 100.15ZM160.896 101.146C160.173 101.146 159.536 100.998 158.984 100.7C158.433 100.402 158.003 99.9478 157.695 99.3374C157.388 98.7271 157.234 97.958 157.234 97.0303C157.234 96.0586 157.395 95.2651 157.717 94.6499C158.044 94.0298 158.494 93.5708 159.065 93.2729C159.636 92.9751 160.286 92.8262 161.013 92.8262C161.414 92.8262 161.799 92.8677 162.17 92.9507C162.546 93.0288 162.854 93.1289 163.093 93.251L162.727 94.269C162.483 94.1714 162.2 94.0835 161.877 94.0054C161.56 93.9272 161.262 93.8882 160.984 93.8882C160.427 93.8882 159.963 94.0078 159.592 94.2471C159.226 94.4863 158.95 94.8379 158.765 95.3018C158.584 95.7656 158.494 96.3369 158.494 97.0156C158.494 97.665 158.582 98.2192 158.757 98.6782C158.938 99.1372 159.204 99.4888 159.556 99.7329C159.912 99.9722 160.356 100.092 160.889 100.092C161.313 100.092 161.697 100.048 162.039 99.96C162.38 99.8672 162.69 99.7598 162.969 99.6377V100.722C162.7 100.858 162.4 100.963 162.068 101.037C161.741 101.11 161.35 101.146 160.896 101.146ZM171.794 96.9717C171.794 97.6309 171.709 98.2192 171.538 98.7368C171.367 99.2544 171.121 99.6914 170.798 100.048C170.476 100.404 170.085 100.678 169.626 100.868C169.172 101.054 168.657 101.146 168.081 101.146C167.544 101.146 167.051 101.054 166.602 100.868C166.157 100.678 165.771 100.404 165.444 100.048C165.122 99.6914 164.871 99.2544 164.69 98.7368C164.514 98.2192 164.426 97.6309 164.426 96.9717C164.426 96.0928 164.575 95.3457 164.873 94.7305C165.171 94.1104 165.596 93.6392 166.147 93.3169C166.704 92.9897 167.366 92.8262 168.132 92.8262C168.865 92.8262 169.504 92.9897 170.051 93.3169C170.603 93.644 171.03 94.1177 171.333 94.7378C171.641 95.353 171.794 96.0977 171.794 96.9717ZM165.686 96.9717C165.686 97.6162 165.771 98.1753 165.942 98.6489C166.113 99.1226 166.377 99.4888 166.733 99.7476C167.09 100.006 167.549 100.136 168.11 100.136C168.667 100.136 169.124 100.006 169.48 99.7476C169.841 99.4888 170.107 99.1226 170.278 98.6489C170.449 98.1753 170.535 97.6162 170.535 96.9717C170.535 96.332 170.449 95.7803 170.278 95.3164C170.107 94.8477 169.844 94.4863 169.487 94.2324C169.131 93.9785 168.669 93.8516 168.103 93.8516C167.268 93.8516 166.655 94.1274 166.265 94.6792C165.879 95.231 165.686 95.9951 165.686 96.9717ZM175.112 92.9727V101H173.896V92.9727H175.112ZM174.519 89.9697C174.719 89.9697 174.89 90.0356 175.032 90.1675C175.178 90.2944 175.251 90.4946 175.251 90.7681C175.251 91.0366 175.178 91.2368 175.032 91.3687C174.89 91.5005 174.719 91.5664 174.519 91.5664C174.309 91.5664 174.133 91.5005 173.992 91.3687C173.855 91.2368 173.787 91.0366 173.787 90.7681C173.787 90.4946 173.855 90.2944 173.992 90.1675C174.133 90.0356 174.309 89.9697 174.519 89.9697ZM181.492 92.8262C182.444 92.8262 183.164 93.0605 183.652 93.5293C184.141 93.9932 184.385 94.7402 184.385 95.7705V101H183.184V95.8511C183.184 95.1821 183.03 94.6816 182.722 94.3496C182.419 94.0176 181.953 93.8516 181.323 93.8516C180.435 93.8516 179.81 94.103 179.448 94.606C179.087 95.1089 178.906 95.8389 178.906 96.7959V101H177.69V92.9727H178.672L178.855 94.1299H178.921C179.092 93.8467 179.309 93.6099 179.573 93.4194C179.836 93.2241 180.132 93.0776 180.459 92.98C180.786 92.8774 181.13 92.8262 181.492 92.8262ZM192.083 98.8027C192.083 99.3154 191.953 99.7476 191.694 100.099C191.44 100.446 191.074 100.707 190.596 100.883C190.122 101.059 189.556 101.146 188.896 101.146C188.335 101.146 187.849 101.103 187.439 101.015C187.029 100.927 186.67 100.802 186.362 100.641V99.5205C186.689 99.6816 187.08 99.8281 187.534 99.96C187.988 100.092 188.452 100.158 188.926 100.158C189.619 100.158 190.122 100.045 190.435 99.8208C190.747 99.5962 190.903 99.291 190.903 98.9053C190.903 98.6855 190.84 98.4927 190.713 98.3267C190.591 98.1558 190.383 97.9922 190.09 97.8359C189.797 97.6748 189.392 97.499 188.875 97.3086C188.362 97.1133 187.917 96.9204 187.542 96.73C187.17 96.5347 186.882 96.2979 186.677 96.0195C186.477 95.7412 186.377 95.3799 186.377 94.9355C186.377 94.2568 186.65 93.7368 187.197 93.3755C187.749 93.0093 188.472 92.8262 189.365 92.8262C189.849 92.8262 190.3 92.875 190.72 92.9727C191.145 93.0654 191.541 93.1924 191.907 93.3535L191.497 94.3276C191.165 94.186 190.811 94.0664 190.435 93.9688C190.059 93.8711 189.675 93.8223 189.285 93.8223C188.723 93.8223 188.291 93.915 187.988 94.1006C187.69 94.2861 187.542 94.54 187.542 94.8623C187.542 95.1113 187.61 95.3164 187.747 95.4775C187.888 95.6387 188.113 95.79 188.42 95.9316C188.728 96.0732 189.133 96.2393 189.636 96.4297C190.139 96.6152 190.574 96.8081 190.94 97.0083C191.306 97.2036 191.587 97.4429 191.782 97.7261C191.982 98.0044 192.083 98.3633 192.083 98.8027ZM200.938 92.8408C201.895 92.8408 202.605 93.0557 203.069 93.4854C203.533 93.915 203.765 94.6011 203.765 95.5435V101H202.878L202.644 99.8135H202.585C202.361 100.106 202.126 100.353 201.882 100.553C201.638 100.749 201.355 100.897 201.033 101C200.715 101.098 200.325 101.146 199.861 101.146C199.373 101.146 198.938 101.061 198.557 100.89C198.181 100.719 197.883 100.46 197.664 100.114C197.449 99.7671 197.341 99.3276 197.341 98.7954C197.341 97.9946 197.659 97.3794 198.293 96.9497C198.928 96.52 199.895 96.2856 201.194 96.2466L202.578 96.188V95.6973C202.578 95.0039 202.429 94.5181 202.131 94.2397C201.833 93.9614 201.414 93.8223 200.872 93.8223C200.452 93.8223 200.051 93.8833 199.67 94.0054C199.29 94.1274 198.928 94.2715 198.586 94.4375L198.213 93.5146C198.574 93.3291 198.989 93.1704 199.458 93.0386C199.927 92.9067 200.42 92.8408 200.938 92.8408ZM202.563 97.0449L201.34 97.0962C200.339 97.1353 199.634 97.2988 199.224 97.5869C198.813 97.875 198.608 98.2827 198.608 98.8101C198.608 99.269 198.748 99.6084 199.026 99.8281C199.304 100.048 199.673 100.158 200.132 100.158C200.845 100.158 201.428 99.96 201.882 99.5645C202.336 99.1689 202.563 98.5757 202.563 97.7847V97.0449ZM211.462 98.8027C211.462 99.3154 211.333 99.7476 211.074 100.099C210.82 100.446 210.454 100.707 209.976 100.883C209.502 101.059 208.936 101.146 208.276 101.146C207.715 101.146 207.229 101.103 206.819 101.015C206.409 100.927 206.05 100.802 205.742 100.641V99.5205C206.069 99.6816 206.46 99.8281 206.914 99.96C207.368 100.092 207.832 100.158 208.306 100.158C208.999 100.158 209.502 100.045 209.814 99.8208C210.127 99.5962 210.283 99.291 210.283 98.9053C210.283 98.6855 210.22 98.4927 210.093 98.3267C209.971 98.1558 209.763 97.9922 209.47 97.8359C209.177 97.6748 208.772 97.499 208.254 97.3086C207.742 97.1133 207.297 96.9204 206.921 96.73C206.55 96.5347 206.262 96.2979 206.057 96.0195C205.857 95.7412 205.757 95.3799 205.757 94.9355C205.757 94.2568 206.03 93.7368 206.577 93.3755C207.129 93.0093 207.852 92.8262 208.745 92.8262C209.229 92.8262 209.68 92.875 210.1 92.9727C210.525 93.0654 210.92 93.1924 211.287 93.3535L210.876 94.3276C210.544 94.186 210.19 94.0664 209.814 93.9688C209.438 93.8711 209.055 93.8223 208.665 93.8223C208.103 93.8223 207.671 93.915 207.368 94.1006C207.07 94.2861 206.921 94.54 206.921 94.8623C206.921 95.1113 206.99 95.3164 207.126 95.4775C207.268 95.6387 207.493 95.79 207.8 95.9316C208.108 96.0732 208.513 96.2393 209.016 96.4297C209.519 96.6152 209.954 96.8081 210.32 97.0083C210.686 97.2036 210.967 97.4429 211.162 97.7261C211.362 98.0044 211.462 98.3633 211.462 98.8027ZM221.086 92.8262C222.087 92.8262 222.886 93.1704 223.481 93.8589C224.077 94.5474 224.375 95.5825 224.375 96.9644C224.375 97.8774 224.238 98.644 223.965 99.2642C223.691 99.8843 223.306 100.353 222.808 100.67C222.314 100.988 221.731 101.146 221.057 101.146C220.632 101.146 220.259 101.09 219.937 100.978C219.614 100.866 219.338 100.714 219.109 100.524C218.879 100.333 218.689 100.126 218.538 99.9014H218.45C218.464 100.092 218.481 100.321 218.501 100.59C218.525 100.858 218.538 101.093 218.538 101.293V104.589H217.314V92.9727H218.318L218.479 94.1592H218.538C218.694 93.915 218.884 93.6929 219.109 93.4927C219.333 93.2876 219.607 93.1265 219.929 93.0093C220.256 92.8872 220.642 92.8262 221.086 92.8262ZM220.874 93.8516C220.317 93.8516 219.868 93.959 219.526 94.1738C219.189 94.3887 218.943 94.7109 218.787 95.1406C218.63 95.5654 218.547 96.1001 218.538 96.7446V96.979C218.538 97.6577 218.611 98.2314 218.757 98.7002C218.909 99.1689 219.155 99.5254 219.497 99.7695C219.844 100.014 220.308 100.136 220.889 100.136C221.387 100.136 221.802 100.001 222.134 99.7329C222.466 99.4644 222.712 99.0908 222.874 98.6123C223.04 98.1289 223.123 97.5747 223.123 96.9497C223.123 96.0024 222.937 95.2505 222.566 94.6938C222.2 94.1323 221.636 93.8516 220.874 93.8516ZM229.59 92.8262C230.273 92.8262 230.859 92.9775 231.348 93.2803C231.836 93.583 232.209 94.0078 232.468 94.5547C232.727 95.0967 232.856 95.7314 232.856 96.459V97.2134H227.312C227.327 98.1558 227.561 98.8735 228.015 99.3667C228.469 99.8599 229.109 100.106 229.934 100.106C230.442 100.106 230.891 100.06 231.282 99.9673C231.672 99.8745 232.078 99.7378 232.498 99.5571V100.626C232.092 100.807 231.689 100.939 231.289 101.022C230.894 101.105 230.425 101.146 229.883 101.146C229.111 101.146 228.438 100.99 227.861 100.678C227.29 100.36 226.846 99.8965 226.528 99.2861C226.211 98.6758 226.052 97.9287 226.052 97.0449C226.052 96.1807 226.196 95.4336 226.484 94.8037C226.777 94.1689 227.188 93.6807 227.715 93.3389C228.247 92.9971 228.872 92.8262 229.59 92.8262ZM229.575 93.8223C228.926 93.8223 228.408 94.0347 228.022 94.4595C227.637 94.8843 227.407 95.4775 227.334 96.2393H231.582C231.577 95.7607 231.501 95.3408 231.355 94.9795C231.213 94.6133 230.996 94.3301 230.703 94.1299C230.41 93.9248 230.034 93.8223 229.575 93.8223ZM238.569 92.8262C238.73 92.8262 238.899 92.8359 239.075 92.8555C239.25 92.8701 239.407 92.8921 239.543 92.9214L239.39 94.0493C239.258 94.0151 239.111 93.9883 238.95 93.9688C238.789 93.9492 238.638 93.9395 238.496 93.9395C238.174 93.9395 237.869 94.0054 237.581 94.1372C237.297 94.2642 237.048 94.4497 236.833 94.6938C236.619 94.9331 236.45 95.2236 236.328 95.5654C236.206 95.9023 236.145 96.2783 236.145 96.6934V101H234.922V92.9727H235.933L236.064 94.4521H236.116C236.282 94.1543 236.482 93.8833 236.716 93.6392C236.951 93.3901 237.222 93.1924 237.529 93.0459C237.842 92.8994 238.188 92.8262 238.569 92.8262ZM29.2871 112.826C29.4482 112.826 29.6167 112.836 29.7925 112.855C29.9683 112.87 30.1245 112.892 30.2612 112.921L30.1074 114.049C29.9756 114.015 29.8291 113.988 29.668 113.969C29.5068 113.949 29.3555 113.939 29.2139 113.939C28.8916 113.939 28.5864 114.005 28.2983 114.137C28.0151 114.264 27.7661 114.45 27.5513 114.694C27.3364 114.933 27.168 115.224 27.0459 115.565C26.9238 115.902 26.8628 116.278 26.8628 116.693V121H25.6396V112.973H26.6504L26.7822 114.452H26.8335C26.9995 114.154 27.1997 113.883 27.4341 113.639C27.6685 113.39 27.9395 113.192 28.2471 113.046C28.5596 112.899 28.9062 112.826 29.2871 112.826ZM34.8682 112.826C35.5518 112.826 36.1377 112.978 36.626 113.28C37.1143 113.583 37.4878 114.008 37.7466 114.555C38.0054 115.097 38.1348 115.731 38.1348 116.459V117.213H32.5903C32.605 118.156 32.8394 118.874 33.2935 119.367C33.7476 119.86 34.3872 120.106 35.2124 120.106C35.7202 120.106 36.1694 120.06 36.5601 119.967C36.9507 119.875 37.356 119.738 37.7759 119.557V120.626C37.3706 120.807 36.9678 120.939 36.5674 121.022C36.1719 121.105 35.7031 121.146 35.1611 121.146C34.3896 121.146 33.7158 120.99 33.1396 120.678C32.5684 120.36 32.124 119.896 31.8066 119.286C31.4893 118.676 31.3306 117.929 31.3306 117.045C31.3306 116.181 31.4746 115.434 31.7627 114.804C32.0557 114.169 32.4658 113.681 32.9932 113.339C33.5254 112.997 34.1504 112.826 34.8682 112.826ZM34.8535 113.822C34.2041 113.822 33.6865 114.035 33.3008 114.459C32.915 114.884 32.6855 115.478 32.6123 116.239H36.8604C36.8555 115.761 36.7798 115.341 36.6333 114.979C36.4917 114.613 36.2744 114.33 35.9814 114.13C35.6885 113.925 35.3125 113.822 34.8535 113.822ZM43.4155 121.146C42.6929 121.146 42.0557 120.998 41.5039 120.7C40.9521 120.402 40.5225 119.948 40.2148 119.337C39.9072 118.727 39.7534 117.958 39.7534 117.03C39.7534 116.059 39.9146 115.265 40.2368 114.65C40.564 114.03 41.0132 113.571 41.5845 113.273C42.1558 112.975 42.8052 112.826 43.5327 112.826C43.9331 112.826 44.3188 112.868 44.6899 112.951C45.0659 113.029 45.3735 113.129 45.6128 113.251L45.2466 114.269C45.0024 114.171 44.7192 114.083 44.397 114.005C44.0796 113.927 43.7817 113.888 43.5034 113.888C42.9468 113.888 42.4829 114.008 42.1118 114.247C41.7456 114.486 41.4697 114.838 41.2842 115.302C41.1035 115.766 41.0132 116.337 41.0132 117.016C41.0132 117.665 41.1011 118.219 41.2769 118.678C41.4575 119.137 41.7236 119.489 42.0752 119.733C42.4316 119.972 42.876 120.092 43.4082 120.092C43.833 120.092 44.2163 120.048 44.5581 119.96C44.8999 119.867 45.21 119.76 45.4883 119.638V120.722C45.2197 120.858 44.9194 120.963 44.5874 121.037C44.2603 121.11 43.8696 121.146 43.4155 121.146ZM54.314 116.972C54.314 117.631 54.2285 118.219 54.0576 118.737C53.8867 119.254 53.6401 119.691 53.3179 120.048C52.9956 120.404 52.605 120.678 52.146 120.868C51.6919 121.054 51.1768 121.146 50.6006 121.146C50.0635 121.146 49.5703 121.054 49.1211 120.868C48.6768 120.678 48.291 120.404 47.9639 120.048C47.6416 119.691 47.3901 119.254 47.2095 118.737C47.0337 118.219 46.9458 117.631 46.9458 116.972C46.9458 116.093 47.0947 115.346 47.3926 114.73C47.6904 114.11 48.1152 113.639 48.667 113.317C49.2236 112.99 49.8853 112.826 50.6519 112.826C51.3843 112.826 52.0239 112.99 52.5708 113.317C53.1226 113.644 53.5498 114.118 53.8525 114.738C54.1602 115.353 54.314 116.098 54.314 116.972ZM48.2056 116.972C48.2056 117.616 48.291 118.175 48.4619 118.649C48.6328 119.123 48.8965 119.489 49.2529 119.748C49.6094 120.006 50.0684 120.136 50.6299 120.136C51.1865 120.136 51.6431 120.006 51.9995 119.748C52.3608 119.489 52.627 119.123 52.7979 118.649C52.9688 118.175 53.0542 117.616 53.0542 116.972C53.0542 116.332 52.9688 115.78 52.7979 115.316C52.627 114.848 52.3633 114.486 52.0068 114.232C51.6504 113.979 51.189 113.852 50.6226 113.852C49.7876 113.852 49.1748 114.127 48.7842 114.679C48.3984 115.231 48.2056 115.995 48.2056 116.972ZM65.1318 112.826C66.0156 112.826 66.6821 113.058 67.1313 113.522C67.5806 113.981 67.8052 114.721 67.8052 115.741V121H66.604V115.8C66.604 115.15 66.4624 114.665 66.1792 114.342C65.9009 114.015 65.4858 113.852 64.9341 113.852C64.1577 113.852 63.5938 114.076 63.2422 114.525C62.8906 114.975 62.7148 115.636 62.7148 116.51V121H61.5063V115.8C61.5063 115.365 61.4429 115.004 61.3159 114.716C61.1938 114.428 61.0083 114.213 60.7593 114.071C60.5151 113.925 60.2051 113.852 59.8291 113.852C59.2969 113.852 58.8696 113.961 58.5474 114.181C58.2251 114.401 57.9907 114.728 57.8442 115.163C57.7026 115.592 57.6318 116.122 57.6318 116.752V121H56.416V112.973H57.3975L57.5806 114.108H57.6465C57.8076 113.83 58.0103 113.595 58.2544 113.405C58.4985 113.214 58.772 113.07 59.0747 112.973C59.3774 112.875 59.6997 112.826 60.0415 112.826C60.6519 112.826 61.1621 112.941 61.5723 113.17C61.9873 113.395 62.2876 113.739 62.4731 114.203H62.5391C62.8027 113.739 63.1641 113.395 63.623 113.17C64.082 112.941 64.585 112.826 65.1318 112.826ZM79.0186 112.826C79.9023 112.826 80.5688 113.058 81.0181 113.522C81.4673 113.981 81.6919 114.721 81.6919 115.741V121H80.4907V115.8C80.4907 115.15 80.3491 114.665 80.0659 114.342C79.7876 114.015 79.3726 113.852 78.8208 113.852C78.0444 113.852 77.4805 114.076 77.1289 114.525C76.7773 114.975 76.6016 115.636 76.6016 116.51V121H75.3931V115.8C75.3931 115.365 75.3296 115.004 75.2026 114.716C75.0806 114.428 74.895 114.213 74.646 114.071C74.4019 113.925 74.0918 113.852 73.7158 113.852C73.1836 113.852 72.7563 113.961 72.4341 114.181C72.1118 114.401 71.8774 114.728 71.731 115.163C71.5894 115.592 71.5186 116.122 71.5186 116.752V121H70.3027V112.973H71.2842L71.4673 114.108H71.5332C71.6943 113.83 71.897 113.595 72.1411 113.405C72.3853 113.214 72.6587 113.07 72.9614 112.973C73.2642 112.875 73.5864 112.826 73.9282 112.826C74.5386 112.826 75.0488 112.941 75.459 113.17C75.874 113.395 76.1743 113.739 76.3599 114.203H76.4258C76.6895 113.739 77.0508 113.395 77.5098 113.17C77.9688 112.941 78.4717 112.826 79.0186 112.826ZM87.2803 112.826C87.9639 112.826 88.5498 112.978 89.0381 113.28C89.5264 113.583 89.8999 114.008 90.1587 114.555C90.4175 115.097 90.5469 115.731 90.5469 116.459V117.213H85.0024C85.0171 118.156 85.2515 118.874 85.7056 119.367C86.1597 119.86 86.7993 120.106 87.6245 120.106C88.1323 120.106 88.5815 120.06 88.9722 119.967C89.3628 119.875 89.7681 119.738 90.188 119.557V120.626C89.7827 120.807 89.3799 120.939 88.9795 121.022C88.584 121.105 88.1152 121.146 87.5732 121.146C86.8018 121.146 86.1279 120.99 85.5518 120.678C84.9805 120.36 84.5361 119.896 84.2188 119.286C83.9014 118.676 83.7427 117.929 83.7427 117.045C83.7427 116.181 83.8867 115.434 84.1748 114.804C84.4678 114.169 84.8779 113.681 85.4053 113.339C85.9375 112.997 86.5625 112.826 87.2803 112.826ZM87.2656 113.822C86.6162 113.822 86.0986 114.035 85.7129 114.459C85.3271 114.884 85.0977 115.478 85.0244 116.239H89.2725C89.2676 115.761 89.1919 115.341 89.0454 114.979C88.9038 114.613 88.6865 114.33 88.3936 114.13C88.1006 113.925 87.7246 113.822 87.2656 113.822ZM96.4136 112.826C97.3657 112.826 98.0859 113.061 98.5742 113.529C99.0625 113.993 99.3066 114.74 99.3066 115.771V121H98.1055V115.851C98.1055 115.182 97.9517 114.682 97.644 114.35C97.3413 114.018 96.875 113.852 96.2451 113.852C95.3564 113.852 94.7314 114.103 94.3701 114.606C94.0088 115.109 93.8281 115.839 93.8281 116.796V121H92.6123V112.973H93.5938L93.7769 114.13H93.8428C94.0137 113.847 94.231 113.61 94.4946 113.419C94.7583 113.224 95.0537 113.078 95.3809 112.98C95.708 112.877 96.0522 112.826 96.4136 112.826ZM104.668 121.146C103.652 121.146 102.847 120.8 102.251 120.106C101.66 119.413 101.365 118.383 101.365 117.016C101.365 115.634 101.667 114.591 102.273 113.888C102.878 113.18 103.684 112.826 104.69 112.826C105.115 112.826 105.486 112.882 105.803 112.995C106.121 113.107 106.394 113.258 106.624 113.449C106.853 113.634 107.046 113.847 107.202 114.086H107.29C107.271 113.935 107.251 113.727 107.231 113.463C107.212 113.2 107.202 112.985 107.202 112.819V109.604H108.418V121H107.437L107.253 119.857H107.202C107.051 120.097 106.858 120.314 106.624 120.509C106.394 120.705 106.118 120.861 105.796 120.978C105.479 121.09 105.103 121.146 104.668 121.146ZM104.858 120.136C105.718 120.136 106.326 119.892 106.682 119.403C107.039 118.915 107.217 118.19 107.217 117.228V117.008C107.217 115.988 107.046 115.204 106.704 114.657C106.367 114.11 105.752 113.837 104.858 113.837C104.111 113.837 103.552 114.125 103.181 114.701C102.81 115.272 102.625 116.054 102.625 117.045C102.625 118.031 102.808 118.793 103.174 119.33C103.545 119.867 104.106 120.136 104.858 120.136ZM114.087 112.826C114.771 112.826 115.356 112.978 115.845 113.28C116.333 113.583 116.707 114.008 116.965 114.555C117.224 115.097 117.354 115.731 117.354 116.459V117.213H111.809C111.824 118.156 112.058 118.874 112.512 119.367C112.966 119.86 113.606 120.106 114.431 120.106C114.939 120.106 115.388 120.06 115.779 119.967C116.169 119.875 116.575 119.738 116.995 119.557V120.626C116.589 120.807 116.187 120.939 115.786 121.022C115.391 121.105 114.922 121.146 114.38 121.146C113.608 121.146 112.935 120.99 112.358 120.678C111.787 120.36 111.343 119.896 111.025 119.286C110.708 118.676 110.549 117.929 110.549 117.045C110.549 116.181 110.693 115.434 110.981 114.804C111.274 114.169 111.685 113.681 112.212 113.339C112.744 112.997 113.369 112.826 114.087 112.826ZM114.072 113.822C113.423 113.822 112.905 114.035 112.52 114.459C112.134 114.884 111.904 115.478 111.831 116.239H116.079C116.074 115.761 115.999 115.341 115.852 114.979C115.71 114.613 115.493 114.33 115.2 114.13C114.907 113.925 114.531 113.822 114.072 113.822ZM122.275 121.146C121.26 121.146 120.454 120.8 119.858 120.106C119.268 119.413 118.972 118.383 118.972 117.016C118.972 115.634 119.275 114.591 119.88 113.888C120.486 113.18 121.292 112.826 122.297 112.826C122.722 112.826 123.093 112.882 123.411 112.995C123.728 113.107 124.001 113.258 124.231 113.449C124.46 113.634 124.653 113.847 124.81 114.086H124.897C124.878 113.935 124.858 113.727 124.839 113.463C124.819 113.2 124.81 112.985 124.81 112.819V109.604H126.025V121H125.044L124.861 119.857H124.81C124.658 120.097 124.465 120.314 124.231 120.509C124.001 120.705 123.726 120.861 123.403 120.978C123.086 121.09 122.71 121.146 122.275 121.146ZM122.466 120.136C123.325 120.136 123.933 119.892 124.29 119.403C124.646 118.915 124.824 118.19 124.824 117.228V117.008C124.824 115.988 124.653 115.204 124.312 114.657C123.975 114.11 123.359 113.837 122.466 113.837C121.719 113.837 121.16 114.125 120.789 114.701C120.417 115.272 120.232 116.054 120.232 117.045C120.232 118.031 120.415 118.793 120.781 119.33C121.152 119.867 121.714 120.136 122.466 120.136ZM135.093 120.15C135.293 120.15 135.498 120.133 135.708 120.099C135.918 120.065 136.089 120.023 136.221 119.975V120.919C136.079 120.983 135.881 121.037 135.627 121.081C135.378 121.125 135.134 121.146 134.895 121.146C134.47 121.146 134.084 121.073 133.738 120.927C133.391 120.775 133.113 120.521 132.903 120.165C132.698 119.809 132.595 119.315 132.595 118.686V113.925H131.453V113.332L132.603 112.855L133.086 111.112H133.818V112.973H136.169V113.925H133.818V118.649C133.818 119.152 133.933 119.528 134.163 119.777C134.397 120.026 134.707 120.15 135.093 120.15ZM139.062 112.973V121H137.847V112.973H139.062ZM138.469 109.97C138.669 109.97 138.84 110.036 138.982 110.167C139.128 110.294 139.202 110.495 139.202 110.768C139.202 111.037 139.128 111.237 138.982 111.369C138.84 111.5 138.669 111.566 138.469 111.566C138.259 111.566 138.083 111.5 137.942 111.369C137.805 111.237 137.737 111.037 137.737 110.768C137.737 110.495 137.805 110.294 137.942 110.167C138.083 110.036 138.259 109.97 138.469 109.97ZM150.356 112.826C151.24 112.826 151.907 113.058 152.356 113.522C152.805 113.981 153.03 114.721 153.03 115.741V121H151.829V115.8C151.829 115.15 151.687 114.665 151.404 114.342C151.125 114.015 150.71 113.852 150.159 113.852C149.382 113.852 148.818 114.076 148.467 114.525C148.115 114.975 147.939 115.636 147.939 116.51V121H146.731V115.8C146.731 115.365 146.667 115.004 146.541 114.716C146.418 114.428 146.233 114.213 145.984 114.071C145.74 113.925 145.43 113.852 145.054 113.852C144.521 113.852 144.094 113.961 143.772 114.181C143.45 114.401 143.215 114.728 143.069 115.163C142.927 115.592 142.856 116.122 142.856 116.752V121H141.641V112.973H142.622L142.805 114.108H142.871C143.032 113.83 143.235 113.595 143.479 113.405C143.723 113.214 143.997 113.07 144.299 112.973C144.602 112.875 144.924 112.826 145.266 112.826C145.876 112.826 146.387 112.941 146.797 113.17C147.212 113.395 147.512 113.739 147.698 114.203H147.764C148.027 113.739 148.389 113.395 148.848 113.17C149.307 112.941 149.81 112.826 150.356 112.826ZM158.618 112.826C159.302 112.826 159.888 112.978 160.376 113.28C160.864 113.583 161.238 114.008 161.497 114.555C161.755 115.097 161.885 115.731 161.885 116.459V117.213H156.34C156.355 118.156 156.589 118.874 157.043 119.367C157.498 119.86 158.137 120.106 158.962 120.106C159.47 120.106 159.919 120.06 160.31 119.967C160.701 119.875 161.106 119.738 161.526 119.557V120.626C161.121 120.807 160.718 120.939 160.317 121.022C159.922 121.105 159.453 121.146 158.911 121.146C158.14 121.146 157.466 120.99 156.89 120.678C156.318 120.36 155.874 119.896 155.557 119.286C155.239 118.676 155.081 117.929 155.081 117.045C155.081 116.181 155.225 115.434 155.513 114.804C155.806 114.169 156.216 113.681 156.743 113.339C157.275 112.997 157.9 112.826 158.618 112.826ZM158.604 113.822C157.954 113.822 157.437 114.035 157.051 114.459C156.665 114.884 156.436 115.478 156.362 116.239H160.61C160.605 115.761 160.53 115.341 160.383 114.979C160.242 114.613 160.024 114.33 159.731 114.13C159.438 113.925 159.062 113.822 158.604 113.822ZM165.173 121H163.95V109.604H165.173V121ZM168.96 112.973V121H167.744V112.973H168.96ZM168.367 109.97C168.567 109.97 168.738 110.036 168.879 110.167C169.026 110.294 169.099 110.495 169.099 110.768C169.099 111.037 169.026 111.237 168.879 111.369C168.738 111.5 168.567 111.566 168.367 111.566C168.157 111.566 167.981 111.5 167.839 111.369C167.703 111.237 167.634 111.037 167.634 110.768C167.634 110.495 167.703 110.294 167.839 110.167C167.981 110.036 168.157 109.97 168.367 109.97ZM175.339 112.826C176.292 112.826 177.012 113.061 177.5 113.529C177.988 113.993 178.232 114.74 178.232 115.771V121H177.031V115.851C177.031 115.182 176.877 114.682 176.57 114.35C176.267 114.018 175.801 113.852 175.171 113.852C174.282 113.852 173.657 114.103 173.296 114.606C172.935 115.109 172.754 115.839 172.754 116.796V121H171.538V112.973H172.52L172.703 114.13H172.769C172.939 113.847 173.157 113.61 173.42 113.419C173.684 113.224 173.979 113.078 174.307 112.98C174.634 112.877 174.978 112.826 175.339 112.826ZM183.828 112.826C184.512 112.826 185.098 112.978 185.586 113.28C186.074 113.583 186.448 114.008 186.707 114.555C186.965 115.097 187.095 115.731 187.095 116.459V117.213H181.55C181.565 118.156 181.799 118.874 182.253 119.367C182.708 119.86 183.347 120.106 184.172 120.106C184.68 120.106 185.129 120.06 185.52 119.967C185.911 119.875 186.316 119.738 186.736 119.557V120.626C186.331 120.807 185.928 120.939 185.527 121.022C185.132 121.105 184.663 121.146 184.121 121.146C183.35 121.146 182.676 120.99 182.1 120.678C181.528 120.36 181.084 119.896 180.767 119.286C180.449 118.676 180.291 117.929 180.291 117.045C180.291 116.181 180.435 115.434 180.723 114.804C181.016 114.169 181.426 113.681 181.953 113.339C182.485 112.997 183.11 112.826 183.828 112.826ZM183.813 113.822C183.164 113.822 182.646 114.035 182.261 114.459C181.875 114.884 181.646 115.478 181.572 116.239H185.82C185.815 115.761 185.74 115.341 185.593 114.979C185.452 114.613 185.234 114.33 184.941 114.13C184.648 113.925 184.272 113.822 183.813 113.822ZM194.353 118.803C194.353 119.315 194.224 119.748 193.965 120.099C193.711 120.446 193.345 120.707 192.866 120.883C192.393 121.059 191.826 121.146 191.167 121.146C190.605 121.146 190.12 121.103 189.709 121.015C189.299 120.927 188.94 120.802 188.633 120.641V119.521C188.96 119.682 189.351 119.828 189.805 119.96C190.259 120.092 190.723 120.158 191.196 120.158C191.89 120.158 192.393 120.045 192.705 119.821C193.018 119.596 193.174 119.291 193.174 118.905C193.174 118.686 193.11 118.493 192.983 118.327C192.861 118.156 192.654 117.992 192.361 117.836C192.068 117.675 191.663 117.499 191.145 117.309C190.632 117.113 190.188 116.92 189.812 116.73C189.441 116.535 189.153 116.298 188.948 116.02C188.748 115.741 188.647 115.38 188.647 114.936C188.647 114.257 188.921 113.737 189.468 113.375C190.02 113.009 190.742 112.826 191.636 112.826C192.119 112.826 192.571 112.875 192.991 112.973C193.416 113.065 193.811 113.192 194.177 113.354L193.767 114.328C193.435 114.186 193.081 114.066 192.705 113.969C192.329 113.871 191.946 113.822 191.555 113.822C190.994 113.822 190.562 113.915 190.259 114.101C189.961 114.286 189.812 114.54 189.812 114.862C189.812 115.111 189.88 115.316 190.017 115.478C190.159 115.639 190.383 115.79 190.691 115.932C190.999 116.073 191.404 116.239 191.907 116.43C192.41 116.615 192.844 116.808 193.21 117.008C193.577 117.204 193.857 117.443 194.053 117.726C194.253 118.004 194.353 118.363 194.353 118.803ZM203.208 112.841C204.165 112.841 204.875 113.056 205.339 113.485C205.803 113.915 206.035 114.601 206.035 115.543V121H205.149L204.915 119.813H204.856C204.631 120.106 204.397 120.353 204.153 120.553C203.909 120.749 203.625 120.897 203.303 121C202.986 121.098 202.595 121.146 202.131 121.146C201.643 121.146 201.208 121.061 200.828 120.89C200.452 120.719 200.154 120.46 199.934 120.114C199.719 119.767 199.612 119.328 199.612 118.795C199.612 117.995 199.929 117.379 200.564 116.95C201.199 116.52 202.166 116.286 203.464 116.247L204.849 116.188V115.697C204.849 115.004 204.7 114.518 204.402 114.24C204.104 113.961 203.684 113.822 203.142 113.822C202.722 113.822 202.322 113.883 201.941 114.005C201.56 114.127 201.199 114.271 200.857 114.438L200.483 113.515C200.845 113.329 201.26 113.17 201.729 113.039C202.197 112.907 202.69 112.841 203.208 112.841ZM204.834 117.045L203.611 117.096C202.61 117.135 201.904 117.299 201.494 117.587C201.084 117.875 200.879 118.283 200.879 118.81C200.879 119.269 201.018 119.608 201.296 119.828C201.575 120.048 201.943 120.158 202.402 120.158C203.115 120.158 203.699 119.96 204.153 119.564C204.607 119.169 204.834 118.576 204.834 117.785V117.045ZM212.341 112.826C213.293 112.826 214.014 113.061 214.502 113.529C214.99 113.993 215.234 114.74 215.234 115.771V121H214.033V115.851C214.033 115.182 213.879 114.682 213.572 114.35C213.269 114.018 212.803 113.852 212.173 113.852C211.284 113.852 210.659 114.103 210.298 114.606C209.937 115.109 209.756 115.839 209.756 116.796V121H208.54V112.973H209.521L209.705 114.13H209.771C209.941 113.847 210.159 113.61 210.422 113.419C210.686 113.224 210.981 113.078 211.309 112.98C211.636 112.877 211.98 112.826 212.341 112.826ZM220.596 121.146C219.58 121.146 218.774 120.8 218.179 120.106C217.588 119.413 217.292 118.383 217.292 117.016C217.292 115.634 217.595 114.591 218.201 113.888C218.806 113.18 219.612 112.826 220.618 112.826C221.042 112.826 221.414 112.882 221.731 112.995C222.048 113.107 222.322 113.258 222.551 113.449C222.781 113.634 222.974 113.847 223.13 114.086H223.218C223.198 113.935 223.179 113.727 223.159 113.463C223.14 113.2 223.13 112.985 223.13 112.819V109.604H224.346V121H223.364L223.181 119.857H223.13C222.979 120.097 222.786 120.314 222.551 120.509C222.322 120.705 222.046 120.861 221.724 120.978C221.406 121.09 221.03 121.146 220.596 121.146ZM220.786 120.136C221.646 120.136 222.253 119.892 222.61 119.403C222.966 118.915 223.145 118.19 223.145 117.228V117.008C223.145 115.988 222.974 115.204 222.632 114.657C222.295 114.11 221.68 113.837 220.786 113.837C220.039 113.837 219.48 114.125 219.109 114.701C218.738 115.272 218.552 116.054 218.552 117.045C218.552 118.031 218.735 118.793 219.102 119.33C219.473 119.867 220.034 120.136 220.786 120.136ZM11.9214 129.604V132.453C11.9214 132.78 11.9116 133.097 11.8921 133.405C11.8774 133.712 11.8652 133.952 11.8555 134.123H11.9214C12.1411 133.761 12.4585 133.456 12.8735 133.207C13.2886 132.958 13.8184 132.833 14.4629 132.833C15.4688 132.833 16.2695 133.183 16.8652 133.881C17.4658 134.574 17.7661 135.607 17.7661 136.979C17.7661 137.882 17.6294 138.644 17.356 139.264C17.0825 139.884 16.6968 140.353 16.1987 140.67C15.7007 140.988 15.1123 141.146 14.4336 141.146C13.7988 141.146 13.2764 141.029 12.8662 140.795C12.4609 140.556 12.1484 140.265 11.9287 139.923H11.8335L11.5845 141H10.7056V129.604H11.9214ZM14.2651 133.852C13.6841 133.852 13.2227 133.966 12.8809 134.196C12.5391 134.42 12.2925 134.762 12.1411 135.221C11.9946 135.675 11.9214 136.251 11.9214 136.95V137.016C11.9214 138.026 12.0898 138.8 12.4268 139.337C12.7637 139.87 13.3765 140.136 14.2651 140.136C15.0122 140.136 15.5713 139.862 15.9424 139.315C16.3184 138.769 16.5063 137.987 16.5063 136.972C16.5063 135.937 16.3208 135.158 15.9497 134.635C15.5835 134.113 15.022 133.852 14.2651 133.852ZM21.106 132.973V141H19.8901V132.973H21.106ZM20.5127 129.97C20.7129 129.97 20.8838 130.036 21.0254 130.167C21.1719 130.294 21.2451 130.495 21.2451 130.768C21.2451 131.037 21.1719 131.237 21.0254 131.369C20.8838 131.5 20.7129 131.566 20.5127 131.566C20.3027 131.566 20.127 131.5 19.9854 131.369C19.8486 131.237 19.7803 131.037 19.7803 130.768C19.7803 130.495 19.8486 130.294 19.9854 130.167C20.127 130.036 20.3027 129.97 20.5127 129.97ZM26.2769 140.15C26.4771 140.15 26.6821 140.133 26.8921 140.099C27.1021 140.065 27.2729 140.023 27.4048 139.975V140.919C27.2632 140.983 27.0654 141.037 26.8115 141.081C26.5625 141.125 26.3184 141.146 26.0791 141.146C25.6543 141.146 25.2686 141.073 24.9219 140.927C24.5752 140.775 24.2969 140.521 24.0869 140.165C23.8818 139.809 23.7793 139.315 23.7793 138.686V133.925H22.6367V133.332L23.7866 132.855L24.27 131.112H25.0024V132.973H27.3535V133.925H25.0024V138.649C25.0024 139.152 25.1172 139.528 25.3467 139.777C25.5811 140.026 25.8911 140.15 26.2769 140.15ZM32.2461 141.146C31.5234 141.146 30.8862 140.998 30.3345 140.7C29.7827 140.402 29.353 139.948 29.0454 139.337C28.7378 138.727 28.584 137.958 28.584 137.03C28.584 136.059 28.7451 135.265 29.0674 134.65C29.3945 134.03 29.8438 133.571 30.415 133.273C30.9863 132.975 31.6357 132.826 32.3633 132.826C32.7637 132.826 33.1494 132.868 33.5205 132.951C33.8965 133.029 34.2041 133.129 34.4434 133.251L34.0771 134.269C33.833 134.171 33.5498 134.083 33.2275 134.005C32.9102 133.927 32.6123 133.888 32.334 133.888C31.7773 133.888 31.3135 134.008 30.9424 134.247C30.5762 134.486 30.3003 134.838 30.1147 135.302C29.9341 135.766 29.8438 136.337 29.8438 137.016C29.8438 137.665 29.9316 138.219 30.1074 138.678C30.2881 139.137 30.5542 139.489 30.9058 139.733C31.2622 139.972 31.7065 140.092 32.2388 140.092C32.6636 140.092 33.0469 140.048 33.3887 139.96C33.7305 139.867 34.0405 139.76 34.3188 139.638V140.722C34.0503 140.858 33.75 140.963 33.418 141.037C33.0908 141.11 32.7002 141.146 32.2461 141.146ZM43.1445 136.972C43.1445 137.631 43.0591 138.219 42.8882 138.737C42.7173 139.254 42.4707 139.691 42.1484 140.048C41.8262 140.404 41.4355 140.678 40.9766 140.868C40.5225 141.054 40.0073 141.146 39.4312 141.146C38.894 141.146 38.4009 141.054 37.9517 140.868C37.5073 140.678 37.1216 140.404 36.7944 140.048C36.4722 139.691 36.2207 139.254 36.04 138.737C35.8643 138.219 35.7764 137.631 35.7764 136.972C35.7764 136.093 35.9253 135.346 36.2231 134.73C36.521 134.11 36.9458 133.639 37.4976 133.317C38.0542 132.99 38.7158 132.826 39.4824 132.826C40.2148 132.826 40.8545 132.99 41.4014 133.317C41.9531 133.644 42.3804 134.118 42.6831 134.738C42.9907 135.353 43.1445 136.098 43.1445 136.972ZM37.0361 136.972C37.0361 137.616 37.1216 138.175 37.2925 138.649C37.4634 139.123 37.7271 139.489 38.0835 139.748C38.4399 140.006 38.8989 140.136 39.4604 140.136C40.0171 140.136 40.4736 140.006 40.8301 139.748C41.1914 139.489 41.4575 139.123 41.6284 138.649C41.7993 138.175 41.8848 137.616 41.8848 136.972C41.8848 136.332 41.7993 135.78 41.6284 135.316C41.4575 134.848 41.1938 134.486 40.8374 134.232C40.481 133.979 40.0195 133.852 39.4531 133.852C38.6182 133.852 38.0054 134.127 37.6147 134.679C37.229 135.231 37.0361 135.995 37.0361 136.972ZM46.4624 132.973V141H45.2466V132.973H46.4624ZM45.8691 129.97C46.0693 129.97 46.2402 130.036 46.3818 130.167C46.5283 130.294 46.6016 130.495 46.6016 130.768C46.6016 131.037 46.5283 131.237 46.3818 131.369C46.2402 131.5 46.0693 131.566 45.8691 131.566C45.6592 131.566 45.4834 131.5 45.3418 131.369C45.2051 131.237 45.1367 131.037 45.1367 130.768C45.1367 130.495 45.2051 130.294 45.3418 130.167C45.4834 130.036 45.6592 129.97 45.8691 129.97ZM52.8418 132.826C53.7939 132.826 54.5142 133.061 55.0024 133.529C55.4907 133.993 55.7349 134.74 55.7349 135.771V141H54.5337V135.851C54.5337 135.182 54.3799 134.682 54.0723 134.35C53.7695 134.018 53.3032 133.852 52.6733 133.852C51.7847 133.852 51.1597 134.103 50.7983 134.606C50.437 135.109 50.2563 135.839 50.2563 136.796V141H49.0405V132.973H50.022L50.2051 134.13H50.271C50.4419 133.847 50.6592 133.61 50.9229 133.419C51.1865 133.224 51.4819 133.078 51.8091 132.98C52.1362 132.877 52.4805 132.826 52.8418 132.826ZM64.729 140.15C64.9292 140.15 65.1343 140.133 65.3442 140.099C65.5542 140.065 65.7251 140.023 65.8569 139.975V140.919C65.7153 140.983 65.5176 141.037 65.2637 141.081C65.0146 141.125 64.7705 141.146 64.5312 141.146C64.1064 141.146 63.7207 141.073 63.374 140.927C63.0273 140.775 62.749 140.521 62.5391 140.165C62.334 139.809 62.2314 139.315 62.2314 138.686V133.925H61.0889V133.332L62.2388 132.855L62.7222 131.112H63.4546V132.973H65.8057V133.925H63.4546V138.649C63.4546 139.152 63.5693 139.528 63.7988 139.777C64.0332 140.026 64.3433 140.15 64.729 140.15ZM74.4043 136.972C74.4043 137.631 74.3188 138.219 74.1479 138.737C73.9771 139.254 73.7305 139.691 73.4082 140.048C73.0859 140.404 72.6953 140.678 72.2363 140.868C71.7822 141.054 71.2671 141.146 70.6909 141.146C70.1538 141.146 69.6606 141.054 69.2114 140.868C68.7671 140.678 68.3813 140.404 68.0542 140.048C67.7319 139.691 67.4805 139.254 67.2998 138.737C67.124 138.219 67.0361 137.631 67.0361 136.972C67.0361 136.093 67.1851 135.346 67.4829 134.73C67.7808 134.11 68.2056 133.639 68.7573 133.317C69.314 132.99 69.9756 132.826 70.7422 132.826C71.4746 132.826 72.1143 132.99 72.6611 133.317C73.2129 133.644 73.6401 134.118 73.9429 134.738C74.2505 135.353 74.4043 136.098 74.4043 136.972ZM68.2959 136.972C68.2959 137.616 68.3813 138.175 68.5522 138.649C68.7231 139.123 68.9868 139.489 69.3433 139.748C69.6997 140.006 70.1587 140.136 70.7202 140.136C71.2769 140.136 71.7334 140.006 72.0898 139.748C72.4512 139.489 72.7173 139.123 72.8882 138.649C73.0591 138.175 73.1445 137.616 73.1445 136.972C73.1445 136.332 73.0591 135.78 72.8882 135.316C72.7173 134.848 72.4536 134.486 72.0972 134.232C71.7407 133.979 71.2793 133.852 70.7129 133.852C69.8779 133.852 69.2651 134.127 68.8745 134.679C68.4888 135.231 68.2959 135.995 68.2959 136.972ZM82.644 144.604C81.5894 144.604 80.7764 144.406 80.2051 144.01C79.6338 143.62 79.3481 143.07 79.3481 142.362C79.3481 141.859 79.5068 141.43 79.8242 141.073C80.1465 140.717 80.5908 140.48 81.1572 140.363C80.9473 140.265 80.7666 140.119 80.6152 139.923C80.4688 139.728 80.3955 139.503 80.3955 139.25C80.3955 138.957 80.4761 138.7 80.6372 138.48C80.8032 138.256 81.0547 138.041 81.3916 137.836C80.9717 137.665 80.6299 137.377 80.3662 136.972C80.1074 136.562 79.978 136.085 79.978 135.543C79.978 134.967 80.0977 134.477 80.3369 134.071C80.5762 133.661 80.9229 133.349 81.377 133.134C81.8311 132.919 82.3804 132.812 83.0249 132.812C83.1665 132.812 83.3081 132.819 83.4497 132.833C83.5962 132.843 83.7354 132.86 83.8672 132.885C83.999 132.904 84.1138 132.929 84.2114 132.958H86.9653V133.742L85.4858 133.925C85.6323 134.115 85.7544 134.345 85.8521 134.613C85.9497 134.882 85.9985 135.18 85.9985 135.507C85.9985 136.308 85.7275 136.945 85.1855 137.418C84.6436 137.887 83.8989 138.122 82.9517 138.122C82.7271 138.122 82.4976 138.102 82.2632 138.063C82.0239 138.195 81.8408 138.341 81.7139 138.502C81.5918 138.664 81.5308 138.849 81.5308 139.059C81.5308 139.215 81.5771 139.34 81.6699 139.433C81.7676 139.525 81.9067 139.594 82.0874 139.638C82.2681 139.677 82.4854 139.696 82.7393 139.696H84.1528C85.0269 139.696 85.6958 139.879 86.1597 140.246C86.6284 140.612 86.8628 141.146 86.8628 141.85C86.8628 142.738 86.5015 143.419 85.7788 143.893C85.0562 144.367 84.0112 144.604 82.644 144.604ZM82.6807 143.651C83.3447 143.651 83.894 143.583 84.3286 143.446C84.7681 143.314 85.0952 143.122 85.3101 142.868C85.5298 142.619 85.6396 142.321 85.6396 141.974C85.6396 141.652 85.5664 141.408 85.4199 141.242C85.2734 141.081 85.0586 140.973 84.7754 140.919C84.4922 140.861 84.1455 140.832 83.7354 140.832H82.3438C81.9824 140.832 81.6675 140.888 81.3989 141C81.1304 141.112 80.9229 141.278 80.7764 141.498C80.6348 141.718 80.564 141.991 80.564 142.318C80.564 142.753 80.7471 143.083 81.1133 143.307C81.4795 143.537 82.002 143.651 82.6807 143.651ZM82.9956 137.235C83.5767 137.235 84.0137 137.089 84.3066 136.796C84.5996 136.503 84.7461 136.076 84.7461 135.514C84.7461 134.914 84.5972 134.464 84.2993 134.167C84.0015 133.864 83.562 133.712 82.981 133.712C82.4243 133.712 81.9946 133.869 81.6919 134.181C81.394 134.489 81.2451 134.94 81.2451 135.536C81.2451 136.083 81.3965 136.503 81.6992 136.796C82.002 137.089 82.4341 137.235 82.9956 137.235ZM91.5503 132.841C92.5073 132.841 93.2178 133.056 93.6816 133.485C94.1455 133.915 94.3774 134.601 94.3774 135.543V141H93.4912L93.2568 139.813H93.1982C92.9736 140.106 92.7393 140.353 92.4951 140.553C92.251 140.749 91.9678 140.897 91.6455 141C91.3281 141.098 90.9375 141.146 90.4736 141.146C89.9854 141.146 89.5508 141.061 89.1699 140.89C88.7939 140.719 88.4961 140.46 88.2764 140.114C88.0615 139.767 87.9541 139.328 87.9541 138.795C87.9541 137.995 88.2715 137.379 88.9062 136.95C89.541 136.52 90.5078 136.286 91.8066 136.247L93.1909 136.188V135.697C93.1909 135.004 93.042 134.518 92.7441 134.24C92.4463 133.961 92.0264 133.822 91.4844 133.822C91.0645 133.822 90.6641 133.883 90.2832 134.005C89.9023 134.127 89.541 134.271 89.1992 134.438L88.8257 133.515C89.187 133.329 89.6021 133.17 90.0708 133.039C90.5396 132.907 91.0327 132.841 91.5503 132.841ZM93.1763 137.045L91.9531 137.096C90.9521 137.135 90.2466 137.299 89.8364 137.587C89.4263 137.875 89.2212 138.283 89.2212 138.81C89.2212 139.269 89.3604 139.608 89.6387 139.828C89.917 140.048 90.2856 140.158 90.7446 140.158C91.4575 140.158 92.041 139.96 92.4951 139.564C92.9492 139.169 93.1763 138.576 93.1763 137.785V137.045ZM98.0981 132.973V141H96.8823V132.973H98.0981ZM97.5049 129.97C97.7051 129.97 97.876 130.036 98.0176 130.167C98.1641 130.294 98.2373 130.495 98.2373 130.768C98.2373 131.037 98.1641 131.237 98.0176 131.369C97.876 131.5 97.7051 131.566 97.5049 131.566C97.2949 131.566 97.1191 131.5 96.9775 131.369C96.8408 131.237 96.7725 131.037 96.7725 130.768C96.7725 130.495 96.8408 130.294 96.9775 130.167C97.1191 130.036 97.2949 129.97 97.5049 129.97ZM104.478 132.826C105.43 132.826 106.15 133.061 106.638 133.529C107.126 133.993 107.371 134.74 107.371 135.771V141H106.169V135.851C106.169 135.182 106.016 134.682 105.708 134.35C105.405 134.018 104.939 133.852 104.309 133.852C103.42 133.852 102.795 134.103 102.434 134.606C102.073 135.109 101.892 135.839 101.892 136.796V141H100.676V132.973H101.658L101.841 134.13H101.907C102.078 133.847 102.295 133.61 102.559 133.419C102.822 133.224 103.118 133.078 103.445 132.98C103.772 132.877 104.116 132.826 104.478 132.826ZM122.488 132.826C123.372 132.826 124.038 133.058 124.487 133.522C124.937 133.981 125.161 134.721 125.161 135.741V141H123.96V135.8C123.96 135.15 123.818 134.665 123.535 134.342C123.257 134.015 122.842 133.852 122.29 133.852C121.514 133.852 120.95 134.076 120.598 134.525C120.247 134.975 120.071 135.636 120.071 136.51V141H118.862V135.8C118.862 135.365 118.799 135.004 118.672 134.716C118.55 134.428 118.364 134.213 118.115 134.071C117.871 133.925 117.561 133.852 117.185 133.852C116.653 133.852 116.226 133.961 115.903 134.181C115.581 134.401 115.347 134.728 115.2 135.163C115.059 135.592 114.988 136.122 114.988 136.752V141H113.772V132.973H114.753L114.937 134.108H115.002C115.164 133.83 115.366 133.595 115.61 133.405C115.854 133.214 116.128 133.07 116.431 132.973C116.733 132.875 117.056 132.826 117.397 132.826C118.008 132.826 118.518 132.941 118.928 133.17C119.343 133.395 119.644 133.739 119.829 134.203H119.895C120.159 133.739 120.52 133.395 120.979 133.17C121.438 132.941 121.941 132.826 122.488 132.826ZM130.662 132.841C131.619 132.841 132.329 133.056 132.793 133.485C133.257 133.915 133.489 134.601 133.489 135.543V141H132.603L132.368 139.813H132.31C132.085 140.106 131.851 140.353 131.606 140.553C131.362 140.749 131.079 140.897 130.757 141C130.439 141.098 130.049 141.146 129.585 141.146C129.097 141.146 128.662 141.061 128.281 140.89C127.905 140.719 127.607 140.46 127.388 140.114C127.173 139.767 127.065 139.328 127.065 138.795C127.065 137.995 127.383 137.379 128.018 136.95C128.652 136.52 129.619 136.286 130.918 136.247L132.302 136.188V135.697C132.302 135.004 132.153 134.518 131.855 134.24C131.558 133.961 131.138 133.822 130.596 133.822C130.176 133.822 129.775 133.883 129.395 134.005C129.014 134.127 128.652 134.271 128.311 134.438L127.937 133.515C128.298 133.329 128.713 133.17 129.182 133.039C129.651 132.907 130.144 132.841 130.662 132.841ZM132.288 137.045L131.064 137.096C130.063 137.135 129.358 137.299 128.948 137.587C128.538 137.875 128.333 138.283 128.333 138.81C128.333 139.269 128.472 139.608 128.75 139.828C129.028 140.048 129.397 140.158 129.856 140.158C130.569 140.158 131.152 139.96 131.606 139.564C132.061 139.169 132.288 138.576 132.288 137.785V137.045ZM137.905 136.891L135.129 132.973H136.521L138.638 136.063L140.747 132.973H142.124L139.348 136.891L142.278 141H140.886L138.638 137.726L136.375 141H134.998L137.905 136.891ZM145.061 132.973V141H143.845V132.973H145.061ZM144.468 129.97C144.668 129.97 144.839 130.036 144.98 130.167C145.127 130.294 145.2 130.495 145.2 130.768C145.2 131.037 145.127 131.237 144.98 131.369C144.839 131.5 144.668 131.566 144.468 131.566C144.258 131.566 144.082 131.5 143.94 131.369C143.804 131.237 143.735 131.037 143.735 130.768C143.735 130.495 143.804 130.294 143.94 130.167C144.082 130.036 144.258 129.97 144.468 129.97ZM156.355 132.826C157.239 132.826 157.905 133.058 158.354 133.522C158.804 133.981 159.028 134.721 159.028 135.741V141H157.827V135.8C157.827 135.15 157.686 134.665 157.402 134.342C157.124 134.015 156.709 133.852 156.157 133.852C155.381 133.852 154.817 134.076 154.465 134.525C154.114 134.975 153.938 135.636 153.938 136.51V141H152.729V135.8C152.729 135.365 152.666 135.004 152.539 134.716C152.417 134.428 152.231 134.213 151.982 134.071C151.738 133.925 151.428 133.852 151.052 133.852C150.52 133.852 150.093 133.961 149.771 134.181C149.448 134.401 149.214 134.728 149.067 135.163C148.926 135.592 148.855 136.122 148.855 136.752V141H147.639V132.973H148.621L148.804 134.108H148.87C149.031 133.83 149.233 133.595 149.478 133.405C149.722 133.214 149.995 133.07 150.298 132.973C150.601 132.875 150.923 132.826 151.265 132.826C151.875 132.826 152.385 132.941 152.795 133.17C153.21 133.395 153.511 133.739 153.696 134.203H153.762C154.026 133.739 154.387 133.395 154.846 133.17C155.305 132.941 155.808 132.826 156.355 132.826ZM168.154 132.973V141H167.158L166.982 139.872H166.917C166.75 140.15 166.536 140.385 166.272 140.575C166.008 140.766 165.71 140.907 165.378 141C165.051 141.098 164.702 141.146 164.331 141.146C163.696 141.146 163.164 141.044 162.734 140.839C162.305 140.634 161.98 140.316 161.76 139.887C161.545 139.457 161.438 138.905 161.438 138.231V132.973H162.668V138.144C162.668 138.812 162.82 139.313 163.123 139.645C163.425 139.972 163.887 140.136 164.507 140.136C165.103 140.136 165.576 140.023 165.928 139.799C166.284 139.574 166.541 139.245 166.697 138.81C166.853 138.371 166.931 137.833 166.931 137.199V132.973H168.154ZM179.441 132.826C180.325 132.826 180.991 133.058 181.44 133.522C181.89 133.981 182.114 134.721 182.114 135.741V141H180.913V135.8C180.913 135.15 180.771 134.665 180.488 134.342C180.21 134.015 179.795 133.852 179.243 133.852C178.467 133.852 177.903 134.076 177.551 134.525C177.2 134.975 177.024 135.636 177.024 136.51V141H175.815V135.8C175.815 135.365 175.752 135.004 175.625 134.716C175.503 134.428 175.317 134.213 175.068 134.071C174.824 133.925 174.514 133.852 174.138 133.852C173.606 133.852 173.179 133.961 172.856 134.181C172.534 134.401 172.3 134.728 172.153 135.163C172.012 135.592 171.941 136.122 171.941 136.752V141H170.725V132.973H171.707L171.89 134.108H171.956C172.117 133.83 172.319 133.595 172.563 133.405C172.808 133.214 173.081 133.07 173.384 132.973C173.687 132.875 174.009 132.826 174.351 132.826C174.961 132.826 175.471 132.941 175.881 133.17C176.296 133.395 176.597 133.739 176.782 134.203H176.848C177.112 133.739 177.473 133.395 177.932 133.17C178.391 132.941 178.894 132.826 179.441 132.826ZM189.724 129.604V132.453C189.724 132.78 189.714 133.097 189.695 133.405C189.68 133.712 189.668 133.952 189.658 134.123H189.724C189.944 133.761 190.261 133.456 190.676 133.207C191.091 132.958 191.621 132.833 192.266 132.833C193.271 132.833 194.072 133.183 194.668 133.881C195.269 134.574 195.569 135.607 195.569 136.979C195.569 137.882 195.432 138.644 195.159 139.264C194.885 139.884 194.5 140.353 194.001 140.67C193.503 140.988 192.915 141.146 192.236 141.146C191.602 141.146 191.079 141.029 190.669 140.795C190.264 140.556 189.951 140.265 189.731 139.923H189.636L189.387 141H188.508V129.604H189.724ZM192.068 133.852C191.487 133.852 191.025 133.966 190.684 134.196C190.342 134.42 190.095 134.762 189.944 135.221C189.797 135.675 189.724 136.251 189.724 136.95V137.016C189.724 138.026 189.893 138.8 190.229 139.337C190.566 139.87 191.179 140.136 192.068 140.136C192.815 140.136 193.374 139.862 193.745 139.315C194.121 138.769 194.309 137.987 194.309 136.972C194.309 135.937 194.124 135.158 193.752 134.635C193.386 134.113 192.825 133.852 192.068 133.852ZM200.784 132.826C201.467 132.826 202.053 132.978 202.542 133.28C203.03 133.583 203.403 134.008 203.662 134.555C203.921 135.097 204.05 135.731 204.05 136.459V137.213H198.506C198.521 138.156 198.755 138.874 199.209 139.367C199.663 139.86 200.303 140.106 201.128 140.106C201.636 140.106 202.085 140.06 202.476 139.967C202.866 139.875 203.271 139.738 203.691 139.557V140.626C203.286 140.807 202.883 140.939 202.483 141.022C202.087 141.105 201.619 141.146 201.077 141.146C200.305 141.146 199.631 140.99 199.055 140.678C198.484 140.36 198.04 139.896 197.722 139.286C197.405 138.676 197.246 137.929 197.246 137.045C197.246 136.181 197.39 135.434 197.678 134.804C197.971 134.169 198.381 133.681 198.909 133.339C199.441 132.997 200.066 132.826 200.784 132.826ZM200.769 133.822C200.12 133.822 199.602 134.035 199.216 134.459C198.831 134.884 198.601 135.478 198.528 136.239H202.776C202.771 135.761 202.695 135.341 202.549 134.979C202.407 134.613 202.19 134.33 201.897 134.13C201.604 133.925 201.228 133.822 200.769 133.822ZM209.917 132.826C210.869 132.826 211.589 133.061 212.078 133.529C212.566 133.993 212.81 134.74 212.81 135.771V141H211.609V135.851C211.609 135.182 211.455 134.682 211.147 134.35C210.845 134.018 210.378 133.852 209.749 133.852C208.86 133.852 208.235 134.103 207.874 134.606C207.512 135.109 207.332 135.839 207.332 136.796V141H206.116V132.973H207.097L207.28 134.13H207.346C207.517 133.847 207.734 133.61 207.998 133.419C208.262 133.224 208.557 133.078 208.884 132.98C209.211 132.877 209.556 132.826 209.917 132.826ZM218.406 132.826C219.089 132.826 219.675 132.978 220.164 133.28C220.652 133.583 221.025 134.008 221.284 134.555C221.543 135.097 221.672 135.731 221.672 136.459V137.213H216.128C216.143 138.156 216.377 138.874 216.831 139.367C217.285 139.86 217.925 140.106 218.75 140.106C219.258 140.106 219.707 140.06 220.098 139.967C220.488 139.875 220.894 139.738 221.313 139.557V140.626C220.908 140.807 220.505 140.939 220.105 141.022C219.709 141.105 219.241 141.146 218.699 141.146C217.927 141.146 217.253 140.99 216.677 140.678C216.106 140.36 215.662 139.896 215.344 139.286C215.027 138.676 214.868 137.929 214.868 137.045C214.868 136.181 215.012 135.434 215.3 134.804C215.593 134.169 216.003 133.681 216.531 133.339C217.063 132.997 217.688 132.826 218.406 132.826ZM218.391 133.822C217.742 133.822 217.224 134.035 216.838 134.459C216.453 134.884 216.223 135.478 216.15 136.239H220.398C220.393 135.761 220.317 135.341 220.171 134.979C220.029 134.613 219.812 134.33 219.519 134.13C219.226 133.925 218.85 133.822 218.391 133.822ZM227.312 133.925H225.312V141H224.097V133.925H222.676V133.339L224.097 132.936V132.401C224.097 131.728 224.197 131.181 224.397 130.761C224.597 130.336 224.888 130.023 225.269 129.823C225.649 129.623 226.113 129.523 226.66 129.523C226.968 129.523 227.249 129.55 227.502 129.604C227.761 129.657 227.988 129.718 228.184 129.787L227.869 130.746C227.703 130.692 227.515 130.644 227.305 130.6C227.1 130.551 226.89 130.526 226.675 130.526C226.211 130.526 225.867 130.678 225.642 130.98C225.422 131.278 225.312 131.747 225.312 132.387V132.973H227.312V133.925ZM230 132.973V141H228.784V132.973H230ZM229.407 129.97C229.607 129.97 229.778 130.036 229.919 130.167C230.066 130.294 230.139 130.495 230.139 130.768C230.139 131.037 230.066 131.237 229.919 131.369C229.778 131.5 229.607 131.566 229.407 131.566C229.197 131.566 229.021 131.5 228.879 131.369C228.743 131.237 228.674 131.037 228.674 130.768C228.674 130.495 228.743 130.294 228.879 130.167C229.021 130.036 229.197 129.97 229.407 129.97ZM235.164 140.15C235.364 140.15 235.569 140.133 235.779 140.099C235.989 140.065 236.16 140.023 236.292 139.975V140.919C236.15 140.983 235.952 141.037 235.698 141.081C235.449 141.125 235.205 141.146 234.966 141.146C234.541 141.146 234.155 141.073 233.809 140.927C233.462 140.775 233.184 140.521 232.974 140.165C232.769 139.809 232.666 139.315 232.666 138.686V133.925H231.523V133.332L232.673 132.855L233.157 131.112H233.889V132.973H236.24V133.925H233.889V138.649C233.889 139.152 234.004 139.528 234.233 139.777C234.468 140.026 234.778 140.15 235.164 140.15ZM237.734 140.238C237.734 139.896 237.817 139.655 237.983 139.513C238.149 139.367 238.352 139.293 238.591 139.293C238.84 139.293 239.05 139.367 239.221 139.513C239.392 139.655 239.478 139.896 239.478 140.238C239.478 140.575 239.392 140.822 239.221 140.978C239.05 141.129 238.84 141.205 238.591 141.205C238.352 141.205 238.149 141.129 237.983 140.978C237.817 140.822 237.734 140.575 237.734 140.238Z" fill="#2C2C2C"/>
<path d="M42.5034 67.9624H38.9873V66.1162H42.5034C43.1157 66.1162 43.6105 66.0173 43.9878 65.8193C44.3651 65.6214 44.6403 65.3493 44.8135 65.0029C44.9928 64.6504 45.0825 64.2484 45.0825 63.7969C45.0825 63.3701 44.9928 62.9712 44.8135 62.6001C44.6403 62.2228 44.3651 61.9198 43.9878 61.6909C43.6105 61.4621 43.1157 61.3477 42.5034 61.3477H39.7017V73H37.373V59.4922H42.5034C43.5487 59.4922 44.4362 59.6777 45.166 60.0488C45.902 60.4137 46.4618 60.9209 46.8452 61.5703C47.2287 62.2135 47.4204 62.9495 47.4204 63.7783C47.4204 64.6504 47.2287 65.3988 46.8452 66.0234C46.4618 66.6481 45.902 67.1274 45.166 67.4614C44.4362 67.7954 43.5487 67.9624 42.5034 67.9624ZM55.3247 70.6343V62.9619H57.5698V73H55.4546L55.3247 70.6343ZM55.6401 68.5469L56.3916 68.5283C56.3916 69.2025 56.3174 69.8241 56.1689 70.3931C56.0205 70.9559 55.7917 71.4476 55.4824 71.8682C55.1732 72.2826 54.7773 72.6073 54.2949 72.8423C53.8125 73.0711 53.2342 73.1855 52.5601 73.1855C52.0715 73.1855 51.623 73.1144 51.2148 72.9722C50.8066 72.8299 50.4541 72.6104 50.1572 72.3135C49.8665 72.0166 49.6408 71.63 49.48 71.1538C49.3192 70.6776 49.2388 70.1086 49.2388 69.4468V62.9619H51.4746V69.4653C51.4746 69.8302 51.5179 70.1364 51.6045 70.3838C51.6911 70.625 51.8086 70.8198 51.957 70.9683C52.1055 71.1167 52.2786 71.2218 52.4766 71.2837C52.6745 71.3455 52.8848 71.3765 53.1074 71.3765C53.7445 71.3765 54.2454 71.2528 54.6104 71.0054C54.9814 70.7518 55.2443 70.4116 55.3989 69.9849C55.5597 69.5581 55.6401 69.0788 55.6401 68.5469ZM62.1064 64.873V73H59.8706V62.9619H62.0044L62.1064 64.873ZM65.1772 62.897L65.1587 64.9751C65.0226 64.9504 64.8742 64.9318 64.7134 64.9194C64.5588 64.9071 64.4041 64.9009 64.2495 64.9009C63.866 64.9009 63.529 64.9565 63.2383 65.0679C62.9476 65.173 62.7033 65.3276 62.5054 65.5317C62.3136 65.7297 62.1652 65.9709 62.0601 66.2554C61.9549 66.5399 61.8931 66.8584 61.8745 67.2109L61.3643 67.248C61.3643 66.6172 61.4261 66.0327 61.5498 65.4946C61.6735 64.9565 61.859 64.4834 62.1064 64.0752C62.36 63.667 62.6755 63.3485 63.0527 63.1196C63.4362 62.8908 63.8784 62.7764 64.3794 62.7764C64.5155 62.7764 64.6608 62.7887 64.8154 62.8135C64.9762 62.8382 65.0968 62.866 65.1772 62.897ZM70.4932 71.4043C70.8581 71.4043 71.1859 71.3332 71.4766 71.1909C71.7734 71.0425 72.0116 70.8384 72.1909 70.5786C72.3765 70.3188 72.4785 70.0189 72.4971 69.6787H74.603C74.5907 70.3281 74.3989 70.9188 74.0278 71.4507C73.6567 71.9826 73.165 72.4062 72.5527 72.7217C71.9404 73.0309 71.2632 73.1855 70.521 73.1855C69.7541 73.1855 69.0861 73.0557 68.5171 72.7959C67.9481 72.5299 67.4749 72.165 67.0977 71.7012C66.7204 71.2373 66.4359 70.7023 66.2441 70.0962C66.0586 69.4901 65.9658 68.8407 65.9658 68.1479V67.8232C65.9658 67.1305 66.0586 66.4811 66.2441 65.875C66.4359 65.2627 66.7204 64.7246 67.0977 64.2607C67.4749 63.7969 67.9481 63.4351 68.5171 63.1753C69.0861 62.9093 69.751 62.7764 70.5117 62.7764C71.3158 62.7764 72.0208 62.9372 72.627 63.2588C73.2331 63.5742 73.7093 64.0164 74.0557 64.5854C74.4082 65.1483 74.5907 65.8039 74.603 66.5522H72.4971C72.4785 66.1812 72.3857 65.8472 72.2188 65.5503C72.0579 65.2472 71.8291 65.006 71.5322 64.8267C71.2415 64.6473 70.8921 64.5576 70.4839 64.5576C70.0324 64.5576 69.6582 64.6504 69.3613 64.8359C69.0645 65.0153 68.8325 65.2627 68.6655 65.5781C68.4985 65.8874 68.3779 66.2368 68.3037 66.6265C68.2357 67.0099 68.2017 67.4089 68.2017 67.8232V68.1479C68.2017 68.5623 68.2357 68.9644 68.3037 69.354C68.3717 69.7437 68.4893 70.0931 68.6562 70.4023C68.8294 70.7054 69.0645 70.9497 69.3613 71.1353C69.6582 71.3146 70.0355 71.4043 70.4932 71.4043ZM78.5273 58.75V73H76.3008V58.75H78.5273ZM78.1377 67.6099L77.4141 67.6006C77.4202 66.9079 77.5161 66.2677 77.7017 65.6802C77.8934 65.0926 78.1593 64.5824 78.4995 64.1494C78.8459 63.7103 79.2603 63.3732 79.7427 63.1382C80.2251 62.897 80.7601 62.7764 81.3477 62.7764C81.8424 62.7764 82.2878 62.8444 82.6836 62.9805C83.0856 63.1165 83.432 63.3361 83.7227 63.6392C84.0133 63.936 84.2329 64.3257 84.3813 64.8081C84.536 65.2843 84.6133 65.8657 84.6133 66.5522V73H82.3682V66.5337C82.3682 66.0513 82.297 65.6678 82.1548 65.3833C82.0187 65.0988 81.8177 64.8947 81.5518 64.771C81.2858 64.6411 80.9611 64.5762 80.5776 64.5762C80.1756 64.5762 79.82 64.6566 79.5107 64.8174C79.2077 64.9782 78.9541 65.1978 78.75 65.4761C78.5459 65.7544 78.3913 66.076 78.2861 66.4409C78.1872 66.8058 78.1377 67.1955 78.1377 67.6099ZM92.5361 70.9868V66.1997C92.5361 65.841 92.4712 65.5317 92.3413 65.272C92.2114 65.0122 92.0135 64.8112 91.7476 64.6689C91.4878 64.5267 91.16 64.4556 90.7642 64.4556C90.3993 64.4556 90.0838 64.5174 89.8179 64.6411C89.5519 64.7648 89.3447 64.9318 89.1963 65.1421C89.0479 65.3524 88.9736 65.5905 88.9736 65.8564H86.7471C86.7471 65.4606 86.8429 65.0771 87.0347 64.7061C87.2264 64.335 87.5047 64.0041 87.8696 63.7134C88.2345 63.4227 88.6706 63.1938 89.1777 63.0269C89.6849 62.8599 90.2539 62.7764 90.8848 62.7764C91.6393 62.7764 92.3073 62.9032 92.8887 63.1567C93.4762 63.4103 93.937 63.7938 94.271 64.3071C94.6112 64.8143 94.7812 65.4513 94.7812 66.2183V70.6807C94.7812 71.1383 94.8122 71.5496 94.874 71.9146C94.9421 72.2733 95.0379 72.5856 95.1616 72.8516V73H92.8701C92.765 72.7588 92.6815 72.4526 92.6196 72.0815C92.564 71.7043 92.5361 71.3394 92.5361 70.9868ZM92.8608 66.8955L92.8794 68.2778H91.2744C90.86 68.2778 90.4951 68.318 90.1797 68.3984C89.8643 68.4727 89.6014 68.584 89.3911 68.7324C89.1808 68.8809 89.0231 69.0602 88.918 69.2705C88.8128 69.4808 88.7603 69.7189 88.7603 69.9849C88.7603 70.2508 88.8221 70.4951 88.9458 70.7178C89.0695 70.9342 89.2489 71.1043 89.4839 71.228C89.7251 71.3517 90.0158 71.4136 90.356 71.4136C90.8136 71.4136 91.2126 71.3208 91.5527 71.1353C91.8991 70.9435 92.1712 70.7116 92.3691 70.4395C92.5671 70.1611 92.6722 69.8983 92.6846 69.6509L93.4082 70.6436C93.334 70.8971 93.2072 71.1693 93.0278 71.46C92.8485 71.7507 92.6134 72.029 92.3228 72.2949C92.0382 72.5547 91.695 72.7681 91.293 72.9351C90.8971 73.1021 90.4395 73.1855 89.9199 73.1855C89.2643 73.1855 88.6799 73.0557 88.1665 72.7959C87.6532 72.5299 87.2511 72.1743 86.9604 71.729C86.6698 71.2775 86.5244 70.7673 86.5244 70.1982C86.5244 69.6663 86.6234 69.1963 86.8213 68.7881C87.0254 68.3737 87.3223 68.0273 87.7119 67.749C88.1077 67.4707 88.5902 67.2604 89.1592 67.1182C89.7282 66.9697 90.3776 66.8955 91.1074 66.8955H92.8608ZM102.75 70.2817C102.75 70.0591 102.695 69.8581 102.583 69.6787C102.472 69.4932 102.259 69.3262 101.943 69.1777C101.634 69.0293 101.176 68.8932 100.57 68.7695C100.038 68.652 99.5498 68.5129 99.1045 68.3521C98.6654 68.1851 98.2881 67.984 97.9727 67.749C97.6572 67.514 97.4129 67.2357 97.2397 66.9141C97.0666 66.5924 96.98 66.2214 96.98 65.8008C96.98 65.3926 97.0697 65.006 97.249 64.6411C97.4284 64.2762 97.6851 63.9546 98.019 63.6763C98.353 63.3979 98.7581 63.1784 99.2344 63.0176C99.7168 62.8568 100.255 62.7764 100.849 62.7764C101.69 62.7764 102.41 62.9186 103.01 63.2031C103.616 63.4814 104.08 63.8618 104.402 64.3442C104.723 64.8205 104.884 65.3586 104.884 65.9585H102.648C102.648 65.6925 102.58 65.4451 102.444 65.2163C102.314 64.9813 102.117 64.7926 101.851 64.6504C101.585 64.502 101.251 64.4277 100.849 64.4277C100.465 64.4277 100.147 64.4896 99.8931 64.6133C99.6457 64.7308 99.4601 64.8854 99.3364 65.0771C99.2189 65.2689 99.1602 65.4792 99.1602 65.708C99.1602 65.875 99.1911 66.0265 99.2529 66.1626C99.321 66.2925 99.4323 66.4131 99.5869 66.5244C99.7415 66.6296 99.9518 66.7285 100.218 66.8213C100.49 66.9141 100.83 67.0037 101.238 67.0903C102.005 67.2511 102.664 67.4583 103.214 67.7119C103.771 67.9593 104.198 68.2809 104.495 68.6768C104.792 69.0664 104.94 69.5612 104.94 70.1611C104.94 70.6064 104.844 71.0146 104.652 71.3857C104.467 71.7507 104.195 72.0692 103.836 72.3413C103.477 72.6073 103.047 72.8145 102.546 72.9629C102.052 73.1113 101.495 73.1855 100.876 73.1855C99.9673 73.1855 99.1973 73.0247 98.5664 72.7031C97.9355 72.3753 97.4562 71.9578 97.1284 71.4507C96.8068 70.9373 96.646 70.4054 96.646 69.855H98.8076C98.8324 70.2694 98.9468 70.6003 99.1509 70.8477C99.3612 71.0889 99.6209 71.2651 99.9302 71.3765C100.246 71.4816 100.57 71.5342 100.904 71.5342C101.306 71.5342 101.643 71.4816 101.916 71.3765C102.188 71.2651 102.395 71.1167 102.537 70.9312C102.679 70.7394 102.75 70.5229 102.75 70.2817ZM111.323 73.1855C110.581 73.1855 109.91 73.0649 109.31 72.8237C108.716 72.5763 108.209 72.2331 107.788 71.7939C107.374 71.3548 107.055 70.8384 106.833 70.2446C106.61 69.6509 106.499 69.0107 106.499 68.3242V67.9531C106.499 67.1676 106.613 66.4564 106.842 65.8193C107.071 65.1823 107.389 64.638 107.797 64.1865C108.206 63.7288 108.688 63.3794 109.245 63.1382C109.801 62.897 110.404 62.7764 111.054 62.7764C111.771 62.7764 112.399 62.897 112.937 63.1382C113.475 63.3794 113.92 63.7196 114.273 64.1587C114.632 64.5916 114.898 65.1081 115.071 65.708C115.25 66.3079 115.34 66.9697 115.34 67.6934V68.6489H107.584V67.0439H113.132V66.8677C113.119 66.4657 113.039 66.0884 112.891 65.7358C112.748 65.3833 112.529 65.0988 112.232 64.8823C111.935 64.6659 111.539 64.5576 111.044 64.5576C110.673 64.5576 110.342 64.638 110.052 64.7988C109.767 64.9535 109.529 65.1792 109.337 65.4761C109.146 65.7729 108.997 66.1317 108.892 66.5522C108.793 66.9666 108.744 67.4336 108.744 67.9531V68.3242C108.744 68.7633 108.802 69.1715 108.92 69.5488C109.044 69.9199 109.223 70.2446 109.458 70.5229C109.693 70.8013 109.978 71.0208 110.312 71.1816C110.646 71.3363 111.026 71.4136 111.453 71.4136C111.991 71.4136 112.47 71.3053 112.891 71.0889C113.311 70.8724 113.676 70.5662 113.985 70.1704L115.164 71.3115C114.947 71.627 114.666 71.93 114.319 72.2207C113.973 72.5052 113.549 72.7371 113.048 72.9165C112.554 73.0959 111.978 73.1855 111.323 73.1855ZM132.753 59.4922V73H130.425L124.367 63.3237V73H122.038V59.4922H124.367L130.443 69.187V59.4922H132.753ZM139.73 73.1855C138.988 73.1855 138.317 73.0649 137.717 72.8237C137.123 72.5763 136.616 72.2331 136.195 71.7939C135.781 71.3548 135.462 70.8384 135.24 70.2446C135.017 69.6509 134.906 69.0107 134.906 68.3242V67.9531C134.906 67.1676 135.02 66.4564 135.249 65.8193C135.478 65.1823 135.796 64.638 136.205 64.1865C136.613 63.7288 137.095 63.3794 137.652 63.1382C138.208 62.897 138.812 62.7764 139.461 62.7764C140.178 62.7764 140.806 62.897 141.344 63.1382C141.882 63.3794 142.328 63.7196 142.68 64.1587C143.039 64.5916 143.305 65.1081 143.478 65.708C143.657 66.3079 143.747 66.9697 143.747 67.6934V68.6489H135.991V67.0439H141.539V66.8677C141.527 66.4657 141.446 66.0884 141.298 65.7358C141.156 65.3833 140.936 65.0988 140.639 64.8823C140.342 64.6659 139.946 64.5576 139.452 64.5576C139.081 64.5576 138.75 64.638 138.459 64.7988C138.174 64.9535 137.936 65.1792 137.745 65.4761C137.553 65.7729 137.404 66.1317 137.299 66.5522C137.2 66.9666 137.151 67.4336 137.151 67.9531V68.3242C137.151 68.7633 137.21 69.1715 137.327 69.5488C137.451 69.9199 137.63 70.2446 137.865 70.5229C138.1 70.8013 138.385 71.0208 138.719 71.1816C139.053 71.3363 139.433 71.4136 139.86 71.4136C140.398 71.4136 140.877 71.3053 141.298 71.0889C141.718 70.8724 142.083 70.5662 142.393 70.1704L143.571 71.3115C143.354 71.627 143.073 71.93 142.727 72.2207C142.38 72.5052 141.957 72.7371 141.456 72.9165C140.961 73.0959 140.386 73.1855 139.73 73.1855ZM147.198 62.9619L149.109 66.2925L151.058 62.9619H153.516L150.473 67.8882L153.637 73H151.178L149.137 69.5303L147.096 73H144.628L147.783 67.8882L144.749 62.9619H147.198ZM159.648 62.9619V64.5947H153.989V62.9619H159.648ZM155.622 60.5034H157.858V70.2261C157.858 70.5353 157.901 70.7734 157.988 70.9404C158.081 71.1012 158.207 71.2095 158.368 71.2651C158.529 71.3208 158.718 71.3486 158.934 71.3486C159.089 71.3486 159.237 71.3394 159.379 71.3208C159.522 71.3022 159.636 71.2837 159.723 71.2651L159.732 72.9722C159.546 73.0278 159.33 73.0773 159.083 73.1206C158.841 73.1639 158.563 73.1855 158.248 73.1855C157.734 73.1855 157.28 73.0959 156.884 72.9165C156.488 72.731 156.179 72.431 155.956 72.0166C155.733 71.6022 155.622 71.0518 155.622 70.3652V60.5034ZM174.307 68.6025H176.626C176.552 69.487 176.304 70.2756 175.884 70.9683C175.463 71.6548 174.873 72.196 174.112 72.5918C173.351 72.9876 172.426 73.1855 171.338 73.1855C170.503 73.1855 169.751 73.0371 169.083 72.7402C168.416 72.4372 167.843 72.0104 167.367 71.46C166.891 70.9033 166.526 70.2323 166.272 69.4468C166.025 68.6613 165.901 67.783 165.901 66.812V65.6895C165.901 64.7184 166.028 63.8402 166.282 63.0547C166.542 62.2692 166.913 61.5981 167.395 61.0415C167.877 60.4787 168.456 60.0488 169.13 59.752C169.81 59.4551 170.574 59.3066 171.421 59.3066C172.498 59.3066 173.407 59.5046 174.149 59.9004C174.891 60.2962 175.466 60.8436 175.875 61.5425C176.289 62.2414 176.542 63.0423 176.635 63.9453H174.316C174.254 63.3639 174.118 62.866 173.908 62.4517C173.704 62.0373 173.401 61.7218 172.999 61.5054C172.597 61.2827 172.071 61.1714 171.421 61.1714C170.889 61.1714 170.426 61.2703 170.03 61.4683C169.634 61.6662 169.303 61.9569 169.037 62.3403C168.771 62.7238 168.57 63.1969 168.434 63.7598C168.304 64.3164 168.239 64.9535 168.239 65.6709V66.812C168.239 67.4924 168.298 68.1108 168.416 68.6675C168.539 69.2179 168.725 69.6911 168.972 70.0869C169.226 70.4827 169.547 70.7889 169.937 71.0054C170.327 71.2218 170.794 71.3301 171.338 71.3301C172 71.3301 172.535 71.2249 172.943 71.0146C173.357 70.8044 173.67 70.4982 173.88 70.0962C174.096 69.688 174.239 69.1901 174.307 68.6025ZM181.432 71.9053L184.159 62.9619H186.553L182.526 74.5308C182.434 74.7782 182.313 75.0472 182.165 75.3379C182.016 75.6286 181.821 75.9038 181.58 76.1636C181.345 76.4295 181.051 76.6429 180.699 76.8037C180.346 76.9707 179.919 77.0542 179.418 77.0542C179.221 77.0542 179.029 77.0356 178.843 76.9985C178.664 76.9676 178.494 76.9336 178.333 76.8965L178.324 75.1895C178.386 75.1956 178.46 75.2018 178.546 75.208C178.639 75.2142 178.713 75.2173 178.769 75.2173C179.14 75.2173 179.449 75.1709 179.697 75.0781C179.944 74.9915 180.145 74.8493 180.3 74.6514C180.461 74.4535 180.597 74.1875 180.708 73.8535L181.432 71.9053ZM179.892 62.9619L182.276 70.4766L182.675 72.833L181.125 73.2319L177.479 62.9619H179.892ZM190.078 64.8916V76.8594H187.842V62.9619H189.902L190.078 64.8916ZM196.619 67.8882V68.083C196.619 68.8128 196.532 69.4901 196.359 70.1147C196.192 70.7332 195.941 71.2744 195.607 71.7383C195.28 72.196 194.875 72.5516 194.392 72.8052C193.91 73.0588 193.353 73.1855 192.722 73.1855C192.097 73.1855 191.55 73.0711 191.08 72.8423C190.616 72.6073 190.223 72.2764 189.902 71.8496C189.58 71.4229 189.32 70.9219 189.123 70.3467C188.931 69.7653 188.795 69.1283 188.714 68.4355V67.6841C188.795 66.9481 188.931 66.2801 189.123 65.6802C189.32 65.0802 189.58 64.5638 189.902 64.1309C190.223 63.6979 190.616 63.3639 191.08 63.1289C191.544 62.8939 192.085 62.7764 192.704 62.7764C193.334 62.7764 193.894 62.9001 194.383 63.1475C194.871 63.3887 195.283 63.735 195.617 64.1865C195.951 64.6318 196.201 65.1699 196.368 65.8008C196.535 66.4255 196.619 67.1213 196.619 67.8882ZM194.383 68.083V67.8882C194.383 67.4243 194.34 66.9945 194.253 66.5986C194.166 66.1966 194.03 65.8441 193.845 65.541C193.659 65.238 193.421 65.0029 193.13 64.8359C192.846 64.6628 192.503 64.5762 192.101 64.5762C191.705 64.5762 191.365 64.6442 191.08 64.7803C190.796 64.9102 190.557 65.0926 190.366 65.3276C190.174 65.5627 190.026 65.8379 189.92 66.1533C189.815 66.4626 189.741 66.7996 189.698 67.1646V68.9644C189.772 69.4097 189.899 69.8179 190.078 70.189C190.257 70.5601 190.511 70.8569 190.839 71.0796C191.173 71.2961 191.6 71.4043 192.119 71.4043C192.521 71.4043 192.864 71.3177 193.149 71.1445C193.433 70.9714 193.665 70.7332 193.845 70.4302C194.03 70.1209 194.166 69.7653 194.253 69.3633C194.34 68.9613 194.383 68.5345 194.383 68.083ZM203.122 62.9619V64.5947H197.463V62.9619H203.122ZM199.096 60.5034H201.332V70.2261C201.332 70.5353 201.375 70.7734 201.461 70.9404C201.554 71.1012 201.681 71.2095 201.842 71.2651C202.003 71.3208 202.191 71.3486 202.408 71.3486C202.562 71.3486 202.711 71.3394 202.853 71.3208C202.995 71.3022 203.11 71.2837 203.196 71.2651L203.206 72.9722C203.02 73.0278 202.804 73.0773 202.556 73.1206C202.315 73.1639 202.037 73.1855 201.721 73.1855C201.208 73.1855 200.753 73.0959 200.357 72.9165C199.962 72.731 199.652 72.431 199.43 72.0166C199.207 71.6022 199.096 71.0518 199.096 70.3652V60.5034ZM204.198 68.0923V67.8789C204.198 67.1553 204.303 66.4842 204.514 65.8657C204.724 65.241 205.027 64.6999 205.423 64.2422C205.825 63.7783 206.313 63.4196 206.889 63.166C207.47 62.9062 208.126 62.7764 208.855 62.7764C209.591 62.7764 210.247 62.9062 210.822 63.166C211.404 63.4196 211.895 63.7783 212.297 64.2422C212.699 64.6999 213.006 65.241 213.216 65.8657C213.426 66.4842 213.531 67.1553 213.531 67.8789V68.0923C213.531 68.8159 213.426 69.487 213.216 70.1055C213.006 70.724 212.699 71.2651 212.297 71.729C211.895 72.1867 211.407 72.5454 210.832 72.8052C210.256 73.0588 209.604 73.1855 208.874 73.1855C208.138 73.1855 207.479 73.0588 206.898 72.8052C206.323 72.5454 205.834 72.1867 205.432 71.729C205.03 71.2651 204.724 70.724 204.514 70.1055C204.303 69.487 204.198 68.8159 204.198 68.0923ZM206.434 67.8789V68.0923C206.434 68.5438 206.48 68.9705 206.573 69.3726C206.666 69.7746 206.811 70.1271 207.009 70.4302C207.207 70.7332 207.461 70.9714 207.77 71.1445C208.079 71.3177 208.447 71.4043 208.874 71.4043C209.288 71.4043 209.647 71.3177 209.95 71.1445C210.259 70.9714 210.513 70.7332 210.711 70.4302C210.909 70.1271 211.054 69.7746 211.147 69.3726C211.246 68.9705 211.295 68.5438 211.295 68.0923V67.8789C211.295 67.4336 211.246 67.013 211.147 66.6172C211.054 66.2152 210.906 65.8595 210.702 65.5503C210.504 65.241 210.25 64.9998 209.941 64.8267C209.638 64.6473 209.276 64.5576 208.855 64.5576C208.435 64.5576 208.07 64.6473 207.761 64.8267C207.458 64.9998 207.207 65.241 207.009 65.5503C206.811 65.8595 206.666 66.2152 206.573 66.6172C206.48 67.013 206.434 67.4336 206.434 67.8789Z" fill="#6660AB"/>
</svg>
