<svg xmlns="http://www.w3.org/2000/svg" width="240.248" height="352.012" viewBox="0 0 240.248 352.012">
  <g id="Group_11" data-name="Group 11" transform="translate(-719.876 -1280.448)">
    <g id="Group_6" data-name="Group 6" transform="translate(-121.624 -352.012)">
      <path id="Path_2" data-name="Path 2" d="M128.409,360.226c27.115-9.695,125.914-38.39,125.914-38.39s26.935-5.83,41.117,21.727c9.695,30.213,30.005,145.112,30.005,145.112l17.726,85.651s14.657,40.215-23.814,53.588S194.011,671.77,194.011,671.77s-35.143,10.527-46.634-23.049c-.107-.338-.255-.838-.4-1.348C127.357,525.6,122.807,498.581,122.807,498.581L105.973,395.744S101.295,369.921,128.409,360.226Z" transform="translate(735.835 1311.14)" fill="#e6a557"/>
      <g id="Path_3" data-name="Path 3" transform="translate(848.735 1660.781) rotate(-3)" fill="#fff">
        <path d="M 43.38037872314453 304.8859252929688 C 37.05430221557617 304.8859252929688 31.3349552154541 304.3730163574219 26.38118553161621 303.3614196777344 C 19.55253219604492 301.9669189453125 14.45526218414307 299.6598815917969 11.23103141784668 296.5042724609375 C 8.742300987243652 294.0685424804688 6.634570121765137 290.9587707519531 4.96645450592041 287.2612915039062 C 3.610646963119507 284.2559814453125 2.537262201309204 280.8498229980469 1.776185393333435 277.1374816894531 C 0.5778777003288269 271.2925109863281 0.4858392179012299 266.3768920898438 0.5018776655197144 264.5347290039062 C 0.5021121501922607 264.5074768066406 0.5022938847541809 264.4852294921875 0.5023865699768066 264.4680480957031 L 18.79195404052734 39.62516403198242 L 18.79360771179199 39.60493087768555 L 18.79360771179199 39.58462524414062 C 18.79360771179199 35.0031623840332 19.69076156616211 30.55900955200195 21.46018600463867 26.37562370300293 C 23.16937828063965 22.33470153808594 25.61630058288574 18.70547103881836 28.73299217224121 15.58877849578857 C 31.84972381591797 12.47204780578613 35.47891616821289 10.02512454986572 39.51987838745117 8.315932273864746 C 43.70326232910156 6.5465087890625 48.14737701416016 5.649354934692383 52.72883987426758 5.649354934692383 L 52.73964691162109 5.649354934692383 L 52.75045394897461 5.648893356323242 L 166.1934204101562 0.7378935813903809 L 166.2161102294922 0.7368935346603394 L 166.2386016845703 0.7338550686836243 C 167.3894958496094 0.5787012577056885 168.565185546875 0.5000089406967163 169.7329864501953 0.5000089406967163 C 173.6643829345703 0.5000089406967163 177.5728759765625 1.362393498420715 181.3499908447266 3.063201189041138 C 185.0804138183594 4.74304723739624 188.4958343505859 7.154316425323486 191.5013427734375 10.23004722595215 C 194.9736480712891 13.78354740142822 197.6866912841797 17.99908638000488 199.5651092529297 22.75954818725586 C 201.5636596679688 27.82446670532227 202.5107879638672 33.26610946655273 202.3802032470703 38.93268203735352 L 194.0863800048828 250.5003509521484 L 194.0859985351562 250.5101318359375 L 194.0859985351562 250.5199279785156 C 194.0859985351562 259.5234680175781 193.5982666015625 268.8996276855469 190.0598754882812 276.4772033691406 C 188.2236022949219 280.4095458984375 185.7263031005859 283.5911560058594 182.4251861572266 286.2038269042969 C 180.6601409912109 287.6007385253906 178.6378326416016 288.8417053222656 176.4144897460938 289.8922424316406 C 174.0995483398438 290.9860534667969 171.4890289306641 291.9102172851562 168.6552276611328 292.6391906738281 L 51.94310760498047 304.5441589355469 C 51.91022491455078 304.54736328125 48.38053131103516 304.8859252929688 43.38037872314453 304.8859252929688 Z" stroke="none"/>
        <path d="M 169.7329559326172 1 C 168.5873718261719 1 167.4341888427734 1.07720947265625 166.3053741455078 1.229400634765625 L 166.2603759765625 1.2354736328125 L 166.2149963378906 1.2374267578125 L 52.72883605957031 6.14935302734375 C 48.21464538574219 6.14935302734375 43.83607482910156 7.033233642578125 39.71464538574219 8.77642822265625 C 35.73330688476562 10.46038818359375 32.15748596191406 12.87136840820312 29.08653259277344 15.94232177734375 C 26.01556396484375 19.01324462890625 23.6046142578125 22.58905029296875 21.92068481445312 26.57040405273438 C 20.17745971679688 30.69180297851562 19.29356384277344 35.07040405273438 19.29356384277344 39.5845947265625 L 19.29356384277344 39.62521362304688 L 19.29026794433594 39.6656494140625 L 1.00225830078125 264.4899291992188 C 1.002151489257812 264.5040893554688 1.00201416015625 264.5204772949219 1.001846313476562 264.5391235351562 C 0.9859619140625 266.3653259277344 1.077301025390625 271.2388916015625 2.2659912109375 277.0370178222656 C 3.0196533203125 280.7132263183594 4.081573486328125 284.0840148925781 5.422225952148438 287.0556640625 C 7.064651489257812 290.6961669921875 9.136688232421875 293.7549438476562 11.58076477050781 296.1469421386719 C 14.735107421875 299.234130859375 19.74833679199219 301.4966125488281 26.48114013671875 302.8715209960938 C 31.33268737792969 303.8622436523438 37.17630004882812 304.3858947753906 43.38021850585938 304.3858947753906 C 48.35221862792969 304.3858947753906 51.86192321777344 304.0496520996094 51.89237976074219 304.0466918945312 L 168.5669097900391 292.1455993652344 C 171.3561859130859 291.4259643554688 173.9242706298828 290.515869140625 176.2008819580078 289.4401550292969 C 178.3898773193359 288.4058532714844 180.3796081542969 287.1850891113281 182.1148834228516 285.8117370605469 C 185.3535766601562 283.2484741210938 187.8042297363281 280.1258850097656 189.6067962646484 276.265625 C 193.1039123535156 268.7764282226562 193.5859985351562 259.4657897949219 193.5859985351562 250.5199279785156 L 193.5867614746094 250.4807739257812 L 201.8804779052734 38.91604614257812 C 202.0088043212891 33.31838989257812 201.0733337402344 27.94406127929688 199.0999908447266 22.94305419921875 C 197.2461395263672 18.24484252929688 194.5693054199219 14.08517456054688 191.1437225341797 10.57949829101562 C 188.1820678710938 7.548675537109375 184.8179168701172 5.173187255859375 181.1446838378906 3.519134521484375 C 177.4325256347656 1.8475341796875 173.5930633544922 1 169.7329559326172 1 M 169.7329406738281 3.0517578125e-05 C 186.9294738769531 3.0517578125e-05 203.3993377685547 16.47665405273438 202.8800354003906 38.94696044921875 L 194.5859985351562 250.5199279785156 C 194.5859985351562 269.5379638671875 192.3386535644531 287.0810546875 168.7431945800781 293.1328125 L 51.99383544921875 305.0415344238281 C 51.99385070800781 305.0415344238281 22.2109375 307.9500427246094 10.88130187988281 296.8616333007812 C -0.4483489990234375 285.7733154296875 0.0024566650390625 265.1886901855469 0.0024566650390625 264.447021484375 L 18.29356384277344 39.5845947265625 C 18.29356384277344 20.56649780273438 33.71076965332031 5.14935302734375 52.72883605957031 5.14935302734375 L 166.1717529296875 0.23834228515625 C 167.3580474853516 0.078399658203125 168.5482177734375 3.0517578125e-05 169.7329406738281 3.0517578125e-05 Z" stroke="none" fill="#e3e3e3"/>
      </g>
    </g>
    <path id="Path_13" data-name="Path 13" d="M7.515-2.849a2.627,2.627,0,0,1-1.025,2.2A4.446,4.446,0,0,1,3.706.146,6.971,6.971,0,0,1,.776-.344v-1.2a7.713,7.713,0,0,0,1.436.439A7.553,7.553,0,0,0,3.75-.945a3.1,3.1,0,0,0,1.875-.472,1.55,1.55,0,0,0,.63-1.315,1.688,1.688,0,0,0-.223-.912A2.075,2.075,0,0,0,5.284-4.3,10.451,10.451,0,0,0,3.691-4.98,5.085,5.085,0,0,1,1.556-6.248,2.8,2.8,0,0,1,.916-8.159a2.377,2.377,0,0,1,.93-1.97,3.866,3.866,0,0,1,2.461-.732,7.253,7.253,0,0,1,2.937.586L6.855-9.192a6.637,6.637,0,0,0-2.578-.557,2.5,2.5,0,0,0-1.545.425,1.4,1.4,0,0,0-.557,1.179,1.807,1.807,0,0,0,.205.912,1.931,1.931,0,0,0,.692.652,8.6,8.6,0,0,0,1.49.656A5.9,5.9,0,0,1,6.881-4.636,2.535,2.535,0,0,1,7.515-2.849ZM16-4.021a4.428,4.428,0,0,1-.989,3.065,3.482,3.482,0,0,1-2.732,1.1,3.618,3.618,0,0,1-1.912-.505,3.335,3.335,0,0,1-1.289-1.45,5.054,5.054,0,0,1-.454-2.212,4.421,4.421,0,0,1,.981-3.058,3.471,3.471,0,0,1,2.725-1.095,3.4,3.4,0,0,1,2.677,1.121A4.409,4.409,0,0,1,16-4.021Zm-6.116,0A3.81,3.81,0,0,0,10.5-1.677a2.136,2.136,0,0,0,1.809.806,2.15,2.15,0,0,0,1.813-.8,3.791,3.791,0,0,0,.619-2.347,3.73,3.73,0,0,0-.619-2.325,2.175,2.175,0,0,0-1.827-.795,2.14,2.14,0,0,0-1.8.784A3.772,3.772,0,0,0,9.884-4.021ZM27.913,0V-5.222a2.168,2.168,0,0,0-.41-1.439,1.586,1.586,0,0,0-1.274-.48,2.058,2.058,0,0,0-1.677.652,3.1,3.1,0,0,0-.542,2.007V0H22.794V-5.222a2.168,2.168,0,0,0-.41-1.439,1.6,1.6,0,0,0-1.282-.48,1.985,1.985,0,0,0-1.674.685A3.706,3.706,0,0,0,18.9-4.211V0H17.682V-8.027h.989l.2,1.1h.059a2.39,2.39,0,0,1,.97-.916,2.965,2.965,0,0,1,1.4-.33,2.385,2.385,0,0,1,2.461,1.362h.059a2.56,2.56,0,0,1,1.04-1,3.227,3.227,0,0,1,1.553-.366,2.718,2.718,0,0,1,2.04.7,3.129,3.129,0,0,1,.677,2.238V0Zm6.662.146A3.688,3.688,0,0,1,31.766-.937a4.2,4.2,0,0,1-1.029-3.01,4.654,4.654,0,0,1,.956-3.083A3.175,3.175,0,0,1,34.26-8.174a3.027,3.027,0,0,1,2.388.992,3.8,3.8,0,0,1,.879,2.618v.769H32a3.182,3.182,0,0,0,.714,2.146,2.47,2.47,0,0,0,1.908.732,6.466,6.466,0,0,0,2.563-.542V-.374a6.434,6.434,0,0,1-1.219.4A6.853,6.853,0,0,1,34.575.146Zm-.33-7.3a1.985,1.985,0,0,0-1.542.63,2.9,2.9,0,0,0-.677,1.743h4.2a2.673,2.673,0,0,0-.513-1.761A1.8,1.8,0,0,0,34.246-7.156Zm7.5,6.3A3.972,3.972,0,0,0,42.365-.9a4.03,4.03,0,0,0,.476-.1v.93a2.223,2.223,0,0,1-.582.157,4.373,4.373,0,0,1-.692.062q-2.329,0-2.329-2.454V-7.083h-1.15v-.586l1.15-.505.513-1.714h.7v1.86h2.329v.945H40.453v4.724A1.625,1.625,0,0,0,40.8-1.245,1.2,1.2,0,0,0,41.742-.857ZM45.211,0H44V-8.027h1.216ZM43.893-10.2a.808.808,0,0,1,.205-.612.717.717,0,0,1,.513-.194.716.716,0,0,1,.505.2.793.793,0,0,1,.212.608.805.805,0,0,1-.212.612.709.709,0,0,1-.505.2.7.7,0,0,1-.513-.2A.823.823,0,0,1,43.893-10.2ZM57.571,0V-5.222a2.168,2.168,0,0,0-.41-1.439,1.586,1.586,0,0,0-1.274-.48,2.058,2.058,0,0,0-1.677.652,3.1,3.1,0,0,0-.542,2.007V0H52.451V-5.222a2.168,2.168,0,0,0-.41-1.439,1.6,1.6,0,0,0-1.282-.48,1.985,1.985,0,0,0-1.674.685,3.706,3.706,0,0,0-.531,2.245V0H47.339V-8.027h.989l.2,1.1h.059a2.39,2.39,0,0,1,.97-.916,2.965,2.965,0,0,1,1.4-.33,2.385,2.385,0,0,1,2.461,1.362h.059a2.56,2.56,0,0,1,1.04-1,3.227,3.227,0,0,1,1.553-.366,2.718,2.718,0,0,1,2.04.7,3.129,3.129,0,0,1,.677,2.238V0Zm6.662.146A3.688,3.688,0,0,1,61.424-.937a4.2,4.2,0,0,1-1.029-3.01,4.654,4.654,0,0,1,.956-3.083,3.175,3.175,0,0,1,2.567-1.143,3.027,3.027,0,0,1,2.388.992,3.8,3.8,0,0,1,.879,2.618v.769h-5.53a3.182,3.182,0,0,0,.714,2.146,2.47,2.47,0,0,0,1.908.732,6.466,6.466,0,0,0,2.563-.542V-.374a6.434,6.434,0,0,1-1.219.4A6.853,6.853,0,0,1,64.233.146Zm-.33-7.3a1.985,1.985,0,0,0-1.542.63,2.9,2.9,0,0,0-.677,1.743h4.2a2.673,2.673,0,0,0-.513-1.761A1.8,1.8,0,0,0,63.9-7.156ZM73.985-2.19A2.011,2.011,0,0,1,73.15-.461a3.925,3.925,0,0,1-2.344.608,5.1,5.1,0,0,1-2.49-.505V-1.487a6.022,6.022,0,0,0,1.241.461,5.184,5.184,0,0,0,1.278.168,2.9,2.9,0,0,0,1.465-.3,1,1,0,0,0,.513-.927,1.006,1.006,0,0,0-.406-.8,6.394,6.394,0,0,0-1.586-.787,8.6,8.6,0,0,1-1.593-.729,2.176,2.176,0,0,1-.7-.707,1.843,1.843,0,0,1-.231-.945,1.8,1.8,0,0,1,.8-1.549,3.72,3.72,0,0,1,2.19-.568,6.408,6.408,0,0,1,2.534.527l-.432.989a5.817,5.817,0,0,0-2.19-.5,2.52,2.52,0,0,0-1.3.271.838.838,0,0,0-.439.747.91.91,0,0,0,.165.549,1.626,1.626,0,0,0,.531.432,11.867,11.867,0,0,0,1.406.593,5.254,5.254,0,0,1,1.93,1.047A1.847,1.847,0,0,1,73.985-2.19Zm2.8.447.11.168q-.19.732-.549,1.7T75.6,1.934h-.916q.2-.762.436-1.882t.333-1.794ZM4.951,12.826a4.757,4.757,0,0,1,.959.088l-.168,1.128a4.142,4.142,0,0,0-.879-.11,2.139,2.139,0,0,0-1.666.791,2.884,2.884,0,0,0-.692,1.97V21H1.289V12.973h1l.139,1.487H2.49a3.529,3.529,0,0,1,1.077-1.208A2.424,2.424,0,0,1,4.951,12.826Zm5.4,8.32a3.688,3.688,0,0,1-2.809-1.084,4.2,4.2,0,0,1-1.029-3.01,4.654,4.654,0,0,1,.956-3.083,3.175,3.175,0,0,1,2.567-1.143,3.027,3.027,0,0,1,2.388.992,3.8,3.8,0,0,1,.879,2.618v.769H7.775a3.182,3.182,0,0,0,.714,2.146,2.47,2.47,0,0,0,1.908.732,6.466,6.466,0,0,0,2.563-.542v1.084a6.434,6.434,0,0,1-1.219.4A6.853,6.853,0,0,1,10.353,21.146Zm-.33-7.3a1.985,1.985,0,0,0-1.542.63A2.9,2.9,0,0,0,7.8,16.217H12a2.673,2.673,0,0,0-.513-1.761A1.8,1.8,0,0,0,10.024,13.844Zm8.112,7.3a3.426,3.426,0,0,1-2.7-1.073,4.412,4.412,0,0,1-.956-3.036,4.55,4.55,0,0,1,.97-3.113,3.494,3.494,0,0,1,2.765-1.1,5.487,5.487,0,0,1,1.157.125,3.812,3.812,0,0,1,.908.293l-.374,1.033a5.717,5.717,0,0,0-.879-.267,3.924,3.924,0,0,0-.842-.106q-2.446,0-2.446,3.12a3.715,3.715,0,0,0,.6,2.271,2.077,2.077,0,0,0,1.769.791,5.408,5.408,0,0,0,2.058-.432v1.077A4.386,4.386,0,0,1,18.136,21.146Zm10.412-4.167a4.428,4.428,0,0,1-.989,3.065,3.482,3.482,0,0,1-2.732,1.1,3.618,3.618,0,0,1-1.912-.505,3.335,3.335,0,0,1-1.289-1.45,5.054,5.054,0,0,1-.454-2.212,4.421,4.421,0,0,1,.981-3.058,3.471,3.471,0,0,1,2.725-1.095,3.4,3.4,0,0,1,2.677,1.121A4.409,4.409,0,0,1,28.547,16.979Zm-6.116,0a3.81,3.81,0,0,0,.615,2.344,2.136,2.136,0,0,0,1.809.806,2.15,2.15,0,0,0,1.813-.8,3.791,3.791,0,0,0,.619-2.347,3.73,3.73,0,0,0-.619-2.325,2.175,2.175,0,0,0-1.827-.795,2.14,2.14,0,0,0-1.8.784A3.772,3.772,0,0,0,22.432,16.979ZM40.461,21V15.778a2.168,2.168,0,0,0-.41-1.439,1.586,1.586,0,0,0-1.274-.48,2.058,2.058,0,0,0-1.677.652,3.1,3.1,0,0,0-.542,2.007V21H35.341V15.778a2.168,2.168,0,0,0-.41-1.439,1.6,1.6,0,0,0-1.282-.48,1.985,1.985,0,0,0-1.674.685,3.706,3.706,0,0,0-.531,2.245V21H30.229V12.973h.989l.2,1.1h.059a2.39,2.39,0,0,1,.97-.916,2.965,2.965,0,0,1,1.4-.33,2.385,2.385,0,0,1,2.461,1.362h.059a2.56,2.56,0,0,1,1.04-1,3.227,3.227,0,0,1,1.553-.366,2.718,2.718,0,0,1,2.04.7,3.129,3.129,0,0,1,.677,2.238V21Zm13.5,0V15.778a2.168,2.168,0,0,0-.41-1.439,1.586,1.586,0,0,0-1.274-.48,2.058,2.058,0,0,0-1.677.652,3.1,3.1,0,0,0-.542,2.007V21H48.844V15.778a2.168,2.168,0,0,0-.41-1.439,1.6,1.6,0,0,0-1.282-.48,1.985,1.985,0,0,0-1.674.685,3.706,3.706,0,0,0-.531,2.245V21H43.731V12.973h.989l.2,1.1h.059a2.39,2.39,0,0,1,.97-.916,2.965,2.965,0,0,1,1.4-.33,2.385,2.385,0,0,1,2.461,1.362h.059a2.56,2.56,0,0,1,1.04-1,3.227,3.227,0,0,1,1.553-.366,2.718,2.718,0,0,1,2.04.7,3.129,3.129,0,0,1,.677,2.238V21Zm6.662.146a3.688,3.688,0,0,1-2.809-1.084,4.2,4.2,0,0,1-1.029-3.01,4.654,4.654,0,0,1,.956-3.083,3.175,3.175,0,0,1,2.567-1.143,3.027,3.027,0,0,1,2.388.992,3.8,3.8,0,0,1,.879,2.618v.769h-5.53a3.182,3.182,0,0,0,.714,2.146,2.47,2.47,0,0,0,1.908.732,6.466,6.466,0,0,0,2.563-.542v1.084a6.434,6.434,0,0,1-1.219.4A6.853,6.853,0,0,1,60.625,21.146Zm-.33-7.3a1.985,1.985,0,0,0-1.542.63,2.9,2.9,0,0,0-.677,1.743h4.2a2.673,2.673,0,0,0-.513-1.761A1.8,1.8,0,0,0,60.3,13.844ZM70.693,21V15.807a2.1,2.1,0,0,0-.447-1.465,1.82,1.82,0,0,0-1.4-.483A2.307,2.307,0,0,0,67,14.54a3.439,3.439,0,0,0-.586,2.249V21H65.2V12.973h.989l.2,1.1h.059a2.483,2.483,0,0,1,1.047-.919,3.4,3.4,0,0,1,1.5-.326,3.049,3.049,0,0,1,2.183.7,2.977,2.977,0,0,1,.732,2.238V21Zm8.727-1.077h-.066a2.857,2.857,0,0,1-2.52,1.223,2.981,2.981,0,0,1-2.45-1.077,4.739,4.739,0,0,1-.875-3.062,4.819,4.819,0,0,1,.879-3.083,2.958,2.958,0,0,1,2.446-1.1,2.919,2.919,0,0,1,2.5,1.187h.1l-.051-.579-.029-.564V9.6H80.57V21h-.989Zm-2.432.205a2.214,2.214,0,0,0,1.805-.677,3.423,3.423,0,0,0,.56-2.186v-.256a4.028,4.028,0,0,0-.568-2.435,2.156,2.156,0,0,0-1.813-.729,1.861,1.861,0,0,0-1.637.831,4.134,4.134,0,0,0-.568,2.347,3.963,3.963,0,0,0,.564,2.322A1.91,1.91,0,0,0,76.988,20.128ZM87.635,21l-.242-1.143h-.059a3.378,3.378,0,0,1-1.2,1.022,3.65,3.65,0,0,1-1.49.267,2.681,2.681,0,0,1-1.871-.615,2.244,2.244,0,0,1-.677-1.75q0-2.432,3.889-2.549l1.362-.044v-.5a2.035,2.035,0,0,0-.406-1.4,1.672,1.672,0,0,0-1.3-.45,5.3,5.3,0,0,0-2.271.615L83,13.529a5.713,5.713,0,0,1,1.3-.505,5.631,5.631,0,0,1,1.417-.183,3.058,3.058,0,0,1,2.128.637,2.66,2.66,0,0,1,.692,2.043V21Zm-2.747-.857a2.468,2.468,0,0,0,1.783-.623,2.3,2.3,0,0,0,.648-1.743v-.725L86.1,17.1a4.422,4.422,0,0,0-2.091.45,1.358,1.358,0,0,0-.641,1.241,1.253,1.253,0,0,0,.4,1A1.657,1.657,0,0,0,84.888,20.143Zm8.3,0a3.972,3.972,0,0,0,.623-.048,4.03,4.03,0,0,0,.476-.1v.93a2.223,2.223,0,0,1-.582.157,4.373,4.373,0,0,1-.692.062q-2.329,0-2.329-2.454V13.917h-1.15v-.586l1.15-.505.513-1.714h.7v1.86h2.329v.945H91.894v4.724a1.625,1.625,0,0,0,.344,1.113A1.2,1.2,0,0,0,93.183,20.143ZM96.652,21H95.436V12.973h1.216ZM95.333,10.8a.808.808,0,0,1,.205-.612.759.759,0,0,1,1.018,0,.793.793,0,0,1,.212.608.805.805,0,0,1-.212.612.744.744,0,0,1-1.018,0A.823.823,0,0,1,95.333,10.8Zm10.375,6.182a4.428,4.428,0,0,1-.989,3.065,3.482,3.482,0,0,1-2.732,1.1,3.618,3.618,0,0,1-1.912-.505,3.335,3.335,0,0,1-1.289-1.45,5.054,5.054,0,0,1-.454-2.212,4.421,4.421,0,0,1,.981-3.058,3.471,3.471,0,0,1,2.725-1.095,3.4,3.4,0,0,1,2.677,1.121A4.409,4.409,0,0,1,105.708,16.979Zm-6.116,0a3.81,3.81,0,0,0,.615,2.344,2.442,2.442,0,0,0,3.622,0,3.791,3.791,0,0,0,.619-2.347,3.73,3.73,0,0,0-.619-2.325A2.175,2.175,0,0,0,102,13.859a2.14,2.14,0,0,0-1.8.784A3.772,3.772,0,0,0,99.593,16.979ZM112.883,21V15.807a2.1,2.1,0,0,0-.447-1.465,1.82,1.82,0,0,0-1.4-.483,2.307,2.307,0,0,0-1.846.681,3.439,3.439,0,0,0-.586,2.249V21H107.39V12.973h.989l.2,1.1h.059a2.483,2.483,0,0,1,1.047-.919,3.4,3.4,0,0,1,1.5-.326,3.049,3.049,0,0,1,2.183.7,2.977,2.977,0,0,1,.732,2.238V21Zm8.442-2.19a2.011,2.011,0,0,1-.835,1.729,3.925,3.925,0,0,1-2.344.608,5.1,5.1,0,0,1-2.49-.505V19.513a6.022,6.022,0,0,0,1.241.461,5.184,5.184,0,0,0,1.278.168,2.9,2.9,0,0,0,1.465-.3,1.046,1.046,0,0,0,.106-1.729,6.394,6.394,0,0,0-1.586-.787,8.6,8.6,0,0,1-1.593-.729,2.176,2.176,0,0,1-.7-.707,1.843,1.843,0,0,1-.231-.945,1.8,1.8,0,0,1,.8-1.549,3.72,3.72,0,0,1,2.19-.568,6.408,6.408,0,0,1,2.534.527l-.432.989a5.817,5.817,0,0,0-2.19-.5,2.52,2.52,0,0,0-1.3.271.838.838,0,0,0-.439.747.91.91,0,0,0,.165.549,1.626,1.626,0,0,0,.531.432,11.867,11.867,0,0,0,1.406.593,5.254,5.254,0,0,1,1.93,1.047A1.847,1.847,0,0,1,121.325,18.81Zm8.709-5.969a2.984,2.984,0,0,1,2.457,1.08,4.742,4.742,0,0,1,.875,3.058,4.776,4.776,0,0,1-.883,3.073,2.972,2.972,0,0,1-2.45,1.095,3.474,3.474,0,0,1-1.432-.289,2.693,2.693,0,0,1-1.088-.89h-.088L127.17,21H126.3V9.6h1.216v2.769q0,.93-.059,1.67h.059A2.886,2.886,0,0,1,130.034,12.841Zm-.176,1.018a2.123,2.123,0,0,0-1.794.714,4.028,4.028,0,0,0-.549,2.406,4.017,4.017,0,0,0,.564,2.421,2.145,2.145,0,0,0,1.809.729,1.875,1.875,0,0,0,1.67-.817,4.2,4.2,0,0,0,.549-2.347,4.034,4.034,0,0,0-.549-2.336A1.947,1.947,0,0,0,129.858,13.859Zm8.844-1.033a4.757,4.757,0,0,1,.959.088l-.168,1.128a4.142,4.142,0,0,0-.879-.11,2.139,2.139,0,0,0-1.666.791,2.884,2.884,0,0,0-.692,1.97V21H135.04V12.973h1l.139,1.487h.059a3.529,3.529,0,0,1,1.077-1.208A2.424,2.424,0,0,1,138.7,12.826ZM141.929,21h-1.216V12.973h1.216Zm-1.318-10.2a.808.808,0,0,1,.205-.612.759.759,0,0,1,1.018,0,.793.793,0,0,1,.212.608.805.805,0,0,1-.212.612.744.744,0,0,1-1.018,0A.823.823,0,0,1,140.611,10.8Zm8.94,10.2V15.807a2.1,2.1,0,0,0-.447-1.465,1.82,1.82,0,0,0-1.4-.483,2.307,2.307,0,0,0-1.846.681,3.439,3.439,0,0,0-.586,2.249V21h-1.216V12.973h.989l.2,1.1h.059a2.483,2.483,0,0,1,1.047-.919,3.4,3.4,0,0,1,1.5-.326,3.049,3.049,0,0,1,2.183.7,2.977,2.977,0,0,1,.732,2.238V21Zm9.833-8.027v.769l-1.487.176a2.611,2.611,0,0,1,.527,1.6,2.373,2.373,0,0,1-.806,1.882,3.25,3.25,0,0,1-2.212.7,3.683,3.683,0,0,1-.674-.059,1.2,1.2,0,0,0-.776,1.033.525.525,0,0,0,.271.487,1.98,1.98,0,0,0,.93.157h1.421a3.182,3.182,0,0,1,2,.549,1.909,1.909,0,0,1,.7,1.6,2.279,2.279,0,0,1-1.069,2.032,5.723,5.723,0,0,1-3.12.7,4.263,4.263,0,0,1-2.428-.586,1.892,1.892,0,0,1-.853-1.655,1.859,1.859,0,0,1,.469-1.267,2.387,2.387,0,0,1,1.318-.725,1.272,1.272,0,0,1-.516-.432,1.144,1.144,0,0,1-.209-.681,1.293,1.293,0,0,1,.234-.769,2.464,2.464,0,0,1,.74-.637,2.168,2.168,0,0,1-1.014-.872,2.561,2.561,0,0,1-.392-1.406,2.6,2.6,0,0,1,.791-2.032,3.23,3.23,0,0,1,2.241-.714,4.075,4.075,0,0,1,1.135.146Zm-6.4,9.375a1.09,1.09,0,0,0,.549.989,3.032,3.032,0,0,0,1.575.337,4.394,4.394,0,0,0,2.267-.458,1.4,1.4,0,0,0,.736-1.241.982.982,0,0,0-.4-.9,3.129,3.129,0,0,0-1.516-.253h-1.458a1.92,1.92,0,0,0-1.289.4A1.413,1.413,0,0,0,152.982,22.348Zm.659-6.8a1.634,1.634,0,0,0,.476,1.274,1.9,1.9,0,0,0,1.326.432,1.551,1.551,0,0,0,1.78-1.729,1.6,1.6,0,0,0-1.8-1.809,1.784,1.784,0,0,0-1.318.461A1.858,1.858,0,0,0,153.642,15.543ZM4.68,42.146a3.688,3.688,0,0,1-2.809-1.084,4.2,4.2,0,0,1-1.029-3.01A4.654,4.654,0,0,1,1.8,34.969a3.175,3.175,0,0,1,2.567-1.143,3.027,3.027,0,0,1,2.388.992,3.8,3.8,0,0,1,.879,2.618v.769H2.1a3.182,3.182,0,0,0,.714,2.146,2.47,2.47,0,0,0,1.908.732,6.466,6.466,0,0,0,2.563-.542v1.084a6.434,6.434,0,0,1-1.219.4A6.853,6.853,0,0,1,4.68,42.146Zm-.33-7.3a1.985,1.985,0,0,0-1.542.63,2.9,2.9,0,0,0-.677,1.743h4.2a2.673,2.673,0,0,0-.513-1.761A1.8,1.8,0,0,0,4.351,34.844Zm6.838,3.047L8.4,33.973H9.782L11.9,37.049l2.109-3.076h1.37l-2.791,3.918L15.524,42H14.147L11.9,38.748,9.628,42H8.251Zm8.683,4.255a3.426,3.426,0,0,1-2.7-1.073,4.412,4.412,0,0,1-.956-3.036,4.55,4.55,0,0,1,.97-3.113,3.494,3.494,0,0,1,2.765-1.1,5.487,5.487,0,0,1,1.157.125,3.812,3.812,0,0,1,.908.293l-.374,1.033a5.717,5.717,0,0,0-.879-.267,3.924,3.924,0,0,0-.842-.106q-2.446,0-2.446,3.12a3.715,3.715,0,0,0,.6,2.271,2.077,2.077,0,0,0,1.769.791,5.408,5.408,0,0,0,2.058-.432v1.077A4.386,4.386,0,0,1,19.871,42.146Zm6.874,0a3.688,3.688,0,0,1-2.809-1.084,4.2,4.2,0,0,1-1.029-3.01,4.654,4.654,0,0,1,.956-3.083,3.175,3.175,0,0,1,2.567-1.143,3.027,3.027,0,0,1,2.388.992,3.8,3.8,0,0,1,.879,2.618v.769h-5.53a3.182,3.182,0,0,0,.714,2.146,2.47,2.47,0,0,0,1.908.732,6.466,6.466,0,0,0,2.563-.542v1.084a6.434,6.434,0,0,1-1.219.4A6.853,6.853,0,0,1,26.746,42.146Zm-.33-7.3a1.985,1.985,0,0,0-1.542.63,2.9,2.9,0,0,0-.677,1.743h4.2a2.673,2.673,0,0,0-.513-1.761A1.8,1.8,0,0,0,26.416,34.844ZM32.536,42H31.32V30.6h1.216Zm3.344,0H34.664V30.6H35.88Zm5.519.146a3.688,3.688,0,0,1-2.809-1.084,4.2,4.2,0,0,1-1.029-3.01,4.654,4.654,0,0,1,.956-3.083,3.175,3.175,0,0,1,2.567-1.143,3.027,3.027,0,0,1,2.388.992,3.8,3.8,0,0,1,.879,2.618v.769h-5.53a3.182,3.182,0,0,0,.714,2.146,2.47,2.47,0,0,0,1.908.732,6.466,6.466,0,0,0,2.563-.542v1.084a6.434,6.434,0,0,1-1.219.4A6.853,6.853,0,0,1,41.4,42.146Zm-.33-7.3a1.985,1.985,0,0,0-1.542.63,2.9,2.9,0,0,0-.677,1.743h4.2a2.673,2.673,0,0,0-.513-1.761A1.8,1.8,0,0,0,41.07,34.844ZM51.467,42V36.807a2.1,2.1,0,0,0-.447-1.465,1.82,1.82,0,0,0-1.4-.483,2.307,2.307,0,0,0-1.846.681,3.439,3.439,0,0,0-.586,2.249V42H45.974V33.973h.989l.2,1.1h.059a2.483,2.483,0,0,1,1.047-.919,3.4,3.4,0,0,1,1.5-.326,3.049,3.049,0,0,1,2.183.7,2.977,2.977,0,0,1,.732,2.238V42Zm5.856-.857a3.972,3.972,0,0,0,.623-.048,4.03,4.03,0,0,0,.476-.1v.93a2.223,2.223,0,0,1-.582.157,4.373,4.373,0,0,1-.692.062q-2.329,0-2.329-2.454V34.917h-1.15v-.586l1.15-.505.513-1.714h.7v1.86h2.329v.945H56.034v4.724a1.625,1.625,0,0,0,.344,1.113A1.2,1.2,0,0,0,57.323,41.143Zm12.628-3.164a4.428,4.428,0,0,1-.989,3.065,3.482,3.482,0,0,1-2.732,1.1,3.618,3.618,0,0,1-1.912-.505,3.335,3.335,0,0,1-1.289-1.45,5.054,5.054,0,0,1-.454-2.212,4.421,4.421,0,0,1,.981-3.058,3.471,3.471,0,0,1,2.725-1.095,3.4,3.4,0,0,1,2.677,1.121A4.409,4.409,0,0,1,69.951,37.979Zm-6.116,0a3.81,3.81,0,0,0,.615,2.344,2.442,2.442,0,0,0,3.622,0,3.791,3.791,0,0,0,.619-2.347,3.73,3.73,0,0,0-.619-2.325,2.175,2.175,0,0,0-1.827-.795,2.14,2.14,0,0,0-1.8.784A3.772,3.772,0,0,0,63.835,37.979Zm11.532,4.167a3.474,3.474,0,0,1-1.432-.289,2.693,2.693,0,0,1-1.088-.89H72.76a10.767,10.767,0,0,1,.088,1.333v3.3H71.632V33.973h.989l.168,1.1h.059a2.824,2.824,0,0,1,1.091-.952,3.317,3.317,0,0,1,1.428-.293,2.967,2.967,0,0,1,2.465,1.091,4.8,4.8,0,0,1,.868,3.062,4.776,4.776,0,0,1-.883,3.073A2.972,2.972,0,0,1,75.367,42.146Zm-.176-7.288a2.155,2.155,0,0,0-1.78.681,3.505,3.505,0,0,0-.564,2.168v.271a4.017,4.017,0,0,0,.564,2.421,2.145,2.145,0,0,0,1.809.729,1.881,1.881,0,0,0,1.63-.842,3.994,3.994,0,0,0,.59-2.322,3.844,3.844,0,0,0-.59-2.3A1.939,1.939,0,0,0,75.192,34.859Zm8.918,7.288a3.474,3.474,0,0,1-1.432-.289,2.693,2.693,0,0,1-1.088-.89H81.5A10.767,10.767,0,0,1,81.59,42.3v3.3H80.374V33.973h.989l.168,1.1h.059a2.824,2.824,0,0,1,1.091-.952,3.317,3.317,0,0,1,1.428-.293,2.967,2.967,0,0,1,2.465,1.091,4.8,4.8,0,0,1,.868,3.062,4.776,4.776,0,0,1-.883,3.073A2.972,2.972,0,0,1,84.109,42.146Zm-.176-7.288a2.155,2.155,0,0,0-1.78.681,3.505,3.505,0,0,0-.564,2.168v.271a4.017,4.017,0,0,0,.564,2.421,2.145,2.145,0,0,0,1.809.729,1.881,1.881,0,0,0,1.63-.842,3.994,3.994,0,0,0,.59-2.322,3.844,3.844,0,0,0-.59-2.3A1.939,1.939,0,0,0,83.933,34.859Zm12.111,3.12a4.428,4.428,0,0,1-.989,3.065,3.482,3.482,0,0,1-2.732,1.1,3.618,3.618,0,0,1-1.912-.505,3.335,3.335,0,0,1-1.289-1.45,5.054,5.054,0,0,1-.454-2.212,4.421,4.421,0,0,1,.981-3.058,3.471,3.471,0,0,1,2.725-1.095,3.4,3.4,0,0,1,2.677,1.121A4.409,4.409,0,0,1,96.045,37.979Zm-6.116,0a3.81,3.81,0,0,0,.615,2.344,2.442,2.442,0,0,0,3.622,0,3.791,3.791,0,0,0,.619-2.347,3.73,3.73,0,0,0-.619-2.325,2.175,2.175,0,0,0-1.827-.795,2.14,2.14,0,0,0-1.8.784A3.772,3.772,0,0,0,89.929,37.979Zm11.459-4.153a4.757,4.757,0,0,1,.959.088l-.168,1.128a4.142,4.142,0,0,0-.879-.11,2.139,2.139,0,0,0-1.666.791,2.884,2.884,0,0,0-.692,1.97V42H97.726V33.973h1l.139,1.487h.059A3.529,3.529,0,0,1,100,34.251,2.424,2.424,0,0,1,101.388,33.826Zm4.6,7.317a3.972,3.972,0,0,0,.623-.048,4.03,4.03,0,0,0,.476-.1v.93a2.223,2.223,0,0,1-.582.157,4.373,4.373,0,0,1-.692.062q-2.329,0-2.329-2.454V34.917h-1.15v-.586l1.15-.505L104,32.112h.7v1.86h2.329v.945H104.7v4.724a1.625,1.625,0,0,0,.344,1.113A1.2,1.2,0,0,0,105.992,41.143Zm3.4-7.17V39.18a2.1,2.1,0,0,0,.447,1.465,1.82,1.82,0,0,0,1.4.483,2.282,2.282,0,0,0,1.842-.688,3.473,3.473,0,0,0,.582-2.249V33.973h1.216V42h-1l-.176-1.077h-.066a2.423,2.423,0,0,1-1.036.908,3.483,3.483,0,0,1-1.512.315,3.069,3.069,0,0,1-2.194-.7,2.962,2.962,0,0,1-.729-2.227V33.973ZM122.494,42V36.807a2.1,2.1,0,0,0-.447-1.465,1.82,1.82,0,0,0-1.4-.483,2.307,2.307,0,0,0-1.846.681,3.439,3.439,0,0,0-.586,2.249V42H117V33.973h.989l.2,1.1h.059a2.483,2.483,0,0,1,1.047-.919,3.4,3.4,0,0,1,1.5-.326,3.049,3.049,0,0,1,2.183.7,2.977,2.977,0,0,1,.732,2.238V42Zm4.479,0h-1.216V33.973h1.216Zm-1.318-10.2a.808.808,0,0,1,.205-.612.759.759,0,0,1,1.018,0,.793.793,0,0,1,.212.608.805.805,0,0,1-.212.612.744.744,0,0,1-1.018,0A.823.823,0,0,1,125.655,31.8Zm6.039,9.346a3.972,3.972,0,0,0,.623-.048,4.03,4.03,0,0,0,.476-.1v.93a2.223,2.223,0,0,1-.582.157,4.373,4.373,0,0,1-.692.062q-2.329,0-2.329-2.454V34.917h-1.15v-.586l1.15-.505.513-1.714h.7v1.86h2.329v.945h-2.329v4.724a1.625,1.625,0,0,0,.344,1.113A1.2,1.2,0,0,0,131.694,41.143Zm3.468.857h-1.216V33.973h1.216Zm-1.318-10.2a.808.808,0,0,1,.205-.612.759.759,0,0,1,1.018,0,.793.793,0,0,1,.212.608.805.805,0,0,1-.212.612.744.744,0,0,1-1.018,0A.823.823,0,0,1,133.844,31.8Zm6.838,10.349a3.688,3.688,0,0,1-2.809-1.084,4.2,4.2,0,0,1-1.029-3.01,4.654,4.654,0,0,1,.956-3.083,3.175,3.175,0,0,1,2.567-1.143,3.027,3.027,0,0,1,2.388.992,3.8,3.8,0,0,1,.879,2.618v.769H138.1a3.182,3.182,0,0,0,.714,2.146,2.47,2.47,0,0,0,1.908.732,6.466,6.466,0,0,0,2.563-.542v1.084a6.434,6.434,0,0,1-1.219.4A6.853,6.853,0,0,1,140.682,42.146Zm-.33-7.3a1.985,1.985,0,0,0-1.542.63,2.9,2.9,0,0,0-.677,1.743h4.2a2.673,2.673,0,0,0-.513-1.761A1.8,1.8,0,0,0,140.352,34.844Zm10.082,4.966a2.011,2.011,0,0,1-.835,1.729,3.925,3.925,0,0,1-2.344.608,5.1,5.1,0,0,1-2.49-.505V40.513a6.022,6.022,0,0,0,1.241.461,5.184,5.184,0,0,0,1.278.168,2.9,2.9,0,0,0,1.465-.3,1.046,1.046,0,0,0,.106-1.729,6.394,6.394,0,0,0-1.586-.787,8.6,8.6,0,0,1-1.593-.729,2.176,2.176,0,0,1-.7-.707,1.843,1.843,0,0,1-.231-.945,1.8,1.8,0,0,1,.8-1.549,3.72,3.72,0,0,1,2.19-.568,6.408,6.408,0,0,1,2.534.527l-.432.989a5.817,5.817,0,0,0-2.19-.5,2.52,2.52,0,0,0-1.3.271.838.838,0,0,0-.439.747.91.91,0,0,0,.165.549,1.626,1.626,0,0,0,.531.432,11.867,11.867,0,0,0,1.406.593,5.254,5.254,0,0,1,1.93,1.047A1.847,1.847,0,0,1,150.434,39.81ZM3.882,62.143A3.972,3.972,0,0,0,4.5,62.1,4.03,4.03,0,0,0,4.98,62v.93a2.223,2.223,0,0,1-.582.157,4.373,4.373,0,0,1-.692.062q-2.329,0-2.329-2.454V55.917H.227v-.586l1.15-.505.513-1.714h.7v1.86H4.922v.945H2.593v4.724a1.625,1.625,0,0,0,.344,1.113A1.2,1.2,0,0,0,3.882,62.143ZM11.628,63V57.807a2.1,2.1,0,0,0-.447-1.465,1.82,1.82,0,0,0-1.4-.483,2.292,2.292,0,0,0-1.849.688A3.487,3.487,0,0,0,7.35,58.8V63H6.134V51.6H7.35v3.45a7.517,7.517,0,0,1-.059,1.033h.073a2.48,2.48,0,0,1,1.022-.912A3.322,3.322,0,0,1,9.9,54.841a3.1,3.1,0,0,1,2.208.7,2.946,2.946,0,0,1,.736,2.223V63Zm8.2,0-.242-1.143h-.059a3.378,3.378,0,0,1-1.2,1.022,3.65,3.65,0,0,1-1.49.267,2.681,2.681,0,0,1-1.871-.615,2.244,2.244,0,0,1-.677-1.75q0-2.432,3.889-2.549l1.362-.044v-.5a2.035,2.035,0,0,0-.406-1.4,1.672,1.672,0,0,0-1.3-.45,5.3,5.3,0,0,0-2.271.615l-.374-.93a5.713,5.713,0,0,1,1.3-.505,5.631,5.631,0,0,1,1.417-.183,3.058,3.058,0,0,1,2.128.637,2.66,2.66,0,0,1,.692,2.043V63Zm-2.747-.857a2.468,2.468,0,0,0,1.783-.623,2.3,2.3,0,0,0,.648-1.743v-.725L18.3,59.1a4.422,4.422,0,0,0-2.091.45,1.358,1.358,0,0,0-.641,1.241,1.253,1.253,0,0,0,.4,1A1.657,1.657,0,0,0,17.081,62.143Zm8.3,0A3.972,3.972,0,0,0,26,62.1a4.03,4.03,0,0,0,.476-.1v.93a2.223,2.223,0,0,1-.582.157,4.373,4.373,0,0,1-.692.062q-2.329,0-2.329-2.454V55.917h-1.15v-.586l1.15-.505.513-1.714h.7v1.86h2.329v.945H24.087v4.724a1.625,1.625,0,0,0,.344,1.113A1.2,1.2,0,0,0,25.376,62.143ZM37.63,63l-1.472-4.709q-.139-.432-.52-1.963H35.58q-.293,1.282-.513,1.978L33.551,63H32.145l-2.19-8.027h1.274l1.183,4.607a18.666,18.666,0,0,1,.465,2.131h.059q.081-.417.26-1.08t.311-1.051l1.472-4.607H36.3l1.436,4.607A15.549,15.549,0,0,1,38.29,61.7h.059a7.763,7.763,0,0,1,.157-.813q.128-.549,1.527-5.911h1.26L39.073,63Zm8.053.146a3.688,3.688,0,0,1-2.809-1.084,4.2,4.2,0,0,1-1.029-3.01,4.654,4.654,0,0,1,.956-3.083,3.175,3.175,0,0,1,2.567-1.143,3.027,3.027,0,0,1,2.388.992,3.8,3.8,0,0,1,.879,2.618v.769h-5.53a3.182,3.182,0,0,0,.714,2.146,2.47,2.47,0,0,0,1.908.732,6.466,6.466,0,0,0,2.563-.542v1.084a6.434,6.434,0,0,1-1.219.4A6.853,6.853,0,0,1,45.684,63.146Zm-.33-7.3a1.985,1.985,0,0,0-1.542.63,2.9,2.9,0,0,0-.677,1.743h4.2a2.673,2.673,0,0,0-.513-1.761A1.8,1.8,0,0,0,45.354,55.844Zm8.566-1.018a4.757,4.757,0,0,1,.959.088l-.168,1.128a4.142,4.142,0,0,0-.879-.11,2.139,2.139,0,0,0-1.666.791,2.884,2.884,0,0,0-.692,1.97V63H50.258V54.973h1l.139,1.487h.059a3.529,3.529,0,0,1,1.077-1.208A2.424,2.424,0,0,1,53.92,54.826Zm5.4,8.32a3.688,3.688,0,0,1-2.809-1.084,4.2,4.2,0,0,1-1.029-3.01,4.654,4.654,0,0,1,.956-3.083,3.175,3.175,0,0,1,2.567-1.143,3.027,3.027,0,0,1,2.388.992,3.8,3.8,0,0,1,.879,2.618v.769h-5.53a3.182,3.182,0,0,0,.714,2.146,2.47,2.47,0,0,0,1.908.732,6.466,6.466,0,0,0,2.563-.542v1.084a6.434,6.434,0,0,1-1.219.4A6.853,6.853,0,0,1,59.322,63.146Zm-.33-7.3a1.985,1.985,0,0,0-1.542.63,2.9,2.9,0,0,0-.677,1.743h4.2a2.673,2.673,0,0,0-.513-1.761A1.8,1.8,0,0,0,58.993,55.844Zm9.493-.872V60.18a2.1,2.1,0,0,0,.447,1.465,1.82,1.82,0,0,0,1.4.483,2.282,2.282,0,0,0,1.842-.688,3.473,3.473,0,0,0,.582-2.249V54.973h1.216V63h-1l-.176-1.077h-.066a2.423,2.423,0,0,1-1.036.908,3.483,3.483,0,0,1-1.512.315,3.069,3.069,0,0,1-2.194-.7,2.962,2.962,0,0,1-.729-2.227V54.973ZM81.593,63V57.807a2.1,2.1,0,0,0-.447-1.465,1.82,1.82,0,0,0-1.4-.483,2.307,2.307,0,0,0-1.846.681,3.439,3.439,0,0,0-.586,2.249V63H76.1V54.973h.989l.2,1.1h.059a2.483,2.483,0,0,1,1.047-.919,3.4,3.4,0,0,1,1.5-.326,3.049,3.049,0,0,1,2.183.7,2.977,2.977,0,0,1,.732,2.238V63Zm6.654.146a3.688,3.688,0,0,1-2.809-1.084,4.2,4.2,0,0,1-1.029-3.01,4.654,4.654,0,0,1,.956-3.083,3.175,3.175,0,0,1,2.567-1.143,3.027,3.027,0,0,1,2.388.992,3.8,3.8,0,0,1,.879,2.618v.769h-5.53a3.182,3.182,0,0,0,.714,2.146,2.47,2.47,0,0,0,1.908.732,6.466,6.466,0,0,0,2.563-.542v1.084a6.434,6.434,0,0,1-1.219.4A6.853,6.853,0,0,1,88.247,63.146Zm-.33-7.3a1.985,1.985,0,0,0-1.542.63,2.9,2.9,0,0,0-.677,1.743h4.2a2.673,2.673,0,0,0-.513-1.761A1.8,1.8,0,0,0,87.918,55.844Zm6.838,3.047-2.791-3.918h1.384l2.117,3.076,2.109-3.076h1.37l-2.791,3.918L99.091,63H97.714l-2.249-3.252L93.2,63H91.818Zm9.211,4.255a3.474,3.474,0,0,1-1.432-.289,2.693,2.693,0,0,1-1.088-.89h-.088a10.767,10.767,0,0,1,.088,1.333v3.3h-1.216V54.973h.989l.168,1.1h.059a2.824,2.824,0,0,1,1.091-.952,3.317,3.317,0,0,1,1.428-.293,2.967,2.967,0,0,1,2.465,1.091,5.811,5.811,0,0,1-.015,6.134A2.972,2.972,0,0,1,103.966,63.146Zm-.176-7.288a2.155,2.155,0,0,0-1.78.681,3.505,3.505,0,0,0-.564,2.168v.271a4.017,4.017,0,0,0,.564,2.421,2.145,2.145,0,0,0,1.809.729,1.881,1.881,0,0,0,1.63-.842,3.994,3.994,0,0,0,.59-2.322,3.844,3.844,0,0,0-.59-2.3A1.939,1.939,0,0,0,103.79,55.859Zm6.4,7.141h-1.216V51.6h1.216Zm9.057-4.021a4.428,4.428,0,0,1-.989,3.065,3.482,3.482,0,0,1-2.732,1.1,3.618,3.618,0,0,1-1.912-.505,3.335,3.335,0,0,1-1.289-1.45,5.054,5.054,0,0,1-.454-2.212,4.421,4.421,0,0,1,.981-3.058,3.471,3.471,0,0,1,2.725-1.095,3.4,3.4,0,0,1,2.677,1.121A4.409,4.409,0,0,1,119.245,58.979Zm-6.116,0a3.81,3.81,0,0,0,.615,2.344,2.442,2.442,0,0,0,3.622,0,3.791,3.791,0,0,0,.619-2.347,3.73,3.73,0,0,0-.619-2.325,2.175,2.175,0,0,0-1.827-.795,2.14,2.14,0,0,0-1.8.784A3.772,3.772,0,0,0,113.13,58.979Zm11.459-4.153a4.757,4.757,0,0,1,.959.088l-.168,1.128a4.142,4.142,0,0,0-.879-.11,2.139,2.139,0,0,0-1.666.791,2.884,2.884,0,0,0-.692,1.97V63h-1.216V54.973h1l.139,1.487h.059a3.529,3.529,0,0,1,1.077-1.208A2.424,2.424,0,0,1,124.589,54.826Zm5.4,8.32a3.688,3.688,0,0,1-2.809-1.084,4.2,4.2,0,0,1-1.029-3.01,4.654,4.654,0,0,1,.956-3.083,3.175,3.175,0,0,1,2.567-1.143,3.027,3.027,0,0,1,2.388.992,3.8,3.8,0,0,1,.879,2.618v.769h-5.53a3.182,3.182,0,0,0,.714,2.146,2.47,2.47,0,0,0,1.908.732,6.466,6.466,0,0,0,2.563-.542v1.084a6.434,6.434,0,0,1-1.219.4A6.853,6.853,0,0,1,129.991,63.146Zm-.33-7.3a1.985,1.985,0,0,0-1.542.63,2.9,2.9,0,0,0-.677,1.743h4.2a2.673,2.673,0,0,0-.513-1.761A1.8,1.8,0,0,0,129.661,55.844Zm10.368,6.079h-.066a2.857,2.857,0,0,1-2.52,1.223,2.981,2.981,0,0,1-2.45-1.077,4.739,4.739,0,0,1-.875-3.062A4.819,4.819,0,0,1,135,55.925a2.958,2.958,0,0,1,2.446-1.1,2.919,2.919,0,0,1,2.5,1.187h.1l-.051-.579-.029-.564V51.6h1.216V63h-.989Zm-2.432.205a2.214,2.214,0,0,0,1.805-.677,3.423,3.423,0,0,0,.56-2.186v-.256a4.028,4.028,0,0,0-.568-2.435,2.156,2.156,0,0,0-1.813-.729,1.861,1.861,0,0,0-1.637.831,4.134,4.134,0,0,0-.568,2.347,3.963,3.963,0,0,0,.564,2.322A1.91,1.91,0,0,0,137.6,62.128ZM6.753,82.923H6.687a2.857,2.857,0,0,1-2.52,1.223,2.981,2.981,0,0,1-2.45-1.077,4.739,4.739,0,0,1-.875-3.062,4.819,4.819,0,0,1,.879-3.083,2.958,2.958,0,0,1,2.446-1.1,2.919,2.919,0,0,1,2.5,1.187h.1l-.051-.579-.029-.564V72.6H7.9V84H6.914Zm-2.432.205a2.214,2.214,0,0,0,1.805-.677,3.423,3.423,0,0,0,.56-2.186v-.256a4.028,4.028,0,0,0-.568-2.435,2.156,2.156,0,0,0-1.813-.729,1.861,1.861,0,0,0-1.637.831A4.134,4.134,0,0,0,2.1,80.023a3.963,3.963,0,0,0,.564,2.322A1.91,1.91,0,0,0,4.321,83.128Zm6.852-7.156V81.18a2.1,2.1,0,0,0,.447,1.465,1.82,1.82,0,0,0,1.4.483,2.282,2.282,0,0,0,1.842-.688,3.473,3.473,0,0,0,.582-2.249V75.973h1.216V84h-1l-.176-1.077h-.066a2.423,2.423,0,0,1-1.036.908,3.483,3.483,0,0,1-1.512.315,3.069,3.069,0,0,1-2.194-.7,2.962,2.962,0,0,1-.729-2.227V75.973Zm11.005,8.174a3.688,3.688,0,0,1-2.809-1.084,4.2,4.2,0,0,1-1.029-3.01,4.654,4.654,0,0,1,.956-3.083,3.175,3.175,0,0,1,2.567-1.143,3.027,3.027,0,0,1,2.388.992,3.8,3.8,0,0,1,.879,2.618v.769H19.6a3.182,3.182,0,0,0,.714,2.146,2.47,2.47,0,0,0,1.908.732,6.466,6.466,0,0,0,2.563-.542v1.084a6.434,6.434,0,0,1-1.219.4A6.853,6.853,0,0,1,22.179,84.146Zm-.33-7.3a1.985,1.985,0,0,0-1.542.63,2.9,2.9,0,0,0-.677,1.743h4.2a2.673,2.673,0,0,0-.513-1.761A1.8,1.8,0,0,0,21.849,76.844Zm10.943,6.3a3.972,3.972,0,0,0,.623-.048,4.03,4.03,0,0,0,.476-.1v.93a2.223,2.223,0,0,1-.582.157,4.373,4.373,0,0,1-.692.062q-2.329,0-2.329-2.454V76.917h-1.15v-.586l1.15-.505.513-1.714h.7v1.86h2.329v.945H31.5v4.724a1.625,1.625,0,0,0,.344,1.113A1.2,1.2,0,0,0,32.792,83.143Zm9.181-3.164a4.428,4.428,0,0,1-.989,3.065,3.482,3.482,0,0,1-2.732,1.1,3.618,3.618,0,0,1-1.912-.505,3.335,3.335,0,0,1-1.289-1.45,5.054,5.054,0,0,1-.454-2.212,4.421,4.421,0,0,1,.981-3.058A3.471,3.471,0,0,1,38.3,75.826a3.4,3.4,0,0,1,2.677,1.121A4.409,4.409,0,0,1,41.974,79.979Zm-6.116,0a3.81,3.81,0,0,0,.615,2.344,2.442,2.442,0,0,0,3.622,0,3.791,3.791,0,0,0,.619-2.347,3.73,3.73,0,0,0-.619-2.325,2.175,2.175,0,0,0-1.827-.795,2.14,2.14,0,0,0-1.8.784A3.772,3.772,0,0,0,35.858,79.979Zm16.707,2.944H52.5a2.857,2.857,0,0,1-2.52,1.223,2.981,2.981,0,0,1-2.45-1.077,4.739,4.739,0,0,1-.875-3.062,4.819,4.819,0,0,1,.879-3.083,2.958,2.958,0,0,1,2.446-1.1,2.919,2.919,0,0,1,2.5,1.187h.1l-.051-.579L52.5,75.87V72.6h1.216V84h-.989Zm-2.432.205a2.214,2.214,0,0,0,1.805-.677,3.423,3.423,0,0,0,.56-2.186v-.256a4.028,4.028,0,0,0-.568-2.435,2.156,2.156,0,0,0-1.813-.729,1.861,1.861,0,0,0-1.637.831,4.134,4.134,0,0,0-.568,2.347,3.963,3.963,0,0,0,.564,2.322A1.91,1.91,0,0,0,50.134,83.128ZM60.78,84l-.242-1.143H60.48a3.378,3.378,0,0,1-1.2,1.022,3.65,3.65,0,0,1-1.49.267,2.681,2.681,0,0,1-1.871-.615,2.244,2.244,0,0,1-.677-1.75q0-2.432,3.889-2.549l1.362-.044v-.5a2.035,2.035,0,0,0-.406-1.4,1.672,1.672,0,0,0-1.3-.45,5.3,5.3,0,0,0-2.271.615l-.374-.93a5.713,5.713,0,0,1,1.3-.505,5.631,5.631,0,0,1,1.417-.183,3.058,3.058,0,0,1,2.128.637,2.66,2.66,0,0,1,.692,2.043V84Zm-2.747-.857a2.468,2.468,0,0,0,1.783-.623,2.3,2.3,0,0,0,.648-1.743v-.725l-1.216.051a4.422,4.422,0,0,0-2.091.45,1.358,1.358,0,0,0-.641,1.241,1.253,1.253,0,0,0,.4,1A1.657,1.657,0,0,0,58.033,83.143Zm8.3,0a3.972,3.972,0,0,0,.623-.048,4.03,4.03,0,0,0,.476-.1v.93a2.223,2.223,0,0,1-.582.157,4.373,4.373,0,0,1-.692.062q-2.329,0-2.329-2.454V76.917h-1.15v-.586l1.15-.505.513-1.714h.7v1.86h2.329v.945H65.039v4.724a1.625,1.625,0,0,0,.344,1.113A1.2,1.2,0,0,0,66.328,83.143ZM73.518,84l-.242-1.143h-.059a3.378,3.378,0,0,1-1.2,1.022,3.65,3.65,0,0,1-1.49.267,2.681,2.681,0,0,1-1.871-.615,2.244,2.244,0,0,1-.677-1.75q0-2.432,3.889-2.549l1.362-.044v-.5a2.035,2.035,0,0,0-.406-1.4,1.672,1.672,0,0,0-1.3-.45,5.3,5.3,0,0,0-2.271.615l-.374-.93a5.713,5.713,0,0,1,1.3-.505,5.631,5.631,0,0,1,1.417-.183,3.058,3.058,0,0,1,2.128.637,2.66,2.66,0,0,1,.692,2.043V84Zm-2.747-.857a2.468,2.468,0,0,0,1.783-.623,2.3,2.3,0,0,0,.648-1.743v-.725l-1.216.051a4.422,4.422,0,0,0-2.091.45,1.358,1.358,0,0,0-.641,1.241,1.253,1.253,0,0,0,.4,1A1.657,1.657,0,0,0,70.771,83.143ZM81.136,84H79.92V75.973h1.216ZM79.817,73.8a.808.808,0,0,1,.205-.612.759.759,0,0,1,1.018,0,.793.793,0,0,1,.212.608.805.805,0,0,1-.212.612.744.744,0,0,1-1.018,0A.823.823,0,0,1,79.817,73.8ZM88.757,84V78.807a2.1,2.1,0,0,0-.447-1.465,1.82,1.82,0,0,0-1.4-.483,2.307,2.307,0,0,0-1.846.681,3.439,3.439,0,0,0-.586,2.249V84H83.264V75.973h.989l.2,1.1h.059a2.483,2.483,0,0,1,1.047-.919,3.4,3.4,0,0,1,1.5-.326,3.049,3.049,0,0,1,2.183.7,2.977,2.977,0,0,1,.732,2.238V84ZM97.2,81.81a2.011,2.011,0,0,1-.835,1.729,3.925,3.925,0,0,1-2.344.608,5.1,5.1,0,0,1-2.49-.505V82.513a6.022,6.022,0,0,0,1.241.461,5.184,5.184,0,0,0,1.278.168,2.9,2.9,0,0,0,1.465-.3,1.046,1.046,0,0,0,.106-1.729,6.394,6.394,0,0,0-1.586-.787,8.6,8.6,0,0,1-1.593-.729,2.176,2.176,0,0,1-.7-.707,1.843,1.843,0,0,1-.231-.945,1.8,1.8,0,0,1,.8-1.549,3.72,3.72,0,0,1,2.19-.568,6.408,6.408,0,0,1,2.534.527l-.432.989a5.817,5.817,0,0,0-2.19-.5,2.52,2.52,0,0,0-1.3.271.838.838,0,0,0-.439.747.91.91,0,0,0,.165.549,1.626,1.626,0,0,0,.531.432,11.867,11.867,0,0,0,1.406.593,5.254,5.254,0,0,1,1.93,1.047A1.847,1.847,0,0,1,97.2,81.81Zm2.67-5.837V81.18a2.1,2.1,0,0,0,.447,1.465,1.82,1.82,0,0,0,1.4.483,2.282,2.282,0,0,0,1.842-.688,3.473,3.473,0,0,0,.582-2.249V75.973h1.216V84h-1l-.176-1.077h-.066a2.423,2.423,0,0,1-1.036.908,3.483,3.483,0,0,1-1.512.315,3.069,3.069,0,0,1-2.194-.7,2.962,2.962,0,0,1-.729-2.227V75.973Zm16.271.945H114.1V84h-1.216V76.917h-1.436v-.549l1.436-.439v-.447q0-2.959,2.585-2.959a5.32,5.32,0,0,1,1.494.256l-.315.974a4.022,4.022,0,0,0-1.2-.227,1.17,1.17,0,0,0-1.018.458,2.555,2.555,0,0,0-.33,1.469v.52h2.043Zm-5.039,0h-2.043V84h-1.216V76.917h-1.436v-.549l1.436-.439v-.447q0-2.959,2.585-2.959a5.32,5.32,0,0,1,1.494.256l-.315.974a4.022,4.022,0,0,0-1.2-.227,1.17,1.17,0,0,0-1.018.458,2.555,2.555,0,0,0-.33,1.469v.52H111.1ZM118.872,84h-1.216V75.973h1.216Zm-1.318-10.2a.808.808,0,0,1,.205-.612.759.759,0,0,1,1.018,0,.793.793,0,0,1,.212.608.805.805,0,0,1-.212.612.744.744,0,0,1-1.018,0A.823.823,0,0,1,117.553,73.8Zm2.787,6.738V79.422h3.6v1.113ZM4.5,105.146a3.426,3.426,0,0,1-2.7-1.073,4.412,4.412,0,0,1-.956-3.036,4.55,4.55,0,0,1,.97-3.113,3.494,3.494,0,0,1,2.765-1.1,5.487,5.487,0,0,1,1.157.125,3.812,3.812,0,0,1,.908.293L6.27,98.276a5.717,5.717,0,0,0-.879-.267,3.924,3.924,0,0,0-.842-.106q-2.446,0-2.446,3.12a3.715,3.715,0,0,0,.6,2.271,2.077,2.077,0,0,0,1.769.791,5.408,5.408,0,0,0,2.058-.432v1.077A4.386,4.386,0,0,1,4.5,105.146ZM9.2,105H7.98V96.973H9.2ZM7.878,94.8a.808.808,0,0,1,.205-.612.759.759,0,0,1,1.018,0,.793.793,0,0,1,.212.608.805.805,0,0,1-.212.612.744.744,0,0,1-1.018,0A.823.823,0,0,1,7.878,94.8Zm6.838,10.349a3.688,3.688,0,0,1-2.809-1.084,4.2,4.2,0,0,1-1.029-3.01,4.654,4.654,0,0,1,.956-3.083A3.175,3.175,0,0,1,14.4,96.826a3.027,3.027,0,0,1,2.388.992,3.8,3.8,0,0,1,.879,2.618v.769h-5.53a3.182,3.182,0,0,0,.714,2.146,2.47,2.47,0,0,0,1.908.732,6.466,6.466,0,0,0,2.563-.542v1.084a6.434,6.434,0,0,1-1.219.4A6.853,6.853,0,0,1,14.715,105.146Zm-.33-7.3a1.985,1.985,0,0,0-1.542.63,2.9,2.9,0,0,0-.677,1.743h4.2a2.673,2.673,0,0,0-.513-1.761A1.8,1.8,0,0,0,14.386,97.844ZM24.783,105V99.807a2.1,2.1,0,0,0-.447-1.465,1.82,1.82,0,0,0-1.4-.483,2.307,2.307,0,0,0-1.846.681,3.439,3.439,0,0,0-.586,2.249V105H19.29V96.973h.989l.2,1.1h.059a2.483,2.483,0,0,1,1.047-.919,3.4,3.4,0,0,1,1.5-.326,3.049,3.049,0,0,1,2.183.7A2.977,2.977,0,0,1,26,99.763V105Zm6.471.146a3.426,3.426,0,0,1-2.7-1.073,4.412,4.412,0,0,1-.956-3.036,4.55,4.55,0,0,1,.97-3.113,3.494,3.494,0,0,1,2.765-1.1,5.487,5.487,0,0,1,1.157.125,3.812,3.812,0,0,1,.908.293l-.374,1.033a5.717,5.717,0,0,0-.879-.267,3.924,3.924,0,0,0-.842-.106q-2.446,0-2.446,3.12a3.715,3.715,0,0,0,.6,2.271,2.077,2.077,0,0,0,1.769.791,5.408,5.408,0,0,0,2.058-.432v1.077A4.386,4.386,0,0,1,31.254,105.146Zm2.209-8.174h1.3l1.758,4.578a17.412,17.412,0,0,1,.718,2.263H37.3q.1-.374.4-1.278t1.989-5.563h1.3l-3.45,9.141a4.56,4.56,0,0,1-1.2,1.923,2.547,2.547,0,0,1-1.681.568,4.891,4.891,0,0,1-1.1-.125V107.5a4.238,4.238,0,0,0,.9.088,1.857,1.857,0,0,0,1.787-1.406l.447-1.143Zm8.207,7.251a1.091,1.091,0,0,1,.223-.743.81.81,0,0,1,.641-.253.867.867,0,0,1,.663.253,1.046,1.046,0,0,1,.238.743,1.027,1.027,0,0,1-.242.732.961.961,0,0,1-1.278.026A1,1,0,0,1,41.67,104.224ZM53.727,99.39h3.64V104.6a11.7,11.7,0,0,1-1.729.41,13.159,13.159,0,0,1-2.036.139,4.935,4.935,0,0,1-3.787-1.447,5.7,5.7,0,0,1-1.355-4.054,6.125,6.125,0,0,1,.67-2.926,4.532,4.532,0,0,1,1.93-1.919,6.252,6.252,0,0,1,2.952-.663,8.066,8.066,0,0,1,3.193.63l-.483,1.1a7.134,7.134,0,0,0-2.791-.615,4,4,0,0,0-3.054,1.165,4.52,4.52,0,0,0-1.1,3.23,4.619,4.619,0,0,0,1.058,3.289,4.076,4.076,0,0,0,3.109,1.121,9.238,9.238,0,0,0,2.175-.256v-3.3h-2.4Zm8.969,5.757a3.688,3.688,0,0,1-2.809-1.084,4.2,4.2,0,0,1-1.029-3.01,4.654,4.654,0,0,1,.956-3.083,3.175,3.175,0,0,1,2.567-1.143,3.027,3.027,0,0,1,2.388.992,3.8,3.8,0,0,1,.879,2.618v.769h-5.53a3.182,3.182,0,0,0,.714,2.146,2.47,2.47,0,0,0,1.908.732,6.466,6.466,0,0,0,2.563-.542v1.084a6.434,6.434,0,0,1-1.219.4A6.853,6.853,0,0,1,62.7,105.146Zm-.33-7.3a1.985,1.985,0,0,0-1.542.63,2.9,2.9,0,0,0-.677,1.743h4.2a2.673,2.673,0,0,0-.513-1.761A1.8,1.8,0,0,0,62.366,97.844Zm7.5,6.3a3.972,3.972,0,0,0,.623-.048,4.03,4.03,0,0,0,.476-.1v.93a2.223,2.223,0,0,1-.582.157,4.373,4.373,0,0,1-.692.062q-2.329,0-2.329-2.454V97.917h-1.15v-.586l1.15-.505.513-1.714h.7v1.86H70.9v.945H68.574v4.724a1.625,1.625,0,0,0,.344,1.113A1.2,1.2,0,0,0,69.863,104.143Zm9.361-7.317a4.757,4.757,0,0,1,.959.088l-.168,1.128a4.142,4.142,0,0,0-.879-.11,2.139,2.139,0,0,0-1.666.791,2.884,2.884,0,0,0-.692,1.97V105H75.562V96.973h1l.139,1.487h.059a3.529,3.529,0,0,1,1.077-1.208A2.424,2.424,0,0,1,79.224,96.826Zm5.4,8.32a3.688,3.688,0,0,1-2.809-1.084,4.2,4.2,0,0,1-1.029-3.01,4.654,4.654,0,0,1,.956-3.083,3.175,3.175,0,0,1,2.567-1.143,3.027,3.027,0,0,1,2.388.992,3.8,3.8,0,0,1,.879,2.618v.769h-5.53a3.182,3.182,0,0,0,.714,2.146,2.47,2.47,0,0,0,1.908.732,6.466,6.466,0,0,0,2.563-.542v1.084a6.434,6.434,0,0,1-1.219.4A6.853,6.853,0,0,1,84.626,105.146Zm-.33-7.3a1.985,1.985,0,0,0-1.542.63,2.9,2.9,0,0,0-.677,1.743h4.2a2.673,2.673,0,0,0-.513-1.761A1.8,1.8,0,0,0,84.3,97.844ZM94.137,105l-.242-1.143h-.059a3.378,3.378,0,0,1-1.2,1.022,3.65,3.65,0,0,1-1.49.267,2.681,2.681,0,0,1-1.871-.615,2.244,2.244,0,0,1-.677-1.75q0-2.432,3.889-2.549l1.362-.044v-.5a2.035,2.035,0,0,0-.406-1.4,1.672,1.672,0,0,0-1.3-.45,5.3,5.3,0,0,0-2.271.615l-.374-.93a5.713,5.713,0,0,1,1.3-.505,5.631,5.631,0,0,1,1.417-.183,3.058,3.058,0,0,1,2.128.637,2.66,2.66,0,0,1,.692,2.043V105Zm-2.747-.857a2.468,2.468,0,0,0,1.783-.623,2.3,2.3,0,0,0,.648-1.743v-.725l-1.216.051a4.422,4.422,0,0,0-2.091.45,1.358,1.358,0,0,0-.641,1.241,1.253,1.253,0,0,0,.4,1A1.657,1.657,0,0,0,91.39,104.143Zm11.166-.22h-.066a2.857,2.857,0,0,1-2.52,1.223,2.981,2.981,0,0,1-2.45-1.077,4.739,4.739,0,0,1-.875-3.062,4.819,4.819,0,0,1,.879-3.083,2.958,2.958,0,0,1,2.446-1.1,2.919,2.919,0,0,1,2.5,1.187h.1l-.051-.579-.029-.564V93.6h1.216V105h-.989Zm-2.432.205a2.214,2.214,0,0,0,1.805-.677,3.423,3.423,0,0,0,.56-2.186v-.256a4.028,4.028,0,0,0-.568-2.435,2.156,2.156,0,0,0-1.813-.729,1.861,1.861,0,0,0-1.637.831,4.134,4.134,0,0,0-.568,2.347,3.963,3.963,0,0,0,.564,2.322A1.91,1.91,0,0,0,100.125,104.128Zm4.435-7.156h1.3l1.758,4.578a17.412,17.412,0,0,1,.718,2.263h.059q.1-.374.4-1.278t1.989-5.563h1.3l-3.45,9.141a4.56,4.56,0,0,1-1.2,1.923,2.547,2.547,0,0,1-1.681.568,4.891,4.891,0,0,1-1.1-.125V107.5a4.238,4.238,0,0,0,.9.088,1.857,1.857,0,0,0,1.787-1.406l.447-1.143Zm14.422,7.17a3.972,3.972,0,0,0,.623-.048,4.03,4.03,0,0,0,.476-.1v.93a2.223,2.223,0,0,1-.582.157,4.373,4.373,0,0,1-.692.062q-2.329,0-2.329-2.454V97.917h-1.15v-.586l1.15-.505.513-1.714h.7v1.86h2.329v.945h-2.329v4.724a1.625,1.625,0,0,0,.344,1.113A1.2,1.2,0,0,0,118.983,104.143Zm9.181-3.164a4.428,4.428,0,0,1-.989,3.065,3.482,3.482,0,0,1-2.732,1.1,3.618,3.618,0,0,1-1.912-.505,3.335,3.335,0,0,1-1.289-1.45,5.054,5.054,0,0,1-.454-2.212,4.421,4.421,0,0,1,.981-3.058,3.471,3.471,0,0,1,2.725-1.095,3.4,3.4,0,0,1,2.677,1.121A4.409,4.409,0,0,1,128.164,100.979Zm-6.116,0a3.81,3.81,0,0,0,.615,2.344,2.442,2.442,0,0,0,3.622,0,3.791,3.791,0,0,0,.619-2.347,3.73,3.73,0,0,0-.619-2.325,2.175,2.175,0,0,0-1.827-.795,2.14,2.14,0,0,0-1.8.784A3.772,3.772,0,0,0,122.048,100.979Zm14.979-4.138a2.984,2.984,0,0,1,2.457,1.08,5.784,5.784,0,0,1-.007,6.13,2.972,2.972,0,0,1-2.45,1.095,3.474,3.474,0,0,1-1.432-.289,2.693,2.693,0,0,1-1.088-.89h-.088L134.163,105h-.872V93.6h1.216v2.769q0,.93-.059,1.67h.059A2.886,2.886,0,0,1,137.027,96.841Zm-.176,1.018a2.123,2.123,0,0,0-1.794.714,5.51,5.51,0,0,0,.015,4.827,2.145,2.145,0,0,0,1.809.729,1.875,1.875,0,0,0,1.67-.817,4.2,4.2,0,0,0,.549-2.347,4.034,4.034,0,0,0-.549-2.336A1.947,1.947,0,0,0,136.851,97.859Zm8.573,7.288a3.688,3.688,0,0,1-2.809-1.084,4.2,4.2,0,0,1-1.029-3.01,4.654,4.654,0,0,1,.956-3.083,3.175,3.175,0,0,1,2.567-1.143,3.027,3.027,0,0,1,2.388.992,3.8,3.8,0,0,1,.879,2.618v.769h-5.53a3.182,3.182,0,0,0,.714,2.146,2.47,2.47,0,0,0,1.908.732,6.466,6.466,0,0,0,2.563-.542v1.084a6.434,6.434,0,0,1-1.219.4A6.853,6.853,0,0,1,145.425,105.146Zm-.33-7.3a1.985,1.985,0,0,0-1.542.63,2.9,2.9,0,0,0-.677,1.743h4.2a2.673,2.673,0,0,0-.513-1.761A1.8,1.8,0,0,0,145.1,97.844ZM6.467,123.81a2.011,2.011,0,0,1-.835,1.729,3.925,3.925,0,0,1-2.344.608,5.1,5.1,0,0,1-2.49-.505v-1.128a6.022,6.022,0,0,0,1.241.461,5.184,5.184,0,0,0,1.278.168,2.9,2.9,0,0,0,1.465-.3,1.046,1.046,0,0,0,.106-1.729,6.394,6.394,0,0,0-1.586-.787,8.6,8.6,0,0,1-1.593-.729,2.176,2.176,0,0,1-.7-.707,1.843,1.843,0,0,1-.231-.945,1.8,1.8,0,0,1,.8-1.549,3.72,3.72,0,0,1,2.19-.568,6.408,6.408,0,0,1,2.534.527l-.432.989a5.817,5.817,0,0,0-2.19-.5,2.52,2.52,0,0,0-1.3.271.838.838,0,0,0-.439.747.91.91,0,0,0,.165.549,1.626,1.626,0,0,0,.531.432,11.867,11.867,0,0,0,1.406.593,5.254,5.254,0,0,1,1.93,1.047A1.847,1.847,0,0,1,6.467,123.81Zm2.67-5.837v5.208a2.1,2.1,0,0,0,.447,1.465,1.82,1.82,0,0,0,1.4.483,2.282,2.282,0,0,0,1.842-.688,3.473,3.473,0,0,0,.582-2.249v-4.219h1.216V126h-1l-.176-1.077h-.066a2.423,2.423,0,0,1-1.036.908,3.483,3.483,0,0,1-1.512.315,3.069,3.069,0,0,1-2.194-.7,2.962,2.962,0,0,1-.729-2.227v-5.251Zm11.276-.146a4.757,4.757,0,0,1,.959.088l-.168,1.128a4.142,4.142,0,0,0-.879-.11,2.139,2.139,0,0,0-1.666.791,2.884,2.884,0,0,0-.692,1.97V126H16.751v-8.027h1l.139,1.487h.059a3.529,3.529,0,0,1,1.077-1.208A2.424,2.424,0,0,1,20.413,117.826Zm5.746,8.32a3.474,3.474,0,0,1-1.432-.289,2.693,2.693,0,0,1-1.088-.89h-.088a10.767,10.767,0,0,1,.088,1.333v3.3H22.424V117.973h.989l.168,1.1h.059a2.824,2.824,0,0,1,1.091-.952,3.317,3.317,0,0,1,1.428-.293,2.967,2.967,0,0,1,2.465,1.091,5.811,5.811,0,0,1-.015,6.134A2.972,2.972,0,0,1,26.16,126.146Zm-.176-7.288a2.155,2.155,0,0,0-1.78.681,3.505,3.505,0,0,0-.564,2.168v.271A4.017,4.017,0,0,0,24.2,124.4a2.145,2.145,0,0,0,1.809.729,1.881,1.881,0,0,0,1.63-.842,3.994,3.994,0,0,0,.59-2.322,3.844,3.844,0,0,0-.59-2.3A1.939,1.939,0,0,0,25.984,118.859Zm8.844-1.033a4.757,4.757,0,0,1,.959.088l-.168,1.128a4.142,4.142,0,0,0-.879-.11,2.139,2.139,0,0,0-1.666.791,2.884,2.884,0,0,0-.692,1.97V126H31.166v-8.027h1l.139,1.487h.059a3.529,3.529,0,0,1,1.077-1.208A2.424,2.424,0,0,1,34.828,117.826ZM38.055,126H36.839v-8.027h1.216Zm-1.318-10.2a.808.808,0,0,1,.205-.612.759.759,0,0,1,1.018,0,.793.793,0,0,1,.212.608.805.805,0,0,1-.212.612.744.744,0,0,1-1.018,0A.823.823,0,0,1,36.737,115.8Zm8.625,8.013a2.011,2.011,0,0,1-.835,1.729,3.925,3.925,0,0,1-2.344.608,5.1,5.1,0,0,1-2.49-.505v-1.128a6.022,6.022,0,0,0,1.241.461,5.184,5.184,0,0,0,1.278.168,2.9,2.9,0,0,0,1.465-.3,1.046,1.046,0,0,0,.106-1.729,6.394,6.394,0,0,0-1.586-.787,8.6,8.6,0,0,1-1.593-.729,2.176,2.176,0,0,1-.7-.707,1.843,1.843,0,0,1-.231-.945,1.8,1.8,0,0,1,.8-1.549,3.72,3.72,0,0,1,2.19-.568,6.408,6.408,0,0,1,2.534.527l-.432.989a5.817,5.817,0,0,0-2.19-.5,2.52,2.52,0,0,0-1.3.271.838.838,0,0,0-.439.747.91.91,0,0,0,.165.549,1.626,1.626,0,0,0,.531.432,11.867,11.867,0,0,0,1.406.593,5.254,5.254,0,0,1,1.93,1.047A1.847,1.847,0,0,1,45.362,123.81Zm4.919,2.336a3.688,3.688,0,0,1-2.809-1.084,4.2,4.2,0,0,1-1.029-3.01,4.654,4.654,0,0,1,.956-3.083,3.175,3.175,0,0,1,2.567-1.143,3.027,3.027,0,0,1,2.388.992,3.8,3.8,0,0,1,.879,2.618v.769H47.7a3.182,3.182,0,0,0,.714,2.146,2.47,2.47,0,0,0,1.908.732,6.466,6.466,0,0,0,2.563-.542v1.084a6.434,6.434,0,0,1-1.219.4A6.853,6.853,0,0,1,50.28,126.146Zm-.33-7.3a1.985,1.985,0,0,0-1.542.63,2.9,2.9,0,0,0-.677,1.743h4.2a2.673,2.673,0,0,0-.513-1.761A1.8,1.8,0,0,0,49.951,118.844Zm10.368,6.079h-.066a2.857,2.857,0,0,1-2.52,1.223,2.981,2.981,0,0,1-2.45-1.077,4.739,4.739,0,0,1-.875-3.062,4.819,4.819,0,0,1,.879-3.083,2.958,2.958,0,0,1,2.446-1.1,2.919,2.919,0,0,1,2.5,1.187h.1l-.051-.579-.029-.564V114.6h1.216V126H60.48Zm-2.432.205a2.214,2.214,0,0,0,1.805-.677,3.423,3.423,0,0,0,.56-2.186v-.256a4.028,4.028,0,0,0-.568-2.435,2.156,2.156,0,0,0-1.813-.729,1.861,1.861,0,0,0-1.637.831,4.134,4.134,0,0,0-.568,2.347,3.963,3.963,0,0,0,.564,2.322A1.91,1.91,0,0,0,57.887,125.128Zm11.749.015a3.972,3.972,0,0,0,.623-.048,4.03,4.03,0,0,0,.476-.1v.93a2.223,2.223,0,0,1-.582.157,4.373,4.373,0,0,1-.692.062q-2.329,0-2.329-2.454v-4.775h-1.15v-.586l1.15-.505.513-1.714h.7v1.86h2.329v.945H68.347v4.724a1.625,1.625,0,0,0,.344,1.113A1.2,1.2,0,0,0,69.636,125.143Zm9.181-3.164a4.428,4.428,0,0,1-.989,3.065,3.482,3.482,0,0,1-2.732,1.1,3.618,3.618,0,0,1-1.912-.505,3.335,3.335,0,0,1-1.289-1.45,5.054,5.054,0,0,1-.454-2.212,4.421,4.421,0,0,1,.981-3.058,3.471,3.471,0,0,1,2.725-1.095,3.4,3.4,0,0,1,2.677,1.121A4.409,4.409,0,0,1,78.817,121.979Zm-6.116,0a3.81,3.81,0,0,0,.615,2.344,2.442,2.442,0,0,0,3.622,0,3.791,3.791,0,0,0,.619-2.347,3.73,3.73,0,0,0-.619-2.325,2.175,2.175,0,0,0-1.827-.795,2.14,2.14,0,0,0-1.8.784A3.772,3.772,0,0,0,72.7,121.979Zm14.906-4.153a4.757,4.757,0,0,1,.959.088l-.168,1.128a4.142,4.142,0,0,0-.879-.11,2.139,2.139,0,0,0-1.666.791,2.884,2.884,0,0,0-.692,1.97V126H83.945v-8.027h1l.139,1.487h.059a3.529,3.529,0,0,1,1.077-1.208A2.424,2.424,0,0,1,87.607,117.826Zm5.4,8.32a3.688,3.688,0,0,1-2.809-1.084,4.2,4.2,0,0,1-1.029-3.01,4.654,4.654,0,0,1,.956-3.083,3.175,3.175,0,0,1,2.567-1.143,3.027,3.027,0,0,1,2.388.992,3.8,3.8,0,0,1,.879,2.618v.769h-5.53a3.182,3.182,0,0,0,.714,2.146,2.47,2.47,0,0,0,1.908.732,6.466,6.466,0,0,0,2.563-.542v1.084a6.434,6.434,0,0,1-1.219.4A6.853,6.853,0,0,1,93.009,126.146Zm-.33-7.3a1.985,1.985,0,0,0-1.542.63,2.9,2.9,0,0,0-.677,1.743h4.2a2.673,2.673,0,0,0-.513-1.761A1.8,1.8,0,0,0,92.68,118.844Zm8.112,7.3a3.426,3.426,0,0,1-2.7-1.073,4.412,4.412,0,0,1-.956-3.036,4.55,4.55,0,0,1,.97-3.113,3.494,3.494,0,0,1,2.765-1.1,5.487,5.487,0,0,1,1.157.125,3.812,3.812,0,0,1,.908.293l-.374,1.033a5.717,5.717,0,0,0-.879-.267,3.924,3.924,0,0,0-.842-.106q-2.446,0-2.446,3.12a3.715,3.715,0,0,0,.6,2.271,2.077,2.077,0,0,0,1.769.791,5.408,5.408,0,0,0,2.058-.432v1.077A4.386,4.386,0,0,1,100.792,126.146Zm6.874,0a3.688,3.688,0,0,1-2.809-1.084,4.2,4.2,0,0,1-1.029-3.01,4.654,4.654,0,0,1,.956-3.083,3.175,3.175,0,0,1,2.567-1.143,3.027,3.027,0,0,1,2.388.992,3.8,3.8,0,0,1,.879,2.618v.769h-5.53a3.182,3.182,0,0,0,.714,2.146,2.47,2.47,0,0,0,1.908.732,6.466,6.466,0,0,0,2.563-.542v1.084a6.434,6.434,0,0,1-1.219.4A6.853,6.853,0,0,1,107.666,126.146Zm-.33-7.3a1.985,1.985,0,0,0-1.542.63,2.9,2.9,0,0,0-.677,1.743h4.2a2.673,2.673,0,0,0-.513-1.761A1.8,1.8,0,0,0,107.336,118.844Zm6.12,7.156H112.24v-8.027h1.216Zm-1.318-10.2a.808.808,0,0,1,.205-.612.759.759,0,0,1,1.018,0,.793.793,0,0,1,.212.608.805.805,0,0,1-.212.612.744.744,0,0,1-1.018,0A.823.823,0,0,1,112.138,115.8Zm5.2,10.2-3.047-8.027h1.3l1.729,4.761a22.533,22.533,0,0,1,.688,2.168h.059a16.375,16.375,0,0,1,.509-1.608q.428-1.219,1.923-5.321h1.3L118.763,126Zm8.7.146a3.688,3.688,0,0,1-2.809-1.084,4.2,4.2,0,0,1-1.029-3.01,4.654,4.654,0,0,1,.956-3.083,3.175,3.175,0,0,1,2.567-1.143,3.027,3.027,0,0,1,2.388.992,3.8,3.8,0,0,1,.879,2.618v.769h-5.53a3.182,3.182,0,0,0,.714,2.146,2.47,2.47,0,0,0,1.908.732,6.466,6.466,0,0,0,2.563-.542v1.084a6.434,6.434,0,0,1-1.219.4A6.853,6.853,0,0,1,126.04,126.146Zm-.33-7.3a1.985,1.985,0,0,0-1.542.63,2.9,2.9,0,0,0-.677,1.743h4.2a2.673,2.673,0,0,0-.513-1.761A1.8,1.8,0,0,0,125.71,118.844ZM7.859,138.973v.769l-1.487.176a2.611,2.611,0,0,1,.527,1.6,2.373,2.373,0,0,1-.806,1.882,3.25,3.25,0,0,1-2.212.7,3.683,3.683,0,0,1-.674-.059,1.2,1.2,0,0,0-.776,1.033.525.525,0,0,0,.271.487,1.98,1.98,0,0,0,.93.157H5.054a3.182,3.182,0,0,1,2,.549,1.909,1.909,0,0,1,.7,1.6A2.279,2.279,0,0,1,6.687,149.9a5.723,5.723,0,0,1-3.12.7,4.263,4.263,0,0,1-2.428-.586,1.892,1.892,0,0,1-.853-1.655A1.859,1.859,0,0,1,.754,147.1a2.387,2.387,0,0,1,1.318-.725,1.272,1.272,0,0,1-.516-.432,1.144,1.144,0,0,1-.209-.681,1.293,1.293,0,0,1,.234-.769,2.464,2.464,0,0,1,.74-.637,2.168,2.168,0,0,1-1.014-.872,2.561,2.561,0,0,1-.392-1.406,2.6,2.6,0,0,1,.791-2.032,3.23,3.23,0,0,1,2.241-.714,4.075,4.075,0,0,1,1.135.146Zm-6.4,9.375a1.09,1.09,0,0,0,.549.989,3.032,3.032,0,0,0,1.575.337,4.394,4.394,0,0,0,2.267-.458,1.4,1.4,0,0,0,.736-1.241.982.982,0,0,0-.4-.9,3.129,3.129,0,0,0-1.516-.253H3.208a1.92,1.92,0,0,0-1.289.4A1.413,1.413,0,0,0,1.458,148.348Zm.659-6.8a1.634,1.634,0,0,0,.476,1.274,1.9,1.9,0,0,0,1.326.432,1.551,1.551,0,0,0,1.78-1.729,1.6,1.6,0,0,0-1.8-1.809,1.784,1.784,0,0,0-1.318.461A1.858,1.858,0,0,0,2.117,141.543Zm10.6-2.717a4.757,4.757,0,0,1,.959.088l-.168,1.128a4.142,4.142,0,0,0-.879-.11,2.139,2.139,0,0,0-1.666.791,2.884,2.884,0,0,0-.692,1.97V147H9.057v-8.027h1l.139,1.487h.059a3.529,3.529,0,0,1,1.077-1.208A2.424,2.424,0,0,1,12.719,138.826Zm5.4,8.32a3.688,3.688,0,0,1-2.809-1.084,4.2,4.2,0,0,1-1.029-3.01,4.654,4.654,0,0,1,.956-3.083,3.175,3.175,0,0,1,2.567-1.143,3.027,3.027,0,0,1,2.388.992,3.8,3.8,0,0,1,.879,2.618v.769h-5.53a3.182,3.182,0,0,0,.714,2.146,2.47,2.47,0,0,0,1.908.732,6.466,6.466,0,0,0,2.563-.542v1.084a6.434,6.434,0,0,1-1.219.4A6.853,6.853,0,0,1,18.121,147.146Zm-.33-7.3a1.985,1.985,0,0,0-1.542.63,2.9,2.9,0,0,0-.677,1.743h4.2a2.673,2.673,0,0,0-.513-1.761A1.8,1.8,0,0,0,17.791,139.844ZM27.632,147l-.242-1.143h-.059a3.378,3.378,0,0,1-1.2,1.022,3.65,3.65,0,0,1-1.49.267,2.681,2.681,0,0,1-1.871-.615,2.244,2.244,0,0,1-.677-1.75q0-2.432,3.889-2.549l1.362-.044v-.5a2.035,2.035,0,0,0-.406-1.4,1.672,1.672,0,0,0-1.3-.45,5.3,5.3,0,0,0-2.271.615l-.374-.93a5.713,5.713,0,0,1,1.3-.505,5.631,5.631,0,0,1,1.417-.183,3.058,3.058,0,0,1,2.128.637,2.66,2.66,0,0,1,.692,2.043V147Zm-2.747-.857a2.468,2.468,0,0,0,1.783-.623,2.3,2.3,0,0,0,.648-1.743v-.725L26.1,143.1a4.422,4.422,0,0,0-2.091.45,1.358,1.358,0,0,0-.641,1.241,1.253,1.253,0,0,0,.4,1A1.657,1.657,0,0,0,24.885,146.143Zm8.3,0a3.972,3.972,0,0,0,.623-.048,4.03,4.03,0,0,0,.476-.1v.93a2.223,2.223,0,0,1-.582.157,4.373,4.373,0,0,1-.692.062q-2.329,0-2.329-2.454v-4.775h-1.15v-.586l1.15-.505.513-1.714h.7v1.86h2.329v.945H31.891v4.724a1.625,1.625,0,0,0,.344,1.113A1.2,1.2,0,0,0,33.18,146.143ZM40.1,147H38.88v-8.027H40.1Zm-1.318-10.2a.808.808,0,0,1,.205-.612.759.759,0,0,1,1.018,0,.793.793,0,0,1,.212.608.805.805,0,0,1-.212.612.744.744,0,0,1-1.018,0A.823.823,0,0,1,38.777,136.8Zm8.94,10.2v-5.193a2.1,2.1,0,0,0-.447-1.465,1.82,1.82,0,0,0-1.4-.483,2.307,2.307,0,0,0-1.846.681,3.439,3.439,0,0,0-.586,2.249V147H42.224v-8.027h.989l.2,1.1h.059a2.483,2.483,0,0,1,1.047-.919,3.4,3.4,0,0,1,1.5-.326,3.049,3.049,0,0,1,2.183.7,2.977,2.977,0,0,1,.732,2.238V147Zm5.021,0-3.047-8.027h1.3l1.729,4.761a22.533,22.533,0,0,1,.688,2.168h.059a16.375,16.375,0,0,1,.509-1.608q.428-1.219,1.923-5.321h1.3L54.159,147Zm8.7.146a3.688,3.688,0,0,1-2.809-1.084,4.2,4.2,0,0,1-1.029-3.01,4.654,4.654,0,0,1,.956-3.083,3.175,3.175,0,0,1,2.567-1.143,3.027,3.027,0,0,1,2.388.992,3.8,3.8,0,0,1,.879,2.618v.769h-5.53a3.182,3.182,0,0,0,.714,2.146,2.47,2.47,0,0,0,1.908.732,6.466,6.466,0,0,0,2.563-.542v1.084a6.434,6.434,0,0,1-1.219.4A6.853,6.853,0,0,1,61.436,147.146Zm-.33-7.3a1.985,1.985,0,0,0-1.542.63,2.9,2.9,0,0,0-.677,1.743h4.2a2.673,2.673,0,0,0-.513-1.761A1.8,1.8,0,0,0,61.106,139.844Zm10.082,4.966a2.011,2.011,0,0,1-.835,1.729,3.925,3.925,0,0,1-2.344.608,5.1,5.1,0,0,1-2.49-.505v-1.128a6.022,6.022,0,0,0,1.241.461,5.184,5.184,0,0,0,1.278.168,2.9,2.9,0,0,0,1.465-.3,1.046,1.046,0,0,0,.106-1.729,6.394,6.394,0,0,0-1.586-.787,8.6,8.6,0,0,1-1.593-.729,2.176,2.176,0,0,1-.7-.707,1.843,1.843,0,0,1-.231-.945,1.8,1.8,0,0,1,.8-1.549,3.72,3.72,0,0,1,2.19-.568,6.408,6.408,0,0,1,2.534.527l-.432.989a5.817,5.817,0,0,0-2.19-.5,2.52,2.52,0,0,0-1.3.271.838.838,0,0,0-.439.747.91.91,0,0,0,.165.549,1.626,1.626,0,0,0,.531.432,11.867,11.867,0,0,0,1.406.593,5.254,5.254,0,0,1,1.93,1.047A1.847,1.847,0,0,1,71.188,144.81Zm4.12,1.333a3.972,3.972,0,0,0,.623-.048,4.03,4.03,0,0,0,.476-.1v.93a2.223,2.223,0,0,1-.582.157,4.373,4.373,0,0,1-.692.062q-2.329,0-2.329-2.454v-4.775h-1.15v-.586l1.15-.505.513-1.714h.7v1.86h2.329v.945H74.02v4.724a1.625,1.625,0,0,0,.344,1.113A1.2,1.2,0,0,0,75.309,146.143ZM87.793,147v-5.222a2.168,2.168,0,0,0-.41-1.439,1.586,1.586,0,0,0-1.274-.48,2.058,2.058,0,0,0-1.677.652,3.1,3.1,0,0,0-.542,2.007V147H82.674v-5.222a2.168,2.168,0,0,0-.41-1.439,1.6,1.6,0,0,0-1.282-.48,1.985,1.985,0,0,0-1.674.685,3.706,3.706,0,0,0-.531,2.245V147H77.561v-8.027h.989l.2,1.1h.059a2.39,2.39,0,0,1,.97-.916,2.965,2.965,0,0,1,1.4-.33,2.385,2.385,0,0,1,2.461,1.362H83.7a2.56,2.56,0,0,1,1.04-1,3.227,3.227,0,0,1,1.553-.366,2.718,2.718,0,0,1,2.04.7,3.129,3.129,0,0,1,.677,2.238V147Zm6.662.146a3.688,3.688,0,0,1-2.809-1.084,4.2,4.2,0,0,1-1.029-3.01,4.654,4.654,0,0,1,.956-3.083,3.175,3.175,0,0,1,2.567-1.143,3.027,3.027,0,0,1,2.388.992,3.8,3.8,0,0,1,.879,2.618v.769h-5.53a3.182,3.182,0,0,0,.714,2.146,2.47,2.47,0,0,0,1.908.732,6.466,6.466,0,0,0,2.563-.542v1.084a6.434,6.434,0,0,1-1.219.4A6.853,6.853,0,0,1,94.455,147.146Zm-.33-7.3a1.985,1.985,0,0,0-1.542.63,2.9,2.9,0,0,0-.677,1.743h4.2a2.673,2.673,0,0,0-.513-1.761A1.8,1.8,0,0,0,94.126,139.844Zm10.4,7.156v-5.193a2.1,2.1,0,0,0-.447-1.465,1.82,1.82,0,0,0-1.4-.483,2.307,2.307,0,0,0-1.846.681,3.439,3.439,0,0,0-.586,2.249V147H99.03v-8.027h.989l.2,1.1h.059a2.483,2.483,0,0,1,1.047-.919,3.4,3.4,0,0,1,1.5-.326,3.049,3.049,0,0,1,2.183.7,2.977,2.977,0,0,1,.732,2.238V147Zm5.856-.857A3.972,3.972,0,0,0,111,146.1a4.03,4.03,0,0,0,.476-.1v.93a2.223,2.223,0,0,1-.582.157,4.373,4.373,0,0,1-.692.062q-2.329,0-2.329-2.454v-4.775h-1.15v-.586l1.15-.505.513-1.714h.7v1.86h2.329v.945H109.09v4.724a1.625,1.625,0,0,0,.344,1.113A1.2,1.2,0,0,0,110.379,146.143ZM8.218,163.979a4.428,4.428,0,0,1-.989,3.065,3.482,3.482,0,0,1-2.732,1.1,3.618,3.618,0,0,1-1.912-.505,3.335,3.335,0,0,1-1.289-1.45,5.054,5.054,0,0,1-.454-2.212,4.421,4.421,0,0,1,.981-3.058,3.471,3.471,0,0,1,2.725-1.095,3.4,3.4,0,0,1,2.677,1.121A4.409,4.409,0,0,1,8.218,163.979Zm-6.116,0a3.81,3.81,0,0,0,.615,2.344,2.136,2.136,0,0,0,1.809.806,2.15,2.15,0,0,0,1.813-.8,3.791,3.791,0,0,0,.619-2.347,3.73,3.73,0,0,0-.619-2.325,2.175,2.175,0,0,0-1.827-.795,2.14,2.14,0,0,0-1.8.784A3.772,3.772,0,0,0,2.1,163.979Zm11.532,4.167a3.474,3.474,0,0,1-1.432-.289,2.693,2.693,0,0,1-1.088-.89h-.088a10.767,10.767,0,0,1,.088,1.333v3.3H9.9V159.973h.989l.168,1.1h.059a2.824,2.824,0,0,1,1.091-.952,3.317,3.317,0,0,1,1.428-.293,2.967,2.967,0,0,1,2.465,1.091,5.811,5.811,0,0,1-.015,6.134A2.972,2.972,0,0,1,13.634,168.146Zm-.176-7.288a2.155,2.155,0,0,0-1.78.681,3.505,3.505,0,0,0-.564,2.168v.271a4.017,4.017,0,0,0,.564,2.421,2.145,2.145,0,0,0,1.809.729,1.881,1.881,0,0,0,1.63-.842,3.994,3.994,0,0,0,.59-2.322,3.844,3.844,0,0,0-.59-2.3A1.939,1.939,0,0,0,13.459,160.859Zm8.918,7.288a3.474,3.474,0,0,1-1.432-.289,2.693,2.693,0,0,1-1.088-.89h-.088a10.767,10.767,0,0,1,.088,1.333v3.3H18.641V159.973h.989l.168,1.1h.059a2.824,2.824,0,0,1,1.091-.952,3.317,3.317,0,0,1,1.428-.293,2.967,2.967,0,0,1,2.465,1.091,5.811,5.811,0,0,1-.015,6.134A2.972,2.972,0,0,1,22.376,168.146Zm-.176-7.288a2.155,2.155,0,0,0-1.78.681,3.505,3.505,0,0,0-.564,2.168v.271a4.017,4.017,0,0,0,.564,2.421,2.145,2.145,0,0,0,1.809.729,1.881,1.881,0,0,0,1.63-.842,3.994,3.994,0,0,0,.59-2.322,3.844,3.844,0,0,0-.59-2.3A1.939,1.939,0,0,0,22.2,160.859Zm12.111,3.12a4.428,4.428,0,0,1-.989,3.065,3.482,3.482,0,0,1-2.732,1.1,3.618,3.618,0,0,1-1.912-.505,3.335,3.335,0,0,1-1.289-1.45,5.054,5.054,0,0,1-.454-2.212,4.421,4.421,0,0,1,.981-3.058,3.471,3.471,0,0,1,2.725-1.095,3.4,3.4,0,0,1,2.677,1.121A4.409,4.409,0,0,1,34.312,163.979Zm-6.116,0a3.81,3.81,0,0,0,.615,2.344,2.442,2.442,0,0,0,3.622,0,3.791,3.791,0,0,0,.619-2.347,3.73,3.73,0,0,0-.619-2.325,2.175,2.175,0,0,0-1.827-.795,2.14,2.14,0,0,0-1.8.784A3.772,3.772,0,0,0,28.2,163.979Zm11.459-4.153a4.757,4.757,0,0,1,.959.088l-.168,1.128a4.142,4.142,0,0,0-.879-.11,2.139,2.139,0,0,0-1.666.791,2.884,2.884,0,0,0-.692,1.97V168H35.993v-8.027h1l.139,1.487h.059a3.529,3.529,0,0,1,1.077-1.208A2.424,2.424,0,0,1,39.655,159.826Zm4.6,7.317a3.972,3.972,0,0,0,.623-.048,4.03,4.03,0,0,0,.476-.1v.93a2.223,2.223,0,0,1-.582.157,4.373,4.373,0,0,1-.692.062q-2.329,0-2.329-2.454v-4.775H40.6v-.586l1.15-.505.513-1.714h.7v1.86H45.3v.945H42.97v4.724a1.625,1.625,0,0,0,.344,1.113A1.2,1.2,0,0,0,44.259,167.143Zm3.4-7.17v5.208a2.1,2.1,0,0,0,.447,1.465,1.82,1.82,0,0,0,1.4.483,2.282,2.282,0,0,0,1.842-.688,3.473,3.473,0,0,0,.582-2.249v-4.219H53.14V168h-1l-.176-1.077h-.066a2.423,2.423,0,0,1-1.036.908,3.483,3.483,0,0,1-1.512.315,3.069,3.069,0,0,1-2.194-.7,2.962,2.962,0,0,1-.729-2.227v-5.251ZM60.761,168v-5.193a2.1,2.1,0,0,0-.447-1.465,1.82,1.82,0,0,0-1.4-.483,2.307,2.307,0,0,0-1.846.681,3.439,3.439,0,0,0-.586,2.249V168H55.268v-8.027h.989l.2,1.1h.059a2.483,2.483,0,0,1,1.047-.919,3.4,3.4,0,0,1,1.5-.326,3.049,3.049,0,0,1,2.183.7,2.977,2.977,0,0,1,.732,2.238V168Zm4.479,0H64.025v-8.027H65.24Zm-1.318-10.2a.808.808,0,0,1,.205-.612.759.759,0,0,1,1.018,0,.793.793,0,0,1,.212.608.805.805,0,0,1-.212.612.744.744,0,0,1-1.018,0A.823.823,0,0,1,63.922,157.8Zm6.039,9.346a3.972,3.972,0,0,0,.623-.048,4.03,4.03,0,0,0,.476-.1v.93a2.223,2.223,0,0,1-.582.157,4.373,4.373,0,0,1-.692.062q-2.329,0-2.329-2.454v-4.775h-1.15v-.586l1.15-.505.513-1.714h.7v1.86H71v.945H68.672v4.724a1.625,1.625,0,0,0,.344,1.113A1.2,1.2,0,0,0,69.961,167.143ZM73.43,168H72.214v-8.027H73.43Zm-1.318-10.2a.808.808,0,0,1,.205-.612.759.759,0,0,1,1.018,0,.793.793,0,0,1,.212.608.805.805,0,0,1-.212.612.744.744,0,0,1-1.018,0A.823.823,0,0,1,72.111,157.8Zm6.838,10.349a3.688,3.688,0,0,1-2.809-1.084,4.2,4.2,0,0,1-1.029-3.01,4.654,4.654,0,0,1,.956-3.083,3.175,3.175,0,0,1,2.567-1.143,3.027,3.027,0,0,1,2.388.992,3.8,3.8,0,0,1,.879,2.618v.769h-5.53a3.182,3.182,0,0,0,.714,2.146,2.47,2.47,0,0,0,1.908.732,6.466,6.466,0,0,0,2.563-.542v1.084a6.434,6.434,0,0,1-1.219.4A6.853,6.853,0,0,1,78.949,168.146Zm-.33-7.3a1.985,1.985,0,0,0-1.542.63,2.9,2.9,0,0,0-.677,1.743h4.2a2.673,2.673,0,0,0-.513-1.761A1.8,1.8,0,0,0,78.619,160.844ZM88.7,165.81a2.011,2.011,0,0,1-.835,1.729,3.925,3.925,0,0,1-2.344.608,5.1,5.1,0,0,1-2.49-.505v-1.128a6.022,6.022,0,0,0,1.241.461,5.184,5.184,0,0,0,1.278.168,2.9,2.9,0,0,0,1.465-.3,1.046,1.046,0,0,0,.106-1.729,6.394,6.394,0,0,0-1.586-.787,8.6,8.6,0,0,1-1.593-.729,2.176,2.176,0,0,1-.7-.707,1.843,1.843,0,0,1-.231-.945,1.8,1.8,0,0,1,.8-1.549,3.72,3.72,0,0,1,2.19-.568,6.408,6.408,0,0,1,2.534.527l-.432.989a5.817,5.817,0,0,0-2.19-.5,2.52,2.52,0,0,0-1.3.271.838.838,0,0,0-.439.747.91.91,0,0,0,.165.549,1.626,1.626,0,0,0,.531.432,11.867,11.867,0,0,0,1.406.593,5.254,5.254,0,0,1,1.93,1.047A1.847,1.847,0,0,1,88.7,165.81ZM100.231,168l-1.472-4.709q-.139-.432-.52-1.963H98.18q-.293,1.282-.513,1.978L96.151,168H94.745l-2.19-8.027h1.274l1.183,4.607a18.666,18.666,0,0,1,.465,2.131h.059q.081-.417.26-1.08t.311-1.051l1.472-4.607H98.9l1.436,4.607a15.549,15.549,0,0,1,.557,2.117h.059a7.763,7.763,0,0,1,.157-.813q.128-.549,1.527-5.911h1.26L101.674,168Zm5.878,0h-1.216v-8.027h1.216Zm-1.318-10.2a.808.808,0,0,1,.205-.612.759.759,0,0,1,1.018,0,.793.793,0,0,1,.212.608.805.805,0,0,1-.212.612.744.744,0,0,1-1.018,0A.823.823,0,0,1,104.791,157.8Zm6.039,9.346a3.972,3.972,0,0,0,.623-.048,4.03,4.03,0,0,0,.476-.1v.93a2.223,2.223,0,0,1-.582.157,4.373,4.373,0,0,1-.692.062q-2.329,0-2.329-2.454v-4.775h-1.15v-.586l1.15-.505.513-1.714h.7v1.86h2.329v.945h-2.329v4.724a1.625,1.625,0,0,0,.344,1.113A1.2,1.2,0,0,0,110.83,167.143Zm7.746.857v-5.193a2.1,2.1,0,0,0-.447-1.465,1.82,1.82,0,0,0-1.4-.483,2.292,2.292,0,0,0-1.849.688,3.487,3.487,0,0,0-.582,2.256V168h-1.216V156.6H114.3v3.45a7.517,7.517,0,0,1-.059,1.033h.073a2.48,2.48,0,0,1,1.022-.912,3.322,3.322,0,0,1,1.512-.333,3.1,3.1,0,0,1,2.208.7,2.946,2.946,0,0,1,.736,2.223V168Zm9.3-.857a3.972,3.972,0,0,0,.623-.048,4.03,4.03,0,0,0,.476-.1v.93a2.223,2.223,0,0,1-.582.157,4.373,4.373,0,0,1-.692.062q-2.329,0-2.329-2.454v-4.775h-1.15v-.586l1.15-.505.513-1.714h.7v1.86h2.329v.945h-2.329v4.724a1.625,1.625,0,0,0,.344,1.113A1.2,1.2,0,0,0,127.878,167.143Zm7.746.857v-5.193a2.1,2.1,0,0,0-.447-1.465,1.82,1.82,0,0,0-1.4-.483,2.292,2.292,0,0,0-1.849.688,3.487,3.487,0,0,0-.582,2.256V168h-1.216V156.6h1.216v3.45a7.517,7.517,0,0,1-.059,1.033h.073a2.48,2.48,0,0,1,1.022-.912,3.322,3.322,0,0,1,1.512-.333,3.1,3.1,0,0,1,2.208.7,2.946,2.946,0,0,1,.736,2.223V168Zm6.654.146a3.688,3.688,0,0,1-2.809-1.084,4.2,4.2,0,0,1-1.029-3.01,4.654,4.654,0,0,1,.956-3.083,3.175,3.175,0,0,1,2.567-1.143,3.027,3.027,0,0,1,2.388.992,3.8,3.8,0,0,1,.879,2.618v.769H139.7a3.182,3.182,0,0,0,.714,2.146,2.47,2.47,0,0,0,1.908.732,6.466,6.466,0,0,0,2.563-.542v1.084a6.434,6.434,0,0,1-1.219.4A6.853,6.853,0,0,1,142.279,168.146Zm-.33-7.3a1.985,1.985,0,0,0-1.542.63,2.9,2.9,0,0,0-.677,1.743h4.2a2.673,2.673,0,0,0-.513-1.761A1.8,1.8,0,0,0,141.949,160.844Zm-137,19.982a4.757,4.757,0,0,1,.959.088l-.168,1.128a4.142,4.142,0,0,0-.879-.11,2.139,2.139,0,0,0-1.666.791,2.884,2.884,0,0,0-.692,1.97V189H1.289v-8.027h1l.139,1.487H2.49a3.529,3.529,0,0,1,1.077-1.208A2.424,2.424,0,0,1,4.951,180.826Zm5.4,8.32a3.688,3.688,0,0,1-2.809-1.084,4.2,4.2,0,0,1-1.029-3.01,4.654,4.654,0,0,1,.956-3.083,3.175,3.175,0,0,1,2.567-1.143,3.027,3.027,0,0,1,2.388.992,3.8,3.8,0,0,1,.879,2.618v.769H7.775a3.182,3.182,0,0,0,.714,2.146,2.47,2.47,0,0,0,1.908.732,6.466,6.466,0,0,0,2.563-.542v1.084a6.434,6.434,0,0,1-1.219.4A6.853,6.853,0,0,1,10.353,189.146Zm-.33-7.3a1.985,1.985,0,0,0-1.542.63,2.9,2.9,0,0,0-.677,1.743H12a2.673,2.673,0,0,0-.513-1.761A1.8,1.8,0,0,0,10.024,181.844Zm8.112,7.3a3.426,3.426,0,0,1-2.7-1.073,4.412,4.412,0,0,1-.956-3.036,4.55,4.55,0,0,1,.97-3.113,3.494,3.494,0,0,1,2.765-1.1,5.487,5.487,0,0,1,1.157.125,3.812,3.812,0,0,1,.908.293l-.374,1.033a5.717,5.717,0,0,0-.879-.267,3.924,3.924,0,0,0-.842-.106q-2.446,0-2.446,3.12a3.715,3.715,0,0,0,.6,2.271,2.077,2.077,0,0,0,1.769.791,5.408,5.408,0,0,0,2.058-.432v1.077A4.386,4.386,0,0,1,18.136,189.146Zm10.412-4.167a4.428,4.428,0,0,1-.989,3.065,3.482,3.482,0,0,1-2.732,1.1,3.618,3.618,0,0,1-1.912-.505,3.335,3.335,0,0,1-1.289-1.45,5.054,5.054,0,0,1-.454-2.212,4.421,4.421,0,0,1,.981-3.058,3.471,3.471,0,0,1,2.725-1.095,3.4,3.4,0,0,1,2.677,1.121A4.409,4.409,0,0,1,28.547,184.979Zm-6.116,0a3.81,3.81,0,0,0,.615,2.344,2.136,2.136,0,0,0,1.809.806,2.15,2.15,0,0,0,1.813-.8,3.791,3.791,0,0,0,.619-2.347,3.73,3.73,0,0,0-.619-2.325,2.175,2.175,0,0,0-1.827-.795,2.14,2.14,0,0,0-1.8.784A3.772,3.772,0,0,0,22.432,184.979ZM40.461,189v-5.222a2.168,2.168,0,0,0-.41-1.439,1.586,1.586,0,0,0-1.274-.48,2.058,2.058,0,0,0-1.677.652,3.1,3.1,0,0,0-.542,2.007V189H35.341v-5.222a2.168,2.168,0,0,0-.41-1.439,1.6,1.6,0,0,0-1.282-.48,1.985,1.985,0,0,0-1.674.685,3.706,3.706,0,0,0-.531,2.245V189H30.229v-8.027h.989l.2,1.1h.059a2.39,2.39,0,0,1,.97-.916,2.965,2.965,0,0,1,1.4-.33,2.385,2.385,0,0,1,2.461,1.362h.059a2.56,2.56,0,0,1,1.04-1,3.227,3.227,0,0,1,1.553-.366,2.718,2.718,0,0,1,2.04.7,3.129,3.129,0,0,1,.677,2.238V189Zm13.5,0v-5.222a2.168,2.168,0,0,0-.41-1.439,1.586,1.586,0,0,0-1.274-.48,2.058,2.058,0,0,0-1.677.652,3.1,3.1,0,0,0-.542,2.007V189H48.844v-5.222a2.168,2.168,0,0,0-.41-1.439,1.6,1.6,0,0,0-1.282-.48,1.985,1.985,0,0,0-1.674.685,3.706,3.706,0,0,0-.531,2.245V189H43.731v-8.027h.989l.2,1.1h.059a2.39,2.39,0,0,1,.97-.916,2.965,2.965,0,0,1,1.4-.33,2.385,2.385,0,0,1,2.461,1.362h.059a2.56,2.56,0,0,1,1.04-1,3.227,3.227,0,0,1,1.553-.366,2.718,2.718,0,0,1,2.04.7,3.129,3.129,0,0,1,.677,2.238V189Zm6.662.146a3.688,3.688,0,0,1-2.809-1.084,4.2,4.2,0,0,1-1.029-3.01,4.654,4.654,0,0,1,.956-3.083,3.175,3.175,0,0,1,2.567-1.143,3.027,3.027,0,0,1,2.388.992,3.8,3.8,0,0,1,.879,2.618v.769h-5.53a3.182,3.182,0,0,0,.714,2.146,2.47,2.47,0,0,0,1.908.732,6.466,6.466,0,0,0,2.563-.542v1.084a6.434,6.434,0,0,1-1.219.4A6.853,6.853,0,0,1,60.625,189.146Zm-.33-7.3a1.985,1.985,0,0,0-1.542.63,2.9,2.9,0,0,0-.677,1.743h4.2a2.673,2.673,0,0,0-.513-1.761A1.8,1.8,0,0,0,60.3,181.844ZM70.693,189v-5.193a2.1,2.1,0,0,0-.447-1.465,1.82,1.82,0,0,0-1.4-.483A2.307,2.307,0,0,0,67,182.54a3.439,3.439,0,0,0-.586,2.249V189H65.2v-8.027h.989l.2,1.1h.059a2.483,2.483,0,0,1,1.047-.919,3.4,3.4,0,0,1,1.5-.326,3.049,3.049,0,0,1,2.183.7,2.977,2.977,0,0,1,.732,2.238V189Zm8.727-1.077h-.066a2.857,2.857,0,0,1-2.52,1.223,2.981,2.981,0,0,1-2.45-1.077,4.739,4.739,0,0,1-.875-3.062,4.819,4.819,0,0,1,.879-3.083,2.958,2.958,0,0,1,2.446-1.1,2.919,2.919,0,0,1,2.5,1.187h.1l-.051-.579-.029-.564V177.6H80.57V189h-.989Zm-2.432.205a2.214,2.214,0,0,0,1.805-.677,3.423,3.423,0,0,0,.56-2.186v-.256a4.028,4.028,0,0,0-.568-2.435,2.156,2.156,0,0,0-1.813-.729,1.861,1.861,0,0,0-1.637.831,4.134,4.134,0,0,0-.568,2.347,3.963,3.963,0,0,0,.564,2.322A1.91,1.91,0,0,0,76.988,188.128ZM87.635,189l-.242-1.143h-.059a3.378,3.378,0,0,1-1.2,1.022,3.65,3.65,0,0,1-1.49.267,2.681,2.681,0,0,1-1.871-.615,2.244,2.244,0,0,1-.677-1.75q0-2.432,3.889-2.549l1.362-.044v-.5a2.035,2.035,0,0,0-.406-1.4,1.672,1.672,0,0,0-1.3-.45,5.3,5.3,0,0,0-2.271.615l-.374-.93a5.713,5.713,0,0,1,1.3-.505,5.631,5.631,0,0,1,1.417-.183,3.058,3.058,0,0,1,2.128.637,2.66,2.66,0,0,1,.692,2.043V189Zm-2.747-.857a2.468,2.468,0,0,0,1.783-.623,2.3,2.3,0,0,0,.648-1.743v-.725L86.1,185.1a4.422,4.422,0,0,0-2.091.45,1.358,1.358,0,0,0-.641,1.241,1.253,1.253,0,0,0,.4,1A1.657,1.657,0,0,0,84.888,188.143Zm8.3,0a3.972,3.972,0,0,0,.623-.048,4.03,4.03,0,0,0,.476-.1v.93a2.223,2.223,0,0,1-.582.157,4.373,4.373,0,0,1-.692.062q-2.329,0-2.329-2.454v-4.775h-1.15v-.586l1.15-.505.513-1.714h.7v1.86h2.329v.945H91.894v4.724a1.625,1.625,0,0,0,.344,1.113A1.2,1.2,0,0,0,93.183,188.143Zm3.468.857H95.436v-8.027h1.216Zm-1.318-10.2a.808.808,0,0,1,.205-.612.759.759,0,0,1,1.018,0,.793.793,0,0,1,.212.608.805.805,0,0,1-.212.612.744.744,0,0,1-1.018,0A.823.823,0,0,1,95.333,178.8Zm10.375,6.182a4.428,4.428,0,0,1-.989,3.065,3.482,3.482,0,0,1-2.732,1.1,3.618,3.618,0,0,1-1.912-.505,3.335,3.335,0,0,1-1.289-1.45,5.054,5.054,0,0,1-.454-2.212,4.421,4.421,0,0,1,.981-3.058,3.471,3.471,0,0,1,2.725-1.095,3.4,3.4,0,0,1,2.677,1.121A4.409,4.409,0,0,1,105.708,184.979Zm-6.116,0a3.81,3.81,0,0,0,.615,2.344,2.442,2.442,0,0,0,3.622,0,3.791,3.791,0,0,0,.619-2.347,3.73,3.73,0,0,0-.619-2.325,2.175,2.175,0,0,0-1.827-.795,2.14,2.14,0,0,0-1.8.784A3.772,3.772,0,0,0,99.593,184.979ZM112.883,189v-5.193a2.1,2.1,0,0,0-.447-1.465,1.82,1.82,0,0,0-1.4-.483,2.307,2.307,0,0,0-1.846.681,3.439,3.439,0,0,0-.586,2.249V189H107.39v-8.027h.989l.2,1.1h.059a2.483,2.483,0,0,1,1.047-.919,3.4,3.4,0,0,1,1.5-.326,3.049,3.049,0,0,1,2.183.7,2.977,2.977,0,0,1,.732,2.238V189Zm10.1.146a3.688,3.688,0,0,1-2.809-1.084,4.2,4.2,0,0,1-1.029-3.01,4.654,4.654,0,0,1,.956-3.083,3.175,3.175,0,0,1,2.567-1.143,3.027,3.027,0,0,1,2.388.992,3.8,3.8,0,0,1,.879,2.618v.769h-5.53a3.182,3.182,0,0,0,.714,2.146,2.47,2.47,0,0,0,1.908.732,6.466,6.466,0,0,0,2.563-.542v1.084a6.434,6.434,0,0,1-1.219.4A6.853,6.853,0,0,1,122.984,189.146Zm-.33-7.3a1.985,1.985,0,0,0-1.542.63,2.9,2.9,0,0,0-.677,1.743h4.2a2.673,2.673,0,0,0-.513-1.761A1.8,1.8,0,0,0,122.654,181.844Zm10.4,7.156v-5.193a2.1,2.1,0,0,0-.447-1.465,1.82,1.82,0,0,0-1.4-.483,2.307,2.307,0,0,0-1.846.681,3.439,3.439,0,0,0-.586,2.249V189h-1.216v-8.027h.989l.2,1.1h.059a2.483,2.483,0,0,1,1.047-.919,3.4,3.4,0,0,1,1.5-.326,3.049,3.049,0,0,1,2.183.7,2.977,2.977,0,0,1,.732,2.238V189Zm9.833-8.027v.769l-1.487.176a2.611,2.611,0,0,1,.527,1.6,2.373,2.373,0,0,1-.806,1.882,3.25,3.25,0,0,1-2.212.7,3.683,3.683,0,0,1-.674-.059,1.2,1.2,0,0,0-.776,1.033.525.525,0,0,0,.271.487,1.98,1.98,0,0,0,.93.157h1.421a3.182,3.182,0,0,1,2,.549,1.909,1.909,0,0,1,.7,1.6,2.279,2.279,0,0,1-1.069,2.032,5.723,5.723,0,0,1-3.12.7,4.263,4.263,0,0,1-2.428-.586,1.892,1.892,0,0,1-.853-1.655,1.859,1.859,0,0,1,.469-1.267,2.387,2.387,0,0,1,1.318-.725,1.272,1.272,0,0,1-.516-.432,1.144,1.144,0,0,1-.209-.681,1.293,1.293,0,0,1,.234-.769,2.464,2.464,0,0,1,.74-.637,2.168,2.168,0,0,1-1.014-.872,2.561,2.561,0,0,1-.392-1.406,2.6,2.6,0,0,1,.791-2.032,3.23,3.23,0,0,1,2.241-.714,4.075,4.075,0,0,1,1.135.146Zm-6.4,9.375a1.09,1.09,0,0,0,.549.989,3.032,3.032,0,0,0,1.575.337,4.394,4.394,0,0,0,2.267-.458,1.4,1.4,0,0,0,.736-1.241.982.982,0,0,0-.4-.9,3.129,3.129,0,0,0-1.516-.253h-1.458a1.92,1.92,0,0,0-1.289.4A1.413,1.413,0,0,0,136.483,190.348Zm.659-6.8a1.634,1.634,0,0,0,.476,1.274,1.9,1.9,0,0,0,1.326.432,1.551,1.551,0,0,0,1.78-1.729,1.6,1.6,0,0,0-1.8-1.809,1.784,1.784,0,0,0-1.318.461A1.858,1.858,0,0,0,137.143,183.543ZM145.3,189h-1.216v-8.027H145.3Zm-1.318-10.2a.808.808,0,0,1,.205-.612.759.759,0,0,1,1.018,0,.793.793,0,0,1,.212.608.805.805,0,0,1-.212.612.744.744,0,0,1-1.018,0A.823.823,0,0,1,143.98,178.8Zm8.94,10.2v-5.193a2.1,2.1,0,0,0-.447-1.465,1.82,1.82,0,0,0-1.4-.483,2.307,2.307,0,0,0-1.846.681,3.439,3.439,0,0,0-.586,2.249V189h-1.216v-8.027h.989l.2,1.1h.059a2.483,2.483,0,0,1,1.047-.919,3.4,3.4,0,0,1,1.5-.326,3.049,3.049,0,0,1,2.183.7,2.977,2.977,0,0,1,.732,2.238V189Zm6.654.146a3.688,3.688,0,0,1-2.809-1.084,4.2,4.2,0,0,1-1.029-3.01,4.654,4.654,0,0,1,.956-3.083,3.175,3.175,0,0,1,2.567-1.143,3.027,3.027,0,0,1,2.388.992,3.8,3.8,0,0,1,.879,2.618v.769H157a3.182,3.182,0,0,0,.714,2.146,2.47,2.47,0,0,0,1.908.732,6.466,6.466,0,0,0,2.563-.542v1.084a6.434,6.434,0,0,1-1.219.4A6.853,6.853,0,0,1,159.574,189.146Zm-.33-7.3a1.985,1.985,0,0,0-1.542.63,2.9,2.9,0,0,0-.677,1.743h4.2a2.673,2.673,0,0,0-.513-1.761A1.8,1.8,0,0,0,159.245,181.844Z" transform="translate(763 1383)" fill="#707070"/>
    <path id="Path_12" data-name="Path 12" d="M9.105-3.489A3.234,3.234,0,0,1,7.866-.8,5.393,5.393,0,0,1,4.447.176,8.158,8.158,0,0,1,.879-.5V-2.487a9.7,9.7,0,0,0,1.868.65A7.919,7.919,0,0,0,4.588-1.6a2.929,2.929,0,0,0,1.841-.475,1.548,1.548,0,0,0,.593-1.274A1.6,1.6,0,0,0,6.478-4.57a8.2,8.2,0,0,0-2.25-1.187A5.952,5.952,0,0,1,1.749-7.383a3.44,3.44,0,0,1-.721-2.2,3.077,3.077,0,0,1,1.143-2.531,4.74,4.74,0,0,1,3.067-.923,9.012,9.012,0,0,1,3.674.809l-.668,1.714a8.027,8.027,0,0,0-3.059-.721,2.347,2.347,0,0,0-1.547.444,1.458,1.458,0,0,0-.527,1.173,1.652,1.652,0,0,0,.211.857,2.155,2.155,0,0,0,.694.672,11.745,11.745,0,0,0,1.74.835,9.522,9.522,0,0,1,2.074,1.1A3.231,3.231,0,0,1,8.8-5,3.463,3.463,0,0,1,9.105-3.489ZM17.689,0,17.4-1.274h-.105A2.931,2.931,0,0,1,16.067-.211a4.1,4.1,0,0,1-1.815.387A3.563,3.563,0,0,1,11.615-.7a3.643,3.643,0,0,1-.87-2.663V-9.721h2.083v5.994a2.6,2.6,0,0,0,.457,1.674,1.745,1.745,0,0,0,1.433.558,2.281,2.281,0,0,0,1.912-.778,4.286,4.286,0,0,0,.611-2.606V-9.721h2.074V0Zm8.961-9.9a4.972,4.972,0,0,1,1.028.088l-.2,1.925a3.9,3.9,0,0,0-.914-.105,2.645,2.645,0,0,0-2.008.809,2.923,2.923,0,0,0-.769,2.1V0H21.719V-9.721h1.617l.272,1.714h.105a3.851,3.851,0,0,1,1.261-1.38A3,3,0,0,1,26.649-9.9ZM33.87.176a3.4,3.4,0,0,1-2.865-1.327h-.123q.123,1.23.123,1.494V4.324H28.94V-9.721h1.67q.07.272.29,1.3h.105a3.236,3.236,0,0,1,2.9-1.477A3.374,3.374,0,0,1,36.74-8.578a5.944,5.944,0,0,1,1.015,3.7A5.948,5.948,0,0,1,36.722-1.16,3.4,3.4,0,0,1,33.87.176Zm-.5-8.385a2.147,2.147,0,0,0-1.8.721,3.735,3.735,0,0,0-.567,2.3v.308a4.547,4.547,0,0,0,.563,2.571,2.092,2.092,0,0,0,1.837.8,1.865,1.865,0,0,0,1.652-.879,4.539,4.539,0,0,0,.58-2.5,4.38,4.38,0,0,0-.576-2.474A1.92,1.92,0,0,0,33.369-8.209ZM44.545-9.9a4.972,4.972,0,0,1,1.028.088l-.2,1.925a3.9,3.9,0,0,0-.914-.105,2.645,2.645,0,0,0-2.008.809,2.923,2.923,0,0,0-.769,2.1V0H39.614V-9.721h1.617L41.5-8.007h.105a3.851,3.851,0,0,1,1.261-1.38A3,3,0,0,1,44.545-9.9ZM48.9,0H46.835V-9.721H48.9ZM46.712-12.3a1.144,1.144,0,0,1,.3-.853,1.182,1.182,0,0,1,.866-.3,1.156,1.156,0,0,1,.848.3,1.144,1.144,0,0,1,.3.853,1.122,1.122,0,0,1-.3.831,1.147,1.147,0,0,1-.848.3,1.171,1.171,0,0,1-.866-.3A1.122,1.122,0,0,1,46.712-12.3ZM57.844-2.769A2.543,2.543,0,0,1,56.807-.584a4.966,4.966,0,0,1-2.971.76,7.017,7.017,0,0,1-3.12-.589V-2.2a7.66,7.66,0,0,0,3.19.791q1.907,0,1.907-1.151a.912.912,0,0,0-.211-.615,2.5,2.5,0,0,0-.694-.51,11.949,11.949,0,0,0-1.345-.6,6.22,6.22,0,0,1-2.272-1.3A2.407,2.407,0,0,1,50.7-7.269,2.216,2.216,0,0,1,51.7-9.207a4.776,4.776,0,0,1,2.738-.69,7.754,7.754,0,0,1,3.243.694l-.668,1.556a7.213,7.213,0,0,0-2.646-.65q-1.635,0-1.635.932a.937.937,0,0,0,.426.773,9.374,9.374,0,0,0,1.859.87,8.5,8.5,0,0,1,1.749.853,2.548,2.548,0,0,1,.809.892A2.582,2.582,0,0,1,57.844-2.769ZM63.782.176a4.7,4.7,0,0,1-3.546-1.323A5.021,5.021,0,0,1,58.956-4.79a5.509,5.509,0,0,1,1.187-3.744A4.1,4.1,0,0,1,63.4-9.9a4.006,4.006,0,0,1,3.041,1.169,4.467,4.467,0,0,1,1.116,3.217v1.116H61.083a3.193,3.193,0,0,0,.765,2.175,2.663,2.663,0,0,0,2.03.76,7.5,7.5,0,0,0,1.6-.163,8.408,8.408,0,0,0,1.6-.541V-.483a6.342,6.342,0,0,1-1.529.51A9.378,9.378,0,0,1,63.782.176ZM63.4-8.332a2.075,2.075,0,0,0-1.578.624,2.974,2.974,0,0,0-.708,1.819h4.412a2.691,2.691,0,0,0-.58-1.824A1.984,1.984,0,0,0,63.4-8.332ZM75.9-2.769A2.543,2.543,0,0,1,74.861-.584a4.966,4.966,0,0,1-2.971.76,7.017,7.017,0,0,1-3.12-.589V-2.2a7.66,7.66,0,0,0,3.19.791q1.907,0,1.907-1.151a.912.912,0,0,0-.211-.615,2.5,2.5,0,0,0-.694-.51,11.949,11.949,0,0,0-1.345-.6,6.22,6.22,0,0,1-2.272-1.3,2.407,2.407,0,0,1-.593-1.687,2.216,2.216,0,0,1,1.006-1.938A4.776,4.776,0,0,1,72.5-9.9,7.754,7.754,0,0,1,75.74-9.2l-.668,1.556a7.213,7.213,0,0,0-2.646-.65q-1.635,0-1.635.932a.937.937,0,0,0,.426.773,9.374,9.374,0,0,0,1.859.87,8.5,8.5,0,0,1,1.749.853,2.548,2.548,0,0,1,.809.892A2.582,2.582,0,0,1,75.9-2.769Z" transform="translate(763 1350)" fill="#e6a557"/>
    <line id="Line_3" data-name="Line 3" x2="153" transform="translate(763.5 1361.5)" fill="none" stroke="#bfbfbf" stroke-width="1"/>
  </g>
</svg>
