<svg xmlns="http://www.w3.org/2000/svg" width="57.04" height="22.108" viewBox="0 0 57.04 22.108"><g transform="translate(-755.96 -942)"><text transform="translate(778 959)" fill="#6860ab" font-size="16" font-family="OpenSans-Semibold, Open Sans" font-weight="600" letter-spacing="-0.03em" text-decoration="underline"><tspan x="0" y="0">Sync</tspan></text><path d="M8.044,3.385a7.7,7.7,0,0,1,5.645,2.352,7.753,7.753,0,0,1,2.352,5.692,7.983,7.983,0,0,1-1.223,4.28l-1.458-1.458a5.887,5.887,0,0,0,.706-2.822A5.8,5.8,0,0,0,12.3,7.172,5.8,5.8,0,0,0,8.044,5.408v3.01L4,4.42,8.044.375Zm0,14.064v-3.01l4,4-4,4.045v-3.01a7.753,7.753,0,0,1-5.692-2.352A7.753,7.753,0,0,1,0,11.429a7.983,7.983,0,0,1,1.223-4.28L2.728,8.607a5.887,5.887,0,0,0-.706,2.822,5.8,5.8,0,0,0,1.764,4.257A5.8,5.8,0,0,0,8.044,17.45Z" transform="translate(755.96 941.625)" fill="#f4a047"/></g></svg>