<svg width="20" height="20" viewBox="0 0 20 20" fill="none" xmlns="http://www.w3.org/2000/svg">
<path d="M10 1.25C11.1491 1.25 12.2869 1.47633 13.3485 1.91605C14.4101 2.35578 15.3747 3.0003 16.1872 3.81282C16.9997 4.62533 17.6442 5.58992 18.0839 6.65152C18.5237 7.71312 18.75 8.85093 18.75 10C18.75 11.1491 18.5237 12.2869 18.0839 13.3485C17.6442 14.4101 16.9997 15.3747 16.1872 16.1872C15.3747 16.9997 14.4101 17.6442 13.3485 18.0839C12.2869 18.5237 11.1491 18.75 10 18.75C7.67936 18.75 5.45376 17.8281 3.81282 16.1872C2.17187 14.5462 1.25 12.3206 1.25 10C1.25 7.67936 2.17187 5.45376 3.81282 3.81282C5.45376 2.17187 7.67936 1.25 10 1.25ZM20 10C20 7.34784 18.9464 4.8043 17.0711 2.92893C15.1957 1.05357 12.6522 0 10 0C7.34784 0 4.8043 1.05357 2.92893 2.92893C1.05357 4.8043 0 7.34784 0 10C0 12.6522 1.05357 15.1957 2.92893 17.0711C4.8043 18.9464 7.34784 20 10 20C12.6522 20 15.1957 18.9464 17.0711 17.0711C18.9464 15.1957 20 12.6522 20 10ZM10 6.875C10.6082 6.87483 11.2032 7.05214 11.7122 7.38519C12.2211 7.71825 12.6217 8.19257 12.865 8.75H11.875C11.7092 8.75 11.5503 8.81585 11.4331 8.93306C11.3158 9.05027 11.25 9.20924 11.25 9.375C11.25 9.54076 11.3158 9.69973 11.4331 9.81694C11.5503 9.93415 11.7092 10 11.875 10H14.375C14.5408 10 14.6997 9.93415 14.8169 9.81694C14.9342 9.69973 15 9.54076 15 9.375V6.875C15 6.70924 14.9342 6.55027 14.8169 6.43306C14.6997 6.31585 14.5408 6.25 14.375 6.25C14.2092 6.25 14.0503 6.31585 13.9331 6.43306C13.8158 6.55027 13.75 6.70924 13.75 6.875V7.745C13.3974 7.15727 12.9116 6.66066 12.3317 6.29524C11.7518 5.92983 11.0942 5.70584 10.4118 5.64137C9.7295 5.57689 9.04154 5.67373 8.4035 5.92406C7.76546 6.1744 7.1952 6.57122 6.73875 7.0825C6.62819 7.20616 6.57128 7.36867 6.58054 7.53429C6.58512 7.61629 6.60581 7.69659 6.64143 7.7706C6.67705 7.84461 6.7269 7.91088 6.78813 7.96563C6.84935 8.02037 6.92077 8.06252 6.99828 8.08967C7.0758 8.11681 7.15791 8.12842 7.23991 8.12384C7.40553 8.11458 7.56069 8.03991 7.67125 7.91625C7.964 7.58824 8.32284 7.32588 8.7242 7.14642C9.12556 6.96696 9.56035 6.87446 10 6.875ZM6.25 12.255V13.125C6.25 13.2908 6.18415 13.4497 6.06694 13.5669C5.94973 13.6842 5.79076 13.75 5.625 13.75C5.45924 13.75 5.30027 13.6842 5.18306 13.5669C5.06585 13.4497 5 13.2908 5 13.125V10.625C5 10.4592 5.06585 10.3003 5.18306 10.1831C5.30027 10.0658 5.45924 10 5.625 10H8.125C8.29076 10 8.44973 10.0658 8.56694 10.1831C8.68415 10.3003 8.75 10.4592 8.75 10.625C8.75 10.7908 8.68415 10.9497 8.56694 11.0669C8.44973 11.1842 8.29076 11.25 8.125 11.25H7.135C7.34444 11.7302 7.67125 12.15 8.08537 12.4709C8.4995 12.7918 8.98764 13.0034 9.50493 13.0863C10.0222 13.1692 10.5521 13.1207 11.0457 12.9453C11.5394 12.7699 11.981 12.4732 12.33 12.0825C12.4407 11.959 12.596 11.8846 12.7616 11.8755C12.8436 11.8711 12.9257 11.8828 13.0032 11.91C13.0806 11.9373 13.152 11.9795 13.2131 12.0344C13.2743 12.0892 13.324 12.1555 13.3595 12.2296C13.395 12.3036 13.4156 12.384 13.4201 12.466C13.4246 12.548 13.4128 12.6301 13.3856 12.7075C13.3583 12.785 13.3161 12.8564 13.2613 12.9175C12.8048 13.4288 12.2345 13.8256 11.5965 14.0759C10.9585 14.3263 10.2705 14.4231 9.58815 14.3586C8.9058 14.2942 8.24816 14.0702 7.6683 13.7048C7.08844 13.3393 6.60261 12.8427 6.25 12.255Z" fill="white"/>
</svg>
