<svg width="405" height="348" viewBox="0 0 405 348" fill="none" xmlns="http://www.w3.org/2000/svg">
<path d="M39.8115 32.217C41.7608 31.7762 43.7791 31.7337 45.7453 32.0922C47.7114 32.4507 49.5848 33.2027 51.2531 34.3032C54.5856 36.5219 57.3618 39.4789 59.366 42.9447C63.4271 49.4999 64.7994 58.2712 64.9292 65.9761C56.3712 65.5496 49.1669 58.7533 45.6621 55.0816C40.1731 49.2588 33.8682 35.4159 39.8115 32.217Z" fill="#40BAA0"/>
<path d="M78.6335 71.2701C76.9299 69.8229 75.6396 67.9506 74.8938 65.8433C74.1479 63.7361 73.9731 61.4689 74.387 59.2722C74.8399 57.087 75.7223 55.0135 76.9829 53.172C78.2434 51.3305 79.8571 49.7576 81.7303 48.5446C83.4457 47.4042 85.5504 46.4955 87.5253 47.0982C88.4291 47.4358 89.2267 48.008 89.8362 48.7559C90.4456 49.5039 90.8449 50.4006 90.993 51.354C91.2519 53.2724 91.0058 55.225 90.2791 57.0192C88.0538 63.2314 84.7715 68.8409 78.6335 71.2701Z" fill="#40BAA0"/>
<path d="M83.6028 89.9141C82.6466 88.5039 81.8358 87.0003 81.1829 85.4265C80.403 83.7336 79.8302 81.9529 79.4768 80.1229C78.9622 77.9182 78.5936 75.6819 78.3735 73.4286C78.0118 69.274 78.674 65.094 80.302 61.2546C80.8106 60.1138 81.4318 59.0267 82.1564 58.0094C82.7127 57.314 83.0836 56.9617 83.0836 56.9987C83.0836 57.0358 81.971 58.6121 80.812 61.4956C79.3938 65.2815 78.8364 69.3356 79.1801 73.3637C79.3847 75.5869 79.7128 77.7971 80.163 79.9839C80.4743 81.7708 80.9715 83.5203 81.6465 85.2039C82.9353 88.069 83.7327 89.8585 83.6028 89.9141Z" fill="white"/>
<path d="M45.5781 42.3242C46.232 42.8872 46.834 43.5079 47.3769 44.1786C48.4802 45.4118 50.0657 47.2198 52.0128 49.4636C55.8792 53.9605 61.155 60.2283 66.8479 67.2842C72.5409 74.3402 77.4457 80.8954 80.8764 85.6983C82.6102 88.109 83.9917 90.0654 84.9189 91.4376C85.4409 92.1263 85.9031 92.8584 86.3004 93.6258C85.6956 93.0119 85.1435 92.3481 84.65 91.6416L80.3849 86.0784C76.7874 81.3683 71.7806 74.8965 66.1247 67.8406L51.5307 49.853L47.1173 44.4011C46.5499 43.7508 46.0352 43.0563 45.5781 42.3242V42.3242Z" fill="white"/>
<path d="M72.8095 79.6056C68.9193 76.945 64.4512 75.2494 59.7753 74.6593C55.0994 74.0692 50.3502 74.6014 45.9209 76.212C43.6771 77.0465 41.2849 78.6134 41.1737 81.0056C41.0624 83.3978 43.4546 85.1038 45.6706 86.031C50.3201 87.8674 55.4091 88.2865 60.2964 87.2354C65.1837 86.1844 69.6505 83.7102 73.134 80.1248" fill="#40BAA0"/>
<path d="M51.9199 79.9205C52.3233 79.7049 52.7583 79.5547 53.2087 79.4755C54.0432 79.2437 55.2764 78.9748 56.8062 78.6873C60.8303 77.9109 64.9623 77.8763 68.9988 78.5854C71.2235 79.0452 73.359 79.8624 75.3223 81.0053C77.9805 82.5964 80.2388 84.7754 81.9239 87.3751C82.2055 87.7329 82.4278 88.1336 82.5822 88.562C82.4431 88.6639 81.3861 87.0414 79.1979 84.8532C76.3429 82.0625 72.7382 80.1619 68.8226 79.3827C64.8806 78.7046 60.8558 78.6576 56.8989 79.2437C53.8392 79.6424 51.9477 80.0132 51.9199 79.9205Z" fill="white"/>
<path d="M85.3543 267.834C113.003 254.408 123.786 223.041 127.412 193.881C128.024 189.013 129.368 183.997 127.736 179.38C126.104 174.762 121.2 171.035 116.536 172.361C112.679 173.473 110.444 177.414 107.885 180.548C104.461 184.732 99.9267 187.865 94.8024 189.588C91.4645 190.691 87.4961 191.062 84.7145 188.902C80.9038 185.935 81.3303 180.084 82.1277 175.272L86.5782 148.384C87.3756 143.571 88.173 138.657 87.4034 133.845C86.6338 129.033 84.0006 124.267 79.6242 122.255C75.2479 120.243 69.1655 121.986 67.4502 126.539C66.727 128.44 66.8104 130.535 66.3561 132.519C65.9018 134.503 64.6223 136.553 62.6473 136.812C60.6724 137.072 58.9386 135.403 57.7147 133.762C53.5238 128.106 51.1409 121.31 48.9805 114.578C46.8202 107.847 44.7803 100.985 41.1086 94.968C37.437 88.9505 31.8367 83.749 25.0404 82.2562C18.2441 80.7634 10.2053 83.8602 7.3681 90.3506C4.53089 96.8409 7.3681 104.379 10.8358 110.563C15.9329 119.731 22.3287 128.113 29.8247 135.449C31.1691 136.775 32.6063 138.231 32.9215 140.085C33.4593 143.46 29.9082 146.168 26.5703 146.715C22.7966 147.336 18.958 146.344 15.1287 146.195C11.2994 146.047 6.97868 147.048 4.99449 150.368C2.21291 155.004 5.53226 160.789 9.04632 164.813C16.0761 172.869 24.4412 179.653 33.7746 184.869C37.1032 186.723 40.6543 188.457 43.1114 191.405C45.5684 194.354 46.6069 198.953 44.3445 202.068C42.0822 205.183 37.474 205.564 33.8765 204.284C30.279 203.004 27.2749 200.455 23.9463 198.6C17.7341 195.049 9.11122 194.141 3.9653 199.184C0.581047 202.504 -0.494497 207.696 0.200897 212.406C0.896292 217.116 3.1401 221.419 5.60643 225.461C14.2293 239.591 26.2087 251.775 40.7192 259.535C55.2298 267.296 69.2119 271.014 85.3543 267.88" fill="#C0E0B9"/>
<path d="M81.4326 269.376C82.2114 257.721 82.7307 263.767 80.765 248.459C78.7994 233.151 75.3039 216.535 71.0295 199.317L67.8121 186.55C66.7459 182.368 65.6981 178.205 64.4093 174.218C61.9335 166.55 59.0331 159.025 55.7215 151.678C52.6154 144.641 49.4074 138.076 46.3569 131.966C43.3064 125.856 40.358 120.182 37.428 115.156C32.865 107.198 27.6781 99.6148 21.9161 92.477C19.8855 89.955 18.2073 88.0543 17.1132 86.7748L15.8152 85.3283C15.6775 85.155 15.5221 84.9965 15.3516 84.8555C15.4671 85.0469 15.6006 85.227 15.7503 85.3932C16.0562 85.7641 16.4642 86.2555 16.9742 86.8953C18.059 88.2026 19.6537 90.1497 21.6101 92.6995C27.2485 99.9031 32.3406 107.518 36.8439 115.481C39.7182 120.515 42.6296 126.162 45.6615 132.272C48.6934 138.382 51.8459 144.965 54.9334 151.993C58.2135 159.33 61.086 166.843 63.5378 174.496C64.808 178.474 65.8465 182.591 66.9128 186.791C67.979 190.991 69.036 195.238 70.1208 199.54C74.3952 216.776 77.9278 233.345 79.912 248.607C81.8962 263.869 81.4604 257.758 80.765 269.376" fill="white"/>
<path d="M64.168 174.116C64.5009 173.483 64.7681 172.818 64.9654 172.132C65.429 170.843 66.0409 168.961 66.7548 166.615C68.2013 161.923 69.9722 155.386 71.9008 148.173C73.8293 140.959 75.693 134.45 77.2043 129.805C77.9461 127.478 78.5765 125.596 79.0587 124.307C79.3347 123.648 79.5368 122.961 79.6614 122.258C79.2861 122.863 78.9753 123.507 78.7342 124.177C78.1871 125.438 77.4639 127.283 76.6387 129.601C74.9698 134.237 73.0041 140.727 71.0756 147.932C69.147 155.136 67.4873 161.506 66.18 166.476C65.5866 168.692 65.0766 170.565 64.6687 172.039C64.4186 172.708 64.2505 173.406 64.168 174.116V174.116Z" fill="white"/>
<path d="M4.0957 152.688C4.88139 152.996 5.69486 153.229 6.52495 153.383C8.08263 153.772 10.3543 154.31 13.1358 155.107C18.699 156.628 26.3298 158.983 34.6282 161.959C42.9265 164.936 50.3163 167.977 55.6013 170.304C58.253 171.463 60.3763 172.455 61.8413 173.086C62.583 173.489 63.3625 173.818 64.1685 174.069C63.4875 173.569 62.7611 173.134 61.9989 172.77C60.571 172.001 58.4848 170.916 55.8609 169.683C50.6315 167.189 43.2511 164.055 34.9341 161.06C27.8384 158.485 20.6153 156.276 13.2935 154.44C10.5119 153.744 8.18463 153.272 6.58985 152.984C5.76897 152.811 4.93426 152.712 4.0957 152.688Z" fill="white"/>
<path d="M80.2266 247.195C80.2266 247.195 80.4398 246.982 80.7736 246.509L82.1922 244.441C83.4068 242.633 85.1036 239.981 87.162 236.671C91.2787 230.051 96.675 220.733 102.488 210.367C108.302 200.001 113.615 190.646 117.583 183.951C119.53 180.706 121.125 178.026 122.312 176.042C122.822 175.18 123.239 174.466 123.591 173.882C123.756 173.638 123.887 173.373 123.981 173.094C123.981 173.094 123.768 173.307 123.434 173.78L121.95 175.848C120.726 177.656 119.03 180.307 116.971 183.617C112.882 190.256 107.486 199.528 101.673 209.922C95.859 220.316 90.5462 229.643 86.5778 236.338C84.6307 239.583 83.036 242.262 81.8491 244.247L80.5789 246.407C80.4258 246.652 80.3072 246.917 80.2266 247.195V247.195Z" fill="white"/>
<path d="M2.13867 207.598C2.36993 207.786 2.62571 207.942 2.89897 208.061L5.12423 209.239L13.469 213.495C20.5249 217.092 30.2141 222.173 40.9046 227.801C51.5951 233.429 61.3028 238.418 68.4793 241.876C72.0397 243.601 74.9697 244.964 76.9631 245.872L79.2997 246.901C79.5636 247.036 79.8442 247.136 80.1341 247.198C79.9029 247.01 79.6471 246.854 79.3738 246.734L77.1115 245.557L68.7667 241.301C61.7108 237.704 52.0216 232.623 41.3311 226.995C30.6406 221.366 20.9329 216.369 13.7657 212.92C10.196 211.195 7.27532 209.832 5.27258 208.924L2.97315 207.876C2.70827 207.747 2.42775 207.654 2.13867 207.598Z" fill="white"/>
<path d="M396.733 346.956C396.733 347.086 308.956 347.197 200.706 347.197C92.456 347.197 4.66016 347.095 4.66016 346.956C4.66016 346.817 92.419 346.715 200.706 346.715C308.993 346.715 396.733 346.826 396.733 346.956Z" fill="#263238"/>
<path d="M26.1989 193.401C26.1989 193.401 32.5966 189.081 40.589 204.407C48.5814 219.734 51.6411 228.588 51.6411 228.588C51.6411 228.588 53.7458 231.797 55.9433 229.664C58.1407 227.531 61.117 221.523 64.9 222.571C68.6829 223.619 70.1479 227.995 69.4617 234.411C68.7756 240.827 67.7928 254.939 67.7093 256.21C67.6259 257.48 68.3584 259.297 70.083 258.064C71.8075 256.831 81.7192 245.612 86.7724 250.646C91.8256 255.681 86.9857 273.224 86.4943 275.152C86.0029 277.081 86.383 277.934 87.3009 278.369C88.2189 278.805 91.1951 274.744 94.1436 271.666C97.0921 268.588 101.051 265.519 103.722 268.662C106.392 271.805 107.365 284.934 95.0615 306.389L88.7103 315.958L77.1853 315.429C52.5868 312.787 42.5268 304.303 41.5625 300.288C40.5982 296.274 45.3825 294.873 49.6105 294.299C53.8385 293.724 58.8825 293.714 59.0586 292.695C59.2348 291.675 58.7805 290.887 56.9261 290.154C55.0717 289.422 38.0206 283.033 36.9266 275.996C35.8325 268.958 50.7417 267.54 52.7445 266.844C54.7472 266.149 53.6717 264.489 52.6147 263.822C51.5577 263.154 39.532 255.653 33.941 252.436C28.35 249.218 25.5962 245.602 27.0334 241.792C28.4056 238.083 35.0165 239.242 38.0392 238.713C41.0618 238.185 39.6896 234.597 39.6896 234.597C39.6896 234.597 34.3119 226.929 26.6069 211.417C18.9019 195.905 26.338 193.272 26.338 193.272" fill="#74A669"/>
<path d="M33.3848 207.113C33.4423 207.2 33.4949 207.29 33.5424 207.382L33.9782 208.207L35.6008 211.369L41.5348 223.033C46.588 232.88 53.5883 246.445 61.2376 261.437C68.887 276.43 75.9058 290.023 80.8385 299.907C83.2863 304.839 85.2612 308.845 86.6427 311.636L88.1911 314.835L88.5898 315.678C88.6733 315.864 88.7104 315.966 88.7104 315.966C88.7104 315.966 88.6455 315.882 88.5435 315.697L88.117 314.881C87.7275 314.13 87.1898 313.026 86.4944 311.71C85.0758 308.928 83.0545 304.96 80.5603 300.046C75.5906 290.199 68.5717 276.625 60.8482 261.651C53.1247 246.677 46.1893 233.056 41.2844 223.172L35.4431 211.443C34.7848 210.071 34.2656 208.995 33.8947 208.244C33.7278 207.892 33.598 207.614 33.5053 207.401C33.4515 207.311 33.4109 207.214 33.3848 207.113Z" fill="#263238"/>
<path d="M61.0699 231.148C60.925 232.169 60.7112 233.179 60.4301 234.171C59.985 236.146 59.4102 238.649 58.7704 241.431C58.1307 244.213 57.528 246.818 57.0458 248.672C56.7955 249.6 56.5822 250.332 56.4154 250.842C56.3523 251.112 56.2492 251.372 56.1094 251.612C56.2668 250.594 56.4773 249.585 56.7399 248.589L58.3439 241.32C58.9929 238.483 59.6234 235.923 60.1334 234.078C60.393 233.151 60.6155 232.419 60.7824 231.918C60.8403 231.649 60.9371 231.39 61.0699 231.148V231.148Z" fill="#263238"/>
<path d="M55.0539 251.839C55.0539 251.95 49.7504 250.597 43.2786 248.798C36.8068 246.999 31.5959 245.46 31.633 245.339C31.6701 245.219 36.9273 246.582 43.3991 248.371C49.8709 250.161 55.0817 251.719 55.0539 251.839Z" fill="#263238"/>
<path d="M69.9264 277.634C69.6518 277.712 69.3681 277.753 69.0827 277.755C68.5449 277.811 67.7568 277.866 66.7832 277.913C64.8361 278.005 62.1473 278.07 59.1617 277.987C56.1761 277.903 53.5058 277.69 51.568 277.486C50.6408 277.384 49.8156 277.282 49.2686 277.199C48.9867 277.178 48.7089 277.119 48.4434 277.023C49.4932 277.006 50.5429 277.056 51.5865 277.171C53.5336 277.301 56.2225 277.458 59.1803 277.542C62.138 277.625 64.8269 277.616 66.774 277.597C67.8245 277.542 68.8775 277.554 69.9264 277.634V277.634Z" fill="#263238"/>
<path d="M79.4923 260.113C79.1306 261.017 78.6998 261.891 78.2035 262.728C77.3505 264.313 76.1545 266.492 74.81 268.885C73.4656 271.277 72.2232 273.437 71.3052 274.985C70.8482 275.844 70.3242 276.666 69.7383 277.443C70.1 276.539 70.5309 275.665 71.0271 274.828C71.8801 273.242 73.0762 271.063 74.4206 268.671C75.765 266.279 77.0075 264.119 77.9254 262.58C78.3841 261.719 78.9079 260.894 79.4923 260.113V260.113Z" fill="#263238"/>
<path d="M95.515 281.215C95.4156 281.54 95.2754 281.852 95.0978 282.142L93.7905 284.543C92.6778 286.555 91.1109 289.328 89.3585 292.378C87.6061 295.429 85.9928 298.182 84.806 300.157C84.2497 301.085 83.7675 301.854 83.3874 302.494C83.2296 302.788 83.0366 303.062 82.8125 303.31C82.9147 302.985 83.0547 302.674 83.2297 302.383L84.5371 299.981C85.6497 297.96 87.2167 295.188 88.9691 292.137C90.7214 289.087 92.3348 286.342 93.5216 284.367L94.9402 282.031C95.1043 281.74 95.2969 281.467 95.515 281.215V281.215Z" fill="#263238"/>
<path d="M83.007 302.688C82.6569 302.763 82.2987 302.794 81.9408 302.781C81.2454 302.781 80.244 302.827 79.0108 302.837C76.5445 302.837 73.1232 302.837 69.3588 302.586C65.5944 302.336 62.1823 302.058 59.7345 301.77C58.5013 301.631 57.5092 301.492 56.8324 301.39C56.473 301.36 56.1182 301.289 55.7754 301.177C56.1332 301.144 56.4932 301.144 56.8509 301.177L59.7623 301.418C62.2194 301.631 65.6222 301.9 69.3773 302.104C73.1324 302.308 76.5445 302.419 79.0108 302.484L81.9408 302.568C82.2993 302.573 82.6564 302.613 83.007 302.688V302.688Z" fill="#263238"/>
<path d="M384.457 188.306L353.424 218.523L324.829 273.088L292.674 334.793L253.166 316.249L210.46 294.386L237.775 242.203L254.752 183.79C242.754 191.745 220.446 202.584 193.835 196.928C164.963 190.809 178.824 81.9566 178.824 81.9566L210.553 81.1406L213.742 157.884L249.578 142.048L249.634 142.178C251.794 141.251 253.686 140.323 254.687 139.813C274.52 128.993 287.537 127.686 308.817 135.279L339.516 145.479C347.406 149.187 376.492 163.512 384.457 188.306Z" fill="#6660AB"/>
<path d="M275.865 132.996C275.865 132.996 275.151 133.404 273.945 134.266C272.255 135.495 270.756 136.967 269.495 138.633C267.643 141.12 266.169 143.866 265.119 146.783C263.841 150.369 262.749 154.018 261.846 157.715L256.394 177.77C255.68 180.283 255.105 182.341 254.678 183.825C254.484 184.502 254.317 185.049 254.196 185.466C254.151 185.662 254.083 185.852 253.992 186.032C254.004 185.833 254.042 185.637 254.103 185.447C254.205 185.012 254.335 184.465 254.502 183.778C254.882 182.276 255.429 180.209 256.06 177.678C257.432 172.485 259.305 165.411 261.382 157.585C262.291 153.875 263.399 150.217 264.701 146.626C265.786 143.68 267.311 140.917 269.226 138.429C270.532 136.752 272.097 135.294 273.862 134.109C274.337 133.787 274.833 133.496 275.345 133.237C275.513 133.145 275.686 133.064 275.865 132.996V132.996Z" fill="#263238"/>
<g opacity="0.3">
<path opacity="0.3" d="M264.283 148.379C255.41 172.402 239.453 185.828 216.857 197.863C230.198 196.385 242.982 191.703 254.121 184.215" fill="black"/>
</g>
<g opacity="0.3">
<path opacity="0.3" d="M292.551 131.277C296.309 191.471 300.067 251.661 303.825 311.848L292.699 334.787L292.551 131.277Z" fill="black"/>
</g>
<path d="M327.49 193.726C327.36 193.782 326.229 190.945 324.643 187.523C323.058 184.102 321.648 181.385 321.769 181.32C322.206 181.831 322.577 182.395 322.872 182.999C323.494 184.074 324.291 185.595 325.079 187.319C325.867 189.044 326.516 190.629 326.933 191.798C327.206 192.412 327.393 193.061 327.49 193.726V193.726Z" fill="#FAFAFA"/>
<path d="M352.747 181.035C350.835 182.522 348.821 183.873 346.72 185.078C344.708 186.428 342.608 187.642 340.434 188.712C342.357 187.237 344.373 185.887 346.47 184.67C348.479 183.321 350.576 182.107 352.747 181.035V181.035Z" fill="#FAFAFA"/>
<path d="M341.787 171.892C341.466 170.27 341.298 168.622 341.287 166.968C341.131 165.318 341.131 163.658 341.287 162.008C341.619 163.631 341.787 165.284 341.787 166.94C341.949 168.587 341.949 170.245 341.787 171.892Z" fill="#FAFAFA"/>
<path d="M366.998 170.129C363.887 168.586 360.926 166.758 358.152 164.668C359.744 165.367 361.268 166.211 362.705 167.19C364.225 168.033 365.662 169.017 366.998 170.129V170.129Z" fill="#FAFAFA"/>
<path d="M328.453 220.145C329.138 217.951 329.975 215.807 330.957 213.729C331.797 211.591 332.782 209.512 333.905 207.508C333.223 209.703 332.387 211.847 331.402 213.924C330.564 216.064 329.579 218.142 328.453 220.145V220.145Z" fill="#FAFAFA"/>
<path d="M317.226 231.513C316.335 230.266 315.577 228.93 314.964 227.526C314.203 226.19 313.581 224.78 313.109 223.316C314.001 224.564 314.762 225.9 315.381 227.303C316.144 228.637 316.762 230.048 317.226 231.513Z" fill="#FAFAFA"/>
<path d="M326.619 246.819C325.105 247.474 323.497 247.884 321.854 248.034C320.234 248.347 318.575 248.397 316.939 248.182C316.939 248.043 319.118 247.941 321.789 247.561C324.459 247.181 326.582 246.671 326.619 246.819Z" fill="#FAFAFA"/>
<path d="M338.662 230.074C339.065 228.525 339.618 227.019 340.313 225.577C340.86 224.073 341.559 222.629 342.399 221.266C342.002 222.815 341.452 224.322 340.758 225.763C340.213 227.27 339.511 228.715 338.662 230.074V230.074Z" fill="#FAFAFA"/>
<path d="M309.371 265.439C309.251 265.513 307.888 263.631 306.015 261.471C304.142 259.311 302.473 257.688 302.575 257.586C305.359 259.706 307.673 262.38 309.371 265.439V265.439Z" fill="#FAFAFA"/>
<path d="M304.059 227.414C303.403 229.033 302.592 230.586 301.639 232.05C300.829 233.606 299.876 235.084 298.793 236.463C299.463 234.849 300.276 233.297 301.222 231.827C302.031 230.272 302.98 228.795 304.059 227.414V227.414Z" fill="#FAFAFA"/>
<path d="M307.841 214.367C306.085 214.155 304.35 213.789 302.658 213.273C300.927 212.908 299.232 212.386 297.596 211.715C299.353 211.921 301.088 212.288 302.779 212.809C304.511 213.17 306.206 213.692 307.841 214.367V214.367Z" fill="#FAFAFA"/>
<path d="M307.619 187.477C308.639 188.667 309.568 189.932 310.401 191.259C311.356 192.491 312.217 193.793 312.978 195.154C311.837 194.078 310.84 192.86 310.011 191.528C309.037 190.29 308.233 188.928 307.619 187.477V187.477Z" fill="#FAFAFA"/>
<path d="M299.044 186.133C297.02 188.325 294.763 190.29 292.312 191.993C293.264 190.84 294.34 189.795 295.521 188.877C296.595 187.84 297.776 186.92 299.044 186.133V186.133Z" fill="#FAFAFA"/>
<path d="M305.822 172.066C302.69 169.597 300.081 166.531 298.145 163.045C298.265 162.971 299.786 165.14 301.909 167.625C304.032 170.11 305.924 171.964 305.822 172.066Z" fill="#FAFAFA"/>
<path d="M329.538 167.742C327.862 168.512 326.122 169.132 324.337 169.597C322.601 170.212 320.814 170.671 318.996 170.969C320.675 170.206 322.415 169.586 324.198 169.114C325.934 168.501 327.721 168.042 329.538 167.742Z" fill="#FAFAFA"/>
<path d="M296.15 145.153C296.011 145.153 296.076 143.03 295.742 140.452C295.409 137.875 294.815 135.816 294.982 135.816C296.24 138.767 296.645 142.012 296.15 145.181V145.153Z" fill="#FAFAFA"/>
<path d="M275.048 212.383C274.365 212.976 273.636 213.515 272.869 213.996C271.497 214.923 269.624 216.305 267.621 217.881C265.619 219.457 263.857 220.95 262.596 222.044C261.944 222.675 261.246 223.257 260.51 223.787C261.055 223.059 261.677 222.391 262.364 221.794C263.942 220.278 265.598 218.845 267.325 217.501C269.044 216.148 270.829 214.883 272.675 213.709C273.422 213.193 274.217 212.749 275.048 212.383Z" fill="#FAFAFA"/>
<path d="M273.832 204.948C273.712 205.013 272.154 202.593 269.994 199.765C267.833 196.937 265.923 194.786 266.025 194.684C266.553 195.042 267.025 195.476 267.425 195.972C268.47 197.087 269.457 198.254 270.383 199.468C271.459 200.896 272.358 202.25 272.961 203.251C273.329 203.773 273.622 204.344 273.832 204.948V204.948Z" fill="#FAFAFA"/>
<path d="M279.479 175.637C276.612 177.586 273.57 179.266 270.393 180.653C271.784 179.614 273.267 178.704 274.825 177.936C276.3 177.025 277.859 176.255 279.479 175.637Z" fill="#FAFAFA"/>
<path d="M273.887 162.846C273.303 162.505 272.769 162.083 272.302 161.595C271.1 160.498 269.981 159.314 268.954 158.053C267.917 156.794 266.972 155.461 266.126 154.066C265.735 153.512 265.423 152.907 265.199 152.267C265.329 152.193 266.915 154.826 269.316 157.747C271.717 160.668 274.008 162.735 273.887 162.846Z" fill="#FAFAFA"/>
<path d="M283.514 162.575C283.936 161.168 284.508 159.809 285.22 158.524C285.792 157.167 286.51 155.877 287.362 154.676C286.944 156.085 286.372 157.444 285.655 158.728C285.087 160.086 284.369 161.377 283.514 162.575V162.575Z" fill="#FAFAFA"/>
<path d="M280.943 147.934C280.795 147.934 280.943 145.05 280.406 141.573C279.868 138.096 278.839 135.407 278.978 135.352C279.328 135.882 279.594 136.464 279.766 137.076C280.278 138.512 280.653 139.993 280.888 141.499C281.118 143.005 281.215 144.528 281.175 146.051C281.199 146.687 281.121 147.323 280.943 147.934V147.934Z" fill="#FAFAFA"/>
<path d="M283.281 221.784C283.219 220.879 283.219 219.972 283.281 219.067C283.346 217.398 283.392 215.089 283.327 212.577C283.262 210.064 283.095 207.727 282.956 206.086C282.83 205.19 282.775 204.284 282.789 203.379C283.046 204.25 283.217 205.145 283.299 206.049C283.588 208.22 283.758 210.406 283.809 212.595C283.868 214.782 283.806 216.97 283.624 219.15C283.601 220.038 283.486 220.92 283.281 221.784V221.784Z" fill="#FAFAFA"/>
<path d="M281.909 244.865C280.614 243.673 279.242 242.567 277.801 241.555C276.28 240.676 274.704 239.895 273.082 239.219C274.859 239.52 276.558 240.175 278.077 241.145C279.597 242.115 280.906 243.38 281.927 244.865H281.909Z" fill="#FAFAFA"/>
<path d="M293.48 259.141C291.438 260.471 289.31 261.663 287.11 262.71C284.986 263.903 282.784 264.95 280.518 265.844C282.562 264.522 284.69 263.333 286.887 262.284C289.012 261.09 291.215 260.04 293.48 259.141V259.141Z" fill="#FAFAFA"/>
<path d="M260.861 265.474C259.169 263.591 257.602 261.6 256.169 259.512C254.604 257.52 253.167 255.429 251.867 253.254C253.555 255.144 255.122 257.138 256.559 259.225C258.12 261.218 259.557 263.305 260.861 265.474V265.474Z" fill="#FAFAFA"/>
<path d="M250.829 239.105C250.669 238.485 250.598 237.845 250.616 237.204C250.57 236.027 250.551 234.423 250.616 232.568C250.681 230.714 250.867 229.147 251.024 227.933C251.068 227.3 251.196 226.677 251.404 226.078C251.543 226.078 251.265 228.99 251.098 232.568C250.931 236.147 250.922 239.105 250.829 239.105Z" fill="#FAFAFA"/>
<path d="M239.906 284.12C238.007 282.849 236.198 281.449 234.492 279.929C232.684 278.53 230.977 277.005 229.383 275.367C231.283 276.637 233.092 278.037 234.798 279.558C236.605 280.957 238.312 282.481 239.906 284.12V284.12Z" fill="#FAFAFA"/>
<path d="M246.434 282.739C246.134 280.328 245.995 277.899 246.016 275.47C245.882 273.045 245.907 270.613 246.091 268.191C246.39 270.603 246.53 273.031 246.508 275.461C246.642 277.886 246.617 280.317 246.434 282.739Z" fill="#FAFAFA"/>
<path d="M259.323 310.658C259.323 310.732 258.164 310.278 256.3 309.675C251.446 308.113 246.355 307.42 241.261 307.626C239.304 307.7 238.099 307.84 238.09 307.756C238.357 307.651 238.638 307.586 238.924 307.561C239.462 307.459 240.259 307.367 241.242 307.283C246.383 306.895 251.547 307.603 256.393 309.36C257.13 309.627 257.852 309.936 258.553 310.287C258.827 310.371 259.087 310.496 259.323 310.658V310.658Z" fill="#FAFAFA"/>
<path d="M269.939 315.758C270.693 316.151 271.396 316.634 272.035 317.195C275.243 319.735 278.146 322.638 280.686 325.846C281.247 326.484 281.729 327.188 282.123 327.941C281.51 327.366 280.939 326.746 280.417 326.087C279.397 324.909 277.95 323.305 276.272 321.627C274.594 319.949 272.99 318.512 271.812 317.482C271.146 316.955 270.52 316.378 269.939 315.758Z" fill="#FAFAFA"/>
<path d="M274.565 267.449C273.623 265.713 272.82 263.906 272.163 262.044C271.363 260.245 270.709 258.384 270.207 256.48C271.148 258.216 271.951 260.024 272.608 261.886C273.409 263.685 274.063 265.545 274.565 267.449V267.449Z" fill="#FAFAFA"/>
<path d="M237.32 173.477C236.925 174.059 236.447 174.581 235.901 175.025C234.665 176.175 233.338 177.223 231.933 178.159C230.526 179.102 229.044 179.927 227.501 180.625C226.88 180.956 226.215 181.196 225.526 181.339C225.471 181.2 228.41 179.939 231.664 177.76C234.919 175.581 237.218 173.365 237.32 173.477Z" fill="#FAFAFA"/>
<path d="M239.703 163.65C239.511 160.894 239.642 158.125 240.092 155.398C240.284 158.155 240.154 160.924 239.703 163.65Z" fill="#FAFAFA"/>
<path d="M221.206 171.903C219.545 171.409 217.934 170.76 216.394 169.965C214.778 169.315 213.227 168.517 211.758 167.582C213.417 168.081 215.028 168.73 216.57 169.52C218.185 170.17 219.737 170.968 221.206 171.903V171.903Z" fill="#FAFAFA"/>
<path d="M254.205 159.327C254.097 157.617 254.15 155.9 254.362 154.2C254.406 152.486 254.617 150.782 254.993 149.109C255.101 150.819 255.051 152.536 254.844 154.237C254.793 155.95 254.578 157.654 254.205 159.327Z" fill="#FAFAFA"/>
<path d="M211.378 191.558C209.499 191.085 207.713 190.301 206.093 189.241C204.388 188.316 202.854 187.105 201.559 185.662C201.651 185.55 203.626 187.21 206.334 188.833C209.041 190.455 211.433 191.419 211.378 191.558Z" fill="#FAFAFA"/>
<path d="M197.627 172.691C196.433 174.336 195.112 175.887 193.677 177.327C192.357 178.888 190.919 180.344 189.375 181.685C191.886 178.461 194.645 175.438 197.627 172.645V172.691Z" fill="#FAFAFA"/>
<path d="M196.45 155.787C194.871 155.253 193.403 154.433 192.12 153.367C190.747 152.43 189.551 151.255 188.588 149.899C188.69 149.797 190.248 151.364 192.417 152.978C194.587 154.591 196.515 155.666 196.45 155.787Z" fill="#FAFAFA"/>
<path d="M187.78 159.328C187.255 160.321 186.589 161.232 185.805 162.036C185.139 162.942 184.349 163.75 183.459 164.437C184.647 162.536 186.102 160.815 187.78 159.328V159.328Z" fill="#FAFAFA"/>
<path d="M206.325 127.953C205.245 129.647 204.033 131.253 202.699 132.756C201.493 134.365 200.156 135.872 198.703 137.262C199.784 135.566 200.996 133.957 202.328 132.45C203.539 130.848 204.876 129.344 206.325 127.953V127.953Z" fill="#FAFAFA"/>
<path d="M190.441 131.525C189.011 130.256 187.69 128.869 186.491 127.38C185.177 125.999 183.98 124.51 182.912 122.93C184.343 124.194 185.665 125.577 186.862 127.065C188.177 128.449 189.374 129.941 190.441 131.525V131.525Z" fill="#FAFAFA"/>
<path d="M198.397 111.382C197.333 110.008 196.402 108.537 195.615 106.988C194.697 105.515 193.912 103.964 193.27 102.352C194.332 103.73 195.263 105.204 196.051 106.756C196.971 108.224 197.756 109.773 198.397 111.382V111.382Z" fill="#FAFAFA"/>
<path d="M197.979 98.3957C197.868 98.303 199.258 96.5413 200.362 94.0472C201.465 91.553 201.864 89.3556 202.012 89.4112C201.781 92.7991 200.352 95.9941 197.979 98.4235V98.3957Z" fill="#FAFAFA"/>
<path d="M182.689 97.6244C182.545 95.6643 182.939 93.7022 183.83 91.95C184.405 90.6926 185.168 89.5296 186.092 88.5008C186.446 88.0478 186.883 87.6669 187.381 87.3789C186.177 88.8532 185.133 90.4507 184.265 92.1447C183.545 93.9094 183.016 95.7466 182.689 97.6244V97.6244Z" fill="#FAFAFA"/>
<path d="M316.372 75.5668C315.946 71.7236 315.9 67.8478 316.233 63.9954C316.579 60.1197 318.063 56.4326 320.498 53.3976C323.03 50.4677 326.924 48.5855 330.753 49.0769C333.127 49.3829 335.389 50.5511 337.753 50.4862C340.535 50.4028 342.918 48.6967 345.431 47.5563C349.392 45.7581 353.829 45.2929 358.078 46.2304C360.317 46.6525 362.39 47.7005 364.058 49.253C364.88 50.0364 365.489 51.0159 365.828 52.0993C366.167 53.1828 366.224 54.3347 365.996 55.4467C368.797 55.3237 371.603 55.57 374.34 56.1792C377.082 56.7968 379.474 58.4602 381.007 60.8151C382.389 63.2351 382.296 66.6008 380.312 68.5572C381.618 68.3822 382.943 68.6963 384.031 69.4391C385.12 70.182 385.895 71.3011 386.209 72.5812C386.455 73.8767 386.324 75.2157 385.83 76.4387C385.337 77.6617 384.503 78.7172 383.427 79.4795C380.834 81.0671 377.763 81.6846 374.758 81.2226C372.18 80.7312 369.195 80.008 367.127 78.4411" fill="#263238"/>
<path d="M314.36 162.907C319.475 164.221 324.902 163.459 329.458 160.788C334.014 158.117 337.329 153.753 338.68 148.647C340.247 142.704 341.526 137.725 341.526 137.725C341.526 137.725 357.02 140.386 362.147 125.671C367.275 110.957 376.055 76.3355 376.055 76.3355C368.89 69.9282 360.145 65.5492 350.722 63.6503C341.3 61.7515 331.541 62.4016 322.454 65.5337L319.672 66.4609L299.988 138.161C299.275 140.73 299.083 143.415 299.423 146.059C299.762 148.704 300.627 151.253 301.966 153.559C303.305 155.864 305.091 157.879 307.219 159.484C309.347 161.089 311.775 162.253 314.36 162.907V162.907Z" fill="#B78876"/>
<path d="M341.62 137.521C334.78 135.366 328.735 131.225 324.254 125.625C324.254 125.625 325.237 137.743 340.378 141.387L341.62 137.521Z" fill="#AA6550"/>
<path d="M316.419 82.3907C316.205 82.196 307.304 76.0023 304.254 86.1829C301.203 96.3635 312.042 97.3092 312.144 97.0404C312.246 96.7715 316.419 82.3907 316.419 82.3907Z" fill="#B78876"/>
<path d="M310.169 92.2457C310.169 92.2457 309.956 92.3199 309.613 92.3663C309.147 92.4049 308.683 92.2658 308.315 91.9769C307.388 91.2629 306.97 89.2787 307.471 87.4336C307.703 86.5524 308.131 85.7348 308.723 85.0415C308.918 84.759 309.178 84.5274 309.482 84.3661C309.785 84.2047 310.122 84.1184 310.466 84.1143C310.691 84.1121 310.909 84.1917 311.08 84.3384C311.25 84.4851 311.362 84.6889 311.393 84.9117C311.449 85.2362 311.319 85.4216 311.393 85.4587C311.467 85.4958 311.662 85.3474 311.699 84.9024C311.719 84.6361 311.647 84.371 311.495 84.1514C311.386 84.001 311.247 83.8743 311.088 83.7787C310.929 83.6831 310.752 83.6207 310.568 83.595C310.125 83.5505 309.678 83.6209 309.27 83.7996C308.863 83.9782 308.508 84.2591 308.241 84.6149C307.541 85.3644 307.038 86.2754 306.776 87.2667C306.219 89.3344 306.692 91.5689 308.037 92.4405C308.287 92.6011 308.57 92.7036 308.865 92.7405C309.161 92.7774 309.46 92.7477 309.743 92.6537C310.104 92.4868 310.225 92.2828 310.169 92.2457Z" fill="#AA6550"/>
<path d="M363.585 97.5846C363.404 98.1422 363.011 98.606 362.49 98.8751C361.969 99.1442 361.363 99.1969 360.804 99.0217C360.529 98.9528 360.271 98.8298 360.045 98.6598C359.819 98.4898 359.629 98.2763 359.486 98.0318C359.344 97.7874 359.252 97.5169 359.215 97.2363C359.179 96.9556 359.198 96.6706 359.274 96.3978C359.453 95.849 359.838 95.3913 360.349 95.1214C360.859 94.8515 361.454 94.7905 362.009 94.9514C362.288 95.0162 362.551 95.1365 362.782 95.3052C363.014 95.4739 363.209 95.6875 363.356 95.9333C363.503 96.1791 363.599 96.4519 363.639 96.7356C363.678 97.0193 363.66 97.3081 363.585 97.5846V97.5846Z" fill="#263238"/>
<path d="M366.329 96.1609C365.977 96.3464 364.781 94.6403 362.519 93.88C360.256 93.1197 358.207 93.7039 358.059 93.3423C357.975 93.1846 358.411 92.7767 359.311 92.4893C360.526 92.1307 361.823 92.1631 363.019 92.582C364.198 92.9722 365.222 93.7292 365.94 94.7423C366.431 95.5119 366.496 96.0868 366.329 96.1609Z" fill="#263238"/>
<path d="M341.332 90.1244C341.153 90.6732 340.767 91.1309 340.257 91.4007C339.746 91.6706 339.151 91.7316 338.597 91.5708C338.322 91.5019 338.064 91.3788 337.838 91.2088C337.612 91.0388 337.422 90.8253 337.279 90.5808C337.137 90.3364 337.044 90.0659 337.008 89.7853C336.971 89.5047 336.991 89.2196 337.067 88.9468C337.244 88.3966 337.629 87.9374 338.14 87.6672C338.651 87.397 339.247 87.3371 339.802 87.5004C340.076 87.5693 340.334 87.6924 340.56 87.8624C340.787 88.0324 340.977 88.2459 341.119 88.4903C341.262 88.7348 341.354 89.0053 341.39 89.2859C341.427 89.5665 341.407 89.8516 341.332 90.1244Z" fill="#263238"/>
<path d="M343.946 89.1111C343.594 89.3058 342.389 87.5905 340.126 86.8302C337.864 86.0699 335.824 86.654 335.666 86.2924C335.592 86.1348 336.019 85.7268 336.927 85.4487C338.142 85.0896 339.439 85.1188 340.636 85.5321C341.816 85.9252 342.842 86.6814 343.566 87.6925C344.039 88.4621 344.113 89.0369 343.946 89.1111Z" fill="#263238"/>
<path d="M346.524 108.666C346.524 108.536 348.045 108.759 350.418 109.232C351.021 109.371 351.605 109.436 351.837 109.074C352.085 108.489 352.149 107.842 352.022 107.22C351.948 105.634 351.874 103.974 351.791 102.241C351.522 95.1846 351.531 89.4546 351.791 89.4453C352.05 89.4361 352.523 95.1568 352.792 102.213C352.848 103.947 352.894 105.606 352.94 107.192C353.074 108.009 352.913 108.847 352.486 109.556C352.334 109.732 352.144 109.871 351.93 109.963C351.717 110.054 351.485 110.096 351.253 110.085C350.902 110.067 350.556 110.002 350.224 109.89C347.915 109.25 346.487 108.787 346.524 108.666Z" fill="#263238"/>
<path d="M339.338 107.991C339.709 108.093 338.893 110.55 340.414 112.998C341.934 115.446 344.632 116.058 344.54 116.401C344.54 116.568 343.789 116.688 342.685 116.345C341.24 115.883 340.005 114.924 339.199 113.638C338.418 112.407 338.152 110.919 338.457 109.493C338.698 108.436 339.171 107.917 339.338 107.991Z" fill="#263238"/>
<path d="M366.83 91.9065C366.264 92.2866 364.882 91.2296 363.019 90.5713C361.155 89.913 359.44 89.7554 359.254 89.0971C359.18 88.7818 359.607 88.3461 360.46 88.0957C361.588 87.8245 362.771 87.8948 363.859 88.2976C364.947 88.7004 365.891 89.4176 366.57 90.3581C367.052 91.1091 367.089 91.7118 366.83 91.9065Z" fill="#263238"/>
<path d="M343.742 79.9231C343.399 80.1085 342.815 79.8025 342.157 79.4038C341.305 78.895 340.411 78.4578 339.487 78.0965C338.55 77.7591 337.585 77.5047 336.603 77.3362C335.815 77.1786 335.203 77.058 335.064 76.6872C334.925 76.3163 335.37 75.76 336.371 75.3891C337.704 74.9682 339.139 75.0041 340.449 75.4911C341.759 75.9782 342.869 76.8886 343.603 78.078C344.113 79.0515 344.067 79.7747 343.742 79.9231Z" fill="#263238"/>
<path d="M375.287 81.1464C367.543 80.6958 360.145 77.789 354.165 72.848C347.508 67.3961 339.172 63.5761 336.901 64.6516C334.629 65.7272 332.469 73.3672 324.514 73.9236C324.514 73.9236 321.676 88.805 315.909 86.9043C310.142 85.0035 319.015 63.0105 319.015 63.0105L335.009 59.2461L351.393 59.8488L366.107 63.1867L378.838 70.5022L375.287 81.1464Z" fill="#263238"/>
<path d="M292.673 22.7812H84.4902V346.965H292.673V22.7812Z" fill="#FAFAFA"/>
<path d="M292.673 346.956C292.673 344.963 292.581 213.301 292.451 22.7723L292.673 22.9948H84.5184L84.7688 22.7538C84.7688 145.403 84.7688 258.335 84.7131 346.937L84.5184 346.743L292.701 346.937L84.5184 347.123H84.333V346.956C84.333 258.353 84.333 145.421 84.2773 22.7723V22.5312H84.5462H292.701H292.924V22.7538C292.766 213.31 292.673 344.972 292.673 346.956Z" fill="#263238"/>
<path d="M140.289 94.9731H113.65C112.767 94.9731 111.919 94.6227 111.293 93.9987C110.668 93.3748 110.315 92.5281 110.312 91.6445V54.77C110.315 53.8864 110.668 53.0397 111.293 52.4158C111.919 51.7918 112.767 51.4414 113.65 51.4414H130.544L143.617 64.9135V91.6445C143.617 92.5273 143.267 93.3739 142.642 93.9982C142.018 94.6224 141.171 94.9731 140.289 94.9731Z" fill="#F4A047"/>
<path d="M130.545 51.4414V61.8167C130.547 62.6373 130.874 63.4235 131.455 64.0038C132.035 64.584 132.821 64.9111 133.642 64.9135H143.618L130.545 51.4414Z" fill="#F4C491"/>
<g opacity="0.2">
<path opacity="0.2" d="M130.684 62.7227C130.688 63.5079 130.96 64.2682 131.456 64.8771C131.952 65.486 132.641 65.9069 133.41 66.0698L133.743 66.144C135.041 66.3758 143.618 67.8964 143.618 67.7017V64.9201H133.641C133.641 64.9201 131.156 64.8274 130.684 62.7227Z" fill="black"/>
</g>
<path d="M128.309 61.3793C126.263 61.6176 124.201 61.6982 122.143 61.6204C120.088 61.6984 118.029 61.6178 115.986 61.3793C118.029 61.1407 120.088 61.0601 122.143 61.1382C124.201 61.0603 126.263 61.1409 128.309 61.3793V61.3793Z" fill="#FAFAFA"/>
<path d="M136.264 67.2606C136.264 67.3904 131.73 67.5017 126.13 67.5017C120.53 67.5017 115.986 67.3904 115.986 67.2606C115.986 67.1308 120.53 67.0195 126.13 67.0195C131.73 67.0195 136.264 67.1215 136.264 67.2606Z" fill="#FAFAFA"/>
<path d="M138.091 72.1551C138.091 72.2942 133.149 72.3962 127.038 72.3962C120.928 72.3962 115.986 72.2942 115.986 72.1551C115.986 72.016 120.938 71.9141 127.038 71.9141C133.139 71.9141 138.091 72.0253 138.091 72.1551Z" fill="#FAFAFA"/>
<path d="M138.091 76.7801C138.091 76.9099 133.149 77.0212 127.038 77.0212C120.928 77.0212 115.986 76.9099 115.986 76.7801C115.986 76.6503 120.938 76.5391 127.038 76.5391C133.139 76.5391 138.091 76.641 138.091 76.7801Z" fill="#FAFAFA"/>
<path d="M138.091 81.3973C138.091 81.5364 133.149 81.6384 127.038 81.6384C120.928 81.6384 115.986 81.5364 115.986 81.3973C115.986 81.2582 120.938 81.1562 127.038 81.1562C133.139 81.1562 138.091 81.2675 138.091 81.3973Z" fill="#FAFAFA"/>
<path d="M138.091 86.0262C138.091 86.156 133.149 86.2673 127.038 86.2673C120.928 86.2673 115.986 86.156 115.986 86.0262C115.986 85.8964 120.938 85.7852 127.038 85.7852C133.139 85.7852 138.091 85.8871 138.091 86.0262Z" fill="#FAFAFA"/>
<path d="M152.938 70.3832H150.156V69.3633H156.934V70.3832H154.152V77.5597H152.993L152.938 70.3832Z" fill="#263238"/>
<path d="M164.129 76.5398V77.5597H158.186V69.3633H163.962V70.3832H159.326V72.8959H163.433V73.8973H159.326V76.5398H164.129Z" fill="#263238"/>
<path d="M171.497 77.5601L169.726 75.0382C169.557 75.0479 169.386 75.0479 169.216 75.0382H167.195V77.5323H166.018V69.3359H169.235C171.367 69.3359 172.647 70.4115 172.647 72.1917C172.675 72.7611 172.514 73.3239 172.189 73.792C171.863 74.26 171.392 74.607 170.848 74.7786L172.795 77.5601H171.497ZM171.497 72.2195C171.497 71.0512 170.718 70.3651 169.216 70.3651H167.195V74.0739H169.179C170.681 74.0739 171.46 73.4341 171.46 72.2195H171.497Z" fill="#263238"/>
<path d="M182.125 77.5572V71.5768L179.158 76.5466H178.621L175.663 71.6139V77.5479H174.541V69.3516H175.468L178.88 75.1094L182.246 69.3516H183.173V77.5479L182.125 77.5572Z" fill="#263238"/>
<path d="M184.998 76.6211L185.425 75.6939C186.191 76.3104 187.149 76.6385 188.132 76.6211C189.551 76.6211 190.153 76.0648 190.153 75.3509C190.153 73.3481 185.193 74.6184 185.193 71.5772C185.193 70.3069 186.176 69.2314 188.327 69.2314C189.257 69.2132 190.172 69.4678 190.96 69.9639L190.58 70.891C189.906 70.4638 189.125 70.2356 188.327 70.2327C186.936 70.2327 186.342 70.8169 186.342 71.5308C186.342 73.5243 191.303 72.2726 191.303 75.2396C191.303 76.4913 190.292 77.5668 188.132 77.5668C187.01 77.6221 185.903 77.288 184.998 76.6211V76.6211Z" fill="#263238"/>
<path d="M195.456 73.4349C195.423 72.5666 195.65 71.7083 196.108 70.97C196.566 70.2318 197.235 69.6473 198.028 69.2918C198.82 68.9362 199.701 68.8257 200.557 68.9746C201.413 69.1234 202.205 69.5247 202.832 70.127C203.458 70.7292 203.89 71.505 204.072 72.3545C204.254 73.2041 204.178 74.0887 203.854 74.8948C203.529 75.7008 202.971 76.3915 202.252 76.8781C201.532 77.3648 200.683 77.6251 199.814 77.6258C199.249 77.6523 198.684 77.5632 198.155 77.3642C197.625 77.1651 197.141 76.8601 196.734 76.4679C196.326 76.0757 196.002 75.6044 195.783 75.0829C195.563 74.5615 195.452 74.0007 195.456 73.4349V73.4349ZM202.985 73.4349C202.991 72.8043 202.809 72.1864 202.462 71.6595C202.116 71.1327 201.62 70.7207 201.039 70.476C200.458 70.2313 199.817 70.1649 199.198 70.2852C198.579 70.4055 198.01 70.7071 197.563 71.1517C197.116 71.5963 196.811 72.1637 196.687 72.782C196.563 73.4003 196.625 74.0414 196.867 74.624C197.108 75.2066 197.517 75.7043 198.042 76.0539C198.567 76.4034 199.184 76.5891 199.814 76.5873C200.233 76.6014 200.65 76.5296 201.04 76.3764C201.43 76.2232 201.784 75.9918 202.081 75.6965C202.378 75.4012 202.612 75.0482 202.767 74.6592C202.923 74.2703 202.997 73.8536 202.985 73.4349V73.4349Z" fill="#263238"/>
<path d="M207.121 70.3832V73.2389H211.229V74.2496H207.121V77.5597H205.953V69.3633H211.73V70.3832H207.121Z" fill="#263238"/>
<path d="M215.781 76.621L216.217 75.6938C216.98 76.3089 217.935 76.637 218.915 76.621C220.334 76.621 220.946 76.0646 220.946 75.3507C220.946 73.348 215.985 74.6182 215.985 71.577C215.985 70.3068 216.968 69.2312 219.119 69.2312C220.049 69.2147 220.964 69.4692 221.752 69.9637L221.363 70.8909C220.692 70.4649 219.914 70.2367 219.119 70.2326C217.728 70.2326 217.126 70.8167 217.126 71.5307C217.126 73.5241 222.086 72.2724 222.086 75.2394C222.086 76.4911 221.085 77.5667 218.915 77.5667C217.793 77.6204 216.686 77.2865 215.781 76.621Z" fill="#263238"/>
<path d="M229.744 76.5398V77.5597H223.801V69.3633H229.577V70.3832H224.941V72.8959H229.049V73.8973H224.941V76.5398H229.744Z" fill="#263238"/>
<path d="M237.117 77.5601L235.355 75.0382C235.182 75.0476 235.009 75.0476 234.836 75.0382H232.815V77.5323H231.646V69.3359H234.836C236.969 69.3359 238.257 70.4115 238.257 72.1917C238.285 72.7623 238.123 73.326 237.796 73.7942C237.468 74.2624 236.995 74.6087 236.449 74.7786L238.396 77.5601H237.117ZM237.117 72.2195C237.117 71.0512 236.338 70.3651 234.836 70.3651H232.852V74.0739H234.836C236.301 74.0739 237.08 73.4341 237.08 72.2195H237.117Z" fill="#263238"/>
<path d="M247.261 69.3633L243.673 77.5597H242.486L238.879 69.3633H240.149L243.098 76.0947L246.065 69.3633H247.261Z" fill="#263238"/>
<path d="M248.307 69.3633H249.475V77.5597H248.307V69.3633Z" fill="#263238"/>
<path d="M251.265 73.4338C251.258 72.8688 251.366 72.3085 251.584 71.787C251.801 71.2656 252.123 70.7942 252.53 70.4017C252.936 70.0092 253.418 69.7039 253.947 69.5046C254.476 69.3054 255.039 69.2163 255.604 69.2429C256.185 69.2197 256.764 69.322 257.301 69.5428C257.839 69.7636 258.322 70.0977 258.719 70.5224L257.959 71.2549C257.662 70.9454 257.302 70.7026 256.904 70.5427C256.506 70.3829 256.079 70.3096 255.65 70.3277C255.128 70.3298 254.615 70.4615 254.157 70.711C253.698 70.9604 253.309 71.3197 253.023 71.7568C252.738 72.1938 252.566 72.6948 252.522 73.2149C252.478 73.735 252.564 74.2578 252.772 74.7365C252.98 75.2152 253.303 75.6348 253.714 75.9575C254.124 76.2803 254.608 76.4962 255.122 76.5858C255.636 76.6754 256.164 76.6359 256.66 76.4709C257.155 76.3059 257.601 76.0206 257.959 75.6405L258.719 76.373C258.322 76.7996 257.837 77.1355 257.297 77.3579C256.758 77.5803 256.177 77.6839 255.595 77.6618C255.028 77.6873 254.462 77.5962 253.932 77.3941C253.402 77.192 252.919 76.8831 252.513 76.4868C252.107 76.0904 251.787 75.6149 251.572 75.0898C251.357 74.5646 251.253 74.001 251.265 73.4338V73.4338Z" fill="#263238"/>
<path d="M266.342 76.5398V77.5597H260.398V69.3633H266.175V70.3832H261.539V72.8959H265.665V73.8973H261.557V76.5398H266.342Z" fill="#263238"/>
<path d="M160.288 85.9688L158.1 92.4591H157.126L155.328 87.2854L153.538 92.4962H152.546L150.367 86.0058H151.294L153.056 91.3186L154.91 86.0058H155.773L157.571 91.3465L159.37 86.0058L160.288 85.9688Z" fill="#E0E0E0"/>
<path d="M165.37 90.3273H161.355C161.415 90.7517 161.635 91.1375 161.969 91.4061C162.303 91.6747 162.726 91.8062 163.154 91.7737C163.419 91.782 163.683 91.7333 163.928 91.631C164.172 91.5286 164.392 91.3749 164.573 91.1803L165.073 91.7551C164.825 92.0226 164.521 92.2326 164.183 92.3703C163.845 92.508 163.481 92.5702 163.117 92.5525C162.773 92.5786 162.427 92.5322 162.103 92.4164C161.778 92.3007 161.481 92.118 161.231 91.8804C160.981 91.6427 160.784 91.3553 160.652 91.0367C160.52 90.718 160.456 90.3753 160.465 90.0306C160.451 89.6995 160.505 89.3692 160.624 89.0599C160.743 88.7506 160.924 88.4691 161.156 88.2326C161.388 87.9962 161.666 87.81 161.973 87.6854C162.28 87.5609 162.609 87.5007 162.941 87.5086C163.273 87.5001 163.604 87.5611 163.911 87.6876C164.219 87.8141 164.497 88.0034 164.727 88.2433C164.958 88.4833 165.135 88.7686 165.249 89.0811C165.363 89.3937 165.41 89.7265 165.388 90.0584C165.388 90.1233 165.379 90.2438 165.37 90.3273ZM161.355 89.6875H164.526C164.484 89.2966 164.299 88.935 164.006 88.6724C163.713 88.4097 163.334 88.2644 162.941 88.2644C162.547 88.2644 162.168 88.4097 161.875 88.6724C161.583 88.935 161.398 89.2966 161.355 89.6875V89.6875Z" fill="#E0E0E0"/>
<path d="M166.631 85.582H167.558V92.4989H166.631V85.582Z" fill="#E0E0E0"/>
<path d="M168.772 90.0337C168.765 89.6927 168.829 89.3539 168.959 89.0386C169.089 88.7234 169.283 88.4384 169.528 88.2016C169.774 87.9648 170.066 87.7813 170.386 87.6626C170.705 87.5439 171.046 87.4925 171.387 87.5118C171.786 87.4899 172.184 87.5766 172.539 87.7627C172.893 87.9488 173.19 88.2273 173.399 88.5688L172.713 89.0045C172.57 88.7816 172.372 88.5995 172.138 88.476C171.904 88.3525 171.642 88.2918 171.377 88.2999C170.938 88.332 170.528 88.5291 170.228 88.8516C169.928 89.174 169.761 89.598 169.761 90.0384C169.761 90.4787 169.928 90.9027 170.228 91.2252C170.528 91.5477 170.938 91.7448 171.377 91.7768C171.642 91.7849 171.904 91.7242 172.138 91.6007C172.372 91.4772 172.57 91.2951 172.713 91.0722L173.399 91.4987C173.19 91.8401 172.893 92.1187 172.539 92.3048C172.184 92.4909 171.786 92.5776 171.387 92.5557C171.046 92.5749 170.705 92.5236 170.386 92.4049C170.066 92.2862 169.774 92.1026 169.528 91.8658C169.283 91.6291 169.089 91.3441 168.959 91.0288C168.829 90.7135 168.765 90.3747 168.772 90.0337Z" fill="#E0E0E0"/>
<path d="M174.02 90.0326C174.011 89.5232 174.154 89.0225 174.43 88.5943C174.706 88.1661 175.103 87.8297 175.571 87.628C176.039 87.4262 176.556 87.3681 177.057 87.4612C177.558 87.5542 178.02 87.7942 178.384 88.1505C178.748 88.5069 178.998 88.9635 179.102 89.4623C179.206 89.9611 179.16 90.4795 178.968 90.9517C178.777 91.4239 178.449 91.8284 178.027 92.1138C177.605 92.3992 177.107 92.5527 176.598 92.5546C176.26 92.5699 175.923 92.5157 175.607 92.3951C175.291 92.2745 175.003 92.0902 174.761 91.8537C174.519 91.6172 174.329 91.3334 174.201 91.0202C174.074 90.7069 174.012 90.3707 174.02 90.0326V90.0326ZM178.257 90.0326C178.243 89.7057 178.133 89.3903 177.94 89.1256C177.748 88.8608 177.482 88.6585 177.175 88.5438C176.869 88.4291 176.535 88.407 176.216 88.4803C175.898 88.5536 175.607 88.719 175.381 88.956C175.156 89.193 175.005 89.4911 174.947 89.8133C174.89 90.1354 174.928 90.4674 175.058 90.7679C175.187 91.0684 175.402 91.3241 175.676 91.5033C175.95 91.6825 176.271 91.7773 176.598 91.7758C176.825 91.7816 177.05 91.7398 177.26 91.6531C177.469 91.5665 177.658 91.4368 177.815 91.2726C177.971 91.1083 178.091 90.9131 178.167 90.6996C178.244 90.486 178.274 90.2588 178.257 90.0326Z" fill="#E0E0E0"/>
<path d="M188.605 89.6623V92.4995H187.677V89.7643C187.677 88.7907 187.204 88.3179 186.398 88.3179C185.591 88.3179 184.914 88.8834 184.914 89.959V92.4995H183.987V89.7643C183.987 88.7907 183.514 88.3179 182.708 88.3179C181.901 88.3179 181.224 88.8834 181.224 89.959V92.4995H180.297V87.5575H181.289V88.2993C181.488 88.039 181.747 87.8312 182.044 87.6938C182.342 87.5565 182.668 87.4938 182.995 87.5112C183.339 87.4912 183.681 87.5674 183.984 87.7311C184.287 87.8949 184.539 88.1398 184.71 88.4384C184.926 88.1389 185.212 87.8975 185.544 87.7357C185.876 87.5739 186.242 87.4968 186.611 87.5112C186.893 87.4861 187.177 87.526 187.441 87.6277C187.705 87.7293 187.943 87.8902 188.135 88.0978C188.328 88.3055 188.47 88.5544 188.551 88.8256C188.633 89.0968 188.651 89.383 188.605 89.6623Z" fill="#E0E0E0"/>
<path d="M194.733 90.3273H190.728C190.784 90.7519 191 91.1389 191.333 91.4082C191.667 91.6774 192.09 91.8083 192.517 91.7737C192.784 91.7834 193.05 91.7353 193.296 91.6329C193.542 91.5305 193.764 91.3761 193.945 91.1803L194.437 91.7552C194.072 92.1331 193.605 92.3964 193.093 92.5129C192.581 92.6294 192.046 92.5939 191.554 92.4108C191.062 92.2277 190.634 91.905 190.322 91.4822C190.011 91.0594 189.83 90.5549 189.801 90.0306C189.788 89.6991 189.843 89.3685 189.963 89.0593C190.083 88.75 190.265 88.4685 190.498 88.2322C190.73 87.9959 191.009 87.8098 191.317 87.6854C191.624 87.5609 191.954 87.5008 192.286 87.5086C192.618 87.5 192.948 87.561 193.255 87.6876C193.562 87.8142 193.84 88.0036 194.069 88.2437C194.299 88.4839 194.476 88.7693 194.588 89.0818C194.701 89.3943 194.747 89.727 194.724 90.0584C194.752 90.1233 194.743 90.2438 194.733 90.3273ZM190.728 89.6875H193.899C193.856 89.2966 193.671 88.9351 193.379 88.6724C193.086 88.4098 192.707 88.2645 192.313 88.2645C191.92 88.2645 191.541 88.4098 191.248 88.6724C190.955 88.9351 190.77 89.2966 190.728 89.6875V89.6875Z" fill="#E0E0E0"/>
<path d="M195.791 91.978C195.791 91.8984 195.807 91.8197 195.838 91.7465C195.869 91.6733 195.914 91.607 195.971 91.5517C196.028 91.4963 196.096 91.453 196.17 91.4243C196.244 91.3956 196.323 91.3821 196.403 91.3845C196.56 91.3845 196.711 91.4471 196.823 91.5584C196.934 91.6696 196.996 91.8206 196.996 91.978C196.996 92.1353 196.934 92.2863 196.823 92.3975C196.711 92.5088 196.56 92.5714 196.403 92.5714C196.323 92.5738 196.244 92.5603 196.17 92.5316C196.096 92.5029 196.028 92.4596 195.971 92.4042C195.914 92.3489 195.869 92.2826 195.838 92.2094C195.807 92.1362 195.791 92.0575 195.791 91.978V91.978ZM195.874 85.9883H196.931L196.755 90.4574H196.041L195.874 85.9883Z" fill="#E0E0E0"/>
<path d="M279.314 42.7344H278.22C277.538 42.7344 276.986 43.2865 276.986 43.9675V313.697C276.986 314.378 277.538 314.93 278.22 314.93H279.314C279.995 314.93 280.547 314.378 280.547 313.697V43.9675C280.547 43.2865 279.995 42.7344 279.314 42.7344Z" fill="#E0E0E0"/>
<path d="M279.314 42.7344H278.22C277.538 42.7344 276.986 43.2865 276.986 43.9675V181.832C276.986 182.513 277.538 183.065 278.22 183.065H279.314C279.995 183.065 280.547 182.513 280.547 181.832V43.9675C280.547 43.2865 279.995 42.7344 279.314 42.7344Z" fill="#6660AB"/>
<path d="M117.083 123.984V130.475H116.156V124.8H114.682V123.984H117.083Z" fill="#263238"/>
<path d="M118.491 129.926C118.492 129.802 118.531 129.681 118.601 129.578C118.672 129.476 118.771 129.396 118.886 129.35C119.001 129.304 119.128 129.293 119.25 129.318C119.371 129.343 119.483 129.404 119.57 129.493C119.657 129.581 119.716 129.694 119.74 129.816C119.764 129.938 119.751 130.064 119.703 130.179C119.655 130.293 119.574 130.391 119.47 130.46C119.367 130.529 119.245 130.566 119.121 130.566C119.037 130.567 118.954 130.551 118.876 130.519C118.798 130.488 118.728 130.44 118.669 130.381C118.61 130.321 118.564 130.25 118.533 130.172C118.503 130.093 118.488 130.01 118.491 129.926Z" fill="#263238"/>
<path d="M124.963 124.8H122.719V123.984H128.124V124.8H125.88V130.512H124.953L124.963 124.8Z" fill="#263238"/>
<path d="M132.946 128.343H128.931C128.989 128.767 129.207 129.152 129.539 129.421C129.872 129.69 130.294 129.822 130.721 129.789C130.988 129.798 131.254 129.748 131.501 129.644C131.747 129.54 131.968 129.384 132.149 129.187L132.64 129.771C132.277 130.153 131.81 130.42 131.297 130.539C130.783 130.658 130.246 130.623 129.753 130.44C129.259 130.256 128.83 129.931 128.519 129.506C128.208 129.08 128.029 128.573 128.004 128.046C127.99 127.715 128.044 127.385 128.163 127.076C128.282 126.766 128.463 126.485 128.695 126.248C128.927 126.012 129.205 125.826 129.512 125.701C129.819 125.576 130.149 125.516 130.48 125.524C130.812 125.516 131.143 125.577 131.45 125.703C131.758 125.83 132.036 126.019 132.266 126.259C132.497 126.499 132.674 126.784 132.788 127.097C132.902 127.409 132.95 127.742 132.928 128.074C132.965 128.139 132.955 128.259 132.946 128.343ZM128.931 127.694H132.149C132.106 127.303 131.921 126.941 131.628 126.679C131.336 126.416 130.956 126.271 130.563 126.271C130.17 126.271 129.791 126.416 129.498 126.679C129.205 126.941 129.02 127.303 128.978 127.694H128.931Z" fill="#263238"/>
<path d="M136.859 125.524V126.395H136.655C136.437 126.381 136.218 126.415 136.015 126.496C135.812 126.576 135.629 126.701 135.48 126.86C135.331 127.02 135.219 127.211 135.153 127.419C135.087 127.627 135.068 127.848 135.097 128.064V130.521H134.17V125.579H135.023V126.414C135.208 126.102 135.481 125.852 135.807 125.694C136.134 125.535 136.499 125.476 136.859 125.524Z" fill="#263238"/>
<path d="M146.168 127.666V130.513H145.24V127.731C145.24 126.804 144.777 126.294 143.961 126.294C143.145 126.294 142.487 126.86 142.487 127.935V130.476H141.559V127.694C141.559 126.767 141.096 126.257 140.28 126.257C140.069 126.248 139.858 126.286 139.664 126.367C139.469 126.449 139.294 126.572 139.153 126.729C139.011 126.886 138.906 127.072 138.844 127.274C138.782 127.476 138.766 127.689 138.796 127.898V130.439H137.869V125.497H138.722V126.238C138.92 125.977 139.18 125.769 139.477 125.632C139.774 125.494 140.101 125.432 140.428 125.45C140.772 125.43 141.115 125.506 141.418 125.67C141.721 125.834 141.972 126.079 142.144 126.377C142.36 126.077 142.648 125.834 142.981 125.672C143.315 125.511 143.683 125.434 144.054 125.45C144.351 125.401 144.657 125.426 144.943 125.522C145.229 125.618 145.487 125.782 145.696 126C145.904 126.218 146.056 126.484 146.138 126.775C146.22 127.065 146.23 127.371 146.168 127.666Z" fill="#263238"/>
<path d="M119.64 230.982V231.789H115.004V231.159L117.656 228.59C118.351 227.923 118.481 227.515 118.481 227.098C118.481 226.43 117.999 226.022 117.09 226.022C116.776 226.004 116.463 226.058 116.173 226.18C115.884 226.302 115.627 226.489 115.421 226.727L114.781 226.18C115.081 225.847 115.452 225.585 115.865 225.413C116.279 225.242 116.726 225.165 117.173 225.188C118.536 225.188 119.408 225.892 119.408 227.042C119.398 227.442 119.296 227.835 119.111 228.19C118.927 228.545 118.663 228.853 118.342 229.091L116.339 231.02L119.64 230.982Z" fill="#263238"/>
<path d="M120.485 231.206C120.482 231.122 120.497 231.039 120.527 230.961C120.558 230.882 120.604 230.811 120.663 230.752C120.722 230.692 120.792 230.645 120.87 230.613C120.948 230.581 121.031 230.565 121.115 230.566C121.285 230.566 121.448 230.634 121.568 230.754C121.688 230.874 121.755 231.037 121.755 231.206C121.755 231.376 121.688 231.539 121.568 231.659C121.448 231.779 121.285 231.846 121.115 231.846C121.032 231.846 120.949 231.829 120.872 231.797C120.795 231.765 120.725 231.718 120.666 231.658C120.607 231.599 120.561 231.528 120.53 231.45C120.499 231.373 120.483 231.29 120.485 231.206Z" fill="#263238"/>
<path d="M125.658 225.262H126.585V230.983H130.118V231.789H125.658V225.262Z" fill="#263238"/>
<path d="M130.916 225.319C130.916 225.241 130.932 225.163 130.962 225.091C130.993 225.019 131.037 224.954 131.094 224.899C131.15 224.845 131.216 224.802 131.289 224.774C131.362 224.745 131.44 224.732 131.519 224.735C131.633 224.738 131.744 224.776 131.838 224.842C131.932 224.908 132.004 225.001 132.045 225.108C132.086 225.215 132.095 225.332 132.071 225.444C132.046 225.556 131.989 225.658 131.907 225.738C131.824 225.818 131.72 225.872 131.607 225.893C131.495 225.914 131.378 225.901 131.273 225.856C131.167 225.812 131.077 225.737 131.013 225.641C130.95 225.546 130.916 225.434 130.916 225.319V225.319ZM131.074 226.849H132.001V231.791H131.074V226.849Z" fill="#263238"/>
<path d="M133.215 229.323C133.209 228.983 133.272 228.645 133.401 228.33C133.531 228.016 133.724 227.731 133.969 227.494C134.213 227.258 134.504 227.074 134.822 226.955C135.141 226.835 135.481 226.783 135.821 226.801C136.222 226.776 136.622 226.862 136.979 227.048C137.335 227.234 137.633 227.514 137.842 227.858L137.156 228.294C137.013 228.071 136.815 227.889 136.581 227.765C136.347 227.642 136.085 227.581 135.821 227.589C135.382 227.621 134.971 227.818 134.671 228.141C134.371 228.463 134.205 228.887 134.205 229.328C134.205 229.768 134.371 230.192 134.671 230.514C134.971 230.837 135.382 231.034 135.821 231.066C136.086 231.072 136.348 231.01 136.582 230.885C136.816 230.76 137.014 230.576 137.156 230.352L137.842 230.779C137.634 231.123 137.336 231.405 136.979 231.592C136.623 231.78 136.223 231.868 135.821 231.845C135.481 231.863 135.141 231.811 134.822 231.691C134.504 231.572 134.213 231.388 133.969 231.152C133.724 230.915 133.531 230.63 133.401 230.316C133.272 230.001 133.209 229.663 133.215 229.323V229.323Z" fill="#263238"/>
<path d="M143.368 229.62H139.363C139.42 230.044 139.638 230.43 139.97 230.698C140.303 230.967 140.726 231.099 141.152 231.067C141.419 231.075 141.686 231.026 141.932 230.922C142.178 230.818 142.399 230.661 142.58 230.464L143.071 231.048C142.707 231.426 142.24 231.689 141.728 231.806C141.216 231.922 140.681 231.887 140.189 231.704C139.697 231.521 139.268 231.198 138.957 230.775C138.646 230.352 138.464 229.848 138.435 229.324C138.423 228.992 138.478 228.661 138.598 228.352C138.718 228.043 138.9 227.761 139.132 227.525C139.365 227.289 139.644 227.103 139.951 226.978C140.259 226.854 140.589 226.794 140.92 226.802C141.252 226.793 141.583 226.854 141.89 226.981C142.197 227.107 142.474 227.297 142.704 227.537C142.934 227.777 143.11 228.062 143.223 228.375C143.336 228.687 143.382 229.02 143.359 229.351C143.387 229.426 143.377 229.537 143.368 229.62ZM139.363 228.971H142.534C142.491 228.58 142.306 228.219 142.013 227.956C141.721 227.693 141.341 227.548 140.948 227.548C140.555 227.548 140.175 227.693 139.883 227.956C139.59 228.219 139.405 228.58 139.363 228.971Z" fill="#263238"/>
<path d="M149.32 228.945V231.791H148.392V229.01C148.392 228.083 147.91 227.573 147.066 227.573C146.85 227.556 146.632 227.588 146.43 227.665C146.227 227.743 146.044 227.865 145.894 228.022C145.744 228.179 145.631 228.367 145.562 228.573C145.494 228.78 145.473 228.998 145.499 229.214V231.754H144.572V226.812H145.435V227.554C145.646 227.29 145.919 227.08 146.229 226.943C146.538 226.806 146.877 226.745 147.215 226.766C147.506 226.733 147.8 226.767 148.076 226.866C148.351 226.965 148.601 227.126 148.804 227.337C149.007 227.548 149.16 227.802 149.249 228.081C149.339 228.36 149.363 228.655 149.32 228.945V228.945Z" fill="#263238"/>
<path d="M150.553 229.323C150.545 228.982 150.608 228.644 150.737 228.329C150.866 228.013 151.059 227.728 151.304 227.491C151.548 227.254 151.84 227.071 152.159 226.952C152.478 226.833 152.819 226.782 153.159 226.801C153.56 226.776 153.96 226.862 154.317 227.048C154.673 227.234 154.971 227.514 155.18 227.858L154.494 228.294C154.35 228.07 154.15 227.888 153.915 227.764C153.679 227.641 153.415 227.58 153.15 227.589C152.71 227.621 152.3 227.818 152 228.141C151.7 228.463 151.534 228.887 151.534 229.328C151.534 229.768 151.7 230.192 152 230.514C152.3 230.837 152.71 231.034 153.15 231.066C153.416 231.073 153.68 231.011 153.916 230.886C154.151 230.761 154.35 230.577 154.494 230.352L155.18 230.779C154.972 231.123 154.674 231.405 154.318 231.592C153.961 231.78 153.561 231.868 153.159 231.845C152.819 231.863 152.479 231.811 152.161 231.691C151.842 231.572 151.551 231.388 151.307 231.152C151.062 230.915 150.869 230.63 150.74 230.316C150.61 230.001 150.547 229.663 150.553 229.323V229.323Z" fill="#263238"/>
<path d="M160.706 229.62H156.7C156.758 230.044 156.976 230.43 157.308 230.698C157.641 230.967 158.064 231.099 158.49 231.067C158.757 231.075 159.023 231.026 159.27 230.922C159.516 230.818 159.737 230.661 159.918 230.464L160.409 231.048C160.045 231.426 159.578 231.689 159.066 231.806C158.554 231.922 158.019 231.887 157.527 231.704C157.034 231.521 156.606 231.198 156.295 230.775C155.983 230.352 155.802 229.848 155.773 229.324C155.761 228.992 155.816 228.661 155.936 228.352C156.056 228.043 156.238 227.761 156.47 227.525C156.703 227.289 156.982 227.103 157.289 226.978C157.597 226.854 157.927 226.794 158.258 226.802C158.59 226.793 158.921 226.854 159.228 226.981C159.535 227.107 159.812 227.297 160.042 227.537C160.271 227.777 160.448 228.062 160.561 228.375C160.674 228.687 160.72 229.02 160.697 229.351C160.724 229.426 160.715 229.537 160.706 229.62ZM156.7 228.971H159.871C159.829 228.58 159.644 228.219 159.351 227.956C159.059 227.693 158.679 227.548 158.286 227.548C157.893 227.548 157.513 227.693 157.221 227.956C156.928 228.219 156.743 228.58 156.7 228.971V228.971Z" fill="#263238"/>
<path d="M257.532 145.19C257.532 145.329 225.535 145.431 186.073 145.431C146.612 145.431 114.605 145.329 114.605 145.19C114.605 145.051 146.603 144.949 186.073 144.949C225.544 144.949 257.532 145.06 257.532 145.19Z" fill="#263238"/>
<path d="M257.532 156.007C257.532 156.136 225.535 156.248 186.073 156.248C146.612 156.248 114.605 156.136 114.605 156.007C114.605 155.877 146.603 155.766 186.073 155.766C225.544 155.766 257.532 155.868 257.532 156.007Z" fill="#263238"/>
<path d="M257.532 166.819C257.532 166.958 225.535 167.06 186.073 167.06C146.612 167.06 114.605 166.958 114.605 166.819C114.605 166.68 146.603 166.578 186.073 166.578C225.544 166.578 257.532 166.689 257.532 166.819Z" fill="#263238"/>
<path d="M257.532 177.643C257.532 177.773 225.535 177.884 186.073 177.884C146.612 177.884 114.605 177.773 114.605 177.643C114.605 177.514 146.603 177.402 186.073 177.402C225.544 177.402 257.532 177.504 257.532 177.643Z" fill="#263238"/>
<path d="M257.532 188.452C257.532 188.591 225.535 188.693 186.073 188.693C146.612 188.693 114.605 188.591 114.605 188.452C114.605 188.313 146.603 188.211 186.073 188.211C225.544 188.211 257.532 188.322 257.532 188.452Z" fill="#263238"/>
<path d="M257.532 199.272C257.532 199.402 225.535 199.513 186.073 199.513C146.612 199.513 114.605 199.402 114.605 199.272C114.605 199.143 146.603 199.031 186.073 199.031C225.544 199.031 257.532 199.133 257.532 199.272Z" fill="#263238"/>
<path d="M257.532 240.331C257.532 240.461 225.535 240.572 186.073 240.572C146.612 240.572 114.605 240.461 114.605 240.331C114.605 240.201 146.603 240.09 186.073 240.09C225.544 240.09 257.532 240.22 257.532 240.331Z" fill="#263238"/>
<path d="M257.532 249.6C257.532 249.74 225.535 249.842 186.073 249.842C146.612 249.842 114.605 249.74 114.605 249.6C114.605 249.461 146.603 249.359 186.073 249.359C225.544 249.359 257.532 249.471 257.532 249.6Z" fill="#E0E0E0"/>
<path d="M257.532 258.874C257.532 259.004 225.535 259.115 186.073 259.115C146.612 259.115 114.605 259.004 114.605 258.874C114.605 258.744 146.603 258.633 186.073 258.633C225.544 258.633 257.532 258.726 257.532 258.874Z" fill="#EBEBEB"/>
<path d="M267.963 286.531H192.359V314.699H267.963V286.531Z" fill="#F4A047"/>
<path d="M217.543 302.072H213.834L213.064 303.825H212.035L215.206 296.824H216.189L219.369 303.825H218.322L217.543 302.072ZM217.19 301.275L215.679 297.844L214.177 301.275H217.19Z" fill="white"/>
<path d="M219.721 301.171C219.714 300.808 219.782 300.447 219.921 300.111C220.059 299.775 220.265 299.471 220.526 299.218C220.787 298.965 221.097 298.768 221.437 298.64C221.777 298.512 222.14 298.455 222.503 298.473C222.932 298.447 223.359 298.539 223.74 298.739C224.121 298.938 224.44 299.237 224.663 299.604L223.931 300.068C223.777 299.828 223.564 299.632 223.312 299.498C223.06 299.365 222.778 299.299 222.493 299.307C222.002 299.307 221.53 299.503 221.182 299.851C220.834 300.198 220.639 300.67 220.639 301.162C220.639 301.654 220.834 302.125 221.182 302.473C221.53 302.821 222.002 303.016 222.493 303.016C222.778 303.024 223.06 302.959 223.312 302.825C223.564 302.692 223.777 302.496 223.931 302.256L224.663 302.71C224.44 303.078 224.121 303.379 223.741 303.58C223.36 303.781 222.932 303.874 222.503 303.851C222.141 303.868 221.78 303.812 221.441 303.685C221.103 303.558 220.794 303.363 220.533 303.112C220.272 302.861 220.066 302.559 219.926 302.225C219.787 301.892 219.717 301.533 219.721 301.171V301.171Z" fill="white"/>
<path d="M225.35 301.171C225.343 300.808 225.411 300.447 225.55 300.111C225.688 299.775 225.894 299.471 226.155 299.218C226.416 298.965 226.726 298.769 227.066 298.641C227.406 298.512 227.769 298.455 228.132 298.473C228.561 298.447 228.989 298.538 229.37 298.737C229.75 298.937 230.069 299.237 230.292 299.604L229.56 300.068C229.406 299.828 229.193 299.632 228.941 299.499C228.689 299.365 228.407 299.3 228.122 299.308C227.631 299.308 227.159 299.503 226.811 299.851C226.463 300.199 226.268 300.67 226.268 301.162C226.268 301.654 226.463 302.126 226.811 302.473C227.159 302.821 227.631 303.016 228.122 303.016C228.407 303.025 228.689 302.959 228.941 302.826C229.193 302.692 229.406 302.496 229.56 302.256L230.292 302.711C230.07 303.079 229.751 303.38 229.371 303.581C228.99 303.782 228.561 303.876 228.132 303.851C227.77 303.869 227.409 303.812 227.07 303.685C226.732 303.558 226.422 303.363 226.162 303.112C225.901 302.861 225.695 302.56 225.555 302.226C225.416 301.892 225.346 301.533 225.35 301.171Z" fill="white"/>
<path d="M236.243 301.524H231.941C232.003 301.978 232.237 302.391 232.593 302.679C232.95 302.967 233.403 303.107 233.86 303.072C234.146 303.082 234.431 303.03 234.695 302.92C234.959 302.81 235.196 302.643 235.39 302.433L235.919 303.054C235.653 303.34 235.327 303.565 234.965 303.712C234.603 303.86 234.213 303.926 233.823 303.907C233.454 303.934 233.084 303.884 232.735 303.759C232.387 303.635 232.068 303.439 231.8 303.184C231.532 302.929 231.32 302.62 231.178 302.279C231.037 301.937 230.968 301.569 230.977 301.199C230.963 300.844 231.021 300.49 231.15 300.159C231.278 299.828 231.473 299.526 231.722 299.274C231.972 299.021 232.27 298.822 232.6 298.689C232.929 298.556 233.283 298.492 233.638 298.501C233.994 298.49 234.349 298.554 234.679 298.688C235.009 298.822 235.308 299.025 235.555 299.282C235.802 299.538 235.993 299.844 236.115 300.179C236.236 300.515 236.286 300.872 236.262 301.227C236.262 301.283 236.252 301.403 236.243 301.524ZM231.941 300.829H235.334C235.291 300.409 235.093 300.021 234.78 299.739C234.466 299.456 234.059 299.3 233.638 299.3C233.216 299.3 232.809 299.456 232.496 299.739C232.183 300.021 231.985 300.409 231.941 300.829V300.829Z" fill="white"/>
<path d="M243.078 301.171C243.098 301.53 243.043 301.888 242.915 302.224C242.788 302.56 242.592 302.865 242.339 303.12C242.087 303.375 241.784 303.574 241.449 303.705C241.115 303.836 240.757 303.895 240.399 303.879C240.045 303.89 239.693 303.819 239.371 303.671C239.049 303.523 238.766 303.302 238.544 303.026V305.761H237.617V298.52H238.544V299.363C238.756 299.071 239.035 298.834 239.358 298.673C239.681 298.511 240.038 298.43 240.399 298.436C240.76 298.42 241.12 298.48 241.457 298.612C241.793 298.745 242.097 298.946 242.35 299.205C242.603 299.463 242.799 299.771 242.924 300.11C243.05 300.449 243.102 300.811 243.078 301.171V301.171ZM242.105 301.171C242.092 300.821 241.976 300.481 241.772 300.196C241.568 299.91 241.284 299.691 240.956 299.565C240.628 299.44 240.271 299.413 239.928 299.49C239.585 299.566 239.273 299.741 239.029 299.994C238.785 300.246 238.621 300.565 238.557 300.91C238.493 301.256 238.532 301.612 238.669 301.935C238.806 302.259 239.035 302.534 239.328 302.728C239.621 302.922 239.964 303.026 240.315 303.026C240.557 303.031 240.798 302.987 241.022 302.895C241.246 302.803 241.448 302.665 241.616 302.491C241.785 302.317 241.915 302.109 241.999 301.882C242.083 301.655 242.119 301.413 242.105 301.171V301.171Z" fill="white"/>
<path d="M247.389 303.511C247.053 303.763 246.641 303.894 246.221 303.881C245.996 303.908 245.767 303.883 245.553 303.809C245.339 303.735 245.144 303.614 244.983 303.455C244.822 303.296 244.698 303.102 244.622 302.888C244.546 302.675 244.519 302.447 244.542 302.222V299.31H243.615V298.522H244.542V297.363H245.47V298.522H246.99V299.31H245.47V302.185C245.446 302.303 245.451 302.424 245.482 302.54C245.514 302.656 245.572 302.763 245.652 302.853C245.732 302.943 245.832 303.013 245.943 303.058C246.055 303.103 246.175 303.121 246.295 303.112C246.566 303.116 246.831 303.028 247.046 302.862L247.389 303.511Z" fill="white"/>
<path d="M111.073 314.919C111.073 314.919 111.009 314.919 110.888 314.799L110.35 314.381L108.097 312.647L108.014 312.583L108.116 312.536C117.239 309.041 146.993 297.877 183.663 284.21L183.793 284.164L183.895 284.248L186.825 286.603L186.918 286.677V315.197H186.677L132.621 315.104L116.776 315.04H112.529H111.435C111.315 315.046 111.194 315.046 111.073 315.04H111.454H112.557H116.831L132.696 314.975L186.677 314.882L186.445 315.114C186.445 308.577 186.445 301.734 186.445 294.716V286.946L186.538 287.131L183.608 284.767H183.839C147.16 298.415 117.36 309.449 108.171 312.768V312.666L110.359 314.474L110.897 314.919H111.073Z" fill="#F4A047"/>
<path d="M183.736 284.398H108.133V312.567H183.736V284.398Z" fill="white"/>
<path d="M183.745 312.567C183.745 312.567 183.745 312.391 183.745 312.057C183.745 311.723 183.745 311.232 183.745 310.601C183.745 309.312 183.745 307.43 183.745 305.038C183.745 300.189 183.69 293.17 183.653 284.427L183.819 284.593L108.216 284.668L108.457 284.427C108.457 294.255 108.457 303.768 108.457 312.595L108.225 312.363L162.346 312.474L178.108 312.539H182.345H183.449H183.829H183.476H182.401H178.219L162.503 312.604L108.216 312.715H107.984V312.483C107.984 303.657 107.984 294.144 107.984 284.315V284.074H108.235L183.838 284.148H184.005V284.315C184.005 293.096 183.931 300.152 183.912 305.029C183.912 307.43 183.912 309.294 183.912 310.592C183.912 311.204 183.912 311.677 183.912 312.02C183.912 312.363 183.745 312.567 183.745 312.567Z" fill="#F4A047"/>
<path d="M128.857 296.486H131.806C132.288 296.451 132.771 296.515 133.227 296.676C133.683 296.836 134.1 297.088 134.454 297.417C134.808 297.746 135.09 298.144 135.283 298.587C135.476 299.03 135.575 299.508 135.575 299.991C135.575 300.474 135.476 300.951 135.283 301.394C135.09 301.837 134.808 302.235 134.454 302.564C134.1 302.893 133.683 303.145 133.227 303.306C132.771 303.466 132.288 303.53 131.806 303.495H128.857V296.486ZM131.75 302.624C132.115 302.654 132.481 302.609 132.827 302.491C133.173 302.372 133.491 302.183 133.76 301.936C134.029 301.688 134.244 301.388 134.391 301.053C134.538 300.718 134.614 300.356 134.614 299.991C134.614 299.625 134.538 299.263 134.391 298.928C134.244 298.594 134.029 298.293 133.76 298.045C133.491 297.798 133.173 297.609 132.827 297.491C132.481 297.372 132.115 297.327 131.75 297.357H129.896V302.624H131.75Z" fill="#F4A047"/>
<path d="M141.744 301.162H137.442C137.504 301.618 137.739 302.032 138.098 302.32C138.456 302.608 138.912 302.748 139.37 302.71C139.657 302.722 139.942 302.671 140.206 302.56C140.471 302.45 140.708 302.283 140.9 302.07L141.429 302.692C141.036 303.088 140.537 303.362 139.992 303.481C139.448 303.601 138.88 303.56 138.358 303.364C137.835 303.168 137.381 302.825 137.049 302.377C136.717 301.929 136.522 301.394 136.487 300.837C136.471 300.482 136.529 300.127 136.657 299.794C136.785 299.462 136.979 299.159 137.229 298.905C137.479 298.651 137.778 298.452 138.108 298.318C138.438 298.185 138.792 298.121 139.148 298.13C139.505 298.12 139.86 298.185 140.19 298.32C140.52 298.456 140.818 298.659 141.066 298.916C141.313 299.174 141.503 299.48 141.625 299.816C141.746 300.152 141.797 300.509 141.772 300.865C141.772 300.958 141.753 301.069 141.744 301.162ZM137.442 300.476H140.845C140.792 300.062 140.59 299.682 140.276 299.406C139.963 299.13 139.56 298.978 139.143 298.978C138.726 298.978 138.323 299.13 138.01 299.406C137.697 299.682 137.495 300.062 137.442 300.476V300.476Z" fill="#F4A047"/>
<path d="M142.606 300.848C142.598 300.484 142.665 300.122 142.803 299.785C142.941 299.448 143.147 299.143 143.408 298.889C143.669 298.635 143.979 298.438 144.32 298.309C144.66 298.18 145.024 298.123 145.388 298.141C145.817 298.115 146.244 298.207 146.625 298.406C147.006 298.606 147.325 298.905 147.548 299.272L146.816 299.745C146.661 299.506 146.448 299.31 146.196 299.177C145.945 299.044 145.663 298.977 145.378 298.985C144.887 298.985 144.415 299.18 144.067 299.528C143.719 299.876 143.524 300.347 143.524 300.839C143.524 301.331 143.719 301.803 144.067 302.15C144.415 302.498 144.887 302.693 145.378 302.693C145.663 302.701 145.945 302.634 146.196 302.501C146.448 302.368 146.661 302.172 146.816 301.933L147.548 302.397C147.325 302.765 147.006 303.065 146.626 303.266C146.245 303.467 145.817 303.561 145.388 303.537C145.026 303.555 144.664 303.498 144.324 303.371C143.985 303.243 143.675 303.047 143.415 302.795C143.154 302.543 142.948 302.24 142.809 301.906C142.67 301.571 142.601 301.211 142.606 300.848V300.848Z" fill="#F4A047"/>
<path d="M148.736 296.07H149.664V303.488H148.736V296.07Z" fill="#F4A047"/>
<path d="M151.35 296.552C151.351 296.468 151.369 296.385 151.402 296.308C151.435 296.231 151.483 296.161 151.544 296.103C151.604 296.044 151.675 295.998 151.753 295.967C151.831 295.936 151.915 295.921 151.999 295.922C152.122 295.926 152.243 295.966 152.344 296.037C152.445 296.109 152.523 296.208 152.568 296.324C152.613 296.439 152.623 296.565 152.596 296.686C152.57 296.807 152.508 296.918 152.419 297.004C152.331 297.091 152.218 297.149 152.096 297.172C151.975 297.195 151.849 297.181 151.735 297.133C151.621 297.085 151.523 297.004 151.455 296.901C151.386 296.797 151.35 296.676 151.35 296.552V296.552ZM151.526 298.194H152.453V303.497H151.526V298.194Z" fill="#F4A047"/>
<path d="M159.343 300.446V303.496H158.416V300.594C158.416 299.556 157.887 299.046 156.978 299.046C156.746 299.029 156.514 299.064 156.297 299.148C156.08 299.232 155.884 299.362 155.724 299.531C155.563 299.699 155.442 299.901 155.369 300.122C155.296 300.342 155.272 300.577 155.3 300.808V303.543H154.373V298.239H155.3V299.037C155.527 298.752 155.819 298.526 156.151 298.377C156.484 298.229 156.847 298.162 157.21 298.184C157.505 298.171 157.798 298.223 158.071 298.334C158.344 298.445 158.59 298.614 158.793 298.828C158.995 299.043 159.149 299.298 159.243 299.577C159.338 299.856 159.372 300.153 159.343 300.446V300.446Z" fill="#F4A047"/>
<path d="M165.925 301.162H161.623C161.685 301.616 161.919 302.029 162.275 302.317C162.632 302.604 163.085 302.745 163.542 302.71C163.829 302.722 164.114 302.671 164.378 302.56C164.643 302.45 164.88 302.283 165.072 302.07L165.601 302.692C165.208 303.088 164.709 303.362 164.164 303.481C163.619 303.601 163.052 303.56 162.529 303.364C162.007 303.168 161.553 302.825 161.221 302.377C160.889 301.929 160.694 301.394 160.659 300.837C160.643 300.482 160.701 300.127 160.829 299.794C160.957 299.462 161.151 299.159 161.401 298.905C161.65 298.651 161.95 298.452 162.28 298.318C162.61 298.185 162.964 298.121 163.32 298.13C163.677 298.12 164.031 298.185 164.362 298.32C164.692 298.456 164.99 298.659 165.237 298.916C165.485 299.174 165.675 299.48 165.797 299.816C165.918 300.152 165.968 300.509 165.944 300.865C165.944 300.958 165.934 301.069 165.925 301.162ZM161.623 300.476H165.016C164.973 300.056 164.775 299.668 164.462 299.386C164.148 299.103 163.741 298.947 163.32 298.947C162.898 298.947 162.491 299.103 162.178 299.386C161.865 299.668 161.667 300.056 161.623 300.476Z" fill="#F4A047"/>
<path d="M186.676 314.92C186.583 315.022 185.851 314.466 185.044 313.687C184.237 312.908 183.653 312.204 183.746 312.102C183.839 312 184.571 312.565 185.378 313.344C186.185 314.123 186.769 314.828 186.676 314.92Z" fill="#F4A047"/>
<path d="M294.685 307.885L305.477 302.693L299.543 285.15L286.507 282.137C285.292 281.859 283.939 281.534 282.437 281.117C280.67 280.625 279 279.838 277.495 278.79C275.578 277.572 273.837 276.096 272.321 274.404C271.088 272.726 268.473 273.356 268.473 275.22C268.473 277.084 271.765 281.785 277.615 285.113C283.466 288.442 273.118 290.046 269.373 290.676C265.627 291.307 254.111 293.894 253.425 295.201C252.423 297.111 254.352 298.576 258.061 297.844C261.77 297.111 273.165 295.665 273.461 297.649V297.705C272.547 299.135 272.102 300.816 272.191 302.512C272.279 304.208 272.895 305.834 273.953 307.162C276.048 309.786 279.192 313.077 281.5 312.577C285.839 311.659 294.685 307.885 294.685 307.885Z" fill="#B78876"/>
<path d="M294.027 277.016L304.143 311.22L382.686 287.354C386.695 286.129 390.42 284.117 393.642 281.435C396.864 278.753 399.519 275.455 401.451 271.735C403.383 268.015 404.554 263.946 404.895 259.768C405.236 255.59 404.74 251.385 403.436 247.401L384.178 187.477L342.353 197.861L365.31 253.307L294.027 277.016Z" fill="#6660AB"/>
<path d="M384.455 286.754L384.075 286.893L382.944 287.255L378.549 288.618L362.091 293.662L304.921 311.009L304.707 311.065L304.633 310.861C301.138 300.402 297.744 288.905 293.822 277.093L293.748 276.87L293.98 276.787L295.955 276.138L365.272 253.115L365.16 253.366C359.597 239.922 355.091 228.906 351.939 221.229C350.381 217.409 349.157 214.424 348.323 212.375C347.924 211.364 347.609 210.585 347.395 210.047C347.182 209.51 347.099 209.25 347.099 209.25C347.099 209.25 347.229 209.51 347.451 210.029L348.434 212.328C349.287 214.368 350.539 217.344 352.143 221.146C355.332 228.804 359.913 239.801 365.513 253.227L365.587 253.412L365.392 253.477L296.075 276.592L294.1 277.25L294.249 276.944C298.18 288.766 301.555 300.263 305.041 310.713L304.763 310.564L361.98 293.393L378.503 288.469L382.916 287.181L384.066 286.856L384.455 286.754Z" fill="#263238"/>
<path d="M379.829 263.275C379.755 263.275 379.235 262.413 378.188 261.105C375.437 257.689 371.696 255.208 367.479 254.003C365.865 253.539 364.827 253.409 364.836 253.326C365.081 253.282 365.332 253.282 365.578 253.326C366.246 253.388 366.91 253.5 367.562 253.66C369.728 254.184 371.786 255.082 373.644 256.312C375.504 257.541 377.133 259.089 378.456 260.883C378.858 261.423 379.217 261.994 379.532 262.589C379.672 262.798 379.772 263.03 379.829 263.275V263.275Z" fill="#263238"/>
<path d="M360.794 200.772C360.551 199.094 360.47 197.395 360.553 195.701C360.47 194.006 360.551 192.308 360.794 190.629C361.116 194.002 361.116 197.399 360.794 200.772V200.772Z" fill="#FAFAFA"/>
<path d="M376.566 201.583C375.844 200.021 375.273 198.394 374.86 196.724C374.289 195.101 373.873 193.428 373.617 191.727C374.907 194.912 375.894 198.212 376.566 201.583V201.583Z" fill="#FAFAFA"/>
<path d="M366.783 215.815C363.536 215.789 360.36 214.858 357.613 213.126C357.678 212.996 359.616 213.914 362.147 214.646C364.678 215.379 366.792 215.675 366.783 215.815Z" fill="#FAFAFA"/>
<path d="M384.623 223.637C384.66 222.008 384.859 220.387 385.216 218.797C385.415 217.177 385.772 215.581 386.283 214.031C386.241 215.663 386.042 217.287 385.689 218.88C385.493 220.498 385.136 222.091 384.623 223.637Z" fill="#FAFAFA"/>
<path d="M378.243 236.414C376.562 233.522 375.167 230.472 374.08 227.309C375.756 230.203 377.15 233.252 378.243 236.414V236.414Z" fill="#FAFAFA"/>
<path d="M375.629 247.595C374.102 247.128 372.626 246.507 371.225 245.741C369.755 245.121 368.354 244.35 367.043 243.441C368.563 243.919 370.035 244.54 371.438 245.296C372.909 245.918 374.314 246.688 375.629 247.595Z" fill="#FAFAFA"/>
<path d="M395.694 244.621C395.193 246.076 394.602 247.497 393.923 248.877C393.393 250.317 392.774 251.723 392.068 253.086C392.729 250.06 393.959 247.187 395.694 244.621Z" fill="#FAFAFA"/>
<path d="M390.111 271.557C389.441 268.126 389.097 264.64 389.082 261.145C389.485 262.847 389.737 264.581 389.833 266.328C390.085 268.059 390.178 269.809 390.111 271.557V271.557Z" fill="#FAFAFA"/>
<path d="M375.944 280.062C374.606 279.172 373.363 278.146 372.235 277.002C371.006 275.979 369.881 274.836 368.879 273.59C370.217 274.48 371.46 275.505 372.588 276.65C373.817 277.672 374.942 278.815 375.944 280.062Z" fill="#FAFAFA"/>
<path d="M351.466 282.496C349.713 285.44 347.682 288.209 345.402 290.767C346.208 289.253 347.158 287.822 348.24 286.492C349.188 285.062 350.268 283.724 351.466 282.496Z" fill="#FAFAFA"/>
<path d="M359.228 271.029C357.821 270.12 356.555 269.007 355.473 267.728C354.275 266.559 353.262 265.215 352.469 263.741C352.58 263.658 353.962 265.401 355.825 267.404C357.689 269.406 359.311 270.927 359.228 271.029Z" fill="#FAFAFA"/>
<path d="M340.767 273.635C339.592 274.108 338.313 274.265 337.058 274.089C335.795 274.073 334.557 273.735 333.461 273.106C333.517 272.967 335.084 273.468 337.086 273.607C339.089 273.746 340.767 273.496 340.767 273.635Z" fill="#FAFAFA"/>
<path d="M329.074 293.921C328.611 292.632 328.299 291.294 328.146 289.934C327.833 288.6 327.68 287.233 327.692 285.863C328.466 288.486 328.93 291.19 329.074 293.921V293.921Z" fill="#FAFAFA"/>
<path d="M315.277 300.911C312.079 299.276 309.034 297.355 306.182 295.172C307.819 295.921 309.386 296.815 310.864 297.842C312.422 298.734 313.899 299.761 315.277 300.911V300.911Z" fill="#FAFAFA"/>
<path d="M320.201 276.23C320.303 276.323 318.959 277.918 317.466 279.995C315.973 282.072 314.861 283.843 314.74 283.778C315.3 282.308 316.085 280.935 317.067 279.707C317.922 278.39 318.979 277.216 320.201 276.23Z" fill="#FAFAFA"/>
<path d="M309.539 280.91C308.581 280.699 307.663 280.332 306.823 279.825C305.916 279.46 305.076 278.946 304.338 278.305C306.205 278.878 307.963 279.758 309.539 280.91Z" fill="#FAFAFA"/>
<g opacity="0.2">
<path opacity="0.2" d="M364.652 251.89C368.843 252.317 373.043 252.753 377.225 253.281C378.683 253.387 380.119 253.699 381.49 254.208C382.172 254.474 382.792 254.874 383.315 255.386C383.837 255.897 384.251 256.509 384.531 257.184C384.793 257.869 384.821 258.621 384.612 259.324C384.402 260.026 383.966 260.64 383.372 261.069C382.779 261.374 382.116 261.518 381.45 261.489C380.783 261.46 380.136 261.258 379.571 260.903C378.448 260.188 377.399 259.365 376.437 258.445C374.551 256.886 372.359 255.739 370.002 255.08C368.929 254.876 367.891 254.513 366.924 254.004C366.441 253.736 366.053 253.324 365.814 252.826C365.575 252.328 365.496 251.767 365.589 251.223" fill="black"/>
</g>
</svg>
