<svg width="498" height="294" viewBox="0 0 498 294" fill="none" xmlns="http://www.w3.org/2000/svg">
<path d="M148.454 66.4697H51.2852V0H148.454V66.4697ZM52.0524 65.7024H147.687V0.767283H52.0524V65.7024Z" fill="#9BB5C1"/>
<path d="M58.8808 4.28121C58.8808 4.66363 58.7674 5.03746 58.5549 5.35543C58.3425 5.67341 58.0405 5.92123 57.6872 6.06758C57.3339 6.21393 56.9451 6.25222 56.57 6.17761C56.1949 6.103 55.8504 5.91885 55.58 5.64843C55.3096 5.37802 55.1254 5.0335 55.0508 4.65843C54.9762 4.28335 55.0145 3.89458 55.1609 3.54127C55.3072 3.18796 55.555 2.88598 55.873 2.67351C56.191 2.46105 56.5648 2.34766 56.9472 2.34766C57.46 2.34766 57.9518 2.55137 58.3145 2.91398C58.6771 3.27659 58.8808 3.7684 58.8808 4.28121Z" fill="#6660AB"/>
<path d="M66.7753 4.28121C66.7753 4.66363 66.6619 5.03746 66.4494 5.35543C66.237 5.67341 65.935 5.92123 65.5817 6.06758C65.2284 6.21393 64.8396 6.25222 64.4645 6.17761C64.0895 6.103 63.7449 5.91885 63.4745 5.64843C63.2041 5.37802 63.02 5.0335 62.9454 4.65843C62.8708 4.28335 62.909 3.89458 63.0554 3.54127C63.2017 3.18796 63.4496 2.88598 63.7675 2.67351C64.0855 2.46105 64.4593 2.34766 64.8418 2.34766C65.3546 2.34766 65.8464 2.55137 66.209 2.91398C66.5716 3.27659 66.7753 3.7684 66.7753 4.28121Z" fill="#F4A047"/>
<path d="M74.6793 4.28122C74.6808 4.66581 74.5681 5.04218 74.3554 5.36258C74.1426 5.68299 73.8395 5.93299 73.4845 6.08087C73.1295 6.22875 72.7385 6.26784 72.3613 6.19318C71.984 6.11852 71.6374 5.93348 71.3654 5.66153C71.0935 5.38959 70.9085 5.04299 70.8338 4.66572C70.7591 4.28844 70.7982 3.8975 70.9461 3.54247C71.094 3.18745 71.344 2.88435 71.6644 2.67163C71.9848 2.45891 72.3612 2.34615 72.7458 2.34767C73.2586 2.34767 73.7504 2.55138 74.113 2.914C74.4756 3.27661 74.6793 3.76841 74.6793 4.28122Z" fill="#C0E0B9"/>
<path d="M148.069 7.67969H51.668V8.44697H148.069V7.67969Z" fill="#9BB5C1"/>
<path d="M466.347 240.574H465.58V144.034L486.09 116.044V63.7305H486.857V116.289L466.347 144.288V240.574Z" fill="#9BB5C1"/>
<path d="M486.471 64.1461C486.034 64.1461 485.607 64.0163 485.243 63.7732C484.879 63.53 484.596 63.1844 484.429 62.7802C484.262 62.376 484.219 61.9313 484.305 61.5024C484.391 61.0735 484.602 60.6798 484.912 60.3711C485.221 60.0623 485.616 59.8525 486.045 59.7681C486.474 59.6837 486.919 59.7286 487.322 59.897C487.726 60.0654 488.071 60.3498 488.313 60.7142C488.554 61.0787 488.683 61.5066 488.681 61.944C488.681 62.2338 488.624 62.5208 488.513 62.7885C488.402 63.0562 488.239 63.2993 488.034 63.5039C487.828 63.7084 487.585 63.8705 487.317 63.9807C487.048 64.0909 486.761 64.1471 486.471 64.1461ZM486.471 60.5015C486.186 60.5015 485.907 60.5861 485.67 60.7446C485.433 60.9031 485.248 61.1284 485.139 61.392C485.03 61.6556 485.001 61.9456 485.057 62.2254C485.112 62.5052 485.25 62.7623 485.451 62.964C485.653 63.1657 485.91 63.3031 486.19 63.3588C486.47 63.4145 486.76 63.3859 487.024 63.2767C487.287 63.1675 487.512 62.9826 487.671 62.7454C487.829 62.5082 487.914 62.2293 487.914 61.944C487.914 61.5614 487.762 61.1945 487.491 60.924C487.221 60.6535 486.854 60.5015 486.471 60.5015Z" fill="#9BB5C1"/>
<path d="M471.633 240.571H470.865V147.416L470.934 147.308L491.375 119.417V82.9102H492.142V119.671L471.633 147.661V240.571Z" fill="#9BB5C1"/>
<path d="M491.758 83.3258C491.321 83.3273 490.892 83.1988 490.528 82.9566C490.163 82.7143 489.879 82.3693 489.711 81.9652C489.543 81.5611 489.498 81.1162 489.583 80.6868C489.668 80.2574 489.879 79.863 490.188 79.5535C490.498 79.244 490.892 79.0334 491.322 78.9483C491.751 78.8633 492.196 78.9077 492.6 79.0759C493.004 79.2441 493.349 79.5286 493.591 79.8931C493.834 80.2577 493.962 80.686 493.961 81.1237C493.959 81.7071 493.726 82.266 493.313 82.6786C492.901 83.0911 492.342 83.3238 491.758 83.3258ZM491.758 79.6812C491.473 79.6797 491.193 79.763 490.955 79.9206C490.717 80.0781 490.531 80.3029 490.42 80.5663C490.31 80.8298 490.28 81.1201 490.335 81.4004C490.39 81.6807 490.527 81.9384 490.728 82.1409C490.93 82.3434 491.186 82.4816 491.467 82.5379C491.747 82.5942 492.037 82.566 492.301 82.4571C492.565 82.3481 492.791 82.1633 492.95 81.9259C493.108 81.6885 493.193 81.4093 493.193 81.1237C493.193 80.7424 493.042 80.3767 492.773 80.1064C492.505 79.8361 492.14 79.6832 491.758 79.6812Z" fill="#9BB5C1"/>
<path d="M461.259 112.891H460.492V240.574H461.259V112.891Z" fill="#9BB5C1"/>
<path d="M460.876 113.271C460.438 113.273 460.01 113.144 459.645 112.902C459.28 112.66 458.996 112.315 458.828 111.911C458.66 111.506 458.615 111.061 458.7 110.632C458.785 110.203 458.996 109.808 459.305 109.499C459.615 109.189 460.009 108.979 460.439 108.894C460.868 108.809 461.313 108.853 461.717 109.021C462.121 109.189 462.466 109.474 462.709 109.838C462.951 110.203 463.079 110.631 463.078 111.069C463.076 111.652 462.843 112.211 462.431 112.624C462.018 113.036 461.459 113.269 460.876 113.271ZM460.876 109.627C460.59 109.625 460.31 109.708 460.072 109.866C459.834 110.023 459.648 110.248 459.537 110.512C459.427 110.775 459.397 111.065 459.452 111.346C459.507 111.626 459.644 111.884 459.845 112.086C460.047 112.289 460.304 112.427 460.584 112.483C460.864 112.539 461.154 112.511 461.418 112.402C461.682 112.293 461.908 112.109 462.067 111.871C462.226 111.634 462.31 111.355 462.31 111.069C462.31 110.688 462.16 110.322 461.891 110.052C461.622 109.781 461.257 109.629 460.876 109.627Z" fill="#9BB5C1"/>
<path d="M456.358 240.574H455.59V175.777L441.672 149.512V102.34H442.439V149.328L456.358 175.592V240.574Z" fill="#9BB5C1"/>
<path d="M442.048 102.72C441.611 102.72 441.183 102.591 440.82 102.348C440.457 102.105 440.173 101.76 440.006 101.356C439.839 100.952 439.795 100.508 439.88 100.079C439.966 99.6508 440.176 99.2571 440.485 98.948C440.794 98.639 441.188 98.4285 441.617 98.3432C442.045 98.258 442.49 98.3017 442.893 98.469C443.297 98.6362 443.642 98.9195 443.885 99.2829C444.128 99.6463 444.257 100.074 444.257 100.511C444.257 101.097 444.025 101.659 443.61 102.073C443.196 102.488 442.634 102.72 442.048 102.72ZM442.048 99.0757C441.762 99.0757 441.483 99.1605 441.245 99.3194C441.008 99.4782 440.823 99.704 440.714 99.968C440.605 100.232 440.577 100.522 440.633 100.802C440.69 101.083 440.828 101.34 441.03 101.541C441.233 101.742 441.491 101.879 441.771 101.934C442.051 101.989 442.342 101.959 442.605 101.849C442.868 101.738 443.093 101.552 443.251 101.314C443.408 101.076 443.492 100.796 443.49 100.511C443.49 100.321 443.453 100.134 443.38 99.9597C443.308 99.7851 443.201 99.6266 443.067 99.4933C442.933 99.3599 442.774 99.2544 442.599 99.1827C442.424 99.1111 442.237 99.0747 442.048 99.0757Z" fill="#9BB5C1"/>
<path d="M451.484 240.574H450.717V178.593L434.305 149.559V118.445H435.072V149.351L451.484 178.393V240.574Z" fill="#9BB5C1"/>
<path d="M434.688 118.83C434.25 118.831 433.822 118.703 433.458 118.46C433.093 118.218 432.809 117.873 432.64 117.469C432.472 117.065 432.428 116.62 432.513 116.191C432.598 115.761 432.808 115.367 433.118 115.057C433.427 114.748 433.822 114.537 434.251 114.452C434.681 114.367 435.126 114.412 435.53 114.58C435.934 114.748 436.279 115.032 436.521 115.397C436.763 115.762 436.892 116.19 436.89 116.628C436.888 117.211 436.656 117.77 436.243 118.182C435.83 118.595 435.272 118.828 434.688 118.83ZM434.688 115.185C434.403 115.184 434.123 115.267 433.885 115.424C433.646 115.582 433.46 115.807 433.35 116.07C433.24 116.334 433.21 116.624 433.265 116.904C433.32 117.185 433.456 117.442 433.658 117.645C433.859 117.847 434.116 117.985 434.396 118.042C434.676 118.098 434.967 118.07 435.231 117.961C435.495 117.852 435.72 117.667 435.879 117.43C436.038 117.192 436.123 116.913 436.123 116.628C436.123 116.246 435.972 115.881 435.703 115.61C435.434 115.34 435.069 115.187 434.688 115.185Z" fill="#9BB5C1"/>
<path d="M34.8197 240.573H34.0524V190.316L13.543 162.326V132.785H14.3103V162.072L34.8197 190.071V240.573Z" fill="#9BB5C1"/>
<path d="M13.9245 133.201C13.4868 133.202 13.0585 133.074 12.6939 132.832C12.3293 132.589 12.0449 132.244 11.8767 131.84C11.7085 131.436 11.6641 130.991 11.7491 130.562C11.8341 130.132 12.0448 129.738 12.3543 129.428C12.6638 129.119 13.0582 128.908 13.4876 128.823C13.917 128.738 14.3619 128.783 14.766 128.951C15.1701 129.119 15.5151 129.404 15.7574 129.768C15.9996 130.133 16.1281 130.561 16.1266 130.999C16.1266 131.583 15.8946 132.143 15.4816 132.556C15.0686 132.969 14.5085 133.201 13.9245 133.201ZM13.9245 129.556C13.6389 129.555 13.3592 129.638 13.121 129.796C12.8828 129.953 12.6967 130.178 12.5863 130.441C12.476 130.705 12.4463 130.995 12.5011 131.275C12.5559 131.556 12.6927 131.813 12.8941 132.016C13.0955 132.218 13.3525 132.357 13.6325 132.413C13.9126 132.469 14.203 132.441 14.467 132.332C14.7311 132.223 14.9568 132.038 15.1156 131.801C15.2745 131.564 15.3593 131.284 15.3593 130.999C15.3593 130.617 15.2084 130.252 14.9395 129.981C14.6706 129.711 14.3057 129.558 13.9245 129.556Z" fill="#9BB5C1"/>
<path d="M29.5326 240.575H28.7653V193.701L8.25586 165.711V151.969H9.02314V165.458L29.5326 193.456V240.575Z" fill="#9BB5C1"/>
<path d="M8.65508 152.384C8.2177 152.384 7.79016 152.255 7.4266 152.011C7.06304 151.768 6.77981 151.423 6.61279 151.018C6.44576 150.614 6.40245 150.17 6.48834 149.741C6.57423 149.312 6.78545 148.918 7.09526 148.609C7.40507 148.301 7.79953 148.091 8.22869 148.006C8.65785 147.922 9.1024 147.967 9.50605 148.135C9.9097 148.304 10.2543 148.588 10.4962 148.953C10.7381 149.317 10.8664 149.745 10.8648 150.182C10.8628 150.767 10.6291 151.327 10.2149 151.74C9.80073 152.153 9.23982 152.384 8.65508 152.384ZM8.65508 148.74C8.36978 148.74 8.09089 148.824 7.85367 148.983C7.61645 149.141 7.43157 149.367 7.32239 149.63C7.21321 149.894 7.18464 150.184 7.2403 150.464C7.29596 150.744 7.43334 151.001 7.63508 151.202C7.83682 151.404 8.09384 151.541 8.37366 151.597C8.65347 151.653 8.94351 151.624 9.20709 151.515C9.47067 151.406 9.69596 151.221 9.85446 150.984C10.013 150.746 10.0976 150.468 10.0976 150.182C10.0976 149.8 9.94559 149.433 9.67507 149.162C9.40455 148.892 9.03765 148.74 8.65508 148.74Z" fill="#9BB5C1"/>
<path d="M39.906 158.93H39.1387V240.576H39.906V158.93Z" fill="#9BB5C1"/>
<path d="M39.5223 159.31C39.0849 159.31 38.6573 159.18 38.2938 158.937C37.9302 158.694 37.647 158.348 37.48 157.944C37.3129 157.54 37.2696 157.095 37.3555 156.666C37.4414 156.238 37.6526 155.844 37.9625 155.535C38.2723 155.226 38.6667 155.017 39.0959 154.932C39.525 154.848 39.9696 154.893 40.3732 155.061C40.7769 155.229 41.1215 155.514 41.3634 155.878C41.6052 156.243 41.7336 156.671 41.732 157.108C41.73 157.693 41.4963 158.253 41.0821 158.666C40.6679 159.078 40.107 159.31 39.5223 159.31ZM39.5223 155.666C39.237 155.666 38.9581 155.75 38.7209 155.909C38.4836 156.067 38.2988 156.292 38.1896 156.556C38.0804 156.82 38.0518 157.11 38.1075 157.39C38.1631 157.669 38.3005 157.926 38.5023 158.128C38.704 158.33 38.961 158.467 39.2408 158.523C39.5207 158.579 39.8107 158.55 40.0743 158.441C40.3379 158.332 40.5631 158.147 40.7217 157.909C40.8802 157.672 40.9648 157.393 40.9648 157.108C40.9648 156.725 40.8128 156.359 40.5423 156.088C40.2717 155.818 39.9048 155.666 39.5223 155.666Z" fill="#9BB5C1"/>
<path d="M44.8083 240.575H44.041V198.612L44.0794 198.52L57.9595 172.348V125.359H58.7268V172.532L58.6884 172.616L44.8083 198.796V240.575Z" fill="#9BB5C1"/>
<path d="M58.3445 125.74C57.9075 125.74 57.4803 125.61 57.1169 125.367C56.7535 125.125 56.4702 124.78 56.303 124.376C56.1357 123.972 56.092 123.528 56.1772 123.099C56.2625 122.67 56.473 122.277 56.782 121.968C57.091 121.658 57.4848 121.448 57.9134 121.363C58.3421 121.278 58.7864 121.321 59.1902 121.489C59.594 121.656 59.9391 121.939 60.1819 122.302C60.4247 122.666 60.5543 123.093 60.5543 123.53C60.5543 124.116 60.3215 124.678 59.9071 125.093C59.4927 125.507 58.9306 125.74 58.3445 125.74ZM58.3445 122.095C58.0589 122.095 57.7797 122.18 57.5423 122.339C57.305 122.498 57.1201 122.724 57.0111 122.988C56.9022 123.252 56.8741 123.542 56.9303 123.822C56.9866 124.102 57.1248 124.359 57.3273 124.56C57.5298 124.762 57.7875 124.899 58.0679 124.953C58.3482 125.008 58.6385 124.979 58.9019 124.868C59.1653 124.758 59.3901 124.572 59.5477 124.334C59.7052 124.095 59.7886 123.816 59.787 123.53C59.787 123.341 59.7497 123.154 59.6771 122.979C59.6045 122.805 59.4981 122.646 59.3641 122.513C59.23 122.379 59.0709 122.274 58.896 122.202C58.721 122.131 58.5336 122.094 58.3445 122.095Z" fill="#9BB5C1"/>
<path d="M49.6813 240.575H48.9141V201.413L48.9601 201.321L65.3262 172.371V141.465H66.0935V172.578L66.0398 172.663L49.6813 201.612V240.575Z" fill="#9BB5C1"/>
<path d="M65.7096 141.845C65.2719 141.847 64.8436 141.718 64.4791 141.476C64.1145 141.234 63.8301 140.889 63.6619 140.485C63.4937 140.081 63.4493 139.636 63.5343 139.206C63.6193 138.777 63.8299 138.383 64.1394 138.073C64.4489 137.764 64.8434 137.553 65.2727 137.468C65.7021 137.383 66.147 137.427 66.5511 137.595C66.9552 137.764 67.3003 138.048 67.5425 138.413C67.7847 138.777 67.9132 139.206 67.9117 139.643C67.9097 140.227 67.677 140.786 67.2645 141.198C66.852 141.611 66.293 141.843 65.7096 141.845ZM65.7096 138.201C65.424 138.199 65.1444 138.283 64.9061 138.44C64.6679 138.598 64.4818 138.822 64.3715 139.086C64.2611 139.349 64.2315 139.64 64.2862 139.92C64.341 140.2 64.4778 140.458 64.6792 140.66C64.8807 140.863 65.1377 141.001 65.4177 141.057C65.6977 141.114 65.9882 141.086 66.2522 140.977C66.5162 140.868 66.742 140.683 66.9008 140.445C67.0596 140.208 67.1444 139.929 67.1444 139.643C67.1444 139.262 66.9935 138.896 66.7247 138.626C66.4558 138.356 66.0909 138.203 65.7096 138.201Z" fill="#9BB5C1"/>
<path d="M487.439 50.7034L492.81 42.0715L490.17 40.4372C489.785 40.1982 489.476 39.8553 489.278 39.448C489.079 39.0407 489 38.5856 489.05 38.1353C489.091 37.6238 489.106 37.1123 489.096 36.6008C489.082 36.1554 489.193 35.715 489.415 35.3288C489.637 34.9427 489.962 34.6259 490.354 34.414L493.093 32.9408L488.206 24.0404L485.467 25.5135C485.071 25.7214 484.626 25.8156 484.181 25.7858C483.735 25.756 483.306 25.6033 482.942 25.3447C482.528 25.0608 482.098 24.7923 481.653 24.5774C481.258 24.3676 480.93 24.0518 480.705 23.6654C480.48 23.2791 480.367 22.8376 480.38 22.3907L480.479 19.2755L470.328 18.9609L470.228 22.0838C470.211 22.5307 470.07 22.9641 469.821 23.3354C469.572 23.7067 469.224 24.0013 468.817 24.1861C468.586 24.2936 468.364 24.401 468.149 24.5237C467.934 24.6465 467.712 24.7616 467.497 24.892C467.117 25.1255 466.68 25.2491 466.235 25.2491C465.789 25.2491 465.352 25.1255 464.972 24.892L462.31 23.2424L456.939 31.8743L459.586 33.524C459.972 33.7623 460.281 34.1051 460.48 34.5126C460.678 34.9201 460.757 35.3755 460.706 35.8258C460.663 36.3361 460.648 36.8484 460.66 37.3604C460.672 37.8073 460.56 38.2488 460.337 38.6361C460.113 39.0234 459.787 39.3413 459.394 39.5548L456.701 40.9206L461.504 49.8748L464.244 48.4093C464.638 48.2003 465.083 48.1048 465.528 48.1332C465.974 48.1617 466.403 48.313 466.768 48.5704C467.183 48.8492 467.614 49.1054 468.057 49.3377C468.452 49.5475 468.78 49.8633 469.005 50.2497C469.23 50.636 469.343 51.0775 469.331 51.5244L469.239 54.6396L479.39 54.9542L479.489 51.839C479.506 51.393 479.647 50.9604 479.897 50.5903C480.146 50.2202 480.494 49.9271 480.901 49.7443L481.569 49.4067L482.221 49.0308C482.602 48.7975 483.04 48.674 483.487 48.674C483.934 48.674 484.372 48.7975 484.753 49.0308L487.439 50.7034ZM478.845 44.2966C477.394 45.074 475.744 45.4036 474.106 45.2437C472.467 45.0838 470.913 44.4416 469.639 43.3983C468.365 42.355 467.429 40.9575 466.95 39.3824C466.471 37.8073 466.469 36.1255 466.945 34.5494C467.422 32.9734 468.355 31.574 469.626 30.5282C470.898 29.4824 472.451 28.8371 474.089 28.674C475.728 28.5108 477.378 28.8371 478.83 29.6117C480.283 30.3862 481.474 31.5741 482.252 33.0252C482.767 33.9913 483.086 35.0494 483.192 36.1391C483.297 37.2288 483.187 38.3286 482.867 39.3755C482.547 40.4225 482.024 41.3961 481.327 42.2405C480.63 43.0849 479.774 43.7836 478.807 44.2966H478.845Z" fill="#9BB5C1"/>
<path d="M20.3018 127.438L26.4401 123.878L25.3506 121.991C25.1945 121.719 25.1175 121.409 25.1284 121.096C25.1392 120.782 25.2375 120.479 25.4119 120.218C25.6063 119.922 25.7828 119.615 25.9414 119.297C26.0837 119.013 26.3031 118.775 26.5744 118.609C26.8457 118.444 27.1581 118.358 27.4759 118.361H29.655V111.241H27.4759C27.1581 111.244 26.8457 111.159 26.5744 110.993C26.3031 110.828 26.0837 110.589 25.9414 110.305C25.7828 109.988 25.6063 109.681 25.4119 109.384C25.2375 109.124 25.1392 108.82 25.1284 108.507C25.1175 108.194 25.1945 107.884 25.3506 107.612L26.4401 105.724L20.3018 102.164L19.2123 104.059C19.0581 104.326 18.8331 104.544 18.5622 104.691C18.2913 104.837 17.9851 104.905 17.6777 104.888H16.5959C16.2895 104.904 15.9845 104.836 15.714 104.692C15.4435 104.547 15.2178 104.331 15.0613 104.067L13.9641 102.164L7.82582 105.724L8.91537 107.619C9.07144 107.891 9.14839 108.201 9.13755 108.514C9.1267 108.828 9.02848 109.132 8.85398 109.392C8.66115 109.686 8.48442 109.991 8.32456 110.305C8.1822 110.589 7.96285 110.828 7.69152 110.993C7.42019 111.159 7.1078 111.244 6.78999 111.241H4.58789V118.361H6.76697C7.08478 118.358 7.39717 118.444 7.6685 118.609C7.93983 118.775 8.15918 119.013 8.30154 119.297C8.4614 119.611 8.63814 119.916 8.83096 120.211C9.00529 120.472 9.10336 120.778 9.1142 121.092C9.12504 121.406 9.04823 121.717 8.89235 121.991L7.80281 123.878L13.9411 127.438L15.0383 125.543C15.1944 125.278 15.4198 125.061 15.6903 124.915C15.9607 124.769 16.2659 124.7 16.5729 124.715C16.7417 124.715 16.9181 124.715 17.0946 124.715C17.2711 124.715 17.4476 124.715 17.624 124.715C17.9309 124.701 18.2357 124.77 18.506 124.916C18.7763 125.062 19.0018 125.279 19.1586 125.543L20.3018 127.438ZM17.0946 120.633C15.9416 120.631 14.8149 120.288 13.857 119.646C12.899 119.004 12.1528 118.093 11.7126 117.027C11.2724 115.962 11.158 114.79 11.3839 113.659C11.6098 112.528 12.1658 111.49 12.9816 110.675C13.7974 109.86 14.8365 109.306 15.9675 109.081C17.0984 108.857 18.2705 108.973 19.3356 109.414C20.4007 109.856 21.311 110.603 21.9514 111.562C22.5918 112.521 22.9336 113.648 22.9336 114.801C22.9346 115.568 22.7842 116.327 22.4911 117.036C22.1979 117.744 21.7677 118.388 21.2252 118.93C20.6827 119.471 20.0386 119.901 19.3297 120.193C18.6209 120.485 17.8613 120.635 17.0946 120.633Z" fill="#9BB5C1"/>
<path d="M456.044 56.9504L452.492 50.8122L450.612 51.8787C450.339 52.0346 450.028 52.1114 449.713 52.1005C449.399 52.0897 449.094 51.9916 448.832 51.8173C448.536 51.6228 448.228 51.446 447.911 51.2879C447.627 51.1455 447.388 50.9262 447.223 50.6548C447.057 50.3835 446.972 50.0711 446.975 49.7533V47.5742H439.87V49.7533C439.873 50.0711 439.787 50.3835 439.622 50.6548C439.456 50.9262 439.218 51.1455 438.934 51.2879C438.615 51.4476 438.305 51.6244 438.005 51.8173C437.745 51.9918 437.441 52.09 437.128 52.1009C436.815 52.1117 436.505 52.0347 436.233 51.8787L434.345 50.7891L430.793 56.9274L432.688 58.0169C432.957 58.178 433.177 58.4099 433.323 58.6873C433.469 58.9647 433.536 59.2769 433.517 59.5899C433.517 59.7663 433.517 59.9428 433.517 60.1116C433.517 60.2804 433.517 60.4646 433.517 60.641C433.532 60.9482 433.463 61.2537 433.317 61.5243C433.171 61.7948 432.954 62.0201 432.688 62.1756L430.793 63.2728L434.345 69.4111L436.241 68.3216C436.512 68.1655 436.822 68.0885 437.136 68.0994C437.449 68.1102 437.753 68.2084 438.013 68.3829C438.315 68.5773 438.622 68.7538 438.934 68.9124C439.218 69.0547 439.456 69.2741 439.622 69.5454C439.787 69.8167 439.873 70.1291 439.87 70.4469V72.626H446.983V70.4469C446.979 70.1291 447.065 69.8167 447.231 69.5454C447.396 69.2741 447.635 69.0547 447.919 68.9124C448.236 68.7487 448.543 68.5722 448.839 68.3829C449.1 68.2084 449.404 68.1102 449.717 68.0994C450.03 68.0885 450.34 68.1655 450.612 68.3216L452.507 69.4111L456.06 63.2728L454.164 62.1833C453.901 62.0262 453.686 61.8003 453.541 61.53C453.396 61.2596 453.328 60.955 453.343 60.6487C453.343 60.4723 453.343 60.2958 453.343 60.1193C453.343 59.9428 453.343 59.774 453.343 59.5975C453.323 59.2845 453.39 58.9719 453.536 58.6944C453.683 58.4168 453.903 58.1851 454.172 58.0246L456.044 56.9504ZM449.238 60.104C449.238 61.2576 448.896 62.3853 448.255 63.3445C447.614 64.3036 446.703 65.051 445.637 65.4921C444.571 65.9333 443.398 66.0483 442.267 65.8227C441.135 65.5971 440.096 65.0409 439.281 64.2246C438.466 63.4083 437.911 62.3686 437.687 61.2369C437.463 60.1052 437.579 58.9325 438.022 57.8671C438.464 56.8017 439.213 55.8915 440.173 55.2516C441.133 54.6118 442.261 54.2711 443.415 54.2726C444.18 54.2726 444.938 54.4235 445.645 54.7166C446.352 55.0098 446.995 55.4394 447.535 55.981C448.076 56.5226 448.505 57.1655 448.797 57.873C449.09 58.5804 449.239 59.3385 449.238 60.104Z" fill="#9BB5C1"/>
<path d="M36.6623 182.152C31.7593 172.077 23.1811 166.906 13.5134 169.768C3.84558 172.63 2.34938 186.103 9.56184 189.51C16.7743 192.917 24.0021 182.973 27.8385 180.932C31.6749 178.891 36.6623 182.152 36.6623 182.152Z" fill="#C0E0B9"/>
<path d="M41.403 208.952C41.403 207.739 41.3339 206.52 41.2879 205.307C41.206 202.883 41.1191 200.458 41.027 198.033C40.8812 193.606 40.3901 189.263 38.5793 185.166C36.9572 181.46 34.2464 178.334 30.8068 176.204C29.5235 175.421 28.1365 174.822 26.6865 174.424C25.3853 173.103 23.7265 172.191 21.914 171.8C19.6754 171.345 17.3742 171.288 15.1158 171.631C15.1023 171.636 15.0905 171.645 15.0822 171.656C15.0739 171.668 15.0695 171.682 15.0695 171.696C15.0695 171.711 15.0739 171.725 15.0822 171.736C15.0905 171.748 15.1023 171.757 15.1158 171.762C17.2678 171.481 19.4541 171.635 21.5457 172.214C22.4423 172.463 23.3113 172.802 24.1391 173.227C24.6737 173.505 25.1866 173.823 25.6736 174.179C23.0101 173.589 20.229 173.844 17.7169 174.907C17.1879 174.793 16.6464 174.747 16.1056 174.769C15.3985 174.792 14.6961 174.892 14.0109 175.069C12.6123 175.464 11.2749 176.05 10.0364 176.81C9.96736 176.849 10.0364 176.956 10.1055 176.918C11.323 176.252 12.6271 175.759 13.9803 175.452C14.6371 175.306 15.3039 175.208 15.9752 175.161C16.3489 175.151 16.7228 175.162 17.0954 175.191C14.3433 176.466 12.1308 178.673 10.8497 181.422C10.8497 181.498 10.9265 181.56 10.9572 181.483C11.7199 179.889 12.832 178.487 14.2108 177.382C15.5896 176.277 17.1998 175.497 18.9216 175.099C19.1364 175.046 19.3512 175.015 19.5737 174.977C19.4956 175.3 19.4367 175.628 19.3973 175.959C19.3359 176.45 19.2515 176.933 19.1517 177.416C18.9573 178.416 18.701 179.403 18.3845 180.371C18.0555 181.346 17.6634 182.3 17.2105 183.225C16.7775 184.207 16.2288 185.135 15.5762 185.987C15.5148 186.056 15.6299 186.14 15.6759 186.064C16.2591 185.151 16.9343 184.314 17.4637 183.371C17.9785 182.47 18.4223 181.531 18.7911 180.562C19.1612 179.583 19.4487 178.574 19.6505 177.547C19.7579 177.002 19.8423 176.457 19.9037 175.905C19.9699 175.577 19.9906 175.241 19.9651 174.907C21.1026 174.732 22.2582 174.707 23.4025 174.831C22.9728 177.24 22.5124 179.741 21.162 181.828C21.116 181.897 21.2387 181.966 21.2771 181.89C21.9062 180.782 22.4599 179.634 22.9344 178.452C23.3815 177.307 23.6606 176.102 23.7631 174.877C25.7601 175.142 27.6877 175.788 29.441 176.78C32.7428 178.7 35.3796 181.584 36.9987 185.043C38.6992 188.771 39.6508 192.796 39.7993 196.89C40.1216 202.046 40.1906 207.225 40.7047 212.359C40.7047 212.696 41.2648 212.811 41.3339 212.428C41.4665 211.274 41.4896 210.11 41.403 208.952Z" fill="#263238"/>
<path d="M30.0793 175.405C29.7533 175.014 29.3766 174.668 28.9591 174.377C28.5601 174.047 28.1458 173.725 27.7161 173.433C26.8687 172.841 25.9269 172.397 24.9309 172.121C24.8541 172.121 24.8234 172.229 24.9309 172.244C25.9264 172.516 26.8524 172.997 27.647 173.656C28.0614 173.955 28.4143 174.277 28.8363 174.615C29.176 174.973 29.5543 175.292 29.9642 175.566C29.9856 175.581 30.0122 175.588 30.0381 175.583C30.064 175.579 30.0871 175.565 30.1023 175.543C30.1176 175.522 30.1238 175.495 30.1194 175.469C30.1151 175.443 30.1007 175.42 30.0793 175.405Z" fill="#263238"/>
<path d="M14.4345 179.027C13.6222 179.971 12.8713 180.965 12.1863 182.004C11.5124 183.047 10.9517 184.158 10.5137 185.319C10.5137 185.357 10.5137 185.373 10.5674 185.319C11.6885 183.125 13.0141 181.042 14.5266 179.096C14.5803 179.089 14.4805 179.027 14.4345 179.027Z" fill="#263238"/>
<path d="M24.9768 178.06C24.8736 178.69 24.6879 179.304 24.4244 179.886C24.1544 180.447 23.8414 180.985 23.4883 181.498C23.4883 181.498 23.4883 181.567 23.5497 181.544C24.3907 180.569 24.9246 179.368 25.0842 178.091C25.1149 178.014 24.9922 177.983 24.9768 178.06Z" fill="#263238"/>
<path d="M40.7227 182.408C40.7227 182.408 47.6282 173.684 61.0633 176.776C73.7926 179.715 79.6699 203.064 66.8026 205.857C53.9353 208.649 56.2064 187.043 51.5183 183.375C48.0732 180.69 43.1243 181.265 40.7227 182.408Z" fill="#C0E0B9"/>
<path d="M71.4059 189.525C70.5348 188.756 69.6119 188.049 68.6436 187.407C67.7378 186.783 66.7485 186.29 65.705 185.942C65.1833 185.146 64.5983 184.394 63.9555 183.693C62.777 182.422 61.4139 181.336 59.912 180.471H60.311C61.0189 180.433 61.7284 180.433 62.4363 180.471C63.8657 180.561 65.267 180.909 66.572 181.499C66.6487 181.499 66.7024 181.415 66.6257 181.384C65.3014 180.814 63.9165 180.397 62.4977 180.141C61.8062 180.018 61.1053 179.956 60.403 179.957C60.0271 179.957 59.6357 179.957 59.2828 180.026H59.0679C57.8469 179.409 56.5598 178.933 55.2315 178.606L55.6075 178.507C56.2637 178.362 56.927 178.252 57.5948 178.177C58.9281 178.036 60.2738 178.064 61.6 178.261C61.6844 178.261 61.7074 178.146 61.6 178.138C60.256 177.977 58.9013 177.923 57.5487 177.977C56.4138 178.005 55.2848 178.152 54.1804 178.415C53.3742 178.266 52.5591 178.171 51.7404 178.131C47.0676 177.939 41.9729 179.665 39.0956 183.502C36.2183 187.338 35.6581 192.471 35.1517 197.113C34.367 203.571 34.1949 210.089 34.6377 216.579C34.6377 216.963 35.2054 216.894 35.2208 216.533C35.3973 211.024 35.5891 205.523 36.1185 200.037C36.3564 197.489 36.6326 194.942 37.0546 192.425C37.3613 190.26 37.9816 188.151 38.8961 186.164C39.8886 184.129 41.4645 182.436 43.423 181.3C45.3849 180.179 47.57 179.506 49.8222 179.328C51.8451 179.162 53.8815 179.354 55.8377 179.895C55.7767 180.287 55.7767 180.686 55.8377 181.077C55.8844 181.574 55.9821 182.065 56.1293 182.543C56.2777 182.99 56.4651 183.424 56.6894 183.839C56.9426 184.3 57.2495 184.714 57.5334 185.151C57.5334 185.22 57.6868 185.151 57.6331 185.075C57.0833 184.289 56.7282 183.385 56.5973 182.435C56.5125 181.984 56.4587 181.528 56.4362 181.069C56.4362 180.724 56.4362 180.379 56.4362 180.034C58.5625 180.681 60.5484 181.722 62.2905 183.103C62.6128 183.364 62.9274 183.64 63.2343 183.924C62.7911 184.33 62.4086 184.797 62.0987 185.312C61.6106 185.99 61.1867 186.712 60.8327 187.468C60.2125 188.959 59.7944 190.525 59.5897 192.126C59.5944 192.139 59.6032 192.151 59.6149 192.159C59.6266 192.168 59.6406 192.172 59.6549 192.172C59.6693 192.172 59.6832 192.168 59.6949 192.159C59.7066 192.151 59.7154 192.139 59.7201 192.126C59.9718 190.577 60.4911 189.084 61.2547 187.714C61.6108 187.036 62.008 186.38 62.444 185.75C62.6742 185.428 62.9044 185.105 63.1499 184.798C63.2803 184.637 63.4261 184.468 63.5489 184.284C65.1243 185.834 66.4105 187.653 67.3469 189.655C66.7112 190.323 66.1808 191.084 65.774 191.911C65.2923 192.775 64.8743 193.672 64.5233 194.597C63.873 196.379 63.3374 198.201 62.9197 200.052C62.9244 200.065 62.9332 200.077 62.9449 200.086C62.9566 200.094 62.9706 200.098 62.9849 200.098C62.9993 200.098 63.0133 200.094 63.0249 200.086C63.0366 200.077 63.0454 200.065 63.0501 200.052C63.4593 198.191 64.0958 196.387 64.9453 194.681C65.3443 193.845 65.774 193.016 66.219 192.203C66.6805 191.446 67.1006 190.665 67.4774 189.862C68.3712 191.815 68.8917 193.918 69.0119 196.062C69.0119 196.146 69.1424 196.139 69.1424 196.062C68.8951 192.697 67.8651 189.436 66.1346 186.54C66.9479 186.885 67.7689 187.223 68.5592 187.645C69.5644 188.18 70.4998 188.838 71.3445 189.602C71.3828 189.678 71.4672 189.579 71.4059 189.525Z" fill="#263238"/>
<path d="M70.0389 186.737C69.5113 186.227 68.9115 185.798 68.2588 185.463C67.5973 185.166 66.912 184.925 66.2102 184.742C66.1334 184.742 66.1027 184.85 66.2102 184.865C66.9007 185.047 67.5638 185.321 68.1821 185.678C68.8178 186.006 69.4282 186.38 70.0082 186.799C70.0389 186.829 70.108 186.768 70.0389 186.737Z" fill="#263238"/>
<path d="M47.3203 170.75C47.3203 170.75 48.6017 155.082 60.249 150.034C69.9782 145.79 75.5487 156.724 68.6891 163.415C63.134 168.801 54.1875 166.354 47.3203 170.75Z" fill="#C0E0B9"/>
<path d="M66.5169 153.035C64.7442 153.752 63.0149 154.572 61.3378 155.49C59.9399 156.294 58.5945 157.186 57.3095 158.16C57.5014 157.769 57.6702 157.347 57.8696 156.963C58.1694 156.356 58.4998 155.764 58.8594 155.191C59.5734 154.005 60.4345 152.915 61.4222 151.945C61.4836 151.884 61.4222 151.799 61.3301 151.853C60.3485 152.829 59.4454 153.881 58.6293 154.999C58.2261 155.567 57.8571 156.159 57.5244 156.771C57.1833 157.332 56.9249 157.94 56.7571 158.574C56.711 158.613 56.665 158.636 56.6266 158.674C54.5932 160.295 52.7293 162.117 51.0638 164.114C51.0638 163.961 51.1252 163.807 51.1636 163.669C51.3861 162.902 51.624 162.135 51.8695 161.367C52.3678 159.747 53.0772 158.199 53.9795 156.764C54.0256 156.695 53.9105 156.633 53.8644 156.702C52.9482 158.13 52.1328 159.619 51.4245 161.16C51.1162 161.909 50.8598 162.678 50.6572 163.462C50.4916 163.976 50.3659 164.502 50.2812 165.035C49.7748 165.68 49.2761 166.332 48.8004 166.999C43.8053 174.12 41.2887 182.729 40.6902 191.345C40.5124 193.917 40.4689 196.496 40.5597 199.072C40.5758 201.667 40.8042 204.256 41.2426 206.814C41.2426 206.975 41.5265 206.929 41.5265 206.768C41.4651 204.504 41.2349 202.248 41.1889 199.985C41.1429 197.721 41.1889 195.442 41.4037 193.179C41.7715 188.655 42.6255 184.184 43.9511 179.844C45.3052 175.401 47.3007 171.18 49.8746 167.314C50.3656 167.214 50.849 167.084 51.3324 166.953C51.8158 166.823 52.4987 166.654 53.0741 166.493C54.194 166.209 55.2817 165.811 56.3197 165.304C56.3268 165.299 56.333 165.294 56.338 165.288C56.3429 165.281 56.3466 165.274 56.3487 165.266C56.3509 165.258 56.3514 165.25 56.3504 165.242C56.3494 165.234 56.3468 165.226 56.3428 165.219C56.3387 165.212 56.3333 165.206 56.3269 165.201C56.3205 165.196 56.3132 165.192 56.3053 165.19C56.2975 165.188 56.2893 165.187 56.2812 165.188C56.2732 165.189 56.2654 165.192 56.2584 165.196C55.2284 165.753 54.1137 166.137 52.959 166.332C52.0536 166.516 51.1022 166.631 50.1891 166.838C51.0331 165.61 51.9309 164.421 52.8977 163.278C55.1194 163.48 57.3593 163.314 59.527 162.787C60.679 162.507 61.8119 162.154 62.9184 161.728C64.0846 161.283 65.2202 160.7 66.3404 160.193C66.4325 160.155 66.3404 160.025 66.2944 160.071C64.2077 161.21 61.9294 161.957 59.573 162.273C57.4943 162.603 55.3937 162.778 53.289 162.795C54.1176 161.843 54.9693 160.915 55.8824 160.048C58.9515 157.132 62.5731 154.454 66.6243 153.058C66.632 153.134 66.5937 153.004 66.5169 153.035Z" fill="#263238"/>
<path d="M57.0334 153.087C56.5083 153.747 56.0313 154.445 55.6063 155.174C55.1728 155.943 54.8278 156.759 54.5781 157.606H54.6242C55.0155 156.839 55.3454 156.072 55.7367 155.304C56.1236 154.551 56.5891 153.841 57.1255 153.187C57.1792 153.11 57.0871 153.018 57.0334 153.087Z" fill="#263238"/>
<path d="M38.2563 167.934C38.1873 168.609 36.4993 162.24 26.6473 156.593C17.7008 151.46 7.02025 138.102 15.7903 129.669C22.8723 122.863 41.525 137.703 38.2563 167.934Z" fill="#C0E0B9"/>
<path d="M45.0402 204.435C44.9048 197.807 44.3925 191.193 43.5057 184.624C42.7289 178.589 41.3354 172.65 39.347 166.899C38.5797 164.828 37.8124 162.787 36.8687 160.761C36.9303 159.98 36.9303 159.195 36.8687 158.413C36.815 157.408 36.7229 156.411 36.6308 155.413C36.5387 154.416 36.439 153.41 36.3239 152.413C36.2088 151.416 35.9863 150.418 35.9479 149.421C35.9479 149.336 35.8021 149.352 35.8252 149.421C36.0197 150.467 36.1377 151.526 36.1781 152.59C36.2548 153.556 36.3085 154.523 36.3392 155.497C36.3699 156.472 36.3392 157.431 36.3392 158.406C36.3392 158.751 36.3392 159.127 36.3392 159.495C35.4108 157.538 34.421 155.613 33.3468 153.733C34.0144 149.651 33.1473 145.385 32.311 141.387C32.311 141.31 32.1729 141.349 32.1882 141.426C32.5973 143.511 32.8156 145.63 32.8404 147.756C32.8404 149.436 32.7944 151.109 32.7944 152.789C32.5565 152.382 32.3187 151.983 32.0731 151.584C30.7995 149.497 29.4363 147.451 27.9835 145.446C28.1026 144.478 28.0715 143.497 27.8915 142.538C27.7274 141.464 27.489 140.403 27.1779 139.362C26.8662 138.321 26.5026 137.297 26.0883 136.292C25.6587 135.257 25.0909 134.274 24.6765 133.223C24.6765 133.139 24.5154 133.223 24.5614 133.277C25.0867 134.251 25.5011 135.28 25.7968 136.346C26.122 137.353 26.391 138.378 26.6024 139.415C26.8096 140.459 26.9784 141.495 27.1242 142.546C27.2239 143.236 27.2853 143.958 27.4004 144.656C25.2909 141.821 22.9833 139.139 20.4948 136.63C20.4411 136.569 20.3567 136.63 20.4104 136.722C24.1498 140.943 27.4891 145.503 30.3851 150.341C30.4925 150.526 30.6 150.71 30.6997 150.894C30.1626 150.556 29.5411 150.28 29.027 149.996C28.0756 149.467 27.1165 148.945 26.1574 148.462L23.3645 146.927C22.8888 146.658 22.4131 146.382 21.9297 146.16C21.3381 145.911 20.7683 145.613 20.2263 145.27C20.1572 145.216 20.0728 145.331 20.1496 145.377C21.101 145.899 21.9373 146.674 22.8581 147.257C23.7788 147.84 24.7149 148.408 25.6663 148.937C27.4157 149.919 29.3186 150.618 31.0373 151.63C32.2343 153.725 33.3392 155.873 34.352 158.06C33.3085 157.385 32.2343 156.756 31.1524 156.142C30.4542 155.751 29.756 155.375 29.0501 154.999C28.3464 154.671 27.6822 154.264 27.0705 153.786C27.0091 153.733 26.9247 153.786 26.9784 153.879C28.1268 154.913 29.4002 155.8 30.7688 156.518C32.0348 157.285 33.3085 157.968 34.6052 158.613C35.6589 160.92 36.6078 163.27 37.4518 165.664C41.6028 177.403 43.122 189.864 43.8509 202.248C44.0735 205.939 44.1809 209.622 44.2269 213.32C44.2729 217.018 44.0811 220.701 44.0888 224.384C44.0888 224.499 44.2653 224.522 44.2806 224.384C44.7256 221.116 44.8024 217.786 44.9482 214.486C45.0939 211.187 45.117 207.788 45.0402 204.435Z" fill="#263238"/>
<path d="M27.1408 151.284C25.3437 150.487 23.5963 149.583 21.908 148.575C20.1965 147.612 18.5369 146.559 16.936 145.422C16.936 145.422 16.8823 145.422 16.936 145.468C18.4469 146.687 20.0388 147.802 21.7008 148.806C23.4344 149.785 25.2283 150.654 27.0718 151.407C27.1562 151.407 27.2176 151.315 27.1408 151.284Z" fill="#263238"/>
<path d="M29.995 138.008C29.8492 137.432 29.6728 136.872 29.4809 136.312C29.4863 136.303 29.4892 136.292 29.4892 136.281C29.4892 136.271 29.4863 136.26 29.4809 136.251C29.3582 135.928 29.2277 135.614 29.0973 135.299L29.0513 135.184C29.0513 135.123 28.9976 135.069 28.9745 135.008C28.9515 134.946 28.9362 135.008 28.9745 135.008C29.0129 135.008 29.0359 135.223 29.0743 135.338C29.0861 135.397 29.1015 135.456 29.1203 135.514C29.7706 137.703 30.2579 139.937 30.5782 142.197C30.5782 142.266 30.6933 142.266 30.6933 142.197C30.5946 140.782 30.3608 139.379 29.995 138.008Z" fill="#263238"/>
<path d="M55.4529 206.812L54.747 215.145L52.5986 240.558H29.5418L27.3934 215.145L26.6875 206.812H55.4529Z" fill="#37474F"/>
<path d="M55.4529 206.812L54.747 215.145H27.3934L26.6875 206.812H55.4529Z" fill="#263238"/>
<path d="M57.7144 203.477H24.4297V211.472H57.7144V203.477Z" fill="#37474F"/>
<path d="M0 240.559L62.2036 240.375L124.407 240.306L248.815 240.176L373.222 240.306L435.425 240.375L497.629 240.559L435.425 240.751L373.222 240.813L248.815 240.943L124.407 240.813L62.2036 240.744L0 240.559Z" fill="#263238"/>
<path d="M429.089 17.1914H67.2461V259.239H429.089V17.1914Z" fill="#EBEBEB"/>
<path d="M426.456 20.1445H69.877V256.284H426.456V20.1445Z" fill="#263238"/>
<path d="M476.215 277.387H20.1191V293.998H476.215V277.387Z" fill="#9BB5C1"/>
<path d="M20.1191 277.385L67.2533 259.238H429.089L476.223 277.385H20.1191Z" fill="#EBEBEB"/>
<path d="M71.459 270.947L101.874 259.238H394.47L424.885 270.947H71.459Z" fill="#263238"/>
<path d="M406.317 38.0859H90.0352V238.347H406.317V38.0859Z" fill="white"/>
<path d="M406.314 38.0859H89.7637V45.7895H406.314V38.0859Z" fill="#455A64"/>
<path d="M95.8894 41.934C95.8894 42.3118 95.7774 42.6812 95.5674 42.9954C95.3575 43.3096 95.0591 43.5545 94.71 43.6991C94.3609 43.8437 93.9768 43.8815 93.6062 43.8078C93.2356 43.7341 92.8951 43.5521 92.6279 43.2849C92.3607 43.0177 92.1788 42.6773 92.1051 42.3067C92.0314 41.9361 92.0692 41.552 92.2138 41.2028C92.3584 40.8537 92.6033 40.5554 92.9175 40.3454C93.2317 40.1355 93.601 40.0234 93.9789 40.0234C94.4856 40.0234 94.9716 40.2247 95.3298 40.583C95.6881 40.9413 95.8894 41.4273 95.8894 41.934Z" fill="#C7C7C7"/>
<path d="M103.692 41.934C103.692 42.3119 103.58 42.6812 103.37 42.9954C103.16 43.3096 102.862 43.5545 102.513 43.6991C102.164 43.8437 101.78 43.8815 101.409 43.8078C101.038 43.7341 100.698 43.5521 100.431 43.2849C100.163 43.0178 99.9815 42.6773 99.9078 42.3067C99.8341 41.9361 99.8719 41.552 100.017 41.2029C100.161 40.8538 100.406 40.5554 100.72 40.3454C101.034 40.1355 101.404 40.0235 101.782 40.0235C102.033 40.0224 102.282 40.0712 102.514 40.1668C102.746 40.2625 102.957 40.4032 103.135 40.5808C103.312 40.7584 103.453 40.9694 103.549 41.2017C103.644 41.4339 103.693 41.6828 103.692 41.934Z" fill="white"/>
<path d="M111.471 41.934C111.471 42.3119 111.359 42.6812 111.149 42.9954C110.94 43.3096 110.641 43.5545 110.292 43.6991C109.943 43.8437 109.559 43.8815 109.188 43.8078C108.818 43.7341 108.477 43.5521 108.21 43.2849C107.943 43.0178 107.761 42.6773 107.687 42.3067C107.613 41.9361 107.651 41.552 107.796 41.2029C107.94 40.8538 108.185 40.5554 108.499 40.3454C108.814 40.1355 109.183 40.0235 109.561 40.0235C109.812 40.0224 110.061 40.0712 110.293 40.1668C110.526 40.2625 110.737 40.4032 110.914 40.5808C111.092 40.7584 111.232 40.9694 111.328 41.2017C111.424 41.4339 111.472 41.6828 111.471 41.934Z" fill="#FFC727"/>
<path d="M406.316 45.7891H400.699V238.339H406.316V45.7891Z" fill="#9BB5C1"/>
<path d="M403.499 112.544C403.114 112.544 402.745 112.391 402.474 112.119C402.202 111.847 402.049 111.478 402.049 111.094V48.3681C402.049 47.9835 402.202 47.6147 402.474 47.3427C402.745 47.0708 403.114 46.918 403.499 46.918C403.884 46.918 404.252 47.0708 404.524 47.3427C404.796 47.6147 404.949 47.9835 404.949 48.3681V111.094C404.949 111.478 404.796 111.847 404.524 112.119C404.252 112.391 403.884 112.544 403.499 112.544Z" fill="#A6A6A6"/>
<path d="M362.051 95.7305H135.58V130.059H362.051V95.7305Z" fill="white"/>
<path d="M362.436 130.436H135.197V95.3477H362.436V130.436ZM135.965 129.668H361.669V96.1149H135.965V129.668Z" fill="#DBDBDB"/>
<path d="M155.577 105.031C156.017 106.304 156.318 107.622 156.474 108.96C156.807 111.571 156.807 114.213 156.474 116.824C156.315 118.163 156.011 119.48 155.569 120.753C155.123 119.481 154.819 118.163 154.663 116.824C154.336 114.213 154.336 111.571 154.663 108.96C154.829 107.622 155.135 106.305 155.577 105.031Z" fill="#455A64"/>
<path d="M163.435 112.886C162.164 113.338 160.846 113.647 159.506 113.806C158.203 113.972 156.891 114.054 155.578 114.052C154.264 114.058 152.952 113.976 151.649 113.806C150.308 113.651 148.987 113.348 147.713 112.901C148.989 112.462 150.309 112.158 151.649 111.996C152.952 111.83 154.264 111.748 155.578 111.75C156.891 111.754 158.203 111.839 159.506 112.003C160.844 112.154 162.161 112.449 163.435 112.886Z" fill="#455A64"/>
<path d="M161.13 107.332C160.541 108.544 159.823 109.689 158.989 110.746C158.188 111.787 157.319 112.774 156.388 113.7C155.46 114.632 154.473 115.504 153.434 116.309C152.373 117.144 151.226 117.861 150.012 118.45C150.6 117.236 151.318 116.088 152.152 115.028C152.958 113.989 153.829 113.002 154.761 112.074C155.691 111.147 156.678 110.278 157.715 109.473C158.774 108.64 159.919 107.923 161.13 107.332Z" fill="#455A64"/>
<path d="M161.131 118.454C159.921 117.863 158.776 117.145 157.717 116.313C156.678 115.507 155.691 114.636 154.763 113.704C153.824 112.776 152.947 111.787 152.139 110.742C151.304 109.682 150.587 108.535 149.998 107.32C151.214 107.906 152.361 108.624 153.42 109.461C155.502 111.07 157.369 112.939 158.975 115.024C159.816 116.086 160.539 117.236 161.131 118.454Z" fill="#455A64"/>
<path d="M186.222 105.031C186.662 106.304 186.963 107.622 187.119 108.96C187.284 110.263 187.368 111.575 187.372 112.888C187.375 114.204 187.293 115.519 187.127 116.824C186.964 118.162 186.66 119.479 186.222 120.753C185.776 119.481 185.472 118.163 185.316 116.824C185.147 115.519 185.064 114.204 185.071 112.888C185.069 111.575 185.151 110.263 185.316 108.96C185.475 107.621 185.779 106.304 186.222 105.031Z" fill="#455A64"/>
<path d="M194.077 112.889C192.805 113.336 191.488 113.64 190.149 113.795C188.846 113.96 187.534 114.042 186.22 114.04C184.904 114.046 183.589 113.964 182.284 113.795C180.945 113.639 179.628 113.335 178.355 112.889C179.63 112.451 180.946 112.147 182.284 111.984C183.589 111.818 184.904 111.736 186.22 111.738C187.534 111.743 188.845 111.827 190.149 111.992C191.487 112.148 192.804 112.449 194.077 112.889Z" fill="#455A64"/>
<path d="M191.776 107.332C191.187 108.544 190.47 109.689 189.635 110.746C188.834 111.787 187.965 112.774 187.034 113.7C186.106 114.632 185.12 115.504 184.08 116.309C183.02 117.144 181.872 117.861 180.658 118.45C181.247 117.236 181.965 116.088 182.799 115.028C183.605 113.989 184.476 113.002 185.408 112.074C186.334 111.143 187.321 110.274 188.362 109.473C189.42 108.639 190.564 107.921 191.776 107.332Z" fill="#455A64"/>
<path d="M191.777 118.454C190.565 117.865 189.42 117.147 188.362 116.313C187.32 115.511 186.333 114.64 185.408 113.704C184.485 112.775 183.624 111.785 182.83 110.742C181.996 109.682 181.278 108.535 180.689 107.32C181.905 107.906 183.053 108.624 184.112 109.461C186.194 111.07 188.061 112.939 189.667 115.024C190.491 116.088 191.199 117.238 191.777 118.454Z" fill="#455A64"/>
<path d="M216.86 105.031C217.307 106.303 217.61 107.621 217.765 108.96C217.931 110.263 218.013 111.575 218.011 112.888C218.017 114.204 217.935 115.519 217.765 116.824C217.609 118.163 217.306 119.481 216.86 120.753C216.42 119.48 216.119 118.162 215.962 116.824C215.794 115.519 215.709 114.204 215.709 112.888C215.713 111.575 215.798 110.263 215.962 108.96C216.118 107.622 216.419 106.304 216.86 105.031Z" fill="#455A64"/>
<path d="M224.724 112.889C223.452 113.335 222.134 113.639 220.795 113.795C219.49 113.96 218.175 114.042 216.859 114.04C215.545 114.046 214.233 113.964 212.93 113.795C211.591 113.639 210.274 113.336 209.002 112.889C210.276 112.45 211.593 112.146 212.93 111.984C214.233 111.818 215.546 111.736 216.859 111.738C218.175 111.742 219.489 111.827 220.795 111.992C222.133 112.148 223.45 112.449 224.724 112.889Z" fill="#455A64"/>
<path d="M222.423 107.332C221.834 108.544 221.116 109.689 220.282 110.746C219.481 111.787 218.612 112.774 217.681 113.7C216.753 114.632 215.766 115.504 214.727 116.309C213.666 117.144 212.519 117.861 211.305 118.45C211.891 117.234 212.609 116.087 213.445 115.028C214.251 113.99 215.119 113.004 216.047 112.074C216.977 111.145 217.967 110.276 219.008 109.473C220.066 108.639 221.211 107.921 222.423 107.332Z" fill="#455A64"/>
<path d="M222.423 118.454C221.211 117.865 220.066 117.147 219.008 116.313C217.965 115.509 216.975 114.638 216.047 113.704C215.117 112.773 214.248 111.784 213.445 110.742C212.609 109.684 211.891 108.536 211.305 107.32C212.52 107.906 213.668 108.624 214.727 109.461C216.809 111.07 218.676 112.939 220.282 115.024C221.117 116.087 221.835 117.237 222.423 118.454Z" fill="#455A64"/>
<path d="M247.504 105.031C247.948 106.304 248.251 107.621 248.41 108.96C248.737 111.571 248.737 114.213 248.41 116.824C248.254 118.163 247.95 119.481 247.504 120.753C247.062 119.48 246.759 118.163 246.599 116.824C246.433 115.519 246.351 114.204 246.354 112.888C246.358 111.575 246.442 110.263 246.607 108.96C246.763 107.622 247.064 106.304 247.504 105.031Z" fill="#455A64"/>
<path d="M255.368 112.889C254.096 113.335 252.779 113.639 251.44 113.795C250.134 113.96 248.819 114.042 247.503 114.04C246.19 114.046 244.878 113.964 243.575 113.795C242.236 113.639 240.918 113.336 239.646 112.889C240.92 112.45 242.237 112.146 243.575 111.984C244.878 111.818 246.19 111.736 247.503 111.738C248.819 111.742 250.134 111.827 251.44 111.992C252.778 112.148 254.095 112.449 255.368 112.889Z" fill="#455A64"/>
<path d="M253.067 107.332C252.478 108.544 251.761 109.689 250.926 110.746C250.122 111.787 249.251 112.774 248.318 113.7C247.393 114.636 246.406 115.508 245.364 116.309C244.306 117.143 243.161 117.861 241.949 118.45C242.532 117.233 243.25 116.085 244.09 115.028C244.893 113.989 245.762 113.002 246.691 112.074C247.621 111.147 248.608 110.278 249.645 109.473C250.707 108.64 251.854 107.923 253.067 107.332Z" fill="#455A64"/>
<path d="M253.067 118.45C251.854 117.859 250.707 117.142 249.645 116.309C248.606 115.504 247.619 114.632 246.691 113.7C245.76 112.777 244.891 111.793 244.09 110.754C243.25 109.697 242.532 108.549 241.949 107.332C243.163 107.918 244.308 108.636 245.364 109.473C246.406 110.272 247.393 111.141 248.318 112.074C249.249 113.005 250.121 113.994 250.926 115.036C251.761 116.093 252.478 117.238 253.067 118.45Z" fill="#455A64"/>
<path d="M278.149 105.031C278.588 106.305 278.892 107.622 279.054 108.96C279.382 111.571 279.382 114.213 279.054 116.824C278.898 118.163 278.595 119.481 278.149 120.753C277.707 119.48 277.403 118.163 277.244 116.824C276.911 114.213 276.911 111.571 277.244 108.96C277.402 107.621 277.706 106.304 278.149 105.031Z" fill="#455A64"/>
<path d="M286.013 112.889C284.738 113.336 283.418 113.64 282.077 113.795C280.774 113.961 279.462 114.043 278.148 114.04C276.835 114.046 275.522 113.964 274.22 113.795C272.883 113.64 271.568 113.336 270.299 112.889C271.573 112.449 272.889 112.146 274.227 111.984C275.53 111.818 276.842 111.736 278.156 111.738C279.469 111.742 280.781 111.827 282.084 111.992C283.422 112.148 284.74 112.449 286.013 112.889Z" fill="#455A64"/>
<path d="M283.714 107.332C283.125 108.546 282.405 109.691 281.565 110.746C279.954 112.826 278.087 114.695 276.01 116.309C274.952 117.143 273.807 117.861 272.596 118.45C273.179 117.233 273.897 116.085 274.736 115.028C275.539 113.989 276.408 113.002 277.338 112.074C278.268 111.147 279.254 110.278 280.292 109.473C281.352 108.638 282.499 107.921 283.714 107.332Z" fill="#455A64"/>
<path d="M283.714 118.45C282.499 117.861 281.352 117.144 280.292 116.309C279.252 115.504 278.266 114.632 277.338 113.7C276.406 112.777 275.538 111.793 274.736 110.754C273.897 109.697 273.179 108.549 272.596 107.332C273.809 107.918 274.954 108.636 276.01 109.473C277.053 110.272 278.04 111.141 278.964 112.074C279.895 113.003 280.764 113.992 281.565 115.036C282.405 116.091 283.125 117.236 283.714 118.45Z" fill="#455A64"/>
<path d="M308.795 105.031C309.236 106.304 309.537 107.622 309.693 108.96C310.026 111.571 310.026 114.213 309.693 116.824C309.533 118.163 309.23 119.48 308.788 120.753C308.342 119.481 308.038 118.163 307.882 116.824C307.555 114.213 307.555 111.571 307.882 108.96C308.047 107.622 308.353 106.305 308.795 105.031Z" fill="#455A64"/>
<path d="M316.651 112.889C315.38 113.337 314.062 113.64 312.723 113.795C311.42 113.96 310.108 114.042 308.794 114.04C307.481 114.047 306.168 113.965 304.866 113.795C303.524 113.64 302.204 113.336 300.93 112.889C302.206 112.45 303.526 112.146 304.866 111.984C306.169 111.818 307.481 111.736 308.794 111.738C310.108 111.742 311.42 111.827 312.723 111.992C314.061 112.147 315.378 112.448 316.651 112.889Z" fill="#455A64"/>
<path d="M314.351 107.332C313.767 108.547 313.049 109.692 312.21 110.746C311.411 111.789 310.542 112.776 309.609 113.7C308.681 114.632 307.694 115.504 306.655 116.309C305.596 117.142 304.451 117.859 303.24 118.45C303.824 117.234 304.539 116.087 305.373 115.028C306.988 112.951 308.857 111.084 310.936 109.473C311.995 108.64 313.14 107.923 314.351 107.332Z" fill="#455A64"/>
<path d="M314.351 118.45C313.14 117.859 311.995 117.142 310.936 116.309C308.861 114.692 306.993 112.827 305.373 110.754C304.539 109.695 303.824 108.548 303.24 107.332C304.453 107.92 305.597 108.638 306.655 109.473C307.694 110.276 308.681 111.145 309.609 112.074C310.54 113.003 311.409 113.992 312.21 115.036C313.049 116.09 313.767 117.235 314.351 118.45Z" fill="#455A64"/>
<path d="M287.541 105.952V147.738H275.733V105.952C275.733 90.0618 263.663 77.1408 248.817 77.1408C233.97 77.1408 221.9 90.0618 221.9 105.952V147.738H210.092V105.952C210.092 83.1946 227.463 64.7031 248.817 64.7031C270.17 64.7031 287.541 83.1946 287.541 105.952Z" fill="#455A64"/>
<path d="M210.092 116.816L221.9 117.292V147.738H210.092V116.816Z" fill="#263238"/>
<path d="M287.541 119.972V147.74H275.732V119.488L287.541 119.972Z" fill="#263238"/>
<path d="M302.68 123.941H194.961V221.67H302.68V123.941Z" fill="#F4A047"/>
<path opacity="0.1" d="M302.672 123.941H248.816V221.67H302.672V123.941Z" fill="black"/>
<path d="M253.374 176.388L257.878 197.772H238.742L243.254 176.388C241.49 175.288 240.131 173.644 239.385 171.704C238.638 169.764 238.543 167.634 239.115 165.636C239.687 163.637 240.894 161.879 242.554 160.628C244.213 159.376 246.235 158.699 248.314 158.699C250.393 158.699 252.415 159.376 254.075 160.628C255.734 161.879 256.941 163.637 257.513 165.636C258.085 167.634 257.99 169.764 257.243 171.704C256.497 173.644 255.138 175.288 253.374 176.388Z" fill="#263238"/>
<path d="M217.524 176.348C217.524 176.348 211.892 221.433 202.639 231.592C191.529 243.761 183.457 241.981 178.976 248.257C174.495 241.973 166.431 243.761 155.305 231.584C146.052 221.433 140.428 176.34 140.428 176.34C164.812 164.509 178.991 151.242 178.991 151.242C179.413 151.657 193.516 164.7 217.524 176.348Z" fill="#455A64"/>
<path d="M178.992 151.25V248.25C174.511 241.966 166.447 243.753 155.321 231.577C146.068 221.426 140.443 176.332 140.443 176.332C164.812 164.508 178.992 151.242 178.992 151.242V151.25Z" fill="#7E96A2"/>
<path d="M211.547 179.985C211.547 179.985 206.789 218.065 198.971 226.643C189.572 236.94 182.758 235.429 178.968 240.731C175.177 235.429 168.364 236.94 158.972 226.643C151.154 218.065 146.404 179.985 146.404 179.985C167.006 170.01 178.968 158.77 178.968 158.77C178.968 158.77 190.945 169.98 211.547 179.985Z" fill="#7E96A2"/>
<path d="M146.414 179.985C146.414 179.985 151.171 218.065 158.99 226.644C168.374 236.933 175.156 235.429 178.993 240.716V158.785C178.617 159.123 166.716 170.133 146.414 179.985Z" fill="#455A64"/>
<path d="M189.653 210.427C195.55 204.53 195.55 194.97 189.653 189.073C183.756 183.176 174.195 183.176 168.299 189.073C162.402 194.97 162.402 204.53 168.299 210.427C174.195 216.324 183.756 216.324 189.653 210.427Z" fill="#FFC727"/>
<path d="M177.258 209.563L170.529 202.565L173.023 200.163L176.729 204.023L184.724 191.762L187.624 193.649L177.258 209.563Z" fill="white"/>
<path d="M126.883 251.879L128.674 242.707L235.819 263.631C236.798 263.822 237.66 264.394 238.217 265.221C238.774 266.048 238.98 267.063 238.788 268.041L238.438 269.833C238.247 270.812 237.675 271.675 236.848 272.232C236.021 272.788 235.007 272.994 234.028 272.803L126.883 251.879Z" fill="#6660AB"/>
<path opacity="0.1" d="M128.668 242.695L126.875 251.875L139.813 254.402L141.605 245.222L128.668 242.695Z" fill="black"/>
<path d="M87.6848 231.001L84.5313 247.314C83.9978 250.048 84.0081 252.861 84.5617 255.592C85.1153 258.323 86.2013 260.918 87.7577 263.229C89.3141 265.54 91.3105 267.521 93.6328 269.061C95.9551 270.6 98.5579 271.667 101.293 272.201C104.027 272.734 106.84 272.724 109.571 272.17C112.302 271.617 114.896 270.531 117.207 268.974C119.518 267.418 121.5 265.421 123.04 263.099C124.579 260.777 125.646 258.174 126.179 255.439L129.356 239.165C130.439 233.639 129.282 227.91 126.14 223.237C122.998 218.564 118.128 215.33 112.602 214.248C107.076 213.165 101.347 214.322 96.6738 217.464C92.0009 220.606 88.7674 225.475 87.6848 231.001ZM122.665 235.076C121.722 239.917 117.494 243.408 112.269 244.245C116.796 246.999 119.404 251.81 118.453 256.652C117.195 263.128 110.051 267.194 102.509 265.721C94.9663 264.248 89.8946 257.795 91.1606 251.327C92.1044 246.485 96.3321 242.994 101.565 242.119C97.0303 239.38 94.4292 234.554 95.373 229.712C96.639 223.229 103.767 219.178 111.302 220.651C118.837 222.124 123.962 228.6 122.696 235.076H122.665Z" fill="#6660AB"/>
<path d="M129.472 238.565L126.065 256.013C125.881 256.953 126.494 257.864 127.434 258.047L128.263 258.209C129.203 258.393 130.113 257.779 130.297 256.839L133.704 239.391C133.888 238.451 133.275 237.54 132.335 237.357L131.506 237.195C130.567 237.011 129.656 237.625 129.472 238.565Z" fill="#6660AB"/>
<path d="M133.703 239.393L130.295 256.841C130.112 257.781 130.725 258.692 131.665 258.875L132.493 259.037C133.433 259.221 134.344 258.607 134.527 257.668L137.935 240.219C138.118 239.279 137.505 238.368 136.565 238.185L135.737 238.023C134.797 237.84 133.886 238.453 133.703 239.393Z" fill="#6660AB"/>
<path d="M210.212 254.696L213.404 255.318L215.207 246.049L217.938 246.578L216.994 251.412L220.179 252.034L221.122 247.2L223.539 247.668L222.043 255.31L225.235 255.939L226.731 248.297L230.153 248.964L228.166 259.169L231.358 259.791L233.353 249.586L236.591 250.223L234.043 263.267L205.531 257.696L208.071 244.652L212.015 245.42L210.212 254.696Z" fill="#6660AB"/>
<path d="M320.171 206.918L299.263 223.798C295.25 227.005 291.79 229.89 290.14 231.555C289.714 231.906 289.371 232.346 289.135 232.844C289.135 232.844 289.135 232.844 289.135 232.891C289.281 234.724 313.987 267.541 315.222 268.393C316.458 269.244 319.005 265.761 319.059 263.728C319.113 261.694 315.276 244.891 315.276 244.891L335.993 227.811L320.171 206.918Z" fill="#C8958D"/>
<path d="M303.529 220.352L299.239 223.812C295.227 227.019 291.766 229.904 290.116 231.569C289.732 231.958 289.394 232.39 289.111 232.858C289.111 232.858 289.111 232.858 289.111 232.904C289.257 234.738 313.964 267.555 315.199 268.407C316.434 269.258 318.982 265.775 319.035 263.741C319.089 261.708 315.253 244.905 315.253 244.905L319.657 241.444L303.529 220.352Z" fill="#EBEBEB"/>
<path d="M315.176 268.431C313.926 267.58 289.227 234.771 289.089 232.922C289.02 232.223 293.593 228.318 299.248 223.822L299.432 223.676L315.568 244.669L315.207 244.93C315.207 244.93 319.043 261.718 318.99 263.766C318.936 265.815 316.419 269.291 315.176 268.431Z" fill="#6660AB"/>
<path d="M316.166 267.103C312.138 261.471 295.365 239.136 290.953 233.872C290.953 233.826 290.892 233.872 290.953 233.872C294.789 239.542 311.777 261.747 316.112 267.149C316.174 267.264 316.258 267.264 316.166 267.103Z" fill="#263238"/>
<path d="M316.504 246.75C315.269 244.272 312.936 241.855 310.128 241.379C310.021 241.379 309.998 241.509 310.074 241.571C312.307 243.136 314.365 244.937 316.213 246.942C316.241 246.973 316.28 246.993 316.321 246.999C316.363 247.004 316.406 246.994 316.441 246.971C316.476 246.948 316.502 246.913 316.514 246.872C316.525 246.832 316.522 246.788 316.504 246.75Z" fill="#263238"/>
<path d="M316.742 249.043C315.507 246.557 313.167 244.148 310.366 243.672C310.259 243.672 310.236 243.81 310.305 243.864C312.537 245.43 314.595 247.23 316.443 249.235C316.456 249.254 316.472 249.271 316.491 249.285C316.51 249.298 316.532 249.307 316.555 249.312C316.578 249.317 316.601 249.318 316.624 249.314C316.647 249.31 316.669 249.301 316.689 249.288C316.708 249.276 316.725 249.259 316.739 249.24C316.752 249.221 316.761 249.2 316.766 249.177C316.771 249.154 316.772 249.13 316.768 249.107C316.764 249.084 316.755 249.063 316.742 249.043Z" fill="#263238"/>
<path d="M316.972 251.32C315.745 248.842 313.405 246.433 310.604 245.949C310.497 245.949 310.466 246.087 310.543 246.141C312.773 247.709 314.831 249.509 316.681 251.512C316.693 251.531 316.71 251.548 316.729 251.561C316.748 251.573 316.769 251.582 316.791 251.587C316.814 251.592 316.837 251.592 316.859 251.587C316.882 251.583 316.903 251.574 316.923 251.562C316.942 251.549 316.958 251.533 316.971 251.514C316.984 251.495 316.993 251.474 316.998 251.451C317.002 251.429 317.002 251.406 316.998 251.383C316.994 251.361 316.985 251.339 316.972 251.32Z" fill="#263238"/>
<path d="M331.45 186.799C329.969 194.111 299.639 223.275 299.639 223.275L320.785 247.682C320.785 247.682 363.845 204.715 361.597 188.548C359.64 174.499 338.578 118.004 338.578 118.004H314.347C314.347 118.004 332.9 179.609 331.45 186.799Z" fill="#37474F"/>
<path d="M331.45 186.799C329.969 194.111 299.639 223.275 299.639 223.275L320.785 247.682C320.785 247.682 363.845 204.715 361.597 188.548C359.64 174.499 338.578 118.004 338.578 118.004H314.347C314.347 118.004 332.9 179.609 331.45 186.799Z" fill="#37474F"/>
<path d="M323.186 241.883C320.378 238.384 321.237 239.351 318.391 235.882C316.994 234.187 307.825 223.053 306.245 221.695C306.245 221.695 306.153 221.695 306.176 221.757C307.234 223.544 316.595 234.517 318.022 236.189C320.938 239.596 320.14 238.591 323.086 241.967C323.148 242.028 323.24 241.944 323.186 241.883Z" fill="#263238"/>
<path d="M334.465 183.241C334.112 181.415 333.697 179.597 333.337 177.778C332.544 174.064 331.707 170.364 330.828 166.676C329.078 159.356 327.178 152.077 325.127 144.839C323.063 137.58 320.876 130.329 318.352 123.209C318.045 122.327 317.722 121.452 317.4 120.577C317.4 120.563 317.394 120.549 317.384 120.539C317.374 120.529 317.361 120.523 317.346 120.523C317.332 120.523 317.319 120.529 317.308 120.539C317.298 120.549 317.293 120.563 317.293 120.577C319.479 127.713 321.728 134.826 323.769 141.992C325.81 149.158 327.689 156.325 329.469 163.537C330.36 167.159 331.188 170.796 332.002 174.433C332.401 176.221 332.769 178.016 333.168 179.804C333.641 181.623 333.983 183.475 334.188 185.344C334.244 187.114 333.745 188.858 332.761 190.331C331.848 191.819 330.782 193.216 329.746 194.62C327.674 197.428 307.924 219.442 307.287 220.04C307.234 220.086 307.287 220.155 307.364 220.109C310.011 217.731 326.769 199.592 328.894 196.784C329.953 195.395 330.973 193.991 331.963 192.564C332.971 191.276 333.783 189.846 334.372 188.321C334.839 186.663 334.87 184.914 334.465 183.241Z" fill="#263238"/>
<path d="M334.412 118.004L330.008 175.819C325.803 156.03 314.348 118.004 314.348 118.004H334.412Z" fill="#263238"/>
<path d="M374.249 277.365C372.814 277.825 331.741 277.189 330.199 276.176C329.949 275.686 329.812 275.145 329.8 274.595C329.797 274.58 329.797 274.564 329.8 274.549C329.501 272.247 329.355 267.736 329.278 262.595L328.373 258.152H354.699L355.727 262.925C355.727 262.925 371.341 270.206 372.929 271.503C374.517 272.8 375.699 276.912 374.249 277.365Z" fill="#EBEBEB"/>
<path d="M374.249 277.371C372.807 277.831 331.742 277.194 330.199 276.182C329.601 275.806 329.348 269.813 329.248 262.57V262.34L355.742 262.455V262.908C355.742 262.908 371.349 270.181 372.929 271.478C374.51 272.775 375.692 276.918 374.249 277.371Z" fill="#6660AB"/>
<path d="M373.812 275.772C366.907 275.496 338.954 275.005 332.095 275.281C332.041 275.281 332.041 275.319 332.095 275.327C338.947 275.749 366.884 275.987 373.812 275.887C373.958 275.879 373.958 275.78 373.812 275.772Z" fill="#263238"/>
<path d="M357.952 263.019C355.236 262.467 351.899 262.835 349.781 264.745C349.704 264.815 349.781 264.93 349.896 264.907C352.513 264.108 355.209 263.593 357.937 263.372C357.96 263.373 357.983 263.369 358.005 263.362C358.027 263.354 358.047 263.341 358.064 263.326C358.081 263.31 358.095 263.291 358.105 263.27C358.115 263.249 358.12 263.226 358.121 263.203C358.122 263.18 358.119 263.157 358.111 263.135C358.103 263.113 358.091 263.093 358.075 263.076C358.059 263.059 358.04 263.045 358.019 263.035C357.998 263.026 357.976 263.02 357.952 263.019Z" fill="#263238"/>
<path d="M359.894 264.234C357.185 263.682 353.84 264.05 351.73 265.96C351.653 266.037 351.73 266.152 351.845 266.121C354.46 265.323 357.154 264.809 359.879 264.587C359.925 264.589 359.971 264.572 360.006 264.541C360.04 264.509 360.061 264.465 360.063 264.418C360.065 264.371 360.048 264.326 360.017 264.291C359.985 264.257 359.941 264.236 359.894 264.234Z" fill="#263238"/>
<path d="M361.843 265.453C359.126 264.9 355.789 265.269 353.679 267.172C353.594 267.248 353.679 267.363 353.794 267.34C356.41 266.546 359.103 266.032 361.827 265.806C361.85 265.807 361.874 265.803 361.895 265.795C361.917 265.787 361.937 265.775 361.954 265.76C361.971 265.744 361.985 265.725 361.995 265.704C362.005 265.683 362.01 265.66 362.011 265.637C362.012 265.614 362.009 265.591 362.001 265.569C361.993 265.547 361.981 265.527 361.965 265.51C361.95 265.493 361.931 265.479 361.91 265.469C361.889 265.459 361.866 265.454 361.843 265.453Z" fill="#263238"/>
<path d="M336.284 118.003C335.339 121.992 334.642 126.036 334.197 130.111C333.698 135.19 333.062 139.686 332.386 140.246C331.711 140.807 327.783 143.316 326.494 144.083C326.494 144.083 338.448 180.329 341.532 192.422C346.006 209.931 356.717 262.482 356.717 262.482H328.174C328.174 262.482 319.496 212.463 315.698 195.782C312.445 181.488 299.984 138.604 299.984 138.604C298.669 135.298 298.079 131.748 298.252 128.195C298.426 124.641 299.359 121.165 300.989 118.003C300.989 118.003 336.284 117.988 336.284 118.003Z" fill="#37474F"/>
<path d="M355.674 256.96C351.186 256.96 352.475 256.884 348.001 256.907C345.807 256.907 331.382 257.014 329.341 257.39C329.329 257.39 329.317 257.395 329.308 257.404C329.3 257.412 329.295 257.424 329.295 257.436C329.295 257.448 329.3 257.46 329.308 257.469C329.317 257.477 329.329 257.482 329.341 257.482C331.397 257.789 345.815 257.436 348.009 257.382C352.498 257.267 351.209 257.252 355.682 257.091C355.695 257.085 355.706 257.076 355.714 257.064C355.722 257.051 355.725 257.037 355.725 257.023C355.724 257.008 355.718 256.995 355.709 256.984C355.7 256.972 355.688 256.964 355.674 256.96Z" fill="#263238"/>
<path d="M334.389 138.811C331.617 140.337 328.983 142.101 326.516 144.083C326.501 144.099 326.492 144.12 326.491 144.142C326.489 144.165 326.495 144.187 326.507 144.205C326.519 144.224 326.538 144.238 326.559 144.245C326.58 144.252 326.603 144.251 326.624 144.244C329.294 142.571 331.995 140.944 334.596 139.126C334.628 139.095 334.648 139.054 334.653 139.009C334.657 138.965 334.647 138.92 334.622 138.883C334.598 138.846 334.561 138.818 334.518 138.805C334.476 138.792 334.43 138.794 334.389 138.811Z" fill="#263238"/>
<path d="M332.209 119.095C332.209 118.996 332.01 119.003 332.025 119.095C332.522 122.286 332.857 125.5 333.03 128.725C333.13 130.213 333.207 138.538 330.56 138.339C330.115 138.339 329.792 137.925 329.662 137.288C329.543 136.444 329.527 135.588 329.616 134.74C329.616 132.991 329.616 131.249 329.478 129.5C329.274 126.269 328.739 123.068 327.882 119.947C327.882 119.925 327.873 119.903 327.857 119.887C327.841 119.872 327.82 119.863 327.797 119.863C327.775 119.863 327.753 119.872 327.738 119.887C327.722 119.903 327.713 119.925 327.713 119.947C328.479 124.379 328.91 128.862 329.002 133.359C329.002 135.531 328.442 138.884 330.705 138.861C332.969 138.838 333.644 133.275 333.69 131.779C333.747 127.505 333.25 123.241 332.209 119.095Z" fill="#263238"/>
<path d="M330.659 138.57C330.519 139.153 330.416 139.745 330.352 140.342C330.268 140.814 330.268 141.297 330.352 141.769C330.36 141.788 330.373 141.803 330.389 141.814C330.405 141.825 330.425 141.831 330.444 141.831C330.464 141.831 330.483 141.825 330.5 141.814C330.516 141.803 330.529 141.788 330.536 141.769C330.742 141.313 330.872 140.825 330.92 140.327C331.035 139.775 331.158 139.23 331.258 138.67C331.271 138.59 331.252 138.509 331.205 138.443C331.159 138.378 331.088 138.334 331.008 138.321C330.929 138.307 330.848 138.326 330.782 138.373C330.717 138.42 330.672 138.491 330.659 138.57Z" fill="#263238"/>
<path d="M304.059 138.424C306.518 138.288 308.948 137.829 311.287 137.059C313.943 136.21 316.35 134.724 318.3 132.731C319.403 131.636 320.314 130.362 320.993 128.964C320.993 128.91 321.1 128.964 321.085 129.01C320.668 130.364 320.025 131.638 319.182 132.777C318.31 133.906 317.276 134.898 316.113 135.724C313.811 137.411 311.102 138.457 308.264 138.754C306.864 138.972 305.437 138.951 304.044 138.693C303.821 138.662 303.883 138.44 304.059 138.424Z" fill="#263238"/>
<path d="M324.836 241.231C324.767 240.572 324.675 239.912 324.583 239.252C324.407 237.994 324.192 236.728 323.992 235.469C323.609 232.929 323.171 230.397 322.719 227.873C321.828 222.832 320.793 217.806 319.703 212.804C319.082 209.98 318.368 207.187 317.608 204.364C317.562 204.164 317.286 204.264 317.317 204.448C317.777 207.011 318.222 209.566 318.744 212.121C319.266 214.676 319.787 217.192 320.279 219.732C321.276 224.75 322.204 229.791 323.202 234.809C323.478 236.229 323.739 237.648 324.015 239.068C324.153 239.774 324.291 240.487 324.445 241.185C324.598 241.884 324.813 242.582 324.928 243.288C324.928 243.357 325.043 243.326 325.036 243.288C324.928 242.605 324.921 241.945 324.836 241.231Z" fill="#263238"/>
<path d="M344.525 203.305C343.574 198.571 342.292 193.898 341.003 189.24C338.41 179.88 335.356 170.649 332.31 161.419C331.43 158.764 330.55 156.107 329.671 153.447C329.233 152.119 327.085 144.945 326.816 144.239C326.812 144.228 326.804 144.217 326.794 144.21C326.783 144.203 326.771 144.199 326.759 144.199C326.746 144.199 326.734 144.203 326.724 144.21C326.713 144.217 326.706 144.228 326.701 144.239C327.323 146.679 328.167 150.239 328.88 152.679C329.594 155.119 330.353 157.444 331.098 159.815C332.556 164.488 334.036 169.161 335.448 173.841C338.249 183.102 341.026 192.363 343.298 201.77C343.934 204.41 344.571 207.041 345.147 209.688C345.722 212.336 346.229 214.99 346.781 217.638C346.781 217.714 346.919 217.691 346.911 217.638C346.436 212.834 345.492 208.062 344.525 203.305Z" fill="#263238"/>
<path d="M326.776 228.081C325.203 219.05 323.323 210.065 321.236 201.134C319.149 192.203 316.809 183.241 314.238 174.394C311.668 165.548 308.821 156.747 305.798 148.077C304.258 143.986 302.964 139.807 301.923 135.562C300.98 131.342 300.504 126.777 301.486 122.518C301.726 121.438 302.051 120.378 302.46 119.349C302.46 119.28 302.384 119.219 302.353 119.288C298.923 127.291 301.148 136.038 303.765 143.926C305.192 148.245 306.719 152.534 308.138 156.862C309.558 161.189 310.97 165.762 312.305 170.243C314.936 179.121 317.384 188.052 319.571 197.045C321.758 206.037 323.714 215.091 325.433 224.191C327.152 233.291 328.602 242.491 330.075 251.66C330.267 252.857 330.413 254.054 330.574 255.251C330.574 255.32 330.681 255.32 330.673 255.251C329.538 246.158 328.341 237.104 326.776 228.081Z" fill="#263238"/>
<path d="M326.193 80.1083C329.554 92.3849 339.237 107.193 343.841 109.265C347.846 111.045 366.43 104.17 373.442 99.7047C375.437 98.4311 367.189 86.9448 364.788 87.7428C356.938 90.3592 348.398 94.2264 347.739 94.0038C346.403 93.5511 338.071 83.3309 332.002 76.4561C325.196 68.7295 324.858 75.2208 326.193 80.1083Z" fill="#C8958D"/>
<path d="M386.695 89.2936C388.275 88.6338 400.437 88.2501 400.437 85.6107C400.437 82.9712 384.953 83.7078 384.953 83.7078L386.695 89.2936Z" fill="#C8958D"/>
<path d="M363.369 89.5988C365.495 86.9594 367.367 84.1128 369.216 83.591C370.49 83.2304 384.262 83.8212 386.411 83.6908C388.559 83.5603 396.24 83.7598 396.385 85.6473C396.639 88.3098 387.554 88.2868 386.587 89.6526C383.234 94.356 370.474 101.315 370.474 101.315L363.369 89.5988Z" fill="#C8958D"/>
<path d="M396.623 85.685C396.482 85.195 396.169 84.7725 395.741 84.4957C394.735 83.9455 393.603 83.6678 392.457 83.6901C390.778 83.5392 389.089 83.5264 387.408 83.6517C387.408 83.6517 387.408 83.7054 387.408 83.7131C388.674 83.7131 389.925 83.7131 391.183 83.8512C392.338 83.8942 393.483 84.0693 394.598 84.3729C395.098 84.5017 395.552 84.7674 395.91 85.1402C396.033 85.2805 396.118 85.4501 396.157 85.6329C396.196 85.8156 396.188 86.0053 396.132 86.1837C395.772 87.3423 393.477 87.7183 392.419 87.9255C391.037 88.2324 389.603 88.5009 388.214 88.7848C388.152 88.7848 388.214 88.8922 388.214 88.8769C389.656 88.593 391.176 88.4856 392.626 88.2247C393.837 88.1064 394.998 87.6842 396.002 86.997C396.22 86.8609 396.395 86.6649 396.505 86.4323C396.615 86.1996 396.656 85.9403 396.623 85.685Z" fill="#263238"/>
<path d="M362.84 87.9725L373.735 103.924C373.735 103.924 356.855 112.364 350.395 112.234C344.256 112.088 342.024 111.183 340.082 109.349C338.878 108.213 332.041 98.5533 326.463 82.4941C321.783 69.0359 328.711 70.9848 334.903 78.4735C337.972 82.1872 347.824 93.2591 348.315 93.2207C348.806 93.1823 362.84 87.9725 362.84 87.9725Z" fill="#6660AB"/>
<path d="M359.486 90.5693C361.12 92.9325 362.686 95.3418 364.228 97.7664C364.995 98.948 367.819 103.782 368.64 105.155C368.64 105.209 368.525 105.301 368.486 105.247C367.635 104.035 364.558 99.2089 363.814 98.0119C362.279 95.5643 360.829 93.109 359.417 90.6153C359.414 90.6108 359.412 90.6057 359.411 90.6003C359.41 90.595 359.41 90.5895 359.411 90.5841C359.412 90.5788 359.414 90.5737 359.417 90.5692C359.42 90.5647 359.424 90.5608 359.429 90.5578C359.433 90.5547 359.438 90.5526 359.444 90.5516C359.449 90.5505 359.454 90.5505 359.46 90.5516C359.465 90.5527 359.47 90.5548 359.475 90.5578C359.479 90.5608 359.483 90.5647 359.486 90.5693Z" fill="#263238"/>
<path opacity="0.1" d="M353.665 111.829C352.595 112.092 351.498 112.229 350.396 112.236C344.258 112.09 342.025 111.185 340.084 109.351C338.887 108.215 332.043 98.5628 326.472 82.4959C325.597 80.2716 325.079 77.9228 324.938 75.5366C324.938 75.3909 324.938 75.2374 324.938 75.0993C324.93 74.9639 324.93 74.8281 324.938 74.6926C324.95 74.5818 324.968 74.4717 324.991 74.3627C325.07 73.8619 325.306 73.3994 325.667 73.043C329.48 78.1531 347.358 102.299 353.665 111.829Z" fill="black"/>
<path d="M393.662 81.4297H352.352V83.6471H393.662V81.4297Z" fill="#C7C7C7"/>
<path d="M393.66 81.4297V83.6471H368.57L370.266 81.4297H393.66Z" fill="#A6A6A6"/>
<path d="M372.094 83.6454H399.724L414.102 59.2305H386.473L372.094 83.6454Z" fill="#C7C7C7"/>
<path d="M392.066 71.4235C391.552 72.5514 391.928 73.7254 392.91 74.0783C393.46 74.2053 394.037 74.1302 394.535 73.8667C395.034 73.6033 395.421 73.1691 395.626 72.6435C396.14 71.5156 395.764 70.3416 394.782 69.9887C394.233 69.8633 393.656 69.9392 393.158 70.2024C392.66 70.4657 392.272 70.8989 392.066 71.4235Z" fill="white"/>
<path d="M298.328 126.412C298.428 126.52 341.58 126.213 341.971 125.768C342.509 125.138 332.288 78.4877 327.8 72.7561C326.841 71.5284 323.71 71.2215 321.055 71.5745C320.364 71.6604 319.681 71.8068 319.014 72.0118H318.945C318.406 72.1802 317.9 72.4397 317.449 72.7791C310.122 78.7562 304.114 99.4422 302.725 105.649C300.423 115.885 297.968 126.006 298.328 126.412Z" fill="#EBEBEB"/>
<path d="M318.483 72.1211C318.483 72.1211 321.299 91.3032 321.966 96.3059C322.634 101.309 321.966 127.573 321.966 127.573L294.889 129.874C294.889 129.874 300.567 112.411 300.62 111.306C300.62 111.306 305.109 90.3211 309.743 81.6584C311.813 77.7987 314.818 74.5196 318.483 72.1211Z" fill="#6660AB"/>
<path d="M327.498 72.4609C327.498 72.4609 331.158 91.8885 331.48 93.4922C331.803 95.0958 336.491 126.669 336.491 126.669L343.266 126.815L339.59 112.39C339.59 112.39 331.726 75.4457 327.498 72.4609Z" fill="#6660AB"/>
<path d="M325.971 78.6672C323.915 78.9051 320.017 76.0431 318.927 73.0124C318.858 72.7975 319.472 70.8256 320.101 68.4087C320.477 66.9278 320.868 65.2781 321.106 63.7436C321.152 63.429 330.36 67.58 330.36 67.58C329.505 69.4094 328.879 71.3369 328.495 73.3193C328.477 73.5337 328.477 73.7494 328.495 73.9638V74.0712C328.465 75.3065 328.181 78.4217 325.971 78.6672Z" fill="#C8958D"/>
<path d="M328.466 73.9786C328.47 74.0143 328.47 74.0503 328.466 74.086C328.134 74.0741 327.803 74.0382 327.476 73.9786C321.837 72.9581 321.461 65.6305 321.453 63.7891C323.126 64.3031 330.369 67.6255 330.369 67.6255C329.515 69.4577 328.889 71.3878 328.504 73.3724C328.478 73.5734 328.465 73.7759 328.466 73.9786Z" fill="#263238"/>
<path d="M321.215 51.5005C319.734 54.7998 320.302 64.9279 322.458 67.4369C325.588 71.0815 331.335 72.1174 334.588 68.2042C337.742 64.4215 336.775 51.2319 334.305 48.884C330.668 45.4313 323.394 46.6359 321.215 51.5005Z" fill="#C8958D"/>
<path d="M328.674 58.6797C328.674 58.6797 328.62 58.6797 328.628 58.7411C328.681 59.424 328.628 60.2066 328.029 60.4675C328.029 60.4675 328.029 60.5135 328.029 60.5058C328.781 60.36 328.835 59.3319 328.674 58.6797Z" fill="#263238"/>
<path d="M328.028 57.9961C326.931 57.9961 326.954 60.1752 327.974 60.1982C328.995 60.2212 328.949 58.0191 328.028 57.9961Z" fill="#263238"/>
<path d="M332.877 58.6406C332.877 58.6406 332.931 58.679 332.931 58.702C332.931 59.3849 333.015 60.1752 333.637 60.39C333.637 60.39 333.637 60.4361 333.637 60.4284C332.877 60.3363 332.754 59.3312 332.877 58.6406Z" fill="#263238"/>
<path d="M333.476 57.9252C334.573 57.8254 334.688 60.0275 333.668 60.1196C332.647 60.2117 332.555 58.0019 333.476 57.9252Z" fill="#263238"/>
<path d="M327.144 57.029C327.443 56.9446 327.704 56.8219 327.996 56.7144C328.311 56.6483 328.595 56.478 328.802 56.2311C328.852 56.1421 328.871 56.0392 328.857 55.9381C328.843 55.837 328.797 55.7432 328.725 55.6709C328.556 55.5504 328.359 55.4769 328.152 55.458C327.946 55.4391 327.738 55.4755 327.551 55.5635C327.144 55.6894 326.799 55.9632 326.584 56.3308C326.545 56.4152 326.53 56.509 326.541 56.6015C326.552 56.694 326.589 56.7816 326.647 56.8543C326.705 56.927 326.783 56.9819 326.871 57.0128C326.958 57.0436 327.053 57.0493 327.144 57.029Z" fill="#263238"/>
<path d="M334.319 56.0674C334.022 56.0112 333.727 55.9395 333.437 55.8526C333.118 55.8173 332.82 55.68 332.585 55.4613C332.522 55.3785 332.488 55.2775 332.488 55.1735C332.488 55.0696 332.522 54.9686 332.585 54.8858C332.74 54.7498 332.928 54.657 333.13 54.6165C333.332 54.5761 333.541 54.5896 333.736 54.6556C334.15 54.7328 334.522 54.9595 334.78 55.2925C334.832 55.3708 334.862 55.4625 334.864 55.5568C334.867 55.6512 334.843 55.7444 334.795 55.8256C334.746 55.9067 334.676 55.9726 334.592 56.0154C334.508 56.0582 334.413 56.0762 334.319 56.0674Z" fill="#263238"/>
<path d="M328.451 64.991C328.612 65.1522 328.781 65.367 329.026 65.39C329.292 65.386 329.554 65.3232 329.794 65.2059C329.794 65.2059 329.832 65.2059 329.794 65.2443C329.696 65.3788 329.564 65.4847 329.411 65.5508C329.259 65.6169 329.091 65.6409 328.926 65.6202C328.787 65.5869 328.661 65.5129 328.564 65.4077C328.467 65.3025 328.404 65.1708 328.382 65.0294C328.374 64.9834 328.42 64.968 328.451 64.991Z" fill="#263238"/>
<path d="M329.14 62.9466C329.313 63.2118 329.538 63.4386 329.802 63.6128C330.066 63.7871 330.363 63.9051 330.675 63.9594C330.952 64.0015 331.234 64.0015 331.511 63.9594C331.565 63.9674 331.619 63.9674 331.672 63.9594H331.818C331.855 63.9527 331.888 63.934 331.913 63.9062C331.938 63.8784 331.953 63.8432 331.956 63.8059C331.96 63.783 331.96 63.7597 331.956 63.7369V63.6755C331.956 63.1461 331.902 62.3481 331.902 62.3481C332.094 62.4401 333.084 62.8698 333.061 62.5936C332.971 60.2238 332.642 57.8691 332.079 55.5653C332.079 55.549 332.072 55.5334 332.061 55.5219C332.049 55.5104 332.034 55.5039 332.018 55.5039C332.001 55.5039 331.986 55.5104 331.974 55.5219C331.963 55.5334 331.956 55.549 331.956 55.5653C332.025 57.752 332.478 59.9158 332.585 62.1179C332.234 61.9595 331.862 61.851 331.48 61.7956C331.404 61.7956 331.626 63.3302 331.603 63.5757C331.173 63.6253 330.737 63.5876 330.322 63.465C329.907 63.3424 329.521 63.1374 329.186 62.8622C329.156 62.8468 329.102 62.8929 329.14 62.9466Z" fill="#263238"/>
<path d="M331.227 63.7275C330.942 64.1032 330.568 64.4013 330.138 64.5946C329.893 64.6911 329.625 64.7099 329.37 64.6483C328.825 64.5102 328.81 64.0114 328.902 63.5817C328.955 63.3531 329.035 63.1316 329.14 62.9219C329.732 63.4058 330.463 63.6881 331.227 63.7275Z" fill="#263238"/>
<path d="M330.145 64.5949C329.901 64.6914 329.633 64.7101 329.378 64.6486C328.833 64.5104 328.818 64.0117 328.91 63.582C329.199 63.5887 329.478 63.6921 329.702 63.8756C329.926 64.0592 330.082 64.3124 330.145 64.5949Z" fill="#FF9BBC"/>
<path d="M320.371 60.2558C320.371 60.2558 317.924 54.1789 318.76 51.0484C319.136 49.629 321.261 48.9768 321.261 48.9768C321.204 48.3664 321.317 47.7521 321.588 47.2021C321.859 46.6522 322.277 46.1881 322.796 45.8616C324.768 44.5265 328.85 45.5623 328.85 45.5623C328.85 45.5623 332.165 42.1249 335.709 44.281C339.254 46.437 336.078 50.3348 336.078 50.3348C336.078 50.3348 337.152 52.537 333.492 53.5267C329.832 54.5165 323.41 51.9078 323.41 51.9078C323.342 54.2894 322.921 56.6478 322.159 58.9054C322.012 59.2717 321.768 59.5911 321.453 59.829C321.138 60.0669 320.764 60.2145 320.371 60.2558Z" fill="#263238"/>
<path d="M329.524 45.7088C328.73 45.2283 327.848 44.9125 326.93 44.7804C326.115 44.6461 325.283 44.6461 324.467 44.7804C323.739 44.8663 323.048 45.1478 322.467 45.595C321.886 46.0421 321.437 46.6383 321.168 47.3201C321.052 47.6789 321.009 48.0573 321.042 48.4329C321.075 48.8086 321.183 49.1738 321.36 49.5068C321.36 49.5068 321.413 49.5068 321.398 49.5068C320.7 48.2715 321.398 46.6602 322.488 45.9006C323.757 45.1171 325.268 44.8226 326.738 45.0719C327.682 45.2153 328.604 45.4729 329.485 45.8392C329.494 45.8418 329.503 45.8426 329.512 45.8416C329.521 45.8407 329.529 45.838 329.537 45.8337C329.545 45.8294 329.552 45.8236 329.557 45.8167C329.563 45.8097 329.567 45.8018 329.57 45.7932C329.572 45.7846 329.573 45.7757 329.572 45.7668C329.571 45.7579 329.568 45.7493 329.564 45.7415C329.56 45.7336 329.554 45.7267 329.547 45.7211C329.54 45.7155 329.532 45.7113 329.524 45.7088Z" fill="#263238"/>
<path d="M338.148 46.5394C338.057 46.0073 337.834 45.5063 337.5 45.0817C337.167 44.6571 336.733 44.3222 336.238 44.1071C335.119 43.5512 333.846 43.389 332.624 43.6468C331.395 43.909 330.259 44.4944 329.332 45.3425C329.332 45.3425 329.332 45.3962 329.332 45.3425C330.163 44.5972 331.18 44.0899 332.275 43.8739C333.37 43.6578 334.503 43.741 335.555 44.1148C336.044 44.2465 336.494 44.4974 336.863 44.8453C337.232 45.1931 337.509 45.627 337.669 46.1081C337.83 46.5893 337.869 47.1026 337.782 47.6023C337.695 48.102 337.486 48.5725 337.174 48.9717C336.439 49.9079 335.455 50.6179 334.335 51.0203C334.335 51.0203 334.335 51.0741 334.335 51.0587C335.383 50.7415 336.336 50.1664 337.105 49.386C337.471 49.0128 337.753 48.5659 337.933 48.0751C338.113 47.5843 338.186 47.0608 338.148 46.5394Z" fill="#263238"/>
<path d="M322.689 60.0001C322.689 60.0001 320.786 56.555 319.244 57.2072C317.702 57.8593 318.898 62.6779 320.54 63.4989C320.744 63.6174 320.97 63.6937 321.204 63.7231C321.439 63.7525 321.676 63.7344 321.903 63.67C322.13 63.6055 322.342 63.496 322.526 63.348C322.709 63.1999 322.861 63.0164 322.973 62.8083L322.689 60.0001Z" fill="#C8958D"/>
<path d="M319.619 58.5625C319.619 58.5625 319.619 58.5625 319.619 58.6085C320.14 58.9389 320.586 59.3755 320.927 59.8898C321.268 60.4041 321.497 60.9845 321.599 61.5933C321.541 61.4667 321.458 61.3539 321.353 61.2627C321.248 61.1715 321.125 61.1039 320.992 61.0646C320.858 61.0253 320.718 61.0151 320.581 61.0349C320.443 61.0546 320.311 61.1037 320.195 61.1789C320.195 61.1789 320.195 61.2557 320.195 61.248C320.413 61.203 320.641 61.2267 320.845 61.316C321.05 61.4053 321.222 61.5558 321.338 61.7467C321.522 62.0694 321.676 62.4085 321.798 62.7595C321.844 62.8746 322.044 62.8363 322.013 62.7058C322.205 61.1713 321.246 58.9078 319.619 58.5625Z" fill="#263238"/>
<path d="M313.042 76.5422C302.177 88.742 294.006 105.921 294.083 109.973C294.19 114.423 299.853 130.099 305.247 137.464C305.945 138.408 310.149 138.009 313.687 136.053C317.439 133.989 320.515 130.306 319.779 129.208C317.009 125.088 310.449 109.129 310.51 106.635C310.564 104.333 315.942 90.1998 317.991 82.0282C319.994 74.1636 318.099 70.8413 313.042 76.5422Z" fill="#C8958D"/>
<path d="M298.689 136.241L318.922 126.358C318.922 126.358 310.965 108.603 310.965 106.685C310.965 104.767 316.198 89.7587 318.17 82.8225C320.142 75.8862 319.382 68.0906 310.743 78.5794C302.103 89.0682 294.553 104.667 293.694 108.81C292.834 112.954 298.689 136.241 298.689 136.241Z" fill="#6660AB"/>
<path d="M311.976 101.588C312.391 100.273 312.82 98.9612 313.265 97.6517C313.764 96.1862 314.278 94.7284 314.8 93.2782C315.322 91.8281 315.912 90.4776 316.48 89.0812C316.48 88.9814 316.695 89.0812 316.664 89.1502C315.989 91.0147 315.36 92.9023 314.731 94.7898C315.206 93.9304 315.682 93.0787 316.189 92.2347C316.199 92.225 316.212 92.2188 316.227 92.217C316.241 92.2151 316.255 92.2178 316.268 92.2245C316.281 92.2313 316.291 92.2418 316.297 92.2546C316.304 92.2674 316.306 92.2819 316.304 92.2961C315.736 93.3396 315.137 94.3601 314.531 95.3652C314.385 95.8179 314.232 96.2783 314.079 96.731C313.227 99.263 312.414 101.81 311.685 104.404C311.504 104.978 311.383 105.569 311.324 106.169C311.293 106.852 311.395 107.534 311.623 108.179C311.992 109.368 312.391 110.542 312.82 111.708C313.664 114.064 314.585 116.381 315.544 118.683C316.641 121.307 317.892 123.893 319.135 126.448C319.135 126.448 318.368 126.647 318.368 126.663C318.368 126.678 318.306 126.663 318.322 126.624C318.337 126.586 318.797 126.371 318.813 126.371C317.547 124.161 316.342 121.99 315.276 119.665C314.209 117.34 313.281 115.061 312.429 112.652C311.992 111.424 311.57 110.197 311.186 108.954C310.751 107.802 310.631 106.554 310.841 105.34C311.125 104.066 311.585 102.823 311.976 101.588Z" fill="#263238"/>
<path d="M298.342 130.544C299.059 130.156 299.797 129.807 300.552 129.5C301.212 129.193 301.864 128.879 302.531 128.579C303.974 127.927 305.416 127.267 306.867 126.623C308.317 125.978 309.759 125.326 311.209 124.697C312.659 124.068 314.087 123.392 315.56 122.848C315.614 122.848 315.652 122.909 315.606 122.94C314.263 123.768 312.828 124.474 311.416 125.157C310.005 125.84 308.616 126.5 307.196 127.137C305.777 127.774 304.288 128.395 302.823 128.986C302.117 129.27 301.403 129.531 300.682 129.799C299.934 130.123 299.165 130.397 298.38 130.62C298.371 130.621 298.362 130.619 298.354 130.615C298.346 130.61 298.339 130.603 298.335 130.595C298.331 130.587 298.329 130.577 298.331 130.568C298.332 130.559 298.336 130.55 298.342 130.544Z" fill="#263238"/>
</svg>
