<svg xmlns="http://www.w3.org/2000/svg" width="37" height="39.259" viewBox="0 0 37 39.259">
  <g id="Group_1159" data-name="Group 1159" transform="translate(-138 -194)">
    <path id="Path_1410" data-name="Path 1410" d="M35.618,12H29.088a1.088,1.088,0,1,0,0,2.176h6.529a1.088,1.088,0,1,0,0-2.176Z" transform="translate(133.941 188.529)" fill="#939393"/>
    <path id="Path_1411" data-name="Path 1411" d="M35.618,16H29.088a1.088,1.088,0,1,0,0,2.176h6.529a1.088,1.088,0,1,0,0-2.176Z" transform="translate(133.941 188.883)" fill="#939393"/>
    <path id="Path_1412" data-name="Path 1412" d="M35.618,20H29.088a1.088,1.088,0,1,0,0,2.176h6.529a1.088,1.088,0,1,0,0-2.176Z" transform="translate(133.941 189.235)" fill="#939393"/>
    <path id="Path_1413" data-name="Path 1413" d="M24.529,12H20.176A2.176,2.176,0,0,0,18,14.176v6.529a2.176,2.176,0,0,0,2.176,2.176h4.353a2.176,2.176,0,0,0,2.176-2.176V14.176A2.176,2.176,0,0,0,24.529,12Zm0,8.706H20.176V14.176h4.353Z" transform="translate(133.059 188.529)" fill="#939393"/>
    <path id="Path_1409" data-name="Path 1409" d="M37.559,6H11.441a5.028,5.028,0,0,0-1.088.109h0A5.441,5.441,0,0,0,6,11.441a2.176,2.176,0,0,0,2.176,2.176h6.529v16.7a6.312,6.312,0,0,1,2.176-.381,6.529,6.529,0,1,1-1.306,12.928,3.264,3.264,0,0,0,.664.555c1.012.664,1.491,1.752,3.178,1.752,2.361,0,2.361-2.176,4.712-2.176s2.361,2.176,4.712,2.176S31.2,43,33.565,43s2.351,2.176,4.712,2.176c1.7,0,2.176-1.088,3.189-1.752A3.265,3.265,0,0,0,43,40.649V11.441A5.441,5.441,0,0,0,37.559,6ZM8.176,11.441a3.265,3.265,0,0,1,2.416-3.156h.229a3.33,3.33,0,0,1,.62-.109,3.265,3.265,0,0,1,2.307.947,3.374,3.374,0,0,1,.892,1.665,6.312,6.312,0,0,1,.065.653ZM40.824,40.649a1.088,1.088,0,0,1-.511.925,7.889,7.889,0,0,0-1.143.914c-.544.49-.588.511-.892.511s-.348,0-.881-.511a5.256,5.256,0,0,0-7.618,0c-.533.49-.588.511-.881.511s-.337,0-.871-.511a5.343,5.343,0,0,0-3.613-1.665,8.706,8.706,0,0,0,.533-7.618H37.559a1.088,1.088,0,1,0,0-2.176H23.912a1.545,1.545,0,0,0-.218,0,8.706,8.706,0,0,0-2.612-2.176H37.559a1.088,1.088,0,0,0,0-2.176H20.147a1.088,1.088,0,0,0-1.088,1.088.958.958,0,0,0,.065.3,8.51,8.51,0,0,0-2.242-.3V11.441a7.618,7.618,0,0,0-.729-3.265H37.559a3.265,3.265,0,0,1,3.265,3.265Z" transform="translate(132 188)" fill="#939393"/>
    <ellipse id="Ellipse_59" data-name="Ellipse 59" cx="8.565" cy="8.922" rx="8.565" ry="8.922" transform="translate(140.142 215.414)" fill="#f4a047"/>
    <path id="Path_1414" data-name="Path 1414" d="M15.634,37.5a1.088,1.088,0,0,1-.751-.3l-2.046-1.937a1.089,1.089,0,1,1,1.513-1.567l1.284,1.23,2.644-2.536a1.089,1.089,0,0,1,1.545,1.534l-3.406,3.265A1.088,1.088,0,0,1,15.634,37.5Z" transform="translate(132.574 190.3)" fill="#fff"/>
  </g>
</svg>
