<svg xmlns="http://www.w3.org/2000/svg" width="48.906" height="47.632" viewBox="0 0 48.906 47.632">
  <g id="traffic" transform="translate(0)">
    <path id="Path_1610" data-name="Path 1610" d="M19.268,28.337a13.23,13.23,0,1,0,0-18.71,13.23,13.23,0,0,0,0,18.71Zm1.651-17.06a10.9,10.9,0,1,1,0,15.409,10.9,10.9,0,0,1,0-15.409Z" transform="translate(-4.944 -4.068)" fill="#fff"/>
    <path id="Path_1618" data-name="Path 1618" d="M9.209,0A9.209,9.209,0,1,1,0,9.209,9.209,9.209,0,0,1,9.209,0Z" transform="matrix(0.707, -0.707, 0.707, 0.707, 10.656, 14.914)" fill="#f9c48c"/>
    <path id="Path_1611" data-name="Path 1611" d="M21.353,27.12a10.9,10.9,0,1,0,0-15.409,10.9,10.9,0,0,0,0,15.409ZM35.569,12.9a9.209,9.209,0,1,1-13.024,0,9.209,9.209,0,0,1,13.024,0Z" transform="translate(-5.378 -4.502)"/>
    <path id="Path_1612" data-name="Path 1612" d="M18.172,34.305q-.233-.214-.458-.439c-.15-.15-.3-.3-.439-.458l-4.186,4.186.9.9Z" transform="translate(-4.582 -8.404)" fill="#f2f2fc"/>
    <rect id="Rectangle_174" data-name="Rectangle 174" width="5.988" height="4.225" transform="translate(2.035 33.571) rotate(-45)" fill="#61729b"/>
    <path id="Path_1613" data-name="Path 1613" d="M14.046,35.483l-.449-.449,4.3-4.3a14.919,14.919,0,1,0-3.282-3.283l-4.3,4.3L9.866,31.3a.843.843,0,0,0-1.193,0L3.247,36.729a.843.843,0,0,0,0,1.192l4.18,4.18a.843.843,0,0,0,1.192,0l5.427-5.423a.843.843,0,0,0,0-1.195ZM9.269,33.092l2.987,2.987L8.023,40.313,5.036,37.325ZM36.035,9.313a13.23,13.23,0,1,1-18.711,0,13.23,13.23,0,0,1,18.711,0ZM15.693,28.758c.143.155.289.308.439.458s.3.3.458.439L12.4,33.841l-.9-.9Z" transform="translate(-3 -3.754)"/>
    <rect id="Rectangle_175" data-name="Rectangle 175" width="5.059" height="6.746" transform="translate(11.804 39.2)" fill="#f9c48c"/>
    <path id="Path_1614" data-name="Path 1614" d="M22.589,48.244H15.843a.843.843,0,0,0-.843.843v8.432a.843.843,0,0,0,.843.843h6.746a.843.843,0,0,0,.843-.843V49.087A.843.843,0,0,0,22.589,48.244Zm-.843,8.432H16.686V49.93h5.059Z" transform="translate(-4.882 -10.73)"/>
    <rect id="Rectangle_176" data-name="Rectangle 176" width="5.059" height="10.239" transform="translate(21.923 35.707)" fill="#bfe0b9"/>
    <path id="Path_1615" data-name="Path 1615" d="M34.589,44.1H27.843a.843.843,0,0,0-.843.843V56.869a.843.843,0,0,0,.843.843h6.746a.843.843,0,0,0,.843-.843V44.943A.843.843,0,0,0,34.589,44.1Zm-.843,11.926H28.686V45.786h5.059Z" transform="translate(-6.764 -10.081)"/>
    <rect id="Rectangle_177" data-name="Rectangle 177" width="5.059" height="15.659" transform="translate(32.041 30.287)" fill="#fdbf00"/>
    <path id="Path_1616" data-name="Path 1616" d="M46.589,37.673H39.843a.843.843,0,0,0-.843.843V55.862a.843.843,0,0,0,.843.843h6.746a.843.843,0,0,0,.843-.843V38.516A.843.843,0,0,0,46.589,37.673Zm-.843,17.346H40.686V39.359h5.059Z" transform="translate(-8.645 -9.073)"/>
    <rect id="Rectangle_178" data-name="Rectangle 178" width="5.059" height="20.237" transform="translate(42.16 25.709)" fill="#6660ab"/>
    <path id="Path_1617" data-name="Path 1617" d="M58.589,32.244H51.843a.843.843,0,0,0-.843.843V55.01a.843.843,0,0,0,.843.843h6.746a.843.843,0,0,0,.843-.843V33.087A.843.843,0,0,0,58.589,32.244Zm-.843,21.923H52.686V33.93h5.059Z" transform="translate(-10.527 -8.222)"/>
  </g>
</svg>
