<svg xmlns="http://www.w3.org/2000/svg" width="30.999" height="30.999" viewBox="0 0 30.999 30.999">
  <g id="Group_183" data-name="Group 183" transform="translate(-85 -677.296)">
    <path id="Path_1421" data-name="Path 1421" d="M7.592,0A7.592,7.592,0,1,1,0,7.592,7.592,7.592,0,0,1,7.592,0Z" transform="translate(85.574 677.73)" fill="#f9c48c"/>
    <path id="Path_1423" data-name="Path 1423" d="M5.694,0A5.694,5.694,0,1,1,0,5.694,5.694,5.694,0,0,1,5.694,0Z" transform="translate(86.907 679.628)" fill="#f4a047"/>
    <path id="Path_1422" data-name="Path 1422" d="M7.592,0A7.592,7.592,0,1,1,0,7.592,7.592,7.592,0,0,1,7.592,0Z" transform="translate(100.757 692.913)" fill="#f9c48c"/>
    <circle id="Ellipse_16" data-name="Ellipse 16" cx="5.694" cy="5.694" r="5.694" transform="translate(102.091 694.811)" fill="#f4a047"/>
    <path id="Path_53" data-name="Path 53" d="M62.016,25.233A12.336,12.336,0,0,1,74.353,37.569a.316.316,0,0,0,.541.225L77.2,35.481a.316.316,0,0,0,0-.446h0a.316.316,0,0,0-.446,0l-1.787,1.787A12.985,12.985,0,0,0,62.016,24.6a.316.316,0,0,0,0,.633Z" transform="translate(38.483 655.227)" fill="#939393"/>
    <path id="Path_54" data-name="Path 54" d="M31.72,28.61a6.01,6.01,0,1,0-6.01,6.01A6.01,6.01,0,0,0,31.72,28.61Zm-6.01,5.377a5.377,5.377,0,1,1,5.377-5.377A5.377,5.377,0,0,1,25.71,33.987Z" transform="translate(67.198 656.594)" fill="#c15358"/>
    <path id="Path_55" data-name="Path 55" d="M38.013,17.391c.437,0,.424-.791,0-.791S37.589,17.391,38.013,17.391Z" transform="translate(54.895 660.696)" fill="#939393"/>
    <path id="Path_56" data-name="Path 56" d="M35.2,17.559c.433-.054.316-.835-.095-.784S34.762,17.613,35.2,17.559Z" transform="translate(56.852 660.578)" fill="#939393"/>
    <path id="Path_57" data-name="Path 57" d="M40.906,17.562c.392,0,.484-.734.057-.788S40.444,17.562,40.906,17.562Z" transform="translate(52.91 660.579)" fill="#939393"/>
    <path id="Path_58" data-name="Path 58" d="M14.491,40.9c0-.437-.791-.424-.791,0S14.491,41.326,14.491,40.9Z" transform="translate(71.3 644.302)" fill="#939393"/>
    <path id="Path_59" data-name="Path 59" d="M14.669,43.753c-.054-.427-.835-.316-.784.095S14.72,44.177,14.669,43.753Z" transform="translate(71.175 642.318)" fill="#939393"/>
    <path id="Path_60" data-name="Path 60" d="M14.669,38.058c.054-.433-.734-.516-.784-.095S14.616,38.479,14.669,38.058Z" transform="translate(71.175 646.28)" fill="#939393"/>
    <path id="Path_61" data-name="Path 61" d="M14.873,23.283a7.291,7.291,0,0,1,5.517-5.517.324.324,0,0,0-.136-.633,7.927,7.927,0,0,0-6.01,6.01.322.322,0,1,0,.629.139Z" transform="translate(70.934 660.336)" fill="#939393"/>
    <path id="Path_62" data-name="Path 62" d="M14.867,46.058a.324.324,0,0,0-.633.136c.949,4.242,4.957,6.01,6.067,6.01a.318.318,0,0,0,.07-.633A7.291,7.291,0,0,1,14.867,46.058Z" transform="translate(70.94 640.731)" fill="#939393"/>
    <path id="Path_63" data-name="Path 63" d="M43.164,17.773a7.294,7.294,0,0,1,5.517,5.517.324.324,0,1,0,.633-.136,7.927,7.927,0,0,0-6.01-6.01.322.322,0,1,0-.139.629Z" transform="translate(51.329 660.33)" fill="#939393"/>
    <path id="Path_64" data-name="Path 64" d="M43.3,52.164a7.927,7.927,0,0,0,6.01-6.01.324.324,0,1,0-.633-.136,7.291,7.291,0,0,1-5.517,5.513.324.324,0,0,0,.139.633Z" transform="translate(51.332 640.759)" fill="#939393"/>
    <path id="Path_65" data-name="Path 65" d="M38.013,64.891c.437,0,.424-.791,0-.791S37.589,64.891,38.013,64.891Z" transform="translate(54.895 628.221)" fill="#939393"/>
    <path id="Path_66" data-name="Path 66" d="M40.847,63.925c-.433.054-.316.835.095.784S41.271,63.874,40.847,63.925Z" transform="translate(52.927 628.343)" fill="#939393"/>
    <path id="Path_67" data-name="Path 67" d="M35.116,64.712c.392,0,.484-.734.057-.788S34.654,64.712,35.116,64.712Z" transform="translate(56.868 628.343)" fill="#939393"/>
    <path id="Path_68" data-name="Path 68" d="M61.2,40.913c0,.437.791.424.791,0S61.2,40.489,61.2,40.913Z" transform="translate(38.825 644.291)" fill="#939393"/>
    <path id="Path_69" data-name="Path 69" d="M61,38.071c.054.433.835.316.784-.095S60.955,37.644,61,38.071Z" transform="translate(38.965 646.267)" fill="#939393"/>
    <path id="Path_70" data-name="Path 70" d="M61.819,43.848c.054-.433-.734-.516-.784-.095S61.766,44.275,61.819,43.848Z" transform="translate(38.94 642.321)" fill="#939393"/>
    <path id="Path_71" data-name="Path 71" d="M35.642,33.658a1.193,1.193,0,0,0-.579-1.971v-.481a.316.316,0,0,0-.633,0v.44H34.4v-.44a.316.316,0,0,0-.633,0v.44h-.756a.316.316,0,1,0,0,.633h.367v4h-.367a.316.316,0,1,0,0,.633h.747v.44a.316.316,0,1,0,.633,0v-.44h.025v.44a.316.316,0,0,0,.633,0v-.465a1.743,1.743,0,0,0,.588-3.223Zm-.883-1.379a.569.569,0,0,1,0,1.139h-.743V32.279Zm0,4h-.743V34.059h.734a1.107,1.107,0,0,1,0,2.214Z" transform="translate(58.31 650.927)" fill="#c15358"/>
    <path id="Path_72" data-name="Path 72" d="M73.71,82.62a6.01,6.01,0,1,0-6.01-6.01A6.01,6.01,0,0,0,73.71,82.62Zm0-11.387a5.377,5.377,0,1,1-5.377,5.377,5.377,5.377,0,0,1,5.377-5.377Z" transform="translate(34.381 623.777)" fill="#a64d2c"/>
    <path id="Path_73" data-name="Path 73" d="M86,64.6c-.437,0-.424.791,0,.791S86.414,64.6,86,64.6Z" transform="translate(22.089 627.88)" fill="#939393"/>
    <path id="Path_74" data-name="Path 74" d="M83.119,65.569h.051c.433-.054.335-.838-.095-.784S82.724,65.569,83.119,65.569Z" transform="translate(24.067 627.755)" fill="#939393"/>
    <path id="Path_75" data-name="Path 75" d="M88.9,65.563c.4,0,.468-.737.057-.788s-.519.731-.095.784Z" transform="translate(20.095 627.762)" fill="#939393"/>
    <path id="Path_76" data-name="Path 76" d="M62.491,88.9c0-.437-.791-.424-.791,0S62.491,89.326,62.491,88.9Z" transform="translate(38.483 611.485)" fill="#939393"/>
    <path id="Path_77" data-name="Path 77" d="M62.669,91.75c-.054-.43-.835-.316-.784.095S62.72,92.177,62.669,91.75Z" transform="translate(38.358 609.504)" fill="#939393"/>
    <path id="Path_78" data-name="Path 78" d="M61.885,85.948c-.051.427.731.535.784.095S61.936,85.528,61.885,85.948Z" transform="translate(38.358 613.474)" fill="#939393"/>
    <path id="Path_79" data-name="Path 79" d="M68.39,65.767a.324.324,0,1,0-.136-.633,7.927,7.927,0,0,0-6.01,6.01.324.324,0,0,0,.633.136A7.294,7.294,0,0,1,68.39,65.767Z" transform="translate(38.116 627.519)" fill="#939393"/>
    <path id="Path_80" data-name="Path 80" d="M68.383,99.558a7.294,7.294,0,0,1-5.517-5.5.324.324,0,0,0-.633.136,7.927,7.927,0,0,0,6.01,6.01.33.33,0,0,0,.139-.645Z" transform="translate(38.123 607.915)" fill="#939393"/>
    <path id="Path_81" data-name="Path 81" d="M97.274,71.144a7.927,7.927,0,0,0-6.01-6.01.324.324,0,0,0-.136.633,7.294,7.294,0,0,1,5.517,5.513.322.322,0,0,0,.629-.136Z" transform="translate(18.539 627.519)" fill="#939393"/>
    <path id="Path_82" data-name="Path 82" d="M96.674,94.05a7.294,7.294,0,0,1-5.517,5.5.324.324,0,1,0,.136.633,7.927,7.927,0,0,0,6.01-6.01.321.321,0,0,0-.629-.123Z" transform="translate(18.518 607.922)" fill="#939393"/>
    <path id="Path_83" data-name="Path 83" d="M86,112.1c-.437,0-.424.791,0,.791S86.414,112.1,86,112.1Z" transform="translate(22.089 595.405)" fill="#939393"/>
    <path id="Path_84" data-name="Path 84" d="M88.847,111.925c-.433.054-.316.832.095.784S89.278,111.874,88.847,111.925Z" transform="translate(20.111 595.526)" fill="#939393"/>
    <path id="Path_85" data-name="Path 85" d="M83.192,111.925c-.459-.054-.516.788-.057.788C83.508,112.712,83.6,111.978,83.192,111.925Z" transform="translate(24.045 595.526)" fill="#939393"/>
    <path id="Path_86" data-name="Path 86" d="M109.2,88.913c0,.437.791.424.791,0S109.2,88.489,109.2,88.913Z" transform="translate(6.008 611.475)" fill="#939393"/>
    <path id="Path_87" data-name="Path 87" d="M109,86.073c.054.433.835.316.784-.095S108.955,85.649,109,86.073Z" transform="translate(6.148 613.448)" fill="#939393"/>
    <path id="Path_88" data-name="Path 88" d="M108.994,91.74c-.054.433.731.528.784.095S109.058,91.316,108.994,91.74Z" transform="translate(6.151 609.514)" fill="#939393"/>
    <path id="Path_89" data-name="Path 89" d="M81.333,82.437a.316.316,0,0,0-.633,0,1.9,1.9,0,0,0,1.582,1.869v.278a.316.316,0,1,0,.633,0v-.278a1.9,1.9,0,0,0,0-3.739V78.053a1.265,1.265,0,0,1,.949,1.221.316.316,0,1,0,.633,0A1.9,1.9,0,0,0,82.914,77.4v-.278a.316.316,0,0,0-.633,0V77.4a1.9,1.9,0,0,0,0,3.739v2.515A1.265,1.265,0,0,1,81.333,82.437Zm1.582,1.221V81.216a1.265,1.265,0,0,1,0,2.442Zm-.633-5.605V80.5a1.265,1.265,0,0,1,0-2.442Z" transform="translate(25.493 619.532)" fill="#a64d2c"/>
    <path id="Path_90" data-name="Path 90" d="M29.684,77.255A12.336,12.336,0,0,1,17.348,64.919a.316.316,0,0,0-.538-.225L14.5,67a.316.316,0,0,0,0,.446h0a.316.316,0,0,0,.446,0l1.787-1.787a12.985,12.985,0,0,0,12.95,12.226.316.316,0,0,0,0-.633Z" transform="translate(70.815 627.877)" fill="#939393"/>
  </g>
</svg>
