<svg xmlns="http://www.w3.org/2000/svg" xmlns:xlink="http://www.w3.org/1999/xlink" width="458.842" height="263.551" viewBox="0 0 458.842 263.551"><defs><linearGradient id="a" x1="-0.03" y1="0.238" x2="1.03" y2="0.761" gradientUnits="objectBoundingBox"><stop offset="0" stop-color="#5b4a88"/><stop offset="1" stop-color="#4c3a6d"/></linearGradient><linearGradient id="b" x1="-0.03" y1="0.238" x2="1.03" y2="0.761" xlink:href="#a"/><linearGradient id="c" x1="0.16" y1="0.14" x2="0.841" y2="0.86" xlink:href="#a"/><linearGradient id="d" x1="0.284" y1="-0.419" x2="0.716" y2="1.419" xlink:href="#a"/><linearGradient id="e" x1="0.117" y1="0.177" x2="0.883" y2="0.823" gradientUnits="objectBoundingBox"><stop offset="0" stop-color="#5b4a88"/><stop offset="1" stop-color="#4e3b75"/></linearGradient><linearGradient id="g" x1="0.192" y1="0.094" x2="0.808" y2="0.906" xlink:href="#a"/></defs><g transform="translate(-490 -236.859)"><g transform="translate(548.652 304.232)"><g transform="translate(332.467 59.034)"><path d="M611.126,248.411c-9.168-7.868-10.13-20.869-8.594-32.318.256-1.911.247-3.953,1.326-5.545s3.323-2.528,4.96-1.549c1.357.812,1.812,2.53,2.473,3.98a11.267,11.267,0,0,0,4.069,4.743,4.294,4.294,0,0,0,3.9.749c1.745-.748,2.168-3.013,2.346-4.922q.5-5.335,1-10.669a17.885,17.885,0,0,1,1.14-5.607,5.947,5.947,0,0,1,4.117-3.629,3.606,3.606,0,0,1,4.2,2.848,17.728,17.728,0,0,1-.182,2.38,2.015,2.015,0,0,0,.985,2,2.316,2.316,0,0,0,2.182-.666,25.474,25.474,0,0,0,5.237-6.419,35.388,35.388,0,0,1,4.953-6.669,10.365,10.365,0,0,1,7.378-3.222c2.747.117,5.489,2.094,5.912,4.844s-1.416,5.329-3.341,7.335a42.8,42.8,0,0,1-9.705,7.565,3.518,3.518,0,0,0-1.642,1.446c-.541,1.23.538,2.613,1.751,3.156a22.17,22.17,0,0,0,4.4.944c1.47.323,3.015,1.14,3.438,2.6.586,2.027-1.247,3.908-2.985,5.086a36.654,36.654,0,0,1-11.414,5.154,12.351,12.351,0,0,0-4.2,1.549,3.547,3.547,0,0,0-1.534,3.93,3.612,3.612,0,0,0,3.758,1.892,25.531,25.531,0,0,0,4.345-1.181c2.719-.727,6.086-.21,7.538,2.223a6.065,6.065,0,0,1,.11,5.4,13.984,13.984,0,0,1-3.361,4.425,36.85,36.85,0,0,1-16.755,9.442c-6.29,1.5-11.98,1.511-17.8-1.3" transform="translate(-601.936 -183.892)" fill="#f5f5f5"/><g transform="translate(12.872 1.96)"><path d="M623.665,242.853a171.8,171.8,0,0,1,8.618-17.722l2.5-4.529c.823-1.485,1.64-2.957,2.527-4.348a85.668,85.668,0,0,1,5.557-7.7c1.886-2.364,3.762-4.538,5.531-6.558s3.463-3.867,5.073-5.486a67.994,67.994,0,0,1,8.163-7.069c1.026-.757,1.84-1.317,2.4-1.69l.637-.42a1.372,1.372,0,0,1,.223-.132,1.422,1.422,0,0,1-.2.162l-.617.449c-.544.391-1.345.97-2.357,1.742a71.925,71.925,0,0,0-8.069,7.136c-1.6,1.626-3.269,3.48-5.031,5.5s-3.623,4.2-5.5,6.568a86.763,86.763,0,0,0-5.518,7.681c-.88,1.384-1.688,2.845-2.512,4.333s-1.652,3-2.5,4.528a176.045,176.045,0,0,0-8.626,17.675" transform="translate(-623.665 -187.2)" fill="#e0e0e0"/></g><g transform="translate(25.91 9.751)"><path d="M646.38,221.611a3.923,3.923,0,0,1-.105-.832c-.047-.537-.091-1.316-.13-2.28-.081-1.925-.1-4.589-.111-7.525s-.069-5.593-.178-7.512c-.052-.96-.1-1.736-.143-2.272a3.845,3.845,0,0,1-.024-.839,3.825,3.825,0,0,1,.161.823c.083.533.171,1.309.255,2.269.174,1.922.272,4.587.283,7.528,0,2.9.007,5.518.009,7.521.007.905.013,1.668.018,2.28A3.813,3.813,0,0,1,646.38,221.611Z" transform="translate(-645.674 -200.352)" fill="#e0e0e0"/></g><g transform="translate(26.616 28.626)"><path d="M671.841,232.46a5.311,5.311,0,0,1-.989.02c-.635-.007-1.553-.021-2.688,0-2.27.018-5.4.154-8.857.454s-6.565.717-8.807,1.08c-1.123.173-2.028.338-2.654.447a5.227,5.227,0,0,1-.98.139,5.313,5.313,0,0,1,.953-.275c.619-.152,1.519-.354,2.64-.56,2.238-.427,5.357-.878,8.819-1.187a87.006,87.006,0,0,1,8.887-.351c1.139.014,2.059.067,2.694.117A5.264,5.264,0,0,1,671.841,232.46Z" transform="translate(-646.865 -232.213)" fill="#e0e0e0"/></g><g transform="translate(3.994 24.645)"><path d="M617.9,258.04a1.249,1.249,0,0,1-.139-.316c-.089-.251-.2-.557-.331-.929-.284-.807-.664-1.988-1.114-3.451-.9-2.927-2.023-7.009-3.2-11.531s-2.256-8.61-3.1-11.551l-1.005-3.481c-.108-.38-.2-.693-.268-.949a1.317,1.317,0,0,1-.071-.339,1.274,1.274,0,0,1,.139.316l.331.928c.283.808.664,1.988,1.114,3.451.9,2.926,2.023,7.009,3.2,11.532s2.256,8.608,3.1,11.55c.414,1.43.753,2.607,1.006,3.481.107.379.2.693.268.949A1.267,1.267,0,0,1,617.9,258.04Z" transform="translate(-608.678 -225.494)" fill="#e0e0e0"/></g><g transform="translate(13.219 49.935)"><path d="M657.879,268.189a1.355,1.355,0,0,1-.336.1l-.978.223-3.6.783c-3.041.662-7.231,1.624-11.859,2.693s-8.832,1.995-11.888,2.594c-1.528.3-2.767.53-3.626.671l-.99.158a1.263,1.263,0,0,1-.35.03,1.369,1.369,0,0,1,.336-.1l.978-.222,3.6-.783c3.041-.661,7.232-1.623,11.861-2.693s8.83-1.994,11.886-2.593c1.528-.3,2.767-.53,3.626-.671l.991-.158A1.263,1.263,0,0,1,657.879,268.189Z" transform="translate(-624.25 -268.183)" fill="#e0e0e0"/></g></g><g transform="translate(357.198 0)"><path d="M650.241,124.5a5.383,5.383,0,0,1-6.31-6.851l9.2-29.622a5.329,5.329,0,0,1,3.953-3.653l.017,0a5.327,5.327,0,0,1,5.124,1.6l21.052,22.781a5.383,5.383,0,0,1-2.766,8.9L650.257,124.5Zm7.211-38.561-.012,0a3.736,3.736,0,0,0-2.772,2.562l-9.2,29.622a3.775,3.775,0,0,0,4.426,4.805l.011,0,30.255-6.842a3.775,3.775,0,0,0,1.94-6.245L661.046,87.065A3.737,3.737,0,0,0,657.452,85.942Z" transform="translate(-643.682 -84.241)" fill="#e0e0e0"/><g transform="translate(14.175 12.233)"><path d="M671.061,121.529a1.987,1.987,0,0,1,1.583-2.394,1.959,1.959,0,0,1,2.422,1.472,1.98,1.98,0,0,1-1.528,2.408A2.007,2.007,0,0,1,671.061,121.529Zm-3.451-15.785,3.7-.853,2.073,11.859-2.479.571Z" transform="translate(-667.61 -104.891)" fill="#e0e0e0"/></g></g></g><g transform="translate(672.81 291.911)"><g transform="translate(0 125.381)"><g transform="translate(0.182)"><g transform="translate(11.985 6.216)"><rect width="82.082" height="58.105" fill="#263238"/></g><g transform="translate(0 0.209)"><rect width="89.731" height="22.262" fill="#455a64"/></g><g transform="translate(26.39 5.202)"><path d="M297.185,284.885a1.013,1.013,0,1,1-1.014-1.014A1.014,1.014,0,0,1,297.185,284.885Z" transform="translate(-295.158 -283.871)" fill="#263238"/><g transform="translate(4.472)"><path d="M304.734,284.885a1.014,1.014,0,1,1-1.014-1.014A1.014,1.014,0,0,1,304.734,284.885Z" transform="translate(-302.707 -283.871)" fill="#263238"/></g><g transform="translate(8.945)"><path d="M312.284,284.885a1.014,1.014,0,1,1-1.014-1.014A1.014,1.014,0,0,1,312.284,284.885Z" transform="translate(-310.257 -283.871)" fill="#263238"/></g><g transform="translate(13.417)"><path d="M319.834,284.885a1.014,1.014,0,1,1-1.014-1.014A1.014,1.014,0,0,1,319.834,284.885Z" transform="translate(-317.807 -283.871)" fill="#263238"/></g><g transform="translate(48.076)"><path d="M378.338,284.885a1.014,1.014,0,1,1-1.014-1.014A1.014,1.014,0,0,1,378.338,284.885Z" transform="translate(-376.311 -283.871)" fill="#263238"/></g><g transform="translate(52.637)"><path d="M386.037,284.885a1.013,1.013,0,1,1-1.013-1.014A1.013,1.013,0,0,1,386.037,284.885Z" transform="translate(-384.01 -283.871)" fill="#263238"/></g><g transform="translate(17.89)"><path d="M327.384,284.885a1.013,1.013,0,1,1-1.014-1.014A1.014,1.014,0,0,1,327.384,284.885Z" transform="translate(-325.357 -283.871)" fill="#263238"/></g><g transform="translate(39.855)"><path d="M364.461,284.885a1.013,1.013,0,1,1-1.014-1.014A1.014,1.014,0,0,1,364.461,284.885Z" transform="translate(-362.434 -283.871)" fill="#263238"/></g><g transform="translate(22.363)"><path d="M334.934,284.885a1.013,1.013,0,1,1-1.014-1.014A1.014,1.014,0,0,1,334.934,284.885Z" transform="translate(-332.907 -283.871)" fill="#f5f5f5"/></g><g transform="translate(26.835)"><path d="M342.483,284.885a1.014,1.014,0,1,1-1.014-1.014A1.014,1.014,0,0,1,342.483,284.885Z" transform="translate(-340.456 -283.871)" fill="#f5f5f5"/></g><g transform="translate(35.909)"><path d="M357.8,284.885a1.013,1.013,0,1,1-1.014-1.014A1.014,1.014,0,0,1,357.8,284.885Z" transform="translate(-355.774 -283.871)" fill="#f5f5f5"/></g><g transform="translate(56.348)"><path d="M392.3,284.885a1.013,1.013,0,1,1-1.013-1.014A1.013,1.013,0,0,1,392.3,284.885Z" transform="translate(-390.274 -283.871)" fill="#f5f5f5"/></g><g transform="translate(31.308)"><path d="M350.033,284.885a1.014,1.014,0,1,1-1.014-1.014A1.014,1.014,0,0,1,350.033,284.885Z" transform="translate(-348.006 -283.871)" fill="#e8505b"/></g><g transform="translate(44.113)"><path d="M371.649,284.885a1.014,1.014,0,1,1-1.014-1.014A1.014,1.014,0,0,1,371.649,284.885Z" transform="translate(-369.622 -283.871)" fill="#e8505b"/></g><g transform="translate(0 4.885)"><g transform="translate(56.348 0)"><path d="M390.274,293.132a1.013,1.013,0,1,1,1.014,1.014A1.014,1.014,0,0,1,390.274,293.132Z" transform="translate(-390.274 -292.118)" fill="#263238"/></g><g transform="translate(51.875)"><circle cx="1.014" cy="1.014" r="1.014" fill="#263238"/></g><g transform="translate(47.402 0)"><path d="M375.174,293.132a1.014,1.014,0,1,1,1.014,1.014A1.014,1.014,0,0,1,375.174,293.132Z" transform="translate(-375.174 -292.118)" fill="#263238"/></g><g transform="translate(42.93 0)"><path d="M367.624,293.132a1.014,1.014,0,1,1,1.014,1.014A1.014,1.014,0,0,1,367.624,293.132Z" transform="translate(-367.624 -292.118)" fill="#263238"/></g><g transform="translate(8.271 0)"><path d="M309.12,293.132a1.014,1.014,0,1,1,1.014,1.014A1.014,1.014,0,0,1,309.12,293.132Z" transform="translate(-309.12 -292.118)" fill="#263238"/></g><g transform="translate(3.71 0)"><path d="M301.421,293.132a1.014,1.014,0,1,1,1.014,1.014A1.014,1.014,0,0,1,301.421,293.132Z" transform="translate(-301.421 -292.118)" fill="#263238"/></g><g transform="translate(38.457)"><ellipse cx="1.014" cy="1.014" rx="1.014" ry="1.014" fill="#263238"/></g><g transform="translate(16.493 0)"><circle cx="1.014" cy="1.014" r="1.014" fill="#263238"/></g><g transform="translate(33.985 0)"><path d="M352.525,293.132a1.014,1.014,0,1,1,1.014,1.014A1.014,1.014,0,0,1,352.525,293.132Z" transform="translate(-352.525 -292.118)" fill="#f5f5f5"/></g><g transform="translate(29.512 0)"><path d="M344.975,293.132a1.014,1.014,0,1,1,1.014,1.014A1.014,1.014,0,0,1,344.975,293.132Z" transform="translate(-344.975 -292.118)" fill="#f5f5f5"/></g><g transform="translate(20.438 0)"><path d="M329.658,293.132a1.013,1.013,0,1,1,1.014,1.014A1.014,1.014,0,0,1,329.658,293.132Z" transform="translate(-329.658 -292.118)" fill="#f5f5f5"/></g><g transform="translate(0 0)"><path d="M295.158,293.132a1.013,1.013,0,1,1,1.013,1.014A1.013,1.013,0,0,1,295.158,293.132Z" transform="translate(-295.158 -292.118)" fill="#f5f5f5"/></g><g transform="translate(25.039 0)"><path d="M337.425,293.132a1.014,1.014,0,1,1,1.014,1.014A1.014,1.014,0,0,1,337.425,293.132Z" transform="translate(-337.425 -292.118)" fill="#e8505b"/></g><g transform="translate(12.234 0)"><path d="M315.809,293.132a1.014,1.014,0,1,1,1.014,1.014A1.014,1.014,0,0,1,315.809,293.132Z" transform="translate(-315.809 -292.118)" fill="#e8505b"/></g></g><g transform="translate(0 9.23)"><path d="M297.185,300.466a1.013,1.013,0,1,1-1.014-1.014A1.014,1.014,0,0,1,297.185,300.466Z" transform="translate(-295.158 -299.452)" fill="#263238"/><g transform="translate(4.472)"><path d="M304.734,300.466a1.014,1.014,0,1,1-1.014-1.014A1.014,1.014,0,0,1,304.734,300.466Z" transform="translate(-302.707 -299.452)" fill="#263238"/></g><g transform="translate(8.945)"><path d="M312.284,300.466a1.014,1.014,0,1,1-1.014-1.014A1.014,1.014,0,0,1,312.284,300.466Z" transform="translate(-310.257 -299.452)" fill="#263238"/></g><g transform="translate(13.417)"><path d="M319.834,300.466a1.014,1.014,0,1,1-1.014-1.014A1.014,1.014,0,0,1,319.834,300.466Z" transform="translate(-317.807 -299.452)" fill="#263238"/></g><g transform="translate(48.076)"><path d="M378.338,300.466a1.014,1.014,0,1,1-1.014-1.014A1.014,1.014,0,0,1,378.338,300.466Z" transform="translate(-376.311 -299.452)" fill="#263238"/></g><g transform="translate(52.637)"><path d="M386.037,300.466a1.013,1.013,0,1,1-1.013-1.014A1.013,1.013,0,0,1,386.037,300.466Z" transform="translate(-384.01 -299.452)" fill="#263238"/></g><g transform="translate(17.89)"><path d="M327.384,300.466a1.013,1.013,0,1,1-1.014-1.014A1.014,1.014,0,0,1,327.384,300.466Z" transform="translate(-325.357 -299.452)" fill="#263238"/></g><g transform="translate(39.855)"><path d="M364.461,300.466a1.013,1.013,0,1,1-1.014-1.014A1.014,1.014,0,0,1,364.461,300.466Z" transform="translate(-362.434 -299.452)" fill="#263238"/></g><g transform="translate(22.363)"><path d="M334.934,300.466a1.013,1.013,0,1,1-1.014-1.014A1.014,1.014,0,0,1,334.934,300.466Z" transform="translate(-332.907 -299.452)" fill="#f5f5f5"/></g><g transform="translate(26.835)"><path d="M342.483,300.466a1.014,1.014,0,1,1-1.014-1.014A1.014,1.014,0,0,1,342.483,300.466Z" transform="translate(-340.456 -299.452)" fill="#f5f5f5"/></g><g transform="translate(35.909)"><path d="M357.8,300.466a1.013,1.013,0,1,1-1.014-1.014A1.014,1.014,0,0,1,357.8,300.466Z" transform="translate(-355.774 -299.452)" fill="#f5f5f5"/></g><g transform="translate(56.348)"><path d="M392.3,300.466a1.013,1.013,0,1,1-1.013-1.014A1.013,1.013,0,0,1,392.3,300.466Z" transform="translate(-390.274 -299.452)" fill="#f5f5f5"/></g><g transform="translate(31.308)"><path d="M350.033,300.466a1.014,1.014,0,1,1-1.014-1.014A1.014,1.014,0,0,1,350.033,300.466Z" transform="translate(-348.006 -299.452)" fill="#e8505b"/></g><g transform="translate(44.113)"><path d="M371.649,300.466a1.014,1.014,0,1,1-1.014-1.014A1.014,1.014,0,0,1,371.649,300.466Z" transform="translate(-369.622 -299.452)" fill="#e8505b"/></g></g></g><g transform="translate(3.984 4.795)"><rect width="17.668" height="2.718" fill="#263238"/></g><g transform="translate(3.984 9.472)"><rect width="17.668" height="2.718" fill="#263238"/></g><g transform="translate(3.984 14.308)"><rect width="17.668" height="2.718" fill="#263238"/></g><g transform="translate(0 27.682)"><rect width="89.731" height="22.263" fill="#455a64"/></g><g transform="translate(3.984 32.268)"><rect width="17.668" height="2.718" fill="#263238"/></g><g transform="translate(3.984 36.945)"><rect width="17.668" height="2.718" fill="#263238"/></g><g transform="translate(3.984 41.781)"><rect width="17.668" height="2.718" fill="#263238"/></g><g transform="translate(26.065 32.675)"><path d="M296.636,331.26a1.013,1.013,0,1,1-1.013-1.014A1.013,1.013,0,0,1,296.636,331.26Z" transform="translate(-294.609 -330.246)" fill="#263238"/><g transform="translate(4.473)"><path d="M304.186,331.26a1.013,1.013,0,1,1-1.013-1.014A1.013,1.013,0,0,1,304.186,331.26Z" transform="translate(-302.159 -330.246)" fill="#263238"/></g><g transform="translate(8.945)"><path d="M311.735,331.26a1.014,1.014,0,1,1-1.014-1.014A1.013,1.013,0,0,1,311.735,331.26Z" transform="translate(-309.708 -330.246)" fill="#263238"/></g><g transform="translate(13.417)"><path d="M319.285,331.26a1.014,1.014,0,1,1-1.014-1.014A1.013,1.013,0,0,1,319.285,331.26Z" transform="translate(-317.258 -330.246)" fill="#263238"/></g><g transform="translate(48.076)"><path d="M377.789,331.26a1.014,1.014,0,1,1-1.014-1.014A1.013,1.013,0,0,1,377.789,331.26Z" transform="translate(-375.762 -330.246)" fill="#263238"/></g><g transform="translate(52.637)"><path d="M385.488,331.26a1.014,1.014,0,1,1-1.014-1.014A1.013,1.013,0,0,1,385.488,331.26Z" transform="translate(-383.461 -330.246)" fill="#263238"/></g><g transform="translate(17.89)"><path d="M326.835,331.26a1.014,1.014,0,1,1-1.014-1.014A1.013,1.013,0,0,1,326.835,331.26Z" transform="translate(-324.808 -330.246)" fill="#263238"/></g><g transform="translate(39.855)"><path d="M363.912,331.26a1.013,1.013,0,1,1-1.013-1.014A1.013,1.013,0,0,1,363.912,331.26Z" transform="translate(-361.885 -330.246)" fill="#263238"/></g><g transform="translate(22.363)"><path d="M334.385,331.26a1.013,1.013,0,1,1-1.013-1.014A1.013,1.013,0,0,1,334.385,331.26Z" transform="translate(-332.358 -330.246)" fill="#f5f5f5"/></g><g transform="translate(26.836)"><path d="M341.935,331.26a1.013,1.013,0,1,1-1.014-1.014A1.013,1.013,0,0,1,341.935,331.26Z" transform="translate(-339.908 -330.246)" fill="#f5f5f5"/></g><g transform="translate(35.909)"><path d="M357.252,331.26a1.014,1.014,0,1,1-1.014-1.014A1.013,1.013,0,0,1,357.252,331.26Z" transform="translate(-355.225 -330.246)" fill="#f5f5f5"/></g><g transform="translate(56.348)"><path d="M391.752,331.26a1.014,1.014,0,1,1-1.014-1.014A1.013,1.013,0,0,1,391.752,331.26Z" transform="translate(-389.725 -330.246)" fill="#f5f5f5"/></g><g transform="translate(31.308)"><path d="M349.484,331.26a1.014,1.014,0,1,1-1.014-1.014A1.013,1.013,0,0,1,349.484,331.26Z" transform="translate(-347.457 -330.246)" fill="#e8505b"/></g><g transform="translate(44.114)"><path d="M371.1,331.26a1.013,1.013,0,1,1-1.014-1.014A1.013,1.013,0,0,1,371.1,331.26Z" transform="translate(-369.074 -330.246)" fill="#e8505b"/></g><g transform="translate(0 4.886)"><g transform="translate(56.348)"><path d="M389.725,339.506a1.014,1.014,0,1,1,1.014,1.014A1.013,1.013,0,0,1,389.725,339.506Z" transform="translate(-389.725 -338.493)" fill="#263238"/></g><g transform="translate(51.875)"><path d="M382.175,339.506a1.014,1.014,0,1,1,1.014,1.014A1.013,1.013,0,0,1,382.175,339.506Z" transform="translate(-382.175 -338.493)" fill="#263238"/></g><g transform="translate(47.403)"><path d="M374.626,339.506a1.013,1.013,0,1,1,1.013,1.014A1.013,1.013,0,0,1,374.626,339.506Z" transform="translate(-374.626 -338.493)" fill="#263238"/></g><g transform="translate(42.93)"><path d="M367.076,339.506a1.013,1.013,0,1,1,1.014,1.014A1.013,1.013,0,0,1,367.076,339.506Z" transform="translate(-367.076 -338.493)" fill="#263238"/></g><g transform="translate(8.272)"><path d="M308.572,339.506a1.013,1.013,0,1,1,1.014,1.014A1.013,1.013,0,0,1,308.572,339.506Z" transform="translate(-308.572 -338.493)" fill="#263238"/></g><g transform="translate(3.711)"><path d="M300.873,339.506a1.013,1.013,0,1,1,1.014,1.014A1.013,1.013,0,0,1,300.873,339.506Z" transform="translate(-300.873 -338.493)" fill="#263238"/></g><g transform="translate(38.457)"><path d="M359.526,339.506a1.014,1.014,0,1,1,1.014,1.014A1.013,1.013,0,0,1,359.526,339.506Z" transform="translate(-359.526 -338.493)" fill="#263238"/></g><g transform="translate(16.493)"><path d="M322.449,339.506a1.014,1.014,0,1,1,1.014,1.014A1.013,1.013,0,0,1,322.449,339.506Z" transform="translate(-322.449 -338.493)" fill="#263238"/></g><g transform="translate(33.985)"><path d="M351.976,339.506a1.014,1.014,0,1,1,1.014,1.014A1.013,1.013,0,0,1,351.976,339.506Z" transform="translate(-351.976 -338.493)" fill="#f5f5f5"/></g><g transform="translate(29.512)"><path d="M344.426,339.506a1.014,1.014,0,1,1,1.014,1.014A1.013,1.013,0,0,1,344.426,339.506Z" transform="translate(-344.426 -338.493)" fill="#f5f5f5"/></g><g transform="translate(20.438)"><path d="M329.109,339.506a1.014,1.014,0,1,1,1.014,1.014A1.013,1.013,0,0,1,329.109,339.506Z" transform="translate(-329.109 -338.493)" fill="#f5f5f5"/></g><path d="M294.609,339.506a1.013,1.013,0,1,1,1.014,1.014A1.013,1.013,0,0,1,294.609,339.506Z" transform="translate(-294.609 -338.493)" fill="#f5f5f5"/><g transform="translate(25.04)"><path d="M336.877,339.506a1.013,1.013,0,1,1,1.014,1.014A1.013,1.013,0,0,1,336.877,339.506Z" transform="translate(-336.877 -338.493)" fill="#e8505b"/></g><g transform="translate(12.234)"><path d="M315.26,339.506a1.014,1.014,0,1,1,1.014,1.014A1.013,1.013,0,0,1,315.26,339.506Z" transform="translate(-315.26 -338.493)" fill="#e8505b"/></g></g><g transform="translate(0 9.23)"><path d="M296.636,346.841a1.013,1.013,0,1,1-1.013-1.014A1.013,1.013,0,0,1,296.636,346.841Z" transform="translate(-294.609 -345.827)" fill="#263238"/><g transform="translate(4.473)"><path d="M304.186,346.841a1.013,1.013,0,1,1-1.013-1.014A1.013,1.013,0,0,1,304.186,346.841Z" transform="translate(-302.159 -345.827)" fill="#263238"/></g><g transform="translate(8.945)"><path d="M311.735,346.841a1.014,1.014,0,1,1-1.014-1.014A1.013,1.013,0,0,1,311.735,346.841Z" transform="translate(-309.708 -345.827)" fill="#263238"/></g><g transform="translate(13.417)"><path d="M319.285,346.841a1.014,1.014,0,1,1-1.014-1.014A1.013,1.013,0,0,1,319.285,346.841Z" transform="translate(-317.258 -345.827)" fill="#263238"/></g><g transform="translate(48.076)"><path d="M377.789,346.841a1.014,1.014,0,1,1-1.014-1.014A1.013,1.013,0,0,1,377.789,346.841Z" transform="translate(-375.762 -345.827)" fill="#263238"/></g><g transform="translate(52.637)"><path d="M385.488,346.841a1.014,1.014,0,1,1-1.014-1.014A1.013,1.013,0,0,1,385.488,346.841Z" transform="translate(-383.461 -345.827)" fill="#263238"/></g><g transform="translate(17.89)"><path d="M326.835,346.841a1.014,1.014,0,1,1-1.014-1.014A1.013,1.013,0,0,1,326.835,346.841Z" transform="translate(-324.808 -345.827)" fill="#263238"/></g><g transform="translate(39.855)"><path d="M363.912,346.841a1.013,1.013,0,1,1-1.013-1.014A1.013,1.013,0,0,1,363.912,346.841Z" transform="translate(-361.885 -345.827)" fill="#263238"/></g><g transform="translate(22.363)"><path d="M334.385,346.841a1.013,1.013,0,1,1-1.013-1.014A1.013,1.013,0,0,1,334.385,346.841Z" transform="translate(-332.358 -345.827)" fill="#f5f5f5"/></g><g transform="translate(26.836)"><path d="M341.935,346.841a1.013,1.013,0,1,1-1.014-1.014A1.013,1.013,0,0,1,341.935,346.841Z" transform="translate(-339.908 -345.827)" fill="#f5f5f5"/></g><g transform="translate(35.909)"><path d="M357.252,346.841a1.014,1.014,0,1,1-1.014-1.014A1.013,1.013,0,0,1,357.252,346.841Z" transform="translate(-355.225 -345.827)" fill="#f5f5f5"/></g><g transform="translate(56.348)"><path d="M391.752,346.841a1.014,1.014,0,1,1-1.014-1.014A1.013,1.013,0,0,1,391.752,346.841Z" transform="translate(-389.725 -345.827)" fill="#f5f5f5"/></g><g transform="translate(31.308)"><path d="M349.484,346.841a1.014,1.014,0,1,1-1.014-1.014A1.013,1.013,0,0,1,349.484,346.841Z" transform="translate(-347.457 -345.827)" fill="#e8505b"/></g><g transform="translate(44.114)"><path d="M371.1,346.841a1.013,1.013,0,1,1-1.014-1.014A1.013,1.013,0,0,1,371.1,346.841Z" transform="translate(-369.074 -345.827)" fill="#e8505b"/></g></g></g><g transform="translate(89.731)"><path d="M415.57,297.352l-13.49.036V275.125l13.49-.036Z" transform="translate(-402.08 -275.089)" fill="#263238"/></g><g transform="translate(89.731 27.646)"><path d="M415.57,344.019l-13.49.036V321.793l13.49-.036Z" transform="translate(-402.08 -321.757)" fill="#263238"/></g></g><g transform="translate(0 55.5)"><g transform="translate(89.082)"><path d="M414.167,391.038l-13.49.036V368.811l13.49-.036Z" transform="translate(-400.677 -368.775)" fill="#263238"/></g><g transform="translate(0 0.036)"><rect width="89.732" height="22.262" fill="#455a64"/></g><g transform="translate(3.984 4.621)"><rect width="17.668" height="2.718" fill="#263238"/></g><g transform="translate(3.984 9.299)"><rect width="17.668" height="2.718" fill="#263238"/></g><g transform="translate(26.612 5.25)"><path d="M297.253,378.652a1.014,1.014,0,1,1-1.014-1.014A1.013,1.013,0,0,1,297.253,378.652Z" transform="translate(-295.226 -377.638)" fill="#263238"/><g transform="translate(4.473)"><path d="M304.8,378.652a1.014,1.014,0,1,1-1.014-1.014A1.013,1.013,0,0,1,304.8,378.652Z" transform="translate(-302.776 -377.638)" fill="#263238"/></g><g transform="translate(8.945)"><path d="M312.353,378.652a1.014,1.014,0,1,1-1.014-1.014A1.013,1.013,0,0,1,312.353,378.652Z" transform="translate(-310.326 -377.638)" fill="#263238"/></g><g transform="translate(13.418)"><path d="M319.9,378.652a1.013,1.013,0,1,1-1.014-1.014A1.013,1.013,0,0,1,319.9,378.652Z" transform="translate(-317.876 -377.638)" fill="#263238"/></g><g transform="translate(48.076)"><path d="M378.407,378.652a1.013,1.013,0,1,1-1.013-1.014A1.013,1.013,0,0,1,378.407,378.652Z" transform="translate(-376.38 -377.638)" fill="#263238"/></g><g transform="translate(52.637)"><path d="M386.106,378.652a1.013,1.013,0,1,1-1.014-1.014A1.013,1.013,0,0,1,386.106,378.652Z" transform="translate(-384.079 -377.638)" fill="#263238"/></g><g transform="translate(17.89)"><path d="M327.452,378.652a1.014,1.014,0,1,1-1.014-1.014A1.013,1.013,0,0,1,327.452,378.652Z" transform="translate(-325.425 -377.638)" fill="#263238"/></g><g transform="translate(39.855)"><path d="M364.529,378.652a1.014,1.014,0,1,1-1.014-1.014A1.013,1.013,0,0,1,364.529,378.652Z" transform="translate(-362.502 -377.638)" fill="#263238"/></g><g transform="translate(22.363)"><path d="M335,378.652a1.014,1.014,0,1,1-1.014-1.014A1.013,1.013,0,0,1,335,378.652Z" transform="translate(-332.975 -377.638)" fill="#f5f5f5"/></g><g transform="translate(26.836)"><path d="M342.552,378.652a1.014,1.014,0,1,1-1.014-1.014A1.013,1.013,0,0,1,342.552,378.652Z" transform="translate(-340.525 -377.638)" fill="#f5f5f5"/></g><g transform="translate(35.909)"><path d="M357.869,378.652a1.014,1.014,0,1,1-1.014-1.014A1.013,1.013,0,0,1,357.869,378.652Z" transform="translate(-355.842 -377.638)" fill="#f5f5f5"/></g><g transform="translate(56.348)"><path d="M392.37,378.652a1.013,1.013,0,1,1-1.014-1.014A1.013,1.013,0,0,1,392.37,378.652Z" transform="translate(-390.343 -377.638)" fill="#f5f5f5"/></g><g transform="translate(31.308)"><path d="M350.1,378.652a1.013,1.013,0,1,1-1.013-1.014A1.013,1.013,0,0,1,350.1,378.652Z" transform="translate(-348.075 -377.638)" fill="#e8505b"/></g><g transform="translate(44.114)"><path d="M371.718,378.652a1.014,1.014,0,1,1-1.014-1.014A1.013,1.013,0,0,1,371.718,378.652Z" transform="translate(-369.691 -377.638)" fill="#e8505b"/></g><g transform="translate(0 4.886)"><g transform="translate(56.348)"><path d="M390.343,386.9a1.013,1.013,0,1,1,1.013,1.013A1.013,1.013,0,0,1,390.343,386.9Z" transform="translate(-390.343 -385.885)" fill="#263238"/></g><g transform="translate(51.875)"><path d="M382.793,386.9a1.013,1.013,0,1,1,1.014,1.013A1.014,1.014,0,0,1,382.793,386.9Z" transform="translate(-382.793 -385.885)" fill="#263238"/></g><g transform="translate(47.403)"><path d="M375.243,386.9a1.014,1.014,0,1,1,1.014,1.013A1.014,1.014,0,0,1,375.243,386.9Z" transform="translate(-375.243 -385.885)" fill="#263238"/></g><g transform="translate(42.93)"><path d="M367.693,386.9a1.014,1.014,0,1,1,1.014,1.013A1.014,1.014,0,0,1,367.693,386.9Z" transform="translate(-367.693 -385.885)" fill="#263238"/></g><g transform="translate(8.272)"><path d="M309.189,386.9a1.014,1.014,0,1,1,1.014,1.013A1.014,1.014,0,0,1,309.189,386.9Z" transform="translate(-309.189 -385.885)" fill="#263238"/></g><g transform="translate(3.711)"><path d="M301.49,386.9a1.014,1.014,0,1,1,1.014,1.013A1.014,1.014,0,0,1,301.49,386.9Z" transform="translate(-301.49 -385.885)" fill="#263238"/></g><g transform="translate(38.457)"><path d="M360.143,386.9a1.014,1.014,0,1,1,1.014,1.013A1.014,1.014,0,0,1,360.143,386.9Z" transform="translate(-360.143 -385.885)" fill="#263238"/></g><g transform="translate(16.493)"><path d="M323.067,386.9a1.013,1.013,0,1,1,1.013,1.013A1.013,1.013,0,0,1,323.067,386.9Z" transform="translate(-323.067 -385.885)" fill="#263238"/></g><g transform="translate(33.985)"><path d="M352.594,386.9a1.013,1.013,0,1,1,1.013,1.013A1.013,1.013,0,0,1,352.594,386.9Z" transform="translate(-352.594 -385.885)" fill="#f5f5f5"/></g><g transform="translate(29.513)"><path d="M345.044,386.9a1.013,1.013,0,1,1,1.014,1.013A1.014,1.014,0,0,1,345.044,386.9Z" transform="translate(-345.044 -385.885)" fill="#f5f5f5"/></g><g transform="translate(20.438)"><path d="M329.726,386.9a1.014,1.014,0,1,1,1.014,1.013A1.014,1.014,0,0,1,329.726,386.9Z" transform="translate(-329.726 -385.885)" fill="#f5f5f5"/></g><path d="M295.226,386.9a1.014,1.014,0,1,1,1.014,1.013A1.014,1.014,0,0,1,295.226,386.9Z" transform="translate(-295.226 -385.885)" fill="#f5f5f5"/><g transform="translate(25.04)"><path d="M337.494,386.9a1.014,1.014,0,1,1,1.014,1.013A1.014,1.014,0,0,1,337.494,386.9Z" transform="translate(-337.494 -385.885)" fill="#e8505b"/></g><g transform="translate(12.234)"><path d="M315.878,386.9a1.014,1.014,0,1,1,1.014,1.013A1.014,1.014,0,0,1,315.878,386.9Z" transform="translate(-315.878 -385.885)" fill="#e8505b"/></g></g><g transform="translate(0 9.23)"><path d="M297.253,394.233a1.014,1.014,0,1,1-1.014-1.014A1.013,1.013,0,0,1,297.253,394.233Z" transform="translate(-295.226 -393.219)" fill="#263238"/><g transform="translate(4.473)"><path d="M304.8,394.233a1.014,1.014,0,1,1-1.014-1.014A1.013,1.013,0,0,1,304.8,394.233Z" transform="translate(-302.776 -393.219)" fill="#263238"/></g><g transform="translate(8.945)"><path d="M312.353,394.233a1.014,1.014,0,1,1-1.014-1.014A1.013,1.013,0,0,1,312.353,394.233Z" transform="translate(-310.326 -393.219)" fill="#263238"/></g><g transform="translate(13.418)"><path d="M319.9,394.233a1.013,1.013,0,1,1-1.014-1.014A1.013,1.013,0,0,1,319.9,394.233Z" transform="translate(-317.876 -393.219)" fill="#263238"/></g><g transform="translate(48.076)"><path d="M378.407,394.233a1.013,1.013,0,1,1-1.013-1.014A1.013,1.013,0,0,1,378.407,394.233Z" transform="translate(-376.38 -393.219)" fill="#263238"/></g><g transform="translate(52.637)"><path d="M386.106,394.233a1.013,1.013,0,1,1-1.014-1.014A1.013,1.013,0,0,1,386.106,394.233Z" transform="translate(-384.079 -393.219)" fill="#263238"/></g><g transform="translate(17.89)"><path d="M327.452,394.233a1.014,1.014,0,1,1-1.014-1.014A1.013,1.013,0,0,1,327.452,394.233Z" transform="translate(-325.425 -393.219)" fill="#263238"/></g><g transform="translate(39.855)"><path d="M364.529,394.233a1.014,1.014,0,1,1-1.014-1.014A1.013,1.013,0,0,1,364.529,394.233Z" transform="translate(-362.502 -393.219)" fill="#263238"/></g><g transform="translate(22.363)"><path d="M335,394.233a1.014,1.014,0,1,1-1.014-1.014A1.013,1.013,0,0,1,335,394.233Z" transform="translate(-332.975 -393.219)" fill="#f5f5f5"/></g><g transform="translate(26.836)"><path d="M342.552,394.233a1.014,1.014,0,1,1-1.014-1.014A1.013,1.013,0,0,1,342.552,394.233Z" transform="translate(-340.525 -393.219)" fill="#f5f5f5"/></g><g transform="translate(35.909)"><path d="M357.869,394.233a1.014,1.014,0,1,1-1.014-1.014A1.013,1.013,0,0,1,357.869,394.233Z" transform="translate(-355.842 -393.219)" fill="#f5f5f5"/></g><g transform="translate(56.348)"><path d="M392.37,394.233a1.013,1.013,0,1,1-1.014-1.014A1.013,1.013,0,0,1,392.37,394.233Z" transform="translate(-390.343 -393.219)" fill="#f5f5f5"/></g><g transform="translate(31.308)"><path d="M350.1,394.233a1.013,1.013,0,1,1-1.013-1.014A1.013,1.013,0,0,1,350.1,394.233Z" transform="translate(-348.075 -393.219)" fill="#e8505b"/></g><g transform="translate(44.114)"><path d="M371.718,394.233a1.014,1.014,0,1,1-1.014-1.014A1.013,1.013,0,0,1,371.718,394.233Z" transform="translate(-369.691 -393.219)" fill="#e8505b"/></g></g></g></g></g><g transform="translate(106.267 0)"><g transform="translate(0.28)"><rect width="66.327" height="203.18" fill="#ebebeb"/></g><g transform="translate(66.513)"><path d="M594.382,266.623H542.055l-.094-203.18h52.42Z" transform="translate(-541.961 -63.444)" fill="#e0e0e0"/></g><g transform="translate(3.952 32.518)"><rect width="56.264" height="15.84" fill="#263238"/><g transform="translate(1.57 1.991)"><rect width="3.151" height="12.123" fill="#455a64"/></g><g transform="translate(6.43 3.54)"><path d="M449.214,125.312a1,1,0,1,1-1-1A1,1,0,0,1,449.214,125.312Z" transform="translate(-447.211 -124.31)" fill="#fff"/></g><g transform="translate(6.43 7.824)"><path d="M449.214,132.542a1,1,0,1,1-1-1A1,1,0,0,1,449.214,132.542Z" transform="translate(-447.211 -131.541)" fill="#fff"/></g><g transform="translate(12.435 3.54)"><rect width="3.096" height="9.312" fill="#455a64"/></g><g transform="translate(16.907 3.54)"><rect width="3.096" height="9.312" fill="#455a64"/></g><g transform="translate(21.379 3.54)"><rect width="3.096" height="9.312" fill="#455a64"/></g><g transform="translate(25.851 3.54)"><rect width="3.096" height="9.312" fill="#455a64"/></g><g transform="translate(30.323 3.54)"><rect width="3.096" height="9.312" fill="#455a64"/></g><g transform="translate(34.795 3.54)"><rect width="3.096" height="9.312" fill="#455a64"/></g><g transform="translate(39.267 3.54)"><rect width="3.096" height="9.312" fill="#455a64"/></g><g transform="translate(43.739 3.54)"><rect width="3.096" height="9.312" fill="#455a64"/></g><g transform="translate(48.211 3.54)"><rect width="3.096" height="9.312" fill="#455a64"/></g><g transform="translate(52.683 3.54)"><rect width="3.096" height="9.312" fill="#455a64"/></g></g><g transform="translate(3.952 55.274)"><rect width="56.264" height="15.84" fill="#263238"/><g transform="translate(1.57 1.991)"><rect width="3.151" height="12.123" fill="#455a64"/></g><g transform="translate(6.43 3.54)"><path d="M449.214,163.724a1,1,0,1,1-1-1A1,1,0,0,1,449.214,163.724Z" transform="translate(-447.211 -162.723)" fill="#fff"/></g><g transform="translate(6.43 7.823)"><path d="M449.214,170.955a1,1,0,1,1-1-1A1,1,0,0,1,449.214,170.955Z" transform="translate(-447.211 -169.953)" fill="#fff"/></g><g transform="translate(12.435 3.54)"><rect width="3.096" height="9.312" fill="#455a64"/></g><g transform="translate(16.907 3.54)"><rect width="3.096" height="9.312" fill="#455a64"/></g><g transform="translate(21.379 3.54)"><rect width="3.096" height="9.312" fill="#455a64"/></g><g transform="translate(25.851 3.54)"><rect width="3.096" height="9.312" fill="#455a64"/></g><g transform="translate(30.323 3.54)"><rect width="3.096" height="9.312" fill="#455a64"/></g><g transform="translate(34.795 3.54)"><rect width="3.096" height="9.312" fill="#455a64"/></g><g transform="translate(39.267 3.54)"><rect width="3.096" height="9.312" fill="#455a64"/></g><g transform="translate(43.739 3.54)"><rect width="3.096" height="9.312" fill="#455a64"/></g><g transform="translate(48.211 3.54)"><rect width="3.096" height="9.312" fill="#455a64"/></g><g transform="translate(52.683 3.54)"><rect width="3.096" height="9.312" fill="#455a64"/></g></g><g transform="translate(3.952 78.212)"><rect width="56.264" height="15.84" fill="#263238"/><g transform="translate(1.57 1.991)"><rect width="3.151" height="12.123" fill="#455a64"/></g><g transform="translate(6.43 3.54)"><path d="M449.214,202.444a1,1,0,1,1-1-1A1,1,0,0,1,449.214,202.444Z" transform="translate(-447.211 -201.442)" fill="#fff"/></g><g transform="translate(6.43 7.824)"><path d="M449.214,209.674a1,1,0,1,1-1-1A1,1,0,0,1,449.214,209.674Z" transform="translate(-447.211 -208.673)" fill="#fff"/></g><g transform="translate(12.435 3.54)"><rect width="3.096" height="9.312" fill="#455a64"/></g><g transform="translate(16.907 3.54)"><rect width="3.096" height="9.312" fill="#455a64"/></g><g transform="translate(21.379 3.54)"><rect width="3.096" height="9.312" fill="#455a64"/></g><g transform="translate(25.851 3.54)"><rect width="3.096" height="9.312" fill="#455a64"/></g><g transform="translate(30.323 3.54)"><rect width="3.096" height="9.312" fill="#455a64"/></g><g transform="translate(34.795 3.54)"><rect width="3.096" height="9.312" fill="#455a64"/></g><g transform="translate(39.267 3.54)"><rect width="3.096" height="9.312" fill="#455a64"/></g><g transform="translate(43.739 3.54)"><rect width="3.096" height="9.312" fill="#455a64"/></g><g transform="translate(48.211 3.54)"><rect width="3.096" height="9.312" fill="#455a64"/></g><g transform="translate(52.683 3.54)"><rect width="3.096" height="9.312" fill="#455a64"/></g></g><g transform="translate(3.952 102.99)"><rect width="56.264" height="15.84" fill="#263238"/><g transform="translate(1.57 1.991)"><rect width="3.151" height="12.123" fill="#455a64"/></g><g transform="translate(6.43 3.54)"><path d="M449.214,244.271a1,1,0,1,1-1-1A1,1,0,0,1,449.214,244.271Z" transform="translate(-447.211 -243.269)" fill="#fff"/></g><g transform="translate(6.43 7.824)"><path d="M449.214,251.5a1,1,0,1,1-1-1A1,1,0,0,1,449.214,251.5Z" transform="translate(-447.211 -250.5)" fill="#fff"/></g><g transform="translate(12.435 3.54)"><rect width="3.096" height="9.312" fill="#455a64"/></g><g transform="translate(16.907 3.54)"><rect width="3.096" height="9.312" fill="#455a64"/></g><g transform="translate(21.379 3.54)"><rect width="3.096" height="9.312" fill="#455a64"/></g><g transform="translate(25.851 3.54)"><rect width="3.096" height="9.312" fill="#455a64"/></g><g transform="translate(30.323 3.54)"><rect width="3.096" height="9.312" fill="#455a64"/></g><g transform="translate(34.795 3.54)"><rect width="3.096" height="9.312" fill="#455a64"/></g><g transform="translate(39.267 3.54)"><rect width="3.096" height="9.312" fill="#455a64"/></g><g transform="translate(43.739 3.54)"><rect width="3.096" height="9.312" fill="#455a64"/></g><g transform="translate(48.211 3.54)"><rect width="3.096" height="9.312" fill="#455a64"/></g><g transform="translate(52.683 3.54)"><rect width="3.096" height="9.312" fill="#455a64"/></g></g><g transform="translate(3.952 128.014)"><rect width="56.264" height="15.84" fill="#263238"/><g transform="translate(1.57 1.991)"><rect width="3.151" height="12.123" fill="#455a64"/></g><g transform="translate(6.43 3.54)"><path d="M449.214,286.511a1,1,0,1,1-1-1A1,1,0,0,1,449.214,286.511Z" transform="translate(-447.211 -285.51)" fill="#fff"/></g><g transform="translate(6.43 7.823)"><path d="M449.214,293.742a1,1,0,1,1-1-1A1,1,0,0,1,449.214,293.742Z" transform="translate(-447.211 -292.74)" fill="#fff"/></g><g transform="translate(12.435 3.54)"><rect width="3.096" height="9.312" fill="#455a64"/></g><g transform="translate(16.907 3.54)"><rect width="3.096" height="9.312" fill="#455a64"/></g><g transform="translate(21.379 3.54)"><rect width="3.096" height="9.312" fill="#455a64"/></g><g transform="translate(25.851 3.54)"><rect width="3.096" height="9.312" fill="#455a64"/></g><g transform="translate(30.323 3.54)"><rect width="3.096" height="9.312" fill="#455a64"/></g><g transform="translate(34.795 3.54)"><rect width="3.096" height="9.312" fill="#455a64"/></g><g transform="translate(39.267 3.54)"><rect width="3.096" height="9.312" fill="#455a64"/></g><g transform="translate(43.739 3.54)"><rect width="3.096" height="9.312" fill="#455a64"/></g><g transform="translate(48.211 3.54)"><rect width="3.096" height="9.312" fill="#455a64"/></g><g transform="translate(52.683 3.54)"><rect width="3.096" height="9.312" fill="#455a64"/></g></g><g transform="translate(3.952 177.816)"><rect width="56.264" height="15.84" fill="#263238"/><g transform="translate(1.57 1.991)"><rect width="3.151" height="12.123" fill="#455a64"/></g><g transform="translate(6.43 3.54)"><path d="M449.214,370.578a1,1,0,1,1-1-1A1,1,0,0,1,449.214,370.578Z" transform="translate(-447.211 -369.577)" fill="#fff"/></g><g transform="translate(6.43 7.824)"><path d="M449.214,377.809a1,1,0,1,1-1-1A1,1,0,0,1,449.214,377.809Z" transform="translate(-447.211 -376.808)" fill="#fff"/></g><g transform="translate(12.435 3.54)"><rect width="3.096" height="9.312" fill="#455a64"/></g><g transform="translate(16.907 3.54)"><rect width="3.096" height="9.312" fill="#455a64"/></g><g transform="translate(21.379 3.54)"><rect width="3.096" height="9.312" fill="#455a64"/></g><g transform="translate(25.851 3.54)"><rect width="3.096" height="9.312" fill="#455a64"/></g><g transform="translate(30.323 3.54)"><rect width="3.096" height="9.312" fill="#455a64"/></g><g transform="translate(34.795 3.54)"><rect width="3.096" height="9.312" fill="#455a64"/></g><g transform="translate(39.267 3.54)"><rect width="3.096" height="9.312" fill="#455a64"/></g><g transform="translate(43.739 3.54)"><rect width="3.096" height="9.312" fill="#455a64"/></g><g transform="translate(48.211 3.54)"><rect width="3.096" height="9.312" fill="#455a64"/></g><g transform="translate(52.683 3.54)"><rect width="3.096" height="9.312" fill="#455a64"/></g></g><g transform="translate(3.952 152.936)"><rect width="56.264" height="15.84" fill="#263238"/><g transform="translate(1.57 1.991)"><rect width="3.151" height="12.123" fill="#455a64"/></g><g transform="translate(6.43 3.54)"><path d="M449.214,328.581a1,1,0,1,1-1-1A1,1,0,0,1,449.214,328.581Z" transform="translate(-447.211 -327.58)" fill="#fff"/></g><g transform="translate(6.43 7.823)"><path d="M449.214,335.812a1,1,0,1,1-1-1A1,1,0,0,1,449.214,335.812Z" transform="translate(-447.211 -334.81)" fill="#fff"/></g><g transform="translate(12.435 3.54)"><rect width="3.096" height="9.312" fill="#455a64"/></g><g transform="translate(16.907 3.54)"><rect width="3.096" height="9.312" fill="#455a64"/></g><g transform="translate(21.379 3.54)"><rect width="3.096" height="9.312" fill="#455a64"/></g><g transform="translate(25.851 3.54)"><rect width="3.096" height="9.312" fill="#455a64"/></g><g transform="translate(30.323 3.54)"><rect width="3.096" height="9.312" fill="#455a64"/></g><g transform="translate(34.795 3.54)"><rect width="3.096" height="9.312" fill="#455a64"/></g><g transform="translate(39.267 3.54)"><rect width="3.096" height="9.312" fill="#455a64"/></g><g transform="translate(43.739 3.54)"><rect width="3.096" height="9.312" fill="#455a64"/></g><g transform="translate(48.211 3.54)"><rect width="3.096" height="9.312" fill="#455a64"/></g><g transform="translate(52.683 3.54)"><rect width="3.096" height="9.312" fill="#455a64"/></g></g><g transform="translate(0.28 17.272)"><path d="M468.625,107.846a2.374,2.374,0,0,1-.057-.489c-.022-.321-.04-.8-.055-1.407s-.027-1.358-.068-2.223a14.066,14.066,0,0,0-.385-2.89,10.334,10.334,0,0,0-1.5-3.169,7.017,7.017,0,0,0-3.085-2.48A14.925,14.925,0,0,0,459.1,94.3l-4.846-.419c-6.641-.576-12.663-.944-17.029-1.023-2.182-.047-3.949-.033-5.17-.025l-1.406.016a2.5,2.5,0,0,1-.492-.018,2.615,2.615,0,0,1,.489-.054l1.405-.084c1.222-.05,2.99-.1,5.178-.088,4.374.014,10.41.344,17.055.919l4.848.427a15.079,15.079,0,0,1,4.468.934,7.289,7.289,0,0,1,3.2,2.613,10.465,10.465,0,0,1,1.5,3.275,13.825,13.825,0,0,1,.341,2.948c.022.87.012,1.618.007,2.229,0,.582-.009,1.049-.012,1.406A2.667,2.667,0,0,1,468.625,107.846Z" transform="translate(-430.158 -92.6)" fill="#263238"/></g><g transform="translate(0 22.081)"><path d="M451.365,111.154a2.216,2.216,0,0,1-.033-.462c0-.339-.008-.779-.015-1.324,0-.574,0-1.277-.065-2.086a6.415,6.415,0,0,0-.691-2.61,5,5,0,0,0-2.543-1.957,7,7,0,0,0-3.707-.377,6.267,6.267,0,0,0-1.913.65,3.645,3.645,0,0,0-1.488,1.407,2.01,2.01,0,0,0,.005,1.988,2.658,2.658,0,0,0,1.687,1.268,2.145,2.145,0,0,0,1.976-.571,2.92,2.92,0,0,0,.886-1.88,2.854,2.854,0,0,0-.589-1.924,4.2,4.2,0,0,0-1.489-1.315,5.534,5.534,0,0,0-1.86-.479c-.635-.094-1.252-.177-1.851-.244-1.2-.134-2.318-.211-3.342-.253-2.049-.08-3.712-.047-4.861-.047h-1.323a2.217,2.217,0,0,1-.462-.025,2.222,2.222,0,0,1,.46-.047l1.322-.066c1.149-.043,2.813-.114,4.873-.067,1.03.026,2.158.089,3.364.211.6.061,1.226.139,1.865.228.321.05.639.091.976.152a3.778,3.778,0,0,1,.989.345,4.516,4.516,0,0,1,1.618,1.412,3.2,3.2,0,0,1,.66,2.147,3.263,3.263,0,0,1-.991,2.111,2.5,2.5,0,0,1-2.3.662,3.006,3.006,0,0,1-1.919-1.445,2.368,2.368,0,0,1,0-2.325,3.978,3.978,0,0,1,1.633-1.542,6.57,6.57,0,0,1,2.023-.675,7.261,7.261,0,0,1,3.871.427,5.222,5.222,0,0,1,2.653,2.108,6.527,6.527,0,0,1,.671,2.721c.044.822.022,1.527,0,2.1-.021.545-.039.984-.052,1.323A2.246,2.246,0,0,1,451.365,111.154Z" transform="translate(-429.686 -100.718)" fill="#263238"/></g><g transform="translate(0.28 15.769)"><path d="M473.218,106.811a2.993,2.993,0,0,1-.114-.524c-.06-.345-.156-.854-.3-1.5a29.361,29.361,0,0,0-1.656-5.367,15.646,15.646,0,0,0-4.9-6.573,9.243,9.243,0,0,0-4.489-1.709,46.513,46.513,0,0,0-5.276-.283c-7.271-.137-13.862-.109-18.63-.294-2.383-.082-4.311-.194-5.641-.288l-1.531-.127a2.967,2.967,0,0,1-.532-.069,2.97,2.97,0,0,1,.537,0l1.534.06c1.332.052,3.258.124,5.64.174,4.764.12,11.35.052,18.63.189a45.84,45.84,0,0,1,5.319.294,9.538,9.538,0,0,1,4.636,1.793,14.209,14.209,0,0,1,3.1,3.274,18.977,18.977,0,0,1,1.835,3.464,27.086,27.086,0,0,1,1.56,5.437c.118.658.193,1.171.231,1.521A3.081,3.081,0,0,1,473.218,106.811Z" transform="translate(-430.158 -90.062)" fill="#263238"/></g><g transform="translate(4.726 2.527)"><rect width="54.716" height="7.943" fill="#263238"/></g><g transform="translate(16.76 6.498)"><rect width="29.79" height="3.971" fill="#455a64"/></g><g transform="translate(56.544 153.463)"><g transform="translate(2.763 13.794)"><path d="M552.255,345.782c.006.039-.6.1-1.655.4a14.333,14.333,0,0,0-4.133,2.025,11.549,11.549,0,0,0-2.321,2.156,8.039,8.039,0,0,0-.953,1.472,9.952,9.952,0,0,0-.6,1.764c-.625,2.509-.435,5.383-.312,8.377s-.072,5.969-1.254,8.364a9.313,9.313,0,0,1-2.233,2.986,10.819,10.819,0,0,1-5.3,2.506,9.3,9.3,0,0,1-2.017.085,6.767,6.767,0,0,1-1.257-.2,2.043,2.043,0,0,1-.424-.13c.009-.043.6.143,1.689.188a9.732,9.732,0,0,0,1.976-.143,10.839,10.839,0,0,0,2.493-.8,10.716,10.716,0,0,0,2.647-1.73,9.08,9.08,0,0,0,2.133-2.907,17.424,17.424,0,0,0,1.194-8.209c-.122-2.98-.309-5.9.349-8.468a10.119,10.119,0,0,1,.635-1.823,8.263,8.263,0,0,1,1-1.521A11.631,11.631,0,0,1,546.322,348a13.671,13.671,0,0,1,4.242-1.953,9.344,9.344,0,0,1,1.249-.237A2.046,2.046,0,0,1,552.255,345.782Z" transform="translate(-529.797 -345.777)" fill="#263238"/></g><g transform="translate(0 41.154)"><rect width="4.493" height="5.464" fill="#263238"/></g><g transform="translate(25.221)"><rect width="25.188" height="27.598" fill="#455a64"/><g transform="translate(4.303 5.617)"><ellipse cx="8.291" cy="8.291" rx="8.291" ry="8.291" fill="#263238"/></g><g transform="translate(8.449 9.762)"><ellipse cx="4.145" cy="4.145" rx="4.145" ry="4.145" fill="#455a64"/></g><g transform="translate(2.637 3.513)"><ellipse cx="0.77" cy="0.77" rx="0.77" ry="0.77" fill="#263238"/></g><g transform="translate(20.565 3.513)"><path d="M603.962,329.193a.77.77,0,1,1-.77-.77A.77.77,0,0,1,603.962,329.193Z" transform="translate(-602.422 -328.423)" fill="#263238"/></g><g transform="translate(20.73 23.893)"><path d="M604.24,363.595a.77.77,0,1,1-.77-.77A.77.77,0,0,1,604.24,363.595Z" transform="translate(-602.7 -362.825)" fill="#263238"/></g><g transform="translate(2.637 24.209)"><path d="M573.7,364.128a.77.77,0,1,1-.77-.77A.77.77,0,0,1,573.7,364.128Z" transform="translate(-572.158 -363.358)" fill="#263238"/></g><g transform="translate(25.188)"><rect width="2.032" height="27.598" fill="#263238"/></g></g></g></g></g><g transform="translate(592.741 257.182)"><g transform="translate(0 0)"><path d="M69.763,177.422l-10.983-2.7.081-.012a18.255,18.255,0,0,1-9.48,2.842,19.849,19.849,0,0,1-5.875-.858,18.178,18.178,0,0,1-5.725-3.035,18.4,18.4,0,0,1-6.926-12.24,18.178,18.178,0,0,1,4.719-14.662,19.067,19.067,0,0,1,3.181-2.772c.594-.366,1.179-.747,1.791-1.069l.934-.45.466-.224.484-.177a18.531,18.531,0,0,1,7.9-1.2,18.283,18.283,0,0,1,16.116,12.3,18.958,18.958,0,0,1,1.015,5.93,18.212,18.212,0,0,1-2.631,9.513v-.1l4.937,8.909-5.109-8.811-.028-.049.03-.05a18.091,18.091,0,0,0,2.534-9.41,18.739,18.739,0,0,0-1.027-5.834A17.992,17.992,0,0,0,50.3,141.217,18.2,18.2,0,0,0,42.56,142.4l-.474.174-.456.22-.915.441c-.6.316-1.173.69-1.755,1.049a18.751,18.751,0,0,0-3.117,2.717,18.033,18.033,0,0,0,2.137,26.4,17.907,17.907,0,0,0,5.618,3,19.629,19.629,0,0,0,5.78.871,18.118,18.118,0,0,0,9.374-2.746l.039-.024.043.011Z" transform="translate(-30.72 -140.824)" fill="#263238"/><g transform="translate(16.858 8.943)"><path d="M59.178,157.193l.581,9.174a1.489,1.489,0,0,0,1.4,1.392h0a1.488,1.488,0,0,0,1.568-1.322l1.018-9.22a1.168,1.168,0,0,0-1.177-1.3l-2.238.031A1.168,1.168,0,0,0,59.178,157.193Z" transform="translate(-59.176 -155.92)" fill="#fb9c1a"/></g><g transform="translate(16.905 22.997)"><path d="M63.62,182.589a2.239,2.239,0,1,1-1.419-2.831A2.239,2.239,0,0,1,63.62,182.589Z" transform="translate(-59.256 -179.643)" fill="#fb9c1a"/></g></g></g><g transform="translate(652.72 236.859)"><g transform="translate(6.121 44.393)"><path d="M313.588,156.669c-.065.046-.921-1.068-2.374-2.809s-3.52-4.1-5.824-6.688-4.344-4.989-5.724-6.8c-.692-.9-1.234-1.65-1.584-2.183a3.669,3.669,0,0,1-.505-.854c.064-.045.92,1.068,2.373,2.81s3.521,4.1,5.826,6.689,4.342,4.988,5.723,6.8c.692.9,1.233,1.651,1.583,2.184A3.715,3.715,0,0,1,313.588,156.669Z" transform="translate(-297.574 -137.331)" fill="#263238"/></g><g transform="translate(23.046)"><path d="M332.713,145.794c-.134.044-4.272-11.879-9.24-26.628s-8.889-26.749-8.754-26.795,4.272,11.876,9.241,26.631S332.848,145.749,332.713,145.794Z" transform="translate(-314.715 -92.372)" fill="#263238"/></g><g transform="translate(57.417 27.242)"><path d="M349.53,149.236c-.135-.043,1.883-6.633,4.507-14.715s4.862-14.6,5-14.559-1.883,6.632-4.508,14.717S349.665,149.28,349.53,149.236Z" transform="translate(-349.524 -119.961)" fill="#263238"/></g><g transform="translate(74.314 55.682)"><path d="M377.487,148.768c.087.12-2.429,2.055-5.417,4.574s-5.327,4.664-5.431,4.558a7.839,7.839,0,0,1,1.384-1.563c.909-.91,2.213-2.122,3.716-3.388s2.92-2.342,3.972-3.083A7.9,7.9,0,0,1,377.487,148.768Z" transform="translate(-366.636 -148.763)" fill="#263238"/></g><g transform="translate(69.144 16.017)"><path d="M362.494,108.595c.135.044.011.78-.276,1.641s-.63,1.524-.764,1.479-.011-.78.276-1.642S362.36,108.55,362.494,108.595Z" transform="translate(-361.4 -108.593)" fill="#263238"/></g><g transform="translate(0 37.328)"><path d="M292.708,132.008c-.116.083-.5-.258-.859-.76s-.557-.977-.441-1.059.5.258.86.761S292.824,131.926,292.708,132.008Z" transform="translate(-291.375 -130.176)" fill="#263238"/></g></g><g transform="translate(632 304.232)"><path d="M398.269,164.005H274.05a3.938,3.938,0,0,0-3.878,4v90.424a3.938,3.938,0,0,0,3.878,4h47.674s3.033,9.665-6.368,14.665h44.578s-10.614-3.75-7.885-14.665h46.219a3.938,3.938,0,0,0,3.878-4V168A3.938,3.938,0,0,0,398.269,164.005Z" transform="translate(-270.172 -164.005)" fill="#263238"/><g transform="translate(63.535 88.259)"><path d="M338.628,251.361a2.393,2.393,0,0,1-3.371,3.37.863.863,0,0,1-.207-.207,2.393,2.393,0,0,1,3.37-3.37A.85.85,0,0,1,338.628,251.361Z" transform="translate(-334.517 -250.62)" fill="#455a64"/></g><g transform="translate(2.139 1.607)"><path d="M2.847,0h122A2.847,2.847,0,0,1,127.7,2.847V77.835a0,0,0,0,1,0,0H0a0,0,0,0,1,0,0V2.847A2.847,2.847,0,0,1,2.847,0Z" fill="#fff"/></g><g transform="translate(2.139 1.607)"><path d="M2.978,0H125.251A2.445,2.445,0,0,1,127.7,2.445V6.468a0,0,0,0,1,0,0H0a0,0,0,0,1,0,0V2.978A2.978,2.978,0,0,1,2.978,0Z" fill="#ebebeb"/></g><g transform="translate(5.308 4.08)"><path d="M277.342,169.034a.9.9,0,1,1-.9-.9A.9.9,0,0,1,277.342,169.034Z" transform="translate(-275.548 -168.137)" fill="#e0e0e0"/><g transform="translate(2.674)"><path d="M280.05,169.034a.9.9,0,1,1-.9-.9A.9.9,0,0,1,280.05,169.034Z" transform="translate(-278.256 -168.137)" fill="#e0e0e0"/></g><g transform="translate(5.218)"><path d="M282.626,169.034a.9.9,0,1,1-.9-.9A.9.9,0,0,1,282.626,169.034Z" transform="translate(-280.832 -168.137)" fill="#e0e0e0"/></g></g><g transform="translate(26.932 98.79)"><path d="M376.4,260.727c0,.04-17.676.074-39.476.074s-39.48-.034-39.48-.074,17.673-.075,39.48-.075S376.4,260.686,376.4,260.727Z" transform="translate(-297.447 -260.652)" fill="#455a64"/></g></g><g transform="translate(645 329.419)"><path d="M337.954,212.5c0,6.914-5.073,12.935-16.225,12.935-5.408,0-11.1-1.506-14.887-4.182l3.569-6.914a18.771,18.771,0,0,0,11.1,3.514c4.515,0,7.3-1.9,7.3-5.075,0-3.067-2.006-5.073-9.088-5.073h-9.981l2.009-21.968h23.807v7.247h-16.28l-.615,7.416h3.178C333.383,200.4,337.954,205.587,337.954,212.5Z" transform="translate(-306.842 -185.068)" fill="#fb9c1a"/><path d="M326.872,205.537c0-12.88,7.136-20.185,16.727-20.185,9.646,0,16.727,7.3,16.727,20.185s-7.081,20.185-16.727,20.185C334.008,225.721,326.872,218.416,326.872,205.537Zm24.365,0c0-8.864-3.121-12.545-7.638-12.545-4.46,0-7.583,3.68-7.583,12.545s3.123,12.546,7.583,12.546C348.116,218.083,351.237,214.4,351.237,205.537Z" transform="translate(-292.085 -185.352)" fill="#fb9c1a"/><path d="M348.667,205.537c0-12.88,7.136-20.185,16.727-20.185,9.646,0,16.727,7.3,16.727,20.185s-7.081,20.185-16.727,20.185C355.8,225.721,348.667,218.416,348.667,205.537Zm24.365,0c0-8.864-3.121-12.545-7.638-12.545-4.46,0-7.583,3.68-7.583,12.545s3.123,12.546,7.583,12.546C369.911,218.083,373.032,214.4,373.032,205.537Z" transform="translate(-276.027 -185.352)" fill="#fb9c1a"/></g><g transform="translate(638.758 312.865)"><path d="M285.126,202.339a1.826,1.826,0,0,1-1.563-2.746l5.3-9.086a1.809,1.809,0,0,1,1.586-.906h.006a1.806,1.806,0,0,1,1.57.92l5.219,9.135a1.826,1.826,0,0,1-1.594,2.731l-10.521-.049Zm5.327-12.193h0a1.268,1.268,0,0,0-1.112.635l-5.3,9.087a1.281,1.281,0,0,0,1.1,1.926h0l10.521.048a1.28,1.28,0,0,0,1.117-1.915l-5.218-9.136A1.27,1.27,0,0,0,290.453,190.146Z" transform="translate(-283.311 -189.601)" fill="#fb9c1a"/><g transform="translate(6.341 4.339)"><path d="M291.625,200.77a.675.675,0,0,1,.706-.67.675.675,0,1,1,0,1.35A.681.681,0,0,1,291.625,200.77Zm.065-5.48h1.289l-.22,4.078H291.9Z" transform="translate(-291.625 -195.29)" fill="#fb9c1a"/></g></g><g transform="translate(741.419 366.334)"><path d="M373.341,203.632a2.011,2.011,0,0,1-1.721-3.025L377.46,190.6a1.99,1.99,0,0,1,1.747-1h.006a1.989,1.989,0,0,1,1.731,1.013l5.748,10.063a2.011,2.011,0,0,1-1.756,3.009l-11.589-.054Zm5.868-13.431H379.2a1.4,1.4,0,0,0-1.224.7l-5.842,10.01a1.411,1.411,0,0,0,1.207,2.121h.005l11.588.053a1.41,1.41,0,0,0,1.232-2.11l-5.748-10.063A1.4,1.4,0,0,0,379.208,190.2Z" transform="translate(-371.342 -189.601)" fill="#fb9c1a"/><g transform="translate(6.985 4.78)"><path d="M379.656,201.326a.743.743,0,0,1,.778-.738.732.732,0,0,1,.758.739.74.74,0,0,1-.759.748A.75.75,0,0,1,379.656,201.326Zm.071-6.036h1.42l-.243,4.491h-.95Z" transform="translate(-379.656 -195.29)" fill="#fb9c1a"/></g></g><g transform="translate(900.503 424.824)"><g transform="translate(0 0)"><g transform="translate(2.808 47.046)"><path d="M639.4,367.218l3.5,22.978h20.314l4.715-22.646Z" transform="translate(-639.396 -367.218)" fill="#fb9c1a"/></g><g transform="translate(5.124 59.247)"><g transform="translate(0.119 2.406)"><path d="M666.756,391.994c0,.066-5.205.12-11.625.12s-11.626-.054-11.626-.12,5.2-.119,11.626-.119S666.756,391.928,666.756,391.994Z" transform="translate(-643.505 -391.875)" fill="#fafafa"/></g><g transform="translate(0.04 1.277)"><path d="M666.781,390.087c0,.066-5.241.119-11.7.119s-11.7-.053-11.7-.119,5.239-.119,11.7-.119S666.781,390.021,666.781,390.087Z" transform="translate(-643.372 -389.968)" fill="#fafafa"/></g><path d="M666.712,387.932c0,.066-5.24.119-11.7.119s-11.7-.053-11.7-.119,5.24-.119,11.7-.119S666.712,387.866,666.712,387.932Z" transform="translate(-643.304 -387.813)" fill="#fafafa"/><g transform="translate(2.49 3.639)"><path d="M648.532,399.783a36.718,36.718,0,0,1-1.011-5.827,36.716,36.716,0,0,1,1.011,5.827Z" transform="translate(-647.507 -393.956)" fill="#fafafa"/></g><g transform="translate(4.49 3.568)"><path d="M651.29,399.49a67.29,67.29,0,0,1-.384-5.654,22.591,22.591,0,0,1,.384,5.654Z" transform="translate(-650.883 -393.836)" fill="#fafafa"/></g><g transform="translate(6.701 3.389)"><path d="M655.33,399.365a23,23,0,0,1-.683-5.832,85.555,85.555,0,0,1,.683,5.832Z" transform="translate(-654.616 -393.533)" fill="#fafafa"/></g><g transform="translate(8.884 3.448)"><path d="M658.6,399.528a23.526,23.526,0,0,1-.192-5.894,82.472,82.472,0,0,1,.192,5.894Z" transform="translate(-658.3 -393.634)" fill="#fafafa"/></g><g transform="translate(12.066 3.631)"><path d="M663.919,399.534a32.9,32.9,0,0,1-.19-5.591,32.889,32.889,0,0,1,.19,5.591Z" transform="translate(-663.672 -393.943)" fill="#fafafa"/></g><g transform="translate(14.501 3.57)"><path d="M667.88,399.612a34.965,34.965,0,0,1,.047-5.773,34.948,34.948,0,0,1-.047,5.773Z" transform="translate(-667.782 -393.839)" fill="#fafafa"/></g><g transform="translate(16.719 3.024)"><path d="M671.55,398.929a38.281,38.281,0,0,1,.583-6.012,38.282,38.282,0,0,1-.583,6.012Z" transform="translate(-671.526 -392.917)" fill="#fafafa"/></g><g transform="translate(19.488 3.692)"><path d="M676.219,399.088a15.835,15.835,0,0,1,1.1-5.043,121.858,121.858,0,0,1-1.1,5.043Z" transform="translate(-676.201 -394.046)" fill="#fafafa"/></g></g><g transform="translate(10.757)"><g transform="translate(6.568 1.705)"><path d="M669.249,290.682a.4.4,0,0,1-.024.113c-.026.086-.057.193-.095.325l-.387,1.24c-.174.537-.381,1.194-.6,1.966s-.491,1.641-.733,2.62c-.258.974-.537,2.042-.792,3.2-.282,1.151-.519,2.4-.784,3.7-.487,2.619-.931,5.516-1.245,8.575-.3,3.062-.434,5.989-.475,8.653,0,1.332-.012,2.6.037,3.783.021,1.185.084,2.287.143,3.293.044,1.007.139,1.914.2,2.713s.131,1.485.2,2.045.1.977.133,1.291l.029.337a.407.407,0,0,1,0,.116.415.415,0,0,1-.026-.113c-.014-.089-.031-.2-.052-.334-.043-.313-.1-.743-.178-1.287-.079-.559-.165-1.244-.236-2.043s-.181-1.706-.236-2.714c-.071-1.008-.143-2.111-.173-3.3-.057-1.187-.052-2.456-.059-3.791.028-2.671.159-5.607.457-8.675.314-3.066.766-5.97,1.266-8.592.271-1.307.516-2.553.807-3.7.263-1.158.553-2.226.821-3.2.253-.977.537-1.846.768-2.614s.448-1.424.636-1.956l.43-1.227.117-.318A.41.41,0,0,1,669.249,290.682Z" transform="translate(-663.9 -290.682)" fill="#455a64"/></g><g transform="translate(7.885 11.531)"><path d="M666.489,311.67a7.542,7.542,0,0,1,3.158-3.989,1.809,1.809,0,0,1,1.671-.307c.709.342.766,1.34.555,2.1a5.557,5.557,0,0,1-2.3,3.133,4.689,4.689,0,0,1-3.45.87" transform="translate(-666.123 -307.268)" fill="#455a64"/></g><g transform="translate(6.807 19.023)"><path d="M664.513,326.432a12.714,12.714,0,0,1,3.75-6.03,2.413,2.413,0,0,1,.853-.454.99.99,0,0,1,.912.2,1.4,1.4,0,0,1,.2,1.316,8,8,0,0,1-5.927,5.966" transform="translate(-664.304 -319.914)" fill="#455a64"/></g><g transform="translate(6.676 28.754)"><path d="M664.083,341.584a11.6,11.6,0,0,1,3.783-4.757,1.8,1.8,0,0,1,1.32-.47c.717.13,1.043,1.006.98,1.733a5.6,5.6,0,0,1-2.453,3.625,15.2,15.2,0,0,1-3.5,1.8" transform="translate(-664.083 -336.341)" fill="#455a64"/></g><g transform="translate(6.867 35.969)"><path d="M664.405,352.628a11.179,11.179,0,0,1,3.219-3.665,2.33,2.33,0,0,1,.966-.432.984.984,0,0,1,.947.36c.322.474.015,1.114-.331,1.572a9.18,9.18,0,0,1-4.593,3.369" transform="translate(-664.405 -348.52)" fill="#455a64"/></g><g transform="translate(0.764 32.545)"><path d="M660.047,347.8a35.856,35.856,0,0,0-4.6-4.689c-.261-.221-.591-.453-.917-.347a.686.686,0,0,0-.422.619,1.744,1.744,0,0,0,.175.768,8.923,8.923,0,0,0,5.926,4.985" transform="translate(-654.103 -342.74)" fill="#455a64"/></g><g transform="translate(0 23.948)"><path d="M659.668,333.976l-3.616-4.408a4.363,4.363,0,0,0-1.173-1.113,1.484,1.484,0,0,0-1.543-.018,1.463,1.463,0,0,0-.5,1.456,3.842,3.842,0,0,0,.706,1.448,10.745,10.745,0,0,0,2.635,2.8,4.408,4.408,0,0,0,3.3,1.017" transform="translate(-652.813 -328.228)" fill="#455a64"/></g><g transform="translate(0.988 14.753)"><path d="M660.851,318.743a12.6,12.6,0,0,0-3.639-5.463,2.117,2.117,0,0,0-.948-.553,1.593,1.593,0,0,0-1.659,1.165,2.987,2.987,0,0,0,.33,2.393,6.321,6.321,0,0,0,1.7,1.8,14.568,14.568,0,0,0,4.022,2.171" transform="translate(-654.482 -312.708)" fill="#455a64"/></g><g transform="translate(3.365 5.272)"><path d="M663.931,304.278a14.756,14.756,0,0,0-3.221-6.75c-.325-.435-.778-.9-1.316-.816a1.044,1.044,0,0,0-.755.648,2.438,2.438,0,0,0-.143,1.021,7.894,7.894,0,0,0,5.123,7.052" transform="translate(-658.494 -296.702)" fill="#455a64"/></g><g transform="translate(9.633)"><path d="M669.255,296.6a21.1,21.1,0,0,1-.132-3.951,7.072,7.072,0,0,1,1.312-3.68,3.037,3.037,0,0,1,1.313-1.047,1.659,1.659,0,0,1,1.611.213,1.752,1.752,0,0,1,.552,1.418,4.439,4.439,0,0,1-.408,1.514c-.963,2.318-2.57,4.884-4.247,5.533" transform="translate(-669.075 -287.803)" fill="#455a64"/></g></g><g transform="translate(0 10.397)"><g transform="translate(4.736 1.44)"><path d="M642.733,307.785a1.6,1.6,0,0,1,.02.324c0,.236.006.544.01.927,0,.4,0,.9.023,1.467s.023,1.222.07,1.94c.063,1.438.2,3.146.42,5.035.234,1.887.556,3.953,1,6.1s.992,4.169,1.536,5.992c.56,1.818,1.119,3.438,1.639,4.779.245.677.5,1.275.716,1.805s.405.984.568,1.352l.363.853a1.629,1.629,0,0,1,.112.3,1.6,1.6,0,0,1-.156-.284l-.4-.835c-.176-.363-.384-.81-.607-1.338s-.494-1.121-.749-1.8c-.542-1.337-1.119-2.956-1.691-4.776-.557-1.825-1.1-3.853-1.56-6.008s-.762-4.232-.985-6.126c-.207-1.9-.329-3.611-.37-5.053-.037-.72-.029-1.373-.035-1.945s0-1.066.018-1.469c.014-.384.026-.692.034-.928A1.75,1.75,0,0,1,642.733,307.785Z" transform="translate(-642.65 -307.785)" fill="#263238"/></g><g transform="translate(5.385 7.944)"><path d="M643.746,322.736a5.388,5.388,0,0,1,1.292-3.4,1.29,1.29,0,0,1,1.071-.569c.556.081.81.748.829,1.309a3.967,3.967,0,0,1-.891,2.629,3.345,3.345,0,0,1-2.162,1.335" transform="translate(-643.746 -318.764)" fill="#263238"/></g><g transform="translate(6.607 13.198)"><path d="M645.814,333.158a9.079,9.079,0,0,1,1.255-4.913,1.731,1.731,0,0,1,.483-.493.707.707,0,0,1,.663-.062,1,1,0,0,1,.422.852,5.71,5.71,0,0,1-2.751,5.338" transform="translate(-645.808 -327.634)" fill="#263238"/></g><g transform="translate(8.202 19.891)"><path d="M648.5,343.594a8.292,8.292,0,0,1,1.552-4.053,1.29,1.29,0,0,1,.8-.6c.517-.066.927.461,1.04.969a4,4,0,0,1-.889,3,10.863,10.863,0,0,1-2,1.978" transform="translate(-648.501 -338.93)" fill="#263238"/></g><g transform="translate(9.641 24.882)"><path d="M650.929,351.125a7.982,7.982,0,0,1,1.4-3.188,1.662,1.662,0,0,1,.565-.5.7.7,0,0,1,.723.042c.322.253.25.755.113,1.142a6.554,6.554,0,0,1-2.4,3.282" transform="translate(-650.929 -347.356)" fill="#263238"/></g><g transform="translate(3.988 24.689)"><path d="M646.4,349.346a25.586,25.586,0,0,0-4.143-2.2.74.74,0,0,0-.7-.039.49.49,0,0,0-.154.512,1.25,1.25,0,0,0,.284.485,6.372,6.372,0,0,0,5.108,2.119" transform="translate(-641.388 -347.03)" fill="#263238"/></g><g transform="translate(1.727 18.832)"><path d="M643.242,339.9l-3.411-2.223a3.115,3.115,0,0,0-1.038-.505,1.059,1.059,0,0,0-1.054.319,1.044,1.044,0,0,0-.024,1.1,2.739,2.739,0,0,0,.792.834,7.659,7.659,0,0,0,2.4,1.338,3.146,3.146,0,0,0,2.467-.018" transform="translate(-637.571 -337.143)" fill="#263238"/></g><g transform="translate(0.527 12.3)"><path d="M640.841,329.232a9,9,0,0,0-3.653-2.936,1.517,1.517,0,0,0-.765-.172,1.138,1.138,0,0,0-.879,1.15,2.13,2.13,0,0,0,.74,1.559,4.5,4.5,0,0,0,1.544.858,10.4,10.4,0,0,0,3.206.613" transform="translate(-635.545 -326.118)" fill="#263238"/></g><g transform="translate(0 5.46)"><path d="M639.752,318.807a10.531,10.531,0,0,0-3.646-3.9,1.107,1.107,0,0,0-1.072-.273.743.743,0,0,0-.374.6,1.733,1.733,0,0,0,.122.726,5.638,5.638,0,0,0,5.006,3.7" transform="translate(-634.655 -314.571)" fill="#263238"/></g><g transform="translate(3.826)"><path d="M642.2,312.072a15.034,15.034,0,0,1-.94-2.661,5.045,5.045,0,0,1,.1-2.788,2.172,2.172,0,0,1,.668-1,1.186,1.186,0,0,1,1.143-.2,1.25,1.25,0,0,1,.681.847,3.166,3.166,0,0,1,.049,1.118c-.157,1.786-.7,3.879-1.7,4.681" transform="translate(-641.114 -305.354)" fill="#263238"/></g></g><g transform="translate(22.763 10.174)"><g transform="translate(1.262 1.44)"><path d="M681.687,307.409a1.627,1.627,0,0,1,.029.323c.009.236.02.544.034.928.015.4.027.9.018,1.469s0,1.226-.035,1.946c-.042,1.442-.163,3.156-.37,5.053-.223,1.895-.539,3.97-.985,6.126s-1,4.183-1.56,6.007c-.573,1.82-1.15,3.44-1.691,4.777-.256.674-.525,1.269-.749,1.8s-.431.975-.607,1.338l-.4.835a1.6,1.6,0,0,1-.156.284,1.636,1.636,0,0,1,.112-.3l.363-.854c.163-.368.358-.82.568-1.352s.47-1.129.716-1.805c.52-1.341,1.079-2.961,1.639-4.779.544-1.822,1.079-3.845,1.536-5.992s.767-4.216,1-6.1c.217-1.889.357-3.6.42-5.034.047-.718.051-1.369.07-1.94s.024-1.064.023-1.467c0-.383.008-.691.01-.927A1.7,1.7,0,0,1,681.687,307.409Z" transform="translate(-675.209 -307.409)" fill="#455a64"/></g><g transform="translate(3.979 7.944)"><path d="M682.991,322.36a5.388,5.388,0,0,0-1.292-3.4,1.29,1.29,0,0,0-1.071-.569c-.556.081-.81.748-.829,1.309a3.964,3.964,0,0,0,.891,2.628,3.346,3.346,0,0,0,2.162,1.335" transform="translate(-679.796 -318.388)" fill="#455a64"/></g><g transform="translate(3.101 13.199)"><path d="M681.158,332.781a9.079,9.079,0,0,0-1.255-4.912,1.716,1.716,0,0,0-.483-.493.708.708,0,0,0-.663-.062,1,1,0,0,0-.422.852,5.71,5.71,0,0,0,2.751,5.338" transform="translate(-678.313 -327.257)" fill="#455a64"/></g><g transform="translate(0.911 19.891)"><path d="M678.063,343.218a8.292,8.292,0,0,0-1.552-4.053,1.288,1.288,0,0,0-.8-.6c-.517-.066-.927.46-1.04.969a4,4,0,0,0,.889,3,10.864,10.864,0,0,0,2,1.978" transform="translate(-674.617 -338.554)" fill="#455a64"/></g><g transform="translate(0 24.882)"><path d="M676,350.749a7.98,7.98,0,0,0-1.4-3.188,1.661,1.661,0,0,0-.565-.5.7.7,0,0,0-.723.041c-.321.253-.25.755-.113,1.141a6.552,6.552,0,0,0,2.4,3.283" transform="translate(-673.079 -346.98)" fill="#455a64"/></g><g transform="translate(3.162 24.69)"><path d="M678.813,348.97a25.616,25.616,0,0,1,4.143-2.2.738.738,0,0,1,.7-.039.49.49,0,0,1,.154.512,1.243,1.243,0,0,1-.284.485,6.37,6.37,0,0,1-5.108,2.118" transform="translate(-678.417 -346.654)" fill="#455a64"/></g><g transform="translate(5.033 18.832)"><path d="M681.7,339.522l3.411-2.223a3.115,3.115,0,0,1,1.039-.505,1.059,1.059,0,0,1,1.054.319,1.044,1.044,0,0,1,.024,1.1,2.733,2.733,0,0,1-.792.835,7.66,7.66,0,0,1-2.4,1.338,3.146,3.146,0,0,1-2.467-.018" transform="translate(-681.575 -336.767)" fill="#455a64"/></g><g transform="translate(6.543 12.301)"><path d="M684.317,328.855a9,9,0,0,1,3.653-2.936,1.517,1.517,0,0,1,.765-.172,1.138,1.138,0,0,1,.879,1.15,2.13,2.13,0,0,1-.74,1.559,4.5,4.5,0,0,1-1.544.858,10.4,10.4,0,0,1-3.206.613" transform="translate(-684.123 -325.742)" fill="#455a64"/></g><g transform="translate(7.426 5.46)"><path d="M685.651,318.431a10.533,10.533,0,0,1,3.646-3.9,1.105,1.105,0,0,1,1.072-.273.743.743,0,0,1,.374.6,1.731,1.731,0,0,1-.122.726,5.637,5.637,0,0,1-5.006,3.7" transform="translate(-685.615 -314.195)" fill="#455a64"/></g><g transform="translate(5.919)"><path d="M684.8,311.7a15.032,15.032,0,0,0,.94-2.662,5.043,5.043,0,0,0-.1-2.788,2.168,2.168,0,0,0-.669-1,1.184,1.184,0,0,0-1.142-.2,1.252,1.252,0,0,0-.681.847,3.163,3.163,0,0,0-.049,1.118c.157,1.785.7,3.879,1.7,4.681" transform="translate(-683.071 -304.978)" fill="#455a64"/></g></g><g transform="translate(0.477 42.496)"><path d="M635.461,359.537v4.3a1.692,1.692,0,0,0,1.693,1.693H666.57a1.692,1.692,0,0,0,1.693-1.693v-4.3Z" transform="translate(-635.461 -359.537)" fill="#fb9c1a"/></g><g transform="translate(3.028 48.488)" opacity="0.4"><path d="M639.766,369.652l.244,1.369,27.143,1.934.688-3.3Z" transform="translate(-639.766 -369.652)"/></g></g></g><g transform="translate(544.518 494.937)"><g transform="translate(0 0)"><path d="M438.07,406.31c0,.085-90.518.154-202.153.154-111.673,0-202.171-.069-202.171-.154s90.5-.155,202.171-.155C347.552,406.155,438.07,406.224,438.07,406.31Z" transform="translate(-33.746 -406.155)" fill="#263238"/></g></g><g transform="translate(490.175 293.911)"><ellipse cx="35.563" cy="6.035" rx="35.563" ry="6.035" transform="translate(31.831 194.429)" fill="#e6e7e8"/><path d="M.161,1999.79c3.569,1.817,18.366-23.493,22.779-31.994l-2.6-14.8C18.2,1956.375-3.084,1998.1.161,1999.79Z" transform="translate(0 -1826.258)" fill-rule="evenodd" fill="url(#a)"/><path d="M1757.778,1999.79c-3.569,1.817-18.366-23.493-22.779-31.994l2.6-14.8C1739.737,1956.375,1761.023,1998.1,1757.778,1999.79Z" transform="translate(-1622.568 -1826.258)" fill-rule="evenodd" fill="url(#b)"/><rect width="106.235" height="100.978" rx="14" transform="translate(14.244 12.785)" fill="url(#c)"/><path d="M608.218,494.114a.705.705,0,0,0,.065-.324c0-1.752,0-3.439-.13-5.127a12.289,12.289,0,0,0-1.1-4.543,4.782,4.782,0,0,0-8.891.649,17.618,17.618,0,0,0-.909,6.1c-.065,1.038,0,2.142,0,3.245Zm17.587,0c.065-.065.065-.065.065-.13-.065-2.531-.065-5.062-.26-7.528a13.028,13.028,0,0,0-1.363-4.867,4.929,4.929,0,0,0-8.631-.454,11.257,11.257,0,0,0-1.493,4.283,44.285,44.285,0,0,0-.324,8.307.823.823,0,0,0,.065.389Zm-43.8-9.8a1.429,1.429,0,0,0,.519.065h7.917c.454,0,.584-.13.649-.584a21.012,21.012,0,0,1,2.206-8.177,8.416,8.416,0,0,1,7.333-4.543,10.808,10.808,0,0,1,4.543.519,8.155,8.155,0,0,1,4.024,3.5,3.711,3.711,0,0,0,.26.454l.13.13c.13-.584.324-1.1.454-1.557a9.357,9.357,0,0,1,4.608-5.451,10.991,10.991,0,0,1,5-.844,13.839,13.839,0,0,1,6.814,1.752,11.171,11.171,0,0,1,4.673,6.425,27.539,27.539,0,0,1,1.233,7.333,2.432,2.432,0,0,1,.065.714,1.32,1.32,0,0,1,.065.324h9.021V489.9h-8.891v4.348h8.956v5.516h-9.085v11.1c-2.271-.324-4.413-.714-6.619-1.1V505.8a1.929,1.929,0,0,0-2.142-2.077H600.041c-2.012,0-3.05.973-3.115,2.985-.065,1.1,0,2.271,0,3.375a2.63,2.63,0,0,0,0,.714h-5.906V499.825H582v-5.581h8.761V489.9H582Z" transform="translate(-544.394 -437.46)" fill="#fefefe" fill-rule="evenodd"/><circle cx="3.18" cy="3.18" r="3.18" transform="translate(72.455 46.595)" fill="#f89f33"/><path d="M859.18,718a3.18,3.18,0,1,1-3.18,3.18A3.185,3.185,0,0,1,859.18,718Z" transform="translate(-800.612 -671.405)" fill="#f89f33" fill-rule="evenodd"/><path d="M796.868,1320.361a2.434,2.434,0,0,0,3.31,3.569c.195-.13.13-.065.195-.13a17.376,17.376,0,0,1,11.227-3.958c4.088-.065,8.047,1.233,10.578,3.958l.13.13a2.436,2.436,0,1,0,3.634-3.245.8.8,0,0,1-.13-.195c-3.569-3.829-8.891-5.581-14.277-5.516a22.365,22.365,0,0,0-14.407,5.192C796.933,1320.361,796.933,1320.361,796.868,1320.361Z" transform="translate(-744.596 -1229.637)" fill="#fefefe"/><g transform="translate(58.827 46.985)"><circle cx="0.973" cy="0.973" r="0.973" transform="translate(0.519 0.714)" fill="#fefefe"/><circle cx="0.389" cy="0.389" r="0.389" fill="#fefefe"/></g><g transform="translate(75.96 46.985)"><circle cx="0.973" cy="0.973" r="0.973" transform="translate(0.454 0.714)" fill="#fefefe"/><circle cx="0.389" cy="0.389" r="0.389" fill="#fefefe"/></g><path d="M774.245,0c9.6,0,22.194,8.7,17.457,8.7H756.788C751.986,8.7,764.576,0,774.245,0Z" transform="translate(-706.851)" fill-rule="evenodd" fill="url(#d)"/><g transform="translate(43.316 187.679)"><path d="M681.736,2892c-.13,0,.195,12.006-5.906,12.006-6.035,0-5.841-12.006-5.841-12.006Z" transform="translate(-669.989 -2892)" fill-rule="evenodd" fill="url(#e)"/><path d="M1242.736,2892c-.13,0,.195,12.006-5.906,12.006-6.035,0-5.841-12.006-5.841-12.006Z" transform="translate(-1194.582 -2892)" fill-rule="evenodd" fill="url(#e)"/></g><g transform="translate(48.374 151.05)"><path d="M878.653,2338.559a3.272,3.272,0,0,0-1.882-3.5,11.53,11.53,0,0,0-3.115-.649,3.123,3.123,0,0,1-2.791-2.271,3.39,3.39,0,0,1,1.038-3.569,3.035,3.035,0,0,1,3.439-.52,2.943,2.943,0,0,1,2.012,2.855c.065.649.13,1.363.26,2.012.324,1.687,1.687,2.726,3.764,2.791a11.883,11.883,0,0,0,2.985-.454,3.318,3.318,0,0,0,2.141-2.855,12.766,12.766,0,0,0,.195-1.557,3.568,3.568,0,0,1,3.894-3.245,3.411,3.411,0,0,1,2.531,4.023,2.963,2.963,0,0,1-3.245,2.791c-1.687.065-3.115.519-3.894,2.012a11.959,11.959,0,0,0-.649,2.726c-.26,1.168-.519,2.336-1.752,2.855-2.012.843-5.062.195-4.932-3.44Z" transform="translate(-862.749 -2327.563)" fill="#bfdfb9" fill-rule="evenodd"/><path d="M999.588,2461.364a3.233,3.233,0,0,0-1.882-3.439,11.548,11.548,0,0,0-3.05-.584,3.3,3.3,0,0,1-2.791-2.271,3.39,3.39,0,0,1,1.038-3.569,2.951,2.951,0,0,1,3.375-.519,3,3,0,0,1,2.012,2.855l.195,1.947a3.594,3.594,0,0,0,3.764,2.791,9.533,9.533,0,0,0,2.985-.454c1.3-.39,1.817-1.558,2.077-2.855a10.4,10.4,0,0,0,.195-1.493,3.54,3.54,0,0,1,3.829-3.18c1.687.195,2.855,2.077,2.531,4.023a3.039,3.039,0,0,1-3.245,2.726c-1.622.065-3.05.454-3.829,2.012a10.858,10.858,0,0,0-.649,2.6c-.195,1.168-.519,2.336-1.752,2.855C1002.444,2465.582,999.459,2465,999.588,2461.364Z" transform="translate(-975.896 -2442.581)" fill="#f89f33" fill-rule="evenodd"/><path d="M751.691,2335.718a3.317,3.317,0,0,0,3.44-1.882,10.258,10.258,0,0,0,.649-3.115,3.2,3.2,0,0,1,2.336-2.855,3.425,3.425,0,0,1,3.569,1.039,3.035,3.035,0,0,1,.519,3.439,3.155,3.155,0,0,1-2.855,2.077,10.052,10.052,0,0,0-2.012.195,3.491,3.491,0,0,0-2.79,3.764,7.774,7.774,0,0,0,.454,2.985c.389,1.363,1.557,1.882,2.855,2.142a12.85,12.85,0,0,0,1.557.195,3.563,3.563,0,0,1,3.18,3.893,3.382,3.382,0,0,1-4.023,2.6,3.153,3.153,0,0,1-2.791-3.31c0-1.687-.454-3.115-2.012-3.894a15.951,15.951,0,0,0-2.661-.649c-1.168-.195-2.336-.519-2.855-1.752-.844-2.012-.195-5.062,3.44-4.867Z" transform="translate(-747.922 -2327.708)" fill="#fefefe" fill-rule="evenodd"/></g><path d="M403.578,1823h60.094c6.554,0,12.914,5.516,11.941,12.135l-6.035,40.56c-.973,6.619-5.386,12.135-12.006,12.135H409.613c-6.554,0-10.967-5.516-11.941-12.135l-6.1-40.56C390.6,1828.516,396.959,1823,403.578,1823Z" transform="translate(-366.231 -1704.694)" fill-rule="evenodd" fill="url(#g)"/><g transform="translate(48.374 139.469)"><path d="M878.653,2160.3a3.15,3.15,0,0,0-1.882-3.44,9.5,9.5,0,0,0-3.115-.649,3.277,3.277,0,0,1-2.791-2.336,3.425,3.425,0,0,1,1.038-3.569,3.035,3.035,0,0,1,3.439-.519,3,3,0,0,1,2.012,2.855c.065.649.13,1.363.26,2.012a3.491,3.491,0,0,0,3.764,2.791,7.774,7.774,0,0,0,2.985-.455c1.363-.389,1.882-1.557,2.141-2.855a12.764,12.764,0,0,0,.195-1.558,3.519,3.519,0,0,1,3.894-3.18c1.687.195,2.855,2.077,2.531,4.024a3.05,3.05,0,0,1-3.245,2.791c-1.687,0-3.115.454-3.894,2.012a11.406,11.406,0,0,0-.649,2.661c-.26,1.168-.519,2.336-1.752,2.855-2.012.844-5.062.195-4.932-3.439Z" transform="translate(-862.749 -2149.343)" fill="#bfdfb9" fill-rule="evenodd"/><path d="M999.588,2282.364a3.111,3.111,0,0,0-1.882-3.375,9.469,9.469,0,0,0-3.05-.649,3.21,3.21,0,0,1-2.791-2.271,3.391,3.391,0,0,1,1.038-3.57,2.951,2.951,0,0,1,3.375-.519,3,3,0,0,1,2.012,2.855l.195,1.947a3.594,3.594,0,0,0,3.764,2.791,7.97,7.97,0,0,0,2.985-.454,3.268,3.268,0,0,0,2.077-2.791,12.784,12.784,0,0,0,.195-1.557,3.54,3.54,0,0,1,3.829-3.18,3.376,3.376,0,0,1,2.531,4.023,2.993,2.993,0,0,1-3.245,2.726c-1.622.065-3.05.519-3.829,2.012a11.7,11.7,0,0,0-.649,2.6c-.195,1.168-.519,2.337-1.752,2.855C1002.444,2286.647,999.459,2286,999.588,2282.364Z" transform="translate(-975.896 -2263.616)" fill="#f89f33" fill-rule="evenodd"/><path d="M751.691,2157.087a3.15,3.15,0,0,0,3.44-1.882,10.259,10.259,0,0,0,.649-3.115,3.052,3.052,0,0,1,2.336-2.791,3.276,3.276,0,0,1,3.569.973,3.052,3.052,0,0,1,.519,3.439,3.154,3.154,0,0,1-2.855,2.077,19.15,19.15,0,0,0-2.012.195,3.491,3.491,0,0,0-2.79,3.764,8.106,8.106,0,0,0,.454,3.05,3.179,3.179,0,0,0,2.855,2.076,12.753,12.753,0,0,0,1.557.195,3.543,3.543,0,0,1,3.18,3.959c-.195,1.687-2.077,2.855-4.023,2.531a3.153,3.153,0,0,1-2.791-3.31c0-1.622-.454-3.115-2.012-3.829a8.889,8.889,0,0,0-2.661-.649c-1.168-.26-2.336-.584-2.855-1.817-.844-2.012-.195-5,3.44-4.867Z" transform="translate(-747.922 -2149.112)" fill="#fefefe" fill-rule="evenodd"/></g></g></g></svg>