<svg xmlns="http://www.w3.org/2000/svg" xmlns:xlink="http://www.w3.org/1999/xlink" width="322" height="184.951" viewBox="0 0 322 184.951"><defs><linearGradient id="a" x1="-0.03" y1="0.238" x2="1.03" y2="0.761" gradientUnits="objectBoundingBox"><stop offset="0" stop-color="#5b4a88"/><stop offset="1" stop-color="#4c3a6d"/></linearGradient><linearGradient id="b" x1="-0.03" y1="0.238" x2="1.03" y2="0.761" xlink:href="#a"/><linearGradient id="c" x1="0.16" y1="0.14" x2="0.841" y2="0.86" xlink:href="#a"/><linearGradient id="d" x1="0.284" y1="-0.419" x2="0.716" y2="1.419" xlink:href="#a"/><linearGradient id="e" x1="0.117" y1="0.177" x2="0.883" y2="0.823" gradientUnits="objectBoundingBox"><stop offset="0" stop-color="#5b4a88"/><stop offset="1" stop-color="#4e3b75"/></linearGradient><linearGradient id="g" x1="0.192" y1="0.094" x2="0.808" y2="0.906" xlink:href="#a"/></defs><g transform="translate(-490 -236.859)"><g transform="translate(764.474 284.139)"><g transform="translate(0 41.428)"><path d="M608.385,229.169c-6.434-5.521-7.109-14.645-6.031-22.68.18-1.341.173-2.774.931-3.891a2.754,2.754,0,0,1,3.481-1.087c.952.57,1.272,1.776,1.735,2.793a7.907,7.907,0,0,0,2.855,3.329,3.014,3.014,0,0,0,2.738.525c1.224-.525,1.521-2.114,1.646-3.454q.349-3.744.7-7.487a12.551,12.551,0,0,1,.8-3.935,4.173,4.173,0,0,1,2.889-2.547,2.531,2.531,0,0,1,2.948,2,12.438,12.438,0,0,1-.128,1.67,1.414,1.414,0,0,0,.691,1.407,1.625,1.625,0,0,0,1.531-.468,17.876,17.876,0,0,0,3.675-4.5,24.833,24.833,0,0,1,3.476-4.68A7.274,7.274,0,0,1,637.5,183.9a4.355,4.355,0,0,1,4.149,3.4c.3,1.935-.994,3.74-2.344,5.148a30.037,30.037,0,0,1-6.811,5.309,2.468,2.468,0,0,0-1.152,1.015c-.38.863.377,1.834,1.229,2.215a15.558,15.558,0,0,0,3.088.663,3.025,3.025,0,0,1,2.413,1.825c.412,1.423-.875,2.743-2.094,3.569a25.723,25.723,0,0,1-8.01,3.617,8.668,8.668,0,0,0-2.951,1.087,2.489,2.489,0,0,0-1.076,2.758,2.534,2.534,0,0,0,2.637,1.327,17.915,17.915,0,0,0,3.049-.829c1.908-.511,4.271-.147,5.29,1.56a4.256,4.256,0,0,1,.077,3.79,9.814,9.814,0,0,1-2.359,3.105,25.86,25.86,0,0,1-11.758,6.626c-4.414,1.054-8.407,1.061-12.492-.913" transform="translate(-601.936 -183.892)" fill="#f5f5f5"/><g transform="translate(9.033 1.375)"><path d="M623.665,226.256a120.565,120.565,0,0,1,6.048-12.437l1.753-3.178c.578-1.042,1.151-2.075,1.773-3.051a60.106,60.106,0,0,1,3.9-5.4c1.324-1.659,2.64-3.185,3.881-4.6s2.43-2.713,3.56-3.85a47.715,47.715,0,0,1,5.729-4.961c.72-.531,1.291-.924,1.682-1.186l.447-.295a.961.961,0,0,1,.157-.093,1,1,0,0,1-.143.114l-.433.315c-.382.274-.944.681-1.654,1.222a50.477,50.477,0,0,0-5.662,5.007c-1.12,1.141-2.294,2.442-3.53,3.862s-2.542,2.951-3.858,4.609a60.882,60.882,0,0,0-3.873,5.39c-.618.972-1.184,2-1.763,3.041l-1.751,3.177a123.556,123.556,0,0,0-6.053,12.4" transform="translate(-623.665 -187.2)" fill="#e0e0e0"/></g><g transform="translate(18.183 6.843)"><path d="M646.169,215.271a2.757,2.757,0,0,1-.074-.584c-.033-.377-.064-.923-.091-1.6-.057-1.351-.071-3.22-.078-5.281s-.049-3.925-.125-5.272c-.036-.673-.072-1.219-.1-1.595a.3.3,0,1,1,.1-.011c.058.374.12.918.179,1.592.122,1.349.191,3.219.2,5.283,0,2.033,0,3.873.006,5.278,0,.635.009,1.17.013,1.6A2.676,2.676,0,0,1,646.169,215.271Z" transform="translate(-645.674 -200.352)" fill="#e0e0e0"/></g><g transform="translate(18.678 20.089)"><path d="M664.392,232.387a3.725,3.725,0,0,1-.694.014c-.446,0-1.09-.015-1.887,0-1.593.013-3.793.108-6.215.319s-4.607.5-6.181.758c-.788.121-1.423.237-1.862.314a3.666,3.666,0,0,1-.688.1,3.73,3.73,0,0,1,.669-.193c.434-.106,1.066-.249,1.853-.393,1.571-.3,3.759-.616,6.189-.833a61.056,61.056,0,0,1,6.236-.246c.8.01,1.445.047,1.89.082A3.693,3.693,0,0,1,664.392,232.387Z" transform="translate(-646.865 -232.213)" fill="#e0e0e0"/></g><g transform="translate(2.803 17.295)"><path d="M615.152,248.334a.876.876,0,0,1-.1-.222c-.062-.176-.139-.391-.232-.652-.2-.567-.466-1.395-.782-2.422-.634-2.054-1.419-4.919-2.244-8.092s-1.584-6.042-2.173-8.106l-.706-2.443c-.076-.266-.138-.486-.188-.666a.918.918,0,0,1-.05-.238.9.9,0,0,1,.1.222l.232.651c.2.567.466,1.395.782,2.422.634,2.054,1.42,4.919,2.245,8.093s1.583,6.041,2.173,8.106c.29,1,.528,1.83.706,2.443l.188.666A.887.887,0,0,1,615.152,248.334Z" transform="translate(-608.678 -225.494)" fill="#e0e0e0"/></g><g transform="translate(9.276 35.043)"><path d="M647.85,268.187a.95.95,0,0,1-.236.071l-.686.156-2.528.549c-2.134.465-5.074,1.14-8.323,1.89s-6.2,1.4-8.342,1.82c-1.072.21-1.942.372-2.544.471l-.7.111a.888.888,0,0,1-.245.021.959.959,0,0,1,.236-.071l.686-.156,2.527-.55c2.134-.464,5.075-1.139,8.324-1.89s6.2-1.4,8.341-1.82c1.072-.21,1.942-.372,2.545-.471l.7-.111A.885.885,0,0,1,647.85,268.187Z" transform="translate(-624.25 -268.183)" fill="#e0e0e0"/></g></g><g transform="translate(17.355 0)"><path d="M648.285,112.5a3.777,3.777,0,0,1-4.428-4.808L650.314,86.9a3.74,3.74,0,0,1,2.774-2.563l.012,0a3.738,3.738,0,0,1,3.6,1.123l14.774,15.987a3.778,3.778,0,0,1-1.941,6.248l-21.232,4.8Zm5.061-27.06-.008,0a2.622,2.622,0,0,0-1.946,1.8l-6.458,20.787a2.649,2.649,0,0,0,3.106,3.372l.008,0,21.232-4.8a2.65,2.65,0,0,0,1.362-4.382L655.867,86.223A2.623,2.623,0,0,0,653.345,85.435Z" transform="translate(-643.682 -84.241)" fill="#e0e0e0"/><g transform="translate(9.948 8.585)"><path d="M670.032,116.567a1.4,1.4,0,0,1,1.111-1.68,1.375,1.375,0,0,1,1.7,1.033,1.39,1.39,0,0,1-1.072,1.69A1.409,1.409,0,0,1,670.032,116.567ZM667.61,105.49l2.6-.6,1.455,8.322-1.739.4Z" transform="translate(-667.61 -104.891)" fill="#e0e0e0"/></g></g></g><g transform="translate(618.29 275.493)"><g transform="translate(0 87.988)"><g transform="translate(0.127)"><g transform="translate(8.411 4.362)"><rect width="57.602" height="40.776" fill="#263238"/></g><g transform="translate(0 0.147)"><rect width="62.97" height="15.623" fill="#455a64"/></g><g transform="translate(18.519 3.651)"><path d="M296.58,284.582a.711.711,0,1,1-.711-.711A.711.711,0,0,1,296.58,284.582Z" transform="translate(-295.158 -283.871)" fill="#263238"/><g transform="translate(3.138)"><path d="M304.13,284.582a.711.711,0,1,1-.711-.711A.711.711,0,0,1,304.13,284.582Z" transform="translate(-302.707 -283.871)" fill="#263238"/></g><g transform="translate(6.277)"><path d="M311.68,284.582a.711.711,0,1,1-.711-.711A.711.711,0,0,1,311.68,284.582Z" transform="translate(-310.257 -283.871)" fill="#263238"/></g><g transform="translate(9.416)"><path d="M319.23,284.582a.711.711,0,1,1-.711-.711A.711.711,0,0,1,319.23,284.582Z" transform="translate(-317.807 -283.871)" fill="#263238"/></g><g transform="translate(33.738)"><path d="M377.734,284.582a.711.711,0,1,1-.711-.711A.711.711,0,0,1,377.734,284.582Z" transform="translate(-376.311 -283.871)" fill="#263238"/></g><g transform="translate(36.939)"><path d="M385.432,284.582a.711.711,0,1,1-.711-.711A.711.711,0,0,1,385.432,284.582Z" transform="translate(-384.01 -283.871)" fill="#263238"/></g><g transform="translate(12.555)"><path d="M326.779,284.582a.711.711,0,1,1-.711-.711A.711.711,0,0,1,326.779,284.582Z" transform="translate(-325.357 -283.871)" fill="#263238"/></g><g transform="translate(27.969)"><path d="M363.856,284.582a.711.711,0,1,1-.711-.711A.711.711,0,0,1,363.856,284.582Z" transform="translate(-362.434 -283.871)" fill="#263238"/></g><g transform="translate(15.694)"><path d="M334.329,284.582a.711.711,0,1,1-.711-.711A.711.711,0,0,1,334.329,284.582Z" transform="translate(-332.907 -283.871)" fill="#f5f5f5"/></g><g transform="translate(18.832)"><path d="M341.879,284.582a.711.711,0,1,1-.711-.711A.711.711,0,0,1,341.879,284.582Z" transform="translate(-340.456 -283.871)" fill="#f5f5f5"/></g><g transform="translate(25.2)"><path d="M357.2,284.582a.711.711,0,1,1-.711-.711A.711.711,0,0,1,357.2,284.582Z" transform="translate(-355.774 -283.871)" fill="#f5f5f5"/></g><g transform="translate(39.543)"><path d="M391.7,284.582a.711.711,0,1,1-.711-.711A.711.711,0,0,1,391.7,284.582Z" transform="translate(-390.274 -283.871)" fill="#f5f5f5"/></g><g transform="translate(21.971)"><path d="M349.429,284.582a.711.711,0,1,1-.711-.711A.711.711,0,0,1,349.429,284.582Z" transform="translate(-348.006 -283.871)" fill="#e8505b"/></g><g transform="translate(30.957)"><path d="M371.045,284.582a.711.711,0,1,1-.711-.711A.711.711,0,0,1,371.045,284.582Z" transform="translate(-369.622 -283.871)" fill="#e8505b"/></g><g transform="translate(0 3.428)"><g transform="translate(39.543 0)"><path d="M390.274,292.829a.711.711,0,1,1,.711.711A.711.711,0,0,1,390.274,292.829Z" transform="translate(-390.274 -292.118)" fill="#263238"/></g><g transform="translate(36.404)"><circle cx="0.711" cy="0.711" r="0.711" fill="#263238"/></g><g transform="translate(33.265 0)"><path d="M375.174,292.829a.711.711,0,1,1,.711.711A.711.711,0,0,1,375.174,292.829Z" transform="translate(-375.174 -292.118)" fill="#263238"/></g><g transform="translate(30.126 0)"><path d="M367.624,292.829a.711.711,0,1,1,.711.711A.711.711,0,0,1,367.624,292.829Z" transform="translate(-367.624 -292.118)" fill="#263238"/></g><g transform="translate(5.804 0)"><path d="M309.12,292.829a.711.711,0,1,1,.711.711A.711.711,0,0,1,309.12,292.829Z" transform="translate(-309.12 -292.118)" fill="#263238"/></g><g transform="translate(2.604 0)"><path d="M301.421,292.829a.711.711,0,1,1,.711.711A.712.712,0,0,1,301.421,292.829Z" transform="translate(-301.421 -292.118)" fill="#263238"/></g><g transform="translate(26.988)"><ellipse cx="0.711" cy="0.711" rx="0.711" ry="0.711" fill="#263238"/></g><g transform="translate(11.574 0)"><circle cx="0.711" cy="0.711" r="0.711" fill="#263238"/></g><g transform="translate(23.849 0)"><path d="M352.525,292.829a.711.711,0,1,1,.711.711A.711.711,0,0,1,352.525,292.829Z" transform="translate(-352.525 -292.118)" fill="#f5f5f5"/></g><g transform="translate(20.711 0)"><path d="M344.975,292.829a.711.711,0,1,1,.711.711A.711.711,0,0,1,344.975,292.829Z" transform="translate(-344.975 -292.118)" fill="#f5f5f5"/></g><g transform="translate(14.343 0)"><path d="M329.658,292.829a.711.711,0,1,1,.711.711A.711.711,0,0,1,329.658,292.829Z" transform="translate(-329.658 -292.118)" fill="#f5f5f5"/></g><g transform="translate(0 0)"><path d="M295.158,292.829a.711.711,0,1,1,.711.711A.711.711,0,0,1,295.158,292.829Z" transform="translate(-295.158 -292.118)" fill="#f5f5f5"/></g><g transform="translate(17.572 0)"><path d="M337.425,292.829a.711.711,0,1,1,.711.711A.711.711,0,0,1,337.425,292.829Z" transform="translate(-337.425 -292.118)" fill="#e8505b"/></g><g transform="translate(8.585 0)"><path d="M315.809,292.829a.711.711,0,1,1,.711.711A.711.711,0,0,1,315.809,292.829Z" transform="translate(-315.809 -292.118)" fill="#e8505b"/></g></g><g transform="translate(0 6.478)"><path d="M296.58,300.163a.711.711,0,1,1-.711-.711A.711.711,0,0,1,296.58,300.163Z" transform="translate(-295.158 -299.452)" fill="#263238"/><g transform="translate(3.138)"><path d="M304.13,300.163a.711.711,0,1,1-.711-.711A.711.711,0,0,1,304.13,300.163Z" transform="translate(-302.707 -299.452)" fill="#263238"/></g><g transform="translate(6.277)"><path d="M311.68,300.163a.711.711,0,1,1-.711-.711A.711.711,0,0,1,311.68,300.163Z" transform="translate(-310.257 -299.452)" fill="#263238"/></g><g transform="translate(9.416)"><path d="M319.23,300.163a.711.711,0,1,1-.711-.711A.711.711,0,0,1,319.23,300.163Z" transform="translate(-317.807 -299.452)" fill="#263238"/></g><g transform="translate(33.738)"><path d="M377.734,300.163a.711.711,0,1,1-.711-.711A.711.711,0,0,1,377.734,300.163Z" transform="translate(-376.311 -299.452)" fill="#263238"/></g><g transform="translate(36.939)"><path d="M385.432,300.163a.711.711,0,1,1-.711-.711A.711.711,0,0,1,385.432,300.163Z" transform="translate(-384.01 -299.452)" fill="#263238"/></g><g transform="translate(12.555)"><path d="M326.779,300.163a.711.711,0,1,1-.711-.711A.711.711,0,0,1,326.779,300.163Z" transform="translate(-325.357 -299.452)" fill="#263238"/></g><g transform="translate(27.969)"><path d="M363.856,300.163a.711.711,0,1,1-.711-.711A.711.711,0,0,1,363.856,300.163Z" transform="translate(-362.434 -299.452)" fill="#263238"/></g><g transform="translate(15.694)"><path d="M334.329,300.163a.711.711,0,1,1-.711-.711A.711.711,0,0,1,334.329,300.163Z" transform="translate(-332.907 -299.452)" fill="#f5f5f5"/></g><g transform="translate(18.832)"><path d="M341.879,300.163a.711.711,0,1,1-.711-.711A.711.711,0,0,1,341.879,300.163Z" transform="translate(-340.456 -299.452)" fill="#f5f5f5"/></g><g transform="translate(25.2)"><path d="M357.2,300.163a.711.711,0,1,1-.711-.711A.711.711,0,0,1,357.2,300.163Z" transform="translate(-355.774 -299.452)" fill="#f5f5f5"/></g><g transform="translate(39.543)"><path d="M391.7,300.163a.711.711,0,1,1-.711-.711A.711.711,0,0,1,391.7,300.163Z" transform="translate(-390.274 -299.452)" fill="#f5f5f5"/></g><g transform="translate(21.971)"><path d="M349.429,300.163a.711.711,0,1,1-.711-.711A.711.711,0,0,1,349.429,300.163Z" transform="translate(-348.006 -299.452)" fill="#e8505b"/></g><g transform="translate(30.957)"><path d="M371.045,300.163a.711.711,0,1,1-.711-.711A.711.711,0,0,1,371.045,300.163Z" transform="translate(-369.622 -299.452)" fill="#e8505b"/></g></g></g><g transform="translate(2.796 3.365)"><rect width="12.399" height="1.908" fill="#263238"/></g><g transform="translate(2.796 6.647)"><rect width="12.399" height="1.908" fill="#263238"/></g><g transform="translate(2.796 10.041)"><rect width="12.399" height="1.908" fill="#263238"/></g><g transform="translate(0 19.426)"><rect width="62.97" height="15.623" fill="#455a64"/></g><g transform="translate(2.796 22.644)"><rect width="12.399" height="1.907" fill="#263238"/></g><g transform="translate(2.796 25.927)"><rect width="12.399" height="1.907" fill="#263238"/></g><g transform="translate(2.796 29.321)"><rect width="12.399" height="1.907" fill="#263238"/></g><g transform="translate(18.291 22.93)"><path d="M296.031,330.957a.711.711,0,1,1-.711-.711A.711.711,0,0,1,296.031,330.957Z" transform="translate(-294.609 -330.246)" fill="#263238"/><g transform="translate(3.139)"><path d="M303.581,330.957a.711.711,0,1,1-.711-.711A.711.711,0,0,1,303.581,330.957Z" transform="translate(-302.159 -330.246)" fill="#263238"/></g><g transform="translate(6.277)"><path d="M311.131,330.957a.711.711,0,1,1-.711-.711A.711.711,0,0,1,311.131,330.957Z" transform="translate(-309.708 -330.246)" fill="#263238"/></g><g transform="translate(9.416)"><path d="M318.681,330.957a.711.711,0,1,1-.711-.711A.711.711,0,0,1,318.681,330.957Z" transform="translate(-317.258 -330.246)" fill="#263238"/></g><g transform="translate(33.738)"><path d="M377.185,330.957a.711.711,0,1,1-.711-.711A.711.711,0,0,1,377.185,330.957Z" transform="translate(-375.762 -330.246)" fill="#263238"/></g><g transform="translate(36.939)"><path d="M384.884,330.957a.711.711,0,1,1-.711-.711A.711.711,0,0,1,384.884,330.957Z" transform="translate(-383.461 -330.246)" fill="#263238"/></g><g transform="translate(12.555)"><path d="M326.231,330.957a.711.711,0,1,1-.711-.711A.711.711,0,0,1,326.231,330.957Z" transform="translate(-324.808 -330.246)" fill="#263238"/></g><g transform="translate(27.969)"><path d="M363.307,330.957a.711.711,0,1,1-.711-.711A.711.711,0,0,1,363.307,330.957Z" transform="translate(-361.885 -330.246)" fill="#263238"/></g><g transform="translate(15.693)"><path d="M333.78,330.957a.711.711,0,1,1-.711-.711A.711.711,0,0,1,333.78,330.957Z" transform="translate(-332.358 -330.246)" fill="#f5f5f5"/></g><g transform="translate(18.832)"><path d="M341.33,330.957a.711.711,0,1,1-.711-.711A.711.711,0,0,1,341.33,330.957Z" transform="translate(-339.908 -330.246)" fill="#f5f5f5"/></g><g transform="translate(25.2)"><path d="M356.648,330.957a.711.711,0,1,1-.711-.711A.711.711,0,0,1,356.648,330.957Z" transform="translate(-355.225 -330.246)" fill="#f5f5f5"/></g><g transform="translate(39.543)"><path d="M391.148,330.957a.711.711,0,1,1-.711-.711A.711.711,0,0,1,391.148,330.957Z" transform="translate(-389.725 -330.246)" fill="#f5f5f5"/></g><g transform="translate(21.971)"><path d="M348.88,330.957a.711.711,0,1,1-.711-.711A.711.711,0,0,1,348.88,330.957Z" transform="translate(-347.457 -330.246)" fill="#e8505b"/></g><g transform="translate(30.958)"><path d="M370.5,330.957a.711.711,0,1,1-.711-.711A.711.711,0,0,1,370.5,330.957Z" transform="translate(-369.074 -330.246)" fill="#e8505b"/></g><g transform="translate(0 3.429)"><g transform="translate(39.543)"><path d="M389.725,339.2a.711.711,0,1,1,.711.711A.711.711,0,0,1,389.725,339.2Z" transform="translate(-389.725 -338.493)" fill="#263238"/></g><g transform="translate(36.404)"><path d="M382.175,339.2a.711.711,0,1,1,.711.711A.711.711,0,0,1,382.175,339.2Z" transform="translate(-382.175 -338.493)" fill="#263238"/></g><g transform="translate(33.266)"><path d="M374.626,339.2a.711.711,0,1,1,.711.711A.711.711,0,0,1,374.626,339.2Z" transform="translate(-374.626 -338.493)" fill="#263238"/></g><g transform="translate(30.127)"><path d="M367.076,339.2a.711.711,0,1,1,.711.711A.711.711,0,0,1,367.076,339.2Z" transform="translate(-367.076 -338.493)" fill="#263238"/></g><g transform="translate(5.805)"><path d="M308.572,339.2a.711.711,0,1,1,.711.711A.711.711,0,0,1,308.572,339.2Z" transform="translate(-308.572 -338.493)" fill="#263238"/></g><g transform="translate(2.604)"><path d="M300.873,339.2a.711.711,0,1,1,.711.711A.711.711,0,0,1,300.873,339.2Z" transform="translate(-300.873 -338.493)" fill="#263238"/></g><g transform="translate(26.988)"><path d="M359.526,339.2a.711.711,0,1,1,.711.711A.711.711,0,0,1,359.526,339.2Z" transform="translate(-359.526 -338.493)" fill="#263238"/></g><g transform="translate(11.574)"><path d="M322.449,339.2a.711.711,0,1,1,.711.711A.711.711,0,0,1,322.449,339.2Z" transform="translate(-322.449 -338.493)" fill="#263238"/></g><g transform="translate(23.849)"><path d="M351.976,339.2a.711.711,0,1,1,.711.711A.711.711,0,0,1,351.976,339.2Z" transform="translate(-351.976 -338.493)" fill="#f5f5f5"/></g><g transform="translate(20.711)"><path d="M344.426,339.2a.711.711,0,1,1,.711.711A.711.711,0,0,1,344.426,339.2Z" transform="translate(-344.426 -338.493)" fill="#f5f5f5"/></g><g transform="translate(14.343)"><path d="M329.109,339.2a.711.711,0,1,1,.711.711A.711.711,0,0,1,329.109,339.2Z" transform="translate(-329.109 -338.493)" fill="#f5f5f5"/></g><path d="M294.609,339.2a.711.711,0,1,1,.711.711A.711.711,0,0,1,294.609,339.2Z" transform="translate(-294.609 -338.493)" fill="#f5f5f5"/><g transform="translate(17.572)"><path d="M336.877,339.2a.711.711,0,1,1,.711.711A.711.711,0,0,1,336.877,339.2Z" transform="translate(-336.877 -338.493)" fill="#e8505b"/></g><g transform="translate(8.585)"><path d="M315.26,339.2a.711.711,0,1,1,.711.711A.711.711,0,0,1,315.26,339.2Z" transform="translate(-315.26 -338.493)" fill="#e8505b"/></g></g><g transform="translate(0 6.478)"><path d="M296.031,346.538a.711.711,0,1,1-.711-.711A.711.711,0,0,1,296.031,346.538Z" transform="translate(-294.609 -345.827)" fill="#263238"/><g transform="translate(3.139)"><path d="M303.581,346.538a.711.711,0,1,1-.711-.711A.711.711,0,0,1,303.581,346.538Z" transform="translate(-302.159 -345.827)" fill="#263238"/></g><g transform="translate(6.277)"><path d="M311.131,346.538a.711.711,0,1,1-.711-.711A.711.711,0,0,1,311.131,346.538Z" transform="translate(-309.708 -345.827)" fill="#263238"/></g><g transform="translate(9.416)"><path d="M318.681,346.538a.711.711,0,1,1-.711-.711A.711.711,0,0,1,318.681,346.538Z" transform="translate(-317.258 -345.827)" fill="#263238"/></g><g transform="translate(33.738)"><path d="M377.185,346.538a.711.711,0,1,1-.711-.711A.711.711,0,0,1,377.185,346.538Z" transform="translate(-375.762 -345.827)" fill="#263238"/></g><g transform="translate(36.939)"><path d="M384.884,346.538a.711.711,0,1,1-.711-.711A.711.711,0,0,1,384.884,346.538Z" transform="translate(-383.461 -345.827)" fill="#263238"/></g><g transform="translate(12.555)"><path d="M326.231,346.538a.711.711,0,1,1-.711-.711A.711.711,0,0,1,326.231,346.538Z" transform="translate(-324.808 -345.827)" fill="#263238"/></g><g transform="translate(27.969)"><path d="M363.307,346.538a.711.711,0,1,1-.711-.711A.711.711,0,0,1,363.307,346.538Z" transform="translate(-361.885 -345.827)" fill="#263238"/></g><g transform="translate(15.693)"><path d="M333.78,346.538a.711.711,0,1,1-.711-.711A.711.711,0,0,1,333.78,346.538Z" transform="translate(-332.358 -345.827)" fill="#f5f5f5"/></g><g transform="translate(18.832)"><path d="M341.33,346.538a.711.711,0,1,1-.711-.711A.711.711,0,0,1,341.33,346.538Z" transform="translate(-339.908 -345.827)" fill="#f5f5f5"/></g><g transform="translate(25.2)"><path d="M356.648,346.538a.711.711,0,1,1-.711-.711A.711.711,0,0,1,356.648,346.538Z" transform="translate(-355.225 -345.827)" fill="#f5f5f5"/></g><g transform="translate(39.543)"><path d="M391.148,346.538a.711.711,0,1,1-.711-.711A.711.711,0,0,1,391.148,346.538Z" transform="translate(-389.725 -345.827)" fill="#f5f5f5"/></g><g transform="translate(21.971)"><path d="M348.88,346.538a.711.711,0,1,1-.711-.711A.711.711,0,0,1,348.88,346.538Z" transform="translate(-347.457 -345.827)" fill="#e8505b"/></g><g transform="translate(30.958)"><path d="M370.5,346.538a.711.711,0,1,1-.711-.711A.711.711,0,0,1,370.5,346.538Z" transform="translate(-369.074 -345.827)" fill="#e8505b"/></g></g></g><g transform="translate(62.97)"><path d="M411.547,290.712l-9.467.025V275.115l9.467-.025Z" transform="translate(-402.08 -275.089)" fill="#263238"/></g><g transform="translate(62.97 19.401)"><path d="M411.547,337.38l-9.467.025V321.782l9.467-.025Z" transform="translate(-402.08 -321.757)" fill="#263238"/></g></g><g transform="translate(0 38.948)"><g transform="translate(62.515)"><path d="M410.144,384.4l-9.467.025V368.8l9.467-.025Z" transform="translate(-400.677 -368.775)" fill="#263238"/></g><g transform="translate(0 0.025)"><rect width="62.971" height="15.623" fill="#455a64"/></g><g transform="translate(2.796 3.243)"><rect width="12.399" height="1.908" fill="#263238"/></g><g transform="translate(2.796 6.525)"><rect width="12.399" height="1.907" fill="#263238"/></g><g transform="translate(18.675 3.684)"><path d="M296.649,378.349a.711.711,0,1,1-.711-.711A.711.711,0,0,1,296.649,378.349Z" transform="translate(-295.226 -377.638)" fill="#263238"/><g transform="translate(3.139)"><path d="M304.2,378.349a.711.711,0,1,1-.711-.711A.711.711,0,0,1,304.2,378.349Z" transform="translate(-302.776 -377.638)" fill="#263238"/></g><g transform="translate(6.278)"><path d="M311.749,378.349a.711.711,0,1,1-.711-.711A.711.711,0,0,1,311.749,378.349Z" transform="translate(-310.326 -377.638)" fill="#263238"/></g><g transform="translate(9.416)"><path d="M319.3,378.349a.711.711,0,1,1-.711-.711A.711.711,0,0,1,319.3,378.349Z" transform="translate(-317.876 -377.638)" fill="#263238"/></g><g transform="translate(33.738)"><path d="M377.8,378.349a.711.711,0,1,1-.711-.711A.711.711,0,0,1,377.8,378.349Z" transform="translate(-376.38 -377.638)" fill="#263238"/></g><g transform="translate(36.939)"><path d="M385.5,378.349a.711.711,0,1,1-.711-.711A.711.711,0,0,1,385.5,378.349Z" transform="translate(-384.079 -377.638)" fill="#263238"/></g><g transform="translate(12.555)"><path d="M326.848,378.349a.711.711,0,1,1-.711-.711A.711.711,0,0,1,326.848,378.349Z" transform="translate(-325.425 -377.638)" fill="#263238"/></g><g transform="translate(27.969)"><path d="M363.925,378.349a.711.711,0,1,1-.711-.711A.711.711,0,0,1,363.925,378.349Z" transform="translate(-362.502 -377.638)" fill="#263238"/></g><g transform="translate(15.693)"><path d="M334.4,378.349a.711.711,0,1,1-.711-.711A.711.711,0,0,1,334.4,378.349Z" transform="translate(-332.975 -377.638)" fill="#f5f5f5"/></g><g transform="translate(18.832)"><path d="M341.948,378.349a.711.711,0,1,1-.711-.711A.711.711,0,0,1,341.948,378.349Z" transform="translate(-340.525 -377.638)" fill="#f5f5f5"/></g><g transform="translate(25.2)"><path d="M357.265,378.349a.711.711,0,1,1-.711-.711A.711.711,0,0,1,357.265,378.349Z" transform="translate(-355.842 -377.638)" fill="#f5f5f5"/></g><g transform="translate(39.543)"><path d="M391.765,378.349a.711.711,0,1,1-.711-.711A.711.711,0,0,1,391.765,378.349Z" transform="translate(-390.343 -377.638)" fill="#f5f5f5"/></g><g transform="translate(21.971)"><path d="M349.5,378.349a.711.711,0,1,1-.711-.711A.711.711,0,0,1,349.5,378.349Z" transform="translate(-348.075 -377.638)" fill="#e8505b"/></g><g transform="translate(30.958)"><path d="M371.114,378.349a.711.711,0,1,1-.711-.711A.711.711,0,0,1,371.114,378.349Z" transform="translate(-369.691 -377.638)" fill="#e8505b"/></g><g transform="translate(0 3.429)"><g transform="translate(39.543)"><path d="M390.343,386.6a.711.711,0,1,1,.711.711A.711.711,0,0,1,390.343,386.6Z" transform="translate(-390.343 -385.885)" fill="#263238"/></g><g transform="translate(36.404)"><path d="M382.793,386.6a.711.711,0,1,1,.711.711A.711.711,0,0,1,382.793,386.6Z" transform="translate(-382.793 -385.885)" fill="#263238"/></g><g transform="translate(33.266)"><path d="M375.243,386.6a.711.711,0,1,1,.711.711A.711.711,0,0,1,375.243,386.6Z" transform="translate(-375.243 -385.885)" fill="#263238"/></g><g transform="translate(30.127)"><path d="M367.693,386.6a.711.711,0,1,1,.711.711A.711.711,0,0,1,367.693,386.6Z" transform="translate(-367.693 -385.885)" fill="#263238"/></g><g transform="translate(5.805)"><path d="M309.189,386.6a.711.711,0,1,1,.711.711A.711.711,0,0,1,309.189,386.6Z" transform="translate(-309.189 -385.885)" fill="#263238"/></g><g transform="translate(2.604)"><path d="M301.49,386.6a.711.711,0,1,1,.711.711A.711.711,0,0,1,301.49,386.6Z" transform="translate(-301.49 -385.885)" fill="#263238"/></g><g transform="translate(26.988)"><path d="M360.143,386.6a.711.711,0,1,1,.711.711A.711.711,0,0,1,360.143,386.6Z" transform="translate(-360.143 -385.885)" fill="#263238"/></g><g transform="translate(11.574)"><path d="M323.067,386.6a.711.711,0,1,1,.711.711A.711.711,0,0,1,323.067,386.6Z" transform="translate(-323.067 -385.885)" fill="#263238"/></g><g transform="translate(23.85)"><path d="M352.594,386.6a.711.711,0,1,1,.711.711A.711.711,0,0,1,352.594,386.6Z" transform="translate(-352.594 -385.885)" fill="#f5f5f5"/></g><g transform="translate(20.711)"><path d="M345.044,386.6a.711.711,0,1,1,.711.711A.711.711,0,0,1,345.044,386.6Z" transform="translate(-345.044 -385.885)" fill="#f5f5f5"/></g><g transform="translate(14.343)"><path d="M329.726,386.6a.711.711,0,1,1,.711.711A.711.711,0,0,1,329.726,386.6Z" transform="translate(-329.726 -385.885)" fill="#f5f5f5"/></g><path d="M295.226,386.6a.711.711,0,1,1,.711.711A.711.711,0,0,1,295.226,386.6Z" transform="translate(-295.226 -385.885)" fill="#f5f5f5"/><g transform="translate(17.572)"><path d="M337.494,386.6a.711.711,0,1,1,.711.711A.711.711,0,0,1,337.494,386.6Z" transform="translate(-337.494 -385.885)" fill="#e8505b"/></g><g transform="translate(8.586)"><path d="M315.878,386.6a.711.711,0,1,1,.711.711A.711.711,0,0,1,315.878,386.6Z" transform="translate(-315.878 -385.885)" fill="#e8505b"/></g></g><g transform="translate(0 6.478)"><path d="M296.649,393.93a.711.711,0,1,1-.711-.711A.711.711,0,0,1,296.649,393.93Z" transform="translate(-295.226 -393.219)" fill="#263238"/><g transform="translate(3.139)"><path d="M304.2,393.93a.711.711,0,1,1-.711-.711A.711.711,0,0,1,304.2,393.93Z" transform="translate(-302.776 -393.219)" fill="#263238"/></g><g transform="translate(6.278)"><path d="M311.749,393.93a.711.711,0,1,1-.711-.711A.711.711,0,0,1,311.749,393.93Z" transform="translate(-310.326 -393.219)" fill="#263238"/></g><g transform="translate(9.416)"><path d="M319.3,393.93a.711.711,0,1,1-.711-.711A.711.711,0,0,1,319.3,393.93Z" transform="translate(-317.876 -393.219)" fill="#263238"/></g><g transform="translate(33.738)"><path d="M377.8,393.93a.711.711,0,1,1-.711-.711A.711.711,0,0,1,377.8,393.93Z" transform="translate(-376.38 -393.219)" fill="#263238"/></g><g transform="translate(36.939)"><path d="M385.5,393.93a.711.711,0,1,1-.711-.711A.711.711,0,0,1,385.5,393.93Z" transform="translate(-384.079 -393.219)" fill="#263238"/></g><g transform="translate(12.555)"><path d="M326.848,393.93a.711.711,0,1,1-.711-.711A.711.711,0,0,1,326.848,393.93Z" transform="translate(-325.425 -393.219)" fill="#263238"/></g><g transform="translate(27.969)"><path d="M363.925,393.93a.711.711,0,1,1-.711-.711A.711.711,0,0,1,363.925,393.93Z" transform="translate(-362.502 -393.219)" fill="#263238"/></g><g transform="translate(15.693)"><path d="M334.4,393.93a.711.711,0,1,1-.711-.711A.711.711,0,0,1,334.4,393.93Z" transform="translate(-332.975 -393.219)" fill="#f5f5f5"/></g><g transform="translate(18.832)"><path d="M341.948,393.93a.711.711,0,1,1-.711-.711A.711.711,0,0,1,341.948,393.93Z" transform="translate(-340.525 -393.219)" fill="#f5f5f5"/></g><g transform="translate(25.2)"><path d="M357.265,393.93a.711.711,0,1,1-.711-.711A.711.711,0,0,1,357.265,393.93Z" transform="translate(-355.842 -393.219)" fill="#f5f5f5"/></g><g transform="translate(39.543)"><path d="M391.765,393.93a.711.711,0,1,1-.711-.711A.711.711,0,0,1,391.765,393.93Z" transform="translate(-390.343 -393.219)" fill="#f5f5f5"/></g><g transform="translate(21.971)"><path d="M349.5,393.93a.711.711,0,1,1-.711-.711A.711.711,0,0,1,349.5,393.93Z" transform="translate(-348.075 -393.219)" fill="#e8505b"/></g><g transform="translate(30.958)"><path d="M371.114,393.93a.711.711,0,1,1-.711-.711A.711.711,0,0,1,371.114,393.93Z" transform="translate(-369.691 -393.219)" fill="#e8505b"/></g></g></g></g></g><g transform="translate(74.575 0)"><g transform="translate(0.196)"><rect width="46.546" height="142.585" fill="#ebebeb"/></g><g transform="translate(46.677)"><path d="M578.748,206.028H542.027l-.066-142.585h36.787Z" transform="translate(-541.961 -63.444)" fill="#e0e0e0"/></g><g transform="translate(2.773 22.82)"><rect width="39.484" height="11.116" fill="#263238"/><g transform="translate(1.102 1.397)"><rect width="2.211" height="8.508" fill="#455a64"/></g><g transform="translate(4.512 2.484)"><path d="M448.617,125.013a.7.7,0,1,1-.7-.7A.7.7,0,0,1,448.617,125.013Z" transform="translate(-447.211 -124.31)" fill="#fff"/></g><g transform="translate(4.512 5.49)"><path d="M448.617,132.244a.7.7,0,1,1-.7-.7A.7.7,0,0,1,448.617,132.244Z" transform="translate(-447.211 -131.541)" fill="#fff"/></g><g transform="translate(8.726 2.484)"><rect width="2.173" height="6.535" fill="#455a64"/></g><g transform="translate(11.865 2.484)"><rect width="2.173" height="6.535" fill="#455a64"/></g><g transform="translate(15.003 2.484)"><rect width="2.173" height="6.535" fill="#455a64"/></g><g transform="translate(18.141 2.484)"><rect width="2.173" height="6.535" fill="#455a64"/></g><g transform="translate(21.28 2.484)"><rect width="2.173" height="6.535" fill="#455a64"/></g><g transform="translate(24.418 2.484)"><rect width="2.173" height="6.535" fill="#455a64"/></g><g transform="translate(27.556 2.484)"><rect width="2.173" height="6.535" fill="#455a64"/></g><g transform="translate(30.695 2.484)"><rect width="2.173" height="6.535" fill="#455a64"/></g><g transform="translate(33.833 2.484)"><rect width="2.173" height="6.535" fill="#455a64"/></g><g transform="translate(36.971 2.484)"><rect width="2.173" height="6.535" fill="#455a64"/></g></g><g transform="translate(2.773 38.789)"><rect width="39.484" height="11.116" fill="#263238"/><g transform="translate(1.102 1.397)"><rect width="2.211" height="8.508" fill="#455a64"/></g><g transform="translate(4.512 2.484)"><path d="M448.617,163.426a.7.7,0,1,1-.7-.7A.7.7,0,0,1,448.617,163.426Z" transform="translate(-447.211 -162.723)" fill="#fff"/></g><g transform="translate(4.512 5.49)"><path d="M448.617,170.656a.7.7,0,1,1-.7-.7A.7.7,0,0,1,448.617,170.656Z" transform="translate(-447.211 -169.953)" fill="#fff"/></g><g transform="translate(8.726 2.484)"><rect width="2.173" height="6.535" fill="#455a64"/></g><g transform="translate(11.865 2.484)"><rect width="2.173" height="6.535" fill="#455a64"/></g><g transform="translate(15.003 2.484)"><rect width="2.173" height="6.535" fill="#455a64"/></g><g transform="translate(18.141 2.484)"><rect width="2.173" height="6.535" fill="#455a64"/></g><g transform="translate(21.28 2.484)"><rect width="2.173" height="6.535" fill="#455a64"/></g><g transform="translate(24.418 2.484)"><rect width="2.173" height="6.535" fill="#455a64"/></g><g transform="translate(27.556 2.484)"><rect width="2.173" height="6.535" fill="#455a64"/></g><g transform="translate(30.695 2.484)"><rect width="2.173" height="6.535" fill="#455a64"/></g><g transform="translate(33.833 2.484)"><rect width="2.173" height="6.535" fill="#455a64"/></g><g transform="translate(36.971 2.484)"><rect width="2.173" height="6.535" fill="#455a64"/></g></g><g transform="translate(2.773 54.886)"><rect width="39.484" height="11.116" fill="#263238"/><g transform="translate(1.102 1.397)"><rect width="2.211" height="8.507" fill="#455a64"/></g><g transform="translate(4.512 2.484)"><path d="M448.617,202.145a.7.7,0,1,1-.7-.7A.7.7,0,0,1,448.617,202.145Z" transform="translate(-447.211 -201.442)" fill="#fff"/></g><g transform="translate(4.512 5.49)"><path d="M448.617,209.376a.7.7,0,1,1-.7-.7A.7.7,0,0,1,448.617,209.376Z" transform="translate(-447.211 -208.673)" fill="#fff"/></g><g transform="translate(8.726 2.484)"><rect width="2.173" height="6.535" fill="#455a64"/></g><g transform="translate(11.865 2.484)"><rect width="2.173" height="6.535" fill="#455a64"/></g><g transform="translate(15.003 2.484)"><rect width="2.173" height="6.535" fill="#455a64"/></g><g transform="translate(18.141 2.484)"><rect width="2.173" height="6.535" fill="#455a64"/></g><g transform="translate(21.28 2.484)"><rect width="2.173" height="6.535" fill="#455a64"/></g><g transform="translate(24.418 2.484)"><rect width="2.173" height="6.535" fill="#455a64"/></g><g transform="translate(27.556 2.484)"><rect width="2.173" height="6.535" fill="#455a64"/></g><g transform="translate(30.695 2.484)"><rect width="2.173" height="6.535" fill="#455a64"/></g><g transform="translate(33.833 2.484)"><rect width="2.173" height="6.535" fill="#455a64"/></g><g transform="translate(36.971 2.484)"><rect width="2.173" height="6.535" fill="#455a64"/></g></g><g transform="translate(2.773 72.275)"><rect width="39.484" height="11.116" fill="#263238"/><g transform="translate(1.102 1.397)"><rect width="2.211" height="8.507" fill="#455a64"/></g><g transform="translate(4.512 2.484)"><path d="M448.617,243.972a.7.7,0,1,1-.7-.7A.7.7,0,0,1,448.617,243.972Z" transform="translate(-447.211 -243.269)" fill="#fff"/></g><g transform="translate(4.512 5.49)"><path d="M448.617,251.2a.7.7,0,1,1-.7-.7A.7.7,0,0,1,448.617,251.2Z" transform="translate(-447.211 -250.5)" fill="#fff"/></g><g transform="translate(8.726 2.484)"><rect width="2.173" height="6.535" fill="#455a64"/></g><g transform="translate(11.865 2.484)"><rect width="2.173" height="6.535" fill="#455a64"/></g><g transform="translate(15.003 2.484)"><rect width="2.173" height="6.535" fill="#455a64"/></g><g transform="translate(18.141 2.484)"><rect width="2.173" height="6.535" fill="#455a64"/></g><g transform="translate(21.28 2.484)"><rect width="2.173" height="6.535" fill="#455a64"/></g><g transform="translate(24.418 2.484)"><rect width="2.173" height="6.535" fill="#455a64"/></g><g transform="translate(27.556 2.484)"><rect width="2.173" height="6.535" fill="#455a64"/></g><g transform="translate(30.695 2.484)"><rect width="2.173" height="6.535" fill="#455a64"/></g><g transform="translate(33.833 2.484)"><rect width="2.173" height="6.535" fill="#455a64"/></g><g transform="translate(36.971 2.484)"><rect width="2.173" height="6.535" fill="#455a64"/></g></g><g transform="translate(2.773 89.836)"><rect width="39.484" height="11.116" fill="#263238"/><g transform="translate(1.102 1.397)"><rect width="2.211" height="8.508" fill="#455a64"/></g><g transform="translate(4.512 2.484)"><path d="M448.617,286.213a.7.7,0,1,1-.7-.7A.7.7,0,0,1,448.617,286.213Z" transform="translate(-447.211 -285.51)" fill="#fff"/></g><g transform="translate(4.512 5.49)"><path d="M448.617,293.443a.7.7,0,1,1-.7-.7A.7.7,0,0,1,448.617,293.443Z" transform="translate(-447.211 -292.74)" fill="#fff"/></g><g transform="translate(8.726 2.484)"><rect width="2.173" height="6.535" fill="#455a64"/></g><g transform="translate(11.865 2.484)"><rect width="2.173" height="6.535" fill="#455a64"/></g><g transform="translate(15.003 2.484)"><rect width="2.173" height="6.535" fill="#455a64"/></g><g transform="translate(18.141 2.484)"><rect width="2.173" height="6.535" fill="#455a64"/></g><g transform="translate(21.28 2.484)"><rect width="2.173" height="6.535" fill="#455a64"/></g><g transform="translate(24.418 2.484)"><rect width="2.173" height="6.535" fill="#455a64"/></g><g transform="translate(27.556 2.484)"><rect width="2.173" height="6.535" fill="#455a64"/></g><g transform="translate(30.695 2.484)"><rect width="2.173" height="6.535" fill="#455a64"/></g><g transform="translate(33.833 2.484)"><rect width="2.173" height="6.535" fill="#455a64"/></g><g transform="translate(36.971 2.484)"><rect width="2.173" height="6.535" fill="#455a64"/></g></g><g transform="translate(2.773 124.785)"><rect width="39.484" height="11.116" fill="#263238"/><g transform="translate(1.102 1.397)"><rect width="2.211" height="8.508" fill="#455a64"/></g><g transform="translate(4.512 2.484)"><path d="M448.617,370.28a.7.7,0,1,1-.7-.7A.7.7,0,0,1,448.617,370.28Z" transform="translate(-447.211 -369.577)" fill="#fff"/></g><g transform="translate(4.512 5.49)"><path d="M448.617,377.511a.7.7,0,1,1-.7-.7A.7.7,0,0,1,448.617,377.511Z" transform="translate(-447.211 -376.808)" fill="#fff"/></g><g transform="translate(8.726 2.484)"><rect width="2.173" height="6.535" fill="#455a64"/></g><g transform="translate(11.865 2.484)"><rect width="2.173" height="6.535" fill="#455a64"/></g><g transform="translate(15.003 2.484)"><rect width="2.173" height="6.535" fill="#455a64"/></g><g transform="translate(18.141 2.484)"><rect width="2.173" height="6.535" fill="#455a64"/></g><g transform="translate(21.28 2.484)"><rect width="2.173" height="6.535" fill="#455a64"/></g><g transform="translate(24.418 2.484)"><rect width="2.173" height="6.535" fill="#455a64"/></g><g transform="translate(27.556 2.484)"><rect width="2.173" height="6.535" fill="#455a64"/></g><g transform="translate(30.695 2.484)"><rect width="2.173" height="6.535" fill="#455a64"/></g><g transform="translate(33.833 2.484)"><rect width="2.173" height="6.535" fill="#455a64"/></g><g transform="translate(36.971 2.484)"><rect width="2.173" height="6.535" fill="#455a64"/></g></g><g transform="translate(2.773 107.326)"><rect width="39.484" height="11.116" fill="#263238"/><g transform="translate(1.102 1.397)"><rect width="2.211" height="8.507" fill="#455a64"/></g><g transform="translate(4.512 2.485)"><path d="M448.617,328.283a.7.7,0,1,1-.7-.7A.7.7,0,0,1,448.617,328.283Z" transform="translate(-447.211 -327.58)" fill="#fff"/></g><g transform="translate(4.512 5.49)"><path d="M448.617,335.513a.7.7,0,1,1-.7-.7A.7.7,0,0,1,448.617,335.513Z" transform="translate(-447.211 -334.81)" fill="#fff"/></g><g transform="translate(8.726 2.484)"><rect width="2.173" height="6.535" fill="#455a64"/></g><g transform="translate(11.865 2.484)"><rect width="2.173" height="6.535" fill="#455a64"/></g><g transform="translate(15.003 2.484)"><rect width="2.173" height="6.535" fill="#455a64"/></g><g transform="translate(18.141 2.484)"><rect width="2.173" height="6.535" fill="#455a64"/></g><g transform="translate(21.28 2.484)"><rect width="2.173" height="6.535" fill="#455a64"/></g><g transform="translate(24.418 2.484)"><rect width="2.173" height="6.535" fill="#455a64"/></g><g transform="translate(27.556 2.484)"><rect width="2.173" height="6.535" fill="#455a64"/></g><g transform="translate(30.695 2.484)"><rect width="2.173" height="6.535" fill="#455a64"/></g><g transform="translate(33.833 2.484)"><rect width="2.173" height="6.535" fill="#455a64"/></g><g transform="translate(36.971 2.484)"><rect width="2.173" height="6.535" fill="#455a64"/></g></g><g transform="translate(0.196 12.121)"><path d="M457.153,103.3a1.663,1.663,0,0,1-.04-.343c-.016-.225-.028-.559-.039-.987s-.019-.953-.047-1.56a9.872,9.872,0,0,0-.27-2.028,7.252,7.252,0,0,0-1.054-2.224,4.924,4.924,0,0,0-2.165-1.741,10.474,10.474,0,0,0-3.069-.624l-3.4-.294c-4.661-.4-8.887-.663-11.95-.718-1.532-.033-2.771-.023-3.628-.018l-.987.011a1.757,1.757,0,0,1-.345-.012,1.835,1.835,0,0,1,.343-.038l.986-.059c.857-.035,2.1-.072,3.634-.062,3.069.01,7.306.241,11.969.645l3.4.3a10.582,10.582,0,0,1,3.135.656,5.115,5.115,0,0,1,2.245,1.833,7.344,7.344,0,0,1,1.056,2.3,9.7,9.7,0,0,1,.239,2.069c.015.611.009,1.136.005,1.564,0,.408-.006.736-.008.987A1.873,1.873,0,0,1,457.153,103.3Z" transform="translate(-430.158 -92.6)" fill="#263238"/></g><g transform="translate(0 15.496)"><path d="M444.9,108.042a1.554,1.554,0,0,1-.023-.324c0-.238-.006-.547-.01-.929,0-.4,0-.9-.046-1.464a4.5,4.5,0,0,0-.485-1.831,3.507,3.507,0,0,0-1.785-1.374,4.913,4.913,0,0,0-2.6-.265,4.4,4.4,0,0,0-1.343.456,2.558,2.558,0,0,0-1.044.987,1.411,1.411,0,0,0,0,1.4,1.865,1.865,0,0,0,1.184.89,1.506,1.506,0,0,0,1.386-.4,2.049,2.049,0,0,0,.622-1.32,2,2,0,0,0-.414-1.35,2.947,2.947,0,0,0-1.045-.923,3.883,3.883,0,0,0-1.305-.336c-.446-.066-.879-.124-1.3-.171-.84-.094-1.626-.148-2.345-.178-1.438-.056-2.6-.033-3.411-.033h-.929a1.558,1.558,0,0,1-.324-.017,1.559,1.559,0,0,1,.323-.033l.928-.046c.806-.03,1.974-.08,3.42-.047.723.018,1.515.062,2.361.148.423.043.86.1,1.309.16.225.035.449.064.685.107a2.651,2.651,0,0,1,.694.242,3.169,3.169,0,0,1,1.135.991,2.247,2.247,0,0,1,.463,1.507,2.29,2.29,0,0,1-.7,1.482,1.757,1.757,0,0,1-1.613.464,2.109,2.109,0,0,1-1.347-1.014,1.662,1.662,0,0,1,0-1.632,2.792,2.792,0,0,1,1.146-1.082,4.611,4.611,0,0,1,1.42-.474,5.1,5.1,0,0,1,2.716.3,3.665,3.665,0,0,1,1.862,1.479,4.581,4.581,0,0,1,.471,1.909c.031.577.015,1.071,0,1.475-.015.382-.027.691-.037.928A1.577,1.577,0,0,1,444.9,108.042Z" transform="translate(-429.686 -100.718)" fill="#263238"/></g><g transform="translate(0.196 11.066)"><path d="M460.376,101.816a2.1,2.1,0,0,1-.08-.368c-.042-.242-.11-.6-.207-1.056a20.606,20.606,0,0,0-1.162-3.767,10.98,10.98,0,0,0-3.436-4.613,6.486,6.486,0,0,0-3.15-1.2,32.64,32.64,0,0,0-3.7-.2c-5.1-.1-9.728-.076-13.074-.206-1.672-.058-3.025-.136-3.959-.2l-1.074-.089a2.082,2.082,0,0,1-.373-.049,2.083,2.083,0,0,1,.377,0l1.076.042c.935.036,2.287.087,3.958.122,3.343.084,7.965.036,13.074.133a32.168,32.168,0,0,1,3.733.207,6.693,6.693,0,0,1,3.254,1.258,9.971,9.971,0,0,1,2.173,2.3,13.318,13.318,0,0,1,1.288,2.431,19.009,19.009,0,0,1,1.095,3.816c.083.461.136.822.162,1.067A2.164,2.164,0,0,1,460.376,101.816Z" transform="translate(-430.158 -90.062)" fill="#263238"/></g><g transform="translate(3.316 1.773)"><rect width="38.398" height="5.574" fill="#263238"/></g><g transform="translate(11.761 4.56)"><rect width="20.906" height="2.787" fill="#455a64"/></g><g transform="translate(39.681 107.695)"><g transform="translate(1.939 9.68)"><path d="M545.557,345.78c0,.027-.423.069-1.161.284a10.059,10.059,0,0,0-2.9,1.421A8.1,8.1,0,0,0,539.867,349a5.641,5.641,0,0,0-.668,1.033,6.98,6.98,0,0,0-.419,1.238,21.515,21.515,0,0,0-.219,5.878,12.287,12.287,0,0,1-.88,5.869,6.534,6.534,0,0,1-1.567,2.1,7.593,7.593,0,0,1-3.722,1.759,6.525,6.525,0,0,1-1.416.06,4.748,4.748,0,0,1-.882-.139,1.435,1.435,0,0,1-.3-.091c.007-.03.419.1,1.185.132a6.83,6.83,0,0,0,1.386-.1,7.605,7.605,0,0,0,1.749-.561,7.519,7.519,0,0,0,1.858-1.214,6.372,6.372,0,0,0,1.5-2.04,12.228,12.228,0,0,0,.838-5.761,21.193,21.193,0,0,1,.245-5.943,7.1,7.1,0,0,1,.446-1.28,5.8,5.8,0,0,1,.705-1.067,8.161,8.161,0,0,1,1.688-1.527,9.593,9.593,0,0,1,2.977-1.37,6.558,6.558,0,0,1,.877-.166A1.436,1.436,0,0,1,545.557,345.78Z" transform="translate(-529.797 -345.777)" fill="#263238"/></g><g transform="translate(0 28.881)"><rect width="3.153" height="3.834" fill="#263238"/></g><g transform="translate(17.699)"><rect width="17.676" height="19.367" fill="#455a64"/><g transform="translate(3.02 3.942)"><ellipse cx="5.818" cy="5.818" rx="5.818" ry="5.818" fill="#263238"/></g><g transform="translate(5.929 6.851)"><ellipse cx="2.909" cy="2.909" rx="2.909" ry="2.909" fill="#455a64"/></g><g transform="translate(1.851 2.466)"><ellipse cx="0.54" cy="0.54" rx="0.54" ry="0.54" fill="#263238"/></g><g transform="translate(14.432 2.466)"><path d="M603.5,328.963a.54.54,0,1,1-.54-.54A.54.54,0,0,1,603.5,328.963Z" transform="translate(-602.422 -328.423)" fill="#263238"/></g><g transform="translate(14.548 16.768)"><path d="M603.781,363.365a.54.54,0,1,1-.54-.54A.54.54,0,0,1,603.781,363.365Z" transform="translate(-602.7 -362.825)" fill="#263238"/></g><g transform="translate(1.85 16.989)"><path d="M573.239,363.9a.54.54,0,1,1-.54-.54A.54.54,0,0,1,573.239,363.9Z" transform="translate(-572.158 -363.358)" fill="#263238"/></g><g transform="translate(17.676)"><rect width="1.426" height="19.367" fill="#263238"/></g></g></g></g></g><g transform="translate(562.1 251.121)"><g transform="translate(0 0)"><path d="M58.119,166.507l-7.707-1.894.057-.009a12.811,12.811,0,0,1-6.653,1.995,13.929,13.929,0,0,1-4.123-.6,12.757,12.757,0,0,1-4.018-2.13,12.915,12.915,0,0,1-4.861-8.589,12.756,12.756,0,0,1,3.312-10.289,13.381,13.381,0,0,1,2.232-1.945c.417-.257.827-.524,1.257-.75l.656-.316.327-.157.34-.124a13,13,0,0,1,5.541-.844,12.83,12.83,0,0,1,11.31,8.635,13.3,13.3,0,0,1,.712,4.161,12.78,12.78,0,0,1-1.846,6.676v-.069l3.465,6.252-3.585-6.184-.02-.035.021-.035a12.7,12.7,0,0,0,1.778-6.6,13.15,13.15,0,0,0-.72-4.094A12.626,12.626,0,0,0,44.462,141.1a12.768,12.768,0,0,0-5.433.833l-.333.122-.32.154-.642.31c-.421.222-.823.484-1.232.736a13.159,13.159,0,0,0-2.188,1.907,12.655,12.655,0,0,0,1.5,18.528,12.567,12.567,0,0,0,3.942,2.107,13.775,13.775,0,0,0,4.056.611,12.715,12.715,0,0,0,6.578-1.927l.027-.017.03.008Z" transform="translate(-30.72 -140.824)" fill="#263238"/><g transform="translate(11.83 6.276)"><path d="M59.178,156.813l.407,6.438a1.045,1.045,0,0,0,.981.977h0a1.045,1.045,0,0,0,1.1-.928l.715-6.47a.82.82,0,0,0-.826-.91l-1.571.022A.82.82,0,0,0,59.178,156.813Z" transform="translate(-59.176 -155.92)" fill="#fb9c1a"/></g><g transform="translate(11.863 16.139)"><path d="M62.319,181.71a1.571,1.571,0,1,1-1-1.986A1.571,1.571,0,0,1,62.319,181.71Z" transform="translate(-59.256 -179.643)" fill="#fb9c1a"/></g></g></g><g transform="translate(604.191 236.859)"><g transform="translate(4.296 31.154)"><path d="M308.812,150.9c-.046.033-.647-.75-1.666-1.971s-2.47-2.875-4.087-4.693-3.048-3.5-4.017-4.774c-.486-.635-.866-1.158-1.112-1.532a2.575,2.575,0,0,1-.355-.6c.045-.032.646.75,1.665,1.972s2.471,2.875,4.088,4.694,3.047,3.5,4.016,4.772c.486.635.866,1.159,1.111,1.533A2.607,2.607,0,0,1,308.812,150.9Z" transform="translate(-297.574 -137.331)" fill="#263238"/></g><g transform="translate(16.173)"><path d="M327.345,129.862c-.094.031-3-8.336-6.484-18.686s-6.238-18.772-6.144-18.8,3,8.334,6.485,18.688S327.44,129.83,327.345,129.862Z" transform="translate(-314.715 -92.372)" fill="#263238"/></g><g transform="translate(40.293 19.117)"><path d="M349.528,140.505c-.095-.03,1.321-4.655,3.163-10.327s3.412-10.248,3.507-10.217-1.321,4.654-3.163,10.328S349.623,140.536,349.528,140.505Z" transform="translate(-349.524 -119.961)" fill="#263238"/></g><g transform="translate(52.151 39.075)"><path d="M374.251,148.766c.061.085-1.7,1.442-3.8,3.21s-3.738,3.273-3.811,3.2a5.5,5.5,0,0,1,.971-1.1c.638-.639,1.553-1.489,2.608-2.377s2.049-1.644,2.788-2.163A5.542,5.542,0,0,1,374.251,148.766Z" transform="translate(-366.636 -148.763)" fill="#263238"/></g><g transform="translate(48.523 11.24)"><path d="M362.168,108.594c.095.031.008.547-.193,1.152s-.442,1.069-.536,1.038-.008-.547.193-1.152S362.073,108.562,362.168,108.594Z" transform="translate(-361.4 -108.593)" fill="#263238"/></g><g transform="translate(0 26.196)"><path d="M292.31,131.461c-.081.058-.351-.181-.6-.534s-.391-.685-.31-.743.351.181.6.534S292.391,131.4,292.31,131.461Z" transform="translate(-291.375 -130.176)" fill="#263238"/></g></g><g transform="translate(589.651 284.139)"><path d="M360.066,164.005H272.893a2.764,2.764,0,0,0-2.721,2.8v63.457a2.764,2.764,0,0,0,2.721,2.8h33.456s2.129,6.782-4.469,10.292h31.283s-7.448-2.632-5.533-10.292h32.435a2.764,2.764,0,0,0,2.721-2.8V166.809A2.764,2.764,0,0,0,360.066,164.005Z" transform="translate(-270.172 -164.005)" fill="#263238"/><g transform="translate(44.587 61.937)"><path d="M337.4,251.14a1.679,1.679,0,0,1-2.366,2.365.606.606,0,0,1-.146-.146,1.679,1.679,0,0,1,2.365-2.365A.6.6,0,0,1,337.4,251.14Z" transform="translate(-334.517 -250.62)" fill="#455a64"/></g><g transform="translate(1.501 1.128)"><path d="M2.847,0H86.765a2.847,2.847,0,0,1,2.847,2.847V54.622a0,0,0,0,1,0,0H0a0,0,0,0,1,0,0V2.847A2.847,2.847,0,0,1,2.847,0Z" fill="#fff"/></g><g transform="translate(1.501 1.128)"><path d="M2.978,0H87.168a2.445,2.445,0,0,1,2.445,2.445V4.539a0,0,0,0,1,0,0H0a0,0,0,0,1,0,0V2.978A2.978,2.978,0,0,1,2.978,0Z" fill="#ebebeb"/></g><g transform="translate(3.725 2.863)"><path d="M276.807,168.766a.63.63,0,1,1-.629-.629A.63.63,0,0,1,276.807,168.766Z" transform="translate(-275.548 -168.137)" fill="#e0e0e0"/><g transform="translate(1.876)"><path d="M279.515,168.766a.63.63,0,1,1-.629-.629A.629.629,0,0,1,279.515,168.766Z" transform="translate(-278.256 -168.137)" fill="#e0e0e0"/></g><g transform="translate(3.661)"><path d="M282.091,168.766a.63.63,0,1,1-.63-.629A.63.63,0,0,1,282.091,168.766Z" transform="translate(-280.832 -168.137)" fill="#e0e0e0"/></g></g><g transform="translate(18.9 69.328)"><path d="M352.856,260.7c0,.028-12.4.052-27.7.052s-27.706-.024-27.706-.052,12.4-.053,27.706-.053S352.856,260.676,352.856,260.7Z" transform="translate(-297.447 -260.652)" fill="#455a64"/></g></g><g transform="translate(598.774 301.815)"><path d="M328.676,204.52c0,4.852-3.56,9.078-11.386,9.078a18.927,18.927,0,0,1-10.448-2.935l2.5-4.852a13.173,13.173,0,0,0,7.787,2.466c3.169,0,5.125-1.331,5.125-3.561,0-2.152-1.408-3.56-6.378-3.56h-7l1.41-15.417h16.707v5.086H315.569l-.431,5.2h2.23C325.468,196.028,328.676,199.668,328.676,204.52Z" transform="translate(-306.842 -185.268)" fill="#fb9c1a"/><path d="M326.872,199.517c0-9.039,5.008-14.165,11.738-14.165,6.769,0,11.738,5.126,11.738,14.165s-4.969,14.165-11.738,14.165C331.88,213.682,326.872,208.555,326.872,199.517Zm17.1,0c0-6.221-2.19-8.8-5.36-8.8-3.13,0-5.321,2.583-5.321,8.8s2.191,8.8,5.321,8.8C341.78,208.321,343.971,205.739,343.971,199.517Z" transform="translate(-302.46 -185.352)" fill="#fb9c1a"/><path d="M348.667,199.517c0-9.039,5.008-14.165,11.738-14.165,6.769,0,11.738,5.126,11.738,14.165s-4.969,14.165-11.738,14.165C353.675,213.682,348.667,208.555,348.667,199.517Zm17.1,0c0-6.221-2.19-8.8-5.36-8.8-3.13,0-5.321,2.583-5.321,8.8s2.191,8.8,5.321,8.8C363.575,208.321,365.766,205.739,365.766,199.517Z" transform="translate(-297.691 -185.352)" fill="#fb9c1a"/></g><g transform="translate(594.393 290.198)"><path d="M284.584,198.54a1.281,1.281,0,0,1-1.1-1.927l3.721-6.377a1.269,1.269,0,0,1,1.113-.636h0a1.267,1.267,0,0,1,1.1.646l3.662,6.411a1.281,1.281,0,0,1-1.119,1.917l-7.383-.034Zm3.738-8.557h0a.89.89,0,0,0-.78.446l-3.721,6.377a.9.9,0,0,0,.769,1.352h0l7.383.034a.9.9,0,0,0,.784-1.344l-3.662-6.411A.891.891,0,0,0,288.323,189.984Z" transform="translate(-283.311 -189.601)" fill="#fb9c1a"/><g transform="translate(4.45 3.045)"><path d="M291.625,199.136a.474.474,0,0,1,.5-.471.474.474,0,1,1,0,.947A.478.478,0,0,1,291.625,199.136Zm.046-3.846h.9l-.155,2.862h-.605Z" transform="translate(-291.625 -195.29)" fill="#fb9c1a"/></g></g><g transform="translate(666.437 327.72)"><path d="M372.745,199.448a1.411,1.411,0,0,1-1.208-2.123l4.1-7.024a1.4,1.4,0,0,1,1.226-.7h0a1.4,1.4,0,0,1,1.215.711l4.034,7.062a1.411,1.411,0,0,1-1.232,2.111l-8.133-.038Zm4.118-9.425h0a.979.979,0,0,0-.859.491l-4.1,7.024a.99.99,0,0,0,.847,1.489h0l8.132.037a.99.99,0,0,0,.864-1.48l-4.034-7.062A.98.98,0,0,0,376.862,190.023Z" transform="translate(-371.342 -189.601)" fill="#fb9c1a"/><g transform="translate(4.902 3.354)"><path d="M379.656,199.526a.521.521,0,0,1,.546-.518.514.514,0,0,1,.532.519.519.519,0,0,1-.532.525A.526.526,0,0,1,379.656,199.526Zm.05-4.236h1l-.17,3.152h-.667Z" transform="translate(-379.656 -195.29)" fill="#fb9c1a"/></g></g><g transform="translate(778.077 368.767)"><g transform="translate(0 0)"><g transform="translate(1.971 33.015)"><path d="M639.4,367.218l2.454,16.125h14.256l3.309-15.892Z" transform="translate(-639.396 -367.218)" fill="#fb9c1a"/></g><g transform="translate(3.596 41.577)"><g transform="translate(0.084 1.689)"><path d="M659.822,391.959c0,.046-3.653.084-8.158.084s-8.159-.038-8.159-.084,3.652-.084,8.159-.084S659.822,391.912,659.822,391.959Z" transform="translate(-643.505 -391.875)" fill="#fafafa"/></g><g transform="translate(0.028 0.896)"><path d="M659.8,390.052c0,.046-3.678.084-8.213.084s-8.214-.037-8.214-.084,3.677-.084,8.214-.084S659.8,390.005,659.8,390.052Z" transform="translate(-643.372 -389.968)" fill="#fafafa"/></g><path d="M659.731,387.9c0,.046-3.678.084-8.213.084s-8.214-.037-8.214-.084,3.677-.084,8.214-.084S659.731,387.85,659.731,387.9Z" transform="translate(-643.304 -387.813)" fill="#fafafa"/><g transform="translate(1.747 2.554)"><path d="M648.226,398.045a25.77,25.77,0,0,1-.71-4.089,25.768,25.768,0,0,1,.71,4.089Z" transform="translate(-647.507 -393.956)" fill="#fafafa"/></g><g transform="translate(3.151 2.504)"><path d="M651.169,397.8a47.192,47.192,0,0,1-.27-3.968,15.859,15.859,0,0,1,.27,3.968Z" transform="translate(-650.883 -393.836)" fill="#fafafa"/></g><g transform="translate(4.703 2.378)"><path d="M655.117,397.626a16.147,16.147,0,0,1-.479-4.093,59.967,59.967,0,0,1,.479,4.093Z" transform="translate(-654.616 -393.533)" fill="#fafafa"/></g><g transform="translate(6.235 2.42)"><path d="M658.511,397.77a16.511,16.511,0,0,1-.135-4.136,57.92,57.92,0,0,1,.135,4.136Z" transform="translate(-658.3 -393.634)" fill="#fafafa"/></g><g transform="translate(8.468 2.548)"><path d="M663.846,397.866a23.1,23.1,0,0,1-.133-3.923,23.083,23.083,0,0,1,.133,3.923Z" transform="translate(-663.672 -393.943)" fill="#fafafa"/></g><g transform="translate(10.176 2.505)"><path d="M667.851,397.89a24.543,24.543,0,0,1,.033-4.051,24.525,24.525,0,0,1-.033,4.051Z" transform="translate(-667.782 -393.839)" fill="#fafafa"/></g><g transform="translate(11.733 2.122)"><path d="M671.543,397.136a26.857,26.857,0,0,1,.409-4.219,26.858,26.858,0,0,1-.409,4.219Z" transform="translate(-671.527 -392.917)" fill="#fafafa"/></g><g transform="translate(13.676 2.591)"><path d="M676.213,397.585a11.113,11.113,0,0,1,.77-3.539,85.286,85.286,0,0,1-.77,3.539Z" transform="translate(-676.201 -394.046)" fill="#fafafa"/></g></g><g transform="translate(7.549)"><g transform="translate(4.609 1.197)"><path d="M667.654,290.682a.279.279,0,0,1-.017.079c-.018.061-.04.135-.067.228l-.272.87c-.122.377-.267.838-.418,1.38s-.345,1.152-.514,1.838-.377,1.433-.555,2.245c-.2.808-.364,1.681-.55,2.6-.342,1.838-.653,3.871-.873,6.017s-.3,4.2-.333,6.073c0,.935-.008,1.824.026,2.655.015.831.059,1.6.1,2.311s.1,1.343.141,1.9.092,1.042.138,1.435.071.686.094.906l.02.237a.041.041,0,1,1-.017,0c-.01-.063-.022-.14-.037-.234l-.125-.9c-.055-.392-.116-.873-.166-1.434s-.127-1.2-.166-1.9-.1-1.482-.121-2.315c-.04-.833-.036-1.723-.041-2.66.02-1.874.112-3.934.321-6.088s.538-4.189.888-6.03c.19-.918.362-1.791.566-2.6.185-.813.388-1.562.576-2.245s.377-1.3.539-1.834.315-1,.446-1.373l.3-.861.082-.223A.285.285,0,0,1,667.654,290.682Z" transform="translate(-663.9 -290.682)" fill="#455a64"/></g><g transform="translate(5.533 8.092)"><path d="M666.38,310.357a5.293,5.293,0,0,1,2.216-2.8,1.27,1.27,0,0,1,1.172-.215c.5.24.537.94.389,1.473a3.9,3.9,0,0,1-1.613,2.2,3.29,3.29,0,0,1-2.421.611" transform="translate(-666.123 -307.268)" fill="#455a64"/></g><g transform="translate(4.777 13.35)"><path d="M664.451,324.488a8.922,8.922,0,0,1,2.632-4.231,1.693,1.693,0,0,1,.6-.319.7.7,0,0,1,.64.138.98.98,0,0,1,.143.924,5.61,5.61,0,0,1-4.159,4.187" transform="translate(-664.304 -319.914)" fill="#455a64"/></g><g transform="translate(4.685 20.179)"><path d="M664.083,340.021a8.141,8.141,0,0,1,2.655-3.338,1.265,1.265,0,0,1,.926-.33c.5.091.732.706.688,1.216a3.933,3.933,0,0,1-1.721,2.544,10.667,10.667,0,0,1-2.456,1.262" transform="translate(-664.083 -336.341)" fill="#455a64"/></g><g transform="translate(4.819 25.242)"><path d="M664.405,351.4a7.846,7.846,0,0,1,2.259-2.572,1.636,1.636,0,0,1,.678-.3.69.69,0,0,1,.665.253c.226.333.011.782-.232,1.1a6.442,6.442,0,0,1-3.223,2.364" transform="translate(-664.405 -348.52)" fill="#455a64"/></g><g transform="translate(0.536 22.839)"><path d="M658.275,346.293a25.167,25.167,0,0,0-3.23-3.291c-.183-.155-.415-.318-.644-.244a.481.481,0,0,0-.3.434,1.223,1.223,0,0,0,.123.539,6.262,6.262,0,0,0,4.159,3.5" transform="translate(-654.103 -342.74)" fill="#455a64"/></g><g transform="translate(0 16.806)"><path d="M657.624,332.262l-2.538-3.093a3.062,3.062,0,0,0-.823-.781,1.041,1.041,0,0,0-1.083-.013,1.026,1.026,0,0,0-.348,1.021,2.7,2.7,0,0,0,.5,1.016,7.541,7.541,0,0,0,1.849,1.964,3.094,3.094,0,0,0,2.317.714" transform="translate(-652.813 -328.228)" fill="#455a64"/></g><g transform="translate(0.694 10.353)"><path d="M658.951,316.943a8.843,8.843,0,0,0-2.553-3.833,1.486,1.486,0,0,0-.665-.388,1.118,1.118,0,0,0-1.164.817,2.1,2.1,0,0,0,.232,1.68,4.436,4.436,0,0,0,1.193,1.261A10.224,10.224,0,0,0,658.816,318" transform="translate(-654.482 -312.708)" fill="#455a64"/></g><g transform="translate(2.362 3.699)"><path d="M662.309,302.018a10.355,10.355,0,0,0-2.261-4.737c-.228-.306-.546-.63-.923-.573a.733.733,0,0,0-.53.455,1.711,1.711,0,0,0-.1.717,5.54,5.54,0,0,0,3.595,4.949" transform="translate(-658.494 -296.702)" fill="#455a64"/></g><g transform="translate(6.76)"><path d="M669.2,293.973a14.807,14.807,0,0,1-.093-2.773,4.963,4.963,0,0,1,.92-2.583,2.131,2.131,0,0,1,.921-.735,1.164,1.164,0,0,1,1.13.15,1.23,1.23,0,0,1,.387,1,3.116,3.116,0,0,1-.286,1.062c-.676,1.627-1.8,3.428-2.98,3.883" transform="translate(-669.075 -287.803)" fill="#455a64"/></g></g><g transform="translate(0 7.297)"><g transform="translate(3.324 1.01)"><path d="M642.708,307.785a1.119,1.119,0,0,1,.014.227c0,.165,0,.382.007.651s0,.628.016,1.029.016.858.049,1.362c.044,1.009.142,2.208.295,3.533s.391,2.774.7,4.282.7,2.926,1.078,4.2.785,2.412,1.15,3.354c.172.475.353.895.5,1.267s.284.691.4.949l.255.6a1.145,1.145,0,0,1,.079.214,1.121,1.121,0,0,1-.109-.2l-.284-.586c-.123-.255-.27-.569-.426-.939s-.347-.787-.526-1.26c-.38-.938-.785-2.074-1.187-3.352s-.773-2.7-1.095-4.216-.535-2.97-.691-4.3-.231-2.534-.26-3.546c-.026-.506-.02-.964-.024-1.365s0-.748.012-1.031.018-.486.024-.651A1.234,1.234,0,0,1,642.708,307.785Z" transform="translate(-642.65 -307.785)" fill="#263238"/></g><g transform="translate(3.779 5.575)"><path d="M643.746,321.552a3.782,3.782,0,0,1,.907-2.383.906.906,0,0,1,.752-.4c.39.057.568.525.582.919a2.783,2.783,0,0,1-.625,1.845,2.347,2.347,0,0,1-1.517.937" transform="translate(-643.746 -318.764)" fill="#263238"/></g><g transform="translate(4.636 9.262)"><path d="M645.812,331.51a6.372,6.372,0,0,1,.881-3.448,1.216,1.216,0,0,1,.339-.346.5.5,0,0,1,.465-.043.7.7,0,0,1,.3.6,4.007,4.007,0,0,1-1.931,3.746" transform="translate(-645.808 -327.634)" fill="#263238"/></g><g transform="translate(5.756 13.959)"><path d="M648.5,342.2a5.819,5.819,0,0,1,1.089-2.844.905.905,0,0,1,.56-.424c.362-.047.651.323.73.68a2.806,2.806,0,0,1-.624,2.1,7.623,7.623,0,0,1-1.4,1.388" transform="translate(-648.501 -338.93)" fill="#263238"/></g><g transform="translate(6.766 17.461)"><path d="M650.929,350a5.6,5.6,0,0,1,.984-2.237,1.166,1.166,0,0,1,.4-.353.493.493,0,0,1,.507.029c.226.177.175.53.079.8a4.6,4.6,0,0,1-1.685,2.3" transform="translate(-650.929 -347.356)" fill="#263238"/></g><g transform="translate(2.799 17.326)"><path d="M644.906,348.655A17.954,17.954,0,0,0,642,347.111a.519.519,0,0,0-.491-.027.344.344,0,0,0-.108.36.877.877,0,0,0,.2.34,4.472,4.472,0,0,0,3.584,1.487" transform="translate(-641.388 -347.03)" fill="#263238"/></g><g transform="translate(1.212 13.216)"><path d="M641.55,339.076l-2.393-1.56a2.186,2.186,0,0,0-.729-.355.743.743,0,0,0-.74.224.733.733,0,0,0-.017.77,1.922,1.922,0,0,0,.556.585,5.375,5.375,0,0,0,1.682.939,2.207,2.207,0,0,0,1.731-.012" transform="translate(-637.571 -337.143)" fill="#263238"/></g><g transform="translate(0.37 8.632)"><path d="M639.261,328.3a6.317,6.317,0,0,0-2.563-2.06,1.065,1.065,0,0,0-.537-.121.8.8,0,0,0-.617.807,1.5,1.5,0,0,0,.519,1.094,3.159,3.159,0,0,0,1.083.6,7.3,7.3,0,0,0,2.25.43" transform="translate(-635.545 -326.118)" fill="#263238"/></g><g transform="translate(0 3.832)"><path d="M638.232,317.544a7.39,7.39,0,0,0-2.558-2.738.777.777,0,0,0-.752-.191.521.521,0,0,0-.263.424,1.217,1.217,0,0,0,.086.51,3.956,3.956,0,0,0,3.513,2.6" transform="translate(-634.655 -314.571)" fill="#263238"/></g><g transform="translate(2.685)"><path d="M641.877,310.068a10.554,10.554,0,0,1-.66-1.867,3.54,3.54,0,0,1,.071-1.957,1.525,1.525,0,0,1,.469-.7.832.832,0,0,1,.8-.141.877.877,0,0,1,.478.594,2.22,2.22,0,0,1,.034.785c-.11,1.253-.49,2.722-1.194,3.285" transform="translate(-641.114 -305.354)" fill="#263238"/></g></g><g transform="translate(15.974 7.14)"><g transform="translate(0.886 1.011)"><path d="M679.755,307.409a1.142,1.142,0,0,1,.02.227c.006.165.014.382.024.651s.019.629.012,1.031,0,.86-.025,1.366c-.029,1.012-.115,2.215-.26,3.546s-.378,2.786-.691,4.3-.7,2.935-1.095,4.216-.807,2.414-1.187,3.352c-.18.473-.368.891-.526,1.26s-.3.684-.426.939l-.284.586a1.122,1.122,0,0,1-.109.2,1.153,1.153,0,0,1,.079-.214l.255-.6c.114-.258.252-.575.4-.949s.33-.792.5-1.267c.365-.941.757-2.078,1.15-3.354s.758-2.7,1.078-4.2.538-2.958.7-4.283.251-2.524.295-3.533c.033-.5.036-.961.049-1.362s.017-.747.016-1.029.005-.485.007-.651A1.191,1.191,0,0,1,679.755,307.409Z" transform="translate(-675.209 -307.409)" fill="#455a64"/></g><g transform="translate(2.793 5.575)"><path d="M682.038,321.176a3.781,3.781,0,0,0-.907-2.383.906.906,0,0,0-.752-.4c-.39.057-.568.525-.582.919a2.781,2.781,0,0,0,.625,1.844,2.348,2.348,0,0,0,1.517.937" transform="translate(-679.796 -318.388)" fill="#455a64"/></g><g transform="translate(2.176 9.262)"><path d="M680.31,331.134a6.372,6.372,0,0,0-.881-3.447,1.2,1.2,0,0,0-.339-.346.5.5,0,0,0-.465-.044.7.7,0,0,0-.3.6,4.007,4.007,0,0,0,1.931,3.746" transform="translate(-678.313 -327.257)" fill="#455a64"/></g><g transform="translate(0.639 13.959)"><path d="M677.035,341.827a5.819,5.819,0,0,0-1.089-2.844.9.9,0,0,0-.56-.424c-.362-.047-.651.323-.73.68a2.807,2.807,0,0,0,.624,2.1,7.623,7.623,0,0,0,1.4,1.388" transform="translate(-674.617 -338.554)" fill="#455a64"/></g><g transform="translate(0 17.462)"><path d="M675.127,349.625a5.6,5.6,0,0,0-.984-2.237,1.165,1.165,0,0,0-.4-.353.493.493,0,0,0-.507.029c-.225.178-.175.53-.079.8a4.6,4.6,0,0,0,1.686,2.3" transform="translate(-673.079 -346.98)" fill="#455a64"/></g><g transform="translate(2.219 17.326)"><path d="M678.7,348.279a17.975,17.975,0,0,1,2.907-1.545.518.518,0,0,1,.491-.027.344.344,0,0,1,.108.36.872.872,0,0,1-.2.34,4.47,4.47,0,0,1-3.584,1.487" transform="translate(-678.417 -346.654)" fill="#455a64"/></g><g transform="translate(3.532 13.216)"><path d="M681.665,338.7l2.394-1.56a2.187,2.187,0,0,1,.729-.355.743.743,0,0,1,.74.224.733.733,0,0,1,.017.77,1.918,1.918,0,0,1-.556.586,5.377,5.377,0,0,1-1.682.939,2.208,2.208,0,0,1-1.731-.012" transform="translate(-681.575 -336.767)" fill="#455a64"/></g><g transform="translate(4.591 8.632)"><path d="M684.259,327.927a6.314,6.314,0,0,1,2.563-2.06,1.065,1.065,0,0,1,.537-.121.8.8,0,0,1,.617.807,1.5,1.5,0,0,1-.519,1.094,3.159,3.159,0,0,1-1.083.6,7.3,7.3,0,0,1-2.25.43" transform="translate(-684.123 -325.742)" fill="#455a64"/></g><g transform="translate(5.212 3.832)"><path d="M685.64,317.168a7.391,7.391,0,0,1,2.559-2.738.776.776,0,0,1,.752-.191.521.521,0,0,1,.263.424,1.216,1.216,0,0,1-.086.509,3.956,3.956,0,0,1-3.513,2.6" transform="translate(-685.615 -314.195)" fill="#455a64"/></g><g transform="translate(4.154)"><path d="M684.283,309.692a10.556,10.556,0,0,0,.66-1.868,3.54,3.54,0,0,0-.071-1.956,1.522,1.522,0,0,0-.469-.7.831.831,0,0,0-.8-.141.878.878,0,0,0-.478.594,2.219,2.219,0,0,0-.034.785c.11,1.253.49,2.722,1.194,3.285" transform="translate(-683.071 -304.978)" fill="#455a64"/></g></g><g transform="translate(0.335 29.822)"><path d="M635.461,359.537v3.017a1.188,1.188,0,0,0,1.188,1.188h20.644a1.188,1.188,0,0,0,1.188-1.188v-3.017Z" transform="translate(-635.461 -359.537)" fill="#fb9c1a"/></g><g transform="translate(2.125 34.027)" opacity="0.4"><path d="M639.766,369.652l.171.961,19.048,1.357.483-2.318Z" transform="translate(-639.766 -369.652)"/></g></g></g><g transform="translate(528.259 417.969)"><g transform="translate(0 0)"><path d="M317.487,406.264c0,.059-63.523.108-141.864.108-78.368,0-141.877-.049-141.877-.108s63.509-.109,141.877-.109C253.964,406.155,317.487,406.2,317.487,406.264Z" transform="translate(-33.746 -406.155)" fill="#263238"/></g></g><g transform="translate(490 276.897)"><ellipse cx="24.957" cy="4.235" rx="24.957" ry="4.235" transform="translate(22.46 136.443)" fill="#e6e7e8"/><path d="M.061,1985.836c2.5,1.275,12.888-16.486,15.985-22.452L14.225,1953C12.722,1955.368-2.216,1984.652.061,1985.836Z" transform="translate(0.175 -1864.057)" fill-rule="evenodd" fill="url(#a)"/><path d="M1750.985,1985.836c-2.5,1.275-12.888-16.486-15.985-22.452l1.822-10.384C1738.324,1955.368,1753.262,1984.652,1750.985,1985.836Z" transform="translate(-1655.977 -1864.057)" fill-rule="evenodd" fill="url(#b)"/><rect width="74.552" height="70.863" rx="14" transform="translate(10.118 8.972)" fill="url(#c)"/><path d="M600.4,486.272a.5.5,0,0,0,.046-.228c0-1.23,0-2.414-.091-3.6a8.624,8.624,0,0,0-.774-3.188,3.356,3.356,0,0,0-6.239.455A12.363,12.363,0,0,0,592.7,484c-.046.729,0,1.5,0,2.277Zm12.342,0c.046-.046.046-.046.046-.091-.046-1.776-.046-3.552-.182-5.283a9.143,9.143,0,0,0-.956-3.416,3.459,3.459,0,0,0-6.057-.319,7.9,7.9,0,0,0-1.047,3.006,31.074,31.074,0,0,0-.228,5.829.578.578,0,0,0,.046.273ZM582,479.4a1,1,0,0,0,.364.046h5.556c.319,0,.41-.091.455-.41a14.746,14.746,0,0,1,1.548-5.738,5.906,5.906,0,0,1,5.146-3.188,7.585,7.585,0,0,1,3.188.364,5.723,5.723,0,0,1,2.824,2.459,2.608,2.608,0,0,0,.182.319l.091.091c.091-.41.228-.774.319-1.093a6.567,6.567,0,0,1,3.233-3.826,7.713,7.713,0,0,1,3.507-.592,9.712,9.712,0,0,1,4.782,1.23,7.84,7.84,0,0,1,3.279,4.509,19.327,19.327,0,0,1,.865,5.146,1.708,1.708,0,0,1,.046.5.926.926,0,0,1,.046.228h6.33v3.871h-6.239v3.051h6.285v3.871h-6.376v7.788c-1.594-.228-3.1-.5-4.645-.774V494.47a1.354,1.354,0,0,0-1.5-1.457H594.661a1.924,1.924,0,0,0-2.186,2.095c-.046.774,0,1.594,0,2.368a1.845,1.845,0,0,0,0,.5H588.33v-7.7H582v-3.917h6.148v-3.051H582Z" transform="translate(-555.487 -446.514)" fill="#fefefe" fill-rule="evenodd"/><circle cx="2.232" cy="2.232" r="2.232" transform="translate(50.969 32.699)" fill="#f89f33"/><path d="M858.232,718A2.232,2.232,0,1,1,856,720.232,2.235,2.235,0,0,1,858.232,718Z" transform="translate(-817.008 -685.301)" fill="#f89f33" fill-rule="evenodd"/><path d="M796.638,1318.754a1.708,1.708,0,0,0,2.323,2.5c.137-.091.091-.046.137-.091a12.194,12.194,0,0,1,7.879-2.778,9.852,9.852,0,0,1,7.423,2.778l.091.091a1.709,1.709,0,1,0,2.55-2.277.565.565,0,0,1-.091-.137,13.344,13.344,0,0,0-10.019-3.871,15.7,15.7,0,0,0-10.11,3.643C796.684,1318.754,796.684,1318.754,796.638,1318.754Z" transform="translate(-759.832 -1255.087)" fill="#fefefe"/><g transform="translate(41.405 32.972)"><circle cx="0.683" cy="0.683" r="0.683" transform="translate(0.364 0.501)" fill="#fefefe"/><circle cx="0.273" cy="0.273" r="0.273" fill="#fefefe"/></g><g transform="translate(53.429 32.972)"><circle cx="0.683" cy="0.683" r="0.683" transform="translate(0.319 0.501)" fill="#fefefe"/><circle cx="0.273" cy="0.273" r="0.273" fill="#fefefe"/></g><path d="M768.724,0c6.74,0,15.575,6.1,12.251,6.1h-24.5C753.1,6.1,761.938,0,768.724,0Z" transform="translate(-721.307)" fill-rule="evenodd" fill="url(#d)"/><g transform="translate(30.52 131.707)"><path d="M678.233,2892c-.091,0,.137,8.425-4.144,8.425-4.235,0-4.1-8.425-4.1-8.425Z" transform="translate(-669.989 -2892)" fill-rule="evenodd" fill="url(#e)"/><path d="M1239.233,2892c-.091,0,.136,8.425-4.144,8.425-4.235,0-4.1-8.425-4.1-8.425Z" transform="translate(-1205.44 -2892)" fill-rule="evenodd" fill="url(#e)"/></g><g transform="translate(34.07 106.001)"><path d="M876.287,2335.279a2.3,2.3,0,0,0-1.321-2.459,8.091,8.091,0,0,0-2.186-.456,2.192,2.192,0,0,1-1.958-1.594,2.379,2.379,0,0,1,.729-2.5,2.131,2.131,0,0,1,2.414-.365,2.066,2.066,0,0,1,1.412,2c.046.456.091.957.182,1.412a2.489,2.489,0,0,0,2.641,1.958,8.334,8.334,0,0,0,2.095-.319,2.328,2.328,0,0,0,1.5-2,8.937,8.937,0,0,0,.137-1.093,2.5,2.5,0,0,1,2.733-2.277,2.393,2.393,0,0,1,1.776,2.823,2.08,2.08,0,0,1-2.277,1.958,2.886,2.886,0,0,0-2.733,1.412,8.4,8.4,0,0,0-.455,1.913c-.182.82-.364,1.64-1.23,2-1.412.592-3.552.137-3.461-2.414Z" transform="translate(-865.125 -2327.563)" fill="#bfdfb9" fill-rule="evenodd"/><path d="M997.241,2458.143a2.269,2.269,0,0,0-1.321-2.414,8.111,8.111,0,0,0-2.14-.41,2.319,2.319,0,0,1-1.958-1.594,2.379,2.379,0,0,1,.729-2.5,2.07,2.07,0,0,1,2.368-.364,2.107,2.107,0,0,1,1.412,2l.137,1.366a2.522,2.522,0,0,0,2.641,1.958,6.7,6.7,0,0,0,2.095-.319,2.3,2.3,0,0,0,1.457-2,7.3,7.3,0,0,0,.137-1.048,2.485,2.485,0,0,1,2.687-2.232,2.346,2.346,0,0,1,1.776,2.824,2.133,2.133,0,0,1-2.277,1.913,2.779,2.779,0,0,0-2.687,1.412,7.615,7.615,0,0,0-.455,1.821,2.305,2.305,0,0,1-1.23,2C999.245,2461.1,997.15,2460.693,997.241,2458.143Z" transform="translate(-980.615 -2444.961)" fill="#f89f33" fill-rule="evenodd"/><path d="M750.567,2333.332a2.328,2.328,0,0,0,2.414-1.321,7.2,7.2,0,0,0,.455-2.186,2.244,2.244,0,0,1,1.64-2,2.4,2.4,0,0,1,2.5.729,2.129,2.129,0,0,1,.364,2.414,2.213,2.213,0,0,1-2,1.457,7.055,7.055,0,0,0-1.412.137,2.45,2.45,0,0,0-1.958,2.641,5.455,5.455,0,0,0,.319,2.095,2.275,2.275,0,0,0,2,1.5,8.983,8.983,0,0,0,1.093.137,2.5,2.5,0,0,1,2.232,2.732,2.373,2.373,0,0,1-2.824,1.822,2.212,2.212,0,0,1-1.958-2.323,2.732,2.732,0,0,0-1.412-2.733,11.2,11.2,0,0,0-1.867-.455,2.306,2.306,0,0,1-2-1.229c-.592-1.412-.137-3.552,2.414-3.416Z" transform="translate(-747.922 -2327.711)" fill="#fefefe" fill-rule="evenodd"/></g><path d="M399.968,1823H442.14c4.6,0,9.063,3.871,8.38,8.516l-4.235,28.464c-.683,4.645-3.78,8.516-8.425,8.516H404.2c-4.6,0-7.7-3.871-8.38-8.516l-4.281-28.464C390.86,1826.871,395.323,1823,399.968,1823Z" transform="translate(-373.637 -1739.977)" fill-rule="evenodd" fill="url(#g)"/><g transform="translate(34.07 97.874)"><path d="M876.287,2157.04a2.21,2.21,0,0,0-1.321-2.414,6.666,6.666,0,0,0-2.186-.455,2.3,2.3,0,0,1-1.958-1.64,2.4,2.4,0,0,1,.729-2.5,2.13,2.13,0,0,1,2.414-.364,2.107,2.107,0,0,1,1.412,2c.046.455.091.956.182,1.412a2.45,2.45,0,0,0,2.641,1.958,5.461,5.461,0,0,0,2.095-.319,2.275,2.275,0,0,0,1.5-2,8.931,8.931,0,0,0,.137-1.093,2.469,2.469,0,0,1,2.733-2.232,2.346,2.346,0,0,1,1.776,2.824,2.14,2.14,0,0,1-2.277,1.958,2.732,2.732,0,0,0-2.733,1.412,8.009,8.009,0,0,0-.455,1.867c-.182.82-.364,1.639-1.23,2-1.412.592-3.552.137-3.461-2.414Z" transform="translate(-865.125 -2149.348)" fill="#bfdfb9" fill-rule="evenodd"/><path d="M997.241,2279.143a2.183,2.183,0,0,0-1.321-2.368,6.647,6.647,0,0,0-2.14-.455,2.253,2.253,0,0,1-1.958-1.594,2.379,2.379,0,0,1,.729-2.5,2.071,2.071,0,0,1,2.368-.364,2.106,2.106,0,0,1,1.412,2l.137,1.366a2.522,2.522,0,0,0,2.641,1.958,5.6,5.6,0,0,0,2.095-.319,2.294,2.294,0,0,0,1.457-1.958,8.956,8.956,0,0,0,.137-1.093,2.485,2.485,0,0,1,2.687-2.232,2.369,2.369,0,0,1,1.776,2.823,2.1,2.1,0,0,1-2.277,1.913,2.86,2.86,0,0,0-2.687,1.412,8.2,8.2,0,0,0-.455,1.822,2.315,2.315,0,1,1-4.6-.41Z" transform="translate(-980.615 -2265.986)" fill="#f89f33" fill-rule="evenodd"/><path d="M750.567,2154.708a2.211,2.211,0,0,0,2.414-1.321,7.2,7.2,0,0,0,.455-2.186,2.142,2.142,0,0,1,1.64-1.958,2.3,2.3,0,0,1,2.5.683,2.142,2.142,0,0,1,.364,2.414,2.213,2.213,0,0,1-2,1.458,13.4,13.4,0,0,0-1.412.137,2.45,2.45,0,0,0-1.958,2.641,5.686,5.686,0,0,0,.319,2.14,2.23,2.23,0,0,0,2,1.457,8.983,8.983,0,0,0,1.093.137,2.486,2.486,0,0,1,2.232,2.778,2.346,2.346,0,0,1-2.824,1.776,2.213,2.213,0,0,1-1.958-2.323,2.666,2.666,0,0,0-1.412-2.687,6.238,6.238,0,0,0-1.867-.456,2.445,2.445,0,0,1-2-1.275c-.592-1.412-.137-3.507,2.414-3.416Z" transform="translate(-747.922 -2149.112)" fill="#fefefe" fill-rule="evenodd"/></g></g></g></svg>