<svg id="_3225183_app_logo_media_popular_social_icon" data-name="3225183_app_logo_media_popular_social_icon" xmlns="http://www.w3.org/2000/svg" width="30" height="30" viewBox="0 0 30 30">
  <g id="Dark_Blue">
    <path id="Path_3" data-name="Path 3" d="M15,0h0A15,15,0,0,1,30,15h0A15,15,0,0,1,15,30h0A15,15,0,0,1,0,15H0A15,15,0,0,1,15,0Z" fill="#1da1f2"/>
  </g>
  <g id="Logo_FIXED">
    <path id="Path_4" data-name="Path 4" d="M193.424,260.65a10.471,10.471,0,0,0,10.64-10.452c0-.158,0-.318-.012-.476a7.527,7.527,0,0,0,1.866-1.9,7.532,7.532,0,0,1-2.146.579,3.694,3.694,0,0,0,1.645-2.031,7.564,7.564,0,0,1-2.374.891,3.792,3.792,0,0,0-5.29-.16,3.637,3.637,0,0,0-1.082,3.509,10.687,10.687,0,0,1-7.707-3.838,3.638,3.638,0,0,0,1.158,4.9,3.771,3.771,0,0,1-1.7-.458v.046a3.691,3.691,0,0,0,3,3.6,3.82,3.82,0,0,1-1.688.063,3.74,3.74,0,0,0,3.493,2.552,7.578,7.578,0,0,1-4.642,1.575A7.1,7.1,0,0,1,187.7,259a10.672,10.672,0,0,0,5.724,1.65" transform="translate(-181.806 -238.374)" fill="#fff"/>
    <path id="Path_5" data-name="Path 5" d="M15,0h0A15,15,0,0,1,30,15h0A15,15,0,0,1,15,30h0A15,15,0,0,1,0,15H0A15,15,0,0,1,15,0Z" fill="none"/>
  </g>
</svg>
