<svg xmlns="http://www.w3.org/2000/svg" width="240.248" height="352.012" viewBox="0 0 240.248 352.012">
  <g id="Group_11" data-name="Group 11" transform="translate(-719.876 -1279.448)">
    <g id="Group_6" data-name="Group 6" transform="translate(-121.624 -353.012)">
      <path id="Path_2" data-name="Path 2" d="M128.409,360.226c27.115-9.695,125.914-38.39,125.914-38.39s26.935-5.83,41.117,21.727c9.695,30.213,30.005,145.112,30.005,145.112l17.726,85.651s14.657,40.215-23.814,53.588S194.011,671.77,194.011,671.77s-35.143,10.527-46.634-23.049c-.107-.338-.255-.838-.4-1.348C127.357,525.6,122.807,498.581,122.807,498.581L105.973,395.744S101.295,369.921,128.409,360.226Z" transform="translate(735.835 1311.14)" fill="#e6a557"/>
      <g id="Path_3" data-name="Path 3" transform="translate(848.735 1660.781) rotate(-3)" fill="#fff">
        <path d="M 43.38037872314453 304.8859252929688 C 37.05430221557617 304.8859252929688 31.3349552154541 304.3730163574219 26.38118553161621 303.3614196777344 C 19.55253219604492 301.9669189453125 14.45526218414307 299.6598815917969 11.23103141784668 296.5042724609375 C 8.742300987243652 294.0685424804688 6.634570121765137 290.9587707519531 4.96645450592041 287.2612915039062 C 3.610646963119507 284.2559814453125 2.537262201309204 280.8498229980469 1.776185393333435 277.1374816894531 C 0.5778777003288269 271.2925109863281 0.4858392179012299 266.3768920898438 0.5018776655197144 264.5347290039062 C 0.5021121501922607 264.5074768066406 0.5022938847541809 264.4852294921875 0.5023865699768066 264.4680480957031 L 18.79195404052734 39.62516403198242 L 18.79360771179199 39.60493087768555 L 18.79360771179199 39.58462524414062 C 18.79360771179199 35.0031623840332 19.69076156616211 30.55900955200195 21.46018600463867 26.37562370300293 C 23.16937828063965 22.33470153808594 25.61630058288574 18.70547103881836 28.73299217224121 15.58877849578857 C 31.84972381591797 12.47204780578613 35.47891616821289 10.02512454986572 39.51987838745117 8.315932273864746 C 43.70326232910156 6.5465087890625 48.14737701416016 5.649354934692383 52.72883987426758 5.649354934692383 L 52.73964691162109 5.649354934692383 L 52.75045394897461 5.648893356323242 L 166.1934204101562 0.7378935813903809 L 166.2161102294922 0.7368935346603394 L 166.2386016845703 0.7338550686836243 C 167.3894958496094 0.5787012577056885 168.565185546875 0.5000089406967163 169.7329864501953 0.5000089406967163 C 173.6643829345703 0.5000089406967163 177.5728759765625 1.362393498420715 181.3499908447266 3.063201189041138 C 185.0804138183594 4.74304723739624 188.4958343505859 7.154316425323486 191.5013427734375 10.23004722595215 C 194.9736480712891 13.78354740142822 197.6866912841797 17.99908638000488 199.5651092529297 22.75954818725586 C 201.5636596679688 27.82446670532227 202.5107879638672 33.26610946655273 202.3802032470703 38.93268203735352 L 194.0863800048828 250.5003509521484 L 194.0859985351562 250.5101318359375 L 194.0859985351562 250.5199279785156 C 194.0859985351562 259.5234680175781 193.5982666015625 268.8996276855469 190.0598754882812 276.4772033691406 C 188.2236022949219 280.4095458984375 185.7263031005859 283.5911560058594 182.4251861572266 286.2038269042969 C 180.6601409912109 287.6007385253906 178.6378326416016 288.8417053222656 176.4144897460938 289.8922424316406 C 174.0995483398438 290.9860534667969 171.4890289306641 291.9102172851562 168.6552276611328 292.6391906738281 L 51.94310760498047 304.5441589355469 C 51.91022491455078 304.54736328125 48.38053131103516 304.8859252929688 43.38037872314453 304.8859252929688 Z" stroke="none"/>
        <path d="M 169.7329559326172 1 C 168.5873718261719 1 167.4341888427734 1.07720947265625 166.3053741455078 1.229400634765625 L 166.2603759765625 1.2354736328125 L 166.2149963378906 1.2374267578125 L 52.72883605957031 6.14935302734375 C 48.21464538574219 6.14935302734375 43.83607482910156 7.033233642578125 39.71464538574219 8.77642822265625 C 35.73330688476562 10.46038818359375 32.15748596191406 12.87136840820312 29.08653259277344 15.94232177734375 C 26.01556396484375 19.01324462890625 23.6046142578125 22.58905029296875 21.92068481445312 26.57040405273438 C 20.17745971679688 30.69180297851562 19.29356384277344 35.07040405273438 19.29356384277344 39.5845947265625 L 19.29356384277344 39.62521362304688 L 19.29026794433594 39.6656494140625 L 1.00225830078125 264.4899291992188 C 1.002151489257812 264.5040893554688 1.00201416015625 264.5204772949219 1.001846313476562 264.5391235351562 C 0.9859619140625 266.3653259277344 1.077301025390625 271.2388916015625 2.2659912109375 277.0370178222656 C 3.0196533203125 280.7132263183594 4.081573486328125 284.0840148925781 5.422225952148438 287.0556640625 C 7.064651489257812 290.6961669921875 9.136688232421875 293.7549438476562 11.58076477050781 296.1469421386719 C 14.735107421875 299.234130859375 19.74833679199219 301.4966125488281 26.48114013671875 302.8715209960938 C 31.33268737792969 303.8622436523438 37.17630004882812 304.3858947753906 43.38021850585938 304.3858947753906 C 48.35221862792969 304.3858947753906 51.86192321777344 304.0496520996094 51.89237976074219 304.0466918945312 L 168.5669097900391 292.1455993652344 C 171.3561859130859 291.4259643554688 173.9242706298828 290.515869140625 176.2008819580078 289.4401550292969 C 178.3898773193359 288.4058532714844 180.3796081542969 287.1850891113281 182.1148834228516 285.8117370605469 C 185.3535766601562 283.2484741210938 187.8042297363281 280.1258850097656 189.6067962646484 276.265625 C 193.1039123535156 268.7764282226562 193.5859985351562 259.4657897949219 193.5859985351562 250.5199279785156 L 193.5867614746094 250.4807739257812 L 201.8804779052734 38.91604614257812 C 202.0088043212891 33.31838989257812 201.0733337402344 27.94406127929688 199.0999908447266 22.94305419921875 C 197.2461395263672 18.24484252929688 194.5693054199219 14.08517456054688 191.1437225341797 10.57949829101562 C 188.1820678710938 7.548675537109375 184.8179168701172 5.173187255859375 181.1446838378906 3.519134521484375 C 177.4325256347656 1.8475341796875 173.5930633544922 1 169.7329559326172 1 M 169.7329406738281 3.0517578125e-05 C 186.9294738769531 3.0517578125e-05 203.3993377685547 16.47665405273438 202.8800354003906 38.94696044921875 L 194.5859985351562 250.5199279785156 C 194.5859985351562 269.5379638671875 192.3386535644531 287.0810546875 168.7431945800781 293.1328125 L 51.99383544921875 305.0415344238281 C 51.99385070800781 305.0415344238281 22.2109375 307.9500427246094 10.88130187988281 296.8616333007812 C -0.4483489990234375 285.7733154296875 0.0024566650390625 265.1886901855469 0.0024566650390625 264.447021484375 L 18.29356384277344 39.5845947265625 C 18.29356384277344 20.56649780273438 33.71076965332031 5.14935302734375 52.72883605957031 5.14935302734375 L 166.1717529296875 0.23834228515625 C 167.3580474853516 0.078399658203125 168.5482177734375 3.0517578125e-05 169.7329406738281 3.0517578125e-05 Z" stroke="none" fill="#e3e3e3"/>
      </g>
    </g>
    <text id="At_times_recommendations_offer_excellent_opportunities_that_were_unexplored_due_to_data_insufficiency._Get_ready_to_be_surprised_with_great_investment_opportunities_with_CRPTM_s_recommendation_engine." data-name="At times,
recommendations offer
excellent opportunities
that were unexplored
due to data insufficiency.
Get ready to be surprised
with great investment
opportunities with
CRPTM’s recommendation
engine." transform="translate(758 1382)" fill="#707070" font-size="15" font-family="OpenSans, Open Sans" letter-spacing="-0.03em"><tspan x="0" y="0">At times,</tspan><tspan x="0" y="21">recommendations offer</tspan><tspan x="0" y="42">excellent opportunities</tspan><tspan x="0" y="63">that were unexplored</tspan><tspan x="0" y="84">due to data insufficiency.</tspan><tspan x="0" y="105">Get ready to be surprised</tspan><tspan x="0" y="126">with great investment</tspan><tspan x="0" y="147">opportunities with</tspan><tspan x="0" y="168">CRPTM’s recommendation</tspan><tspan x="0" y="189">engine.</tspan></text>
    <text id="Fruitful_Surprises" data-name="Fruitful Surprises" transform="translate(758 1349)" fill="#e6a557" font-size="18" font-family="OpenSans-Semibold, Open Sans" font-weight="600" letter-spacing="-0.03em"><tspan x="0" y="0">Fruitful Surprises</tspan></text>
    <line id="Line_3" data-name="Line 3" x2="153" transform="translate(758.5 1360.5)" fill="none" stroke="#bfbfbf" stroke-width="1"/>
  </g>
</svg>
